<?xml version="1.0" encoding="UTF-8" standalone="no"?>
<svg width="191.599" height="120.758" version="1.1" id="svg6" sodipodi:docname="afghanistan.svg" xmlns:inkscape="http://www.inkscape.org/namespaces/inkscape" xmlns:sodipodi="http://sodipodi.sourceforge.net/DTD/sodipodi-0.dtd" xmlns="http://www.w3.org/2000/svg" xmlns:svg="http://www.w3.org/2000/svg">
  <defs id="defs10" />
  <sodipodi:namedview id="namedview8" pagecolor="#ffffff" bordercolor="#666666" borderopacity="1.0" objecttolerance="10.0" gridtolerance="10.0" guidetolerance="10.0" inkscape:pageshadow="2" inkscape:pageopacity="0.0" inkscape:pagecheckerboard="0" />
  <g style="display:inline" id="g4">
    <path style="display:inline;fill:#e77936;fill-opacity:1;fill-rule:evenodd;stroke:#505050;stroke-width:.5;stroke-linecap:round;stroke-linejoin:round;stroke-miterlimit:4;stroke-dasharray:none;stroke-opacity:1" class="polygon" d="m197.436 23.154-.678.093-.966-.32-.377-.484-.163-.067-.765.319-1.46.399-2.477 1.047.053.27 1.615 1.063.378.353.198.12-1.464.51-3.135 1.151-2.067.943-.491.04-1.247-.395-1.84-.472-.495.009-4.254.08-3.905.173-1.632.224-3.018.22-1.902.067-1.214.366-1.33.48-1.381.31-1.024.107-1.236.448-.81.89-2.32 1.321-1.306.639-.658.72-.746.066-1.273-.133-.99.78-1.095 1.12-1.999 1.62-1.057.655-.635 1.057.466.55 1.628.824.725.775.398.616.744 1.58.47 1.553.702.673.204 1.14.175.703-.38.497-.35.556v.526l.42.543.371.48.202.382-.25.429-.745.654-.377.667-.822 1.117-1.287.76-.85.556-.906 1.17-1.493 1.3-.633 1.088-.654.597-.672.322.176.585.584.731.964.819-.04 1.276-.04.918.027 1.111-.526.937-2.695.9-2.58.392-3.16.026-1.194-.141-.957-.197-3.434-1.005-1.394.59-.286 1.454 2.501 2.359 1.028 1.314 1.135 2.203.854 1.136-.305 1.06-2.267 1.207-2.257 1.135-2.87.236-1.804.406-.878.585-.642 2.484-.644.91.01 1.082-.608 1.225-.922.794-.644 1.286.2 2.442.303 4.147-1.226 1.313-1.377 1.327-1.455.942-1.386.438-1.149-.16-.91-.822-.535-.69-1.003-.57-1.022.132-1.027.531-1.637-.172-1.404-.531h-.702l-.41.53-1.499 1.128-3.679 1.722-1.5.133-.644.424.256.703.657.57 1.146.412.053.464-1.013.411-.864.465-1.904.57-2.196.226-2.273-.332-1.17-.756h-1.372l-1.26.557-1.3.915-1.42 1.97-.377.345-.385.305-.92.425-1.33.69-.667 1.45-.796 2.586.187 1.392.066 2.413-.313 1.694-.575 1.114.119.876.878.995-.351.636-.74.717-.718.398-2.858.756-3.919 1.035-2.59.663-3.853.982-1.128.238-2.342.133-1.215-.146h-4.063l-1.69.265-1.692.491-1.247.624-.72.61-.254.292-1.695-.504-5.351-.902-14.473 1.194-1.368-.226-4.941-1.394-6.361-1.794-3.94-1.114-5.056-1.45 3.46-3.578 3.018-3.121 3.022-3.127 2.98-3.084.355-1.075.04-2.113-.785-2.823-1.26-1.286-4.16-.518-3.128-.385-3.404-.424-.443-.16-.386-2.193.168-.982-.223-1.893.027-1.458.495-2.4.026-1.087-1.577-4.65-.874-2.578-.902-2.66-.193-.847-.014-1.05 2.09-2.463.647-.535 1.226-1.225.765-.65-.134-.447-1.333-.262-2.014-.026-1.072-.37-.836-.672-.33-.968.545-1.726-.548-3.353 1.121-1.656.962-1.162 3.274-.163-1.136-1.308-.548-.76-.351-.22-.133-.351.175-.352.835-.132.57-.44.92-.613.484-.264.093-.746.437-.527.658-.658.526-.745-.133-.877.483-1.053.219-.658.351-.57-.306-.834-.263-.702-.093-.833.527-.22.658-.306.132-.658.352-.833.263-.658.437-.527.04-.527-.262-.878 1.097-.132.437.482.584.628 1.605 1.166 1.037.338 1.31.171 1.609-.16 1.288-.218.607.053 1.403.85 1.638 1.19.527.526.244.81.485.243 1.046-.802 1.012-.267.93.153 1.028.093 1.028-.295.459-.212 1.795-1.039 1.622-.79 1.014-.485.365-1.622.467-.922.668-.538-.25-.666-.277-.51-.283-.69.283-.365.65-.164 1.628.001 2.856-.726 2.382-.725 2.201-.59 1.003-.093.95.106.434-.173.12-.564.54-.598 1.224-.48 2.303-1.023 2.03-1.52.727-1.153.487-1.684.952-2.595 1.046-2.847.388-1.254.45-.966 1.794-.815 1.832-.59 2.838-.119 3.335-.053.703-1.555.44-1.319.555-.68.806-.554.282-.106 1.8.81 2.755 1.239 3.209.618 1.612.31.669-.053 4.052-.302 3.199.484 1.68 1.321 1.648.34 1.618-.642 1.003-.12.387.411.808.174 1.228-.066.702.363.08.367.093.425.908 1.007 1.639 1.223 1.456.295 1.915-.951.647.106.316-.308.195-.691 1.16-.651 2.116-.61 1.2-.545.427-.45.717-.132.78.133.553-.169.195-.426.225-.185.396-.149.353-.08.645.12 1.188.776 1.727 1.435 1.124.662.518-.119.662-.44.804-.765.202-1.102-.405-1.439.278-1.159.955-.88 1.773-.545 2.589-.205 1.588.12.588.451.793.251.996.053.913-.517.833-1.084.053-1.343-.738-1.6.202-.51.32-.223.988-.578 1.386-1.202 1.337-1.546 1.29-1.89 1.594-1.168 1.897-.448 2.298.51 2.702 1.471 1.02 1.814-.661 2.154-.054 1.187.55.219.924-.053 1.303-.34.852-.013.402.305-.027.609-.454.91-.545 2.556-.337 2.214-.33 2.179-.29 1.914.517 1.492.782 2.254.884 1.489.905.477.904.171.906-.136 1.857-.958 2.806-1.779 2.723-1.093 3.961-.611 1.322-1.906 1.837-1.257 4.187-1.87 2.278-.714 1.306-.12 1.636.34.37.12.325.092.842.156.175.57-.218.614-.91.507-.282.393.345.294 1.275.106 2.643-.682 1.71-.439 1.186-.175.483-.57.745-.57 1.185-.04 1.272.306 1.052.175 1.793-.16.944.496 1.326.943.595.582z" transform="translate(-6.086 -6.729)" id="path2" />
  </g>
</svg>
