<?xml version="1.0" encoding="UTF-8" standalone="no"?>
<svg width="61.648" height="77.153" version="1.1" id="svg6" sodipodi:docname="bangladesh.svg" xmlns:inkscape="http://www.inkscape.org/namespaces/inkscape" xmlns:sodipodi="http://sodipodi.sourceforge.net/DTD/sodipodi-0.dtd" xmlns="http://www.w3.org/2000/svg" xmlns:svg="http://www.w3.org/2000/svg">
  <defs id="defs10" />
  <sodipodi:namedview id="namedview8" pagecolor="#ffffff" bordercolor="#666666" borderopacity="1.0" objecttolerance="10.0" gridtolerance="10.0" guidetolerance="10.0" inkscape:pageshadow="2" inkscape:pageopacity="0.0" inkscape:pagecheckerboard="0" />
  <g style="display:inline" id="g4">
    <path style="display:inline;fill:#36aae7;fill-opacity:1;fill-rule:nonzero;stroke:#505050;stroke-width:.5;stroke-linecap:round;stroke-linejoin:round;stroke-miterlimit:4;stroke-dasharray:none;stroke-opacity:1" class="polygon" d="M423.593 231.99h-.8l-.39-.398.183-.558-.215-1.782.673-.186.349.01.194.531.176.968zm-1-4.3-.48 1.088-.238-.796.205-1.008.205-.557.14.005.282.57zm-9.592-4.55-1.407.929.462-5.5 1.045 2.047.264 1.087zm5.386-2.747-.615.384-.578-.344-.738-1.287.365-1.633.228-.239.37.53.52 1.141.335.863zm-10.336 3.885-2.308.465-1.175-.146 2.194-3.48-.08-1.559-.34-1.273-1.119-1.022-.066-.73-.502-.994-.26-1.168 1.24-.371 1.006.663.142.372.215.955.5.995 1.741 2.041-.026 1.247-.476 3.06zm-1.802-11.589.236.57-.738-.344-.552-.398-.345-.517.578-.279zm-24.937-43.994.876.358.91-.132.585.199.394-.133.148-.464-.442-.69-.32-.49.369-.492.417-.132.468.132.638.438.467.902.08 1.408 1.035 1.273 1.365.902 1.067.411 1.29.306 1.1-.292.551-.89-.246-.795.172-.716.442-.398h.688l.518.57 1.5 3.049-.31 1.35.337 3.706-.38 2.447.066.53.176.411.254.173.438-.005 1.824.464 1.536.504 1.735.465 2.507.358 1.537-.133h.767l1.554.133 4.087-.2h3.38l1.374.346 1.101.132 3.765-.252 3.797-.132 2.056.769 2.238 1.273 1.26.942.226.544-.138.465-.422.252-.772.008-1.773-.61-.304.185.026 1.26-.053.2-.38 1.127-1.068 2.544-.206 1.141-.224.292-.277.16h-.837l-.656.185-.273.411-.425.862-.293.863-.408.265-.978-.464-.609.132-.767.2-.764.49-.528.61-.597.213-1.773-.133-.34.133-.224.437-.183.557-1.385 1.3-.524 2.091-.424 1.356.066 1.061 1.171 2.751.815 3.573.313.358.272.133.12-.133-.027-.743.053-.889.382-.212.488.186.467.783.528 1.427.561.557.876.16 1-.332.744-.65.304-.703-.211-1.377-.053-1.022.475-.982 1.712-1.459.25-.45-.106-1.248v-1.167l.65-.133.868.186 1.101-.57.336-.011.462.61.782-.133.575 2.536.594 2.236-.005 1.075.093 2.29.27 1.867.418.425.495.994.451 1.155.357.65.241 2.118.296 1.531.39 4.806.182.929.106.504.027 4.395.119 1.878.422 1.548.08.597-.422.478-.414.132-.39-.756-.893-.57-1.316-.61-.558-.412-.676.16-.948.928-.38.862.165 1.208.302 1.194.66.676.053.756.236.969.34.888.163.969h-.217l-.792-1.234-.71-1.336-1.838-2.528-.598-4.53-.04-2.234-1.257-2.63-.839-3.64-.334-.942.438-1.18.08-.438-.24.133-.64.61-.836-1.45-.545-1.3-2.166-2.69-.631-1.194-.027-1.154-.935 1.167-1.271.823-1.295 1.233-.86.372-2.729.225-1.577-1.65-2.261-4.034-.302-.915.299-2.372-.536-2.246.006-1.18-.16-.797-.406.173-.157.544.08.835-.165.703-1.959-.132-1.842-.319 1.623 1.18 1.742.28.904 1.06.106.823-.053.929-.894.65-.818.411.152.889.991 1.088-1.202.305-.327.716-.027 1.008.605.89.236.662-.146.61.588.65.846 1.374.274.981-.355 1.376-.485.53-.779.518-1.836 1.732-.896 1.976-.764.928-.953.173-.371-.412-.791-.53-.013-.969.237-.769 1.614-1.845-.876.252-.994.53-1.517.995-.479-1.233-.318-1.141-.003-1.405 1.21-2.096-1.37 1.048-.38 1.313.168 1.54-.176 1.087-.539 1.425-.73.862-1.183.544-.525.836-.79.623-.027-1.234-.254-1.633-.853-3.872-.184.836.44 2.402-.026 1.559-.645 1.234-1.303 1.326-.996.186-.587-.2-.892-.822-.97-1.167-.163-1.886-.4-1.035.053-1.234-.08-1.167-1.041-3.135-.674-1.606.08-.518-.054-.212-.314-2.068-.434-1.26-.217-1.35 1.028-1.937-.412-.319-1.186-.252-1.103-.331-.27-.505.487-1.907-.573-.743-.82-.756-.257-.305-.27-.385-.38-.955.732-2.015 1.024-2.338.186-.888.17-1.547.093-.597-.134-.584-1.079-.676-1.907-.279-1.347-.57-.79-.863-.668-.345-.824.253-1.054-.332-.881-.85-.739-1.034.093-.49.196-.65 1.39-2.675.518-.133 1.202.518h.45l.79-1.06 1.105-3.01 1.56.006 1.376.133.928.146.925-.133.966-.238.526-.385.29-.478-.092-.41-1.186-.571-.458-.425-.33-1.207-.349-.451h-2.33l-1.208-.557-.664-.491-1.185-1.642-1.461-1.22-1.4-.293-.54-.398-.294-.623.17-.902.42-.823.288-.915 1.12-1.207 1.31-1.048.584-.716.828-.77.093-.424-.147-.478-.67-.45-.462-.147-.08-.292.319-.782.64-.133 1.327.716 1.351 1.154.804 1.035.027.81.522.132z" transform="translate(-371.241 -164.45)" id="path2" />
  </g>
</svg>
