<?xml version="1.0" encoding="UTF-8" standalone="no"?>
<svg width="44.881" height="21.825" version="1.1" id="svg6" sodipodi:docname="bhutan.svg" xmlns:inkscape="http://www.inkscape.org/namespaces/inkscape" xmlns:sodipodi="http://sodipodi.sourceforge.net/DTD/sodipodi-0.dtd" xmlns="http://www.w3.org/2000/svg" xmlns:svg="http://www.w3.org/2000/svg">
  <defs id="defs10" />
  <sodipodi:namedview id="namedview8" pagecolor="#ffffff" bordercolor="#666666" borderopacity="1.0" objecttolerance="10.0" gridtolerance="10.0" guidetolerance="10.0" inkscape:pageshadow="2" inkscape:pageopacity="0.0" inkscape:pagecheckerboard="0" />
  <g style="display:inline" id="g4">
    <path style="display:inline;fill:#b969ed;fill-opacity:1;fill-rule:evenodd;stroke:#505050;stroke-width:.5;stroke-linecap:round;stroke-linejoin:round;stroke-miterlimit:4;stroke-dasharray:none;stroke-opacity:1" class="polygon" d="m419.384 149.054-.08.305-.373.796-.244.876.204.716.84.85 1.128.676h1.436l1.322-.266.528.133.718 1.14.51.982-.693 1.009-.38.888-.136.637.08.279.427.504.494.875.067.796-.315.53-.681.266-.725-.132-.598.01-.75.133-1.172.292-1.09.384h-2.042l-.819-.796-.386-.003-1.86 1.022-2.025-.186-3.69.345-1.54.133-1.583-.133-.802-.212-1.489-.716-1.35-.531-1.373.477-.482.133-1.102 1.234-2.385.411-2.378.292-.702-.16h-1.34l-.053-.291.04-.279-.305-.225-.544-.226-.935-.132-1.2-.305-.69-.292-2.44.437-1.423-.65-1.616-.888-.816-.385-.298-1.381-.287-.451-.637-.464-.356-.544.286-.57 1.61-1.049.132-.252.745-1.963 1.034-.716 1.02-.995.77-1.575 1.489-1.617 1.635-1.658 1.125-1.35.745-.637 1.537-.677 1.288-.398.89-.902 1.075-.504 1.103-.226 1.638.133 1.543.318 1.69.451.195.359-.143.636-.244.65-.01.332.26.186 1.654.132 2.026-.132 1.135.132 2.533.597.742.425.773.318h.755l.958-.69 1.008-.583.626-.133.448.186.806.557 1.668.53 1.489.399.481.384-.166 1.624z" transform="translate(-380.743 -141.628)" id="path2" />
  </g>
</svg>
