<?xml version="1.0" encoding="UTF-8" standalone="no"?>
<svg width="387.495" height="382.565" version="1.1" id="svg6" sodipodi:docname="india.svg" xmlns:inkscape="http://www.inkscape.org/namespaces/inkscape" xmlns:sodipodi="http://sodipodi.sourceforge.net/DTD/sodipodi-0.dtd" xmlns="http://www.w3.org/2000/svg" xmlns:svg="http://www.w3.org/2000/svg">
  <defs id="defs10" />
  <sodipodi:namedview id="namedview8" pagecolor="#ffffff" bordercolor="#666666" borderopacity="1.0" objecttolerance="10.0" gridtolerance="10.0" guidetolerance="10.0" inkscape:pageshadow="2" inkscape:pageopacity="0.0" inkscape:pagecheckerboard="0" />
  <g style="display:inline" id="g4">
    <path style="display:inline;fill:#7ce736;fill-opacity:1;fill-rule:nonzero;stroke:#505050;stroke-width:.5;stroke-linecap:round;stroke-linejoin:round;stroke-miterlimit:4;stroke-dasharray:none;stroke-opacity:1" class="polygon" d="m449.34 426.69-.812 1.087-1.586-3.343-.68-.199-.027-1.594.369-.624 1.834-.703.484.398.937 3.096zm-2.076-6.97-1.261 1.26-.547-.756.226-.518.535-.291.502-.412zm-3.86-6.917-1.029.013-.306-.57-.432-.597.333-.57.543-.147.773.916.181.65zm1.25-2.372-.622.49h-.156l-.08-.37-.026-.266-.12-.477-.066-.836.499-.703.499.146-.266.716zm-271.54-2.818-.188.16h-.33l-.066-.16.04-.132.17.132.225-.132.256-.425.053-.132h.053l-.053.238zm266.285.266.396.49-.734-.132-.677-.743.176-.703.258-.279zm-4.686-11.77-.582.133-.357-.45-.04-.532.336-.344.311-.173h.314l.311.889zm-3.776-18.813-.4.451-1.369-.358.106-1.37-.322-1.332.237-.557 1.023-.956.83-.424.579 1.3.27 1.273zm-261.631-8.59-.093.132-.008-.239.12-.385.143-.252h.04l-.04.252-.067.345zm264.156-2.371-.645.265-.647-.332.506-.53.08-1.088.66.61-.04.69zm4.3-8.697.594 1.822-1.067-.796-.35-.57.536-.385zm-3.977-10.986-.421.863-.08-1.848.196-.239h.215l.268.172zm.067 17.628-.292.318-.43-.345-1.23-2.381-.212-1.528-.342-.53.432-.757.544-.252.323-.849.119-1.3.475-1.061.243-.292.988-.012.252-.133-.14-1.021-.578-.438-.2-.278.027-2.441.15-.982.36-.703-.253-1.466.174-.544.715-.77.315-1.64-.29-.491.68-2.534-.04-1.691.892-1.695 1.39-.77h.437l.053 1.446.132.478-.804.849.767 1.114-.106.398-.306.889-.508.862-.708.358-.549 1.154-.314.438 1.045 1.22.335 4.14-.765 1.14-.914.226.21 2.76-.163.624-.908 1.356-.167.596-.512.558.217.69.435.305.01.57-.406 1.46-.026 1.664zM248.092 94.303h-.039l-.779-.982.814 1.035-.434 1.088.08.862.802.955.65.663-.634.902-.376 1.035.422.464-.199 1.497.19.278.448.133.702-.133.73-.398.617-.132.37.132.493-1.14.433-.16.84.319 1.665 2.134 1.409 1.804.298.252.106.133.25.212 1.39.929.959.597 1.31-.212h1.73l1.024.583.593.398h.026l.08.014h.001l2.08 1.418.903-.133.595.411.17 1.008-.277 1.035.066.491.925.133 1.971.69 1.744.61.9.199.972.45.857.717 1.681.929 1.485.703.329.968-.585-.212-.776.132-.79.425-.373.265-1.802 1.659-.945.504-.848.742-1.952 2.249-1.127 2.099-.823 1.972.013 1.398-.303 1.637-.843.929-.518.318-.61 1.41-.436 1.641.252.531 1.047.716 1.02.704 1.303.756 1.243.716.802.133.222-.412.293-.384.917.212 1.118.703.728.557.327.186 1.927.942 1.599.782 2.02.995.495.61.434.637.954.863 2.324 1.515 1.984 1.087 1.614.89 1.265.623.587-.133.64-.332.564-.185.654.172.994.478 2.332 1.438 2.17 1.127 2.369-.199.63.186.444 1.021.3 1.035 2.646.677 1.74.305 1.988.557 1.007.411 1.057-.517.192-.465.839-.265 1.386.133 2.59.796 1.086.239.907-.757 1.694-.358.878-.398 1.84.836 3.331 1.061 1.716.664.405.65.187.61-.012 1.486.417.676 3.341 1.514 1.1.636.892.213h.505l.348.185.3.863.234.199.642.212.7.133 2.168-.743 1.486-.57 1.061.145.683.624.093.915.397.968.759.478h.81l2.012-.65 1.62.504 1.488.186 1.652.318.64.239 1.714.796 2.092.809.81-.133 3.37-1.505.284.185.686 1.438 1.024.518 1.6.45 1.674-.835 1.32.239 1.596.133 1.531-.398 1.332-.133 1.935.716.422-.172.37-.464.751-2.075.663-1.836-.053-1.088-.613-1.606-1.563-2.092-.12-.637.528-3.647.58-2.103.5-.994.55-1.417.092-.65-.053-.597-.537-.358-.143-.451.134-.385.425-.212 1.78-.266 2-.57.798-.305.604-.305.614-.478.573.013 1.793.69.63.438.33 1.327.268.517-.252 1.344-1.073 3.256.21 1.22.898.89.78.623-.132.252-1.609 1.048-.286.557.355.544.637.465.287.45.298 1.382.816.384 1.615.89 1.424.65 2.44-.439.69.292 1.2.305.935.133.544.225.305.226-.04.279.053.291h1.34l.702.16 2.378-.292 2.385-.412 1.102-1.233.482-.133 1.373-.477 1.35.517 1.488.716.803.213 1.583.132 1.54-.132 3.69-.345 2.025.185 1.86-1.021.386.003.819.796h2.043l1.089-.385 1.172-.292.75-.132.598-.011.724.133.682-.266.315-.53-.067-.796-.494-.876-.428-.504-.08-.278.136-.637.38-.889.693-1.008-.51-.982-.718-1.14-.528-.133-1.323.265h-1.435l-1.128-.677-.84-.849-.205-.716.244-.875.374-.796.08-.305 1.07.003 1.488.172 1.123.226.906-.01 1.64-1.02h.749l.856-.2.375-.199.26.146.94.133h.98l.872-.279.876-.438 1.56-.928.31-.53-.003-.492-.29-.318-.295-.16.12-.424.653-.716 2.388-1.075 2.031-1.326 1.118-.995.513-1.194.646-1.3.602-.517 1.44-.332 4.038-.478 1.271-.517 1.877-.968.947-.77.526-.623.053-.69 1.246-.212 1.086-1.115 1.324-1.127 2.319-.955 2.056-1.274.716.2.748.596.394.663.08.332 2.627.425h.415l1.936.596 1.782.717.982.186h.479l.411-.226.482-.637.493-.464.308-.186-.014-.73 2.581-1.425 2.318-1.022 1.994-.743.586.305.649.57.878 1.445.533.359 1.356-.2.247.16-.214.517-.918.65-1.19.57-.775.478.252 1.573-.054.544.333.173 2.45-1.562 1.18-.305.415.372.134.835.967 1.722.41.876-2.458 2.084-.906 1.074.027.385-.054.372-.627.53.026.212.51.332.618.252.301-.009.514-.504 2.32-.716.666.132 1.63 1.101h.76l1.96.332 1.254-.411.925.385 1.915 1.374.438.252-.162.836-.106.915.482.73.054.636-.107.597-.384.412-1.063.225-.906.703-1.434 1.022-1.153.822-.837.716-.304.757.093.955.244.995 2.677 3.664-.027.636-.849.173-1.123-.412-.97-.583-1.093-1.57-.878-.464-.875-.132-5.193.809-1.106.225-1.717.584-1.2 1.18-.87 1.088-.903.438-1.312.836-3.641 2.579-2.107 1.114-1.374.411-.965.584-.52.955-.395.69-.12 1.68.24 2.071.523 1.327.278.279.04.384-.523.717-.694.61-.338.371-.308 1.89-.614.93-1.122 1.366-1 1.034-1.566.81-.595.65-.57 1.193-.339 1.009-.013.371.179.318.651.359.792.344.377.544.053.65-.588 1.562-1.05 2.173-1.206 1.719-1.243 1.64-.295.53-1.117 2.015-.972 2.767-.655 1.866-.567 1.273h-.7l-.85-.411-2.06-.544-1.322-.438-.961-.398h-.665l-.918.252-.932.173-.552-.186-1.282-1.154-.388.133-.251.557.865 3.286.562 1.22-.093 2.043-.223 2.506-.335 2.74-.22.637-.55.73-.723.199-.658-.292h-.528l-.175.464.153 1.18-.64 1.358-.472 1.167.133 1.128.224 1.14.755 2.48.005.902-.149.81-.394.331h-.675l-.366.332-.279.504-.761 1.882-.73.2-.733-.28-1.1-1.26-.669-.371h-.424l-.19.332-.293.756-.296.504-.736.438-.182-.93-.39-4.804-.296-1.53-.24-2.12-.358-.65-.45-1.153-.496-.995-.417-.425-.271-1.868-.093-2.29.005-1.074-.594-2.238-.575-2.535-.782.133-.462-.61-.336.012-1.1.57-.87-.186-.648.133-.001 1.167.106 1.247-.25.451-1.712 1.46-.475.981.053 1.022.21 1.375-.303.703-.744.65-1 .332-.876-.16-.561-.556-.528-1.426-.467-.783-.488-.186-.382.213-.053.888.026.743-.12.133-.271-.133-.313-.358-.815-3.572-1.171-2.752-.066-1.061.424-1.356.525-2.09 1.385-1.3.183-.558.225-.437.34-.133 1.773.133.597-.213.528-.61.764-.49.767-.2.608-.132.978.464.409-.265.293-.863.424-.862.274-.411.655-.186h.837l.277-.159.224-.292.206-1.14 1.07-2.545.379-1.128.053-.199-.027-1.26.304-.185 1.774.61.772-.008.421-.252.138-.465-.226-.544-1.26-.941-2.238-1.274-2.056-.783-3.797.133-3.765.252-1.1-.132-1.374-.345h-3.381l-4.087.199-1.553-.133h-.767l-1.538.133-2.507-.359-1.734-.464-1.537-.504-1.824-.464-.438.005-.254-.173-.175-.411-.067-.53.38-2.447-.336-3.706.31-1.35-1.5-3.05-.518-.57h-.689l-.441.397-.173.716.247.796-.55.89-1.102.291-1.29-.305-1.067-.425-1.364-.902-1.036-1.273-.08-1.408-.467-.915-.638-.438-.467-.132-.416.132-.37.491.32.491.442.69-.147.464h-.394l-.586-.199-.909.133-.877-.358h-.527l-.522-.133-.027-.81-.802-1.034-1.351-1.154-1.328-.716-.64.132-.318.783.08.292.461.146.67.45.147.478-.093.425-.827.77-.584.715-1.31 1.048-1.12 1.208-.29.915-.419.822-.17.903.294.623.54.398 1.4.292 1.461 1.22 1.185 1.643.665.49 1.207.558h2.33l.35.45.33 1.208.457.424 1.186.57.093.412-.29.477-.526.385-.967.239-.924.133-.93-.146-1.375-.133-1.56-.007-1.105 3.01-.79 1.061h-.45l-1.202-.518-.519.133-1.388 2.674-.197.65-.093.49.74 1.035.88.85 1.055.331.824-.252.668.345.79.862 1.347.57 1.907.28 1.078.676.134.583-.093.597-.17 1.547-.185.889-1.024 2.337-.733 2.015.38.956.27.384.257.305.82.756.574.743-.488 1.908.27.504 1.104.332 1.186.252.411.318-1.028 1.938.218 1.35.433 1.26.315 2.068.053.212-.08.517.674 1.607 1.041 3.136.08 1.167-.053 1.234-.312 2.068-1.042-.009.932 1.384.297.994.133 1.388-1.122.173-.792-.16-.662-1.22-.307 1.1-1.184 1.022-.425-.504-.243-.53-.04-.942.65-3.608-.132-.412-.292-.265-.646-.146-.239-.73-.992 3.846.438 1.57-.2.716-1.84.61-1.864-1.446-.239-.464-.106.809-.338.995-1.747-.186-.865-.77.565-1.312 1.083-3.176.202-1.414-1.449-1.035-1.23-.637-.703-1.442.268 1.583.652.557.959.398 1.012.81-.732.98-.707.611-1.358 2.33-1.654 1.3-1.93.981-6.335 1.442-1.327.584-1.944 1.796-1.254 1.707-.23 1.729.71 1.868.577 2.925.48.597-.677 1.06-1.176 1.128-.973 1.529.092.835-.249.57-3.338 1.88-.702 1.1-.918 1.088-1.1-.623-.642.009.885.862-.12.57-.31.332-.84.318-4.819 1.381-3.687 1.313H338l.19-.397.645-.359-.067-1.505-.676-.279-.585-.133-2.804 1.835-1.138 1.813.239.345.634-.132 1.889-1.035.875.292.067.398-2.866 1.57-6.03 5.079-.282.994-.782 1.128-1.081 1.061-1.945 2.582-3.728 3.836-1.03 1.432-5.967 2.955-1.087.876-2.445 2.877-2.516 2.357-2.938 1.953-5.09 2.493-3.099 2.357-.968 1.567-.066.557.335.77.568.702.133.557-.28 1.009-.153.557-.907 1.386-1.556.982-5.035 2.068h-.666l-4.11-.411-1.536.371-.632.968-1.412 4.01-1.353 1.06-.486.969-.195.663-.808-.013-.703-.305-.514.212-.585-1.346-.982-.279-.812-.133-3.472 1.357-1.212 1.088-2.552 5.135-.633 3.311.6 3.66.886 2.923.176 1.326-.12 1.71-.45.836-.324.982.423 2.033 1.072 2.663.261 1.127.027 1.168.805 2.663-.543-.477-.427-1.128-1.024-1.432-1.248 1.426.691 1.021 2.336 1.22.69.995-1.502 8.902-1.14 3.16-1.401 2.073-.74.796-1.635 3.273-1.156 3.96-.23 1.525.522 1.706-.589 1.008-.74.77 1.404-.345.48.928.178.955.027 5.678-.16 5.92-1.078.24h-1.187l-1.046-.173-.754-.226-1.872.319-1.008.65-.808 1.088.053 1.851-3.47 4.671-.748 1.556-.276 1.498.451.783.886.796 1.156.318 2.235.318 1.073.438.73.796-2.633-.849-3.095-.172-7.403 2.17-1.95 1.523-1.088 1.313-.748 3.018-.133 2.016-.878 1.682-3.845 2.583-2.429.796-.923.69-2.867-.889-3.125-2.263-1.313-1.207-4.638-5.834-.848-.743-.935-2.494-.147-.929-.257-.371-.442-.252-.211-.385-1.041-2.855-.428-2.976-.663-3.325.561.226.775 1.088.387 1.59.04 2.222.583.252.52-.212-1.489-5.12-1.296-1.273-.345-.133-.36-.822-.04-1.035.119-.49-1.036-1.676-.362-.995-2.302-5.066-1.034-3.628-1.602-4.036-1.031-1.414-1.613-3.113-1.351-1.448-1.433-1.939-1.126-.862-.44-.451-3.331-6.727-1.024-3.715-.866-1.755-.43-1.333-1.17-5.699-.01-1.021-.141-1.115-.828-2.414-1.459-2.61-.422-1.624.004-.637-.925-2.533-.198-1.154-.626-1.074-.726-.982-.76-.782-1.781-2.565-.638-.623-1.213-1.664-.86-3.073-1.109-1.208h1.74l-1.061-1.127-.505-.743-.559-.464.81-1.141h-1.327l-.702-.69-.958-2.152-1.746-2.43-.297-1.3-1.54-4.082-1.306-9.8-1.195-4.362.093-1.247-1.445-3.778-.705-2.534-.29-2.142-.384-1.412-.345-2.792-.553-.889-.067-.53.37-1.274 1.035-1.966.38-1.247-.444-1.755-.947 1.842-.875.518-.42-1.377-.003-1.85-.107-.437.227-.624 2.33.292-2.644-1.14-.318-.664-.092-.49.57-.916-.966-.77-.386-2.373-.285-.544-.106-.437.546-3.277 2.284-6.436.167-1.454-.196-2.066-.51-1.645-.214-1.739-.138-.45-.827-.16-.785-.637-.91-2.577.832-.85.64-.464-.882.2-.73-.133 1.383-1.181 1.234-.915 2.81-1.062 1.195-.676-1.77.61-1.848.226-3.936-.133.655-2.401.685-.796.745-.451-1.097.133-1.263-.186.409-2.438.993-.531 1.074-.133 1.331-.345-1.422-.397-1.483-.186-1.78.398-1.637-.292-1.987.007.794.332.847.742-.424 1.327-.4.822-1.095.57-.893.863-.25.756-.509.53.872.386.902.265.524.61.614.889-.04 1.727-2.354 4.073-.813.902-5.892 2.455-2.316 1.337-4.933 1.737-1.923.318-2.127-.345-3.108-1.326-4.745-3.376-1.234-1.115-3.793-4.336-2.738-2.292-2.077-2.136-2.57-2.017-2.427-2.723-.516-1.234.18-1.26.905-.69 1.058.279.834 1.061.592.478.5.199 3.617-1.63 1.405.132.96-.823 1.215.173 2.478-1.274 1.039-.132 1.235-.252 1.996-3.224 1.495-2.05.968-.424-.053-.504-.267-.65-.725.16-.508.623-.376.756-.378.45-1.171-.41h-.79l-.973.252-3.561 1.207-1.462 1.074-.995.213-5.687-1.181-5.556-2.722-2.34-1.807-1.479-2.31-1.482-2.752.482-.77 2.299-1.652 1.985-1.3-1.783.583-1.93.81-.955.557-1.081 1.18-1.438.266-.57-1.75-.359-1.705.917-.57.64-.358 1.31-.306 1.425-.212 1.298.01h1.824l.054-3.994.152-.345.256-.199.295-.132h.249l.375.597h.467l.495-.345 1.112.252.889-.173.902.24 1.532.004 2.765-.133h1.535l.995.637 1.088.703 1.18.133 1.706-.133 1.158-.265.584-.65.44-.624 2.53-.915 2.656-.743.763-.132.243.437-.12.73.31.69 1.065.438.753.132.677-.132.501-.226 1.076-1.088.556-.252h.726l.811-.517.014-.398-.519-.186-.438-.57.08-.465-.133-.65.093-.623.345-.464.604-.451-.361-.929-.926-1.776-.97-2.274-1.024-1.896-1.299-1.66-.67-1.22.067-2.691-.12-.544-.445-.332-.601-.185-.845.278h-2.398l-.802-.278-2.182-2.701-.286-1.062-.012-1.087.728-1.895.22-1.76.107-1.644-.12-.464-.437-.557-.734-.411-1.963-.133-2.328-.544-1.795-.955-1.242-.584-.34-.371-.15-.438.326-1.986.563-2.239.412-.69.71-.703.527-.477.843-.637 2.275-2.136 2.036-2.933 1.256-2.047.656-.61.668-.517.983-.637 1.132-.57h1.126l1.07.517.795.61.266 1.354.563.876.608.53.804.253h1.021l4.11-1.554 1.399-.318 3.353-.2 2.305-.596 2.038-.624.247-1.127.785-1.723 2.394-2.242.673-.995.725-1.912.771-1.743.662-.73 3.763-1.912 3.685-1.76.602-.797 2.382-3.65 1.364-2.476.354-.796.79-2.153.854-2.14 1.138-.492 2.528-.822 2.005-.796 1.026-.915.622-.796-.12-.796-.555-.929.119-.557.106-.544 1.455-1.114 2.741-3.307 1.641-1.652.544.001 1.717-.875 1.632-.995-.093-.451-.204-.584-.937-.265-.293-.703.23-1.009.782-2.706-.16-.77-.954-2.506.212-.69.393-.703 1.064-.942 1.376-.783 4.404-1.864.893-.199 1.53-.464.937-.995.119-.848-.41-.526-.915-.706-1.72-.64-1.549-.555-2.632.053-1.368-.478-.37-.334-.193-1.178.264-1.99-.41-.174-.585.235-1.39-.237-1.71.027-.65-.553.324-.669-.093-.89-.253-.846-.265-.177-.816-.201-1.271-.731-1.023-.902-.6-.61-.187-.421.053-.279.746-.784.894-1.1.33-.944.092-.684-.25-.506-.815-.618-.872-.54-.351-.47-.014-.71.325-.887 1.027-.67 1.82-.635.469-.79-.053-.584-.498-.175-1.279-.004-2.158-.2-.365-.323-.243-.433-.003-.428.457-.488.546-.617-.093-.601-.634-.68-1.52-.497-.205-.701.234-.585.504-.835.438-.58 1.036-1.651 1.255-.361 1.54-.534 1.703-.59 2.621.442 1.276.216 2.582.504 2.164.423 2.21.12.915-.027 1.016.5 2.5.857 2.03.451 1.375-.005 2.029-.758 1.01-.694 1.363-.762 1.744.027 3.771-1.173.706.202 1.12.066 1.352-.678.699-.804.106-.402.337-.297 1.443-.51 1.449-.708.395-.933.239-.632 1.59-.817 1.65-.849 1.732-.889 1.965-1.01 1.663-.856 1.36-.698.152.151.538.315.576.156.677-.3.843-.246.44.137.067.404-.508 1.89.04.741.843 1.54 1.098 2.5 1.029 2.344.609 1.538.595.63 2.505.642 2.057.528 1.224.865 1.35.83.95.51.447.653.093.59-.08.397-.516.522-2.37 1.343-.283.426-.066.56.465 1.668.293 1.046.08 2.102.158 1.998.838.91.686.588.42.533.852.73.715.546.61.32.302.72-.18.846-.249.738.08.397.49.28.751.736.093 1.077-.053.74.297.666.08.739-.23 1.845.039.834-.655.053-.565.284-.802 1.162-.919.307-1.044.093-1.076-.714-.883-.744-.237-.414-.222-.784-.475-.512-.92.24-1.395.106-1.51.174-.276.172-.027.33.37.706.315.92.186 1.286.41.85.132.28 2.412 2.556.636.517.132.345z" transform="translate(-107.843 -45.462)" id="path2" />
  </g>
</svg>
