<?xml version="1.0" encoding="UTF-8" standalone="no"?>
<svg width="3.401" height="18.995" version="1.1" id="svg6" sodipodi:docname="maldives.svg" xmlns:inkscape="http://www.inkscape.org/namespaces/inkscape" xmlns:sodipodi="http://sodipodi.sourceforge.net/DTD/sodipodi-0.dtd" xmlns="http://www.w3.org/2000/svg" xmlns:svg="http://www.w3.org/2000/svg">
  <defs id="defs10" />
  <sodipodi:namedview id="namedview8" pagecolor="#ffffff" bordercolor="#666666" borderopacity="1.0" objecttolerance="10.0" gridtolerance="10.0" guidetolerance="10.0" inkscape:pageshadow="2" inkscape:pageopacity="0.0" inkscape:pagecheckerboard="0" />
  <g style="display:inline" id="g4">
    <path d="m177.323 458.156-.065.015-.08.065-.028.01-.012.062v.065l.08.059.059.021.068.06.052.051.05.055.067-.015h.043l.016-.062-.019-.04.059-.036v-.052l-.04-.108-.05-.04-.03-.04-.062-.043-.045-.021h-.01zm.635.355-.107.059-.1.123-.092.068-.138.01-.05.059-.07.188-.08.136-.036.206s.014.151.004.16a.713.713 0 0 0 0 .14l.037.221.124.108.095.108v.12l.025.136.074.164.043.132.167.188.07.189v.099l.06.145.076.104.077.096.09.108.138.071.127-.03.077-.056.012-.114.056-.163.077-.081v-.124l-.105-.16-.179-.067-.096-.077-.037-.17-.012-.145v-.117l-.099-.206-.077-.158-.138-.096-.068-.019-.108-.067-.057-.065v-.129l.02-.167v-.099l.03-.11.065-.097.102-.114.102-.096.06-.12.032-.065v-.102l-.024-.065-.04-.059h-.053zm-1.082 1.289-.062.028-.081.043-.057.07-.05.06-.052.096-.028.093v.059l.034.058h.07l.05-.034.037-.127.016-.089.101-.136.065-.077-.018-.043zm.574 1.017-.034.04.034.04.043-.012.012-.043zm.01.192-.032.024-.062.09-.08.095-.052.2-.053.151-.021.108-.028.16v.145l.058.074.068.05.013.086s-.013.062-.013.071c0 .01-.009.031-.009.031l-.03.022.018.031h.074l.13-.015.144-.093.068-.04.053-.163.018-.12v-.111l-.018-.157-.04-.09-.025-.204-.015-.123-.05-.09-.037-.095-.055-.036zm1.303.823-.049.012-.055.037-.09.047-.05.055-.08.052-.046.142-.012.099.077.03.117.014.111.046.046.065.031.086.111.04.102-.031.136-.083.034-.167-.087-.126-.08-.093-.092-.062-.071-.05-.048-.092-.005-.01zm-1.076.46-.092.03-.108.055-.059.02-.052.04-.074.042-.017.024-.048.077-.031.055-.007.091-.018.063-.028.067-.022.071.037.06.016.054.058.081.087.02.098.02.124-.04.172-.129.099-.081.163-.194.065-.065-.037-.1-.098-.098-.071-.074-.071-.077zm.95.912v.081h.062l.015-.065zm-1.338.222-.037.04v.055l.043.052.09.02.107-.037.09-.067.033-.036-.015-.01-.03-.015h-.22zm1.307.232-.083.015-.025.055.05.05h.214v-.071l-.074-.034zm.074.175-.09.111-.061.133-.03.031-.044.081-.007.055-.007.093-.003.083-.025.13v.367l.028.052.099.083.04.065h.197l.071-.012.053-.093.027-.167.064-.105.084-.067.124-.093.074-.077v-.123l-.074-.083-.124-.086-.067-.071-.053-.114-.086-.09-.093-.064-.068-.036zm-1.15.889-.04.028-.019.046.019.08.07.044.078-.036.027-.09-.055-.055h-.08zm-.355.117-.105.028-.065.03-.064.22-.022.083-.007.253-.034.345-.015.315.07.339v.077l.022.173.084.043.15.025.096.012.102-.086.087-.102.058-.306v-.333l-.028-.105-.021-.096v-.352l-.013-.136-.068-.15-.083-.124-.08-.09zm1.536.36-.117.02-.034.061-.065.034-.022.13-.012.262v.136l.08.114h.096l.095-.114.074-.117.065-.29v-.096l-.04-.12-.074-.02zm-.056 1.04-.061.03-.08.023-.071.067-.111.154-.037.105-.046.055v.105l.043.05.07.019.115.037.086.126.056.09.105.055.107-.024.04-.059.072-.019.148-.028.11.028.115-.037.095-.052.022-.126-.071-.102-.062-.034-.11.052-.072.04-.095.019-.096-.055-.074-.127-.046-.16-.031-.139-.11-.093zm-1.255.857-.061.021-.087.015-.077.067-.034.081.028.105.068.123v.117c0 .015.05.071.05.071l.098.05.148-.04.111-.07.04-.21v-.083l-.09-.124-.08-.065zm1.194.123-.05.04v.062l.06.022.095-.028v-.077l-.071-.019zm-.114.255v.504l-.016.083-.021.216v.173l.101.037.155-.1.126-.129.123-.043.019-.062.09-.108.043-.194.037-.102.046-.11-.065-.023-.068-.04-.166.01-.145-.109h-.238zm-1.067.39-.127.04-.077.133-.046.059v.333l.062.142.04.123.176-.05.13-.102.073-.086.019-.225v-.234l-.031-.096-.047-.016-.015-.01-.058-.015zm.431 1.058-.12.036-.13.04-.135.022-.086.077-.034.034v.138l.034.074.012.127.043.17.046.132.13.067.135.012.17-.077.228-.114.167-.111.139-.114.068-.108-.056-.123-.08-.111-.096-.043h-.117l-.061-.036-.08-.046-.08-.024zm1.123.987-.04.015-.037.04-.108.052-.117.058-.207.145-.132.067-.108.083-.053.074v.093l.016.107.068.028.055.086.108.02.11-.04.112-.016.142-.05.102-.197v-.453l.114-.1v-.014zm-.762 2.908-.055.022-.034.03-.071.047-.012.03.018.078.05.062.064.083-.037.114-.145.139-.139.059-.105.108-.11.077-.059.12v.126l.021.13.047.132.049.13.108.096.086.09.133.04h.117l.136-.036.068-.077.117-.034.09-.02h.098l.148-.129s.13-.096.13-.11c0-.016.08-.167.08-.167s-.025-.043-.031-.065c-.007-.022-.068-.117-.068-.15 0-.033-.117-.183-.117-.183l-.102-.08-.01-.124-.011-.17-.084-.206-.077-.13h-.141zm.37 2.75-.04.02.019.055.015.03.019.053.012.065.03.046.029-.055v-.105l-.059-.09zm-.493.768-.053.022-.092.031h-.04l-.046-.012-.022-.019h-.05v.115l.035.07s.068.06.077.06c.009 0 .03.046.03.046h.075l.068-.05.067-.09.025-.062v-.09l.012-.01-.012-.015z" style="display:inline;fill:#e76036;fill-opacity:1;stroke:#505050;stroke-width:.5;stroke-miterlimit:4;stroke-dasharray:none;stroke-opacity:1" transform="translate(-176.296 -457.903)" id="path2" />
  </g>
</svg>
