<?xml version="1.0" encoding="UTF-8" standalone="no"?>
<svg width="108.087" height="53.803" version="1.1" id="svg6" sodipodi:docname="nepal.svg" xmlns:inkscape="http://www.inkscape.org/namespaces/inkscape" xmlns:sodipodi="http://sodipodi.sourceforge.net/DTD/sodipodi-0.dtd" xmlns="http://www.w3.org/2000/svg" xmlns:svg="http://www.w3.org/2000/svg">
  <defs id="defs10" />
  <sodipodi:namedview id="namedview8" pagecolor="#ffffff" bordercolor="#666666" borderopacity="1.0" objecttolerance="10.0" gridtolerance="10.0" guidetolerance="10.0" inkscape:pageshadow="2" inkscape:pageopacity="0.0" inkscape:pagecheckerboard="0" />
  <g style="display:inline" id="g4">
    <path style="display:inline;fill:#36e7b4;fill-opacity:1;fill-rule:evenodd;stroke:#505050;stroke-width:.5;stroke-linecap:round;stroke-linejoin:round;stroke-miterlimit:4;stroke-dasharray:none;stroke-opacity:1" class="polygon" d="m372.66 147.586.538.358.053.597-.093.65-.55 1.417-.5.994-.58 2.103-.526 3.648.12.637 1.563 2.09.613 1.607.053 1.088-.663 1.836-.75 2.074-.371.465-.422.172-1.935-.73-1.332.133-1.531.398-1.596-.132-1.32-.24-1.674.837-1.6-.451-1.024-.518-.686-1.438-.285-.186-3.368 1.506-.81.133-2.093-.81-1.714-.795-.64-.24-1.652-.318-1.489-.185-1.619-.504-2.012.65h-.81l-.76-.478-.396-.968-.106-.916-.683-.623-1.061-.146-1.486.57-2.169.743-.7-.132-.641-.213-.235-.199-.3-.862-.347-.186h-.506l-.891-.212-1.1-.637-3.341-1.513-.418-.677.013-1.486-.187-.61-.406-.65-1.715-.65-3.33-1.061-1.842-.836-.878.398-1.693.358-.907.757-1.085-.24-2.591-.795-1.386-.133-.839.265-.194.465-1.057.517-1.007-.411-1.987-.557-1.741-.305-2.645-.677-.3-1.035-.445-1.021-.63-.186-2.368.2-2.171-1.128-2.332-1.438-.994-.478-.654-.172-.563.185-.641.332-.586.133-1.266-.624-1.614-.889-1.983-1.087-2.325-1.514-.953-.85-.434-.636-.495-.61-2.02-.995-1.6-.783-1.927-.942-.326-.185-.729-.557-1.118-.703-.917-.213-.293.385-.221.411-.803-.132-1.243-.717-1.303-.756-1.021-.703-1.047-.716-.252-.531.437-1.644.609-1.408.518-.319.843-.928.303-1.637-.013-1.397.823-1.974 1.127-2.099 1.952-2.248.848-.743.945-.504 1.802-1.658.374-.266.789-.424.776-.133.585.2.601.875.727.822h.886l1.033-.703 2.151-3.24 2.98-.664 2.826.332 2.5.477.738 1.088.483 1.14.313.584.819.677 3.526 1.624 2.047 1.463 2.831 1.96 2.119.863h1.877l1.057.77 1.592 1.53 1.346 1.762 1.683 1.629h1.162l1.583-.53 1.93-.69 1.141.344 1.054.451.351.85.634 1.59.705 1.653 1.106.583 1.308.85.726.676 2.456 1.234.347.504.498.345.598.212.497.252.772.133 2.84-.743.76.132.433.133.013.265-.513 1.168-.437 1.485.45.743 1.19.305 2.634.226 3.55-.013 1.078.756 1.072 1.127 1.08 1.933.43.823.535.238.923-.318.15-.796.04-1.18.773-.412.494.305.581.929 1.468.822 1.062.412 1.012-.146.424-.319.498-1.614.796-.239 1.01.133.386.318.408.65 1.22.305 1.213.412 1.145.53 1.61 1.194 1.98.212h3.51l.892.133.799-.133 2.361-.862h.965l1.192.133z" transform="translate(-265.514 -114.035)" id="path2" />
  </g>
</svg>
