<?xml version="1.0" encoding="UTF-8" standalone="no"?>
<svg width="215.482" height="176.751" version="1.1" id="svg6" sodipodi:docname="pakistan.svg" xmlns:inkscape="http://www.inkscape.org/namespaces/inkscape" xmlns:sodipodi="http://sodipodi.sourceforge.net/DTD/sodipodi-0.dtd" xmlns="http://www.w3.org/2000/svg" xmlns:svg="http://www.w3.org/2000/svg">
  <defs id="defs10" />
  <sodipodi:namedview id="namedview8" pagecolor="#ffffff" bordercolor="#666666" borderopacity="1.0" objecttolerance="10.0" gridtolerance="10.0" guidetolerance="10.0" inkscape:pageshadow="2" inkscape:pageopacity="0.0" inkscape:pagecheckerboard="0" />
  <g style="display:inline" id="g4">
    <path style="display:inline;fill:#e7d036;fill-opacity:1;fill-rule:evenodd;stroke:#505050;stroke-width:.5;stroke-linecap:round;stroke-linejoin:round;stroke-miterlimit:4;stroke-dasharray:none;stroke-opacity:1" class="polygon" d="m222.19 43.6.609 1.193.92 1.806.604 1.182.68 1.329.34.664.584 1.147-.239.631-.395.934-1.448.707-1.444.51-.336.298-.12.402-.699.804-1.351.678-1.121-.067-.706-.201-3.77 1.172-1.745-.026-1.362.761-1.011.694-2.029.759-1.374.005-2.03-.451-2.5-.859-1.017-.498-.915.026-2.21-.12-2.164-.422-2.582-.504-1.276-.217-2.62-.443-1.704.59-1.54.534-1.255.36-1.036 1.651-.438.581-.504.834-.234.585.205.702 1.52.498.635.679.093.6-.547.618-.456.488.003.428.242.433.365.322 2.159.2 1.278.004.498.176.053.585-.467.789-1.82.635-1.027.67-.325.888.013.71.352.469.871.54.816.618.25.506-.093.684-.33.945-.893 1.1-.746.783-.053.279.186.42.6.61 1.025.903 1.27.73.816.202.266.177.253.846.093.89-.325.669.651.553 1.71-.027 1.39.237.585-.235.41.175-.264 1.989.193 1.178.37.333 1.368.478 2.632-.054 1.55.555 1.719.64.915.705.41.527-.12.847-.936.995-1.53.465-.893.199-4.404 1.863-1.376.783-1.064.942-.393.703-.212.69.954 2.507.16.783-.782 2.707-.23 1.008.293.703.937.266.204.583.093.452-1.632.994-1.717.876-.543-.003-1.642 1.653-2.741 3.307-1.455 1.114-.106.544-.12.557.556.942.12.796-.622.796-1.026.915-2.005.796-2.528.823-1.138.49-.854 2.142-.79 2.153-.354.796-1.364 2.476-2.382 3.65-.603.796-3.684 1.759-3.763 1.913-.662.73-.77 1.744-.726 1.91-.673.995-2.394 2.243-.785 1.722-.247 1.127-2.038.624-2.304.597-3.355.199-1.397.318-4.11 1.555h-1.022l-.804-.252-.608-.53-.564-.876-.265-1.355-.794-.61-1.071-.517h-1.126l-1.132.57-.983.637-.668.517-.656.61-1.256 2.047-2.037 2.933-2.274 2.135-.843.637-.526.477-.711.703-.412.69-.563 2.24-.325 1.985.148.451.341.372 1.242.583 1.795.956 2.328.543 1.963.133.734.411.437.557.12.465-.106 1.643-.22 1.762-.729 1.894.012 1.088.286 1.061 2.182 2.7.804.279h2.396l.845-.279.601.186.446.331.12.544-.067 2.692.67 1.22 1.298 1.661 1.026 1.896.97 2.272.925 1.778.361.928-.603.451-.345.465-.08.623.133.65-.08.464.438.57.519.187-.014.398-.811.517h-.726l-.556.252-1.077 1.088-.502.225-.676.133-.754-.133-1.063-.437-.31-.69.119-.73-.243-.438-.763.133-2.656.743-2.531.915-.44.624-.583.65-1.158.265-1.706.133-1.18-.133-1.089-.703-.994-.637h-1.536l-2.764.133-1.533-.005-.902-.239-.889.173-1.111-.253-.495.345h-.467l-.375-.597h-.251l-.295.133-.256.2-.152.344-.053 3.992h-1.824l-1.299-.008-1.425.212-1.31.305-.64.358-.917.57-.215.796-.441.584-.634-.862-.409-.398-.472.292h-.67l-1.207-.982-.543.995-1.998.226-.25-.743-.053-.703-1.097.504-.79-.77-.355-1.034-.305-.292-.35-.332-.827-.358-.742-1.101-.066-1.168-.207-1.391-1.554-5.151-.94-.478-5.275-.915-.276-.902.366-2.421-.148-1.526-1.708-2.019-.477-1.404-1.397-1.208-1.385-.358-1.395.16-.752.477-.413.81 2.99-.187.672.292.804.53h-.86l-.99-.251h-1.241l-4.657.597-2.705.849-3.628-.252-4.575.836h-3.777l-1.56 1.635-.862-.292-.667-.398-5.196-1.286-.36-.544-.87-.385-.956.69-.687.132-2.848-.57-2.179.438-.808.743-.053 1.154-2.728-.226-1.535-.358-2.056.398-4.647-.53-1.224.132-1.695.77-.71.596-1.006.24-.884-.823-.665-.372-.616.24-.832.676-2.408.318-2.18-.133-2.344-.636.278-.213.365-1.114.328-3.96.414-1.43-.133-.782.093-.24.915-.689.222-.292.35-2.023.387-2.247.43-.81.364-.212 2.908-1.008.49-.676 1.504.159.135-.16.134-.769.698-.835.964-.69.719-.239 2.616-.438 1.527-.61h.466l4.063.16.86-.226.137-.213.24-2.281.736-.358.12-.186-.251-1.577.14-1.062.837-.623-.053-.358-.6-.743-.8-.478-.388-.132-3.334.45-1.377-.145-.645-.279-.135-.199.132-.464.027-.756.485-1.168.147-.703-.394-4.026-.565-2.673.303-2.653-.066-.544-.12-.133-.422.001-2.03.24-1.733-1.708-1.073-.677-2.951-.849-1.295-.159-1.9-.73-1.748-1.607-1.79-1.644-.72-1.048-.8-1.793-2.264-3.435.027-.889-.28-.544-2.205-2.256-1.565-1.601-2.532-2.59L16 122.302l3.941 1.114 6.361 1.794 4.941 1.394 1.368.226 14.473-1.194 5.352.902 1.694.504.255-.292.719-.61 1.247-.624 1.693-.49 1.69-.266h4.061l1.215.146 2.342-.133 1.128-.238 3.854-.982 2.59-.663 3.918-1.035 2.858-.756.72-.398.738-.717.351-.636-.878-.995-.12-.876.577-1.114.313-1.694-.067-2.413-.187-1.392.796-2.585.668-1.451 1.329-.69.92-.425.385-.305.377-.345 1.42-1.97 1.3-.915 1.26-.557h1.372l1.17.756 2.273.332 2.196-.226 1.905-.57.863-.465 1.014-.41-.054-.465-1.146-.411-.656-.57-.256-.704.643-.424 1.5-.133 3.68-1.722 1.498-1.127.41-.531h.702l1.404.53 1.638.173 1.026-.53 1.02-.133 1.003.57.536.69.91.822 1.15.16 1.385-.438 1.455-.942 1.377-1.327 1.226-1.313-.303-4.147-.2-2.433.644-1.286.921-.794.61-1.225-.01-1.082.642-.91.643-2.484.878-.585 1.803-.406 2.87-.236 2.257-1.135 2.268-1.206.306-1.061-.854-1.136-1.136-2.203-1.028-1.314-2.501-2.359.286-1.454 1.394-.59 3.434 1.005.957.197 1.194.141 3.16-.026 2.58-.393 2.694-.9.527-.936-.026-1.111.04-.918.04-1.276-.967-.819-.583-.73-.177-.586.673-.322.654-.597.633-1.088 1.492-1.299.907-1.17.85-.556 1.286-.76.823-1.117.376-.667.746-.654.25-.428-.201-.382-.371-.48-.42-.543v-.527l.35-.556.38-.497-.175-.702-.204-1.14-.702-.673-.47-1.554-.744-1.58-.398-.616-.726-.774-1.627-.825-.467-.55.636-1.057 1.057-.655 1.999-1.62 1.096-1.12.99-.78 1.272.133.746-.066.658-.72 1.306-.638 2.32-1.321.81-.89 1.235-.449 1.023-.106 1.383-.31 1.329-.48 1.214-.367 1.901-.066 3.019-.22 1.632-.225 3.905-.173 4.254-.08.495-.009 1.84.471 1.246.395.491-.04 2.068-.943 3.135-1.151 1.464-.51.785-.193 1.215.012.979.305.998.446.636.354.795-.21 1.39-.25 1.211.184 2.673.793.4.396.63 1.93.477.174 1.505-.455 1.24.23 1.393.625.903.6.593.65.637 1.05.25.842.3 1.005-.08 2.833-.46.463-.387.603.093.524.435.417.867.281.802.177.43.448.59 1.595.398.245.98-.005 1.778-.348 1.543-.545.653-.12.161 1.514.908.578 1.27.673z" transform="translate(-10.696 -25.319)" id="path2" />
  </g>
</svg>
