<?xml version="1.0" encoding="UTF-8" standalone="no"?>
<svg width="500" height="490" version="1.1" id="svg22" sodipodi:docname="south_asia.svg" xmlns:inkscape="http://www.inkscape.org/namespaces/inkscape" xmlns:sodipodi="http://sodipodi.sourceforge.net/DTD/sodipodi-0.dtd" xmlns="http://www.w3.org/2000/svg" xmlns:svg="http://www.w3.org/2000/svg">
  <defs id="defs26" />
  <sodipodi:namedview id="namedview24" pagecolor="#ffffff" bordercolor="#666666" borderopacity="1.0" objecttolerance="10.0" gridtolerance="10.0" guidetolerance="10.0" inkscape:pageshadow="2" inkscape:pageopacity="0.0" inkscape:pagecheckerboard="0" />
  <g style="display:inline" id="g20">
    <path style="fill:#b5ddff;fill-opacity:1;stroke:none;stroke-width:1.32952;stroke-linejoin:bevel;stroke-miterlimit:4;stroke-dasharray:none;stroke-dashoffset:3.2;stroke-opacity:1" d="M.004 632.52h500v490h-500z" transform="translate(0 -632.52)" id="path2" />
    <path style="fill:#686868;fill-opacity:1;fill-rule:nonzero;stroke:#505050;stroke-width:.5;stroke-linecap:round;stroke-linejoin:round;stroke-miterlimit:4;stroke-dasharray:none;stroke-opacity:1" d="M-2 631.152v182.745h.233l6.845.928a.663.663 0 0 0 .648-.212l1.166-1.348.285.133.259.81c.032.094.085.18.155.251l.622.624a.664.664 0 0 0 .337.185l5.856 1.3 1.761.544a.529.529 0 0 0 .08 0l2.254.518a.663.663 0 0 0 .519-.133l1.036-.703a.665.665 0 0 0 .08-.133l.413-.384.519-.133c.25-.031.46-.2.544-.438l.363-1.114a.663.663 0 0 0 .027-.16l.31-3.886.414-1.373a.663.663 0 0 0 0-.292l-.106-.517.7-.597a.663.663 0 0 0 .154-.133l.234-.292a.663.663 0 0 0 .133-.278l.336-2.02.363-2.151.31-.544.133-.133 2.85-.955a.663.663 0 0 0 .31-.252l.285-.358 1.115.133c.218.02.43-.07.57-.239l.155-.16a.663.663 0 0 0 .155-.304l.107-.597.543-.65.803-.57.57-.213 2.566-.411a.735.735 0 0 0 .132 0l1.477-.57h.31l4.016.159c.06.008.122.008.182 0l.88-.24a.663.663 0 0 0 .26-.158.664.664 0 0 0 .106-.133l.155-.212a.663.663 0 0 0 .106-.292l.182-1.918.414-.213a.664.664 0 0 0 .285-.238l.106-.186a.663.663 0 0 0 .106-.464l-.233-1.477.08-.676.621-.465a.663.663 0 0 0 .26-.623l-.054-.358a.663.663 0 0 0-.155-.305l-.596-.757a.663.663 0 0 0-.331-.225l-.778-.491a.691.691 0 0 0-.182 0l-.388-.133a.662.662 0 0 0-.259 0l-3.264.438-1.193-.133-.182-.132v0a.663.663 0 0 0 .027-.16l.026-.623.44-1.061a.663.663 0 0 0 .027-.16l.155-.676a.66.66 0 0 0 .027-.212l-.414-4.042a.668.668 0 0 0 0-.133l-.544-2.564.285-2.54a.662.662 0 0 0 0-.158l-.053-.544a.663.663 0 0 0-.207-.385l-.106-.159a.663.663 0 0 0-.492-.133h-.414a.529.529 0 0 0-.08 0l-1.71.213-1.502-1.503a.662.662 0 0 0-.106-.133l-1.088-.677a.663.663 0 0 0-.155-.132l-2.954-.863a.627.627 0 0 0-.106 0l-1.218-.159-1.71-.65-1.658-1.53-1.736-1.58-.648-.954-.75-1.737a.663.663 0 0 0-.054-.132l-2.15-3.265v-.677a.663.663 0 0 0-.053-.331l-.285-.544a.663.663 0 0 0-.133-.16l-2.202-2.253-1.555-1.607-2.099-2.124 3.032-3.109 3.005-3.135 3.032-3.11 2.98-3.082a.663.663 0 0 0 .155-.252l.336-1.088a.663.663 0 0 0 .054-.186l.026-2.125a.663.663 0 0 0-.026-.186l-.778-2.824a.663.663 0 0 0-.155-.278l-1.27-1.3a.663.663 0 0 0-.388-.186l-4.172-.544-3.109-.385-3.342-.41-.31-1.684.155-.876a.664.664 0 0 0 0-.186l-.207-1.866.026-1.347.466-2.332a.663.663 0 0 0 .026-.132l.027-1.062a.662.662 0 0 0-.053-.238l-1.555-4.664-.88-2.565-.908-2.643-.155-.725-.027-.726 1.892-2.254.622-.492.027-.027 1.217-1.217.751-.623a.663.663 0 0 0 .207-.699l-.133-.44a.663.663 0 0 0-.543-.467l-1.297-.259a.66.66 0 0 0-.155-.026l-1.917-.08-.88-.285-.571-.492-.207-.57.492-1.53a.663.663 0 0 0 .026-.31l-.518-3.083.959-1.4.75-.932 2.98-.132a.663.663 0 0 0 .467-1.115l-1.114-1.27-.519-.75h.08a.663.663 0 0 0 .31-.133l.544-.414.88-.595.468-.259a.663.663 0 0 0 .337-.492l.106-.544.285-.362.647-.647.027-.027a.67.67 0 0 0 .026-.053l.544-.75a.663.663 0 0 0 .106-.467l-.106-.699.414-.854a.658.658 0 0 0 .027-.08l.181-.57.31-.519a.663.663 0 0 0 .054-.57l-.285-.83a.65.65 0 0 0-.027 0l-.233-.647-.027-.233.08-.053a.65.65 0 0 0 .026 0l.648-.31a.663.663 0 0 0 .388-.467l.107-.596.337-.777.233-.57.362-.441a.663.663 0 0 0 .155-.362l.027-.544a.664.664 0 0 0-.027-.207l.156.155a.65.65 0 0 0 .026 0l.57.622c.033.03.069.057.107.08l1.606 1.166c.054.045.116.08.182.106l1.036.337c.042.022.086.04.132.053l1.296.182a.671.671 0 0 0 .156 0l1.606-.156a.658.658 0 0 0 .053-.026l1.191-.207.39.053 1.242.75 1.555 1.14.388.363.182.647c.05.18.172.33.337.415l.492.234c.23.11.5.078.7-.08l.932-.726.75-.207.803.156h.053l1.011.106a.67.67 0 0 0 .259-.027l1.01-.285a.667.667 0 0 0 .107-.053l.467-.207a.658.658 0 0 0 .053-.026l1.762-1.011 1.606-.778 1.011-.492a.663.663 0 0 0 .362-.467l.337-1.528.362-.726.57-.44a.663.663 0 0 0 .208-.751l-.259-.674a.657.657 0 0 0-.026-.08l-.26-.492-.105-.207.233-.08h1.529a.653.653 0 0 0 .182-.026l2.85-.726a.65.65 0 0 0 .026 0l2.384-.725 2.124-.57.881-.08.881.106a.669.669 0 0 0 .31-.053l.44-.182a.663.663 0 0 0 .415-.467l.08-.389.31-.362 1.088-.414.026-.026 2.306-1.011a.666.666 0 0 0 .133-.08l2.02-1.528a.664.664 0 0 0 .156-.156l.726-1.166a.69.69 0 0 0 .08-.155l.491-1.684.933-2.565 1.062-2.85v-.026l.39-1.218.336-.7 1.529-.698 1.71-.544 2.746-.133 3.343-.053a.663.663 0 0 0 .57-.389l.726-1.554a.67.67 0 0 0 .026-.053l.389-1.218.414-.492.622-.44 1.554.698 2.747 1.243a.66.66 0 0 0 .155.027l3.187.622 1.632.31c.06.018.12.027.182.027l.647-.053a.68.68 0 0 0 .235-.053h.027l3.73-.285 2.928.465 1.555 1.193c.083.066.18.112.285.133l1.632.336c.13.03.265.021.39-.026l1.528-.596.595-.08.156.156a.663.663 0 0 0 .337.208l.803.182c.06.008.122.008.182 0l1.063-.053.258.132a.65.65 0 0 0 0 .027v.053c.013.046.031.09.053.133l.054.31a.663.663 0 0 0 .155.31l.907 1.011c.033.03.068.057.106.08l1.633 1.218c.08.074.178.128.285.155l1.45.285a.665.665 0 0 0 .415-.08l1.736-.855.44.106a.663.663 0 0 0 .57-.182l.31-.31a.664.664 0 0 0 .183-.285l.106-.44.855-.468 2.047-.595a.64.64 0 0 0 .08-.027l1.217-.544a.663.663 0 0 0 .207-.155l.286-.285.388-.106.648.132c.104.016.21.007.31-.026l.544-.155a.664.664 0 0 0 .414-.362l.133-.286.026-.026.259-.106.181-.053.363.08 1.036.673 1.71 1.425a.64.64 0 0 0 .106.08l1.114.674c.151.08.327.1.492.053l.519-.133a.664.664 0 0 0 .233-.106l.648-.44a.66.66 0 0 0 .106-.08l.804-.75.026-.027a.663.663 0 0 0 .182-.337l.182-1.115a.663.663 0 0 0 0-.285l-.362-1.27.181-.802.7-.647 1.554-.467 2.461-.207 1.348.106.44.337c.06.057.13.102.207.133l.777.258c.06.017.12.026.182.027l.984.053a.667.667 0 0 0 .362-.08l.908-.544a.663.663 0 0 0 .207-.181l.829-1.088a.664.664 0 0 0 .133-.389l.053-1.321a.657.657 0 0 0-.053-.285l-.623-1.348.027-.08.155-.105.96-.544a.665.665 0 0 0 .105-.08l1.373-1.218a.664.664 0 0 0 .08-.053l1.347-1.554a.547.547 0 0 0 .027-.053l1.243-1.788 1.399-1.036 1.606-.389 2.047.467 2.461 1.347.778 1.4-.57 1.865a.666.666 0 0 0-.027.182l-.053 1.166a.663.663 0 0 0 .414.647l.544.234c.092.03.189.038.285.026l.932-.053a.735.735 0 0 0 .133 0l1.218-.337h.492v.08l-.389.777a.666.666 0 0 0-.08.155l-.543 2.565a.65.65 0 0 0 0 .027l-.337 2.228-.337 2.176-.285 1.918a.662.662 0 0 0 .026.31l.519 1.503.804 2.254a.667.667 0 0 0 .053.106l.88 1.503c.065.1.154.18.26.233l.907.493a.662.662 0 0 0 .181.053l.908.181a.653.653 0 0 0 .207 0l.907-.132a.661.661 0 0 0 .207-.08l1.866-.959a.657.657 0 0 0 .053-.026l2.746-1.736 2.591-1.036 3.887-.596a.663.663 0 0 0 .388-.207.665.665 0 0 0 .08-.08l1.243-1.813 1.684-1.14 4.094-1.84 2.176-.673 1.14-.106 1.502.31.337.106a.65.65 0 0 0 .027 0l.31.106a.529.529 0 0 0 .08 0l.44.08-.08.155-.673.389a.663.663 0 0 0-.234.181l-.285.414a.663.663 0 0 0 .133.881l.337.285a.663.663 0 0 0 .362.156l1.296.106c.068.01.138.01.207 0l2.643-.7 1.684-.388 1.14-.182a.663.663 0 0 0 .413-.259l.44-.466.52-.414.88-.027 1.191.285h.053l1.036.182c.06.008.122.008.182 0l1.58-.155.26.133-.338.132-1.425.389a.679.679 0 0 0-.106.026l-2.487 1.063a.663.663 0 0 0-.389.726l.08.285c.037.17.14.318.285.414l1.58 1.036.337.31.027.027c.033.03.068.056.106.08l.207.105c.144.074.31.093.467.053l.7-.155h1.035l.856.259.932.44.622.337c.152.08.328.1.493.053l.75-.207 1.27-.233 1.036.182 2.487.725.156.156.595 1.787c.061.19.204.341.389.414l.492.182c.134.044.28.044.414 0l1.347-.414 1.011.207 1.27.57.777.52.492.543.57.907.234.778.259.907-.106 2.461-.234.26a.662.662 0 0 0-.133.154l-.388.596a.663.663 0 0 0-.08.467l.08.519c.028.14.1.266.207.362l.44.414c.066.067.146.12.234.155l.88.285c.018.01.035.019.053.027l.623.132.181.207.544 1.451c.054.142.155.26.285.337l.39.259a.664.664 0 0 0 .388.106l.959-.027a.735.735 0 0 0 .133 0l1.787-.363a.529.529 0 0 0 .08 0l1.4-.519.079.803a.663.663 0 0 0 .31.492l.908.57c.017.01.035.019.053.027l1.27.674c.016.01.034.018.052.026l.519.234 1.35 1.19 1.343 2.426 1.293 2.763 5.268-2.951h.053l3.706-.994c.035.003.07.003.106 0l.647-.133a.65.65 0 0 0 .027 0l.544.31a.66.66 0 0 0 .155.054l.57.155a.659.659 0 0 0 .44-.027l.648-.285.337-.132-.389 1.502a.664.664 0 0 0-.026.207l.08.751c.007.09.035.179.079.259l.829 1.528 1.088 2.462 1.01 2.332.623 1.528c.03.077.076.147.132.207l.596.648c.085.088.192.15.31.181l2.514.648 1.943.492 1.114.802.027.027 1.373.829a.65.65 0 0 0 .026 0l.804.44.286.39.053.336-.027.08-.31.31-2.306 1.321a.664.664 0 0 0-.207.207l-.285.414a.664.664 0 0 0-.107.285l-.08.57a.67.67 0 0 0 .027.26l.467 1.658.259.984.08 2.02a.65.65 0 0 0 0 .027l.092 2.024c.016.146.08.283.182.389l.856.907a.664.664 0 0 0 .053.08l.622.543.389.466a.66.66 0 0 0 .106.133l.856.725.026.027.726.544c.033.02.069.038.106.053l.388.207.133.31-.133.596-.233.699a.664.664 0 0 0-.026.362l.08.389a.657.657 0 0 0 .31.44l.413.234.52.518.079.778-.053.674a.66.66 0 0 0 .053.337l.258.57.053.544-.206 1.762a.735.735 0 0 0 0 .132v.207h-.027a.655.655 0 0 0-.233.053l-.57.286a.663.663 0 0 0-.26.233l-.673.96-.623.233-.75.053-.856-.57-.75-.648-.134-.233-.206-.7a.663.663 0 0 0-.156-.285l-.467-.492a.663.663 0 0 0-.674-.207l-.855.234-1.321.132a.65.65 0 0 0-.027 0l-1.529.182a.656.656 0 0 0-.258.08l-.285.181a.663.663 0 0 0-.31.519l-.027.337a.66.66 0 0 0 .08.337l.336.674.285.804.182 1.243a.666.666 0 0 0 .053.181l.414.856.133.292c.035.06.08.113.132.16l2.41 2.563a.65.65 0 0 0 .053 0l.492.412-.155.676-.415 1.035a.663.663 0 0 0-.027.305l.08.862a.663.663 0 0 0 .155.358l.777.956h.054l.258.278-.31.438a.664.664 0 0 0-.08.16l-.388 1.06a.663.663 0 0 0 .155.65l.207.252-.156 1.194a.663.663 0 0 0 .107.438l.207.292a.663.663 0 0 0 .362.278l.467.133a.662.662 0 0 0 .258 0l.7-.133a.663.663 0 0 0 .233-.132l.622-.332h.337l.233.133c.32.1.664-.053.803-.358l.364-.823.388.133 1.555 1.995 1.399 1.813c.03.049.065.094.106.133l.414.358.259.212h.053l1.373.93a.65.65 0 0 0 .026 0l.96.596a.664.664 0 0 0 .465.133l1.27-.213h1.476l.856.438.57.385a.65.65 0 0 0 .027 0h.106l2.073 1.426c.133.102.3.149.467.133l.647-.133.155.133.107.57-.234.902a.663.663 0 0 0-.026.252l.08.491a.661.661 0 0 0 .57.57l.855.133 1.891.677 1.762.623a.529.529 0 0 0 .08 0l.83.186.802.385.802.676a.66.66 0 0 0 .106.133l1.685.902a.65.65 0 0 0 .026 0l1.243.597.234.703c.019.056.046.11.08.159l.595.876h.053l.726.822a.66.66 0 0 0 .543.212h.881a.663.663 0 0 0 .337-.132l1.036-.703a.663.663 0 0 0 .182-.186l1.995-3.006 2.617-.597 2.694.331 2.203.412.544.796.467 1.06a.65.65 0 0 0 .026 0l.31.598c.04.07.093.134.156.186l.829.703a.64.64 0 0 0 .133.132l3.471 1.607 1.995 1.425a.65.65 0 0 0 .027 0l2.824 1.97a.662.662 0 0 0 .155.132l2.099.85a.664.664 0 0 0 .233 0h1.684l.856.623 1.529 1.476 1.296 1.71a.665.665 0 0 0 .08.133l1.684 1.631c.131.127.31.195.492.186h1.166c.06.008.121.008.182 0l1.58-.544 1.736-.623.907.292.751.305.259.597.622 1.58.726 1.66c.06.129.16.236.285.304l1.088.57 1.217.797.7.65a.662.662 0 0 0 .155.132l2.306 1.168.233.358c.05.063.112.117.182.159l.492.358a.663.663 0 0 0 .155.133l.57.185.441.253a.663.663 0 0 0 .234 0l.777.132a.663.663 0 0 0 .233 0l2.72-.703h.338l-.285.677a.667.667 0 0 0-.027.132l-.44 1.477a.663.663 0 0 0 .053.517l.467.756a.663.663 0 0 0 .106.16c.08.075.178.13.285.159l1.193.305c.035.003.07.003.106 0l2.643.239h3.395l.854.596.985 1.035 1.036 1.84.44.823a.66.66 0 0 0 .285.278l.544.239a.663.663 0 0 0 .492 0l.908-.305c.23-.079.4-.277.44-.517l.155-.81a.735.735 0 0 0 0-.132l.053-.81h.16l.492.783c.056.098.136.18.233.239l1.451.822a.625.625 0 0 0 .106 0l1.063.385c.11.03.226.03.337 0l1.01-.16a.663.663 0 0 0 .311-.132l.414-.305c.11-.083.192-.2.233-.332l.39-1.273.336-.133.674.133.155.133.337.544a.663.663 0 0 0 .414.278l1.193.305 1.14.385 1.062.49 1.554 1.142a.66.66 0 0 0 .31.132l1.996.239a.529.529 0 0 0 .08 0h3.469l.856.133a.735.735 0 0 0 .133 0l.802-.133a.671.671 0 0 0 .156 0l2.28-.822h.829l1.114.132 1.114.16a.663.663 0 0 0 .726-.863l-.026-.186h.026l1.684-.252a.529.529 0 0 0 .08 0l1.995-.57h.053l.804-.305h.053l.622-.305c.035.003.07.003.106 0l.414-.332h.234l1.606.624.363.252.26 1.087a.66.66 0 0 0 .105.133l.133.305-.182 1.088-1.088 3.213a.663.663 0 0 0-.026.305l.207 1.22c.022.136.085.26.182.359l.907.875a.529.529 0 0 0 .08 0l.777.65a.663.663 0 0 0 1.036-.278l.674-1.762.88-.597a.667.667 0 0 0 .08-.133l1.011-.981a.664.664 0 0 0 .155-.186l.726-1.503 1.425-1.53 1.632-1.658a.65.65 0 0 0 .027 0l1.088-1.326.647-.518 1.399-.623 1.218-.385a.663.663 0 0 0 .31-.16l.778-.822.932-.41.908-.187 1.502.133 1.477.279 1.321.331-.053.279-.233.597a.663.663 0 0 0-.053.212v.332a.662.662 0 0 0 .285.57l.233.212a.66.66 0 0 0 .364.133l1.606.133a.735.735 0 0 0 .133 0l1.969-.133 1.036.133 2.41.57.647.385c.035.003.07.003.106 0l.778.332c.094.02.19.02.285 0l.75-.133a.663.663 0 0 0 .337-.133l.933-.676.88-.518h.286l.234.133.75.517c.053.055.114.1.182.133l1.684.544a.65.65 0 0 0 .027 0l1.347.358.106.133-.133 1.247a.735.735 0 0 0 0 .132l.027.544c.02.345.302.616.647.624h1.036l1.425.159 1.088.239a.735.735 0 0 0 .133 0h.88a.663.663 0 0 0 .39-.133l1.502-.955h.596a.529.529 0 0 0 .08 0l.855-.212a.671.671 0 0 0 .155 0h.053c.06.008.122.008.182 0l.96.132a.735.735 0 0 0 .132 0h.959c.06.008.121.008.182 0l.88-.278a.529.529 0 0 0 .08 0l.881-.438h.053l1.555-.929a.664.664 0 0 0 .233-.238l.31-.518a.663.663 0 0 0 .08-.331v-.491a.662.662 0 0 0-.155-.438l-.234-.252.31-.358 2.28-1.008a.529.529 0 0 0 .08 0l2.021-1.327a.529.529 0 0 0 .08 0l1.14-1.008a.663.663 0 0 0 .155-.239l.519-1.167.57-1.168.363-.331 1.243-.279 4.016-.464a.662.662 0 0 0 .182-.133l1.27-.517h.053l1.865-.955a.662.662 0 0 0 .155-.133l.908-.783a.662.662 0 0 0 .132-.132l.52-.624a.664.664 0 0 0 .154-.385v-.159l.751-.132a.663.663 0 0 0 .364-.213l1.062-1.087 1.218-1.035 2.228-.902a.529.529 0 0 0 .08 0l1.814-1.115.31.133.544.438.285.49.053.24c.066.257.28.45.544.49l2.617.438a.663.663 0 0 0 .233 0h.259l1.762.544 1.736.703a.671.671 0 0 0 .155 0l.984.186a.671.671 0 0 0 .155 0h.493a.663.663 0 0 0 .285-.133l.388-.212a.664.664 0 0 0 .207-.186l.44-.597.415-.385.233-.159a.663.663 0 0 0 .31-.57v-.332l2.203-1.22 2.28-1.008 1.71-.624.234.133.518.438.83 1.374c.037.05.082.095.132.133a.665.665 0 0 0 .08.132l.518.332a.66.66 0 0 0 .285.132l-.907.438a.529.529 0 0 0-.08 0l-.777.465a.663.663 0 0 0-.31.676l.258 1.477-.053.464c-.023.27.12.528.362.65l.337.186a.663.663 0 0 0 .648 0l2.358-1.503.725-.213.08.597a.665.665 0 0 0 .08.213l.959 1.71.206.384-2.072 1.762a.665.665 0 0 0-.106.133l-.908 1.06a.663.663 0 0 0-.155.492l.026.291v.133l-.44.358a.663.663 0 0 0-.233.597l.026.186a.663.663 0 0 0 .31.49l.493.332a.662.662 0 0 0 .155.133l.596.252c.094.02.19.02.285 0h.31a.663.663 0 0 0 .44-.186l.39-.384 1.994-.624.389.133 1.529 1.008c.09.07.197.116.31.133h.726l1.943.305c.094.02.191.02.285 0l1.036-.332.622.239 1.866 1.348h.106l-.08.331a.735.735 0 0 0 0 .133l-.106.902a.664.664 0 0 0 .133.438l.389.57.026.385-.053.305-.106.133-.88.185a.663.663 0 0 0-.26.133l-.907.703-1.425 1.008-1.14.796h-.052l-.83.756a.664.664 0 0 0-.181.24l-.31.782a.663.663 0 0 0-.054.292l.106.928a.735.735 0 0 0 0 .133l.259 1.008c.02.086.055.167.106.239l2.462 3.368h-.08l-.88-.331-.803-.491-1.011-1.452a.663.663 0 0 0-.234-.212l-.88-.464a.663.663 0 0 0-.234-.133l-.856-.132a.691.691 0 0 0-.181 0l-5.208.822a.65.65 0 0 0-.027 0l-1.114.239a.529.529 0 0 0-.08 0l-1.71.597a.662.662 0 0 0-.258.159l-1.193 1.194a.668.668 0 0 0-.053.133l-.777.955-.778.358h-.053l-1.321.822h-.053l-3.602 2.566-2.02 1.035-1.297.41a.671.671 0 0 0-.155 0l-.984.598a.664.664 0 0 0-.234.239l-.518.955-.389.676a.664.664 0 0 0-.08.279l-.132 1.683a.706.706 0 0 0 0 .16l.258 2.073a.647.647 0 0 0 .027.159l.544 1.327a.651.651 0 0 0 .133.238h.053l-.286.412-.622.543a.65.65 0 0 0-.053 0l-.337.385a.663.663 0 0 0-.181.332l-.286 1.761-.518.783-1.063 1.327-.907.928-1.477.756a.664.664 0 0 0-.182.133l-.596.65a.664.664 0 0 0-.132.186l-.57 1.194a.668.668 0 0 0-.054.132l-.337 1.009a.663.663 0 0 0-.026.185l-.027.359c0 .127.038.25.106.358l.182.305a.674.674 0 0 0 .259.252l.647.358h.053l.623.252.155.239.053.331-.544 1.4-1.01 2.099-1.167 1.658-1.243 1.631a.668.668 0 0 0-.053.133l-.285.544-1.115 1.995a.668.668 0 0 0-.053.133l-.984 2.772-.647 1.839-.389.876h-.133l-.674-.332a.735.735 0 0 0-.132 0l-2.047-.544-1.27-.411-.932-.385a.663.663 0 0 0-.285 0h-.648a.691.691 0 0 0-.182 0l-.88.239-.726.159-.259-.133-1.19-1.06a.663.663 0 0 0-.648-.134l-.389.133a.663.663 0 0 0-.389.358l-.258.57a.664.664 0 0 0-.027.438l.856 3.265c.004.045.013.09.026.133l.519 1.061-.106 1.867-.207 2.487-.337 2.668-.155.464-.364.438-.258.132-.466-.185a.663.663 0 0 0-.337 0l-.519.132a.663.663 0 0 0-.544.411l-.181.465a.663.663 0 0 0-.027.305l.133.982-.57 1.193-.493 1.168a.663.663 0 0 0-.026.305l.106 1.14a.65.65 0 0 0 .026 0l.207 1.142a.658.658 0 0 0 .027.132l.726 2.384v.756l-.08.518h-.415a.663.663 0 0 0-.519.159l-.363.331a.664.664 0 0 0-.133.186l-.285.517a.65.65 0 0 0-.027 0l-.622 1.582h-.207l-.389-.133-.984-1.14a.664.664 0 0 0-.182-.16l-.674-.358a.663.663 0 0 0-.362-.133h-.414a.663.663 0 0 0-.543.332l-.182.332a.668.668 0 0 0-.053.132l-.259.703-.182.305-.595.359a.663.663 0 0 0-.31.703l.079.437.026 4.326a.65.65 0 0 0 .027 0l.106 1.867c.004.045.013.09.026.132l.337 1.274h-.053l-.907-.597a.529.529 0 0 0-.08 0l-1.243-.597-.518-.358a.663.663 0 0 0-.544-.133l-.674.16a.663.663 0 0 0-.31.185l-.96.902a.663.663 0 0 0-.132.212l-.389.85a.663.663 0 0 0-.053.358l.182 1.22a.735.735 0 0 0 0 .133l.31 1.167a.664.664 0 0 0 .155.305l.492.491.054.517a.706.706 0 0 0 0 .16l.233.955c.004.045.013.09.027.132l.336.823.133.902c.026.092.07.178.133.252l.725 1.008h.054l3.005 3.238 1.477 2.28a.664.664 0 0 0 .78.292.663.663 0 0 0 .106.876l.492.464a.662.662 0 0 0 .155.133l.726.332c.035.003.07.003.106 0a.663.663 0 0 0-.08.252l-.026 1.14a.668.668 0 0 0 .08.306l.829 1.735a.664.664 0 0 0 .181.238l.648.518a.663.663 0 0 0 1.062-.597l-.08-.438.26.438a.663.663 0 0 0 .492.332l.829.132c.2.024.4-.044.544-.186a.663.663 0 0 0 .181-.358l.133-.623a.664.664 0 0 0-.026-.279l-.363-1.273.467-.16 1.27.133.414.186h.053a.664.664 0 0 0-.106.133.668.668 0 0 0-.053.132.663.663 0 0 0-.156.491l.08.955c.01.055.029.109.053.16l.337.928c.039.12.11.225.207.305l.907.677a.663.663 0 0 0 1.063-.624v-.133a.663.663 0 0 0 .259.412l.75.57c.038.05.083.095.133.133l.726.331.155.385.08.332a.663.663 0 0 0-.39.132l-.336.186a.662.662 0 0 0-.182.133l-.595.676a.663.663 0 0 0-.107.73l.234.49h-.053a.663.663 0 0 0-.492-.158h-.648a.664.664 0 0 0-.337.132l-.492.358a.663.663 0 0 0-.182.85l1.4 2.41a.65.65 0 0 0 .026 0l1.425 2.15c.04.071.093.134.155.186l1.27.875a.529.529 0 0 0 .08 0l1.71.81a.663.663 0 0 0 .88-.292l.414-.783a.663.663 0 0 0 .08-.186l.026-.132.133.902a.663.663 0 0 0 .08.186l.258.596a.67.67 0 0 0 .234.253l.88.623a.663.663 0 0 0 0 .756l.985 1.503.182 1.22a.669.669 0 0 0 .053.213l2.15 3.964.83 4.897a.669.669 0 0 0 .052.213l.83 1.58.363 1.528-.31 3.24-.855 1.734-.258.358a.663.663 0 0 0-.107.306l-.258 2.255-.622 1.008a.665.665 0 0 0-.08.212l-.622 2.98-.259.73-.647.623a.663.663 0 0 0-.207.358l-.751 5.181a.706.706 0 0 0 0 .16l.133 1.476c.03.316.28.566.595.597l.985.133a.66.66 0 0 0 .413-.133l.182-.133.31 1.762a.663.663 0 0 0 1.193.252l.778-1.194 1.14-.928a.664.664 0 0 0 .132-.133v0l.08 1.14a.663.663 0 0 0 .958.545l.31-.16-.18.213a.663.663 0 0 0 .026.875l.155.16a.65.65 0 0 0 .026 0 .658.658 0 0 0 .182.132l.544.239c.278.132.61.055.803-.186l.258-.331a.663.663 0 0 0 .08-.16l.388-.849.234.783c.105.302.41.486.726.438l1.71-.252 1.217.185a.663.663 0 0 0 .57-.212l.571-.597-.053 1.035a.664.664 0 0 0 .337.597l.622.358c.06.057.13.102.207.133l.544.132a.663.663 0 0 0 .492-.159l2.202-1.528a.664.664 0 0 0 .133-.133l1.632-1.84c.06-.07.106-.15.133-.238l.414-1.22.544-.982 3.057-1.035a.66.66 0 0 0 .337-.279l.259-.384a.665.665 0 0 0 .106-.24l.053-.357.519.132a.663.663 0 0 0 .388 0l2.099-.902a.664.664 0 0 0 .233-.159l.414-.464a.663.663 0 0 0 .133-.756l.647.159a.663.663 0 0 0 .234 0l.984-.133c.069.01.139.01.207 0l1.529-.676a.662.662 0 0 0 .207-.133l1.891-1.944a.667.667 0 0 0 .08-.132l.57-.955a.663.663 0 0 0 .08-.16l.622-1.865.674-1.4a.662.662 0 0 0 .053-.49l-.674-1.995.544-.955 1.166 1.22.285.518a.667.667 0 0 0 .207.185l.778.57h.026a.663.663 0 0 0-.08.385l.44 2.256c.014.046.032.09.054.132l.726 1.969c.037.08.09.152.155.212l.75.823.544 1.84c.089.281.353.47.648.464h.544a.663.663 0 0 0 0 .212l.132 2.072c.017.145.081.28.182.385l.751.849c.17.204.445.288.7.212l.284-.133-.155.57-.337 1.659a.663.663 0 0 0 .155.57l3.555 1.762.363 2.59.007-310.948zm436.76 248.062.414.358.31.57h-.026l-.233.16a.663.663 0 0 0-.156.16l-.44.41a.666.666 0 0 0 .027-.132zm2.332 2.928c.036.198.16.368.337.464l-.363.464-.234-.212a.665.665 0 0 0-.182-.132zm7.67 4.042.132.133c.112.084.248.13.389.132h.285l-.467.756a.664.664 0 0 0-.106.252zm1.32 6.14.596.359.053.212zm-.465 6.27-1.71.292a.663.663 0 0 0-.44 1.061l1.087 1.426c.038.05.083.095.133.133l1.373 1.114c.22.144.505.144.726 0l.233-.133a.664.664 0 0 0 .182-.159l.362-.411a.664.664 0 0 0 .133-.252l.363-1.22a.663.663 0 0 0 .027-.186v-.783a.663.663 0 0 0-.544-.65l-1.684-.305a.664.664 0 0 0-.234 0zm13.525 35.651h-.053z" transform="translate(0 -632.52)" id="path4" />
    <path style="fill:#fff;fill-opacity:1;fill-rule:evenodd;stroke:#505050;stroke-width:.5;stroke-linecap:round;stroke-linejoin:round;stroke-miterlimit:4;stroke-dasharray:none;stroke-opacity:1" class="polygon" d="m197.436 655.673-.678.093-.966-.32-.377-.484-.163-.066-.765.318-1.46.4-2.477 1.046.053.27 1.615 1.064.378.352.198.12-1.464.51-3.135 1.152-2.067.943-.491.04-1.247-.395-1.84-.473-.495.01-4.254.079-3.905.174-1.632.224-3.018.22-1.902.066-1.214.367-1.33.48-1.381.31-1.024.106-1.236.449-.81.89-2.32 1.321-1.306.638-.658.72-.746.067-1.273-.133-.99.78-1.095 1.12-1.999 1.62-1.057.654-.635 1.058.466.549 1.628.825.725.775.398.615.744 1.58.47 1.554.702.673.204 1.14.175.702-.38.498-.35.555v.527l.42.543.371.48.202.382-.25.428-.745.654-.377.668-.822 1.117-1.287.76-.85.556-.906 1.17-1.493 1.3-.633 1.087-.654.597-.672.323.176.585.584.73.964.82-.04 1.275-.04.918.027 1.112-.526.937-2.695.899-2.58.393-3.16.026-1.194-.142-.957-.196-3.434-1.006-1.394.59-.286 1.455 2.501 2.358 1.028 1.315 1.135 2.203.854 1.135-.305 1.061-2.267 1.206-2.257 1.136-2.87.236-1.804.406-.878.585-.642 2.484-.644.91.01 1.081-.608 1.226-.922.793-.644 1.287.2 2.442.303 4.147-1.226 1.313-1.377 1.327-1.455.942-1.386.437-1.149-.159-.91-.822-.535-.69-1.003-.57-1.022.132-1.027.53-1.637-.172-1.404-.53h-.702l-.41.53-1.499 1.128-3.679 1.722-1.5.132-.644.425.256.703.657.57 1.146.412.053.464-1.013.411-.864.464-1.904.57-2.196.226-2.273-.331-1.17-.756h-1.372l-1.26.557-1.3.915-1.42 1.97-.377.345-.385.305-.92.424-1.33.69-.667 1.452-.796 2.585.187 1.392.066 2.413-.313 1.694-.575 1.114.119.875.878.995-.351.637-.74.717-.718.397-2.858.757-3.919 1.034-2.59.664-3.853.981-1.128.24-2.342.132-1.215-.146h-4.063l-1.69.265-1.692.49-1.247.624-.72.61-.254.292-1.695-.504-5.351-.902-14.473 1.194-1.368-.225-4.941-1.395-6.361-1.793-3.94-1.114-5.056-1.45 3.46-3.578 3.018-3.121 3.022-3.127 2.98-3.084.355-1.075.04-2.113-.785-2.823-1.26-1.287-4.16-.517-3.128-.385-3.404-.424-.443-.16-.386-2.194.168-.981-.223-1.893.027-1.458.495-2.4.026-1.088-1.577-4.649-.874-2.578-.902-2.66-.193-.848-.014-1.049 2.09-2.463.647-.535 1.226-1.226.765-.65-.134-.447-1.333-.261-2.014-.027-1.072-.37-.836-.67-.33-.97.545-1.725-.548-3.353 1.121-1.657.962-1.162 3.274-.163-1.136-1.308-.548-.759-.351-.22-.133-.351.175-.352.835-.133.57-.439.92-.614.484-.264.093-.745.437-.527.658-.658.526-.745-.133-.877.483-1.054.219-.658.351-.57-.306-.833-.263-.702-.093-.833.527-.22.658-.307.132-.658.352-.833.263-.658.437-.526.04-.527-.262-.878 1.097-.133.437.483.584.628 1.605 1.166 1.037.338 1.31.171 1.609-.16 1.288-.218.607.053 1.403.85 1.638 1.189.527.527.244.81.485.243 1.046-.803 1.012-.266.93.152 1.028.093 1.028-.294.459-.213 1.795-1.038 1.622-.79 1.014-.485.365-1.622.467-.922.668-.539-.25-.665-.277-.511-.283-.69.283-.365.65-.163h1.628l2.856-.725 2.382-.726 2.201-.59 1.003-.093.95.106.434-.172.12-.564.54-.598 1.224-.48 2.303-1.023 2.03-1.52.727-1.153.487-1.684.952-2.596 1.046-2.847.388-1.253.45-.966 1.794-.816 1.832-.589 2.838-.12 3.335-.052.703-1.556.44-1.318.555-.68.806-.554.282-.106 1.8.81 2.755 1.238 3.209.618 1.612.31.669-.052 4.052-.303 3.199.484 1.68 1.322 1.648.34 1.618-.643 1.003-.12.387.412.808.174 1.228-.066.702.363.08.366.093.426.908 1.007 1.639 1.223 1.456.294 1.915-.95.647.105.316-.307.195-.691 1.16-.652 2.116-.61 1.2-.544.427-.45.717-.132.78.132.553-.168.195-.426.225-.186.396-.148.353-.08.645.12 1.188.776 1.727 1.435 1.124.662.518-.12.662-.438.804-.766.202-1.102-.405-1.439.278-1.16.955-.88 1.773-.544 2.589-.206 1.588.12.588.452.793.25.996.054.913-.517.833-1.084.053-1.343-.738-1.6.202-.51.32-.223.988-.578 1.386-1.202 1.337-1.546 1.29-1.89 1.594-1.168 1.897-.449 2.298.511 2.702 1.471 1.02 1.814-.661 2.153-.054 1.188.55.219.924-.054 1.303-.34.852-.012.402.305-.027.609-.454.91-.545 2.556-.337 2.214-.33 2.178-.29 1.915.517 1.491.782 2.255.884 1.488.905.478.904.171.906-.136 1.857-.958 2.806-1.779 2.723-1.093 3.961-.612 1.322-1.905 1.837-1.258 4.187-1.87 2.278-.713 1.306-.12 1.636.34.37.12.325.092.842.155.175.57-.218.615-.91.507-.282.392.345.295 1.275.106 2.643-.682 1.71-.44 1.186-.174.483-.57.745-.571 1.185-.04 1.272.307 1.052.175 1.793-.16.944.495 1.326.944.595.582z" transform="translate(0 -632.52)" id="path6" />
    <path style="fill:#fff;fill-opacity:1;fill-rule:nonzero;stroke:#505050;stroke-width:.5;stroke-linecap:round;stroke-linejoin:round;stroke-miterlimit:4;stroke-dasharray:none;stroke-opacity:1" class="polygon" d="M423.593 864.51h-.8l-.39-.399.183-.557-.215-1.783.673-.186.349.011.194.53.176.97zm-1-4.3-.48 1.088-.238-.796.205-1.009.205-.557.14.005.282.57zm-9.592-4.55-1.407.928.462-5.5 1.045 2.047.264 1.088zm5.386-2.748-.615.385-.578-.345-.738-1.287.365-1.633.228-.238.37.53.52 1.141.335.862zm-10.336 3.886-2.308.464-1.175-.146 2.194-3.48-.08-1.558-.34-1.274-1.119-1.021-.066-.73-.502-.995-.26-1.167 1.24-.371 1.006.663.142.371.215.956.5.994 1.741 2.042-.026 1.247-.476 3.059zm-1.802-11.589.236.57-.738-.344-.552-.398-.345-.518.578-.278zm-24.937-43.994.876.358.91-.133.585.2.394-.133.148-.465-.442-.69-.32-.49.369-.491.417-.133.468.133.638.438.467.902.08 1.407 1.035 1.274 1.365.902 1.067.411 1.29.305 1.1-.292.551-.888-.246-.796.172-.717.442-.398h.688l.518.57 1.5 3.05-.31 1.35.337 3.706-.38 2.446.066.53.176.412.254.173.438-.005 1.824.464 1.536.504 1.735.464 2.507.358 1.537-.132h.767l1.554.132 4.087-.199h3.38l1.374.345 1.101.133 3.765-.252 3.797-.133 2.056.77 2.238 1.273 1.26.942.226.544-.138.464-.422.252-.772.008-1.773-.61-.304.186.026 1.26-.053.199-.38 1.128-1.068 2.544-.206 1.14-.224.293-.277.159h-.837l-.656.185-.273.412-.425.862-.293.862-.408.266-.978-.465-.609.133-.767.199-.764.49-.528.61-.597.213-1.773-.132-.34.132-.224.438-.183.557-1.385 1.3-.524 2.09-.424 1.357.066 1.06 1.171 2.752.815 3.573.313.358.272.132.12-.132-.027-.743.053-.889.382-.212.488.186.467.782.528 1.428.561.557.876.159 1-.332.744-.65.304-.703-.211-1.377-.053-1.021.475-.982 1.712-1.46.25-.45-.106-1.247v-1.168l.65-.132.868.186 1.101-.57.336-.011.462.61.782-.133.575 2.535.594 2.237-.005 1.074.093 2.29.27 1.868.418.424.495.995.451 1.154.357.65.241 2.119.296 1.53.39 4.807.182.928.106.504.027 4.395.119 1.879.422 1.548.08.597-.422.477-.414.133-.39-.756-.893-.57-1.316-.61-.558-.412-.676.16-.948.928-.38.862.165 1.207.302 1.194.66.677.053.756.236.968.34.889.163.968h-.217l-.792-1.233-.71-1.336-1.838-2.529-.598-4.528-.04-2.236-1.257-2.63-.839-3.639-.334-.942.438-1.18.08-.438-.24.132-.64.61-.836-1.45-.545-1.3-2.166-2.69-.631-1.194-.027-1.154-.935 1.168-1.271.822-1.295 1.234-.86.371-2.729.226-1.577-1.65-2.261-4.035-.302-.915.299-2.372-.536-2.246.006-1.18-.16-.796-.406.172-.157.544.08.836-.165.703-1.959-.133-1.842-.318 1.623 1.18 1.742.28.904 1.06.106.823-.053.928-.894.65-.818.412.152.889.991 1.087-1.202.305-.327.717-.027 1.008.605.889.236.663-.146.61.588.65.846 1.373.274.982-.355 1.376-.485.53-.779.518-1.836 1.732-.896 1.975-.764.929-.953.172-.371-.41-.791-.532-.013-.968.237-.77 1.614-1.845-.876.252-.994.531-1.517.995-.479-1.234-.318-1.14-.003-1.405 1.21-2.096-1.37 1.048-.38 1.313.168 1.539-.176 1.088-.539 1.424-.73.863-1.183.543-.525.836-.79.624-.027-1.234-.254-1.633-.853-3.872-.184.835.44 2.403-.026 1.559-.645 1.233-1.303 1.327-.996.186-.587-.2-.892-.822-.97-1.167-.163-1.887-.4-1.034.053-1.234-.08-1.167-1.041-3.135-.674-1.607.08-.517-.054-.212-.314-2.068-.434-1.26-.217-1.35 1.028-1.938-.412-.318-1.186-.252-1.103-.332-.27-.504.487-1.908-.573-.742-.82-.757-.257-.305-.27-.384-.38-.955.732-2.016 1.024-2.337.186-.889.17-1.547.093-.596-.134-.584-1.079-.677-1.907-.278-1.347-.57-.79-.863-.668-.345-.824.252-1.054-.331-.881-.85-.739-1.034.093-.491.196-.65 1.39-2.674.518-.133 1.202.517.45.001.79-1.06 1.105-3.01 1.56.006 1.376.133.928.146.925-.133.966-.239.526-.384.29-.478-.092-.411-1.186-.57-.458-.425-.33-1.207-.349-.451h-2.33l-1.208-.558-.664-.49-1.185-1.643-1.461-1.22-1.4-.292-.54-.398-.294-.623.17-.902.42-.823.288-.915 1.12-1.207 1.31-1.048.584-.717.828-.77.093-.424-.147-.477-.67-.451-.462-.146-.08-.292.319-.783.64-.132 1.327.716 1.351 1.154.804 1.035.027.809.522.133z" transform="translate(0 -632.52)" id="path8" />
    <path style="fill:#fff;fill-opacity:1;fill-rule:evenodd;stroke:#505050;stroke-width:.5;stroke-linecap:round;stroke-linejoin:round;stroke-miterlimit:4;stroke-dasharray:none;stroke-opacity:1" class="polygon" d="m419.384 781.574-.08.305-.373.796-.244.875.204.717.84.849 1.128.676h1.436l1.322-.265.528.133.718 1.14.51.982-.693 1.008-.38.89-.136.636.08.278.427.505.494.875.067.796-.315.53-.681.266-.725-.133-.598.01-.75.134-1.172.291-1.09.385h-2.042l-.819-.796-.386-.003-1.86 1.022-2.025-.186-3.69.345-1.54.132-1.583-.132-.802-.212-1.489-.717-1.35-.53-1.373.477-.482.133-1.102 1.233-2.385.412-2.378.292-.702-.16h-1.34l-.053-.291.04-.279-.305-.226-.544-.225-.935-.133-1.2-.305-.69-.292-2.44.438-1.423-.65-1.616-.889-.816-.384-.298-1.381-.287-.451-.637-.465-.356-.544.286-.57 1.61-1.048.132-.252.745-1.963 1.034-.717 1.02-.995.77-1.574 1.489-1.617 1.635-1.659 1.125-1.35.745-.637 1.537-.676 1.288-.398.89-.902 1.075-.504 1.103-.226 1.638.133 1.543.318 1.69.451.195.358-.143.637-.244.65-.01.332.26.185 1.654.133 2.026-.133 1.135.133 2.533.597.742.425.773.318h.755l.958-.69 1.008-.584.626-.132.448.185.806.558 1.668.53 1.489.398.481.385-.166 1.624z" transform="translate(0 -632.52)" id="path10" />
    <path style="fill:#fff;fill-opacity:1;fill-rule:nonzero;stroke:#505050;stroke-width:.5;stroke-linecap:round;stroke-linejoin:round;stroke-miterlimit:4;stroke-dasharray:none;stroke-opacity:1" class="polygon" d="m449.34 1059.209-.812 1.088-1.586-3.343-.68-.2-.027-1.594.369-.623 1.834-.703.484.398.937 3.096zm-2.076-6.97-1.261 1.26-.547-.756.226-.517.535-.292.502-.411zm-3.86-6.916-1.029.013-.306-.57-.432-.598.333-.57.543-.146.773.915.181.65zm1.25-2.372-.622.49h-.156l-.08-.37-.026-.266-.12-.478-.066-.836.499-.703.499.146-.266.717zm-271.54-2.818-.188.16h-.33l-.066-.16.04-.133.17.133.225-.133.256-.424.053-.133h.053l-.053.239zm266.285.265.396.491-.734-.133-.677-.742.176-.703.258-.279zm-4.686-11.769-.582.133-.357-.451-.04-.53.336-.346.311-.172h.314l.311.889zm-3.776-18.813-.4.45-1.369-.358.106-1.369-.322-1.333.237-.557 1.023-.955.83-.425.579 1.3.27 1.274zm-261.631-8.591-.093.132-.008-.238.12-.385.143-.252h.04l-.04.252-.067.345zm264.156-2.37-.645.264-.647-.331.506-.53.08-1.089.66.61-.04.69zm4.3-8.698.594 1.823-1.067-.796-.35-.57.536-.385zm-3.977-10.985-.421.862-.08-1.848.196-.238h.215l.268.172zm.067 17.627-.292.319-.43-.345-1.23-2.381-.212-1.529-.342-.53.432-.756.544-.252.323-.85.119-1.3.475-1.06.243-.292.988-.012.252-.133-.14-1.021-.578-.438-.2-.279.027-2.44.15-.982.36-.703-.253-1.466.174-.544.715-.77.315-1.64-.29-.491.68-2.534-.04-1.691.892-1.696 1.39-.77h.437l.053 1.447.132.477-.804.85.767 1.114-.106.398-.306.888-.508.863-.708.358-.549 1.154-.314.438 1.045 1.22.335 4.139-.765 1.14-.914.226.21 2.76-.163.624-.908 1.356-.167.597-.512.557.217.69.435.305.01.57-.406 1.46-.026 1.665zm-185.76-269.976h-.039l-.779-.982.814 1.035-.434 1.087.08.863.802.955.65.663-.634.902-.376 1.035.422.464-.199 1.496.19.28.448.132.702-.133.73-.398.617-.133.37.133.493-1.14.433-.16.84.318 1.665 2.135 1.409 1.804.298.252.106.133.25.212 1.39.929.959.597 1.31-.213h1.73l1.024.584.593.398h.026l.08.013h.001l2.08 1.418.903-.132.595.41.17 1.01-.277 1.034.066.49.925.133 1.971.69 1.744.61.9.2.972.45.857.717 1.681.928 1.485.703.329.969-.585-.213-.776.133-.79.425-.373.265-1.802 1.658-.945.504-.848.743-1.952 2.249-1.127 2.098-.823 1.973.013 1.398-.303 1.637-.843.929-.518.318-.61 1.409-.436 1.642.252.53 1.047.717 1.02.703 1.303.756 1.243.717.802.132.222-.41.293-.386.917.213 1.118.703.728.557.327.186 1.927.941 1.599.783 2.02.995.495.61.434.637.954.862 2.324 1.515 1.984 1.088 1.614.889 1.265.623.587-.132.64-.332.564-.186.654.173.994.477 2.332 1.438 2.17 1.128 2.369-.2.63.187.444 1.021.3 1.035 2.646.676 1.74.305 1.988.558 1.007.41 1.057-.517.192-.464.839-.265 1.386.132 2.59.796 1.086.24.907-.757 1.694-.358.878-.398 1.84.836 3.331 1.06 1.716.664.405.65.187.61-.012 1.486.417.677 3.341 1.513 1.1.637.892.212h.505l.348.186.3.862.234.2.642.212.7.132 2.168-.743 1.486-.57 1.061.146.683.623.093.916.397.968.759.478h.81l2.012-.65 1.62.504 1.488.185 1.652.319.64.239 1.714.795 2.092.81.81-.133 3.37-1.506.284.186.686 1.438 1.024.517 1.6.451 1.674-.835 1.32.239 1.596.132 1.531-.398 1.332-.132 1.935.716.422-.173.37-.464.751-2.075.663-1.836-.053-1.087-.613-1.607-1.563-2.092-.12-.637.528-3.646.58-2.103.5-.995.55-1.417.092-.65-.053-.597-.537-.358-.143-.45.134-.385.425-.213 1.78-.265 2-.57.798-.306.604-.305.614-.477.573.013 1.793.69.63.438.33 1.326.268.518-.252 1.343-1.073 3.257.21 1.22.898.89.78.623-.132.252-1.609 1.048-.286.557.355.544.637.464.287.451.298 1.381.816.385 1.615.889 1.424.65 2.44-.438.69.292 1.2.305.935.133.544.225.305.226-.04.278.053.292h1.34l.702.16 2.378-.293 2.385-.41 1.102-1.235.482-.132 1.373-.478 1.35.518 1.488.716.803.212 1.583.133 1.54-.133 3.69-.345 2.025.186 1.86-1.021.386.003.819.795h2.043l1.089-.384 1.172-.292.75-.133.598-.01.724.132.682-.265.315-.53-.067-.797-.494-.875-.428-.504-.08-.279.136-.637.38-.888.693-1.008-.51-.982-.718-1.141-.528-.133-1.323.266h-1.435l-1.128-.677-.84-.849-.205-.716.244-.876.374-.796.08-.305 1.07.003 1.488.173 1.123.225.906-.009 1.64-1.021h.749l.856-.2.375-.198.26.146.94.132h.98l.872-.278.876-.438 1.56-.929.31-.53-.003-.491-.29-.318-.295-.16.12-.424.653-.716 2.388-1.075 2.031-1.327 1.118-.994.513-1.194.646-1.3.602-.518 1.44-.331 4.038-.478 1.271-.517 1.877-.969.947-.77.526-.623.053-.69 1.246-.212 1.086-1.114 1.324-1.128 2.319-.955 2.056-1.273.716.199.748.597.394.663.08.332 2.627.424h.415l1.936.597 1.782.716.982.186h.479l.411-.225.482-.637.493-.464.308-.186-.014-.73 2.581-1.426 2.318-1.021 1.994-.743.586.305.649.57.878 1.445.533.358 1.356-.199.247.16-.214.517-.918.65-1.19.57-.775.478.252 1.573-.054.544.333.172 2.45-1.56 1.18-.306.415.371.134.836.967 1.722.41.876-2.458 2.084-.906 1.074.027.385-.054.371-.627.53.026.213.51.332.618.252.301-.01.514-.503 2.32-.717.666.133 1.63 1.101h.76l1.96.332 1.254-.412.925.385 1.915 1.375.438.252-.162.835-.106.916.482.73.054.636-.107.597-.384.411-1.063.226-.906.703-1.434 1.021-1.153.823-.837.716-.304.756.093.955.244.995 2.677 3.664-.027.637-.849.172-1.123-.41-.97-.585-1.093-1.569-.878-.464-.875-.133-5.193.81-1.106.225-1.717.584-1.2 1.18-.87 1.088-.903.438-1.312.836-3.641 2.578-2.107 1.115-1.374.41-.965.585-.52.955-.395.69-.12 1.68.24 2.071.523 1.327.278.278.04.385-.523.716-.694.61-.338.372-.308 1.89-.614.929-1.122 1.366-1 1.035-1.566.81-.595.65-.57 1.193-.339 1.008-.013.372.179.318.651.358.792.345.377.544.053.65-.588 1.561-1.05 2.173-1.206 1.72-1.243 1.64-.295.53-1.117 2.015-.972 2.767-.655 1.865-.567 1.274h-.7l-.85-.412-2.06-.543-1.322-.438-.961-.398h-.665l-.918.252-.932.172-.552-.185-1.282-1.154-.388.132-.251.557.865 3.286.562 1.22-.093 2.044-.223 2.505-.335 2.741-.22.637-.55.73-.723.198-.658-.291h-.528l-.175.464.153 1.18-.64 1.358-.472 1.167.133 1.128.224 1.14.755 2.48.005.902-.149.809-.394.332h-.675l-.366.331-.279.504-.761 1.883-.73.199-.733-.279-1.1-1.26-.669-.371h-.424l-.19.331-.293.756-.296.504-.736.438-.182-.928-.39-4.805-.296-1.531-.24-2.119-.358-.65-.45-1.154-.496-.995-.417-.424-.271-1.868-.093-2.29.005-1.074-.594-2.238-.575-2.535-.782.133-.462-.61-.336.011-1.1.57-.87-.185-.648.133-.001 1.167.106 1.247-.25.451-1.712 1.46-.475.98.053 1.022.21 1.376-.303.703-.744.65-1 .332-.876-.16-.561-.557-.528-1.426-.467-.782-.488-.186-.382.212-.053.889.026.743-.12.133-.271-.133-.313-.358-.815-3.573-1.171-2.751-.066-1.061.424-1.356.525-2.09 1.385-1.3.183-.558.225-.438.34-.132 1.773.132.597-.212.528-.61.764-.491.767-.199.608-.133.978.465.409-.266.293-.862.424-.862.274-.411.655-.186h.837l.277-.16.224-.291.206-1.141 1.07-2.544.379-1.128.053-.199-.027-1.26.304-.186 1.774.61.772-.008.421-.252.138-.464-.226-.544-1.26-.942-2.238-1.273-2.056-.783-3.797.133-3.765.252-1.1-.133-1.374-.345h-3.381l-4.087.2-1.553-.133h-.767l-1.538.132-2.507-.358-1.734-.464-1.537-.504-1.824-.465-.438.005-.254-.172-.175-.411-.067-.53.38-2.447-.336-3.707.31-1.35-1.5-3.05-.518-.57h-.689l-.441.398-.173.716.247.796-.55.889-1.102.292-1.29-.305-1.067-.425-1.364-.902-1.036-1.273-.08-1.408-.467-.915-.638-.438-.467-.133-.416.133-.37.49.32.492.442.69-.147.464h-.394l-.586-.2-.909.133-.877-.358h-.527l-.522-.132-.027-.81-.802-1.034-1.351-1.154-1.328-.717-.64.133-.318.783.08.291.461.146.67.451.147.478-.093.424-.827.77-.584.716-1.31 1.048-1.12 1.207-.29.916-.419.822-.17.902.294.624.54.398 1.4.291 1.461 1.22 1.185 1.643.665.491 1.207.557h2.33l.35.451.33 1.207.457.425 1.186.57.093.412-.29.477-.526.385-.967.239-.924.132-.93-.146-1.375-.132-1.56-.007-1.105 3.01-.79 1.06h-.45l-1.202-.517-.519.132-1.388 2.675-.197.65-.093.49.74 1.035.88.85 1.055.33.824-.251.668.345.79.862 1.347.57 1.907.279 1.078.676.134.584-.093.597-.17 1.547-.185.889-1.024 2.337-.733 2.015.38.955.27.385.257.305.82.756.574.743-.488 1.908.27.504 1.104.331 1.186.252.411.319-1.028 1.938.218 1.349.433 1.26.315 2.068.053.213-.08.517.674 1.606 1.041 3.136.08 1.168-.053 1.233-.312 2.069-1.042-.01.932 1.384.297.995.133 1.388-1.122.172-.792-.159-.662-1.22-.307 1.1-1.184 1.022-.425-.504-.243-.53-.04-.943.65-3.608-.132-.411-.292-.265-.646-.146-.239-.73-.992 3.846.438 1.57-.2.716-1.84.61-1.864-1.446-.239-.465-.106.81-.338.995-1.747-.186-.865-.77.565-1.313 1.083-3.176.202-1.414-1.449-1.034-1.23-.637-.703-1.442.268 1.582.652.558.959.398 1.012.809-.732.981-.707.61-1.358 2.33-1.654 1.3-1.93.982-6.335 1.442-1.327.583-1.944 1.797-1.254 1.707-.23 1.728.71 1.868.577 2.925.48.597-.677 1.061-1.176 1.128-.973 1.528.092.836-.249.57-3.338 1.879-.702 1.1-.918 1.089-1.1-.624-.642.01.885.861-.12.57-.31.332-.84.319-4.819 1.38-3.687 1.314H338l.19-.398.645-.358-.067-1.506-.676-.278-.585-.133-2.804 1.835-1.138 1.813.239.345.634-.133 1.889-1.034.875.292.067.397-2.866 1.57-6.03 5.08-.282.994-.782 1.128-1.081 1.061-1.945 2.581-3.728 3.837-1.03 1.431-5.967 2.956-1.087.875-2.445 2.878-2.516 2.357-2.938 1.953-5.09 2.492-3.099 2.358-.968 1.566-.066.557.335.77.568.703.133.557-.28 1.008-.153.557-.907 1.387-1.556.981-5.035 2.068h-.666l-4.11-.41-1.536.37-.632.969-1.412 4.009-1.353 1.061-.486.969-.195.663-.808-.013-.703-.306-.514.213-.585-1.347-.982-.278-.812-.133-3.472 1.357-1.212 1.088-2.552 5.135-.633 3.311.6 3.659.886 2.923.176 1.327-.12 1.71-.45.836-.324.981.423 2.034 1.072 2.662.261 1.128.027 1.167.805 2.664-.543-.477-.427-1.128-1.024-1.433-1.248 1.426.691 1.022 2.336 1.22.69.995-1.502 8.901-1.14 3.162-1.401 2.072-.74.796-1.635 3.272-1.156 3.96-.23 1.526.522 1.705-.589 1.009-.74.77 1.404-.346.48.929.178.955.027 5.678-.16 5.92-1.078.239h-1.187l-1.046-.172-.754-.226-1.872.318-1.008.65-.808 1.088.053 1.852-3.47 4.67-.748 1.557-.276 1.498.451.782.886.796 1.156.319 2.235.318 1.073.438.73.796-2.633-.85-3.095-.172-7.403 2.17-1.95 1.523-1.088 1.314-.748 3.018-.133 2.016-.878 1.682-3.845 2.583-2.429.796-.923.69-2.867-.89-3.125-2.262-1.313-1.207-4.638-5.835-.848-.743-.935-2.493-.147-.929-.257-.372-.442-.252-.211-.384-1.041-2.855-.428-2.977-.663-3.324.561.225.775 1.088.387 1.59.04 2.223.583.252.52-.213-1.489-5.119-1.296-1.273-.345-.133-.36-.822-.04-1.035.119-.49-1.036-1.676-.362-.995-2.302-5.067-1.034-3.628-1.602-4.035-1.031-1.414-1.613-3.114-1.351-1.447-1.433-1.94-1.126-.862-.44-.45-3.331-6.728-1.024-3.714-.866-1.755-.43-1.333-1.17-5.7-.01-1.02-.141-1.115-.828-2.414-1.459-2.61-.422-1.625.004-.636-.925-2.533-.198-1.154-.626-1.075-.726-.981-.76-.783-1.781-2.564-.638-.624-1.213-1.663-.86-3.074-1.109-1.207h1.74l-1.061-1.127-.505-.743-.559-.465.81-1.14h-1.327l-.702-.69-.958-2.152-1.746-2.43-.297-1.3-1.54-4.082-1.306-9.8-1.195-4.363.093-1.246-1.445-3.779-.705-2.533-.29-2.143-.384-1.411-.345-2.793-.553-.888-.067-.531.37-1.273 1.035-1.966.38-1.247-.444-1.755-.947 1.842-.875.517-.42-1.376-.003-1.85-.107-.437.227-.624 2.33.292-2.644-1.141-.318-.663-.092-.491.57-.915-.966-.77-.386-2.373-.285-.544-.106-.438.546-3.276 2.284-6.437.167-1.454-.196-2.065-.51-1.645-.214-1.74-.138-.45-.827-.16-.785-.636-.91-2.578.832-.849.64-.464-.882.199-.73-.133 1.383-1.18 1.234-.916 2.81-1.06 1.195-.677-1.77.61-1.848.225-3.936-.132.655-2.401.685-.796.745-.451-1.097.132-1.263-.185.409-2.439.993-.53 1.074-.133 1.331-.345-1.422-.398-1.483-.186-1.78.398-1.637-.291-1.987.007.794.331.847.743-.424 1.327-.4.822-1.095.57-.893.863-.25.756-.509.53.872.385.902.266.524.61.614.889-.04 1.727-2.354 4.072-.813.902-5.892 2.456-2.316 1.337-4.933 1.737-1.923.318-2.127-.345-3.108-1.327-4.745-3.376-1.234-1.114-3.793-4.337-2.738-2.292-2.077-2.136-2.57-2.016-2.427-2.723-.516-1.234.18-1.26.905-.69 1.058.278.834 1.062.592.477.5.2 3.617-1.631 1.405.133.96-.823 1.215.173 2.478-1.274 1.039-.133 1.235-.252 1.996-3.223 1.495-2.05.968-.424-.053-.504-.267-.65-.725.159-.508.623-.376.756-.378.451-1.171-.41h-.79l-.973.251-3.561 1.207-1.462 1.075-.995.212-5.687-1.18-5.556-2.723-2.34-1.806-1.479-2.31-1.482-2.752.482-.77 2.299-1.653 1.985-1.3-1.783.584-1.93.81-.955.556-1.081 1.18-1.438.266-.57-1.75-.359-1.704.917-.57.64-.359 1.31-.305 1.425-.212 1.298.009h1.824l.054-3.993.152-.345.256-.199.295-.133h.249l.375.597h.467l.495-.345 1.112.252.889-.172.902.239 1.532.005 2.765-.133h1.535l.995.637 1.088.703 1.18.133 1.706-.133 1.158-.265.584-.65.44-.624 2.53-.915 2.656-.743.763-.133.243.438-.12.73.31.69 1.065.437.753.133.677-.133.501-.225 1.076-1.088.556-.252h.726l.811-.517.014-.398-.519-.186-.438-.57.08-.465-.133-.65.093-.623.345-.465.604-.45-.361-.93-.926-1.776-.97-2.273-1.024-1.896-1.299-1.66-.67-1.221.067-2.69-.12-.544-.445-.332-.601-.186-.845.279h-2.398l-.802-.279-2.182-2.7-.286-1.062-.012-1.088.728-1.894.22-1.76.107-1.644-.12-.464-.437-.557-.734-.412-1.963-.132-2.328-.544-1.795-.955-1.242-.584-.34-.371-.15-.438.326-1.986.563-2.24.412-.69.71-.702.527-.478.843-.637 2.275-2.135 2.036-2.933 1.256-2.047.656-.61.668-.518.983-.637 1.132-.57h1.126l1.07.517.795.61.266 1.355.563.876.608.53.804.252h1.021l4.11-1.553 1.399-.319 3.353-.199 2.305-.597 2.038-.623.247-1.128.785-1.723 2.394-2.242.673-.995.725-1.911.771-1.743.662-.73 3.763-1.913 3.685-1.76.602-.796 2.382-3.65 1.364-2.476.354-.796.79-2.153.854-2.141 1.138-.491 2.528-.822 2.005-.796 1.026-.916.622-.796-.12-.796-.555-.928.119-.557.106-.544 1.455-1.115 2.741-3.307 1.641-1.651h.544l1.717-.875 1.632-.995-.093-.45-.204-.584-.937-.266-.293-.703.23-1.008.782-2.706-.16-.77-.954-2.507.212-.69.393-.703 1.064-.942 1.376-.782 4.404-1.864.893-.199 1.53-.464.937-.995.119-.848-.41-.527-.915-.705-1.72-.64-1.549-.556-2.632.054-1.368-.478-.37-.334-.193-1.178.264-1.99-.41-.175-.585.235-1.39-.236-1.71.027-.65-.554.324-.668-.093-.89-.253-.847-.265-.176-.816-.202-1.271-.73-1.023-.903-.6-.61-.187-.42.053-.279.746-.784.894-1.1.33-.944.092-.685-.25-.505-.815-.618-.872-.54-.351-.47-.014-.71.325-.887 1.027-.67 1.82-.635.469-.79-.053-.585-.498-.175-1.279-.004-2.158-.2-.365-.322-.243-.433-.003-.428.457-.489.546-.616-.093-.601-.634-.68-1.52-.497-.205-.702.234-.585.504-.834.438-.581 1.036-1.65 1.255-.362 1.54-.533 1.703-.59 2.621.442 1.276.216 2.582.504 2.164.423 2.21.12.915-.027 1.016.499 2.5.858 2.03.451 1.375-.005 2.029-.759 1.01-.694 1.363-.761 1.744.027 3.771-1.173.706.201 1.12.067 1.352-.678.699-.804.106-.402.337-.297 1.443-.51 1.449-.708.395-.934.239-.631 1.59-.817 1.65-.85 1.732-.888 1.965-1.011 1.663-.856 1.36-.697.152.15.538.315.576.157.677-.3.843-.247.44.138.067.403-.508 1.89.04.742.843 1.54 1.098 2.5 1.029 2.343.609 1.538.595.63 2.505.642 2.057.528 1.224.865 1.35.83.95.51.447.654.093.59-.08.397-.516.521-2.37 1.344-.283.426-.066.56.465 1.668.293 1.045.08 2.102.158 1.998.838.91.686.588.42.533.852.731.715.546.61.32.302.72-.18.846-.249.738.08.396.49.281.751.735.093 1.078-.053.74.297.666.08.739-.23 1.844.039.835-.655.053-.565.284-.802 1.162-.919.306-1.044.093-1.076-.713-.883-.745-.237-.414-.222-.784-.475-.512-.92.24-1.395.107-1.51.173-.276.173-.027.33.37.706.315.92.186 1.286.41.85.132.279 2.412 2.556.636.518.132.344z" transform="translate(0 -632.52)" id="path12" />
    <path style="fill:#fff;fill-opacity:1;fill-rule:nonzero;stroke:#505050;stroke-width:.5;stroke-linecap:round;stroke-linejoin:round;stroke-miterlimit:4;stroke-dasharray:none;stroke-opacity:1" class="polygon" d="m263.419 1029.132.383 1.008-1.096-.69-.72-.57-.254-.465 1.49.518zm1.256-7.693-.832.146-.655-.889-.155-.371.17-.266.182-.132h.215l.31.822zm.17-2.414 1.274.132h1.36l.954.186 1.634 2.043 4.446 3.66 2.419 3.721.22.81.337.702.58.186.488.318 2.417 3.591.279.717-.04.782.142.584.633.292.788.146.516.544.654 2.868v.889l.183.384 3.044 4.463.176.544-.026.411.093.358.589.783.92 2.125.467.477.559 1.859.04 3.554-.206 1.58-.569 1.925-.674 1.882-.73 1.36-1 1.154-3.415 2.443-.977.491-4.446 1.532-3.277 1.45-3.028.398-3.03-.796-2.283-1.902-1.169-2.803-.798-2.92-1.162-3.246-.893-10.029-.426-2.801-.691-3.571.066-1.549.488-1.484v3.255l.448.398.337-.424.306-3.37.25-1.427 1.207-3.713.026-.663-.208-1.397.013-.703 1.803-2.606.462-1.516.25-1.55-.094-1.679-.326-1.651 1.456.53.8.57.816.386.663-.2.8-.01-.57-.902-1.695-.822-2.81-.517-.88-.65-.338-.57.173-.664z" transform="translate(0 -632.52)" id="path14" />
    <path style="fill:#fff;fill-opacity:1;fill-rule:evenodd;stroke:#505050;stroke-width:.5;stroke-linecap:round;stroke-linejoin:round;stroke-miterlimit:4;stroke-dasharray:none;stroke-opacity:1" class="polygon" d="m372.66 780.105.538.358.053.597-.093.65-.55 1.417-.5.995-.58 2.103-.526 3.648.12.637 1.563 2.09.613 1.607.053 1.087-.663 1.836-.75 2.075-.371.464-.422.173-1.935-.73-1.332.133-1.531.398-1.596-.133-1.32-.239-1.674.836-1.6-.45-1.024-.518-.686-1.438-.285-.186-3.368 1.506-.81.132-2.093-.809-1.714-.796-.64-.239-1.652-.318-1.489-.186-1.619-.504-2.012.65h-.81l-.76-.477-.396-.969-.106-.915-.683-.623-1.061-.146-1.486.57-2.169.743-.7-.133-.641-.212-.235-.199-.3-.862-.347-.186h-.506l-.891-.212-1.1-.637-3.341-1.514-.418-.676.013-1.486-.187-.61-.406-.65-1.715-.65-3.33-1.061-1.842-.836-.878.398-1.693.358-.907.756-1.085-.239-2.591-.796-1.386-.132-.839.265-.194.464-1.057.518-1.007-.411-1.987-.558-1.741-.305-2.645-.676-.3-1.035-.445-1.021-.63-.186-2.368.199-2.171-1.128-2.332-1.438-.994-.477-.654-.173-.563.186-.641.332-.586.132-1.266-.623-1.614-.889-1.983-1.088-2.325-1.513-.953-.85-.434-.636-.495-.61-2.02-.995-1.6-.783-1.927-.942-.326-.186-.729-.557-1.118-.703-.917-.212-.293.385-.221.41-.803-.132-1.243-.716-1.303-.756-1.021-.703-1.047-.717-.252-.53.437-1.644.609-1.409.518-.318.843-.929.303-1.637-.013-1.397.823-1.973 1.127-2.1 1.952-2.248.848-.742.945-.505 1.802-1.658.374-.265.789-.425.776-.132.585.199.601.875.727.823h.886l1.033-.703 2.151-3.241 2.98-.663 2.826.331 2.5.478.738 1.088.483 1.14.313.584.819.677 3.526 1.623 2.047 1.464 2.831 1.96 2.119.862h1.877l1.057.77 1.592 1.53 1.346 1.762 1.683 1.63h1.162l1.583-.531 1.93-.69 1.141.345 1.054.45.351.85.634 1.59.705 1.653 1.106.584 1.308.85.726.676 2.456 1.233.347.504.498.345.598.213.497.252.772.132 2.84-.743.76.133.433.133.013.265-.513 1.167-.437 1.486.45.743 1.19.305 2.634.226 3.55-.014 1.078.756 1.072 1.128 1.08 1.933.43.822.535.24.923-.32.15-.795.04-1.18.773-.412.494.305.581.929 1.468.822 1.062.411 1.012-.146.424-.318.498-1.614.796-.24 1.01.133.386.319.408.65 1.22.305 1.213.411 1.145.53 1.61 1.195 1.98.212h3.51l.892.133.799-.133 2.361-.862h.965l1.192.132zM222.19 676.12l.609 1.193.92 1.805.604 1.182.68 1.33.34.664.584 1.146-.239.632-.395.934-1.448.707-1.444.51-.336.297-.12.402-.699.804-1.351.678-1.121-.066-.706-.202-3.77 1.173-1.745-.027-1.362.762-1.011.694-2.029.758-1.374.005-2.03-.45-2.5-.859-1.017-.499-.915.027-2.21-.12-2.164-.423-2.582-.504-1.276-.216-2.62-.443-1.704.59-1.54.533-1.255.361-1.036 1.65-.438.582-.504.834-.234.585.205.702 1.52.497.635.68.093.6-.547.617-.456.489.003.428.242.432.365.323 2.159.2 1.278.004.498.175.053.585-.467.79-1.82.635-1.027.67-.325.887.013.71.352.47.871.54.816.618.25.505-.093.685-.33.944-.893 1.1-.746.784-.053.278.186.421.6.61 1.025.902 1.27.731.816.202.266.176.253.847.093.89-.325.668.651.554 1.71-.027 1.39.236.585-.235.41.175-.264 1.99.193 1.178.37.333 1.368.477 2.632-.053 1.55.555 1.719.639.915.706.41.526-.12.848-.936.995-1.53.464-.893.2-4.404 1.863-1.376.783-1.064.942-.393.703-.212.69.954 2.507.16.782-.782 2.708-.23 1.008.293.703.937.265.204.584.093.451-1.632.995-1.717.876-.543-.003-1.642 1.653-2.741 3.307-1.455 1.114-.106.544-.12.557.556.942.12.796-.622.796-1.026.915-2.005.796-2.528.822-1.138.491-.854 2.141-.79 2.153-.354.796-1.364 2.477-2.382 3.65-.603.795-3.684 1.76-3.763 1.912-.662.73-.77 1.744-.726 1.91-.673.995-2.394 2.244-.785 1.722-.247 1.127-2.038.624-2.304.597-3.355.199-1.397.318-4.11 1.555h-1.022l-.804-.252-.608-.531-.564-.876-.265-1.354-.794-.61-1.071-.518h-1.126l-1.132.57-.983.638-.668.517-.656.61-1.256 2.047-2.037 2.933-2.274 2.135-.843.636-.526.478-.711.703-.412.69-.563 2.239-.325 1.986.148.45.341.372 1.242.584 1.795.955 2.328.544 1.963.133.734.411.437.557.12.464-.106 1.644-.22 1.762-.729 1.894.012 1.088.286 1.061 2.182 2.7.804.278h2.396l.845-.278.601.185.446.332.12.544-.067 2.691.67 1.22 1.298 1.662 1.026 1.895.97 2.273.925 1.777.361.929-.603.451-.345.464-.08.624.133.65-.08.464.438.57.519.186-.014.398-.811.518h-.726l-.556.252-1.077 1.087-.502.226-.676.133-.754-.133-1.063-.438-.31-.69.119-.73-.243-.437-.763.133-2.656.743-2.531.915-.44.623-.583.65-1.158.266-1.706.132-1.18-.132-1.089-.703-.994-.637h-1.536l-2.764.132-1.533-.005-.902-.238-.889.172-1.111-.252-.495.345h-.467l-.375-.597h-.251l-.295.133-.256.199-.152.345-.053 3.991h-1.824l-1.299-.008-1.425.212-1.31.306-.64.358-.917.57-.215.796-.441.584-.634-.862-.409-.398-.472.291h-.67l-1.207-.981-.543.995-1.998.225-.25-.743-.053-.703-1.097.504-.79-.77-.355-1.034-.305-.292-.35-.331-.827-.358-.742-1.101-.066-1.168-.207-1.391-1.554-5.151-.94-.478-5.275-.915-.276-.902.366-2.421-.148-1.526-1.708-2.019-.477-1.405-1.397-1.207-1.385-.358-1.395.159-.752.478-.413.809 2.99-.186.672.292.804.53h-.86l-.99-.251h-1.241l-4.657.596-2.705.85-3.628-.253-4.575.836h-3.777l-1.56 1.636-.862-.292-.667-.398-5.196-1.287-.36-.544-.87-.384-.956.69-.687.132-2.848-.57-2.179.437-.808.743-.053 1.154-2.728-.225-1.535-.358-2.056.398-4.647-.53-1.224.132-1.695.77-.71.596-1.006.239-.884-.823-.665-.371-.616.239-.832.676-2.408.319-2.18-.133-2.344-.637.278-.212.365-1.114.328-3.96.414-1.43-.133-.783.093-.239.915-.69.222-.291.35-2.023.387-2.247.43-.81.364-.212 2.908-1.008.49-.677 1.504.16.135-.16.134-.769.698-.836.964-.69.719-.238 2.616-.438 1.527-.61h.466l4.063.159.86-.226.137-.212.24-2.282.736-.358.12-.186-.251-1.577.14-1.061.837-.624-.053-.358-.6-.743-.8-.477-.388-.133-3.334.451-1.377-.146-.645-.278-.135-.2.132-.464.027-.756.485-1.167.147-.703-.394-4.026-.565-2.673.303-2.653-.066-.544-.12-.133-.422.001-2.03.239-1.733-1.707-1.073-.677-2.951-.849-1.295-.16-1.9-.729-1.748-1.608-1.79-1.643-.72-1.048-.8-1.794-2.264-3.434.027-.889-.28-.544-2.205-2.256-1.565-1.602-2.532-2.59 5.055 1.45 3.941 1.114 6.361 1.793 4.941 1.395 1.368.225 14.473-1.194 5.352.902 1.694.504.255-.291.719-.61 1.247-.624 1.693-.49 1.69-.266h4.061l1.215.146 2.342-.133 1.128-.239 3.854-.981 2.59-.664 3.918-1.034 2.858-.757.72-.398.738-.716.351-.637-.878-.995-.12-.875.577-1.114.313-1.694-.067-2.413-.187-1.392.796-2.585.668-1.452 1.329-.69.92-.424.385-.305.377-.345 1.42-1.97 1.3-.915 1.26-.557h1.372l1.17.756 2.273.331 2.196-.225 1.905-.57.863-.465 1.014-.411-.054-.464-1.146-.412-.656-.57-.256-.703.643-.425 1.5-.132 3.68-1.722 1.498-1.128.41-.53h.702l1.404.53 1.638.173 1.026-.531 1.02-.133 1.003.57.536.69.91.823 1.15.16 1.385-.439 1.455-.941 1.377-1.327 1.226-1.313-.303-4.147-.2-2.433.644-1.287.921-.793.61-1.226-.01-1.08.642-.91.643-2.485.878-.585 1.803-.406 2.87-.236 2.257-1.136 2.268-1.205.306-1.062-.854-1.135-1.136-2.203-1.028-1.315-2.501-2.358.286-1.454 1.394-.59 3.434 1.005.957.196 1.194.142 3.16-.026 2.58-.393 2.694-.9.527-.936-.026-1.112.04-.918.04-1.276-.967-.818-.583-.731-.177-.585.673-.323.654-.597.633-1.087 1.492-1.299.907-1.17.85-.556 1.286-.76.823-1.117.376-.667.746-.654.25-.429-.201-.382-.371-.48-.42-.543v-.526l.35-.556.38-.497-.175-.702-.204-1.141-.702-.673-.47-1.553-.744-1.58-.398-.616-.726-.775-1.627-.825-.467-.549.636-1.057 1.057-.656 1.999-1.619 1.096-1.12.99-.78 1.272.133.746-.066.658-.72 1.306-.639 2.32-1.32.81-.89 1.235-.45 1.023-.105 1.383-.31 1.329-.481 1.214-.366 1.901-.067 3.019-.22 1.632-.224 3.905-.174 4.254-.08.495-.008 1.84.47 1.246.396.491-.04 2.068-.943 3.135-1.152 1.464-.51.785-.193 1.215.013.979.305.998.445.636.355.795-.211 1.39-.25 1.211.185 2.673.793.4.395.63 1.93.477.175 1.505-.455 1.24.23 1.393.624.903.6.593.65.637 1.05.25.843.3 1.004-.08 2.833-.46.463-.387.604.093.524.435.417.867.28.802.177.43.449.59 1.594.398.246.98-.005 1.778-.348 1.543-.545.653-.12.161 1.514.908.578 1.27.673z" transform="translate(0 -632.52)" id="path16" />
    <path d="m177.323 1090.676-.065.015-.08.065-.028.01-.012.062v.065l.08.059.059.02.068.06.052.052.05.055.067-.015h.043l.016-.062-.019-.04.059-.036v-.052l-.04-.108-.05-.04-.03-.04-.062-.043-.045-.021h-.01zm.635.354-.107.06-.1.122-.092.068-.138.01-.05.06-.07.188-.08.135-.036.207s.014.151.004.16a.713.713 0 0 0 0 .14l.037.221.124.108.095.108v.12l.025.136.074.163.043.133.167.188.07.188v.1l.06.144.076.105.077.096.09.108.138.071.127-.031.077-.055.012-.114.056-.164.077-.08v-.124l-.105-.16-.179-.067-.096-.077-.037-.17-.012-.145v-.117l-.099-.207-.077-.157-.138-.096-.068-.019-.108-.067-.057-.065v-.13l.02-.166v-.099l.03-.111.065-.096.102-.114.102-.096.06-.12.032-.065v-.102l-.024-.065-.04-.06h-.053zm-1.082 1.29-.062.027-.081.043-.057.071-.05.06-.052.095-.028.093v.06l.034.057h.07l.05-.034.037-.126.016-.09.101-.135.065-.077-.018-.043zm.574 1.017-.034.04.034.04.043-.012.012-.043zm.01.191-.032.024-.062.09-.08.095-.052.2-.053.152-.021.108-.028.16v.145l.058.074.068.05.013.086s-.013.062-.013.071c0 .01-.009.031-.009.031l-.03.022.018.031h.074l.13-.015.144-.093.068-.04.053-.163.018-.12v-.112l-.018-.157-.04-.09-.025-.203-.015-.124-.05-.089-.037-.096-.055-.036zm1.303.824-.049.012-.055.037-.09.047-.05.055-.08.052-.046.141-.012.1.077.03.117.013.111.046.046.065.031.086.111.04.102-.03.136-.084.034-.166-.087-.127-.08-.093-.092-.062-.071-.05-.048-.092-.005-.01zm-1.076.46-.092.03-.108.055-.059.02-.052.04-.074.042-.017.024-.048.077-.031.055-.007.091-.018.063-.028.067-.022.071.037.06.016.054.058.081.087.02.098.02.124-.04.172-.13.099-.08.163-.195.065-.065-.037-.099-.098-.099-.071-.074-.071-.077zm.95.912v.081h.062l.015-.065zm-1.338.222-.037.04v.055l.043.052.09.019.107-.036.09-.067.033-.036-.015-.01-.03-.015h-.22zm1.307.231-.083.015-.025.055.05.05h.214v-.07l-.074-.035zm.074.176-.09.111-.061.133-.03.03-.044.082-.007.055-.007.093-.003.083-.025.13v.366l.028.052.099.083.04.065h.197l.071-.012.053-.093.027-.166.064-.105.084-.067.124-.093.074-.077v-.124l-.074-.083-.124-.086-.067-.07-.053-.115-.086-.089-.093-.065-.068-.036zm-1.15.888-.04.028-.019.046.019.081.07.043.078-.036.027-.09-.055-.055h-.08zm-.355.117-.105.028-.065.031-.064.22-.022.082-.007.253-.034.346-.015.314.07.34v.076l.022.173.084.043.15.025.096.012.102-.086.087-.102.058-.305v-.333l-.028-.105-.021-.096v-.352l-.013-.136-.068-.151-.083-.124-.08-.09zm1.536.361-.117.02-.034.061-.065.034-.022.13-.012.262v.135l.08.114h.096l.095-.114.074-.117.065-.29v-.096l-.04-.12-.074-.019zm-.056 1.04-.061.03-.08.022-.071.067-.111.154-.037.105-.046.055v.105l.043.05.07.02.115.036.086.127.056.09.105.055.107-.024.04-.06.072-.018.148-.028.11.028.115-.037.095-.052.022-.127-.071-.102-.062-.034-.11.052-.072.04-.095.02-.096-.056-.074-.126-.046-.16-.031-.139-.11-.093zm-1.255.857-.061.02-.087.016-.077.067-.034.08.028.106.068.123v.117c0 .015.05.071.05.071l.098.05.148-.04.111-.07.04-.21v-.084l-.09-.123-.08-.065zm1.194.123-.05.04v.062l.06.022.095-.028v-.077l-.071-.019zm-.114.255v.504l-.016.083-.021.215v.173l.101.037.155-.099.126-.13.123-.042.019-.062.09-.108.043-.194.037-.102.046-.111-.065-.022-.068-.04-.166.01-.145-.11h-.238zm-1.067.39-.127.04-.077.132-.046.06v.332l.062.142.04.124.176-.05.13-.102.073-.086.019-.225v-.235l-.031-.096-.047-.016-.015-.01-.058-.015zm.431 1.057-.12.036-.13.04-.135.022-.086.077-.034.034v.139l.034.074.012.126.043.17.046.133.13.067.135.012.17-.077.228-.114.167-.111.139-.114.068-.108-.056-.124-.08-.11-.096-.044h-.117l-.061-.036-.08-.046-.08-.024zm1.123.987-.04.015-.037.04-.108.052-.117.058-.207.145-.132.067-.108.083-.053.074v.093l.016.108.068.028.055.086.108.02.11-.04.112-.016.142-.05.102-.197v-.454l.114-.1v-.015zm-.762 2.908-.055.022-.034.031-.071.046-.012.031.018.077.05.062.064.083-.037.115-.145.138-.139.06-.105.107-.11.077-.059.12v.127l.021.13.047.132.049.13.108.095.086.09.133.04h.117l.136-.036.068-.077.117-.034.09-.019h.098l.148-.13s.13-.095.13-.11.08-.167.08-.167-.025-.043-.031-.065c-.007-.022-.068-.117-.068-.15 0-.032-.117-.183-.117-.183l-.102-.08-.01-.123-.011-.17-.084-.206-.077-.13h-.141zm.37 2.751-.04.02.019.054.015.031.019.052.012.065.03.046.029-.055v-.105l-.059-.09zm-.493.768-.053.022-.092.031h-.04l-.046-.012-.022-.019h-.05v.114l.035.071s.068.06.077.06c.009 0 .03.045.03.045h.075l.068-.05.067-.09.025-.062v-.09l.012-.01-.012-.015z" style="display:inline;fill:#fff;fill-opacity:1;stroke:#505050;stroke-width:.5;stroke-miterlimit:4;stroke-dasharray:none;stroke-opacity:1" transform="translate(0 -632.52)" id="path18" />
  </g>
</svg>
