<?xml version="1.0" encoding="UTF-8" standalone="no"?>
<svg width="29.274" height="51.845" version="1.1" id="svg6" sodipodi:docname="sri_lanka.svg" xmlns:inkscape="http://www.inkscape.org/namespaces/inkscape" xmlns:sodipodi="http://sodipodi.sourceforge.net/DTD/sodipodi-0.dtd" xmlns="http://www.w3.org/2000/svg" xmlns:svg="http://www.w3.org/2000/svg">
  <defs id="defs10" />
  <sodipodi:namedview id="namedview8" pagecolor="#ffffff" bordercolor="#666666" borderopacity="1.0" objecttolerance="10.0" gridtolerance="10.0" guidetolerance="10.0" inkscape:pageshadow="2" inkscape:pageopacity="0.0" inkscape:pagecheckerboard="0" />
  <g style="display:inline" id="g4">
    <path style="display:inline;fill:#7753ea;fill-opacity:1;fill-rule:nonzero;stroke:#505050;stroke-width:.5;stroke-linecap:round;stroke-linejoin:round;stroke-miterlimit:4;stroke-dasharray:none;stroke-opacity:1" class="polygon" d="m263.419 396.612.383 1.008-1.096-.69-.72-.57-.254-.464 1.49.517zm1.256-7.693-.832.146-.655-.888-.155-.372.17-.265.182-.133h.215l.31.823zm.17-2.414 1.274.133h1.36l.954.185 1.634 2.043 4.446 3.66 2.419 3.721.22.81.337.703.58.185.488.319 2.417 3.59.279.717-.04.783.142.583.633.292.788.146.516.544.654 2.868v.889l.183.385 3.044 4.462.176.544-.026.411.093.358.589.783.92 2.125.467.478.559 1.858.04 3.554-.206 1.58-.569 1.925-.674 1.882-.73 1.36-1 1.154-3.415 2.444-.977.49-4.446 1.533-3.277 1.45-3.028.398-3.03-.796-2.283-1.903-1.169-2.803-.798-2.92-1.162-3.245-.893-10.03-.426-2.801-.691-3.571.066-1.548.488-1.485v3.256l.448.398.337-.425.306-3.37.25-1.427 1.207-3.713.026-.663-.208-1.397.013-.703 1.803-2.605.462-1.516.25-1.551-.094-1.678-.326-1.652 1.456.53.8.571.816.385.663-.2.8-.01-.57-.901-1.695-.823-2.81-.517-.88-.65-.338-.57.173-.664z" transform="translate(-260.967 -386.255)" id="path2" />
  </g>
</svg>
