<?xml version="1.0" encoding="UTF-8" standalone="no"?>
<svg width="12.951" height="10.389" version="1.1" id="svg6" sodipodi:docname="brunei.svg" xmlns:inkscape="http://www.inkscape.org/namespaces/inkscape" xmlns:sodipodi="http://sodipodi.sourceforge.net/DTD/sodipodi-0.dtd" xmlns="http://www.w3.org/2000/svg" xmlns:svg="http://www.w3.org/2000/svg">
  <defs id="defs10" />
  <sodipodi:namedview id="namedview8" pagecolor="#ffffff" bordercolor="#666666" borderopacity="1.0" objecttolerance="10.0" gridtolerance="10.0" guidetolerance="10.0" inkscape:pageshadow="2" inkscape:pageopacity="0.0" inkscape:pagecheckerboard="0" />
  <g style="display:inline" id="g4">
    <path style="display:inline;fill:#eff679;fill-opacity:1;fill-rule:nonzero;stroke:#505050;stroke-width:.5;stroke-linecap:round;stroke-linejoin:round;stroke-miterlimit:4;stroke-dasharray:none;stroke-opacity:1" class="polygon" d="M235.127 239.8h1.117l.28.326.586 1.145.383 1.15.124 1.75.468.75-.079.147-.282.129-.432.098-.75-.167-.628-.257-.547-1.895-.244-1.071.02-1.28zm0 0-.809.425-.79.532-.793.463-.37.365.131.513.19 1.119.107.877.277.345.217.355-.089.385-.469.73.265.137-.338.967-.505.71-.699.581-.451.138-.36-.246-.588-.641-.641-.888-.301-.512-.923-.099-.328-.404-.02-.503-.262-.591-.364-.631-.545-.483-.727-.375-.307-.266h1.124l1.198-.158 1.232-.522 1.186-.631.998-.73.935-.818.984-.641 1.526-.75.515.1-.006.532z" transform="translate(-225.385 -238.304)" id="path2" />
  </g>
</svg>
