<?xml version="1.0" encoding="UTF-8" standalone="no"?>
<svg width="52.605" height="42.834" version="1.1" id="svg6" sodipodi:docname="cambodia.svg" xmlns:inkscape="http://www.inkscape.org/namespaces/inkscape" xmlns:sodipodi="http://sodipodi.sourceforge.net/DTD/sodipodi-0.dtd" xmlns="http://www.w3.org/2000/svg" xmlns:svg="http://www.w3.org/2000/svg">
  <defs id="defs10" />
  <sodipodi:namedview id="namedview8" pagecolor="#ffffff" bordercolor="#666666" borderopacity="1.0" objecttolerance="10.0" gridtolerance="10.0" guidetolerance="10.0" inkscape:pageshadow="2" inkscape:pageopacity="0.0" inkscape:pagecheckerboard="0" />
  <g style="display:inline" id="g4">
    <path style="display:inline;fill:#36b4e7;fill-opacity:1;fill-rule:nonzero;stroke:#505050;stroke-width:.5;stroke-linecap:round;stroke-linejoin:round;stroke-miterlimit:4;stroke-dasharray:none;stroke-opacity:1" class="polygon" d="m119.688 182.44-.36.384-.574-.789.005-.217zM117 176.852l-.175.099-.166-.002-.17-.148.02-.572.123-.345.29-.099zm44.268-33.173-.415 1.027-.44.937-.829.808-.04.601-.284 1.787.11.572.192.483.269.256.719 1.75.653 1.59.644 1.307.113.828-.591 2.094-.691 1.923.059.957.296.956.315 1.28.117 1.635-.171 1.067-.312.66-.596.68-.519.346-.624-.572h-.497l-.666.178-.524.266-1.067.997-1.184.967-1.636.246-.636.72-.682.098h-1.295l-.844.168.039.365-.069 1.708.02.405-.131.108h-.586l-.993-.256-1.343-.424-.955-.099-.491.75-.293.285h-.362l-.378.129-.128.335-.03.414.183.71.07 1.13-.05.77.351.492 2.05 1.638.605.414.07.247-.36.887.32 1.253h-.642l-1.072-.542-.512-.326-.622.267h-.215l-.42-.612-.55-.63h-.564l-1.195.246-1.221.177-.463-.002-.19.119-.709.936-.3-.158-1.23-.354-1.122-.138-.23.236.137.76.246.749-.145.315-.616.394-.814.71-.5.552-.347.138h-1.24l-1.236.099-.495.522-.465.405-.4.108-1.616-1.282-3.207-.443-.35-.562-.307-.109-.296.74-1.76.71-.738-.424-.542-.513.08-.63.51-.514.875-.374.404-1.298-.667-1.66-.584-.484-.618-.384-.647.62-.546 1.058-.57.542-.802.118h-1.176l-.458-1.578-.15-1.354.16-1.545.178-.917-1.133-1.262-.059-1.202-.548-.62-.16.315.019.345-.156-.247-1.789-3.526-.3-1.636.307-1.259.18-.424-.515-.66-.726-.75-1.282-.986-.089-1.561-.286-1.84-.385-.622-.589-1.134-.317-.936-.109-2.483.164-.197.909-.098 1.167-.178.184-.404-.205-.335.746-.562 1.07-1.232.827-1.287.596-.809.355-.808 1.2-1.142 1.66-.789 1.125-.187 1.172-.266 1.124-.385h.532l1.395.464.754.118.792-.007h1.535l1.71-.325 1.813.256 1.618-.197 2.004-.375.984.237.896.375.125.759.207.345.3.266h.397l.512-.523.426-.542.14-.098.02.266.212.591.381.582.387.385.643.512h.42l1.368-.483 2.053.7.24.355.664.71.72.513h1.6l.571-1.261-.276-.77-.913-1.338-.248-.789.29-.138 1.547-.148.251-.158.342-.867.42.098.858.109.907-.592.537-.62.293.285.32.434.351.256.653.375.717.532.446.523.36.197.92-.148h.245l.533-.63.375-.346.317.099.463-.01.96-.799.549-.73.3-.197.86.365.343-.099.497-1.006.536-.395z" transform="translate(-109.605 -142.94)" id="path2" />
  </g>
</svg>
