<?xml version="1.0" encoding="UTF-8" standalone="no"?>
<svg width="32.637" height="14.068" version="1.1" id="svg6" sodipodi:docname="east_timor.svg" xmlns:inkscape="http://www.inkscape.org/namespaces/inkscape" xmlns:sodipodi="http://sodipodi.sourceforge.net/DTD/sodipodi-0.dtd" xmlns="http://www.w3.org/2000/svg" xmlns:svg="http://www.w3.org/2000/svg">
  <defs id="defs10" />
  <sodipodi:namedview id="namedview8" pagecolor="#ffffff" bordercolor="#666666" borderopacity="1.0" objecttolerance="10.0" gridtolerance="10.0" guidetolerance="10.0" inkscape:pageshadow="2" inkscape:pageopacity="0.0" inkscape:pagecheckerboard="0" />
  <g style="display:inline" id="g4">
    <path style="display:inline;fill:#36e74d;fill-opacity:1;fill-rule:nonzero;stroke:#505050;stroke-width:.5;stroke-linecap:round;stroke-linejoin:round;stroke-miterlimit:4;stroke-dasharray:none;stroke-opacity:1" class="polygon" d="m326.742 380.921-.365.138-1.456-.138-.188.099-.25-.099-.372-.404-.159-.335 1.596-.838 2.428-.651-.06.473-.249.75-.368.344zm29.348-9.753-1.79 1.568-1.965 1.298-1.21.394-1.253.266-.955.503-.805.789-1.029.443-1.161.148-.99.237-.9.463-1.252.789-.506.099h-.537l-1.037.305-3.225 1.133-1.95 1.26-1.4 1.068-.342-1.283-.36-.552-.283-.315-.099-.395.02-.404.171-.187 1.212-.1.482-.66-.004-.788-.242-.267-.237-.108-1.253.591-.36-.108-.214-.217.069-.877 1.032-.819.875-1.488.615-.592 1.43-.562.58-.158 4.164-.818.994-.099h2.64l3.531-.177.875-.109 1.132-.365 1.095-.443.582-.355.608-.256.908.325 1.542.246.416.217zm-16.268-2.805-.656 1.693-.714-.364.758-.957.365-.286z" transform="translate(-323.702 -368.113)" id="path2" />
  </g>
</svg>
