<?xml version="1.0" encoding="UTF-8" standalone="no"?>
<svg height="166.225" width="451.748" version="1.1" id="svg6" sodipodi:docname="indonesia.svg" xmlns:inkscape="http://www.inkscape.org/namespaces/inkscape" xmlns:sodipodi="http://sodipodi.sourceforge.net/DTD/sodipodi-0.dtd" xmlns="http://www.w3.org/2000/svg" xmlns:svg="http://www.w3.org/2000/svg">
  <defs id="defs10" />
  <sodipodi:namedview id="namedview8" pagecolor="#ffffff" bordercolor="#666666" borderopacity="1.0" objecttolerance="10.0" gridtolerance="10.0" guidetolerance="10.0" inkscape:pageshadow="2" inkscape:pageopacity="0.0" inkscape:pagecheckerboard="0" />
  <g style="display:inline" id="g4">
    <path d="M313.231 395.667h-.918l-.292-.099-.08-.868.269-.483 2.127-.62.832-.573 1.18-1.2.73-.316.187-.138h.124l.119.917.293.542.05.286-1.06.463-.945 1.062-2.066.69zm-10.509-3.145-.492.118-1.054-.286-.212-.177.903-.473.697-.68.814-.1.48.139-.167.798zm15.116-2.836-.89.345-.003-.72.687-.917.626-.306.347.365.03.168-.904.325zm-33.557-9.148.445.443 1.611.858.266.355.101.591.323.444.726.098.778-.098.592.276.512.444.76.857.668.957.829.532.475.799-.28.7-1.046.966-.568.207-.776.099-1.209.572-.44-.306-1.37-.207-1.091-.414-.916-.76-.528-.817-.668-.72-1.162-.483-2.087-1.419-1.29-.128-.53.108-.531.01-2.733-.64-.425-.375-.335-.473-.307-.474-.183-.522.35-.463.367-.316 1.52-.552 1.087-.168h1.262l1.882-.167 1.778.276.549-.207.9-.572.313.197zm48.549-3.168.359.108 1.253-.591.237.108.242.266.004.79-.482.66h-1.212l-.172.187-.02.404.1.395.282.315.361.552.341 1.283-.692.522-.344.99-1.196.926-1.315 1.522-1.05.779-.924.917-.796.611-.993.207-1.487.128-2.02 1.1-1.118.483H321.1l-1.017-.355-.388-.404.09-.543.336-.463.413-.385.26-.493-1.154-.62-.1-.474.458-1.269.297-1.309.43-.887 1.65-1.594.99-.79.583-.305.16.335.37.405.251.099.187-.1 1.457.139.365-.138.555-.631.368-.355.25-.75.058-.473 1.292-.345.695-.384.614-.543 1.79-.917.32-.256-.069.878zm-91.953-2.796-.277.335-.8-.601-.2-.267.593-.394.205-.099.512.424zm72.634-2.215-.313.582-.57-.167.156-.562.289-.336.766-.483.777-.099.478.168.15.187-1.214.188zm-34.637 1.93-.387.1-.387-.138.159-.878-.225-.601.404-.463.102-.829.16-.256.237.256.11.168.202.099h.441l.102.355-.02.345-.188.355-.528.384-.382.434zm37.99-3.807-.198.434h-2.685l.08-.572.745-.62.249-.208.824-.177 1.173.335zm-65.824 2.555-1.248 2.042.445.325.267.315-2.063.424-.862-.226-.498.099-2.096-.385-1.5-.473-.17-.375.118-.443.444.148 1.156.099.441-.198.01-1.317-.163-1.714 1.564-1.402.833-.562.96-.335 2.42.778.398.208.311.315.149.503zm75.38-2.804-.6.611-.408 1.06-.372.324-.798.198-.478-1.063-.883.099.432-.937.417-.345.542-.01.267.375.146.099 1.272-1.586h.257l.212.098.172.198zm-3.568-.562-1.389.266-.848 1.23h-.677l-.37.543-.09.236.05.217-.08.207-.266.217-.635-.335-.542.434-.226.108-.797-.503h-.756l-.229-.099.936-.907 1.277-.838.21-.305-.5-.1-.298-.127-.04-.198.809-.128h.559l.426.257h.271l1.73-.995.684.227.5.256zm147.592 1.146-.489.128-2.477-.296-.267-.404-.04-.207.568-.405.55-.68.847-.256h.33l1 1.616zm-210.378-.207-.225.01-.426-.188.153-.414-.235-.67.08-.552.547-.306h1.173l.04.404zm14.96-1.266-.432.01-.089-.395.155-.414.415-.177.187-.01.302.374.069.198-.277.256zm54.242-.967.237.602.762-.335.743-.1 1.695.1 1.244.138.732.246.07 1.2-.346.256-6.433.907-.627-.295-.248-.286.694-.888-.319-.424.366-.69.768-.473zm32.02-.414 1.726.395h.99l.201.355-.944.838-1.997-.641-.342-.69zm-49.694 5.057-1.394.355-.864.335-.825.434-.521.099h-.945l-1.338-.1-.903.139-2.519 1.14-.99.099-.856.276-.297-.444-.362-.325-.838-.1h-.838l-.85 1.007-1.356-.207-.526.1-.506.216-.502.1-.527-.1-1.98-.789-2.272-.463-2.277.187-1.959-.424-1.072.326-1.013.473-.299-.493-.372-.434-.33-.65-.009-.74.11-.512.29-.474.183-.493.089-.522.428.246.449-.099 1.335-.572 1.301-.867 1.212-.316.698-.099.599.168.607-.099.622-.187.98.66.411.138h1.329l1.208.385 1.08.572 1.562.532.94.72.715.266.532.099.488-.1.615-.482.72-.197.629.01 1.142-.129.48-.118.54-.266.53.168.463.246 1.932 1.265h.593l1.087-.276.326-.335.168-.523.297-.434.415-.374.47-.286 1.445-.483.99-.483.678-.809-1.583-.355.333-.581.526-.326.703.119.604.453.272 1.746-.498.247-.313.266-.212.345-.897.64.35.8-.264.325zm79.654-2.889-.858.306.574-.779 1.84-1.77.664.326.878.099-1.308.798-1.337.336zm-124.419-.01.493.385h.449l.94-.592.565-.217.607-.01.59.098.578.424.21.69.217.217.34-.828.453-.246.507-.128.794.099.607.394.553 1.174-.02 1.027.202.385.38.276.282.394-.251.414-.25.207-.716.188-.343-.1-.317-.275-.355-.1-.81.1-.742.226.102.375.61.168.183.177-.04.237-.24.098-.792-.325-.535.099-1.923.433-.51-.01-.287-.414.02-1.081-.207-.286-1.429 1.313-.434.325-.575.148-.6-.099-2.065.799-.649-.109h-.629l-2.205.868-1.184.237h-.606l-.604-.1-.54.1-.484.345-.985.296-1.016-.227-.86-.296-.813-.394-.203-.503.04-.602.344-.818-.235-1.441.18-.66.333-.642.505-.236h.66l1.09-.582.997-.76.58.1 1.31.532.769.1 1.306-.1.54.326.212.749.291.276.388.187.925 1.267.86-.099.752.237 1.327-.77h1.004l.285-.59-.6-.632-.724-.512-.388-.109h-.426l-.383-.099-1.62-1.151-.476-.621-.276-.73.166-.542 1.114-.483.52-.119 1.937.326.327.276.515 1.156zm-27.55-1.603 1 .523 1.396 1.53.132.425-.423.404-1 .65-2.23 1.002-.383.474-.471.926-.109.395-.156.217-.257.157-.486.138-.526-.197.476-.591.02-.71-.354-.66-.5-.553-1.015-.759-1.084-.67-1.092-.345-1.165-.158-.417-.326-.681-.838-.226-.453-.111-.473.079-.464h.286l1.14.109 2.1.542 1.04.099.589-.128 1.536-1.072h.365l1.471.473zm141.88-1.976-.583.907-.653-.1-1.2-1.216.07-.848.101-.276.459-.099 1.553.247.301.69zm-29.95-2.828.133.483-.02.207-1.182.158-1.139.532-.583.611-.455.8-1.57-.326h-1.397l-.618-.276h-.675l-.872.246-1.236.67h-.275l.1-1.024.343-.63 1.303-1.512 1.085.335 1.265.099 1.437-.296 1.02-.68 1.446-.355 1.152.887zm6.097-.444-.633.227.194-.73-.04-.591 1.03.177-.01.474-.099.177zm109.591 6.415-2.357 1.297-3.09-.227h-1.094l-1.816.316-.368-.257.344-1.222 1.452-3.253 1.726-2.866.732-.74 1.02-.7 1.087-.561 2.448-.582 2.228.109.316.236.962.957.623.749.261 1.066-.947 1.835-1.056 1.744-1.717 1.373zm-71.08-2.703-.162.109-1.225-.129h-.702l.099-.739-.361-.562.493-.818.01-.957.515-.128.07-.542.618-1.441.362-.316.516-.128.61-.838.345-.246.36-.641.518-.296-.04-.552.295-.286.816-.227.564.266.348.562-.91.69.467 1.696-.658 1.847-.435.552-.806.473-.246.454-.95.907-.29.778-.04.326zm6.471-7.862-.123.483-.421-.257-.418-.562-.607-.099-.447-.147-.264-.267 1.69-.118zm-173.216-.68-.147.394-.501-.1-.473-.65.23-.168.264-.099.342.1zm140.564.492-.444.247-.738-.513-.201-.217.47-.503.496-.138.302.217.147.217-.06.247zm-77.843-.63-1.006.098-.311-.099-.069-.966 1.105.414h.357zm-68.322-.139-.186.138-1.673-.099-1.08.809-.746.246h-2.684l-.32-.11h-.237l-.147.168-.853-.118-2.728-.71-.373-.66.423-.7.979-.999 1.965-.197 8.945-.1.975.859.089.286-1.949.591zm15.11-1.326-.801.168-.745-.345.02-.464.181-.433 1.116-.227.599.01.639.306.443.315.216.365h-1.202zm190.251-2.179-.167.148-.257-.315-.02-.197.34-.543.337-.315h.376l-.099.444zm-290.066-1.078-.615.217-.47-.188-.212-.276.7-.68.329-.167h.344l.166.364zm290.477-.897-.545.099-.268-.809.448-.207.487.493zm1.02-1.136-.24.099.001-.483.273-.424.285-.247.335-.01zm-2.787.099-.162.69-.159.779-.905.868-.557 1.332-.327.335-1.21.591-1.077-.74-.311-.63.472-2.935.465.099h.302l.099-.197-.69-.326-.133-1.687.03-.63.527-.139.651.493.824.888.96.7zm-267.798-4.286.993 1.126.87.602 1.024.325h1.078l1.062.138 1.232.434 1.27.197.59-.099.562-.217h.4l.347.207.877.956.955.868.217.444.647 2.099.732.601 1.004.177 1.18.001 1.173.1 2.72.492 1.08-.099.955-.493.85.316 2.308.591 1.136.129 1.29-.168h1.295l.617.168.592.256.51.099h.527l.933-.493.618-.907.5-1.14.391-1.186.265-.512.355-.454.467-.296.499-.187 1.355.108.28.286 1.516 2.015.267.177 1.583.128.437-.099.966-.404h.55l1.018.493.44.424.487.315 2.487.326.961.857.487.119 1.731-.109 1.196.1 1.042.226.47 1.224.386 1.257.224.423 1.018.434.418.385-.112 1.253.114 1.19 2.16 1.039 2.315.591 2.457.1 2.463-.208 1.27-.256 1.588-.443.329.01 3.076 1.361.262.207.345 1.016-.01 1.075-.575 2.55-.039.7.06.7.61 1.52.324.444 1.117.798.039.424-.152.414-1.228-.286-.75-.345-.432-.572-.615-.325-1.156.118-2.162-.572-2.443-.887-4.33-1.886h-1.18l-1.131.237-1.195.483-1.243.345-.916.128-.915-.099-2.312-.453-2.33-.296-5.967-.187-1.69-.424-2.792-.217-2.22-.375-2.198-.522-5.605-2.553-1.834-.611-5.63-1.219-.868-.099-2.04.1-1.286-.356-1.134-.01-1.683.395-.518.286-.652.6h-1.146l-1.134-.117-2.988-.572-1.115-.355-1.07-.523-.966-.68-.503-.246-2.582-.69-2.108-.237-4.335-.316-.948-.207-.79-.256-.432-.562.059-.71.311-.62.425-.622.278-.592-3.17-1.24-2.502-.681-1.08-.128h-1.085l-1.22.138-1.209-.1-.568-.206-.58-.1-.582.149-.468-.1-.122-.561.299-.483.613-.543.348-.099.159.848.174.168.544.187.235-.099.959-1.09.267-.533.464-1.45.503.276.507-.177.29-.227.803-3.358.67-.976.913-.818.456-.198.895.503 1.813.188 1.078.335h1.082l1.056.158 1.472.591.52-.099.529-.187.789-.641.342-1.028 1.142.522 1.673.207zm164.421-.335-.089.473-.358-.542-.33-.266.04-.582.465.217zm-34.733 3.201-.404 1.64-.19-.58-.069-1.5-.248-.73.157-.838-.049-2.156.305-.996.56 1.268.147.64zm-76.987-4.805-.212.345h-.945l-.158-.394.616-.72.409-.099.368.266zm198.044.394-.6.947-.408-.335h-.23l-.14-.552.139-1.156-.505-1.3h.667l.185.385.21.128.655 1.253zm19.125-1.416-.08.384-.006.7.163.65-.422.661.394.99.059.492-.02.7-.112.316-.299.917-.299.325-.224.099-.232.276-1.937-.306-.838-.63-.746-.69-.158-.287-.879-.798-.202-.266-.02-.424.71-.109.759.01-.03-.384.438-1.358-1.153-.877-.205-.365.413-.247.927.306 1.134-1.531.335-.316.159-.857.634-.109.45.109.292.532.116.463-.122.415.546.216zm-17.95 1.922-.801.848.756-2 .158-1.01.7-.602 1.044-3.063.235.099.34.295-.525 2.246-1.465 1.577zm-301.282-4.174-.8.099-1.483-1.212-.244-.374.422-.355h.442l1.71.769.332.374zm209.598-2.042-.04 1-.395-.098-.32-.345-.089-.335.02-.267.176-.207zm-15.615 1.64-.625.267-1.185-1.128-.502-.927.12-.522.354-.464.169-.118-.069-.483.467-.237h.514l.337.641.405.178.205.61zm5.937-1.66-.254.65-.548.513H309l-.455-.1-.804-.443-.204.473h-.634l-.236-.601.453-1.793.663-.67-.06-.7-.547-1.498.34-.78 1.533-.59 1.336-.72.414-.148.373.552.198 2.552-1.438 2.018zm5.271-7.082.229 2.12-.069.551-.555-.818-.2-.167-.151.167-.196.1-.283-.01-.367.817-.03.78-.277.522-.146 1.728.09.463.429-.226.265-.1.97.671.513.483-.145.592-.657.591-.762.257-.567-.257-.168.119-.336.305-.256.404.07.415-.651 1.17-.376.325-.779-.355-.48.306h-.388l-.593-1.171.01-.552.55-.622.004-.443.271-.493.605-.68.345-.513.01-.325.257-1.23.1-.514.175-.552.275-1.115.04-2.099.922-1.732.902-.473.357-.1-.059.464zm102.445-3.01.504.522-1.173-.414-1.675-.867-.12-.582 1.415.877zm-101.828-1.31-.964 1.186-.674-.1-.803-.778-.234-.858-.02-.306.551-.483 1.844.168.346.424zm52.452-5.201-1.686.513.362-.967.229-.256.836.266zm-2.83.877-.253.355-.573.237h-.479l.156-.345-.12-.207-.354.099-.578.276-.731.552-.43-.276-.089-.434.03-.197.874-.77 1.015-.127 1.432-.74h.637l-.151.474-.223.335-.134.355zm4.406-1.26-.02.414-.068.129-.538-.148-.387.01-.34-.75.1-.167.705.217.266.099zm-121.249-.808-.358 1.699-.603-.967.677-1.14.312-.227zm110.245-1.472.226.434-.969-.276-.427-.424.422-.266.237-.1zm-111.436 5.452-2.07 1.834-.34-.464.179-1.868-.578-1.16.04-.867.405-1.522.53-1.167 1.203-.78.3-.098-.08 1.416.24.533.09.453-.13.395.228 1.812.133.434-.29.571zm104.09-7.692 1.62.77.369.502.29.601.319.326.382.266.63.522.167.79-.145 1.595-.733.138-.692.237-1.42.927-.7.177-.748.099-.53.237-.533.099-1.377-.513-1.336-.601-1.938-1.04-.357-.257-.311-.562-.889-1.003-.223-.64-.078-1.828.232-.414.377-.227 1.295.424.854-.444 2.453-.374h2.496zm11.108-1.493-.495.819h-.868l-.151-.119 1.026-.512zm-208.038.68-.165.198-.547-.109-.394-.276-.247-.256-.06-.276.533-.335 1.122.345zm5.786-1.042-.4.256-.231-.247-.07-.276.167-.345h.544l.25.1zm219.67-.336 2.265 1.094 1.174.157 1.974-.138.744.109 1.881 1.395.55.956.158.828.29.79.463.196.547.1.711 1.128.142.365-.54 2.833-2.216-1.073-2.142-1.219-.921-.453-2.467-1.032-.379-.354-.276-.464-1.074-.63-2.144-.1h-.805l-.328.1.089.344.01.7-.533.197-1.33-.443-1.19-.158-1.03-.424-1.381-.227-.152-.217.118-.325-.059-.306-.32-.118-.62.1-.598.305-.498.345-.732.946-.375.365-1.206.158-.5-.1-.46-.236-1.373-1.73-.464-.375-.516-.305-.48-.138-.491.266-.26.532-.117.641-.137.365-.593 1.023-.489.611-.178-.099.251-.976.001-.552-.303-.581-.19-.592 2.322-2.834.84-.68 3.66-.237 2.176.138 1.185-.1.793-.206.656.099.164.562.414.414h.573l1.037-.434.902-.68.554-.296h1.14l.567.158zM91.17 319.515l.395 1.435-1.174-.976.02-.69-.162-.454-.71-.552-.55-.69-.246-1.642.189-.345h.464l2.06 2.157.142.365-.05.769-.3.236zm76.724-1.826-.152 1.038-.241.394-.825.513-.28.315h-.77l-.098-.542-.258-.365-.818-.424-.212.1-.146.63-1.6.444h-.444l.22-.838-.413-.65-.03-.809-.078-.355-.201-.207.408-.562-.069-.621.429-.67.243-1.63 1.691-.354.364.286 1.969.365 1.387.985.744 1.312zm-78.902-2.531-.704.789h-1.161l-.227-.493.05-1.188-.284-.385.01-.158.184-.68.236-.148 1.874 1.671zm336.882-6.087-.286.148-.1-.424.154-.572.185-.099h.212l.276.207zM85.43 311.235l.05.266-1.604-.867-.77-.237-.687-.946.212-.454.03-.63.102-.247.492-.1.635.464.477 1.127.798 1.052zm258.424 1.067-.17.177-.591-.532-.398-1.505-.339-.404-.397-1.43.102-.405.488-.6h.395l.294.354-.164 1.541.884 1.95zm-21.758-4.888.176.394h-.616l-.26-.75.06-.394zm21.453-1.634 3.032.325-.43.355-3.27.572-1.159-.099-3.545.335h-.46l-.069-.552-.382-.384.566-.335.752-.1 1.966.129zm-28.311.266-.727.809-.079-.434.147-.394.203-.276.307-.138zm70.992-1.242.12.582.587.542-.204.838-.234.128.126.385.252.295-.456.207-.332-.099-.54.267-.356.374-1.13.158-.395-.355-2.04-.414-1.302-.907-.165-.266 2.524-1.065 1.105-.276h.926l1.167-.394zm-53.079.148.922.345h.324l.305-.414.187-.099.415.197.099.66.596-.098.466.226.146.158-.06.66-1.767.12-1.262.531-1.699-.483-1.925.828-1.17.286h-1.013l-.869-1.442.505-1.69.362-.276.645-.148 1.784-.099zm103.566-1.121 3.893.493 1.055-.099 2.222.187 1.855.66 3.242.12.969.196.748.454-1.814.374-.855.346-1.587.167-1.33-.177-.964.207-.351-.336-1.414-.345-1.809-.71-3.728-.828-.176-.512zm-261.471.276-1.136.414-.337-.927.724-.276.785.237zm-28.664.493.339.68.464.612.341.66.465 3.172 1.549 2.723 4.461 1.07-.73.443-.372.394-.274.454-.658 1.888.069.404.385.641.099.7h-.558l-.63-.158-.5-.266-.466-.345-.507-.276-.55-.178-.902-.542-1.225-.384-1.254-.306-.606-.798-.288-.99.306-1.476-.31-.404-.446-.365-.548-1.065-.207-1.243-.794-.483-1.048-.286-.456-.237-2.07.454-.495-.109-.443-.345-1.126-.365.039-.69.526-.552 1.234-.552.577-.463.116-.612-.22-.453.089-.473.39-.454.462-.355 1.242-.473.542.828.268.69.328.503.529-.71-.337-1.23.944-.276.927-.01.699.335.457.532zm173.043.345-.68.1-.455-.287.04-1.445.413-.316h.197l.126.434.204.385.34.364zm44.912-.434-.603.404-.302.109-1.454-.266-1.703.099-1.768.374-1.026-.315-.645-.513.03-.542.608-1.342 1.332-1.014.541-.178.95.276 1.598.78 1.26.916 1.142.71zm-48.71-4.823.217.612-.357.532.391 1.002.994-1.334.948-.168.538.227.37.266.201.503-.349 1.083-.623.513-.805.099-.379-.631-.53-.099-.369 1.378-.167.207-.469.178-.42-.385-.069-.207.592-.62-.32-1.857-.446.345-1.191 1.684-.927.759-.315-.385-.47-1.144.211-1.47.747-.994.635.099 1.833-.316zm-133.117.1-1.966 1.006-.465-.1-.35-.354.219-1.943.253-.582 1.368-.099.837.276.431.316.17.65-.099.395zm248.99-.642-.473.178-.549-.197-.52-.76.187-.581.604-.394.509.394.157.513h.39zm-352.966 6.526-.908.099-1.947-1.182-.46-.532-.112-.71-1.866-2.73-.249-.631.733-2.241 1.902-.542.627.374.219 1.008 1.087 1.819.359.976.27.434.113.335-.098.236.786 1.153.56.68.04 1.092zm313.89-4.559-.348.276-1.198-.256-.62-.611-.423-.819-.27-.67-.078-.532-.359-.651.05-.237 2.21-.69.417.247h.923l.403.503-.273 2.167zm-.953-5.305-.251.503-.467.335-4.24.602.361-.365.18-.355.267-.187h.42l.21-.109h.451l.41-.148.866.109.89-.1-.06-.482zm44.146-1.243 2.097.384h.764l.748.434.909-.207.515.138 1.727 1.499.847.992 1.262.847.914.286-.69.78-1.386.413h-.536l-1.063-.463-.863.099-.752-.582-.13-.897-.774-2.024-1 .582-1.201-.937h-.322l-.08.158-.51-.316-.433-.63zm-79.686 1.278-.111.207-1.03-.257-.278-.138.519-1.396h.484l.425 1.331zm32.794-2.487-.567.01-1.023-.424.597-.374.377-.1.329-.226.182-.01.404.187.27.326zm-86.388-1.202.42.434-.253.503-.34-.128-.894.01h-.339l-.402.296-.253.01.168-.464.76-.71.473.109zm114.446 3.148 2.475.148 1.248-.099 1.225.128.497.247.854.76-.245.502-.146 1.03.436.992.71.993.581 1.059.123.512-.221 1.096-.2.542-.705.907-.39.988.25 1.218.14 1.225-.029 1.125.127 1.107.387 1.123 1.65 3.075.963 2.084.308-1.164-.079-1.295.342-.463.482-.247.598.257.17.522.04 1.145.523 2.245.668.099.724-.345.119.69-.03 1.27.336 1.007.3.395 1.185.818.54.148 1.572.197 1.183.099 1.134-.296.73-.75.661-.817 2.282-1.88.66-.898.636-1.378.22-.296 2.27-1.49.26-.533.325-1.023.492-.991.37-.513 2.192-.483 2.277-.266 2.256-.917.976-.789.05-.512-.497-.907-.02-.395.523-.384 2.012-1.149 2.327-1.18 1.87-.82 1.034.01.954.72 1.016.582 5.313 1.728.85.532.743.71 1.062.493 1.186.236 1.079.464 1.023.591 2.26 1.11 3.033 1.345.777.1 2.822-.1.487.257.464.354.43.1 3.234.246.497.256.469.355.265.976h2.228v1.909l.002 2.004v2.005l.002 2.004v2.004l.002 2.004v2.005l.002 2.004v4.008l.001 2.004.001 2.006.001 2.004v2.003l.001 2.005.001 2.004.001 2.005.001 2.003v.858l-.305 1.046-.685 1.57-.12 1.268.563.986.55.64v3.653l.001 2.005.001 2.005.001 2.003v2.004l.001 2.005.001 2.005v2.003l.002 2.005v2.004l.002.128-.509-.335-1.361-1.097-1.233-1.251-.793-1.169-.9-1.063-3.827-3.153-.973-1.037-.193-.285.089-.267.442-.542.784-1.58-.82.976-.976.769h-1.42l-1.393.187-1.29.463-1.31.158-.656-.227-.395-.581-.205-.592-.089-.63-.55 1.022-1.083.562-1.476 1.179-.423-.247-.255-.443-.089-.464.285-.493.201-.522.3-1.264.662-.75.421-1.44.276-.512.141-.513-.385-.582-.65-.197-.444-.355-.516-.976-.32-.335-.586-.404-.45-.464.497-.355.655-.138h.537l.972.217.44.01 1.127-.365-.634.109-.627-.01-2.005-.631-1.239-.65-1.17-1.315-.01-.256.824-.237 1.783-.276-.553-.67-.806-.582-.281-1.04-.551-.641-1.19-1.052-.817-1.088-.693-2.217-.71-1.67.173-.612.599-.434-.906-.099-.82-.305.433-.819.947-.483-.862.118-.844.237h-.386l-.397-.099-.209-.325-.03-.464.124-.818-.145-.799-.749-.374-.618-.572-.349-.207h-.458l-.445-.385-.356-.552-4.46-2.384-.264-.68-.414.296-.414.148-.513-.395-.538-.256h-.587l-.543-.207-.568-.118h-.593l-2.346-.73-2.22-1.158-1.805-.503-1.116-.65-1.16-.533-2.594-.513-2.627-.345-.95-.01-.796.109h-.764l-4.352-2.517-.734-1.147.069-.67.193-.552 1.774-.158-1.25-.158-.514.099-1.027.454h-.557l-.786-.306-.751-.385-1.23.355-.63-.581-.217-.612-.329-.276h-.464l-.622.217h-.623l-.4-.414-.288-.552-.427-.394-.514-.296-.843-.71-.44-.966.048-1.68.137-.6.833-.976.59-.927-.73-.1-.66.425-.28.434-.111.532-.08 1.763-.529.512h-.801l.237 1.03-.326.977-.927 1.15-.079.522.148.562-.21.552-1.5 1.61-.5.099-1.114-.01-1.15.256-.533-.375-.436-.492-.326-.572-.455-1.191-.365-1.228 1.142-1.505-.393-1.36-.773-1.167-1.951-1.617-2.024-1.534-.92-.315-1.507-.138-.475-.148-.469-.582-.347-.66.944-.286 1.614-.78h.914l2.486.425.763.384.71.227 1.7-1.29 1.345-1.684.84-.364.711-.119.729.158 1.444.592 1.135.276.81.099.422.522.479.237.106-.799.418-.917.802-.286.423-.099.269-.236-.06-.848-1.063-.109.578-.73.52-.354.178-.355.01-.444-2.082.858-2.194.355-1.297-.099h-1.295l-2.584.572h-.981l-2.29-.237-1.266-.276-.979.217h-.943l-.988-.66-.841-.819-.417-.581-.556-.424-.247-.572-.614-2.146-.06-1.53h-.99l-.97-.148-4.315-1.457-.522.355-.607.188-.605.099-.602-.1-.6-.226.05-.404.446-.986.436-.365.605-.276.384-.523.624-1.566.05-.533-.07-.552.05-.414.386-.217 1.628-.512 3.38-.77.854-.463.705-.74.824-.443.38-.453.432-.365 2.616-.976 1.127-.1 1.154.11 2.28.58 2.177.928 1.886 1.221zm-285.894-3.86.921.957.221.345-.455.532-.369.75-.209.157-.705-.285-.5.739-.33-1.178-.716-.75.446-.759.161-.099h.217l.225.198zm227.67-.157 1.138 1.473-.763 1.398.529.779h1.436l.332.295.25.355.167.483-.374.385-.8.355-.922-.513-.244-.473-.187-.177-1.242.354h-.347l-.24-.66.299-.947-.869-.424-.794-.976-.03-.394.32-.68-.04-.542h.455l.828.739.36-.69.35-.286zm-3.126 1.739-.617.256-.672-.01-.146-1.05.218-1.335.623-.226.99.286-.365.335.27.71zm-231.817-1.453-1.284.345-1.43-.247.175-.591.69-.69h.61l1.114.453.398.404zm266.948-3.39 1.708.424.388-.099 2.475 1.083.395.532-.14.365.364.483-.81.74-.39.098-.396-.276-.788-.157-.911.305-.581-.227-.491-.68-.87-.414-1.232-1.437h-.604l.158.562.523.374.69 1.094.396.108h.41l.554.454-.03.71-1.44.276-.497-.513-.11-.937-.81.316-.31.325h-.238l-.538-.976h-1.535l-1.025-.522.504-.543.07-.522.666-.286.675.256.676-.374.48.099.354-.237 1.362-.158zm-318.977 5.19-.587.453-.887-.444.298-.631.146-.878.533-.69.18-.808-1.026-2.224.508-.1.404.247.679 1.48.59.887-.237 1.204zm62.302-3.496.285.158.351-.513.65.7.4.355.55.345h-.54l-.219.325-.14.1-2.09-1.13-1.338.364-.918-.335-.261-.227.493-.62.45-1.421.916.355.225.433-.06.129.6.266zm244.21.108h-.427l-.358-.571-.978-.641-.604-1.102 2.3 1.82zm-20.66-1.785-.049.306-.303-.424-.208-.1.224-1.062.116-.178.178.73zm-224.43-.64.088.246-.466-.276-.281-.168-.185-.158-1.029-1.35.44.1 1.144 1.185zm-13.85-4.757-1.107.1-.322-.129.136-.927.336-.562.501.01.561.838zm237.949-.988-.353.109h-.102l-.105-.395.194-.67.416-.008.175.109.03.492zm-.465-1.47-.338.325-.318-.109-.194-.424.06-.305.267-.188.335.138zm-235.85 1.25-.203.139-.84-1.253.21-.72.2-.177.464.444.367.463.268.543zm3.73-1.346.05.286-.904-.572-.02-.414.118-.188.54.444zm4.05-.326-.617.286-.775-.897.03-.207.068-.158.142-.098.471.463.558.168zm-11.948.858-.184.385-.368-.276-1.924-.424-.648-.099-1.666-.463-.504-.247-.36-.325.123-.602.246-.354.15-1.005.42-.414.828.75.917.64.532.296 1.617.66.575.326zm3.908-2.974.06.542-.655-.138-.471-.631.39-.454.246-.157.245.601zm-2.538 1.757-.288.276-.498-.099-.526-.335-.684-.602-.765-.532-.97-.335-.605-.099-.243-.118.234-1.037.636-.099 2.063.966.672.523zm8.462-3.06.624.423.511-.286-.02.365-.102.355-.603 1.014-1.011-.237-.234-.325-.079-.247.145-.158.079-.493.438.002zm5.527-.346.059.74.563.355.146.542-.1.877-.53 1.006-.235.266-.699-.207-.233-.335-.088-.266.098-.188-.516-.236.333-.385-.228-.542-1.432.335-.414.01-.08-.611.06-.246 1.1-.78.657-.147.707.158zm-21.278 2.227-.456.296-.548-.463-.451-.68-.238-.71-.21-1.152-.059-.828.273-.483h.199l.809.493.535.838.296.266.06.77-.197.877zm-48.758-4.682 2.137 2.774.869.374 1.151 1.26.283.433-.295.887-.252 2.523-.553.631-1.345-.315-.02-.444-.775-1.902-1.406-1.06-.552-.098-.36-1.084-.71-1.286-2.145-2.348h1.627l.79-.571.182-.454.13-.118zm49.396.099.08 1.264-.732-.335-.575-.503-.914-.375-1.113-.118-.814-.325-.57-.592-.03-.266.06-.217.179-.168 4.213 1.138zm220.812 4.573-1.88 1.674-.576.808-.5.868-.74.966-.853.848-.426.256-1.048.463-.603.178-1.138.099-3.427.68-1.126.1h-1.12l-2.125-.168-.444-.1-.847-.877-.956-.69-.844-.1-.86.1-6.2.099-2.167.128-2.159.306-1.175-.138-1.165-.345-.877-.119h-.886l-4.07.523-1.023-.099-2.059-.67-1.196-.139-1.174.178-1.094.601-.414.405-1.131 1.377-.64 1.005-.483 1.25-.417 1.28-.225 1.046-.01 1.095.193 1.231.307 1.218.341.926 1.411 2.153.288.305 1.534.602.91.778.862 2.16.614 1.1.603.01.675-.098 1.171.138 1.163.286 1.132-.66.632-1.252.634-.927 1.523-1.77.867-.819.555-.266.563.119.478.473.558.374 1.138.198 1.148-.129 1.223-.571.438-.355.362-.444 1.036-.365h2.462l1.273.128 2.267-.148-.03-.325-.437-.345-.114-.276.422-.177 1.46-.405 1.49-.286 1.084.207.968.562.372.582.165.7-.373 1.808-.182.424-.772.217-.727-.237-.72-.936-1.019-.345-1.445.286-.496.266-.444.375-.817.966-.68 1.093-1.47 1.703-1.7 1.479-.823.562-.917.384-2.949.976-.775.73-.603.946-.668.325-.772.1-.58-.178-1.175-.532-.387.433-.069.67.579.237.93.74.721 1.043.462.227 1.027.335.43.325.775.897 1.218 2.08.415 1.124.678.916 2.061 1.56.114.443-.127.512.159.464.736.897.176.582-.806.73-.039 1.061-.494 1.427-.111.483.02.434.346.404.405.325.555.168.485.276.932 1.112.488.296.31.404-.03.601.425.355.392.631.598.148.28-.177.191-.267.49.1.29.433.168.562.05.621-.02 1.18-.248.424h-.54l-.964-.483-.05.355.07.335-.492.109-.563-.1-1.413.1-2.605.73-.916.433-.593.789-.04.542.23 1.148-.347.404-1.194.148-1.666-.306-1.009-.305-.562-.257-.733-.769-.274-.988.54-2.939.152-.374.264-.335.277-.533.069-.63-.796-.77-1.199-.305-1.016-.641-3.928-3.586-.222-.345-.01-.592.159-.552 1.29-1.96.162-.374.158-1.548-.04-1.274-.144-1.275-.611-.798-1.092-.247h-1.128l-1.098.257-1.081.64-1.997 1.351-.793.789-.069 1.021.457 1 .592.917.315.998.435 3.542-.01.404-.513 1.03-.202 2.301.217 3.248.351 1.993-.148 1.084-.935 2.326-.283 1.276-.02.523 1.1 2.43.254.966.136.996-1.17-.483h-.545l-.549.148-1.22.158H283.7l-.433.187-.88.64-.532.257-.465.1-1.576-.81-.93-.877-.857-.956-.155-1.091.298-1.12.424-1.196.847-1.99-.04-1.337.29-1.094.485-1.062.174-.986.118-3.837-.12-.345-1.162-2.28-.134-.384-.008-.611.125-.592.03-.532-.267-.404-.47-.375-.57-.158-1.203.158-2.42.611-.714-.542-.538-.838-.344-1.162-.2-1.218.089-1.144.357-1.105-.288-.769-.446-.838-.004-.434.254-.374.436-.316.535-.187.5-.335 1.32-1.13.427-.992.03-1.22.335-1.169.677-1.075.8-.998.26-1.03-.394-1.632.156-.74-.136-.877-.01-.858.495-1.624 1.469-3.32 1.433-1.763.57-.463.743.818.568.967.009-.878-.151-.858-.574-1.998-.49-3.896.137-.365.5.099.51-.345.27-.611-.532-1.448-.02-.512 1.026-2.035.836-.74.366-.453.21-1.241.435-.474.552-.335.721-.858.392-1.08.24-.099h.281l.434.947.488.384.992.306.847-.365.235-.473.32-.404.513-.424.432-.483.48-1.12.635-1.022.435-.355.526-.226.583-.139h.563l1.249.641.723.128h.739l.467.109.354.286.323.582.399.502.369.247.405.118 2.717-.207 2.374.562 3.238.128 1.111.335 1.066.434 1.305.77.477.167h.535l.666-.72.52-.158h.53l2.086.138 5.605.888.83-.119 3.38-1.693 1.352-1.605 1.211-.444.412-.73.244-.867.429-.237 1.015-.246.404-.257.719-1.07.851-.946.417-.286 1.2.148.53.414.68 1.394-.118.237-.797.69-.23.296-.882 1.958-.604.966zm-228.539-10.679.535.809.11.522-.39.602-.144.917-1.15.72-1.006-.168-.325-.257-.635-1.399.059-1.187.4-.453.93.098.947-.65zm256.576 12.13.717.217.746-.099.37-.444.104-.571.377-1.064.867-.72.609-.108.432-.306-.08-.789.04-.778.64-.829 1.989-1.151 1.135-.414 1.47-.128.166.443-.169.631.284.947-.14 2.57-.335.366-1.52.887-1.662.71-.465.296-.41.71.03.7 1.353.936 2.103.877.434.415.28.69.08.769.51.364.71.178.473.365.358.512-3.541-1.198-.926-.533-1.12-.099-1.107-.158-1.13-.463-1.211-.108-.579.335-.227.65-.138.73.268.907-.02.552-.229.996.877 2.937 1.1 2.336 1.618 2.429.8.838.895.75-1.453-.228-.44-.808-1.844-.809-.351-.483-1.202-2.305-.35-.433-1.11-.79-.485-.571-.165-.779.124-.818-.06-1.132.04-1.126.229-1.37-.395-.483-.516-.454-.6-1.053-.18-1.195.05-.69.248-.611.332-.523.069-.512-.864-.75-.906-2.13-.079-1.102 1.152-2.126-.02-1.03.229-.611.126-.651.601-1.416.983-1.207 1.661-1.687.635-.365.712-.237.059.414-.113.365-1.228 1.717-.164.385-.03.72.59.424.635.867.127 1.16.02 1.237-.14 1.246-.237.414-1.01 1.25-2.292 1.468-.195.365.01.404.425.493zM60.696 267.72l-.06.217-1.017-1.037-1.152-.572.477-.148.948.158.38.148.368.512zm306.808.237-1.558.167-.354-.473-.414-2.119 1.109-1.694 1.397-.998.952-.256h.33l.851 1.222-.643 2.457-.746 1.256zm-30.035-5.914-.1.217-.366-1.156.303-.572.438.207.11.207-.42.552zM52.113 264.92l-.618.099-.595-.207-.495-.572-2.647-1.639h-.823l-.579-.424-.702-.147-.745-1.094-.156-.591.543-.286.336-.602.883.267 1.006 1.061 1.023.395.278.197.495.591 2.34 1.44.253.494.161.493zm122.487-5.377-.48.513-.516-.326.794-1.048.184-.098zm-30.83.414h-.413l-.122-.296.02-.502-.04-.405-.118-.295v-.503l.38.246.292.237.337.168.272.118.143.098-.269.72zm5.174-2.9-.02.681-.68-.394-.135-.75.225-.246.468.128zm112.128-1.216-.125.325-.842-.798-.225-.572.102-.453h.877l.434.285zm78.869-1.533-.246.306-1.2-.552.06-.878-.162-.434-.322-.453-.13-.444.133-.483.736.621.416.976.57.937zm11.769-3.278-.161.118-.354-.266-.218-.286.01-.296.253-.148.517.444.008.247zm-1.307-1.047.02.414-.597-.946-.233-1.12.474.405.533.828zm-87.1-3.07.327.946.049.355-1.834.493-1.101-1.158.235-.473h.95zm-94.338 4.894-1.345.365-.78-.513.844-.621h.3l.193-.118.07-.257-1.527-.414-.433-.365-.416-.926.01-.592 1.956-1.557.457-.167.07.64 1.353 1.633.06 1.087-.05.394zm81.21-6.608.354.207.489-.007.583-.157 1.437.148h2.534l1.744.374 1.71 1.05.851.207.366.008-.079.099-.677.286-.317.562.928.867.069.572.72.513.88.798.039.257.298.355.15.443-.619.434-.834.099-.616-.414-.57-.513-.145.64-.439.365-1.602-.108-1.147.003-1.14.158.571.098.518.207 1.773 1.631.379.601-.62 1.201.303.493.686.286.836.602.594.098.43.335.019.582.251.532-.677.217.671.138.597.276-.327.276-.253.336.275.177.817.306.357.286.187.769.797 1.254 1.464 1.618.32.591-.004.542-.243.464-.834.542-.669.72-.079.256-.905.335.414.247.33.335.629 1.002 1.498 1.626.754.612 3.104 2.207 1.65.966 2.105 2.2 1.093.512.212.612-.912.936-1.331.473-2.195.257-2.201-.335-1.138-.267-.992-.542-.78-1.084-1.033-.592.398.66.25.671-.13.73-.405.571-.695.424-.746.345-.313.237-1.891 3.831-.307 1.036-.576 4.303-.009 1.216.848 2.273.08 1.192.167.513-.112.424-.4.256-1.624.7-1.148.572-.929.818-.752 1.022-.66.74-.88.355h-.637l-.515-.336-.36-.66-.204-.72-.135.533.03.522.301.552.115.592-.173.601-.377.473-1.021.523-.563.444-.089.778-.271.444-.39.345-1.438.789-.32.315-.238.405.766-.1.701.1.05.778.22.582-.28 1.276-1.08.858.54.177.487.286 1.084.207.368.907-.16 1.096-.196.986-.778.276-.484-.187h-.48l-.352.296-.098.512.673-.246-.04 1.27-.182 1.241-.223.68-.412.562-.622.178-.586-.414-.12.483.179.414.838.996-.515.216-.375.336-.168.493-.912 1.134-.402.838-.171.898-.427.71-6.88 3.073-5.568 2.592-.404-.177-.268-.394-.19-4.027-.689-2.06-.103-1.16-.785 1.036-.481-.108-.52-.266-.392-.335-.03-.444.421-1.278-.51.7-.555.542-.576-.099-.496-.266-.184-.414-.265-.099-1.217 1.138-1.606.611-.895-.01-.705-.345.04-.868-.07-.847-.196-.493-.432-.178-.398.1-1.153.443h-.412l-.237.227-3.048-3.086-.616 2.5-2.105 1.33-1.555.77-1.541-.286-1.568-.493-1.56.592-1.694 1.462-.468.226-.486-.01-.355-.187.121-1.108.02-1.108-.127-2.47-.135-.483-.485-.68-.645-.493-.359.355-.323.493h-1.288l-1.255-.395-1.069.227-2.118.976-1.126.148-.605-.217-.385-.532.22-.483.467-.375-.87.296-.742.493-.322.315-.345-.158-.928-1.118-1.937.415-.263.128-.477.384-.458-.187-.23-.404-.08-2.331-.985-4.484-.274-2.292-.213-.542-1.135-.828.04-1.183.588-.988.125-1.153-.166-1.251-.354-1.223-.446-.926-.638-.789-.848-.887-1.041-.66-2.247-.74-1.187.099-.44-.296-.296-.375.12-.74.401-.512.539-.128.059-.286-1.14-.601-.952-.819-.299-.483-.089-.532.007-1.241.274-.789.15-.424.294-1.311.62-.404-.1-.247-.268-.177-.388-.434-.317-.493-.727-.838-1.284-1.015-.215-1.746-.167-2.574.107-1.17.413-2.189.712-.69.568-.187.425-.296h-.349l-.302.109-.545.098.446-1.96.201-.562.895-1.096 1.05-.966.443-1.141.596-1.002 2.468-1.033-.887 1.296.099.473.216.414.64.296.18 1.594.805.907.812.828.595.404.655.592.461.552.484.463.729.454 1.976 1.914.827.562.615.562.437.198 1.074-.158 3.188-1.373.572-.098 1.038-.237 1.827.099 1.937.463.626.01.599-.276.827.099.773.148.387-.119 1.126-1.002 1.532-.296.493-.988.383-.937.181-.994.64-.405.896-.345 1.327-.433 4.602-.1.447.188.099.503-.1.385.181.226h.613l.567.237 2.295.799.978.246.542-.099 1.075.71.586-.246.776-.503.738-.68.662-.533.963-.207h1.242l1.467-.177 1.108-.286 1.236.473.33-.148.212-.463.639-1.015.283-.68.248-1.308.172-.316.47-.177.481-.247.126-.394.176-.453-.145-.385-.274-.325-.289-1.093.099-.493.178-.374.492-.188 1.31-.798 1.157-.937.634-.463.279-.296.02-.434-.503-.443-.484-.217-.04-.523.02-.355.145-.335-.07-.325-.001-.493.307-.533.714-.788.562-.513.623.316.73-.148.692-.257.382-.926.06-.444-.09-.355.242-1.32.06-.186.455-.829.05-.552-.259-1.295.162-.976.079-2.028.272-.365.31-1.049.505-1.095 1.022-.602.536-.779.236-.147.349-.006 1.236.571 1.113-.64 1.003-.1.83.1.467.256.462.187.988-.621zm101.187 3.218-.397.207-.641-.098-.07-.503.648-.897.428-.947-.457-.236-.446-.612-.02-.71.364-1.302.544.109.518.562.213 1.058.34.808-.724 1.095zm-298.964-11.79 1.21.099 2.242-.533 1.233.099 1.163.384 1.033.227 2.57-.286.483.099.464.226.397.346 1.176 1.284 1.988 1.579.574 1.01.327 1.137.206.266 2.245 2.175.246.907-.317 1.26.652 1.003 2.179.936 1.285.68.274.424.19.503.711.74.894.483 2.786 1.273 3.65 2.661 2.08 1.263 1.718 1.922.619.917.512.993 1.044 1.445 1.775 1.784.448.543.477.788.552.73.658.67.787.513.804.168 1.297 1.29.701.403-.11-1.008-.59-.888.01-.532.103-.473.481-.404.58-.109 1.088.365 1.764 1.53.746.887.56 1.23.468 1.279.706.63.97.217 1.077.099.99.394 2.319 1.768.77.828.583.976.401 1.156.25 1.211.156.276 1.487 1.464.782.62.958.306 2.79.326.985.502.814.838.342.858-.582.76-2.18 1.159-2.33.798 2.263-.276 1.147-.335 1.054-.522 1.044-.671 1.655-.937.615-.187.722.1.657.265.984.917.926.966.69 1.13.435 1.255-.792.66-1.154.484-1.586 1.213-.167.483.324.305-.387.897.89.553.135.473-.769.67.07.414.927 1.766.442.404 1.415.897 2.159.907 1.194.415 1.354.325.582-.01 1.016-.148.204.355.438 1.739.209 1.102.31 2.343.395.976-.03 1.19.521 1.01 1.061.64 1.13.533.535.512-.007.779-.182.611-.383.483-1.171 1.014-.21.434-.164 1.119.2.512h.468l.37-.266 1.406-1.498.38-.267.53-.207.544-.128h2.57l1.089.237.969.483.854.611 3.127 3.902 1.431 2.154.113.532.03.562-.244.434-1.304 1.47-.162.404-.407 1.6.08 1.154.432.483.345.522-.03.473-.858 2.371-.089.405.543 3.855.04 1.043-.11 1.32.078 2.128-.7 6.576-.133.395-.536 1.004-.708-.01-.572-.177-.4-.385-.221-.473-.324-.394-1.708-1.215-.448.197-1.734 1.507-.461.226-.58-.187-.91-.453-2.866-1.585-.177.503-.04.69.57 1.723.08.759-.522.148h-.29l-1.19-1.001-1.098-1.108-1.248-1.498-.912-.71-.825-.798-2.32-3.02-.603-.463-3.595-2.134-.725-.503-.92-.887-.987-.789-2.167-1.237-3.758-3.141-1.634-1.803-1.817-2.906-.594-.74-3.053-2.18-1.664-1.321-.694-.76-1.62-2.642-.475-.888-.596-.788-.98-.641-.865-.75-1.717-2.391-.54-.957-.41-1.031.069-2.068-3.635-6.26-.913-1.952-.846-2.707-.189-.276-1.983-2.425-.702-.778-.848-.73-.696-.848-1.368-2.768-.508-.77-.712-.561-2.593-1.047-.967-.582-.762-.828-.468-1.056-.514-2.243-1.222-3.406-1.372-4.562-.925-2.044-1.057-1.604-.307-.374-4.71-2.888-.803-.424-.853-.256-1.218-.188-.929-.749-.382-1.339-.211-1.795-.235-1.072-.256-.611-1.967-1.269-.77-1.002-.643-1.105-.588-.857-2.163-2.952-.74-.779-.916-.542-2.717-.572-.796-.493-1.32-1.676-.796-.848-2.387-1.88-4.036-3.93-.827-.976-.62-1.021-.5-1.096-1.72-3.035.138-.611.26-.631-.039-.523-.188-.522.04-.474.51-.276 1.148-.355h1.192l1.104.158 1.068.296 1.026.64 1.834 1.61 1.045.563 1.159.266zm-11.145-5.748-.192.276-.586-.138-.645-.897.24-.177.398.098.757.207.069.335z" class="polygon" style="display:inline;fill:#eb8e55;fill-opacity:1;fill-rule:nonzero;stroke:#505050;stroke-width:.5;stroke-linecap:round;stroke-linejoin:round;stroke-miterlimit:4;stroke-dasharray:none;stroke-opacity:1" transform="translate(-39.456 -229.692)" id="path2" />
  </g>
</svg>
