<?xml version="1.0" encoding="UTF-8" standalone="no"?>
<svg width="74.829" height="85.004" version="1.1" id="svg6" sodipodi:docname="laos.svg" xmlns:inkscape="http://www.inkscape.org/namespaces/inkscape" xmlns:sodipodi="http://sodipodi.sourceforge.net/DTD/sodipodi-0.dtd" xmlns="http://www.w3.org/2000/svg" xmlns:svg="http://www.w3.org/2000/svg">
  <defs id="defs10" />
  <sodipodi:namedview id="namedview8" pagecolor="#ffffff" bordercolor="#666666" borderopacity="1.0" objecttolerance="10.0" gridtolerance="10.0" guidetolerance="10.0" inkscape:pageshadow="2" inkscape:pageopacity="0.0" inkscape:pagecheckerboard="0" />
  <g style="display:inline" id="g4">
    <path style="display:inline;fill:#98e736;fill-opacity:1;fill-rule:evenodd;stroke:#505050;stroke-width:.5;stroke-linecap:round;stroke-linejoin:round;stroke-miterlimit:4;stroke-dasharray:none;stroke-opacity:1" class="polygon" d="m107.953 67.477.548.936 1.167 1.044 1.393 1.49.442.68.936.522.267.523.213.788.099.592.209.345.328.138.427-.158.32-.315.269-.868.174-.099.29.72.305.118.409.099.314.316.1.542-.105.552-.386.621-.218.65-.15 1.01-.208.71.322.621 2.176 3.066 1.047.503 2.493.602.898.414.793.404.782-.197.75-.917.903-.513 1.676-.789h.486l.926.316 1.521.917 1.102.857.68.454.52.404-.079.454-.419.443-.533.247-.698.434-.394.433.24.168 1.025.109 1.21.384.37.454.05.384.148.631.215.187 1.123-.118.346.138.403.325.399.848-.01.641-.81.7-.302.424-.132.67-.578.799-1.53 1.34-.411.1-2.824-.74h-2.247l-.183.286.375.808.112.809-.348.611-.942.532-.35.257-.05.345.264.365.868.374 1.008.345 3.324 2.087.712.493.94.72 1.017.562 2.728.74 1.202.483.309.276-.01.335-.314.434-.262.759-.01.453.283.444.48.66 1.084 1.019.595.453.656.099.573.246.595.76.689.926.089.641.292.828.632.957.869.917 1.215 1.141.698.809.322.315 2.596 1.957.63.72.913 1.392.388.207.363.276.234.769.079.552.123 1.68.468.502.433.611.188.444.39.335.429.099.513-.375.403-.355.184.109.411 1.174.374.424.703.404.668.315 1.456 1.415.78.513.528.167.457.237.136.444-.18.453-.31.296-1.693.818-.226.355.233.542.425.68.461.582.586.572 1.191.937 1.032.73.566.808.31.542-.192.64-.433.7-.34.602-.581.355-.157.414.24.631.195.434-.106.532.06 1.108-.536.394-.497 1.007-.344.098-.86-.365-.3.198-.548.73-.96.798-.463.009-.317-.099-.375.345-.534.631h-.245l-.92.148-.359-.197-.446-.523-.717-.532-.653-.375-.35-.256-.321-.434-.293-.286-.537.621-.907.592-.858-.109-.42-.098-.342.867-.251.158-1.547.148-.29.138.248.789.913 1.339.276.769-.57 1.26h-1.601l-.72-.512-.664-.71-.24-.355-2.053-.7-1.369.483h-.419l-.643-.512-.387-.385-.381-.582-.212-.591-.02-.266.594-.217.971-.483.794-.543.522-.571.215-.602.03-.7.224-1.795.233-.878-.131-1.075-.424-.848v-1.272l.151-.62.07-.405.596-.513.413-.74.229-.965.02-.7-.188-.424-.588-.405-.99-.384-.622-.493-.254-.592.02-.522.303-.444-.746-.493-1.793-.552-1.002-.66-.21-.77-.749-1.004-1.287-1.244-.677-1.79-.07-2.334.152-1.9.562-2.2-.753-1.592-.826-.838-1.15-.611-1.095-.887-1.04-1.152-1.247-1.702-1.454-2.25-.977-1.009-.5.237-1.05-.207-1.604-.651-1.397-.355h-1.193l-.776.148-.36.345-.03.335.303.335-.161.267-.626.187-.505.375-.565.828-.392 1.081-.592.414-.915.099-.899.306-.885.522-.418.394.049.277-.191.098-.432-.148-.204-.355.02-.562-.451-.374-.924-.188-1.054-.601-1.185-1.015-.823-.543-.461-.098-.66.404-.858.867-.71.346-.56-.178-.433.306-.303.798-.558.621-1.22.68-.09.1-1.393.926-1.124.927-1.303 1.242-.615.187-.586-.295-.886-.306-.467-.424.892-2.103 1.127-2.33.302-1.076.05-.789-.11-.64-.441-.671-.416-.523-.04-.345.133-.365.453-.532.583-.838.543-1.72.648-1.817-.059-1.103-.525-1.208-.286-1.148.229-1.564-.09-.612-.563-.305-1.855-.316h-.597l-.471.197-.507.424-.62.266-1.168.148-1.103-.532-.922-.897-.222-1.1.676-1.31.477-1.059.28-.907-.03-.433-.2-.454-.275-.099-.593-.561-.576-.986-.544-.454-.512.099-.474.374-.432.66-.34.267-.244-.118.079-.582.069-.552.534-2.138.645-1.393.757-.64.803-.276.846.098.708-.118.57-.335-.05-.197h-.673l-.267-.375.137-.7.301-.454.464-.207.449-.7.433-1.193.527-.601h.62l1.065-.513 1.507-1.01.577-.975.57.443-.21 1.13.297.236.142.404-.079.631.125.532.23.257.332.128 1.598-.463h.974l.409.305.373.188.462.147.357.188.23-.099.546-.473.168-.099.01-.226-.384-.424-.395-.355.01-.789.189-1.368.04-.71-.03-1.698-.07-.473-.363-.552-.953-1.057-.269-.65-.152-.652.02-.404-.242-.473-.126-.434.427-.227.513-.502.26-.77.249-.561.355-.237.307-.099h.21l.806 1.004 1.021-.503.78.002.66.266z" transform="translate(-87.858 -66.077)" id="path2" />
  </g>
</svg>
