<?xml version="1.0" encoding="UTF-8" standalone="no"?>
<svg width="193.939" height="64.621" version="1.1" id="svg6" sodipodi:docname="malaysia.svg" xmlns:inkscape="http://www.inkscape.org/namespaces/inkscape" xmlns:sodipodi="http://sodipodi.sourceforge.net/DTD/sodipodi-0.dtd" xmlns="http://www.w3.org/2000/svg" xmlns:svg="http://www.w3.org/2000/svg">
  <defs id="defs10" />
  <sodipodi:namedview id="namedview8" pagecolor="#ffffff" bordercolor="#666666" borderopacity="1.0" objecttolerance="10.0" gridtolerance="10.0" guidetolerance="10.0" inkscape:pageshadow="2" inkscape:pageopacity="0.0" inkscape:pagecheckerboard="0" />
  <g style="display:inline" id="g4">
    <path style="display:inline;fill:#5b63eb;fill-opacity:1;fill-rule:nonzero;stroke:#505050;stroke-width:.5;stroke-linecap:round;stroke-linejoin:round;stroke-miterlimit:4;stroke-dasharray:none;stroke-opacity:1" class="polygon" d="m199.265 264.3-.302.128-.465-.345-.11-2.993.327-.266h.213l.228.542-.02 1.311.04 1.158zm-70.666-3.12-.475.1-.262-.1-.175-.384.401-.887.147-.148.38.957zm-28.621-2.53-.498.177-.03-.257.09-.355.364-.345.17.197zm163.326-11.808-1.374.187h-.95l.175-.345-.05-.453.453-.119.527.099zm-173.477-10.93-.248.276-.717-.157.127-1.617.41-.207.638.296.283.276zm-4.347-11.544.696 1.055-.347.474-.173.138-.42-.158-.4.404-.384.099-.385-.73-.474-.296-.102-.502.634-.099.381.177.715-.345zm7.058 0 .646.187.85-.326.383.208.387.335.225.936.566.848 1.132-.118.4.118h.238l.222.76.103 1.305-.107.759-.816 1.087-.11.74.43.453.557.493.317.375.333-.099.424-.256.386-.641.268-.552 1.451-.611 1.497-.552.204.098.243.247.479.798.28.168.405.098.702-.098.817-.454.43-.848.187-.67 1.173-1.157.13-.868.323-.572 1.705.385.652.305 1.915 3.052 2.522 2.145 1.068.799.827.384 1.13 1.149.985 1.442 2.158 4.06.376 1.783.146 2.723-.476 4.106-.576 2.047.111.967.79 1.483-.236 1.401.153 1.163-.06 3.228.451.947.514.611 2.71 1.916.198.71 1.336 2.438 2.472 5.308.69 2.387-.08.64-.298.267-.727.236-.605-.463-.204-.335.059-.414-.24-.414-.594-.493-.341-.434.098.73.003.936-.753.099-.969-.296-1.205.266-1.427 1.153h-.686l-.521-.99-.27-.67-.425-.474-4.535-2.426-1.673-.621-1.764-1.843-3.97-2.032-2.52-1.98-1.072-1.225-2.578-1.085-1.113-1.28-.547-.247-.551-.453.58-1.241-.238-1.295-.299-1.092-1.819-2.157-.893-1.506-1.71-1.498-.685-.868-.655-1.003.41-.355.38-.217-.348-.73-.978-1.266-.458-1.456v-2.749l-1.392-3.866-1.19-5.357.21-1.876-.303-2.033-.789-1.955-1.034-1.397-.387-1.161.186-.464.229-1.507.152-.296.393-.148h.442l.828 1.31zm160.147-2.205-.193.838h.24l.994-.513 1.038-1.356.585-1.178.5-.513.999.286.222.207-.069.848.1.493.385 1.05.85.64 1.172.405 1.09.581.354.385.236.463.237.76.02.768-.786.75.334 1.212-.049.71-.27.602-1.143.552 3.12-.552.77-.316 1.065-.798.571.69.534 1.192-.43.295-1.355.444-.069.178.45.62.567-.098 1.118-.414 1.03-.65.5.007.526.138 1.018.424.57.335.481.434.313.907 1.172.335 2.402 1.278.445.109h.469l1.266-.158.444.177.316.464.105.572-.039.61-.13.464-.296.385-.861.581-2.167.77-2.37.581h-1.19l-1.672-.493-.609.099-.586.226-.742 1.58 1.37 1.576 2.348 1.643.322.414-.089.503-.374.295-.496.168-1.321.266-1.335.197-1.098.276-1.076.365-1.11-.128-1.524-.74-.439-.098-.46.375-.454 1.03-.29.286-.365-.008-.852-.207-1.709-1.05-1.745-.374h-2.534l-1.436-.148-.584.158-.489.006-.354-.207-.378-.108-.988.62-.463-.187-.467-.256-.829-.099-1.003.099-1.113.631-1.236-.572-.35.007-.235.148-.536.789-1.022.601-.506 1.095-.31 1.05-.271.364-.08 2.028-.16.976.257 1.296-.049.552-.455.828-.06.187-.241 1.319.089.345-.06.443-.382.927-.692.256-.73.148-.623-.315-.562.503-.714.788-.307.533.002.493.069.325-.145.335-.02.355.04.523.484.216.502.444-.02.434-.278.296-.634.463-1.157.937-1.31.808-.492.187-.178.375-.099.503.289 1.092.274.326.145.384-.176.454-.126.394-.482.246-.469.178-.172.315-.248 1.31-.283.68-.639 1.013-.213.464-.33.148-1.235-.474-1.108.286-1.467.188h-1.242l-.963.207-.662.532-.738.67-.776.503-.586.247-1.075-.71-.542.099-.978-.247-2.295-.799-.567-.236h-.613l-.18-.227.098-.384-.098-.503-.447-.188-4.602.1-1.327.433-.896.345-.64.404-.181.995-.383.937-.494.988-1.531.296-1.126 1.002-.387.118-.773-.148-.827-.098-.599.276h-.626l-1.937-.474-1.827-.098-1.038.236-.572.1-3.188 1.371-1.074.158-.437-.197-.615-.562-.827-.562-1.976-1.914-.729-.453-.484-.463-.461-.553-.655-.591-.595-.404-.812-.828-.805-.907-.18-1.596-.64-.295-.216-.414-.099-.474.887-1.295.645 1.368.25.306 1.431.917 1.18.463 1.277.187h1.3l.517-.098.501-.187.496.197 2.718 1.496 1.054.266 1.113-.118.443.148 1.563 1.149.461.138.77-.099-.985-.522-.644-.375-.29-.7.177-.75.627-.492.434-.543.156-1.612.276-.819.52-.779.171-.749-.585-.572-.132-.986.13-.808.33-.552.53.365.547.335h.54l.372-.138.07-.424-.102-.73.03-1.343.681-1.071 1.092-.74 1.03-.355 3.856-.6 6.098-1.536 1.806-.591.664-.306.56-.424.942-1.364 1.774-2.149 1.241-1.766 2.623-2.57 2.088-2.385.282-.443.348-1.302.03-.611-.059-.621.278-.286.405-.177.102.002.307.266.727.374.545.483.364.631.262.582.02.503.328.404.923.099.3.512.643.888.587.63.36.247.451-.138.7-.582.504-.71.338-.966-.265-.138.47-.73.088-.384-.217-.355-.277-.345-.106-.877-.19-1.12-.132-.512.37-.365.793-.463.79-.542.809-.424.02.779-.02 1.28.244 1.071.548 1.895.627.256.75.168h.433l.282-.128.079-.148-.469-.75-.124-1.75-.382-1.15-.587-1.144-.28-.326 2.315-.325.52-.355.909-.789.342-.443.271-.992-1.135-.592-.446-.75-.03-.817 1.355-1.514.469-.365.203.533.596.138h1.103l.791-.76.407-1.099 1.394-1.551.496-1.192.279-1.244 3.513-3.867.429-.602 2.085-3.888.26-.128.56.375.166 1.236-.079.542zm3.292-4.704-.6.523-.203-.631.04-.809.814-.749 1.156-.148.164.602-.138.69-.27.355z" transform="translate(-83.24 -215.395)" id="path2" />
  </g>
</svg>
