<?xml version="1.0" encoding="UTF-8" standalone="no"?>
<svg width="88.907" height="184.547" version="1.1" id="svg6" sodipodi:docname="myanmar.svg" xmlns:inkscape="http://www.inkscape.org/namespaces/inkscape" xmlns:sodipodi="http://sodipodi.sourceforge.net/DTD/sodipodi-0.dtd" xmlns="http://www.w3.org/2000/svg" xmlns:svg="http://www.w3.org/2000/svg">
  <defs id="defs10" />
  <sodipodi:namedview id="namedview8" pagecolor="#ffffff" bordercolor="#666666" borderopacity="1.0" objecttolerance="10.0" gridtolerance="10.0" guidetolerance="10.0" inkscape:pageshadow="2" inkscape:pageopacity="0.0" inkscape:pagecheckerboard="0" />
  <g style="display:inline" id="g4">
    <path style="display:inline;fill:#eb6757;fill-opacity:1;fill-rule:nonzero;stroke:#505050;stroke-width:.5;stroke-linecap:round;stroke-linejoin:round;stroke-miterlimit:4;stroke-dasharray:none;stroke-opacity:1" class="polygon" d="m69.06 190.18-.474.571h-.161l.219-.956.794-.7.7-.099-.08.434-.513.533zm.27-10.05.824 1.706-.088.266-.128.128h-.194l-.331-.917-.62-.591-.738.108.613-.749.243-.168zm3.272-.098h-.43l-.203-.148.484-1.058zm-3.155-5.094-.05.226-.069-.008-.218-.157.136-.937.375-.76.386-1.12.211-.247.08.592-.234 1.27-.202.7zm3.274-2.63-.25 2.033-.627-.286-.297.001-.374-1.147.03-.306-.227-.76 1.45-.127zm-4.716.523.08.552-.617-.582-.106-1.62.486 1.02.209.237zm4.343-2.096-.41.098-.196-1.596.115-.227.583.78.831.472-.326.316zm-3.74-2.42-.113.099h-.164l-.326-.158-.376-.67.197-.473.14-.119h.33l.173.099.06.167-.1.375.02.316zm-.695-2.36-.06.355-.571.74-.499-.425-.13-.236.51-.473.54.098.147-.108zm3.43-2.052.221.267.314-.01-.09.967-.774 1.184-.457.167-.204.002.174-1.729-.285-.988.099-.66.832.305zm-.972-4.94-.059 1.62-.492-.779-.089-.887.04-.828.105-.138.03.128.297.374zm-34.61-26.82-.202.247-.404-.177-.099-.109.932-1.084.1.404zm-3.235-1.247-.639.966-.237-1.438 1.044-.798.516-.76.545-.522.171.631-.517 1.203zm30.545-3.03-.372.128-.56-.65-.11-1.532.466-.355.252-.098.365.187.14.247.06.305-.102.316zm-38.294-23.968-.165.098-1.027-.828-.812-1.064 1.29-.207 1.246.227.008.572-.268.907zm.237-8.616 1.13.818.446-.098.7.512.02.198-.134.424-.315.325-.855.325-.585-.266-.232-.897-.691-.424-.18-.355.437-.483zm-2.199-3.297.212 1.359-.676-.513-.248-.7-.069-.72zm-4.748-.305.129.936-.475-.384-.616-1.3.02-.857.443.394zM64.6 8.044l.385.503.468-.002.477-.099.224.099.458.424.87 1.008.388.257.368.433.191.858.12.868 1.09 3 .327.632.242.483.51.118.413-.483.163-.513.43-.177.512.099.94.483.507.256.252 1.485.06 1.74-.08.543.411 1.437.129 1.65.088.908.01.868-.07 1.13-.22 1.517-.371 1.292.135 1.077-.221.493-.9.246-.078.414.265.68.628.848.02.533-.305.365h-.66l-.916.335-.63 1.093-.67.897-.366.178-1.223-.257-.293.227-.427 1.531-.35.66-.526.563-.48.325-.434.227-.97-.158-.515.927-.517 1.22-.04.631.268.991-.139.276-.523.217-.862.444-.531 1.416.02 1.375.313.473.594.207.424.424.04.66.37.829-.174.966-1.207 1.403-.039.76.642.236.556-.109.686-.335.809-.532 1.766-.78 1.929-.443 1.526-.098h1.302l.64.167.189.286 1.784-.453h.697l-.01.305-1.306 1.247-.244.582.039.621.534.582.519.443.439 1.12-.34 1.024.216.374.387.415.233.591.03.72-.215 1.146 1.886.602 1.63.266 1.187.099.761.266.459.227.322.414.099.443-.397.316-.805 1.007-.462 1.345.049 1.007-.05.867-.932 1.26-.372.867-.325.887.01.385.192.266.399.158.687.098.843-.098 2.011.216 2.294.385.91.217.298.394-.069.858-.146.799.149.61.37.563.62.187.536.217.1.434-.162.581.271.464.305.305.661.168 1.34-.375.937.168.845.256.722-.138.716-.325 1.557-1.48 1.816-.8.597-.187.403.099.1.098-.03.296.19 1.218-.079.138-.577.976-1.506 1.01-1.065.512h-.62l-.528.602-.433 1.192-.448.7-.465.207-.3.454-.137.69.266.375h.674l.05.197-.57.335-.708.118-.847-.098-.803.276-.757.64-.644 1.393-.535 2.138-.069.552-1.172-.62-.486-.356-.63-.098-.642.394-.512.424-.525.158h-.803l-1.055-.217-.717-.197-.108.108.39.897.14.72-.154.375-.339.315-.516.247-.604.147h-.534l-.856-.345-.652-.01-.557.168-.34.256-.187.316-.329 1.778-.29.562-.407.316h-.403l-.555-.099-.58.099-2.631.69-.383.099h-2.129l-1.262-.71-.611-.099-.336.197-.234.947-.738.601-.982 1.31-.228 1.914.101 1.335-.884 1.321-.08.64.474 3.066-.079.325-.18.158-.553.109-.929.315-.613.306h-.298l-.867-.227-.227-.004.069.237.69 1.327.72.63.745-.098.324.128-.098.316.287.828.672 1.344.199 1.007-.408 1.003.079.355.224.207.63.936 1.344 1.46 1.319 1.577 1.1 1.315.807.907 1.797 1.695.319.798.069 1.605.443.927.41.66.285.553.662 1.818.28.246 1.442-1.106.334.227.188.414.002.532-.226.602-.47.552-2.224 1.283-.181 1.105-.156 1.677-.04 2.058.106 1.54-.079.355-.193.168-.84-.099-1.21.779-.427.099-.531.295-.406.365-.13.562.239 1.69.433 1.59.849 1.166.671.926.935 1.283.74 1.114 1.49 1.224 2.094 1.832.8 1.013.705 1.226.499 1.046.19 1.39.153.778.05 2.602-.386.592-.293.68.163.72.489.68v.779l.456 1.402.764.857.736.582.326.454-.106.73.217.778.16.848.3 1.171.592.992.905 3.04-.02.316-.39.611-.568.562-.367.178-.347.571-.828 1.627-1.662 2.801-1.625 1.827-1.363 1.298-.988.79-.292.472v.365l.179.66-.069 1.244-.212.789-.28.838-.157.749-.438.108-.94 1.421-.408-.71-.24-.74.258-1.681-.573-3.182.355-.424.342-.217.623-1.22.757-1.207.07-1.441.611-1.058-.144-.887.03-1.039.13-.847-.05-.69.486-.72.84-.542-.352-.188-.35-.394-1.096.601-.565-.197-.112-.621.14-.67.059-.405.439-.453-.03-.887-.222-.79.32-.975-.648-.002-.299-.197.186-.543.587-.473-.535-.907.396-.976-.01-1.208-.27-1.065.01-.77-.415-1.358-.188-1.733-.877-1.294-.648-1.88-1.734-2.462.03-1.054-.1-.926-.38-.454-.502 3.28-.383-.642-.123-1.828-.252-.868.271-1.725-1.003-1.714-.216-1.244-.659-1.885.193-.424.881.424-.81-1.097-.665.246-.56-1.185-.123-3.214-.553-1.202.3-1.224-.63-4.383-1.242-1.42.246-1.225.309-1.085-.07-2.01.306-.62.605-.474-.567.168-.481.138-1.13.118h-1.274l-.441-1.467-.627-.7-.55-1.474-.33-1.67.216-.325-.986-.68-.253-.415-1.03-1.088-1.169-.828.26.582.315.364-.58 1.005.568 1.696-.499 1.082-.467 1.408-.446.67-1.41 1.444-1.141.493-.745.098-.658-.157-.81-.75-.198-.62-.13-1.048-.282-.148-.307.119.479 1.351-.01.631.863 1.213-.307.335-1.558.66-.533-.108-.376.128-.106.543-.195.305-2.455.838-.512.947-.314.956-1.22 1.37-1.639 1.134-.405-.098-.463-.267.059-1.225.561-1.035-.177-1.106-.137.63-1.056 1.544-.482.502-.972-.138-1.338.207-.507-1.586.01-.582-.099-.493.154-.522-.049-.414-.325.789-.123.69-.489.61-1.347.661-.049-.828-.05-.749.29-.67-.039-1.072.428-1.545-.03-.532-.13-.582-.24.848-.136.877-.271.267-.495.197-.905 1.012-.534.907-1.405.858-.742-.099-.098-1.086.562-3.852.553-.542.257-.67.46-2.25.516-.848.204-1.784.21-.305.69-1.4.242-2.572-.285-1.278-.648-1.239-.627-3.716-1.626-3.013-.135-1.006-.804-1.215.74-.098-1.522-1.066-.21-.434-.306-2.491.06-1.393-.223.187-.206.858-.596.355.266 1.49-.069.364-.316.582-1.273-.601-.933-.651-1.058-1.593-1.036-1.785.37-.276h.474l1.473 1.328.955.276.604-.335.748-.562.356-1.1-.369-.404-.717-.217-.477-.296-.686-.74-.088-.374-.212-.483-.698-.345-.562-.434.474-.77.465-.571h-1.234l-1.408-.986-.29-.286-.467-.197-1.107-.118-.921.286.418 1.405-.079.463-.602-.099-1.258-2.138.379-.542.544-.513-.268-.099h-.524l.51-1.896-.31-.286-.164.591-.276.572-1.07 1.34-.531-.247-.366-.335.516-.7.277-.187.191-.385-.398-.74-.63-.531-.505-.927-.263-.01.232 1.09-.098 1.555-1.132-1.717-2.265-2.443-.534-.73-.12-.719-.254-.66-.175-.72-.04-.562-.49-.503-.225-.887-.122-.897.282-.641.705-.69.502-.119.415.306.978.454.663.423.29.553.308-.099.313-.355-.059-.434-.313-1.15-.089-1.396-.02-3.267-.079-.374.548-.326.22-.374.217-.562.141-.247h.316l.497.276.817.937.544.207.543-.148.566-1.4.207-.374.273-.247h.501l.293-.246.11-.602-.003-.67-.561-1.843-.167-.848-.099-.838.351-.857.476-1.008-.114-.877.13-.346h.393l.489.217.537-.148.408-.542.164-.473.25-2.038.165-1.861.069-1.52-.418-.907-.643-2.442.187-.414.29-.098.952.857.41.138.693-.128.682-.187h.494l.715.296.982.325 1.532.404.63.306h.521l.421-.946.487-1.386.723-2.057.83-1.498.219-.394.924-1.219.896-1.276.78-1.615.437-1.16-.04-.484-.28-.404-.588-.256-.484-.267-.133-.236.01-.276.252-.75.424-.887.442-.483 1.164-.601.743-.77.834-1.016.456-.69.229-1.404.251-.276.516-.453.388-.533-.03-.286-.205-.207-.389-.986-.178-1.54.089-1.249.292-.503.388-.71.717-.433 1.021-.306 1.566-.828 2.706-1.917.975-.62.67-.326.647-.808.892-.878 1.276-.434.822-.167 3.86-.602.65.099.652.345.813 1.167.72.434.836.306.63-.128.02-.474-1.989-2.724-.181-.74-.07-.709.227-.562.622-.532.856-.612 1.066-.759.674-.522.79-.168.285-.306.08-.443-.04-.473-.36-.543.08-.68.12-.621.335-.365.74-.976.456-.71.24-.305.353-.533.604-.098.589.167.352.306z" transform="translate(-9.646 -6.455)" id="path2" />
  </g>
</svg>
