<?xml version="1.0" encoding="UTF-8" standalone="no"?>
<svg width="95.386" height="156.076" version="1.1" id="svg6" sodipodi:docname="philippines.svg" xmlns:inkscape="http://www.inkscape.org/namespaces/inkscape" xmlns:sodipodi="http://sodipodi.sourceforge.net/DTD/sodipodi-0.dtd" xmlns="http://www.w3.org/2000/svg" xmlns:svg="http://www.w3.org/2000/svg">
  <defs id="defs10" />
  <sodipodi:namedview id="namedview8" pagecolor="#ffffff" bordercolor="#666666" borderopacity="1.0" objecttolerance="10.0" gridtolerance="10.0" guidetolerance="10.0" inkscape:pageshadow="2" inkscape:pageopacity="0.0" inkscape:pagecheckerboard="0" />
  <g style="display:inline" id="g4">
    <path style="display:inline;fill:#ba51ea;fill-opacity:1;fill-rule:nonzero;stroke:#505050;stroke-width:.5;stroke-linecap:round;stroke-linejoin:round;stroke-miterlimit:4;stroke-dasharray:none;stroke-opacity:1" class="polygon" d="m286.626 236.288-.267.592-.311.276-.41-.158-.312-.306-.176.454-.86.177-.544.71-.795.187-.553-.098.059-.631 1.532-.937.956-.345.843-.68.422-.099.211.552zm8.962-8.075.537.71.678-.187 1.074.197.229.375-.04.246-1.15.69-.752-.72-1.332.494-.636-.296-.866.266-.536-.552.216-.532 1.375-.878zm9.203-3.477-1 .138-.317-.01-.782-1.003-.07-.444-.628-.503.23-.493.817-.118 1.413-.631 2.266 1.004.349.364-.708.227-.501.956zm36.397-5.268-.154.562-.605-1.324-.242-.326.31-1.107.68.542zm-28.073-4.401.107.226-.04.247-1.026.453-.344-.01-.079-.759.253-.345.483.306.43-.355zm-57.747-4.677-.508.75-.58-.858.06-1.2.175-.335.823-.187zm2.715-3.265-.673.237-.145-.611.089-.602.48.099.238.187zm73.463-9.149-.283.592-1.105-.484-.264-.423.14-.503.541-.168.283-.002.526.523zm-10.933-.937.089 1.023-.905.296-.727-.257-.466-.611v-.227h.41l.897-.542.284-.099zm22.408-3.512-.179.256-.3-.523.262-1.16.19-.197.248.74zm.349 2.687.804.592 1.043-.158-.01 1.497.169.433.941 1.268.147 1.058-.557.994-.422.473-.775.68-.02.316.33.355 1.078.207.818.542.143 1.549.778 1.221-.02.533-.308 2.183.1.936.582.75.493.315.253.473.23 1.286-.04 2.186-.08.759-.343.71-1.061 1.61-1.43 1.283-.76-.098-.245.374.475 1.17-.188 2.47-.313 1.712-.463-.868-.322-.907-.293-2.403-.365-1.082-.572-.99-.23-.887-.597-.828-.757-2.133-.5.109-.833.581-.188.404-.099.612-.192.542-.971.877-.763 1.04-.629 1.138-.2 1.043.515.819.53.325.768.73.236.335.81 2.374-.03 2.428-.593 1.07-1.498 2.03-1.079.64-.577-.325-.463-1.23-.079-.502.313-1.155.04-1.061-.365-.355-.399.098-.167.148-.965 1.387-.402.355h-.592l-.473-.098-2.869-1.211-2.341-1.199-1.834-1.119-1.328-1.688-.28-1.263-.02-1.32-.594-1.937-.07-.66.04-.632.59-1.188.716-.6.4-.435.32-.473.22-.64-.06-.632-.239-.394-1.128-1.391-.98-.858-2.01-.769-.467-.424-.508-.315-.561-.138-.55-.005-.592.236-.154.513.04.453-.05.444-.843 2.543-1.073-.562-1.024-.641-.27-.454-.118-.542-.174-.365-.241-.335-.471.848-.586.67-.717.158-.728.01-.239-.286-.265-1.617-.767-.512-.964.108-1.166.887-.232.336-.254.769-1.271 2.178-.673 1.678-.743 1.634-.332.533-.437.354-.695-.147-.625-.395-.593-1.055.202-1.225.655-.779.553-.838.668-2.921.05-1.04.116-.444 1.1-1.327.924-.818.489-.168 1.998-.463.824-.395 1.295-.006 1.053-.226.84-.631.059-.651-.04-.68.185-.414.325-.355.447-.464.506-.345 1.436-.246.476-.286.385-.444.536-.867.635.216.638.336 1.148.266 1.018.72.649 1.133.111.562.167 1.847-.237.434-.988.857.456.099 1.299-.779.648-.305 1.602-.424.377-.276.277-.415.566-1.13.414-1.207.323-.503.463-.394.457-.099 1.681.828 1.079-.394.301-1.25.248-1.817.19-.493.62-.473.738.157 1.01.651.933.217.347-.523.33-1.036.377.006 1.26.345 1.214-.226.342-1.245-.229-1.33-.948-3.878.564-.868h.49l1.198 1.033 2.309 1.393.769.857zm.526-4.389h-.124l-.548-.769.069-.877.741-1.304.55 1.14-.007.514-.078.256.51.64-.352.316zm-7.676-2.13.069.493-1.27-1.283-.255-.907h.422l.544.345zm-6.772 1.923-.099.365h-.775l-.277.098-.73.927-.43.237-2.34.305-1.843-.246-.63-.513-.412-.838-.126-.552.46-.601.444-.405 1.488-.798.336-.601.779-.73 1.606-.247.155.188.214.118h.322l.793.602.896.384-.218 1.454.267.493zm10.809-1.255-.175.276-.235-.572-.573-.532-.553-.907-.39-.286.267-.72.03-1.165.547-.533.254-.157.415-.562h.186l.176.473-.374 1.446.558 1.712-.186 1.07.079.237zm-56.926-5.634-1.213.305-.283-.946.864-.868.967.345.573.345-.268.306zm43.38-1.184h-.274l.456-1.037.359.148.11.109-.01.463zm-16.432 1.315-.273.138h-.243l-.58.355-.214-.67.205-1.136.87-.857.225-.276.237-.158h.283l.275.335.08.513-.553 1.542zm4.745 13.887-.653.108h-.689l-.462-.483-.8-2.089-.928-.512-1.064-.385-.535-.325-.47-.395-1.495-2.08-.112-1.274.257-.72.452-.64.511-.178h1.232l.64-.098 1.405-.957.1-.374.008-1.569-.14-1.096-.348-1.07.38-.493.496-.483.518-.946.102-.66.01-.691.134-.493.405-.246 1.946-.76h.344l2.505.7.511 1.054.05.345-.394 1.172-.344.788-.847 1.216-.625 1.317-.468 1.98-.295.642-.785 1.239-.242.68.007 1.476-.131.542.004.523 1.563 2.456.133.384-.01.444-.267.552-.638.946-.357.336zm2.36-3.8-.38.266-.154-.651.108-.878.756-3.068-.172-.769 1.263-1.707.774-1.603 1.169-1.684.148-.868 1.036-1.664.969-2.295-.05-.76.252-.374.138-.572.03-.483.706-.858.188.552-.211 1.09.03.522.124.247.008 1.015-.254 1.557.234 1.797-.457 1.83-.52.818-.771.581-.841.365-.87.907-.563 1.066-.088.966-1.385 3.277zm3.814-18.079.577 1.307-.778-.008-.287-.946.334-.306zm-63.55 28.036-.913.71.098-.878.27-.828.926-1.701.67-.523 1.106-1.34.624-.652 1.495-1.28 1.379-1.404.461-.109h.508l.402-.157.897-.76 2.26-2.524 1.867-1.882 1.914-2.38.913-.69.246-.257 1.762-2.19.552-.316.624-.227.423-.295.373-.375.623-.956.254-1.116-.158-.63-.351-.927.439-1.267.346-.582 1.228-2.572.354-.523.513.326.069.463-.254 1.085-.02.542.29.552-.347.907.88 2.423.674 1.535.03.503-.904.917-.54.276-1.163.247-.524.266-.834.75-.52.985-.133.513-.266.394-2.394.67-1.124.434-.517.326-.268.532.187.937-2.014 3.391-.641.887-.686.76-.842.532-1.186.335-.938.66-.638 1.162-.788 1.05-.995.779-1.073.69-.985.503-1.062.355-.32.453-.227.562-.468.266-.558.148zm25.143-30.423.212.523-.276.779-.239.167-.315-.325-.678-.227-.039-.424.353.01.644-.414zm46.467 1.797.687.345.789-.138.954-.778 1.074.286.63 1.153.322.434.176.759-.05 1.807-.262 1.639.203.335.494.296.43.364.36.464.233.522.088 1.26.62 1.06.08.414-.15.434-1.034-.099-.079.365.03.454-.367-.286-.605-1.036-.556-.434.171 1.68.185.81.03.808-.962-.621-1.147-.385-.315-.335.107-1.05-.02-.523-.51-1.106.6-2.39-.01-.494-.103-.493-.474-.966-.75-.808-.459-.003-1.117.572-.565-.188-.333-2.235-.45-2.173-.347-.552-.224-.581.221-.483.43.197.609.572.74.325.367.286zm.333-1.47-1.231.1-.54-.454-.675-1.324.76-.285.724.098.532.464.565.887zm2.425-1.011-.182.513-.289-.138-.252-.227-.369-.77-.126-.561.567.315.326.552zm-23.249-.197 1.149.503 1.12-.434 1.102.118.919.65-.301.415-.06.453 2.053-.987.549.1-.02.916-.121.779-.243.759-.434.887-.581.789-.766.572-.908.355-.432.315-.133.483.02.612-.21.552-.954.226-1.49 1.075-3.198.68-.878.464-.56.601-.625.552-.34.138-.154-.256-.04-.227.457-1.428-.079-.592-.218-.572.14-1.127.554-1.06.298-1.165.089-2.25.432-3.129-.02-.375-.338-.423-1.244-.346-.49-.325.245-.621.47-.424h.645l.568.394 2.01.819 1.07.69zm-24.228-.868-.738.335-.187-.207-.13-.493.01-.335-.71-1.77.544-.266.4.207.406.276.376.148.343.562-.079.385.106.374zm.604-4.577.54.148.385-.148.34-.523.318.77.798.63-.265.64-.701.1-.689-.148-.724.256-.884-.138-.527-.601-.6-1.081-.298-.197.04-.444.218-.286-.115-.098.059-.198.107-.138.195-.098.468.483 1.12.72zm25.184-1.394-.504.226-1.026-.966-.596-.453-.157-.257.482-.364 1.299.003.69.66.099.414zm25.486-2.159.698.809.17.582-.069.64.316.286.557.099.714.325.537.602-.319.552.1.798-.56 1.007.079 1.784.321.572.03.572-.08.601.139.493.86 1.637.157.542-.263.424-.089.404h.53l.757.68.445.898-.134.236-.603-.7-.456-.108-1.935.187-1.187-.295h-.77l-.764-1.203-.67-.197-.529-.533-.877-1.36-.28-.778.611-.789.19-.63-.03-.622-.585.099-.506-.207-.624-.76-.249-.433-.454-.365-.72-.858-1.033-.335-.422-.237-.822-.73-.6-.896-.583-1.576-.305-1.632 2.673.424 2.704-.098 3.057-.375zm-15.014 2.373 1.89 1.165 1.301 1.994.151 1.531-.1.582-.62-.66-1.33-.937-.924-.207-.284-.168.107-.503-.604-.463-.069-.187-.548-.207-.798-1.05-.565-.196-.542.216-1.244 1.556-1.33 1.093-.019-.414.54-1.368.342-2.183.216-.66-.269-.976-.03-.878.992.404 1.242.405.947.552.156.374zm-13.86-2.381-.305.295h-.187l-.129-.532.298-.355h.089zm-2.137 1.714-.79 2.458-.53-.848.215-.532-.457-.444-.122-.404.176-.533.477-.493.119-1.609 1.008-.512h.406l-.146.394.01.74zm16.576-.976.04.868-.371-.316-1.192-1.695-.33-.62.339-.415.86.631zm-4.866-3.939.841 1.505-.916-1.027-1.063-.7-1.107-1.16-.796-.404-.24-.237.078-.483.588-.098h.26l1.605 2.05zm-25.41-6.171.502.098 1.577-.296.645.148.433.562.538.178.426.286.792-.503.804.572.715 1.07.841.76.795.561.156.415-.482.68-.147.867.05.937.6 1.961-.21.532-.604.75-.45.838.058.335-.178.276-.06.591-.369-.128-.34.099-.33.266-.514.572-.802-.168-.38-.167-.088-.493-.238-.345-.345-.207-.847-.858-.398-.64-.007-.681-.218-.641-.44-.572-.579-.434-.193-.424-.08-.493-.048-1.27-.823-1.586-.285-.374-.77-.395-.64-.502-.272-.503-.248-.809-.172-.118h-.498l-.483-.108.14-.602.478-.434h.661l1.824.247zm11.933-.602h.609l.188-.098 1.172.828-.07.414.148.552-.667.946-.121.326-.37.305-1.272-.759-.46-.463-.14-.947.505-1.397zm-16.203-2.074.02.67-1.663-.976-.05-.345.04-.256.17-.148.894.365zm40.247 1.168-.262.641-.32-.227h-.457l-.719.543-1.167-.73-.18-.572.838-1.256-.01-1.865.305-.464.32-.325.382-.177.823 1.287.28.158.793.591-.206 1.193.08.7zm-21.475-4.107-.03.404-2.13-1.46-.098-.246-.004-.237.13-.237zm-1.399-9.427.179.345h-.196l-.142.098-.463.71.507 1.316-.316.957-.558.098-.22-.098.113-.473.122-.217-.113-.621-.334-.395-.266-.759-.414-.453.192-.74 1.3-.098zm-9.188-35.594 1.508.513 3.337 1.843 1.22.454 1.27.345 1.006.098.896-.423.38-.434.687-1.133.734-.138.437.414.338.552.15.809-.209.847-.7.76-.428.916-.28 3.034.01.907.225.877.607 1.39.318.394.92.493.248.375.05.67.144.592.595.226.505.296-.188.66-.315.671-.416 1.65-1.971 3.82-.116.828-.778 1.643-1.582.267-1.834.798-1.02.621-.886.809-.34 1.05.291.483.185.512-.02.553-.274.463-.881 1.12-.373.918-.395.414-.194.503.07.571.354.493 1.075 2.14 1.15 2.068.247.237.098.276-.678.552.01.992.203.986 1.019 2.438.145.65.334.533.52.503.576.424 1.655.72.64.137h.664l.164-.483.583-.167-.13-.474-.708-.66-.03-.355.373-.266.445-.158.996-.72 1.056-.571h1.344l1.32.325.937.335.77.621.793 1.067.556 1.182-.003.562-.136.562.03.562.413.375h1.277l.646-.878.079-.987-.455-.384.21-.483.392-.365.563.325.54.611 1.977.67h.506l.413.129.885.463.413.375-.507.769-1.963.168-.567.581.577 1.16.941.946.604.77.536.827-.03.77-.31.798.864-.099.813.168 1.123.67.35.099.376-.109-.05 2.413-.763 2.208-.968-.276-.827-.936.169-1.136.528-1.1-.301-.236-.534.099-.606.246-.654.099-1.077-.148-2.213-1.196-.9-.108-.203-.543.05-1.15-.883-1.359-.142-.483-.279-.384-2.633-1.481-.323-.247-.809-1.18-1.835-1.683-.514-.167h-.559l-.181.424.254.66.103.562-.04.592.08.453.869.937.13.443.577 1.201.069 1.402-.742.582-.835-.65-.03-.533-.142-.493-.898-1.275-.3-.276-1.688-1.258-1.306-1.381-2.907-1.472-.346-.099-.505.109-.475.187-1.404.73-.496.502-.04.78-1.006.62-1.387.099-1.065-.385-.881-.778h-.728l-.903-1.212-1.1-.158-.907.947-.194-1.881-.006-1.9.255-.552.45-.464 2.305-1.99.29-.641-.1-.858-.525-.7-.824-.424-.952-.177-.686-.395-.539-.64-.364 1.134.354 1.691.06 1.1-.326.414h-.591l-.561-.129-.421-.394-.305-1.134-.801-.75-.327-1.073-.364-.148-.748.099-.551-.503-.37-1.252-.08-1.346-.311-1.13-.45-1.095-.262-.897-.406-4.01-.1-.364-.215-.306-.507-.454-.387-.552-.069-.463.106-1.974.174-.473.4-.227.546.385.435.483.54.227.476.305.893 1.168.352.187h1.1l.647-.148.313-.424.197-.503.005-.601-.634-1.762-.194-1.27-.01-1.147.166-1.148.865-1.91.11-1.326-.078-1.772.151-1.055-.03-.602-.516-.956-.135-1.016 1.446-5.17.453-1.001.33-1.031.15-1.373 1.081-.374 1.03-.572h.532l.564.138 1.245-.286zm8.086-2.755-.626.71-.326-.197.35-.69-.01-.237.287-.542.537-.187.44.532zm-6.6-1.85-.06.66-.498-.355-.11-.502.049-.365.228-.444.312.404zm2.648-2.757.103.897h-.584l-.88-.542-.078-.276.01-.227.154-.197zm4.33-9.897-.184.118-.268-.098.267-.927.493-.256.393.098zm-.807-4.101-.479.808-.384-.009.06-.444.506-.936h.188z" transform="translate(-254.03 -82.395)" id="path2" />
  </g>
</svg>
