<?xml version="1.0" encoding="UTF-8" standalone="no"?>
<svg width="82.007" height="146.091" version="1.1" id="svg6" sodipodi:docname="thailand.svg" xmlns:inkscape="http://www.inkscape.org/namespaces/inkscape" xmlns:sodipodi="http://sodipodi.sourceforge.net/DTD/sodipodi-0.dtd" xmlns="http://www.w3.org/2000/svg" xmlns:svg="http://www.w3.org/2000/svg">
  <defs id="defs10" />
  <sodipodi:namedview id="namedview8" pagecolor="#ffffff" bordercolor="#666666" borderopacity="1.0" objecttolerance="10.0" gridtolerance="10.0" guidetolerance="10.0" inkscape:pageshadow="2" inkscape:pageopacity="0.0" inkscape:pagecheckerboard="0" />
  <g style="display:inline" id="g4">
    <path style="display:inline;fill:#e7cb36;fill-opacity:1;fill-rule:nonzero;stroke:#505050;stroke-width:.5;stroke-linecap:round;stroke-linejoin:round;stroke-miterlimit:4;stroke-dasharray:none;stroke-opacity:1" class="polygon" d="m83.657 223.813-.187.099-.37-.799.468-1.156.467 1.416zm-5.764-10.548.256 1.188-.36-.246-.298-.523.004-.759.07-.108zm-4.796-3.372-.118.167-.5-1.888.74.503zm-1.803.315-.105.73h-.404l-.412.463-.19.099-.336-1.48.386-2.072.204-.295.285.552.828.246-.356 1.194zm-1.002-11.332-.559.109.08-.543.15-.345.27-.098.112.581zm17.383-5.27.05.562-.213.67-.9.394-.307-.532.079-.828.139-.207h.881zm.03-1.092-.099.168-.382-.316-.272-.355-.145-.453h.592l.292.414zm24.966-19.519-.162 1.03-.563-.424.135-.523.221-.236zm-1.771-3.078.03.237-.512-.177-.18.098-.572-.098-.282-1.366.04-.325.408.098.585.68.298.474zM87.01 87.192l1.172.62-.08.583.245.118.34-.266.432-.66.473-.375.513-.1.544.454.576.986.593.562.275.099.2.453.03.434-.28.907-.477 1.06-.676 1.31.222 1.1.922.897 1.103.532 1.168-.148.62-.266.507-.424.471-.197h.596l1.856.315.564.306.088.611-.228 1.565.286 1.148.525 1.208.06 1.102-.65 1.817-.542 1.72-.583.839-.453.542-.133.365.04.345.416.522.44.67.11.642-.049.779-.302 1.075-1.127 2.33-.892 2.103.467.424.886.305.586.296.614-.187 1.304-1.241 1.124-.927 1.394-.927.088-.099 1.221-.68.558-.62.303-.8.433-.305.56.177.71-.345.858-.867.66-.405.461.1.823.541 1.185 1.016 1.054.601.924.188.45.374-.02.562.205.355.432.148.19-.099-.049-.276.419-.404.885-.522.899-.306.915-.099.591-.414.393-1.081.565-.828.505-.375.626-.187.161-.257-.302-.335.03-.345.359-.345.776-.148 1.193.099 1.397.355 1.603.65 1.05.207.501-.236.977 1.008 1.454 2.251 1.247 1.7 1.04 1.153 1.095.888 1.15.61.826.839.753 1.591-.562 2.2-.152 1.9.07 2.335.677 1.79 1.287 1.243.748 1.005.211.77 1.002.66 1.793.552.746.493-.303.443-.02.513.254.592.622.493.99.384.588.404.187.424-.02.7-.228.966-.413.74-.597.513-.069.404-.152.62v1.273l.424.848.132 1.075-.233.878-.225 1.795-.03.7-.214.601-.522.572-.794.542-.97.483-.595.217-.14.099-.426.542-.512.523h-.398l-.299-.266-.207-.346-.125-.759-.896-.374-.984-.237-2.004.375-1.618.197-1.813-.256-1.71.325h-1.535l-.792.007-.754-.118-1.395-.464h-.532l-1.124.385-1.173.266-1.124.187-1.66.789-1.2 1.142-.356.808-.595.809-.827 1.286-1.07 1.232-.746.562.205.336-.185.404-1.166.177-.91.099-.163.197.108 2.483.318.936.589 1.133.385.621.286 1.842.089 1.56 1.282.987.726.75.515.66-.18.424-.307 1.26.3 1.635 1.789 3.526.156.247h-.213l-.282-.68-.908-1.143-.282-1.22-1.066-1.346-.599-.532-.19.444-.34.483-1.047-.69-.897-.72-.829-1.397-.104.325-.187.296-.94-1.098-.984-.878-.885-.315-.548-.296-.525-.463-1.105-.483-2.748.69-3.497-.542-1.346.512-.552-.325-.34-.602.326-1.022.079-2.136.416-1.503-.195-1.14.204-.533.155-.73-.554-.295-2.47-.582-.523-.463-.656.532-2.966.296-1.116.443-1.034.848-.266 1.082.597.71.383 1.238-1.063 2.702-.179.799.411 3.306-.163 1.814-.58 1.215-.919 1.094-.379 1.851-.721.858-.967 1.96-.651 2.443-.464 1.13-.27 2.08-1.993 3.159-.468 1.784-.713.67.25.533.04.887-.25 2.38-.089 1.972.302 1.054.956 2.096-.229.611-.11.868.804.394.576.119 3.253-.991 1.102.256.414.927.268.808.552 4.354.285.808.658.77.72.818.244-.148.05-.306.048-.345.643.828.5 1.54 1.717 8.147.495 1.034.409 1.088-1.044-.532-.282-1.81-.3-.758-.368-.109-.584.01-.04-.325.438-.592-.07-.71-.598-.581-.97.463.03 1.27.434.976 1.642 2.173.514.907.652.256.952-.147 1.138.926.896.858 2.221 1.32 1.346-.139 1.455-.325.975.098.957.336 1.147 1.097 1.823 2.754 2.976 2.29-.322.573-.13.867-1.174 1.158-.186.67-.43.848-.817.453-.702.099-.406-.099-.28-.167-.479-.799-.242-.246-.204-.099-1.497.552-1.451.611-.268.553-.387.64-.424.257-.332.098-.318-.374-.557-.493-.43-.464.11-.74.816-1.087.108-.759-.104-1.305-.222-.75h-.237l-.4-.118-1.133.119-.566-.848-.224-.927-.388-.335-.383-.207-.85.325-.646-.197-2.154-.808-.828-1.31h-.442l-.392.148-.153.296-.229 1.507-.186.464-2.47-3.036-1.702-1.25.24-2.263-.518-.443h-.643l-.487-.621.432-1.349-.669.256-.926-.098-.755-.375-.574-1.864-.362-.572-.791-.976h-1.043l-.345-.473.079-1.205-.761-.74-1-.6-.827-.356-.84-1.942-.662-.473-.563-.385-.783.257-.254.7-.523.68-.593-.099-.546-.384-.663-1.94-.11-1.19.145-2.21.83-1.983.448-3.17.708-1.995.491-.68.68-2.721 1.386-3.48.156-.749.28-.838.212-.788.07-1.244-.18-.661v-.365l.293-.473.988-.789 1.363-1.297 1.624-1.827 1.663-2.802.827-1.627.347-.572.368-.177.568-.562.39-.611.02-.306-.905-3.04-.593-.992-.3-1.171-.16-.848-.217-.78.106-.729-.326-.453-.735-.582-.764-.858-.457-1.402v-.778l-.489-.68-.163-.72.293-.68.386-.592-.05-2.601-.153-.779-.19-1.39-.499-1.045-.705-1.226-.8-1.013-2.094-1.833-1.49-1.224-.74-1.114-.935-1.282-.671-.917-.849-1.166-.432-1.59-.238-1.69.129-.562.406-.365.531-.296.427-.098 1.21-.78.84.1.194-.168.079-.355-.106-1.54.04-2.059.155-1.676.182-1.105 2.224-1.283.47-.552.226-.601-.002-.532-.186-.414-.335-.227-1.441 1.105-.28-.247-.662-1.817-.285-.552-.41-.66-.444-.927-.07-1.605-.318-.799-1.797-1.695-.808-.907-1.1-1.316-1.318-1.577-1.344-1.46-.63-.936-.224-.207-.079-.355.408-1.002-.199-1.007-.672-1.344-.287-.828.098-.315-.324-.128-.744.098-.721-.63-.691-1.329-.07-.236.229.005.866.226h.298l.613-.305.929-.326.554-.108.18-.158.078-.325-.473-3.066.079-.641.884-1.321-.102-1.335.229-1.914.981-1.31.738-.601.235-.947.335-.197.611.098 1.262.71h2.129l.383-.098 2.63-.69.581-.099.554.099h.404l.407-.316.29-.562.328-1.778.187-.316.34-.256.558-.168h.651l.856.345.534.01.605-.138.515-.246.34-.306.154-.375-.14-.72-.39-.896.107-.109.717.197 1.055.217h.804l.524-.158.51-.423.643-.395.63.099z" transform="translate(-60.835 -86.738)" id="path2" />
  </g>
</svg>
