<?xml version="1.0" encoding="UTF-8" standalone="no"?>
<svg width="72.655" height="145.853" version="1.1" id="svg6" sodipodi:docname="vietnam.svg" xmlns:inkscape="http://www.inkscape.org/namespaces/inkscape" xmlns:sodipodi="http://sodipodi.sourceforge.net/DTD/sodipodi-0.dtd" xmlns="http://www.w3.org/2000/svg" xmlns:svg="http://www.w3.org/2000/svg">
  <defs id="defs10" />
  <sodipodi:namedview id="namedview8" pagecolor="#ffffff" bordercolor="#666666" borderopacity="1.0" objecttolerance="10.0" gridtolerance="10.0" guidetolerance="10.0" inkscape:pageshadow="2" inkscape:pageopacity="0.0" inkscape:pagecheckerboard="0" />
  <g style="display:inline" id="g4">
    <path style="display:inline;fill:#36e79c;fill-opacity:1;fill-rule:nonzero;stroke:#505050;stroke-width:.5;stroke-linecap:round;stroke-linejoin:round;stroke-miterlimit:4;stroke-dasharray:none;stroke-opacity:1" class="polygon" d="M152.22 202.51h-.278l-.21-.198.893-.64-.089.423.03.217zm-25.175-16.84.188.493-.069 1.146-.384 1.126.113.492-.295.316-.653-2.108-.83-.917-.183-.355h.482l.862-.572.413-.01zm30.6-.099-.828.602-.059-.503.72-.325.253-.257.182.005zM156.3 83.532h-.407l-.783-.798.422-.424.89.295.205.188-.005.177-.214.385zm-1.634-.68-.113.187-.503-.463-.332-.207.255-.631.59.69zm6.465-1.093-.55.256h-.654l.783-.483.397-.602.318-.207-.002.523zm.802-2.86-1.42 1.233h-.544l.483-1.396.234-.335.851.473zm-17.947-17.28.597.454h.589l.588-.128.382-.365.665-.008h.79l.35.148.644.848.292.118.582-.098 1.112-.296.897-.138.81.335 1.54.937-.432.67-.344.72-.674.512-.5.129-.315.71-.14 1.044.171.533.39.167.428.355.174.464.06 1.035-.02 1.165.059.385.336-.099.313-.138.638.178.793.305.5.306h.451l.35.306.132.571.412.405 1.152.759.922.098.78 1.004.811-.325.374.433 1.672-.157 1.166-.405.422.099 1.049.838.634.513-.463.098h-1.15l-1.005.897-.695.375-1.082.316-1.153.502-.333.898-.03.65-.187.72-1.87 1.049-.522-.108-.36-.395-.552.099-.372.197h-.444l-.495.237-.647-.1-.595-.334-.345-.099-.412-.003-.08.394.61 1.522.159.7-1.998 2.055.218 1.325-.541 1.019-1.208.818-2.265 2.109h-1.02l-.77.473-1.678 3.467-.02 1.187-.264.867.06.838-.737 1.64-.762.7-.17.898 1.086 1.844.12.325.632.99.306.71.483.71 1.749 1.835.777.562.937.385 1.7 1.651.858 1.053-.39.72.192 1.519-1.213-.454.144.178 1.442.828 2.158 2.914 1.878 1.438 1.91 1.635.597 1.553 1.722 1.027 1.915 1.491-.079.335.519.405 1.288.788.779.838.302.799.476.128.535-.197.536-.099.382.099.578.867.805.78.387.719.313-.099.262.109.07.601.118.395 1.077 1.15.515 1.082 1.285 1.754.95.997.676.562.774.483.758 1.946.41 1.765.814 1.96.615.857.02 1.612.496 1.661.533 1.121.157 1.145.164.572.204.423.579 1.943-.15.897-.405-.887.05 2.604.355 1.379-.16 1.69.372.59.662 1.91.466.69-.04 2.336.246 1.177-.626-.7-.453-.798-.606.424-.544.621.845 2.511-.964-.237.089 3.377.4.789.029.374-.118.454-.267-.493-.059-.513-.152.109.008.266-.321.592-.099.739.347.631.06.483-.25.592-.402.63-.916.1-.21 1.225-.312 1.301-1.635.207-1.189 1.145-1.469.424-1.308 1.136-1.448 1.05-.942.137-.8.227-.923 1.744-1.54.197-2.768 1.426-.927.69-.846.266-1.212.592-.262-.207-.403-.513-1.048-.266-.513-.572-.148-.74-.139-.295-.227.414-.173 1.75-.184.395-.447.168-.88-.493-.843-1.009-1.197.7.366.099.547-.099.422.178.358.67-.01.365-.187.424-1.122.099-1.498-.148-.272.098 1.365.66 1.247.375.555.415v.345l-.7.552-.543.68-.01.424-.01.473-.603.404-.378-.098-1.066-.71-3.083-2.78.465.788 3.193 3.163.56 1.041.08.74-.329.374-.543.434h-1.046l-1.715-1.176-2.744-2.823-.934-.384 2.776 3.226.454.779.47.907-.134.542-.239.503-6.58 2.992-.982 1.29-.78 1.59-1.292.887-.757.808-2.193.454-1.198-.138 1.241-1.47-.766-.541-.04-3.783.302-4.147.572-2.071.827-.513 1.04-.315.02-.434-.104-.493-.558-.71-.61-.325-.914-.138-.703-.868h-.535l-.83.286-.501-.375-.184-.581-.768-.72-.885-.7.4-.109.465-.404.495-.522 1.236-.099h1.24l.347-.138.5-.552.814-.71.617-.394.144-.316-.246-.749-.137-.76.23-.236 1.122.138 1.23.355.3.158.71-.937.189-.108.463.002 1.22-.168 1.196-.246h.565l.549.63.42.612h.216l.62-.266.513.325 1.072.533h.642l-.32-1.254.36-.887-.07-.246-.605-.414-2.05-1.638-.35-.483.048-.769-.069-1.13-.183-.71.03-.415.128-.335.378-.128h.362l.293-.286.491-.75.955.1 1.343.423.993.266h.586l.13-.108-.019-.404.07-1.709-.04-.365.845-.167h1.295l.68-.099.637-.72 1.636-.246 1.184-.966 1.067-.998.524-.266.666-.178h.497l.624.572.519-.345.596-.68.312-.66.172-1.067-.118-1.636-.315-1.28-.296-.957-.06-.956.692-1.923.591-2.094-.113-.828-.644-1.306-.653-1.592-.719-1.749-.27-.266-.191-.483-.11-.572.285-1.787.04-.601.828-.809.44-.927.415-1.027-.155-.542-.06-1.107.106-.533-.195-.434-.24-.63.157-.415.582-.354.339-.602.434-.7.19-.64-.31-.543-.566-.808-1.032-.73-1.19-.937-.586-.571-.462-.582-.425-.68-.232-.543.225-.354 1.694-.819.31-.296.179-.453-.136-.444-.457-.236-.528-.168-.78-.513-1.456-1.414-.668-.316-.703-.404-.374-.424-.41-1.174-.185-.109-.402.355-.514.375-.429-.099-.39-.335-.188-.444-.432-.61-.469-.504-.123-1.679-.079-.552-.233-.759-.364-.276-.388-.207-.913-1.391-.63-.72-2.595-1.957-.323-.315-.698-.809-1.215-1.141-.868-.917-.633-.957-.292-.828-.089-.64-.689-.927-.594-.76-.574-.246-.656-.098-.594-.454-1.084-1.02-.48-.66-.284-.444.01-.453.262-.76.314-.433.01-.335-.308-.276-1.203-.483-2.728-.74-1.017-.562-.94-.72-.712-.492-3.324-2.088-1.008-.345-.868-.374-.264-.355.05-.345.35-.257.942-.532.348-.611-.111-.809-.376-.808.183-.286h2.247l2.824.74.41-.1 1.531-1.34.578-.799.132-.67.303-.424.809-.7.01-.64-.4-.849-.402-.325-.346-.138-1.123.108-.215-.187-.148-.63-.05-.385-.37-.454-1.21-.384-1.025-.109-.24-.167.394-.434.698-.434.534-.246.419-.444.078-.454-.52-.404-.68-.453-1.102-.858-1.521-.917-.926-.306h-.486l-1.676.79-.902.512-.75.917-.783.197-.793-.404-.898-.414-2.493-.602-1.047-.503-2.176-3.065-.321-.62.208-.71.15-1.011.217-.651.386-.621.104-.562-.098-.542-.315-.316-.409-.098-.306-.129-.288-.72-.175.1-.268.867-.32.315-.427.158-.329-.138-.209-.345-.098-.592-.213-.788-.268-.523-.936-.522-.442-.68-1.393-1.49-1.167-1.042-.548-.937.478-.345.602-.503.642-.789.725-.992.303-.602.212-.246.424-.178.456.099.803.404 1.207.513 1.075.601.435.611.6.582.462.178h.23l.696-.444.596-.444.01-.502.55-.454.72-.74.338-.502h.257l.29.148 1.134 1.55.216.1.32-.238.446-1.211.489-.473.168.118 2.738 2.285h.262l.294-.098.192-.355.216-.79.406-.847.88-.473.683-.099.255.404.592.562.724.099 1.529-.986.5-.158h1.082l.52-.374.549-.503.188-.986.117-.877.376-.355.448-.237.843-.335 1.906-.858.49-.404.36-.227.741.375.885.71.536.532.358.582.17.483 1.41.424z" transform="translate(-107.702 -57.826)" id="path2" />
  </g>
</svg>
