<?xml version="1.0" encoding="UTF-8" standalone="no"?>
<svg width="500" height="460" version="1.1" id="svg54" sodipodi:docname="all_south_africa.svg" xmlns:inkscape="http://www.inkscape.org/namespaces/inkscape" xmlns:sodipodi="http://sodipodi.sourceforge.net/DTD/sodipodi-0.dtd" xmlns="http://www.w3.org/2000/svg" xmlns:svg="http://www.w3.org/2000/svg">
  <defs id="defs58" />
  <sodipodi:namedview id="namedview56" pagecolor="#ffffff" bordercolor="#666666" borderopacity="1.0" objecttolerance="10.0" gridtolerance="10.0" guidetolerance="10.0" inkscape:pageshadow="2" inkscape:pageopacity="0.0" inkscape:pagecheckerboard="0" />
  <g style="display:inline" id="g52">
    <path style="fill:#b5ddff;fill-opacity:1;stroke:none;stroke-width:.86629939;stroke-linejoin:bevel;stroke-miterlimit:4;stroke-dasharray:none;stroke-dashoffset:3.20000005;stroke-opacity:1" d="M0 662.52h500v460H0z" transform="translate(0 -662.52)" id="path2" />
    <path style="fill:#fff;fill-opacity:1;fill-rule:nonzero;stroke:#505050;stroke-width:.5;stroke-linecap:round;stroke-linejoin:round;stroke-miterlimit:4;stroke-dasharray:none;stroke-opacity:1" class="polygon" d="m90.734 795.74 2.325.19h2.901l1.024-.11 3.804-.113 3.756-.112 3.379-.112 3.728.012 2.855.007 1.3.391 1.183.739.537.66.256.29.352.706.646.56.23.861-.189 1.17.09 1.407.376 1.643.784 1.724 1.19 1.806.52 1.434-.155 1.063.366 1.123.884 1.183.647.627.375.47 1.006 1.812 1.86 2.894 1.396 2.17.488.257.714-.112 1.516-.212h1.502l1.071.447.43-.112 1.615-.861 1.604-.269 1.676-.358.873-.37 1.015.002 2.74.694h2.735l2.217-.392.326-2.91.022-.581.534-1.097.677-.951.09-.918-.045-1.245.49-1.51 1.485-1.203 2.404-.57 1.368-.112 2.155-.336 3.27-.336h1.206l.1.168-.69 2.09-.012.682.253.694.553.37h6.518l3.587.133 2.688.112.342.112.273.157.399 1.03-.09 2.02-.598 2.952.232 2.759 1.063 2.564.101 3.941-.375 2.353-.474 2.964-.183 3.36.487 1.405 1.03 1.47 1.572 1.535 1.215 1.99.86 2.444.312 1.54-.233.637.023 1.097.266 1.564-.298 1.04-.861.504-.287.705.434 1.348.112 1.223.341.47.249.347h.404l.873-.437 1.043-.817.838-.347h1.18l1.659.235 2.926.112.901-.145 2.724-1.097.714-.112 1.075.112 1.526.325 1.539.112.753-.336.067-.448.24-.581.422-.224.244 1.466.244 2.036.174 1.464.177.66.055.347-.194.38-.165.873-.31.784-.178.548.145.996-.117 1.432-.124 1.51-.033 1.453.42 2.606-.056.806-.521 1.36-.395 1.03-.256 1.199-.045.626.958 1.767-.056.358-.733.112h-21.471l.001 1.745.001 3.59v3.593l.002 3.59.001 3.591.001 3.591.001 3.591.001 3.591.001 3.59v2.59l.677 3.438 1.236 3.742.485.347 1.243.682 1.728 1.406.968 1.063 1.97 1.847 2.616 2.355 2.527 2.111 2.227 1.86-3.496.649-4.97.929-3.356.626-4.066.761-2.712.482-3.375.593-.538-.012-.905-.402-1.952-.112-2.296.56-1.821.156-1.348-.258-1.314-.492-1.283-.727-2.223-.269-3.162.202-3.048-.146-2.934-.481-2.1-.19-1.265.112-1.356-.157-1.447-.414-1.208-.705-1.453-1.49-1.136-1.425-.295-.201-.359-.213-.356-.112h-6.278l-1.751-.001-4.28-.006-4.282-.006-4.282-.006-4.281-.006-4.282-.006-4.281-.005-4.282-.006-4.281-.005-2.274-.003-2.114.112-2.332.123-.337-.112-.552-.168-.379-.313-1.255-.806-1.094-.615-1.484-1.03-.959-1.132-.809-.358-1.432-.202-1.077-.201h-.876l-1.544.537-1.163.526-.829.515-1.44.582-1.212.582-2.113-.112-.457.112h-1.176l-1.108-.504h-1.123l-1.247.649-1.784.257.414-4.228.435-1.871.01-2.236-.255-5.795-.308-.795-.208-.929 1.105-.716.562-.548.761-.962.54-1.347.638-2.97 2.32-6.834 1.1-6.696 1.397-3.174.524-3.555 3.884-4.588.958-2.82 2.009-1.383 2.845-1.475 2.025-2.62.98-1.817 1.117-3.48-.01-3.635.706-4.852-.155-1.396-1.059-1.93-.197-1.383-.983-1.357-1.052-1.03-.493-1.83-1.826-2.889-.5-1.927-.874-1.382-.14-1.707-.46-1.802-.892-1.782-.867-2.04v-.638l.54-.772.515-.258-.174.392-.343.459.078.358 3.415-3.577.216-.693-.115-.784-.023-.962.136-1.119-3.22-6.598-2.557-6.135-.435-3.1-3.381-4.078-1.333-2.653-.76-1.858-.57-.705.214-.358.87-.112 1.938-.425 2.653-.47 2.453-1.075.653-.48 1.3-.113 1.324.291.491-.201h.28l3.105-.001 1.293-.112h2.395l1.513.112zm-21.66-1.448-.465.134-.164-.302-.487-1.108.275-1.052.297-.783-.33-1.605-.744-1.429-.79-1.813-.242-.347.662-.581 1.003-1.28.416-.66 1.16-.146.434-.459.305-.739.118-.436 1.308-.358 1.569-.627.87-.682.881-.437h.559l.368.18 1.01 1.192.859.75.276.168-.172.179-1.23.492-1.318.459-1.733 1.889-.88.817-.253.201-.793.448-.574.391.023.213.382.246.392.403-.034 3.084-.17 3.035-.213.257-1.103.112z" transform="translate(0 -662.52)" id="path4" />
    <path style="fill:#fff;fill-opacity:1;fill-rule:evenodd;stroke:#505050;stroke-width:.5;stroke-linecap:round;stroke-linejoin:round;stroke-miterlimit:4;stroke-dasharray:none;stroke-opacity:1" class="polygon" d="m273.834 756.845-.223.291-1.026 2.096-.2.313.115.19.436.392-.256.66-.1.18-.194.615.112.56.247.212.666.269.999.201 1.177.47.792.112.186.336-.034.604.197.526.003.94-.237.828-1.213.392-.624.425-.17.212.154.247.079.335-1.142.828-1.174 1.075-.28.727-.234.862-.343.548-.894.794-.912 1.593-.447 1.04-2.237 2.485-1.989 1.238-.58.426-3.519-.112-.269-1.674-.536-2.287-1.21-2.064-.127-.862.056-1.666.004-2.34-.078-1.259.022-.917.154-1.596-.022-.951-.797-1.097-.99-1.169-.538-.57-.022-.46.002-.425.16-.626.387-.694.435-.112 1.069.28 1.113.593.59 1.326.452.19.821-.002 2.1-.179h.523l.956-.313.949-.56.273-.582.221-1.299.2-2.339h.484l1.325.828h.565l.458-.414.565-.335.417.007 1.538-.392.825.705.523.213zm-59.249 172.254-.22.56-.169.805.205.604.449.806.647.705.493.425.585 1.041.588 1.301.772 1.019 2.27 2.32.252.829.316.816 1.426 1.585.222.526-.09 1.074 1.469 3.225.963 1.885.817.346 2.614 2.007 2.278 1.612 2.669 1.086 1.96.716.966.526.485.503.394.963.2 1.676.067 1.085h2.106l1.742.112.612.213.227.313-.056.716.022 1.063.079.862-.182.918-.124 1.074-.078 1.336.268.526 1.687 1.684.708 1.097.752 1.652.44.526.353.213 1.522.179 3.921.694 2.414.626 1.92.65.8.167.39.168.13.157-.24 1.439.079.459.212.414.326.324.396.202 1.459.156.873.873.555.403-2.63.213-1.302.727-.758 1.306-1.185.962-1.616.616-1.708.425-1.803.224-1.92 1.122-2.039 2.015-1.04 1.267-.044.526-.457.448-.871.38-.493.459-.114.537-.464.257h-.816l-.573.392-.33.806-.72.492-1.114.168-.96.459-.808.738-.623.37-.439.01-.68.593-1.103 1.418-.183.66-1.517 5.34-.827.628-1.604 1.096-1.3 1.318-.558.773-.61.346-2.98.65-1.108.346-1.34.504-.34.459-.328 1.647-.923 2.364-.754 1.744-.486 1.517-.844 1.883-.734.627-.834.582-1.09.28-1.487.179-1.353-.112h-1.047l-1.451.671h-1.356l-2.151-.38-1.742-.37-.779-.111-1.54-1.23h-.99l-1.51-.112-.848-.28-.787-.627-1.71-1.238-1.669-1.007-1.48-.593-1.379-.28-1.312.246-1.02.269-.397.134-.792.514-.811.985-.67 1.535-.256.94-.75 1.996-.994 2.392-.477.694-.548.515-.87.458-2.834 1.902-1.418 2.14-.895.627-1.079.29-.91.18-.503.358-.562 1.085-.485.38-.542.146-1.622-.134-.519-.112-4.297.213-1.31-.347-.929-.134-1.466.447-.613-.29-.49-.896-.24-1.806.078-1.533.796-1.16.663-.85.649-1.109.089-.492-.13-.448-.13-.917-.067-.929-.922-2.041-1.135-2.708-1.524-3.02-.475-.828-.957-1.312-3.543-2.494-.538-.336v-.28l-.003-2.419-.003-3.208-.003-3.207-.003-3.207-.004-3.207-.004-3.208-.003-3.207-.003-3.207-.003-3.209-.003-2.712h11.12l.1-.425-.002-1.99-.006-4.565-.006-4.566-.007-4.564-.006-4.565-.007-4.565-.006-4.565-.006-4.564-.007-4.566-.002-2.257 2.891-.134 3.326-.459 5.39-.75 5.02-.928 3.275-.549 3.885-.649 1.337-.112.36.112.527.224 1.803 2.28 1.124 1.738.228.74.214.111.531-.123.597-.28 1.832-1.732.382-.448 1.167-.839 1.417-.862 1.283-.604 1.287-.503.596.123.701.436.624.269 2.927-2.104 1.308-.481 3.435-.38z" transform="translate(0 -662.52)" id="path6" />
    <path style="fill:#686868;fill-opacity:1;fill-rule:evenodd;stroke:#505050;stroke-width:.5;stroke-linecap:round;stroke-linejoin:round;stroke-miterlimit:4;stroke-dasharray:none;stroke-opacity:1" class="polygon" d="m187.743 607.797.79 1.391.377.482 3.262 3.29.63.783 1.616 2.391.99 1.614 1.132 2.318.112 1.259-.15 1.074-.226 3.059-.297.884-1.43 1.647-.057.738.294.616.437.257.266.302-.163 1.426.513.56 1.076.369 2.715.257 1.412.201 1.11.291.532.135.292.503-.458 1.646.318 1.03.929.873.94.369.903.212 3.14.538 1.305.604 1.722 1.932 2.162 1.756.526.929-.1.85-.642 1.03.1.425.994 1.03 1.139 1.051 2.08 1.172 3.608 1.833 1.651 1.227.564.93.922 1.006 1.29.929.863.716-.595 2.014.18.66.32.571.752.795.301 1.018.748 1.273.888.582 1.485.213.785.593 1.631 1.018 1.58.873.676.604.418.538.359.626.176.627.033 1.362.271 1.69.847 1.156.793.862-3.227-.996h-.482l-.574.168-1.684 1.216-.538.146-.61-.112-1.51-.146-5.137-.962-3.957-.929-1.187-.335-2.112-.314-1.398.627-1.31 2.162-.378.425-2.06.638-.972-.168-2.382.593-3.675-.895-1.312.179-1.031.448-2.641.984-1.603.56-1.865.515-1.77.783-1.191.425-1.167-.004-1.052-.436-1.152-.38-1.377-.113-1.436.224-1.217.862-.492.615-1.058 1.636-1.248 2.662-.49.537h-.135l-.308.224-5.751-1.33-2.475-.302-1.672.414-2.097-.75-.916-.134-.432.235-1.166-.336-1.9-.907-1.822-.38-1.628.134-1-.302-.801-.884-1.041-1.62-1.87-1.604-2.508-1.288-1.565-.973-.626-.65-1.349-.357-2.07-.112-1.987.638-2.852 2.006-2.65 4.118-1.475 1.575-1.184.403-.299.996.587 1.578.154 1.816-.414 3.084.153 2.241-.632-.358-.604-1.051-.285-.213-1.748.47-.907.425-.484.414-.37.112-.554-.57-.438-.113-.688.112-.703-.01-.456-.112h-.3l-.825-.335-3.01-.862-.515-.29h-.6l-1.561.749-.825.213-2.486.47-2.665.223-1.019.012-.7.335-.451.47-.306 1.052-.523 1.797-.219.493.034.716-.156 1.206-.078 1.085.1.728-.752 1.462-.913 1.772-.76 1.522-.766 1.53-.529-1.053-.329-1.227-.125-1.408.067-.38-.206-.414-.011-.112-.256-1.063.258-.739-.211-.783-.62-.761-.561-.582-.328-.526-.266-.224-.622-.112-.832-.268-1.1-1.147-1.072-1.12-1.37-1.426-1.099-1.234-1.346-1.51-1.244-1.397-.745-1.346-.306-.773.364-.112h.538l.229-.134.01-.358-.552-1.063-.267-1.353-.457-.828-1.446-1.268-1.378-.962-.438-.492-.25-.705-.53-4.476-.235-1.27-.436-.56-.315-.257-.118-.314.056-.794.183-.716-.008-.28.372-.627V664.1l-.202-.212-.242-.358h-.83l-.44-.604-.366-.761.112-.538.384-.447.415-.392.53-.324 1.568-.66.444-.325.277-.414.183-.548.912-2.126 1.351-2.122.581-.436.58-1.405.792-1.719.321-.794.234-.795.439-.637 1.49-1.064 1.13-1.854 1.222.112 1.253.302 1.609.146 1.26-.358.817-.716 1.795-.571 2.102-.672.285-.995.615-.526.715-.46h.248l.056.337.434 1.04.888 1.03 1.303 1.128.374-.112.808-.85 2.032-.527.515-.235 1.444-1.243 1.736-.806.384-.111.63-.213 1.754-.828 1.246.112 2.007-.134 3.343-.392 2.419-.134 1.22-.157.307-.168.47-1.196.365-.336.91-.515 1.779-1.804 1.168-1.523.325-.515h.022l.24-.112.502-.638-.498-.66-1.993-1.35.022-.179-.115-.235.112-.19.76-.548 1.025-.627 1.094-.235h2.85l2.431-.134h.57l1.895-.325 1.296-.29 1.333-.65 3.015.112 2.515-1.655.722-.29.316-.258.09-.257 1.175-.65 1.318-1.359 1.043-1.22.283-.862 2.847-2.926h.991l.488-.358 1.129-1.95.348-.358.535-.123.636-.224.56-.582.482-.862.004-1.063-.22-.85v-.414l.27-.38.457-.381 2.164-1.052.547-.503.329-.46.604-.111h.661l.419-.28.473-.481 1.499-.638 1.387-.503 1.457.212 1.188.258.976.302z" transform="translate(0 -662.52)" id="path8" />
    <path style="fill:#686868;fill-opacity:1;fill-rule:evenodd;stroke:#505050;stroke-width:.5;stroke-linecap:round;stroke-linejoin:round;stroke-miterlimit:4;stroke-dasharray:none;stroke-opacity:1" class="polygon" d="m105.16 645.798-1.13 1.853-1.49 1.063-.439.638-.234.794-.32.795-.793 1.72-.58 1.403-.58.436-1.352 2.122-.912 2.126-.183.548-.277.414-.444.336-1.568.66-.53.325-.415.391-.384.448-.112.537.366.76.44.605h.83l.241.358.203.213v4.137l-.373.626.008.28-.183.716-.056.795.118.313.315.258.436.56.236 1.27.53 4.474.249.705.438.492 1.378.963 1.446 1.269.457.828.267 1.353.553 1.063-.011.358-.229.134-.537.011-.363.112.304.772.745 1.346 1.244 1.396 1.346 1.51 1.099 1.235 1.37 1.428 1.071 1.119 1.101 1.147.832.268.622.112.266.224.328.526.562.582.619.76.211.773-.258.738.256 1.063.011.112.206.414-.067.38.125 1.407.33 1.228.528 1.052-.008.112-.067.649-.68.414-.399.682-.116.951.205 1.16.527 1.367.011.806-.186.112-.326.257-.347.168-.943-.94-1.046-.638-1.567-1.097-1.581-.391-2.046-.112-.88.134-.632-.414-.883-.481-.486-.123-.677.37-.468.01-.575-.145h-1.164l-.112-.638-.2-.123h-1.254l-.387-.526h-.168l-.493-.168-1.01-.75-1.06.493-2.205-.112h-2.828l-2.927.011h-5.362l-.264-.705-.555-.358h-1l-2.948.146-2.258-.112-.72-.112-.801-.18-1.886-.167-2.326.134h-2.391l-4.261-.19H58.92l.056.425-.15.313-.125.739-2.598-.001-3.42-.001h-3.23l-2.185-.001-3.66-.001-1.23-.504-.37-.324-.079-.37-.045-.246-.284-.111.235-2.628.512-2.19.2-2.032.706-1.818-.374-1.797-.435-.784-2.284-2.549 1.047-.962-1.38.134-.297-.95-.669-1.138.41-.179.395-.627 1.248.19-.045-.301-1.076-.952.1-.48.443-.538-.216-.224-.773.56h-.557l-.434-.358-.315-.112.192.727-.434.65-.411.223h-.705l-.575-.168-.152-.37-.54-.279-1.513-.481-1.273-.56-.258-1.553-.503-.671-.207-.761-.12-.862.172-1.327-.322-.212-.37-.112-.551.112-.506-.112-.604-.739-.533-.28.328 1.351-.374.38-.915-.111-.39-.515-.079-.38.422-1.637h-.163l.328-.872.62-1.052.84-1.342.955-1.685.652-2.98.443-1.857.405-1.693.695-1.53.705-1.018 1.998-1.981 1.506-1.494.77-.604.537-.504.938-.582.961-.694.734-1.32.608-1.232.457-.269.598-.212 1.843-1.323 1.171-.84.271.415.2.515.222.235.98.167 1.344-.01.773-.156.411-.437.417-1.197.244-.224.315-.112 1.47.84 1.218 1.191 1.205 1.178.61.414.267.458.528 2.153.3.537.525.224.94-.145.976-.38.864-.549.848-.705.578-.649.253-.47.126-1.761.192-.38.866-.706 1.449-1.17.832-.672-.078-.246-.517-.716-.461-.783.468-.817.484-.627 1.83-2.115.007-.693.101-.85 1.463-2.403.842-3.188.022-.616.872-1.539 1.031-1.967 2.006-.324.77-.493.89-.872.572-.806.272-.772.2-1.486.353-1.693.22-1.486.602-1.373 1.006-.694 1.746-.57.26-.27.252-.906.197-1.89.056-1.14.067-.492.225-.85 1.618-1.514.716-2.37.636-2.483 1.841-2.999 2.15-2.988 1.001-.805.843-.37h.968l.661-.223 2.318-1.489.969-.503.713-.515.174-.447.068-.66-.222-1.54.398-1.132.233-1.754.1-1.365-.078-.47-.365-.65-.068-.145-.693-.85-1.159-.515-1.595-.134-.844-.303-.14-.705-.08-.414-.078-.447-.115-.996-1.075-5.211h2.024l2.427.626.61.47.318 1.785.879 1.007 1.544.828.96 1.718.376 2.604.852 1.555.19.247.963 2.25.24.695.067 1.356-.112.918.491 1.133-.744 1.933-.22 1.187-.068 1.665.435 2.938.711 2.268.769 1.834.84 1.423 1.386 1.572 1.477 1.437 1.376.906-1.275.537-2.472.112-1.42-.302-.675-.011-.684.19-2.638.269-2.662-.123-2.47-.358h-1.499l-1.158.872-.938 1.314-.88 1.04.31 1.151.662.638 1.273 1.402 1.143 1.359.584.917 2.28 1.995 2.202 1.786.43.302.616.325.386.134 1.2 1.019 1.659 1.677 1.523 2.63 1.082 2.668 1.052 2.596.464.437.73.28.09.56-.055.816-.227.671z" transform="translate(0 -662.52)" id="path10" />
    <path style="fill:#fff;fill-opacity:1;fill-rule:evenodd;stroke:#505050;stroke-width:.5;stroke-linecap:round;stroke-linejoin:round;stroke-miterlimit:4;stroke-dasharray:none;stroke-opacity:1" class="polygon" d="m238.582 672.817.402.783.58.806 1.937 1.36.616.76.472.84.3.649.598.526.84.336.716.402.44.593.657.616 1.27.84h.618l.714.122.628.213h.675l1.089-.549 1.284-.917.979-.57 2.376.2 1.32.46 1.053.648h.821l1.79-1.19.95-1.27.921-.269 1.397.549 1.153 1.186 1.01 1.72.714.66.978 1.02 1.942 2.19 2.526 1.096.98.537.32.537.186.716.067.783.306.325.681-.112.586-.112.64.224.445.57.223.448.243.481.634.303.124.615-.435.75-.444.671-.543 1.334-.283 1.36.364.448.39.38.208.381.121.448-.045.526-.862 1.892-.445 1.653-.01.839 1.135.615h1.475l.466.38.467.605.412.302.62-.008.435.213.168.425.502.459.422.503-.201.65-.034.492-1.05 1.37-2.42 2.678-5.197 4.965-.003.002-1.754.593-.906.918-.64 1.447-1.517 1.23-1.17.493-.125.291-.09 1.33.12 1.959-.548.895-.792 1.738-.412 1.085-.314.213-.358.548-.222 1.774-.151.593-.573 3.671.163 1.052-.443 1.747-.022 1.03-.184 1.163-.314 1.007.022 1.612.178 2.634-.033.347-.439.246-.781.649-.739.436-.562.112-.935 1.164-.801 1.097-.596 1.074-.156.492.125 1.391.079 1.648-.185.705-.28.426-1.309.895-.86.638-.406.335-.21.515.379 1.219.022.895.31.526 1.037.425-.002.425.022.46.539.57.99 1.17.797 1.096.022.95-.154 1.596-.023.917.079 1.258-.004 2.342-.056 1.665.127.862 1.21 2.065.536 2.286.269 1.674.01.526-.409 1.927-.469 1.867-.022.705.216.94.865 2.16.63 1.572.305.94.433 1.107.58 1.69.144.806-.118.593-1.182 2.12-.12.67.294 1.647.387 1.586.557.907 1.332 2.489.99.839 1.832 1.245 1.616 1.252.623.65.57.727 1.124 1.855.686 1.51.36 1.365.883 1.863.819 1.732 1.062 2.115.75 1.494.34.996-1.939.29-2.802.426-3.09.47-3.191.481-3.16.481-3.001.46-2.723.413-.83.235.407 1.173-.187 1.234-.54.951-.85 1.177-.39.47-.867.918-.725.65-1.48 1.085-.935.615-.005.56 1.57 2.63.713 1.888.29 1.705-.011.985-.056 2.015-.067 2.397-.112.94.426 1.71-.078 1.333-1.059 1.49-.294 1.463-.534 1.974-.74 2.74-.525 1.438.293.94.264.627.277.85.568 1.274.661.75.37.324 2.18 1.602.901.772 1.382 1.537 1.017 1.018 1.42.235 1.706.392.938.29.65-.145.215-.358-.033-.772-.116-.57.182-.437.577-.291h1.48l.644-.38.51-.112.001 1.686.002 1.616.001 1.961.002 2.252.003 1.846.002 1.963.002 2.263-.01.257-.226.503-.587.18-.794-.437-.044-.459-.195-.828-.37-.425-.482-.134-.814.212-1.115.616-1.434.537-.58.302h-1.01l-1.09-.29-.805-.695-.23-1.04-.705-1.063-.958-1.54-.482-.637-.639-.716-.643-.112-.722-.201-.444-1.052-.412-1.33-.257-.514-.432-.66-.618-.403-1.347-.538-1.885-.738-2.366-.929h-1.126l-1.259-.156-.789-.448-.452-.358-.519-1.294-.71-1.513-2.076-1.801-.466-1.998-.417-.29-.713.156-.552.246-.217.537-.558 1.8-.305.829-.21.235-.452.268-.743.247-1.056.123h-1.491l-1.866-.269-1.007-.201-2.722-.302-.788-.146-1.112-.392-.802-.391-2.641-.85-1.197.111-.582-.604-.521-.29-.717-.572-.32-.783-.427-1.662.1-.895.308-.996-.342-.28h-.479l-.684.347-1.218.19-2.228.437-.79.246-.874.19-.67.168-1.676.963-.58.112-.993-.347-.479-.515.479-.582.206-.716-.343-1.402-.512-.65-1.485-.47h-.568l-.239-.783-.41-.716-.848-.134-.405-.112-.423.224-.24.582-.067.447-.753.336-1.538-.112-1.527-.324-1.074-.112-.714.112-2.724 1.096-.901.146-2.927-.112-1.658-.235h-1.18l-.839.347-1.043.817-.873.436h-.403l-.249-.347-.341-.47-.112-1.223-.434-1.347.286-.705.86-.504.298-1.04-.266-1.565-.022-1.096.232-.638-.312-1.54-.86-2.444-1.214-1.99-1.573-1.536-1.03-1.469-.486-1.404.182-3.36.475-2.965.375-2.352-.112-3.941-1.063-2.565-.233-2.758.599-2.952.09-2.022-.4-1.03-.272-.156-.343-.112-2.688-.112-3.586-.135h-6.519l-.553-.369-.252-.694.01-.682.692-2.088-.1-.168h-1.207l-3.27.336-2.154.335-1.369.112-2.404.57-1.485 1.202-.49 1.511.045 1.245-.078.917-.679.951-.533 1.097-.023.582-.325 2.91-2.217.392h-2.735l-2.74-.694h-1.015l-.873.369-1.676.358-1.605.268-1.615.862-.43.112-1.07-.448h-1.503l-1.516.213-.714.112-.487-.258-1.396-2.17-1.86-2.893-1.007-1.814-.375-.47-.647-.627-.884-1.181-.365-1.124.154-1.063-.52-1.433-1.19-1.808-.784-1.724-.376-1.641-.09-1.407.189-1.17-.23-.862-.645-.56-.353-.705-.256-.29-.537-.672-1.182-.739-1.3-.391-2.855-.007-3.729-.011-3.379.111-3.756.112-3.803.112-1.024.112h-2.902l-2.325-.19-.862-.123-1.513-.112H85.95l-1.293.112H81.27l-.49.202-1.323-.29-1.3.111-.726-.324-1.594.201-.774.269-1.242.928-1.858.482h-.69l-.46-.157-1.083-1.018-.835-.985-.3-.548.466-.135 1.463-.212 1.102-.112.214-.257.17-3.035.034-3.085-.392-.403-.383-.246-.022-.213.574-.392.792-.447.254-.202.88-.816 1.733-1.888 1.318-.46 1.23-.491.172-.18.163-.369h.55l.176.18.27.402.483.56.869.66.878.716.439.112.71-.358.82-.537 1.207-.392.289-.37.158-.782.089-.84.1-.996.247-.134.436-.112.8.28.367.29h.656l.42-.257.766-.492.974-.19 1.043-.47.998-.604h.471l.5.783.444.548.079.336-.446.66-.498.862.42 1.074.1 1.04-.01.627.338.258.231.123.362-.146h.712l.855.325h.827l.8-.403 1.485-1.569 2.173-2.736 1.8-1.716 1.427-.705.966-.817.503-.94.83-.638 1.728-.504 1.319-.57 1.316-1.881 1.754-3.38.49-3.019.3-1.836-.173-6.328-.114-2.078.265-1.134.656-.783 1.787-1.648 1.199-1.35.914-1.58 1.764-3.61.772-1.163.344-.526 1.061-.963 1.487-.839 1.916-.727 2.955-2.513 2.35-2.53-.322-3.038.549-2.518 1.281-3.206.42-3.393-.44-3.576.186-2.923 1.223-3.402.516-1.262.168-2.065-.007-3.289 1.56-4.494 1.475-2.69 1.65-3.01.63-1.82.84-2.43-.132-1.95-.154-2.242.414-3.084-.154-1.816-.586-1.577.298-.996 1.184-.403 1.475-1.576 2.65-4.118 2.852-2.006 1.987-.638 2.07.112 1.35.358.626.65 1.565.973 2.506 1.288 1.871 1.604 1.041 1.62.801.883 1 .303 1.629-.135 1.821.38 1.9.907 1.167.336.432-.235.915.134 2.097.75 1.672-.414 2.475.302 5.752 1.33.307-.223h.136l.49-.537 1.248-2.663 1.057-1.636.492-.615 1.218-.862 1.436-.223 1.377.112 1.151.38 1.052.436 1.167.004 1.192-.425 1.77-.783 1.864-.515 1.603-.56 2.641-.984 1.031-.448 1.312-.179 3.675.895 2.383-.593.971.168 2.06-.638.378-.425 1.31-2.162 1.398-.626 2.112.313 1.187.336 3.957.928 5.137.963 1.51.145.61.112.537-.145 1.684-1.217.574-.168h.483z" transform="translate(0 -662.52)" id="path12" />
    <path style="fill:#fff;fill-opacity:1;fill-rule:evenodd;stroke:#505050;stroke-width:.5;stroke-linecap:round;stroke-linejoin:round;stroke-miterlimit:4;stroke-dasharray:none;stroke-opacity:1" class="polygon" d="m140.188 691.065.132 1.951-.84 2.428-.629 1.82-1.65 3.01-1.475 2.691-1.56 4.495.006 3.29-.168 2.064-.515 1.26-1.223 3.404-.187 2.922.44 3.576-.419 3.393-1.282 3.205-.548 2.52.321 3.039-2.35 2.527-2.954 2.515-1.916.727-1.487.84-1.06.962-.346.526-.772 1.162-1.763 3.61-.915 1.58-1.198 1.35-1.787 1.65-.656.782-.265 1.134.115 2.077.174 6.328-.3 1.837-.49 3.018-1.754 3.38-1.316 1.88-1.319.571-1.729.504-.829.638-.503.94-.966.817-1.426.705-1.801 1.717-2.173 2.736-1.486 1.568-.799.403h-.827l-.855-.325h-.712l-.362.146-.231-.123-.338-.258.01-.626-.1-1.041-.42-1.074.498-.862.446-.66-.079-.347-.445-.548-.5-.784-.47.112-.998.604-1.043.47-.974.202-.766.492-.42.258h-.656l-.367-.291-.8-.28-.436.112-.246.134-.112.996-.09.84-.158.783-.288.369-1.208.391-.819.538-.71.358-.44-.112-.878-.716-.868-.66-.483-.56-.27-.403-.176-.179h-.55l-.164.37-.276-.169-.858-.75-1.01-1.192-.369-.18h-.558l-.882.437-.87.683-1.569.626-1.308.359-.117.436-.306.738-.434.46-1.16.145-.416.66-1.002 1.28-.663.582-.174-.246-.402-.314-.822-.995-.813-1.234-.217-.56-.228-.324-.034-1.24-1.225-1.47-3.068-2.62-.33-.783-2.62-2.397.67-1.726.496-.795.602-.56 2.418-1.351.363.112 1.667 1.757.534.145h.593l.701.112.345-.347.056-.447-.507-.504-.067-.548.356-.593.202-.65.52-.771.056-.359-.55-.391-1.126-.604-.772-.582-.295-.56.211-.716.621-.582-.033-.313-.547-.526-.398-.56-.41-.346-1.133-.213.216-.75.419-1.108.1-.85-.315-2.22.034-.402.31-.201.677.246.68.336 1.853-.482.648-.112.536.426.741.335 4.274-.928.078-.94.245-.85.034-.639-.178-.414-.21-.313-.127-.638-.003-.682.409-.325 1.362-.817h.425l.955.448.894.694.793 1.47.55 1.264.877 1.535 1.864.626 2.224.403 1.204-.112 1.72-1.307.973-1.018.315-.548.567.28.64 1.341.413.515.1.492-.29.616.281.402 1.197.28 1.046-.268.475-.549.783-.716.006-.604-.42-.392v-.537l.436-.425.424-1.154.132-.84.413-.536.785-.37.284-.335.44-1.998-.227-.727v-.604l.496-.761.09-1.252-.21-2.053-.144-1.408-.15-1.475.383-1.94.399-2.02-.067-.503-.553-.615-.682-.56-1.757-.459-.653-.727-.51-.772-.373-.246-1.918-.302-.425-.437.172-1.259.17-1.858-.068-1.293.342-1.04.386-.784.847-.828.45-.973.246-.246 1.606-.157.584-.403.46-.414.193-.56.55-.917.49-.627.056-.425-.1-.582-.488-1.152-.582-.963-.352-.347-.708-2.257-.66-.537-1.282-.29-2.405-.258-1.456.414-2.214.76-1.69.527-1.098.302-.647-.112-.293-.347.427-.29.213-.683-.276-.985-.427-.895-.245-1.265.112-1.572.417-1.475.886-1.917.056-.783h5.363l2.927-.011h2.827l2.205.112 1.061-.493 1.01.75.493.168.168-.112.387.526 1.255-.112.199.123.112.638h1.163l.576.145h.467l.677-.369.487.123.883.481.63.414.88-.134 2.046.112 1.582.392 1.567 1.096 1.046.638.942.94.347-.168.327-.257.185-.112-.01-.806-.528-1.366-.205-1.16.118-.952.398-.682.68-.414.068-.65.008-.111.765-1.53.76-1.522.913-1.77.753-1.462-.1-.728.078-1.085.155-1.206-.033-.717.218-.492.524-1.798.305-1.052.451-.47.7-.336 1.019-.01 2.665-.225 2.486-.47.825-.212 1.562-.75h.6l.515.29 3.01.862.825.336.3-.112.456.112.703.01.688-.112.437.112.555.57.37-.111.483-.414.908-.425 1.748-.47.284.212.605 1.052z" transform="translate(0 -662.52)" id="path14" />
    <path style="fill:#686868;fill-opacity:1;fill-rule:nonzero;stroke:#505050;stroke-width:.5;stroke-linecap:round;stroke-linejoin:round;stroke-miterlimit:4;stroke-dasharray:none;stroke-opacity:1" class="polygon" d="m421.934 867.705.787.683-2.185-.28-.345-.616-.022-.458.815.111zm7.696-2.523.564 1.544-.005 1.164-.239.369-.5-.235-.926-.929-1.76-.906.807-.112.472.112.5-.112.312-.504.067-.302.44-.246zm-11.308-2.018-.213.145-1.021-.637-.584-.157-.858-1.03.33-3.577.274-.459.206-.19.476-.112.576.448-.152 2.3.764 1.548.492 1.226z" transform="translate(0 -662.52)" id="path16" />
    <path style="fill:#686868;fill-opacity:1;fill-rule:evenodd;stroke:#505050;stroke-width:.5;stroke-linecap:round;stroke-linejoin:round;stroke-miterlimit:4;stroke-dasharray:none;stroke-opacity:1" class="polygon" d="M361.987 568.532h.816l3.442-.65 2.055-1.169.315-.459h.564l.685.515.258.493.441.649.807.111 1.97-.47.958-.28.817.236 1.042.19h.651l1.555.649 1.869-.213h.878l.905.28 1.473 1.04 1.917 1.264 2.743.907.566.369 1.326 1.438 2.056 2.764 2.692 2.644 2.933 2.088 1.567 1.447 1.057 1.769 1.037 1.606 1.056.693.981.549 1.015 1.225.726 1.03.992 1.161-1.098 1.59-1.469 2.129-1.714 2.482-.518.615-1.5 1.5-.257.425-.293 1.085-.022 1.973.194 2.519.182 2.32.827.28.954.167 1.06-.302 1.276-.257 1.588-.157 1.757-.47 1.036-.38h1.089l.965.402.467.37.684.123h.88l-.186.436-.485.638-.594.638-.522.66-1.159 1.852-.033.235.143.358.627.85.654 1.367.366 1.256.282.605.793.693 1.145 1.435.606.962 1.261.515.412 1.229.948 1.802 1.02 1.442.987 1.128 1.102.436h.441l2.308 2.088 1.757 1.59.438.256 3.171 1.041 3.646 1.196 2.926.963 3.73 1.224 3.677 1.206 3.444 1.155 4.843 1.621 3.902 1.307 3.075 1.03.657.324h11.189l-2.758 2.66-3.12 3.01-3.28 3.162-2.11 2.034-3.35 3.232-2.785 2.685-2.866 2.939-2.594 2.656-3.373 3.682-2.183 2.381-3.42 3.735-2.152 2.346-.324.134-3.077-.18-2.989-.167-3.82-.224-.44.005-1.112.224-.674.213-2.749.626-.506.168-2.286 1.007-2.33 1.185-1.228.907-.952 1.32-.405.94-.427.414-.727.358-4.884.895-1.418.123-2.286.717-1.217 1.192-.352.605-1.637-.011-2.862.179-1.225.19h-.598l-1.098-.004-.901-.213-.595-.324-.743-.728-1.658-1.487-1.202-.929-2.647 1.063-2.38 1.064-3.378 1.508-1.924 1.074-.58 1.086-1.487 1.974-1.328 1.215-.497.145-3.01-.257-1.087-.246-1.796-.224-2.406-.425-1.62-.46-1.75-.111-2.533-.157-1.557-.335-1.58-1.097-2.037-1.32-2.097-1.357-2.16-1.397-2.55-1.608-2.786-1.756-.642-.18h-.275l-3.028-.111-3.146-.112h-2.126l-.67-.201-.485-.403-.66-1.298-.83-.929-.923-1.18-.078-1.594.258-1.736.235-.57-.132-.57.034-.784-.52-.728-3.092-.839-.5.112-.515.313-.589.224-.422-.212-.256-.314-.008-.514.056-.38-.178-.214-.985-.783-.923-1.03-.56-1.137-.54-.93-.275-2.09-.684-1.283-.669-1.571-.995-2.996-.432-1.03-.804-.693-.85-.649-.878-1.327-2.295-1.168-.883-.918-1.523-1.58-.382-.794-.111-.795-.476-.75-.845-.839-2.644-1.806-.729-.213-.948-.19-1.387-.179-1.862-.414-1.624-.705-.74-.503-.176-.347.154-.582.588-.996 1.12-2.357.771-1.626.524-.458 1.436-.112h1.52l1.114.123h1.57l1.882-.134.743-.549.594-.593.243-.414.079-1.052-.002-.85-.119-3.24-.067-1.983-.078-2.266.01-.447.012-.582.459-2.42.434-1.383.293-.728 1.189-2.307.22-.739.045-.682-.438-3.096.764-1.46.979-1.446.857-.615.715-.414.335.179.819.671 1.077.66.503-.145.74-.57.549-.605-.078-1.085.494-2.235-.09-1.287.529-1.601.58-2.25.258-1.425.331-.76 1.568-1.573 1.347-2.221.86-1.623 1.64-2.648.828-.963.675-.414 1.007-.268 1.87-.235 1.341-.224.198-.347.114-.537.022-1.185.258-2.038.583-1.99.686-1.507.372-.682.442-.66.496-1.12.631-2.416-.033-1.638.9-3.003h.202l1.53-.548 1.486-.112 1.441.38.938.112.437-.19.401-.504.372-.805.587-.448.807-.112 1.08.906 1.718 2.417.442.146h.273l.864-1.942.671-1.506 1.252-2.812.715-1.609.664.47.661.817.755.38.806.235h.393l.497.325 1.74 2.005z" transform="translate(0 -662.52)" id="path18" />
    <path style="fill:#fff;fill-opacity:1;fill-rule:evenodd;stroke:#505050;stroke-width:.5;stroke-linecap:round;stroke-linejoin:round;stroke-miterlimit:4;stroke-dasharray:none;stroke-opacity:1" class="polygon" d="m80.693 705.8-.056.784-.886 1.917-.418 1.475-.1 1.572.245 1.265.427.906.276.985-.213.682-.428.291.294.347.646.112 1.1-.302 1.689-.526 2.214-.761 1.456-.403 2.405.257 1.282.291.66.538.708 2.257.352.346.582.963.487 1.152.1.582-.055.425-.49.627-.55.918-.193.56-.46.413-.584.403-1.606.157-.246.246-.45.973-.847.829-.386.783-.342 1.04.067 1.293-.17 1.859-.171 1.259.425.436 1.918.313.373.246.51.784.653.727 1.757.459.682.56.552.615.068.503-.399 2.02-.384 1.94.15 1.474.145 1.41.208 2.051-.09 1.252-.495.761v.605l.227.727-.44 1.997-.284.336-.786.37-.413.537-.132.839-.424 1.153-.435.426v.537l.42.391-.006.605-.784.716-.474.548-1.046.269-1.197-.28-.28-.403.29-.615-.102-.493-.413-.514-.64-1.342-.566-.28-.315.548-.974 1.019-1.719 1.307-1.204.112-2.224-.403-1.864-.627-.877-1.534-.55-1.264-.793-1.47-.894-.695-.955-.447h-.425l-1.363.817-.408.324.003.683.126.638.21.313.178.414-.033.638-.245.85-.078.94-4.274.929-.741-.336-.536-.425-.648.112-1.853.481-.68-.336-.678-.246-.31.202-.022.403.316 2.218-.101.85-.419 1.109-.216.75 1.134.212.41.347.398.56.546.525.033.314-.62.582-.212.716.295.56.772.581 1.127.604.55.392-.057.358-.52.772-.202.65-.356.592.067.549.507.503-.056.459-.345.347-.701-.112h-.593l-.534-.145-1.667-1.757-.363-.112-2.418 1.352-.602.56-.496.794-.67 1.726-1.1-1.007-.949-1.84-1.104-1.128-2.325-1.827-.62-1.343-2.66-2.964-3.822-2.963-2.76-2.571-.418-.571.465.112 2.667 1.282.363-.145.308-.291-1.152-.672-1.1-.526-1.032-.335H40.21l-.58-.549-.375-.828-.19-.705-.457-.738-1.466-1.524-.354-.593-.802-.806.488-.112 1.57.772.14-.302-.135-.448-1.578-.727h-.857l-.198-.515.116-.593-1.129-2.222-1.171-1.663-.185-.783 3.162 3.615.423.112h.556l1.31-.403-.25-.48-.59-.516-.573.235h-.744l-.39-.212-.175-.37.744-1.755-.322.112-.238.313-.408.145-.631.112-1.557-.94-1.374-2.539-.363-.526-.368-.884-.36-.369-1.58-3.609.605.269.719 1.04 1.399-.223.546-.604h.477l.488-.135.616-.57 1.792-2.486.474-3.278-.154-1.949-.262-1.932.593-.616.234.403.116.683.28.503.638.46 1.188.122 1.836.717.653.458.178-.906 2.112-.772-.637-.28-1.878.302-2.576-1.157-.854-.738-.798-1.397-.828-.727.056-.66 1.85-.605.489.112.198.728.497.29.189-.111.078-.616.007-1.654-.566-2.371.173-.459.507-.168.45-.313.315-.112.626.112.314.548.17.303.632.145.52.29.446-.111.37-.347.545-.112 1.683.004 1.528.005 3.041.01 3.04.01 3.041.01 2.291.007-.008-1.355-.01-2.09-.012-2.471-.011-2.37-.012-2.19-.01-2.59.125-.739.15-.313-.056-.425h2.356l4.26.19h2.392l2.326-.135 1.885.168.801.18.721.111 2.258.112 2.947-.145h1l.555.358z" transform="translate(0 -662.52)" id="path20" />
    <path style="fill:#fff;fill-opacity:1;fill-rule:nonzero;stroke:#505050;stroke-width:.5;stroke-linecap:round;stroke-linejoin:round;stroke-miterlimit:4;stroke-dasharray:none;stroke-opacity:1" class="polygon" d="m58.773 717.447.008 1.354-2.29-.006-3.042-.01-3.04-.01-3.041-.01-1.528-.005-1.683-.005-.545.112-.37.347-.447.112-.519-.29-.632-.146-.17-.302-.315-.549h-.94l-.45.314-.508.167.101-.257-1.002-.671-.722-.112-.665-.213.538-1.758.674-1.554 1.007-1.174.535-.28.173-.582.797-1.914.987-1.553-.305-1.576.236-2.643.284.112.045.246.078.37.372.324 1.228.503h3.66l2.185.001 3.23.001 3.42.001h2.598l.012 2.592.01 2.19.012 2.37.011 2.47zm-29.082-29.514h1.95l.455.593-.056.873-1.722 2.542-.322 1.074-.665.907-.579.111-1.985-.537-.336-.324-.119-.437.196-1.018.144-.313.954-.19.306-.168.51-1.097.166-.996.428-.75zm360.976 66.207-.415.113.213-.65 1.227-.816.499.19.1.19-.022.168-.21.168zm-63.86-84.399.422.213.589-.224.515-.314.5-.111 3.092.839.52.727-.034.795.132.57-.235.571-.259 1.734.079 1.595.923 1.18.83.928.66 1.298.484.403.671.202 2.126.111 3.146.112 3.028.112h.275l.641.18 2.787 1.755 2.55 1.608 2.16 1.398 2.097 1.357 2.037 1.32 1.58 1.097 1.557.336 2.532.156h1.75l1.62.46 2.407.424 1.796.224 1.088.246 3.01.258.496-.146 1.328-1.216 1.486-1.974.58-1.085 1.925-1.086 3.378-1.508 2.38-1.063 2.647-1.063 1.202.928 1.657 1.488.743.738.596.325.9.212 1.098.005h.599l1.225-.19 2.862-.179h1.637l-1.377 1.97-1.65 2.363-3.04 4.352-2.315 2.288-1.748 1.731-.16.313.006 1.928.022 4.716.034 9.43.033 9.43.034 9.432.022 4.714.005 1.584 1.534 1.983 1.5 1.936 1.982 2.563 1.062 1.374.176.459-.056.917-1.632 1.922-1.337.872-1.797.414-.538-.111-.708-.28-.277.459-.208.716-.399-.146-.3-.212.18 1.274.184.627-.27.85-.873.739-.079.626-1.891 1.647-2.682.179-1.41.816-.628.672-.477 1.462.166 2.24-.745 1.725-.142.862-1.385 1.12-.614 1.03-.453 1.04-.395.459-.468 2.34-.645 1.423-.175.47-.159.425-.5.84-.324.57-.233.38-1.636 3.644-1.276 1.646-1-.19-.665.638-.067.302-.353-.168-.836-.604-1.718-1.238-1.718-1.236-1.718-1.238-1.718-1.235-1.718-1.238-1.717-1.237-1.718-1.237-1.718-1.237-1.007-.727-.446-.425-.349-.85-.169-.213-.457-.269h-.539l-.155-.157.005-.414.187-.593.63-1.135.068-.672-.124-.76-.198-1.214-.171-.28-1.138-.637-2.386-1.332-2.386-1.332-2.385-1.331-2.386-1.332-2.384-1.331-2.387-1.332-2.384-1.33-2.385-1.333-2.385-1.332-2.386-1.331-2.384-1.332-2.386-1.333-2.385-1.33-2.386-1.332-2.386-1.332-2.384-1.331-.896-.504-.808-.425h-.853l-.033-1.907.273-4.854-.034-4.262.243-2.135 1.052-1.35.486-.986.348-1.373.55-1.119 1.25-.906.223-.504 1.323-1.523.794-1.956.598-.66.747-.615.528-.325.868-.324.68-.18.124-.156.056-.313-.226-1.212.29-.403.464-.806.53-.75.48-.48.269-.493.125-.85.022-.605-.007-.984-.15-2.244-.561-1.878-.347-2.1.255-.694-.442-1.23-.218-.113-.36-.268-.46-1.16-.346-1.063-.215-.268-1.5-.929-.746-2.185-.836-.481-.454-2.171-.09-.616.475-2.166-.045-.493-.501-.458-1.408-.47-1.142-.896.148-.313.079-.324-.601-.213-1.745-3.704 2.246-2.226 2.275-2.254 2.906-2.853 2.669-2.62 2.306-2.263 2.058-2.019-.056.38.008.516z" transform="translate(0 -662.52)" id="path22" />
    <path style="fill:#fff;fill-opacity:1;fill-rule:evenodd;stroke:#505050;stroke-width:.5;stroke-linecap:round;stroke-linejoin:round;stroke-miterlimit:4;stroke-dasharray:none;stroke-opacity:1" class="polygon" d="m253.505 1066.83-1.007.28h-.14l-.646-.112-.863.112-.677.157h-.526l-.858.794-1.558 2.142-.415.448-.116.839-.361.671-.443.515-.433.123-1.302-.212-1.664-.269-.968-.649-.86-.85-.455-.616-.475-.336-.164-.19-.677-.28-.256-.145-.225-.112-.273-.414-.161-.358.067-.996-.478-.593-.815-1.007-.517-.828-.706-1.131-.434-.963-.447-1.007.056-.425.428-.291 1.256-.504.975-.391.697-.716.762-1.063.37-.638.37-.291.404-.448.706-1.007.785-1.108.84-1.196 1.061-.347 1.45-.403 1.393-1.04 1.659-.885 2.677-.95 1.248-.247.474-.134.301.179.32.548.454.46 1.056.793.447.19 1.091 1.18 1.167.806 1.344.929.914.459.465.134.387.828.392.615.222.57-.045.56-.424 1.368-.62 1.397-.495.582-.605.37-.592.548-.226 1.121-.268 1.32-.772.548-.6.358-.83.436z" transform="translate(0 -662.52)" id="path24" />
    <path style="fill:#fff;fill-opacity:1;fill-rule:nonzero;stroke:#505050;stroke-width:.5;stroke-linecap:round;stroke-linejoin:round;stroke-miterlimit:4;stroke-dasharray:none;stroke-opacity:1" class="polygon" d="m490.728 919.133-1.258 2.055.354-1.717 1.458-2.47.415-.19zm-17.84-39.602.012.402-1.473-.167-.232-1.403h.72l.158-.57.439-.112.472 1.245zm13.385-10.426.513 1.17.6 1.124 1.87 2.713.801 1.041.683 1.108.332 2.215 1.189 3.444 1.123 5.173.345 5.306.345 2.435.874 2.292 1.43 2.378.463 2.644-.874 2.725-1.265 2.567-.327.48-.596.661h-.269l-1.013-.66-.828-1.086-1.05-2.554-.38-1.296-.44-.202-1.227.112-.888.806-.162.504.191 1.44.337 1.296.15 1.313.022 1.655.33.504.488.425.505 1.085.09 2.58-.31 1.306-.866 1.119.056.615.32.638-.306.38-1.151.482-.467.425-.623 1.138-1.01 2.324-.136 1.187.632 3.612-.176 2.563-1.287 4.899-.738 2.324-1.046 2.779-1.604 3.662-1.589 4.598-1.349 4.73-.998 2.843-1.133 2.8-1.55 4.952-1.318 5.024-1.957 5.53-2.701 6.164-.292.805-.561 3.15-.607 2.732-.724 2.707-1.514 4.472-.172 1.38-.344 1.323-1.459 2.804-.616 1.04-.437 1.108-.245 1.406-.435 1.356-1.069 2.495-1.593 2.146-1.083.783-2.346 1.131-1.19.235h-2.635l-2.552.65-2.66 1.241-2.56 1.423-.98.671-1.081.38-3.382.113-1.013-.303-3.383-2.337-1.31-.38-2.484-.325-.751-.202-.68-.302-1.005-1.222-1.993-1.03-.479-.324-.303-.716-.207-.772-.516-.862-.382-1.634-.65-1.144-1.835-2.02-.196-.649-.148-2.143.056-1.45-.179-2.655.208-1.25.644-1.125-.263-1.217-.684-1.28-.257-1.324-.505-1.206-1.921-2.172-.451-1.063-.312-1.107-.724-3.45-.09-1.2.1-2.541.268-1.307.467-.907.116-.682.304-.582.456-.47.306-.56.717-3.247.91-.727 1.348-.414 1.081-.85.621-1.147.621-2.36 1.7-2.346.606-1.232 1.37-1.862 1.214-2.62.369-1.236.264-1.266.307-2.773.232-1.38-.045-1.367-.697-1.405-1.653-2.55-.056-.482.13-1.896-.14-1.371-.609-1.366-.782-1.287-.769-2.407-.374-3.977.079-1.44-.225-1.276-.56-1.219.4-2.124 4.947-7.71.16-.906-.198-2.352.1-1.367.173-.504.377-.29.847-.146 3.998-.336.514-.235.998-.65 1.372-1.256.627-.358.542.134.347.538.445.29 1.613-.57h.621l.631.112.297-.526.177-.705.235-.493.433-.28 2.078-.156 1.325-.201 1.714-.493.37.112 1.382 1.765.42.157.537.111.47-.324-1.123-.918-.169-.526.056-.593.601-1.27 1.006-.974 2.234-1.473 2.32-1.704.673-.123.571.268.438 2.009-.056.336h.37l.433-.247.383-.805.022-.672-.311-.649-.152-.548-.011-.504 1.175-1.186.927-1.134.429-1.353.371-.627.975-.705.287.112.227.57.127.605-.25.604-.358.593-.144.795.55.156.519-.19.76-1.431.865-1.354.515-.705.65-.492 1.078.112 1.048.302-1.708-1.43-.427-1.958 2.035-3.386.022-.705.294-.212.138-.269-1.053-1.145-.2-.57.14-.862.503-.76.457-.538.649-.201.516.29 1.132.94.763.146.922-.906.754-1.126 1.134-.772 1.287-.481 1.959-1.774 1.274-3.712.1-1.085-.281-1.314-.452-1.248-.756-1.557.197-.347 1.071.201.36-.212 1.163-1.38 1.917-2.643.632.006.544.492.203.728.378.537 1.296 1.254z" transform="translate(0 -662.52)" id="path26" />
    <path style="fill:#fff;fill-opacity:1;fill-rule:evenodd;stroke:#505050;stroke-width:.5;stroke-linecap:round;stroke-linejoin:round;stroke-miterlimit:4;stroke-dasharray:none;stroke-opacity:1" class="polygon" d="M299.935 1030.434h-5.96l-1.722-.313-.97.111-.08-3.575-.312-.783-.332-1.148-.078-.739.208-.738.1-1.174-.089-1.03-1.03-.515-.226-.167-.223-.806-.09-1.247.72-1.589-.056-3.049.09-1.074-.012-2.122-.01-2.571-.012-2.303.033-1.987-.214-.94-.18-.515-.476-1.052-.556-2.193-.657-1.656-.846-1.097-.269-.582-.273-.772-.8-1.357-.654-.795-.178-.626.022-1.638-.727-2.94-.53-2.144-.799-2.322-.536-1.556-.078-.268-.056-.593 1.585-1.155 1.588-1.626 1.86-1.903 1.66-1.7 1.458-1.494 1.997-2.043 1.973-2.021.462-.258.195-.168-.853-1.796 1.372-2.086.078-1.356-.056-1.298.165-.593.413-.526 1.603-1.085 1.212-1.73.993-1.615 1.378-2.6.136-.615.022-.626-.382-.873-.92-1.426-.668-1.228-.594-1.897.597-1.648.212-.996-.002-.537-.264-.515-.671-.38-.556-.258-.188-.683-.005-.805.255-.448 1.483-.727.336-.392.176-.436.011-.627.457-1.569.566-1.49.034-.526-.2-.459-.156-.84-.101-1.267-.01-3.553.292-3.67-.127-2.08-.952-2.393-.09-1.725.69-1.204.114-.717-.504-.112-1.038-.111-.766-.224-1.186-.985-2.058-.828-2.335-.75-3.395-.224-2.823-2.4-2.213-.381-.712-.303-2.126-1.44-3.328-.134-3.454-.134h-2.152l-.318-.19-.125-1.987-.023-1.764-.181-1.536-.328-1.746-.502-.683-.599-1.183-.304-1.301-.034-.627.113-.224 2.398-.928 1.025-.46 1.518-.525 2.705-.739 2.414-.66 2.212-.638 2.343-.682.953-.448 1.185-.459 2.833-.917.81-.314 1.628-.514.815-.202 3.138-1.04 3.595-1.199 1.26-.425 2.402-.806.468.336 1.638 2.756 1.29 1.62 1.468 1.5.245-.112.423-.347.73-.145 2.333-.336h.89l.587-.403 1.196-.29 1.385-.169.475.18 1.458 1.938.212 1.484.303 2.144.067 1.052-.022 1.399-.165 1.75-1.184 2.012-.226 1.007-.635 1.55-.839.76-.413.627.022.65.448.548.981.985.304.637-.09.571.004.761.234.537.279.313.971.504.947 1.258 1.634 1.517 1.954 2.162.917.66.722.157.36.727-.2.84-.563.48.231.694.318.359.353.179h.859l.797-.146.2-.246-.1-3.235-.576-1.887-.576-.738-.124-.146.202-.615.644-1.45.545-1.434.346-.604.403-.37 2.695-.391 1.226-.336.52-.414.401-1.119.321-3.114.116-2.925-.28-1.717.388-2.583.59-1.6-.291-.313-.218-2.158-1.754-2.298-2.26-2.96-1.261-1.593-1.436-1.81-2.614-2.836-1.198-1.03-.63-.402-2.113-.325-.56-.548-.536-.873-.201-1.61-.034-1.204-.238-2.047-.43-2.898-.19-.85-.602-2.18-.574-2.074-.033-.515.203-.492.973-1.527.692-1.086.326-.593.585-1.611.138-.784.459-.358 1.868-.145h3.985l2.637.112.37.112.593.168h.671l.746-.224.824-.56.904-.884h1.41l1.911.929 1.044.806.177.682 1.28.403 2.383.112 1.737-.358 1.088-.828 1.137-.437h1.189l.898.28.613.616 1.169.436 1.729.269 1.889-.392 2.049-1.052 1.17-1.108.288-1.15.339-.694.39-.246 1.087-.145h1.782l1.551.358 1.977 1.142 1.248-.76 2.142-1.303 2.157-.694 2.053-.004 1.685-.492 1.316-.985 1.391-.627 1.465-.268 1.373-.47 1.92-1.03 1.987-1.492 2.028-1.52 1.299-.974.594 1.153 1.063 1.052-.633.615-.767.548 1.237.728-.907 1.108-.112.772.23.302.199.447-.595 1.268-.787.974-.204.738.697 1.314-.358 2.326.677 2.094.19 1.074.235.717-.337 1.284.09 2.165.157.896-.403 1.107.685.38.363 1.22-.1 1.375-.21.738-1.183.895-.14.347.022.526h1.477l.056.817-.101.638.056 1.21-.197.784.347.895-.423.996.146.772.023.996.343 2.515.056 3.11.079.492.526.347.74.179-.034.85-.818 1.108-.045.694.119.973.901-1.32.54.006.484.515-.067.76.166.38-.067.74.267.94-.1.816-.663.571-.843.973-.149.918.079.604-.583.19-.273.37.396.861-.022.761-1.03 2.378-2.743 3.251-1.184 1.154-1.11 1.255v.515l-.111.448-1.294 1.792-1.386.291-.77.481.601 1.58-.896.368-1.557 1.245-4.287 2.386-.678.548-1.09 1.465-1.436.358-.798.414-1.423.156-.495-.112h-.486l-.41.314-2.826 1.03-2.639.816-.649.37-.433.503-2.336.806-3.66 1.986-2.997 1.894-2.17 1.895-.572.29-.674.661-.225.974-.22.548-1.605 1.995-2.417 2.36-.47.649-.96 1.311-.09.862-.856.257-.72-.816-.305 1.585-.587.112-.651-.324-1.622.783-1.414.906-2.265 1.908-3.2 3.693-4.671 3.567-.638.112h-.431l-1.47-1.24-.801-.113.717.739.474.615-.12 1.203.056 1.805-.581 3.51.078.772.668.996 1.257 1.218 1.178 1.515 1.514 4.353.116 2.24 1.563 2.86.056 1.24.63 3.084-.044 2.495-.112 1.527.753.649.278-.582-.079-.962.202-1.55.42-.694.418.112.124.727.282.65.114.604.022.828-.58 3.145.174 1.28.78 2.138-.907 2.485-1.315 5.848-.067 1.007.318.436.708.146.26-.75.415.01.218.448-.585 2.698-.578 1.183-2.05 2.9-1.106 1.243-1.834 1.222-4.306 1.91-8.63 2.76-3.424 1.353-2.044.806-4.322 2.568-1.891 1.722-.779 1.975-.746.907-.732 1.145.638.985.628.75.74.492.383.425.502.303.506-1.547.25-.481h.432l-.239 1.888-.496 6.47zm19.643-166.012-.194-.325-.367-.156-.419.123-.139.403.436.525.462.008zm.87 1.085.299-.246.114-.324-.003-.314-.19-.201-.269-.112-.393.112-.138.436-.056.593.247.202z" transform="translate(0 -662.52)" id="path28" />
    <path style="fill:#fff;fill-opacity:1;fill-rule:nonzero;stroke:#505050;stroke-width:.5;stroke-linecap:round;stroke-linejoin:round;stroke-miterlimit:4;stroke-dasharray:none;stroke-opacity:1" class="polygon" d="m320.448 865.507-.394.112-.247-.201.056-.593.139-.437.393-.112.268.112.19.202.003.313-.115.324zm-.87-1.085-.22.593-.463-.008-.435-.526.139-.403.418-.123.367.157zm-14.666-27.914 1.007.996.525.134.669-.134 1.903-.112.767.146.985.582.388.112h.616l.112-.157.068-.347-.112-.694.14-.38.374-.403 1.041.47 2.6 2.167.078.28 1.658 2.152.54.906v.482l.51 1.88.114.883-.116.672.023.537.201.772-.067.325.592 1.124.283.94.056.918-.165.895-.522 1.313-.09.525.114.482.338.526.564.56.426.682.287.794.243.358.303-.007.556.123.448.47.52.784.174.895.078.38h-1.487l-1.869.146-.459.347-.137.783-.585 1.611-.326.593-.693 1.086-.972 1.526-.204.493.034.514.574 2.075.6 2.18.192.85.43 2.898.238 2.047.034 1.204.2 1.61.537.873.56.548 2.114.325.631.403 1.198 1.03 2.614 2.835 1.436 1.81 1.26 1.594 2.26 2.958 1.754 2.299.219 2.158.292.314-.591 1.598-.387 2.585.278 1.715-.116 2.925-.321 3.115-.402 1.12-.52.413-1.225.336-2.695.392-.403.37-.347.603-.545 1.435-.643 1.449-.203.615.125.146.576.739.575 1.885.1 3.236-.2.235-.796.146h-.86l-.352-.18-.318-.357-.232-.694.563-.481.2-.84-.36-.727-.722-.157-.916-.66-1.954-2.163-1.635-1.516-.946-1.258-.972-.503-.278-.314-.234-.537-.004-.76.09-.572-.304-.637-.981-.985-.448-.548-.022-.65.413-.626.839-.761.634-1.55.227-1.007 1.184-2.013.163-1.749.023-1.399-.067-1.052-.304-2.144-.21-1.483-1.458-1.94-.475-.18-1.385.168-1.197.291-.586.403h-.89l-2.333.336-.73.145-.423.347-.245.112-1.468-1.5-1.29-1.619-1.639-2.757-.467-.336-.601-.805-.497.2-.685.572-.37.156h-.193l-.12-.145-.154-.358-.53-1.041-.593-.75-.63-.29-.513-.348.226-.335.24-.235-.101-.246-.288-.358-1.115-.515-.023-.224.985-.448.623-.537.423-.514.536-1.12.436-1.118.324-.359.113-.738-.067-.84.216-1.062.112-1.008-.33-.391-.279-.672.331-1.152.52-.795 2.482-.828 1.73-.75.365-.324.588-.638.325-.626-.234-.19-1.358-.012-.335-.235-.982-2.19.544-2.51.044-.985-.01-1.222-.175-.896-.429-.38-.264-.481.067-1.312.399-.156.863-1.733.384-1.018-.46-.817-.508-1.164-.229-.738-.128-.246.352-.46.583-.447.651-.123.69-.212 2.174-2.156.022-.414-.395-.716-.811-1.085-.18-.448-.1-1.308-.323-.392-1.192-.884-.918-.928.286-.94.156-1.03-.453-.56-.677-.581-.418-.862-.19-.638-.534-.257-.487-.008-.359.392h-.388l-.468-.135-.155-.548-.022-.593-.323-.403-.31-.56-.033-.301.195-.112.41-.112 1.75 1.128 1.062.112z" transform="translate(0 -662.52)" id="path30" />
    <path style="fill:#fff;fill-opacity:1;fill-rule:evenodd;stroke:#505050;stroke-width:.5;stroke-linecap:round;stroke-linejoin:round;stroke-miterlimit:4;stroke-dasharray:none;stroke-opacity:1" class="polygon" d="m193.568 927.388 2.398-.459 2.286-.436 2.66-.437 2.128-.346.535-.112 5.125.414 2.233.29.775.28 1.012.739 1.864 1.78-.479-.112-3.434.38-1.308.482-2.928 2.105-.623-.269-.702-.436-.595-.123-1.287.503-1.283.605-1.418.861-1.167.84-.381.447-1.833 1.732-.596.28-.532.123-.214-.112-.228-.738-1.123-1.74-1.803-2.279-.527-.223-.36-.112-1.337.112-3.885.649-3.275.548-5.02.929-5.39.75-3.326.458-2.892.134.002 2.258.007 4.565.006 4.564.006 4.565.007 4.565.006 4.565.007 4.564.006 4.565.006 4.566.002 1.99-.09.425h-11.118l.003 2.713.003 3.208.003 3.207.003 3.207.004 3.207.004 3.208.003 3.207.003 3.207.003 3.208.003 2.42v41.397h-1.149l-2.309.605-1.473.794-.637.974-.847.593-1.057.212-.467.493.126.783-.408.604-.94.414-1.519-.123-2.096-.66-2.667-.157-3.24.347-2.329-.157-1.417-.67-1.505-.381-1.592-.112-.923-.28-1.89-.503-.36-.862-.222-.65-.538-.693-.056-.56.422-.425.056-.682-.303-.94-.523-.46h-.74l-.462-.357-.18-.739-.437-.56-1.043-.57-1.376.436-.65.65-.38 1.018-.349.515-.174.85-.079.604-.354.638-.366.258-.376-.112-.709.257-1.556.951-.443.504-1.259-.907-3.67-3.41-1.3-.883-1.923-2.09-4.225-6.483-.603-1.248-.804-3.132-.928-2.322-.1-1.34.441-.76-.27-1.03-.476-.917-1.442-1.205-.408-4.028-.962-2.601.207-2.15-.46-1.958-.045-1.256.208-2.386-.773-2.743-1.567-2.685-1.414-3.873-.204-1.696.151-4.56-.273-1.86.011-2.187-.56-2.268-.229-1.236.394-.974.233.314.407.145.271-1.3.067-1.15-.707-2.835-1.577-2.9-3.9-4.726-.954-1.801-.545-1.493-4.35-6.227-1.86-4.396-1.299-3.796-1.413-1.75-6.533-12.325-1.45-1.967-2.607-2.352-.61-.783-1.005-2.24-1.963-3.007-.475-2.806-.132-3.18.24-2.436 1.784-.257 1.247-.649h1.123l1.108.504h1.176l.457-.112 2.113.112 1.213-.582 1.44-.582.828-.515 1.163-.526 1.544-.537h.876l1.077.201 1.433.202.809.358.959 1.132 1.484 1.03 1.093.615 1.255.806.379.313.552.168h.337l2.332-.123 2.114-.112 2.274.003 4.281.006 4.282.006 4.281.005 4.282.005 4.281.006 4.282.006 4.281.006 4.28.006 1.752.002h6.278l.356.112.36.213.294.201 1.136 1.423 1.454 1.491 1.207.705 1.447.414 1.356.157 1.264-.112 2.1.19 2.935.481 3.049.146 3.161-.202 2.223.269 1.283.727 1.314.492 1.348.258 1.821-.157 2.296-.56 1.952.113.905.414h.54l3.374-.593 2.712-.482 4.067-.76 3.354-.627 4.971-.929zm79.777-185.457-.368.18-.078.536.424.862 1.386 1.783.881.324.577.694.564 1.168.166 1.462-.232 1.756.138 1.307.51.862.133 1.108-.242 1.366-.294.817-.348.269-.394.111-.534-.111-.651.111-.709.258h-.444l-.276-.112-.523-.213-.825-.705-1.538.392-.416-.008-.566.336-.458.414h-.28l-.284-.112-1.326-.828h-.484l-.2 2.34-.221 1.298-.273.582-.95.559-.955.313h-.522l-2.1.18-.822.001-.452-.19-.59-1.326-1.113-.593-1.069-.28-.435.112-.387.694-.16.627-1.037-.426-.31-.526-.023-.895-.378-1.218.21-.515.406-.336.86-.638 1.309-.895.28-.425.185-.705-.078-1.647-.125-1.391.155-.492.597-1.075.8-1.096.935-1.165.563-.112.739-.436.78-.65.44-.246.365-.007 2.414-.582.24.18.39 1.12.206.156h.337l.677-.257 1.242-.873.542-.537.638-.75.815-.839.454-.739.444-.436.582-.134h.645z" transform="translate(0 -662.52)" id="path32" />
    <path style="fill:#686868;fill-opacity:1;fill-rule:evenodd;stroke:#505050;stroke-width:.5;stroke-linecap:round;stroke-linejoin:round;stroke-miterlimit:4;stroke-dasharray:none;stroke-opacity:1" class="polygon" d="m311.942 619.82-.72 1.428-.233 1.018-.067.85.044.493.079.313.033.112h.067l.034.011 2.08.007h.01v0l-.01.448.078 2.266.067 1.983.118 3.238.002.85-.079 1.053-.244.414-.593.593-.743.548-1.883.134-1.569-.011-1.113-.123h-1.521l-1.436.112-.524.459-.772 1.627-1.12 2.356-.588.996-.153.582.176.347.74.503 1.624.705 1.861.414 1.388.18.948.19.728.212 2.645 1.806.845.84.475.75.112.794.382.794 1.523 1.58.883.918 2.295 1.168.877 1.327.85.65.805.693.432 1.03.995 2.995.67 1.57.683 1.285.275 2.09.54.929.56 1.138.923 1.03.985.783.178.212-2.058 2.019-2.307 2.264-2.668 2.62-2.906 2.85-2.275 2.256-2.247 2.226-2.624 2.629-1.937 1.942-.323.28-.562.358-1.847.007-1.905-.224-1.755-1.18-1.78.917-1.13.291-.675.112-1.59.146-2.228.492-1.009.615-.546.482-.452.895-.227.112-.409-.112-.573-.358-1.19-.515-.6-1.136-.555-.682-.454-.358-1.893 1.132-.914.269h-.752l-1.371-.638-1.516-.537-.779.003-1.167.682-1.327 1.019-.685 1.007-.332.593-.242-.481-.223-.448-.444-.57-.641-.225-.585.112-.681.112-.306-.324-.067-.784-.185-.716-.32-.548-.98-.537-2.527-1.097-1.942-2.19-.978-1.018-.714-.66-1.01-1.721-1.153-1.185-1.397-.549-.922.269-.949 1.269-1.79 1.192h-.821l-1.052-.65-1.321-.458-2.376-.202-.98.571-1.283.918-1.089.548-.675.112-.629-.213-.714-.112h-.617l-1.27-.839-.658-.615-.439-.593-.717-.403-.84-.336-.598-.526-.299-.649-.472-.84-.616-.76-1.938-1.36-.58-.806-.401-.784-.794-.861-.847-1.156-.27-1.691-.034-1.363-.176-.627-.359-.626-.417-.537-.678-.605-1.58-.873-1.63-1.018-.785-.593-1.485-.213-.889-.581-.747-1.273-.301-1.018-.752-.794-.322-.571-.179-.66.596-2.015-.865-.716-1.29-.929-.922-1.007-.564-.928-1.651-1.228-3.607-1.833-2.08-1.171-1.14-1.052-.993-1.03-.101-.425.641-1.03.1-.85-.525-.929-2.161-1.755-1.723-1.933-1.304-.604-3.141-.537-.902-.213-.941-.37-.929-.872-.318-1.03.458-1.646-.292-.503-.532-.134v0l.147-.347.594-.806.97-.515 2.592-.817.145-.313.056-1.03.211-.503.893-1.426.127-.57.044-1.211.12-.57.259-.404.712-.705.25-.425.112-.929-.079-1.84.363-.727 1.636-1.67.437-.739.15-.671-.012-.683.1-.671.486-.65.414-.2 1.206-.202.821.123 5.74-1.141.673.156.302.672-.022 1.074.1.526.31.37.91.514.631.862.336.313.923.593 4.273 4.925 1.201.47 1.17-.168 2.32-1.018 1.16-.258 8.12.291.907-.157h.056l1.235 2.472.59.56h8.902l-.169-.705.113-.783 1.04-1.008.529-.503v.002l.224-.18 1.373-.726 1.343-.482 2.582-.57.944-.896.52-.816.022-1.608.342-.269.616-.37 2.987-1.436.505-.302 5.277 3.34 2.962 2.644.18.135h.154l.156-.112.132-.123.215-.112h1.412l2.397-.135.787-.313 4.812-4.721 1.224-1.506.31-.302.697-1.075.734-1.844.146-.212 5.272-4.423.187-.346.056-.28-.797-1.489-.171-.76-.033-1.165.158-1.81-.056-1.146-.022-.134-.056-.179-.033-.112-2.944-3.253h7.435l.022-.268-.006-.146-.022-.134-.141-.392-.079-.514-.005-.146.011-.145.045-.269.004-.145-.007-.112-.01-.112h.036l5.342.112-.067.917-.65 2.164.012 1.298-.153 1.482-.034.123-.146.325-.128.179-.146.179-.045.112-.045.111-.003.168 1.109 8.297-.045.212-.045.134-.296.515-.079.168-.011.134.12.112 2.46.895h.12l.089.112.886 1.063 4.847 3.937.165.19.501 1.237.056.19.023.302-.012.235-.124.739.045.335.078.224.068.258v.111l-.008.112zm84.748 129.14.056-.918-.176-.459-1.062-1.374-1.982-2.562-1.5-1.936-1.533-1.983-.005-1.585-.023-4.715-.033-9.43-.034-9.43-.033-9.432-.023-4.714-.006-1.93.16-.313 1.749-1.73 2.314-2.29 3.04-4.35 1.65-2.362 1.377-1.972.35-.604 1.218-1.193 2.286-.716 1.419-.123 4.883-.895.728-.358.426-.414.405-.94.952-1.32 1.227-.907 2.331-1.185 2.286-1.007.506-.168 2.75-.627.674-.212 1.113-.224.44-.005 3.82.224 2.988.167 3.078.18.323-.135 2.152-2.345 3.42-3.735 2.184-2.382 3.372-3.681 2.594-2.657 2.866-2.938 2.785-2.686 3.35-3.232 2.11-2.034 3.28-3.162 3.12-3.01 2.76-2.66 1.661-2.518 1.634-2.475 1.744-2.643 2.104-3.19 1.98-3 1.617-2.451v-1.258l.002-2.725v-7l.002-3.145v-6.09l1.383-.134 3.65-.805 2.84-1.211 5.237-.873 3.985-2.218.695-1.074 1.204-1.35 1.75-.448 4.465 1.585.712.124-.258.962-.153.973-.915 1.708-.582 1.897.425 2.897.206 4.697-.1.683-.296.671-.123.526-.483.19-.211.303.351.123 1.4-.515-.033-.56.078-.28 1.15.627.821.258.236.593-.067.403-1.303-.19-.664-.314-1.935.515-1.184.56-.354.917-.276 3.682-.458 2.39-.09 3.16-1.564 2.092-.528 1.476-2.33 2.954-1.215 2.526-.396 1.232-2.047 3.465-2.806 2.655-1.017 3.39-1.007 2.127-1.132 1.931-2.478 3.429-1.271 2.385-1.592 4.135-.486 2.62-4.48 7.602-4.644 6.062-2.894 5.098-5.191 5.917-7.079 7.639-9.261 9.07-2.517 1.849-10.139 5.591-6.574 4.691-3.357 3.19-3.526 2.776-2.797 2.643-8.454 8.922-.872.839-.821.794-1.065 1.512-.74.593-2.02 2.55-1.261 1.323-1.414 1.308-.6.929-.425 1.063-.471.593-1.275 2.536-1.122 1.661z" transform="translate(0 -662.52)" id="path34" />
    <path style="fill:#686868;fill-opacity:1;fill-rule:nonzero;stroke:#505050;stroke-width:.5;stroke-linecap:round;stroke-linejoin:round;stroke-miterlimit:4;stroke-dasharray:none;stroke-opacity:1" class="polygon" d="m6.463 728.639-1.154.816-.415-.212-.255-.57-.323-1.232.101-.593.524-.671 1.136-.672h.683l.704.884.002.918zm8.548-16.194-.417.291-.494-.246-.131-.447.637-.862.3-.213.253.18.15.234.023.347z" transform="translate(0 -662.52)" id="path36" />
    <path style="fill:#fff;fill-opacity:1;fill-rule:evenodd;stroke:#505050;stroke-width:.5;stroke-linecap:round;stroke-linejoin:round;stroke-miterlimit:4;stroke-dasharray:none;stroke-opacity:1" class="polygon" d="m289.44 1020.456.226.167 1.03.515.09 1.03-.1 1.172-.208.739.078.739.332 1.149.313.783.078 3.574-.349-.168-.635-.156-.337.111-.308 1.603-.236 2.383.138 1.48h-2.415l-3.056-.157-2.188-.638-2.357-1.41-1.402-2.2-.613-1.38-.857-.112-.139-.236-.078-1.685.022-1.77.16-.47 1.588-2.179.986-1.354.613-1.31 1.334-1.536 1.43-.985.532-.145h.364l2.52 1.35 2.586 1.28.562-.146z" transform="translate(0 -662.52)" id="path38" />
    <path style="fill:#fff;fill-opacity:1;fill-rule:nonzero;stroke:#505050;stroke-width:.5;stroke-linecap:round;stroke-linejoin:round;stroke-miterlimit:4;stroke-dasharray:none;stroke-opacity:1" class="polygon" d="m376.309 819.257-.606.145-.236-.145-.371-.47.645-.403.627-.772 1.455-1.134.495-.75.182-.156-.101.884-.82 1.931-.7.123zm-2.404-20.174.857 2.38-.112.448-.604.268h-.316l-.376-.38-.265-.806-.459.19-.782-.962h-.774l-.684-1.146.267-.996-.155-1.702.835-.872.47-1.469.539 1.008.123 1.563.727 1.837.611.57zm4.124-14.194.067.56-.171.525.033 1.692-.067 1.122-.639 1.555-.521.548-.467-.157-.383-.257-.298-.425.607-2.853-.309-2.088 1.201.202zm-101.174-43.72h35.314l.808.424.896.504 2.384 1.331 2.386 1.332 2.385 1.332 2.386 1.33 2.386 1.333 2.384 1.332 2.385 1.331 2.386 1.332 2.384 1.332 2.385 1.331 2.386 1.332 2.385 1.331 2.385 1.332 2.386 1.331 2.386 1.332 2.385 1.332 1.138.637.17.28.199 1.213.124.761-.067.672-.631 1.134-.187.593-.005.414.155.157h.539l.457.269.17.212.348.85.446.426 1.007.727 1.718 1.238 1.718 1.236 1.718 1.238 1.717 1.236 1.718 1.237 1.718 1.236 1.718 1.238 1.718 1.237.836.604.353.168-.222.94-.88 2.282-.056.952-.345 1.119-.332.738-.896 3.212-.752 1.203-1.027 2.815-.163 2.154.567 1.508.21 1.414 1.202 1.386.961.493.65.637 1.152 1.446.66 1.451 2.07.717.825 1.627-.301 1.12-.96.929-.899 1.504-.724 1.975-.011 3.019.487-.46 1.095.74.141 2.223-1.13 2.59-.347 1.209-.056 1.04.82 3.099 1.243 1.579-.09.492-.322.414 2.127 2.792-.177 2.429.797 1.89.349 1.638.525 1.256.1.862-.655.962 1.55.247.911.783.43.75h1.12l.606.514.874.426 1.933 1.263.524.638.19.369.123.235-1.299.974-2.028 1.52-1.987 1.492-1.92 1.03-1.372.47-1.466.268-1.39.627-1.316.984-1.686.493-2.053.004-2.157.693-2.142 1.303-1.248.76-1.977-1.142-1.55-.358h-1.783l-1.086.146-.39.246-.34.694-.288 1.15-1.17 1.108-2.049 1.052-1.889.391-1.729-.268-1.17-.437-.611-.615-.899-.28h-1.189l-1.136.437-1.089.828-1.736.358-2.384-.112-1.28-.403-.176-.683-1.044-.805-1.913-.93h-1.408l-.905.885-.824.56-.746.223h-.67l-.594-.168-.37-.112-2.637-.111h-2.497l-.079-.38-.174-.896-.52-.783-.447-.47-.556-.123-.303.008-.243-.359-.288-.794-.425-.683-.564-.56-.338-.525-.114-.481.09-.526.522-1.314.165-.895-.056-.918-.284-.94-.592-1.124.068-.325-.202-.772-.022-.537.115-.671-.113-.884-.511-1.88v-.48l-.54-.907-1.657-2.152-.079-.28-2.6-2.168-1.04-.47-.375.403-.14.38.112.694-.067.347-.112.157h-.617l-.388-.112-.985-.582-.766-.146-1.904.112-.669.135-.525-.135-1.007-.996-1.181-.212h-1.061l-1.75-1.128-.411.112-.195.112-.633-.302-1.194-.66-1.659-.583-1.357-.649-.603-.626-1.274-.246-1.101-.112-1.02-.582-1.056-.112-1.038-.146-.232-.391-.033-.862-.364-.224-.762-.223-.82.01-.5.123-.296-.112-.68-.504-.633-.649-.239-1.03-.958-.66-1.103-.525h-3.069l-.48-.157-.728-.526-.855-.862-.686-.984-.603-1.34-.287-.806-.339-.995-.75-1.494-1.063-2.115-.819-1.731-.883-1.863-.36-1.366-.686-1.51-1.124-1.856-.57-.727-.622-.649-1.616-1.252-1.832-1.244-.99-.84-1.332-2.49-.558-.906-.387-1.587-.293-1.646.12-.671 1.181-2.12.119-.593-.145-.805-.58-1.69-.432-1.108-.306-.94-.63-1.57-.866-2.162-.216-.94.022-.705.47-1.866.409-1.927-.011-.526 3.52.112.58-.425 1.988-1.239 2.237-2.484.447-1.03.91-1.593.895-.795.343-.548.234-.862.28-.727 1.173-1.074 1.142-.828-.078-.336-.153-.246.169-.213.624-.425 1.213-.392.237-.828-.003-.94-.197-.525.034-.605-.186-.335-.792-.112-1.177-.47-1-.202-.665-.268-.247-.213-.112-.57.193-.616.1-.18.256-.66-.436-.391-.115-.19.2-.314 1.026-2.094.222-.291h.445l.708-.258.651-.112.534.112.394-.112.347-.268.294-.817.242-1.365-.133-1.108-.51-.862-.138-1.307.233-1.758-.167-1.46-.564-1.168-.576-.694-.882-.324-1.386-1.783-.424-.862.078-.537.369-.179.111-.112.882.112.828-.201.775-.493.752-.145z" transform="translate(0 -662.52)" id="path40" />
    <path style="fill:#fff;fill-opacity:1;fill-rule:evenodd;stroke:#505050;stroke-width:.5;stroke-linecap:round;stroke-linejoin:round;stroke-miterlimit:4;stroke-dasharray:none;stroke-opacity:1" class="polygon" d="M311.316 741.202h-34.623l-.752.145-.774.492-.828.202-.882-.112-.112.112-.448-.011h-.644l-.583.134-.445.436-.454.739-.816.84-.637.749-.542.537-1.242.873-.677.257h-.337l-.206-.156-.39-1.12-.24-.18-2.414.582-.366.008.034-.347-.178-2.634-.023-1.611.315-1.007.183-1.164.023-1.03.443-1.746-.164-1.052.573-3.672.151-.593.222-1.773.358-.549.314-.212.412-1.086.792-1.739.549-.895-.119-1.957.09-1.33.125-.291 1.17-.493 1.516-1.23.64-1.447.906-.918 1.754-.593.003-.002 5.198-4.966 2.419-2.677 1.05-1.37.034-.493.202-.65-.422-.503-.503-.458-.168-.426-.434-.212-.62.007-.413-.302-.466-.605-.467-.38h-1.475l-1.135-.616.01-.839.445-1.653.863-1.89.045-.527-.121-.447-.208-.38-.391-.381-.364-.448.283-1.36.543-1.334.446-.672.435-.75-.124-.615-.635-.302.331-.593.685-1.007 1.328-1.018 1.167-.683.779-.004 1.516.537 1.37.638h.753l.914-.269 1.893-1.131.454.358.555.683.599 1.135 1.191.515.573.358.408.112.227-.112.453-.895.546-.481 1.009-.616 2.227-.492 1.591-.145.674-.112 1.13-.291 1.781-.918 1.755 1.18 1.905.225 1.846-.008.562-.359.324-.28 1.937-1.94 2.624-2.63 1.745 3.705.6.212-.078.325-.147.313 1.142.895 1.407.47.501.459.045.492-.474 2.166.09.615.454 2.172.836.481.745 2.185 1.5.928.215.269.347 1.063.459 1.16.36.268.218.112.444 1.23-.256.694.347 2.102.56 1.876.152 2.244.007.985-.022.604-.126.85-.268.493-.48.481-.53.76-.464.807-.29.402.225 1.212-.056.314-.123.156-.68.18-.869.324-.528.324-.746.616-.599.66-.793 1.957-1.323 1.522-.224.504-1.25.906-.55 1.12-.348 1.372-.485.985-1.052 1.351-.243 2.134.033 4.263-.273 4.852z" transform="translate(0 -662.52)" id="path42" />
    <path style="fill:#fff;fill-opacity:1;fill-rule:nonzero;stroke:#505050;stroke-width:.5;stroke-linecap:round;stroke-linejoin:round;stroke-miterlimit:4;stroke-dasharray:none;stroke-opacity:1" class="polygon" d="m269.77 979.427 3.018.426 2.814-.347 2.288-.112 1.76.19 1.386.414 1.014.638.056.593.078.268.535 1.555.798 2.322.53 2.144.728 2.94-.022 1.638.178.626.654.795.8 1.357.273.772.269.582.846 1.097.657 1.657.556 2.193.476 1.052.18.515.214.94-.033 1.987.011 2.303.011 2.57.011 2.123-.089 1.074.056 3.05-.72 1.589.09 1.246.223.806-.298.123-.562.146-2.585-1.28-2.521-1.351h-.364l-.531.145-1.431.985-1.334 1.536-.613 1.31-.986 1.355-1.588 2.178-.16.47-.022 1.77.078 1.686.139.235.857.112.613 1.382 1.402 2.197 2.357 1.411 2.188.638 3.055.157h2.415l-.137-1.48.236-2.383.308-1.602.336-.112.636.156.35.168.97-.112 1.722.314h2.632l2.102-.112h1.226l-.414 2.584-1.604 4.044-.546 1.854-1.368 6.629-1.785 3.341-1 1.379-2.893 2.44-.805.493-.715.313-1.268.28-4.958 4.935-1.848 2.38-1.64 3.469-1.631 1.905-2.396 4.062-2.14 3.138-2.055 2.86-3.552 3.938-1.577 1.14-1.064.525-2.823 2.286-3.973 3.675-3.043 3.257-4.549 3.697-2.633 1.619-3.955 3.185-1.102.47-4.458 2.96-3.204 1.798-5.19 2.084-2.06.582-4.923-.537-2.056.29-1.717 1.26-.16 1.807-.716.268-1.085-.112-3.441-.75-1.867.146-1.09.962-.877 1.222-2.592.112-4.616-1.264-5.429-.772-1.257-.112-2.631.94-.92.134-3.833-.201-2.127-.593h-2.034l-1.559.492-1.89.168-5.11 3.397h-2.637l-2.276.392-1.13-.011-2.112-.47h-.786l-1.202.212-1.205.593-2.74.258-1.065.503-4.634 3.102-1.055-.123-.854-.201h-2.406l-2.724-1.653-1.044.112.28-.493.078-.872-.576-.616-.389-.28h-1.069l-.568-.75-1.636-.111-.566.19h-.786l-.067-.76.067-.482-.044-.727-.197-.896-.634-.29-.487-.124-1.158.112-.798.112-.375.258-.428.66-.005 2-.574-.57-.653-1.199-.209-1.279.235-1.512 1.238-.57-.1-1.018-.262-.884-1.383-2.271-.54-1.04-1.173-.706-.912-1.694-.92-.615-.382-1.186-.898-.951-.303-1.501.495-.862.782-.47.798.739.99-.291 1.409-1.085.832-1.647.056-2.635-.214-1.645-1.118-4.252-.528-.973-2.519-3.044-2.922-4.076-3.697-6.425-1.768-3.86-2.675-7.793-2.356-4.409-2.895-4.117-.371-.268.442-.504 1.556-.951.708-.257.376.111.366-.257.355-.638.079-.604.174-.85.348-.515.382-1.018.649-.65 1.375-.436 1.043.57.438.56.18.739.461.358h.74l.523.459.304.94-.068.682-.421.425.056.56.537.694.221.649.36.861 1.89.504.923.28 1.592.112 1.505.38 1.417.672 2.33.156 3.24-.347 2.667.157 2.096.66 1.518.123.94-.414.408-.604-.125-.783.466-.493 1.058-.212.847-.593.637-.974 1.473-.794 2.309-.605h1.148v-41.118l.538.336 3.543 2.493.957 1.312.475.828 1.524 3.02 1.135 2.708.922 2.042.067.929.13.918.13.447-.09.493-.648 1.107-.663.85-.796 1.161-.078 1.533.24 1.805.489.895.613.291 1.466-.448.929.135 1.31.347 4.297-.213.52.112 1.621.123.542-.145.485-.38.562-1.086.502-.358.911-.18 1.079-.29.895-.627 1.418-2.14 2.834-1.9.87-.46.548-.514.477-.694.993-2.393.751-1.994.256-.94.67-1.536.812-.984.792-.515.396-.134 1.02-.27 1.313-.245 1.38.28 1.479.593 1.67 1.007 1.709 1.237.787.627.848.28 1.51.112h.99l1.54 1.23.779.112 1.742.37 2.151.38h1.355l1.452-.671h2.399l1.486-.18 1.091-.28.834-.58.734-.627.843-1.885.487-1.516.753-1.745.923-2.363.33-1.648.339-.46 1.34-.503 1.107-.347 2.98-.649.611-.347.557-.771 1.3-1.318 1.605-1.096.827-.627 1.517-5.342.183-.66 1.102-1.417.68-.593h.44l.623-.37.808-.738.96-.459 1.113-.167.72-.493.33-.806.574-.391h.816l.464-.258.114-.537.492-.458.872-.38.457-.449.045-.525 1.04-1.268 2.038-2.016 1.92-1.122 1.803-.224 1.708-.414 1.615-.615 1.186-.963.758-1.305 1.302-.728 2.63-.212h.14l3.197-.526 2.677.425zm-26.41 74.055-1.06.347-.84 1.197-.786 1.119-.706 1.007-.404.448-.37.29-.37.639-.762 1.063-.697.716-.975.391-1.255.504-.429.29-.056.426.448 1.007.433.974.706 1.13.517.828.816 1.007.477.593-.067.996.161.358.273.414.225.112.255.146.679.28.163.19.475.335.455.616.86.85.968.65 1.665.268 1.301.212.433-.123.442-.514.362-.672.116-.84.415-.447 1.558-2.141.859-.795h.526l.678-.157.862-.111.646.111h.14l1.007-.28 1.837-.716.83-.436.601-.358.772-.537.268-1.318.226-1.121.592-.549.605-.369.496-.582.619-1.398.424-1.368.045-.56-.222-.57-.392-.616-.387-.828-.465-.123-.914-.459-1.343-.929-1.168-.805-1.09-1.18-.448-.19-1.057-.794-.454-.46-.319-.548-.3-.178-.475.134-1.248.246-2.678.951-1.658.884-1.394 1.04z" transform="translate(0 -662.52)" id="path44" />
    <path style="fill:#fff;fill-opacity:1;fill-rule:evenodd;stroke:#505050;stroke-width:.5;stroke-linecap:round;stroke-linejoin:round;stroke-miterlimit:4;stroke-dasharray:none;stroke-opacity:1" class="polygon" d="m300.313 835.258.033.302.31.56.323.403.022.593.155.548.468.134h.388l.358-.391.487.008.534.257.19.638.418.862.677.582.453.559-.156 1.03-.286.94.917.928 1.193.884.322.392.1 1.308.18.448.812 1.085.395.716-.022.414-2.175 2.155-.69.213-.65.123-.584.448-.352.459.128.246.23.738.507 1.164.46.817-.384 1.018-.863 1.732-.398.157-.067 1.312.264.48.429.381.174.895.011 1.222-.044.985-.544 2.511.982 2.19.335.235 1.358.011.234.19-.326.627-.587.638-.366.324-1.729.75-2.483.828-.519.795-.331 1.152.278.672.33.391-.111 1.007-.216 1.063.067.84-.113.738-.325.358-.435 1.12-.535 1.118-.423.515-.623.537-.985.448.023.224 1.115.514.288.358.1.247-.239.235-.226.335.514.347.628.291.595.739.529 1.04.153.37.121.145h.193l.37-.157.685-.57.497-.202.6.806-2.401.806-1.26.414-3.596 1.198-3.137 1.04-.816.202-1.627.515-.81.313-2.834.918-1.184.459-.953.447-2.343.683-2.212.638-2.414.66-2.706.738-1.518.526-1.025.46-2.397.928-.113.224.033.626.305 1.303.598 1.182.503.682.327 1.748.182 1.535-1.627.004-2.862.006-2.97.005-2.71.582-2.232.895-2.656 1.397-.867.548-.671.425-.42.538-.21 1.187v1.834l-.269 1.32-.808 1.209.001-.002-4.037 1.463-2.642 1.198-2.59 1.414-1.967 1.838-1.34 2.257-2.225 2.795-2.262 2.421-2.406 2.575-2.695.93-2.265-.214-2.732-1.04-2.169-.202-1.607.65-1.484-.202-1.362-1.052-1.14-.38-.924.28h-1.179l-2.16-.582-1.864-1.78-1.011-.74-.776-.28-2.232-.29-5.125-.414-.535.112-2.129.347-2.66.436-2.286.437-2.397.458-2.227-1.86-2.527-2.111-2.617-2.356-1.97-1.846-.967-1.063-1.728-1.405-1.244-.683-.484-.347-1.236-3.742-.677-3.437v-2.59l-.001-3.592-.001-3.59-.001-3.59-.001-3.591-.001-3.591-.002-3.591v-3.591l-.001-3.591-.001-1.745h21.469l.733-.111.056-.347-.958-1.767.045-.627.255-1.198.396-1.03.521-1.36.056-.806-.42-2.606.033-1.454.124-1.51.117-1.432-.145-.996.177-.548.311-.772.164-.884.194-.38-.056-.348-.177-.649-.173-1.464-.244-2.036-.244-1.467.405.112.847.134.41.717.24.783h.568l1.485.47.512.649.343 1.402-.206.716-.479.582.479.515.992.347.582-.112 1.676-.963.67-.167.875-.19.789-.247 2.228-.436 1.218-.19.684-.347h.479l.342.28-.307.995-.101.895.426 1.663.321.784.717.57.521.291.582.604 1.197-.111 2.64.85.803.392 1.112.391.788.146 2.722.302 1.007.201 1.866.269h1.491l1.056-.123.743-.246.452-.269.21-.235.306-.828.557-1.8.217-.538.552-.246.714-.156.416.29.466 1.998 2.077 1.802.71 1.511.518 1.295.452.358.79.448 1.258.156h1.126l2.366.93 1.885.738 1.347.526.618.402.432.66.257.515.412 1.33.443 1.052.722.201.643.112.64.716.481.638.958 1.539.704 1.063.23 1.03.806.693 1.09.29h1.01l.58-.301 1.434-.537 1.115-.616.814-.212.482.134.37.425.195.828.044.459.794.436.587-.179.225-.503.011-.258-.002-2.262-.002-1.963-.003-1.848-.002-2.25v-1.961l-.003-1.617-.002-1.686-.509.112-.644.38h-1.48l-.577.292-.182.436.116.57.033.773-.216.358-.649.145-.938-.29-1.707-.392-1.419-.235-1.017-1.018-1.381-1.537-.902-.772-2.18-1.602-.37-.325-.661-.75-.567-1.273-.278-.85-.264-.627-.293-.94.526-1.44.74-2.738.533-1.974.294-1.464 1.059-1.49.078-1.332-.426-1.71.112-.94.067-2.397.056-2.015.011-.985-.29-1.705-.712-1.89-1.57-2.629.004-.56.936-.615 1.48-1.085.725-.65.867-.917.39-.47.85-1.177.54-.951.186-1.234-.406-1.173.829-.235 2.723-.414 3-.459 3.161-.481 3.191-.481 3.09-.47 2.802-.425 1.939-.291.286.805.604 1.34.685.984.855.862.728.526.48.157h3.07l1.103.526.958.66.24 1.03.631.648.68.504.296.112.5-.123.82-.011.763.223.363.224.034.862.231.391 1.039.146 1.056.112 1.02.582 1.1.112 1.275.235.603.626 1.357.65 1.66.581 1.192.66z" transform="translate(0 -662.52)" id="path46" />
    <path style="fill:#fff;fill-opacity:1;fill-rule:evenodd;stroke:#505050;stroke-width:.5;stroke-linecap:round;stroke-linejoin:round;stroke-miterlimit:4;stroke-dasharray:none;stroke-opacity:1" class="polygon" d="m282.05 980.668-1.013-.638-1.386-.414-1.76-.19-2.289.112-2.814.347-3.018-.425-3.224-1.196-2.677-.426-3.196.526h-.141l-.555-.403-.873-.872-1.46-.157-.394-.201-.326-.325-.212-.414-.079-.459.24-1.439-.13-.157-.39-.167-.8-.168-1.92-.65-2.414-.626-3.92-.694-1.523-.179-.352-.212-.442-.526-.752-1.653-.708-1.097-1.687-1.684-.268-.526.09-1.336.124-1.085.18-.918-.078-.861-.022-1.063.056-.717-.227-.313-.612-.212-1.742-.112h-2.106l-.067-1.086-.2-1.676-.394-.963-.485-.503-.967-.526-1.959-.716-2.669-1.086-2.278-1.613-2.614-2.007-.816-.346-.963-1.884-1.469-3.225.09-1.074-.222-.526-1.426-1.584-.315-.817-.252-.828-2.271-2.321-.772-1.018-.588-1.302-.585-1.04-.493-.415-.647-.704-.449-.806-.205-.604.168-.806.22-.56 2.16.582h1.18l.922-.28 1.141.381 1.362 1.052 1.484.201 1.607-.649 2.17.202 2.731 1.04 2.264.213 2.696-.929 2.406-2.575 2.262-2.421 2.225-2.795 1.34-2.259 1.966-1.836 2.591-1.415 2.642-1.197 4.037-1.464v.002l.807-1.209.269-1.32v-1.833l.211-1.189.42-.537.671-.425.868-.548 2.655-1.396 2.231-.895 2.712-.582 2.969-.006 2.862-.006 1.627-.004.022 1.765.126 1.986.317.19h2.153l3.453.146 3.329.134 2.125 1.44.713.302 2.213.38 2.823 2.402 3.395.224 2.335.75 2.058.828 1.185.985.767.223 1.037.112.505.112-.114.716-.69 1.204.09 1.726.951 2.392.128 2.082-.292 3.669.01 3.553.1 1.267.156.84.2.459-.033.525-.566 1.491-.457 1.569-.011.626-.176.448-.337.392-1.483.727-.255.448.005.805.188.683.556.246.672.38.264.515.002.537-.213.996-.596 1.649.594 1.896.668 1.229.92 1.426.381.872-.022.627-.135.616-1.378 2.599-.994 1.615-1.212 1.73-1.603 1.085-.413.526-.164.593.056 1.298-.079 1.355-1.371 2.087.853 1.796-.195.168-.462.257-1.974 2.021-1.996 2.044-1.46 1.494-1.658 1.7-1.86 1.903-1.589 1.626z" transform="translate(0 -662.52)" id="path48" />
    <path style="fill:#686868;fill-opacity:1;fill-rule:nonzero;stroke:#505050;stroke-width:.5;stroke-linecap:round;stroke-linejoin:round;stroke-miterlimit:4;stroke-dasharray:none;stroke-opacity:1" class="polygon" d="m13.634 680.582-1.085.347-.71-.112.972-1.48.493.314.633.134zM-2.733 575.986l3.873 1.138.704-.111.588.156.968.616 1.43 1.322.85.85.409.504 1.989 2.872.741.716.746.391.76.146h.578l.552-.325.75-.637 1.137-.291h.93l4.821-2.582h.468l1.402.202 1.558.358 4.04 2.59 3.296 1.695 2.317.571 2.73.403 4.636.123 3.507-3.632 1.296-.795 1.562-.716.502-.123 2.756-.548 5.405-.46 5.07.202.997.146 2.152.48 3.32 1.186 1.431 1.135 2.25.19 1.613-.224.526-1.126 1.619-1.479 1.177-.604 1.25-.772 1.978-.963 1.627-.425 1.454-1.097 1.154-.346h2.008l1.758 2.405 1.89 2.586 1.473 2.014 1.075 5.212.114.996.078.447.079.414.14.705.845.302 1.595.135 1.158.515.694.85.067.145.366.65.079.47-.101 1.365-.233 1.754-.398 1.132.221 1.54-.067.66-.174.447-.713.515-.97.503-2.317 1.489-.661.223h-.968l-.843.37-1 .805-2.15 2.987-1.842 3-.636 2.482-.716 2.371-1.618 1.513-.225.85-.068.493-.055 1.14-.197 1.89-.252.907-.26.268-1.746.57-1.006.695-.602 1.373-.22 1.486-.353 1.693-.2 1.486-.272.772-.572.806-.89.872-.77.493-2.006.324-1.031 1.967-.872 1.538-.022.615-.842 3.19-1.463 2.402-.1.85-.008.694-1.83 2.115-.485.627-.467.817.46.783.518.716.078.246-.833.672-1.449 1.17-.866.705-.191.38-.126 1.762-.253.47-.578.649-.848.705-.863.548-.977.38-.94.146-.524-.224-.3-.537-.528-2.153-.267-.458-.61-.415-1.205-1.177-1.219-1.191-1.47-.84h-.313l-.244.224-.418 1.197-.41.437-.774.157-1.344.01-.98-.168-.223-.235-.199-.515-.27-.414-1.172.84-1.843 1.32-.598.213-.457.269-.607 1.233-.734 1.32-.962.694-.937.582-.538.504-.77.604-1.505 1.494-1.999 1.982-.705 1.018-.695 1.53-.405 1.693-.443 1.856-.651 2.98-.956 1.685-.84 1.342-.62 1.052-.328.872h-.135l-.324.37-.934-.246-.422-.761-.577-.123-1-1.108-.212.179 1.054 2.813-.392 1.108h-2.96l-2.549.369h-1.751l-.88-.403-.39-1.052-.15.112-.09.57-.555.449-1.964.111-.868-.716-.704-.805-.753-.359.115.336.865.783-.1 1.132-1.582 1.31-1.008.112-.62-.56-.321-.917-.161-1.363-.415-.884h-.223l.206.817.067.66.01 1.382.753 1.074-1.156.336H6.16l-.175-.403-.176-.884-.242-.235-.284 1.506-.611.112h-.424l-1.816.325-.404-.112-.09-.28.216-.414-.045-.671-.63.526-.1 1.04-.36.168-1.084-.145-1.184-.537-.72-.549-1.206-.76-2.36-2.141-.382-.963-.675-1.18-.505-1.199-.725-2.05.223-.145.547.179.266-.302-.981-.224-.205-.235-.067-.716.045-.873.798-.313.689-.146.346-.537.2-.537-1.834.806-1.716-.918-.372-.56.186-.425.82-.112h1.172l.702-.414-.432-.145-.758.011-.28-.28.022-.671-.246.145-.326.593-1.157.437-.677-.437-.067-.973-.148-.436-.57-.336-2.026-2.56-2.546-2.135-2.263-1.47-3.418-.706h-7.153l-.4-.201.438-.336.629-.224 2.3-1.19-.388-.157-2.391.75-.818.112-1.059 1.432-6.3.235-.74.112.023-.65.31-1.88.202-.738.234-.56-.243-.67-.238-.907-.115-1.426.296-.447.1-.537-.067-.84v-2.818l.17-.302.204-.235.011-.37-.383-.727-.353-.828.011-1.195-.142-1.158-.243-.526.183-1.97.1-2.498-.09-1.108.23-.784.123-1.925-.022-1.886.469-2.976 1.379-.146 1.643-.246.733-1.17.421-1.48-.133-1.466.319-.481.658-.794 1.186-1.135-.044-1.247.328-.38.562-.291.806-.146.9-.615.502-1.085.491-1.743-.775-1.21.011-.27.293-.648.476-.65.377-.212.875.168h.149l.134-.201.568-1.92-.056-.514-.815-1.287-.133-.918-.12-1.36-.2-1.203-.235-.459-.438-.38-.194-.247-1.69-2.446.033-1.161.71-1.485.463-.716.646-.403.13-.347-.195-.414-.323-.313-.078-.672.089-.447.23-.482-.09-1.018.022-1.567.112-2.279.034-1.395 1.371-1.03 1.999-1.71 1.017-1.787.544-1.352.673-4.5.485-.269.575-.212 2.005-1.64 1.546-.604 1.179-.347 1.773-.302 1.1.123 2.005.112 1.578-.157 1.34-.895.607-.246.852-.157z" transform="translate(0 -662.52)" id="path50" />
  </g>
</svg>
