<?xml version="1.0" encoding="UTF-8" standalone="no"?>
<svg width="138.17" height="152.186" version="1.1" id="svg6" sodipodi:docname="angola.svg" xmlns:inkscape="http://www.inkscape.org/namespaces/inkscape" xmlns:sodipodi="http://sodipodi.sourceforge.net/DTD/sodipodi-0.dtd" xmlns="http://www.w3.org/2000/svg" xmlns:svg="http://www.w3.org/2000/svg">
  <defs id="defs10" />
  <sodipodi:namedview id="namedview8" pagecolor="#ffffff" bordercolor="#666666" borderopacity="1.0" objecttolerance="10.0" gridtolerance="10.0" guidetolerance="10.0" inkscape:pageshadow="2" inkscape:pageopacity="0.0" inkscape:pagecheckerboard="0" />
  <g style="display:inline" id="g4">
    <path style="fill:#54e736;fill-opacity:1;fill-rule:nonzero;stroke:#505050;stroke-width:.5;stroke-linecap:round;stroke-linejoin:round;stroke-miterlimit:4;stroke-dasharray:none;stroke-opacity:1" class="polygon" d="m90.734 133.221 2.325.19h2.901l1.024-.112 3.804-.112 3.756-.111 3.379-.112 3.728.01 2.855.008 1.3.392 1.183.738.537.66.256.291.352.705.646.56.23.861-.189 1.17.09 1.407.376 1.643.784 1.724 1.19 1.807.52 1.433-.155 1.063.366 1.124.884 1.182.647.627.375.47 1.006 1.813 1.86 2.893 1.396 2.17.488.258.714-.112 1.516-.213h1.502l1.071.448.43-.112 1.615-.862 1.604-.268 1.676-.358.873-.37 1.015.001 2.74.694h2.735l2.217-.392.326-2.909.022-.582.534-1.097.677-.95.09-.918-.045-1.246.49-1.51 1.485-1.202 2.404-.57 1.368-.113 2.155-.335 3.27-.336h1.206l.1.168-.69 2.089-.012.682.253.694.553.37h6.518l3.587.134 2.688.112.342.112.273.156.399 1.03-.09 2.02-.598 2.953.232 2.758 1.063 2.565.101 3.94-.375 2.353-.474 2.964-.183 3.36.487 1.405 1.03 1.47 1.572 1.536 1.215 1.99.86 2.443.312 1.54-.233.638.023 1.096.266 1.565-.298 1.04-.861.504-.287.705.434 1.347.112 1.223.341.47.249.347h.404l.873-.436 1.043-.817.838-.347h1.18l1.659.235 2.926.112.901-.146 2.724-1.096.714-.112 1.075.112 1.526.324 1.539.112.753-.336.067-.447.24-.582.422-.224.244 1.466.244 2.037.174 1.463.177.66.055.347-.194.38-.165.874-.31.783-.178.548.145.996-.117 1.432-.124 1.51-.033 1.454.42 2.606-.056.805-.521 1.361-.395 1.03-.256 1.198-.045.627.958 1.767-.056.358-.733.112h-21.471l.001 1.744.001 3.591v3.592l.002 3.59.001 3.592.001 3.59.001 3.592.001 3.59.001 3.591v2.59l.677 3.437 1.236 3.742.485.347 1.243.683 1.728 1.405.968 1.063 1.97 1.848 2.616 2.354 2.527 2.112 2.227 1.86-3.496.648-4.97.93-3.356.626-4.066.76-2.712.482-3.375.593-.538-.011-.905-.403-1.952-.112-2.296.56-1.821.156-1.348-.257-1.314-.493-1.283-.727-2.223-.268-3.162.201-3.048-.146-2.934-.48-2.1-.19-1.265.111-1.356-.157-1.447-.414-1.208-.705-1.453-1.49-1.136-1.425-.295-.201-.359-.213-.356-.112h-8.029l-4.28-.007-4.282-.006-4.282-.006-4.281-.006-4.282-.006-4.281-.005-4.282-.006-4.281-.005-2.274-.003-2.114.112-2.332.123-.337-.112-.552-.167-.379-.314-1.255-.805-1.094-.616-1.484-1.03-.959-1.132-.809-.358-1.432-.201-1.077-.202h-.876l-1.544.537-1.163.526-.829.515-1.44.582-1.212.582-2.113-.112-.457.112h-1.176l-1.108-.504h-1.123l-1.247.65-1.784.257.414-4.229.435-1.87.01-2.237-.255-5.795-.308-.795-.208-.928 1.105-.716.562-.549.761-.962.54-1.346.638-2.97 2.32-6.835 1.1-6.696 1.397-3.174.524-3.555 3.884-4.588.958-2.82 2.009-1.383 2.845-1.474 2.025-2.621.98-1.816 1.117-3.481-.01-3.635.706-4.852-.155-1.395-1.059-1.93-.197-1.384-.983-1.357-1.052-1.03-.493-1.83-1.826-2.888-.5-1.927-.874-1.382-.14-1.708-.46-1.802-.892-1.782-.867-2.04v-.638l.54-.772.515-.257-.174.391-.343.46.078.357 3.415-3.576.216-.694-.115-.783-.023-.963.136-1.119-3.22-6.597-2.557-6.136-.435-3.1-3.381-4.078-1.333-2.652-.76-1.859-.57-.705.214-.358.87-.112 1.938-.425 2.653-.47 2.453-1.074.653-.481 1.3-.112 1.324.29.491-.2h.28l3.105-.002 1.293-.112h2.395l1.513.112zm-21.66-1.449-.465.134-.164-.302-.487-1.108.275-1.052.297-.783-.33-1.605-.744-1.428-.79-1.813-.242-.347.662-.582 1.003-1.28.416-.66 1.16-.146.434-.459.305-.738.118-.437 1.308-.358 1.569-.626.87-.683.881-.436h.559l.368.179 1.01 1.193.859.75.276.167-.172.18-1.23.492-1.318.458-1.733 1.89-.88.816-.253.201-.793.448-.574.392.023.212.382.247.392.402-.034 3.084-.17 3.035-.213.257-1.103.112z" transform="translate(-63.106 -116.813)" id="path2" />
  </g>
</svg>
