<?xml version="1.0" encoding="UTF-8" standalone="no"?>
<svg width="105.538" height="101.904" version="1.1" id="svg6" sodipodi:docname="botswana.svg" xmlns:inkscape="http://www.inkscape.org/namespaces/inkscape" xmlns:sodipodi="http://sodipodi.sourceforge.net/DTD/sodipodi-0.dtd" xmlns="http://www.w3.org/2000/svg" xmlns:svg="http://www.w3.org/2000/svg">
  <defs id="defs10" />
  <sodipodi:namedview id="namedview8" pagecolor="#ffffff" bordercolor="#666666" borderopacity="1.0" objecttolerance="10.0" gridtolerance="10.0" guidetolerance="10.0" inkscape:pageshadow="2" inkscape:pageopacity="0.0" inkscape:pagecheckerboard="0" />
  <g style="display:inline" id="g4">
    <path style="fill:#8936e7;fill-opacity:1;fill-rule:evenodd;stroke:#505050;stroke-width:.5;stroke-linecap:round;stroke-linejoin:round;stroke-miterlimit:4;stroke-dasharray:none;stroke-opacity:1" class="polygon" d="m214.585 266.58-.22.559-.169.806.205.604.449.806.647.704.493.426.585 1.04.588 1.302.772 1.018 2.27 2.32.252.829.316.817 1.426 1.584.222.526-.09 1.075 1.469 3.224.963 1.885.817.347 2.614 2.006 2.278 1.613 2.669 1.085 1.96.716.966.526.485.504.394.962.2 1.676.067 1.086h2.106l1.742.112.612.212.227.314-.056.716.022 1.063.079.861-.182.918-.124 1.074-.078 1.336.268.526 1.687 1.684.708 1.097.752 1.653.44.526.353.212 1.522.18 3.921.693 2.414.627 1.92.649.8.168.39.168.13.156-.24 1.44.079.458.212.414.326.325.396.201 1.459.157.873.872.555.403-2.63.213-1.302.727-.758 1.306-1.185.962-1.616.616-1.708.425-1.803.224-1.92 1.122-2.039 2.016-1.04 1.266-.044.526-.457.448-.871.38-.493.46-.114.536-.464.258h-.816l-.573.391-.33.806-.72.492-1.114.168-.96.459-.808.738-.623.37-.439.01-.68.593-1.103 1.418-.183.66-1.517 5.341-.827.627-1.604 1.097-1.3 1.318-.558.772-.61.347-2.98.649-1.108.347-1.34.503-.34.46-.328 1.646-.923 2.365-.754 1.743-.486 1.517-.844 1.884-.734.626-.834.582-1.09.28-1.487.179-1.353-.112h-1.047l-1.451.671h-1.356l-2.151-.38-1.742-.37-.779-.111-1.54-1.23h-.99l-1.51-.112-.848-.28-.787-.626-1.71-1.239-1.669-1.007-1.48-.593-1.379-.28-1.312.246-1.02.269-.397.134-.792.515-.811.985-.67 1.535-.256.94-.75 1.995-.994 2.392-.477.694-.548.515-.87.459-2.834 1.901-1.418 2.14-.895.627-1.079.291-.91.18-.503.357-.562 1.086-.485.38-.542.146-1.622-.135-.519-.112-4.297.213-1.31-.347-.929-.134-1.466.448-.613-.291-.49-.896-.24-1.806.078-1.533.796-1.16.663-.85.649-1.108.089-.493-.13-.447-.13-.918-.067-.929-.922-2.04-1.135-2.709-1.524-3.02-.475-.828-.957-1.311-3.543-2.495-.538-.335v-.28l-.003-2.42-.003-3.208-.003-3.207-.003-3.207-.004-3.207-.004-3.208-.003-3.207-.003-3.207-.003-3.208-.003-2.713h11.12l.1-.425-.002-1.99-.006-4.565-.006-4.566-.007-4.564-.006-4.564-.007-4.566-.006-4.564-.006-4.565-.007-4.565-.002-2.257 2.891-.135 3.326-.458 5.39-.75 5.02-.929 3.275-.548 3.885-.65 1.337-.111.36.112.527.224 1.803 2.279 1.124 1.739.228.738.214.112.531-.123.597-.28 1.832-1.732.382-.447 1.167-.84 1.417-.861 1.283-.605 1.287-.503.596.123.701.436.624.269 2.927-2.104 1.308-.48 3.435-.381z" transform="translate(-155.238 -266.178)" id="path2" />
  </g>
</svg>
