<?xml version="1.0" encoding="UTF-8" standalone="no"?>
<svg width="20.616" height="24.571" version="1.1" id="svg6" sodipodi:docname="burundi.svg" xmlns:inkscape="http://www.inkscape.org/namespaces/inkscape" xmlns:sodipodi="http://sodipodi.sourceforge.net/DTD/sodipodi-0.dtd" xmlns="http://www.w3.org/2000/svg" xmlns:svg="http://www.w3.org/2000/svg">
  <defs id="defs10" />
  <sodipodi:namedview id="namedview8" pagecolor="#ffffff" bordercolor="#666666" borderopacity="1.0" objecttolerance="10.0" gridtolerance="10.0" guidetolerance="10.0" inkscape:pageshadow="2" inkscape:pageopacity="0.0" inkscape:pagecheckerboard="0" />
  <g style="display:inline" id="g4">
    <path style="fill:#cbe736;fill-opacity:1;fill-rule:evenodd;stroke:#505050;stroke-width:.5;stroke-linecap:round;stroke-linejoin:round;stroke-miterlimit:4;stroke-dasharray:none;stroke-opacity:1" class="polygon" d="m273.834 94.326-.223.29-1.026 2.096-.2.314.115.19.436.392-.256.66-.1.179-.194.615.112.56.247.212.666.269.999.201 1.177.47.792.112.186.336-.034.604.197.526.003.94-.237.828-1.213.392-.624.425-.17.213.154.246.079.336-1.142.828-1.174 1.074-.28.727-.234.862-.343.548-.894.795-.912 1.592-.447 1.04-2.237 2.485-1.989 1.239-.58.425-3.519-.112-.269-1.674-.536-2.286-1.21-2.065-.127-.861.056-1.667.004-2.34-.078-1.258.022-.918.154-1.596-.022-.95-.797-1.097-.99-1.17-.538-.57-.022-.46.002-.424.16-.627.387-.694.435-.112 1.069.28 1.113.593.59 1.326.452.19.821-.002 2.1-.179h.523l.956-.313.949-.56.273-.581.221-1.3.2-2.338h.484l1.325.828h.565l.458-.414.565-.336.417.007 1.538-.392.825.705.523.213z" transform="translate(-256.366 -93.025)" id="path2" />
  </g>
</svg>
