<?xml version="1.0" encoding="UTF-8" standalone="no"?>
<svg width="213.805" height="209.872" version="1.1" id="svg6" sodipodi:docname="democratic_republic_of_congo.svg" xmlns:inkscape="http://www.inkscape.org/namespaces/inkscape" xmlns:sodipodi="http://sodipodi.sourceforge.net/DTD/sodipodi-0.dtd" xmlns="http://www.w3.org/2000/svg" xmlns:svg="http://www.w3.org/2000/svg">
  <defs id="defs10" />
  <sodipodi:namedview id="namedview8" pagecolor="#ffffff" bordercolor="#666666" borderopacity="1.0" objecttolerance="10.0" gridtolerance="10.0" guidetolerance="10.0" inkscape:pageshadow="2" inkscape:pageopacity="0.0" inkscape:pagecheckerboard="0" />
  <g style="display:inline" id="g4">
    <path style="fill:#36e7c4;fill-opacity:1;fill-rule:evenodd;stroke:#505050;stroke-width:.5;stroke-linecap:round;stroke-linejoin:round;stroke-miterlimit:4;stroke-dasharray:none;stroke-opacity:1" class="polygon" d="m238.582 10.297.402.784.58.805 1.937 1.36.616.76.472.84.3.65.598.525.84.336.716.403.44.593.657.615 1.27.84h.618l.714.123.628.212h.675l1.089-.548 1.284-.918.979-.57 2.376.201 1.32.459 1.053.649h.821l1.79-1.19.95-1.27.921-.27 1.397.549 1.153 1.186 1.01 1.721.714.66.978 1.019 1.942 2.19 2.526 1.096.98.537.32.537.186.716.067.784.306.324.681-.112.586-.112.64.224.445.571.223.448.243.48.634.303.124.615-.435.75-.444.671-.543 1.334-.283 1.361.364.448.39.38.208.38.121.448-.045.526-.862 1.892-.445 1.653-.01.84 1.135.615h1.475l.466.38.467.605.412.302.62-.008.435.212.168.425.502.46.422.503-.201.649-.034.492-1.05 1.371-2.42 2.678L273 53.754l-.003.002-1.754.593-.906.917-.64 1.447-1.517 1.231-1.17.493-.125.29-.09 1.331.12 1.958-.548.895-.792 1.738-.412 1.086-.314.212-.358.549-.222 1.773-.151.593-.573 3.672.163 1.052-.443 1.746-.022 1.03-.184 1.164-.314 1.007.022 1.611.178 2.634-.033.347-.439.246-.781.65-.739.436-.562.112-.935 1.163-.801 1.097-.596 1.074-.156.493.125 1.39.079 1.649-.185.705-.28.425-1.309.895-.86.638-.406.336-.21.515.379 1.218.022.895.31.526 1.037.425-.002.426.022.458.539.571.99 1.17.797 1.096.022.951-.154 1.595-.023.917.079 1.258-.004 2.342-.056 1.665.127.862 1.21 2.066.536 2.286.269 1.674.01.526-.409 1.927-.469 1.866-.022.705.216.94.865 2.16.63 1.572.305.94.433 1.108.58 1.69.144.805-.118.593-1.182 2.12-.12.671.294 1.646.387 1.587.557.906 1.332 2.489.99.84 1.832 1.245 1.616 1.252.623.649.57.727 1.124 1.855.686 1.511.36 1.364.883 1.863.819 1.733 1.062 2.114.75 1.494.34.996-1.939.291-2.802.425-3.09.47-3.191.482-3.16.48-3.001.46-2.723.413-.83.236.407 1.172-.187 1.234-.54.952-.85 1.177-.39.47-.867.917-.725.65-1.48 1.085-.935.615-.005.56 1.57 2.63.713 1.888.29 1.706-.011.984-.056 2.016-.067 2.397-.112.94.426 1.71-.078 1.332-1.059 1.49-.294 1.463-.534 1.974-.74 2.74-.525 1.438.293.94.264.627.277.85.568 1.274.661.75.37.324 2.18 1.603.901.772 1.382 1.536 1.017 1.018 1.42.235 1.706.392.938.291.65-.145.215-.359-.033-.772-.116-.57.182-.437.577-.29h1.48l.644-.381.51-.112.001 1.686.002 1.616.001 1.962.002 2.251.003 1.847.002 1.962.002 2.263-.01.257-.226.504-.587.179-.794-.437-.044-.458-.195-.828-.37-.426-.482-.134-.814.213-1.115.615-1.434.537-.58.302h-1.01l-1.09-.29-.805-.694-.23-1.041-.705-1.063-.958-1.539-.482-.638-.639-.716-.643-.112-.722-.201-.444-1.052-.412-1.33-.257-.514-.432-.66-.618-.403-1.347-.537-1.885-.739-2.366-.928h-1.126l-1.259-.157-.789-.448-.452-.358-.519-1.293-.71-1.513-2.076-1.802-.466-1.997-.417-.291-.713.156-.552.247-.217.537-.558 1.8-.305.828-.21.235-.452.269-.743.246-1.056.123h-1.491l-1.866-.268-1.007-.202-2.722-.302-.788-.145-1.112-.392-.802-.392-2.641-.85-1.197.112-.582-.605-.521-.29-.717-.571-.32-.784-.427-1.661.1-.895.308-.996-.342-.28h-.479l-.684.347-1.218.19-2.228.436-.79.247-.874.19-.67.168-1.676.962-.58.112-.993-.347-.479-.515.479-.582.206-.716-.343-1.402-.512-.649-1.485-.47h-.568l-.239-.783-.41-.716-.848-.135-.405-.112-.423.224-.24.582-.067.448-.753.335-1.538-.111-1.527-.325-1.074-.112-.714.112-2.724 1.097-.901.145-2.927-.112-1.658-.235h-1.18l-.839.347-1.043.817-.873.436h-.403l-.249-.346-.341-.47-.112-1.224-.434-1.347.286-.705.86-.503.298-1.041-.266-1.564-.022-1.097.232-.638-.312-1.54-.86-2.443-1.214-1.991-1.573-1.535-1.03-1.47-.486-1.404.182-3.36.475-2.965.375-2.352-.112-3.94-1.063-2.566-.233-2.758.599-2.952.09-2.022-.4-1.03-.272-.156-.343-.112-2.688-.112-3.586-.134h-6.519l-.553-.37-.252-.693.01-.683.692-2.088-.1-.168h-1.207l-3.27.336-2.154.336-1.369.112-2.404.57-1.485 1.2-.49 1.513.045 1.244-.078.918-.679.95-.533 1.097-.023.582-.325 2.91-2.217.392h-2.735l-2.74-.693-1.015-.001-.873.369-1.676.358-1.605.269-1.615.861-.43.112-1.07-.447h-1.503l-1.516.212-.714.112-.487-.257-1.396-2.17-1.86-2.894-1.007-1.814-.375-.47-.647-.626-.884-1.182-.365-1.124.154-1.063-.52-1.433-1.19-1.807-.784-1.725-.376-1.641-.09-1.407.189-1.17-.23-.862-.645-.56-.353-.704-.256-.291-.537-.672-1.182-.738-1.3-.392-2.855-.007-3.729-.011-3.379.112-3.756.112-3.803.112-1.024.112h-2.902l-2.325-.19-.862-.124-1.513-.112H85.95l-1.293.112-3.106.001h-.28l-.49.202-1.323-.291-1.3.112-.726-.325-1.594.201-.774.27-1.242.928-1.858.481h-.69l-.46-.157-1.083-1.018-.835-.985-.3-.548.466-.134 1.463-.213 1.102-.112.214-.257.17-3.035.034-3.085-.392-.403-.383-.246-.022-.213.574-.391.792-.448.254-.201.88-.817 1.733-1.888 1.318-.459 1.23-.492.172-.18.163-.368h.55l.176.179.27.402.483.56.869.66.878.716.439.112.71-.358.82-.537 1.207-.392.289-.369.158-.783.089-.84.1-.995.247-.135.436-.111.8.28.367.29h.656l.42-.257.766-.493.974-.19 1.043-.47.998-.604h.471l.5.783.444.549.079.335-.446.66-.498.862.42 1.074.1 1.041-.01.627.338.257.231.123.362-.145h.712l.855.324h.827l.8-.403 1.485-1.568 2.173-2.736 1.8-1.717 1.427-.705.966-.817.503-.94.83-.638 1.728-.503 1.319-.57 1.316-1.882 1.754-3.38.49-3.018.3-1.837-.173-6.328-.114-2.078.265-1.133.656-.783 1.787-1.649 1.199-1.35.914-1.58 1.764-3.61.772-1.163.344-.526 1.061-.962 1.487-.84 1.916-.727 2.955-2.513 2.35-2.53-.322-3.037.549-2.52 1.281-3.205.42-3.393-.44-3.576.186-2.923 1.223-3.402.516-1.262.168-2.065-.007-3.288 1.56-4.494 1.475-2.691 1.65-3.01.63-1.82.84-2.43-.132-1.95-.154-2.241.414-3.084-.154-1.816-.586-1.578.298-.996 1.184-.403 1.475-1.575 2.65-4.118 2.852-2.007 1.987-.638 2.07.112 1.35.358.626.65 1.565.973 2.506 1.288 1.871 1.605 1.041 1.619.801.884 1 .302 1.629-.134 1.821.38 1.9.907 1.167.335.432-.235.915.135 2.097.75 1.672-.415 2.475.302 5.752 1.33.307-.223h.136l.49-.537 1.248-2.662 1.057-1.636.492-.616 1.218-.861 1.436-.224 1.377.112 1.151.38 1.052.437 1.167.004 1.192-.426 1.77-.783 1.864-.515 1.603-.559 2.641-.985 1.031-.447 1.312-.18 3.675.896 2.383-.593.971.168 2.06-.638.378-.425 1.31-2.162 1.398-.627 2.112.313 1.187.336 3.957.929 5.137.962 1.51.146.61.111.537-.145 1.684-1.216.574-.168h.483z" transform="translate(-68.346 -8.492)" id="path2" />
  </g>
</svg>
