<?xml version="1.0" encoding="UTF-8" standalone="no"?>
<svg width="32.968" height="31.894" version="1.1" id="svg6" sodipodi:docname="equatorial_guinea.svg" xmlns:inkscape="http://www.inkscape.org/namespaces/inkscape" xmlns:sodipodi="http://sodipodi.sourceforge.net/DTD/sodipodi-0.dtd" xmlns="http://www.w3.org/2000/svg" xmlns:svg="http://www.w3.org/2000/svg">
  <defs id="defs10" />
  <sodipodi:namedview id="namedview8" pagecolor="#ffffff" bordercolor="#666666" borderopacity="1.0" objecttolerance="10.0" gridtolerance="10.0" guidetolerance="10.0" inkscape:pageshadow="2" inkscape:pageopacity="0.0" inkscape:pagecheckerboard="0" />
  <g style="display:inline" id="g4">
    <path style="fill:#d736e7;fill-opacity:1;fill-rule:nonzero;stroke:#505050;stroke-width:.5;stroke-linecap:round;stroke-linejoin:round;stroke-miterlimit:4;stroke-dasharray:none;stroke-opacity:1" class="polygon" d="m58.773 54.928.008 1.354-2.29-.006-3.042-.01-3.04-.01-3.041-.01-1.528-.005-1.683-.005-.545.112-.37.347-.447.111-.519-.29-.632-.146-.17-.302-.315-.548h-.94l-.45.313-.508.168.101-.258-1.002-.671-.722-.112-.665-.212.538-1.758.674-1.555 1.007-1.174.535-.28.173-.581.797-1.915.987-1.553-.305-1.576.236-2.643.284.112.045.246.078.37.372.324 1.228.504h5.845l3.23.002h6.018l.012 2.592.01 2.19.012 2.37.011 2.471zM29.691 25.413h1.95l.455.593-.056.873-1.722 2.542-.322 1.074-.665.907-.579.112-1.985-.537-.336-.325-.119-.436.196-1.019.144-.313.954-.19.306-.168.51-1.097.166-.996.428-.75z" transform="translate(-26.062 -25.163)" id="path2" />
  </g>
</svg>
