<?xml version="1.0" encoding="UTF-8" standalone="no"?>
<svg width="15.333" height="18.067" version="1.1" id="svg6" sodipodi:docname="eswatini.svg" xmlns:inkscape="http://www.inkscape.org/namespaces/inkscape" xmlns:sodipodi="http://sodipodi.sourceforge.net/DTD/sodipodi-0.dtd" xmlns="http://www.w3.org/2000/svg" xmlns:svg="http://www.w3.org/2000/svg">
  <defs id="defs10" />
  <sodipodi:namedview id="namedview8" pagecolor="#ffffff" bordercolor="#666666" borderopacity="1.0" objecttolerance="10.0" gridtolerance="10.0" guidetolerance="10.0" inkscape:pageshadow="2" inkscape:pageopacity="0.0" inkscape:pagecheckerboard="0" />
  <g style="display:inline" id="g4">
    <path style="fill:#36e7c8;fill-opacity:1;fill-rule:evenodd;stroke:#505050;stroke-width:.5;stroke-linecap:round;stroke-linejoin:round;stroke-miterlimit:4;stroke-dasharray:none;stroke-opacity:1" class="polygon" d="m289.44 357.936.226.168 1.03.515.09 1.029-.1 1.173-.208.738.078.739.332 1.15.313.782.078 3.574-.349-.167-.635-.157-.337.112-.308 1.602-.236 2.384.138 1.48h-2.415l-3.056-.158-2.188-.638-2.357-1.41-1.402-2.2-.613-1.38-.857-.112-.139-.235-.078-1.685.022-1.77.16-.47 1.588-2.18.986-1.353.613-1.31 1.334-1.537 1.43-.985.532-.145h.364l2.52 1.35 2.586 1.28.562-.146z" transform="translate(-276.197 -355.24)" id="path2" />
  </g>
</svg>
