<?xml version="1.0" encoding="UTF-8" standalone="no"?>
<svg width="65.152" height="70.006" version="1.1" id="svg6" sodipodi:docname="gabon.svg" xmlns:inkscape="http://www.inkscape.org/namespaces/inkscape" xmlns:sodipodi="http://sodipodi.sourceforge.net/DTD/sodipodi-0.dtd" xmlns="http://www.w3.org/2000/svg" xmlns:svg="http://www.w3.org/2000/svg">
  <defs id="defs10" />
  <sodipodi:namedview id="namedview8" pagecolor="#ffffff" bordercolor="#666666" borderopacity="1.0" objecttolerance="10.0" gridtolerance="10.0" guidetolerance="10.0" inkscape:pageshadow="2" inkscape:pageopacity="0.0" inkscape:pagecheckerboard="0" />
  <g style="display:inline" id="g4">
    <path style="fill:#7d36e7;fill-opacity:1;fill-rule:evenodd;stroke:#505050;stroke-width:.5;stroke-linecap:round;stroke-linejoin:round;stroke-miterlimit:4;stroke-dasharray:none;stroke-opacity:1" class="polygon" d="m80.693 43.281-.056.783-.886 1.917-.418 1.475-.1 1.572.245 1.265.427.906.276.985-.213.683-.428.29.294.347.646.112 1.1-.302 1.689-.526 2.214-.76 1.456-.404 2.405.258 1.282.29.66.538.708 2.257.352.347.582.962.487 1.153.1.582-.055.425-.49.626-.55.918-.193.56-.46.414-.584.402-1.606.157-.246.246-.45.974-.847.828-.386.783-.342 1.04.067 1.293-.17 1.859-.171 1.259.425.436 1.918.314.373.246.51.783.653.727 1.757.46.682.559.552.615.068.504-.399 2.02-.384 1.939.15 1.475.145 1.408.208 2.053-.09 1.252-.495.76v.605l.227.727-.44 1.998-.284.335-.786.37-.413.537-.132.84-.424 1.153-.435.425v.537l.42.392-.006.604-.784.716-.474.549-1.046.268-1.197-.28-.28-.402.29-.616-.102-.492-.413-.515-.64-1.342-.566-.28-.315.549-.974 1.018-1.719 1.307-1.204.112-2.224-.403-1.864-.626-.877-1.535-.55-1.264-.793-1.47-.894-.694-.955-.448h-.425l-1.363.817-.408.325.003.682.126.638.21.313.178.414-.033.638-.245.85-.078.94-4.274.93-.741-.336-.536-.426-.648.112-1.853.481-.68-.335-.678-.246-.31.201-.022.403.316 2.219-.101.85-.419 1.108-.216.75 1.134.212.41.347.398.56.546.526.033.313-.62.582-.212.716.295.56.772.582 1.127.604.55.391-.057.359-.52.772-.202.649-.356.593.067.548.507.504-.056.458-.345.347-.701-.112h-.593l-.534-.145-1.667-1.757-.363-.112-2.418 1.352-.602.56-.496.794-.67 1.727-1.1-1.008-.949-1.84-1.104-1.127-2.325-1.828-.62-1.342-2.66-2.965-3.822-2.963-2.76-2.571-.418-.57.465.111 2.667 1.282.363-.145.308-.291-1.152-.671-1.1-.526-1.032-.336H40.21l-.58-.548-.375-.828-.19-.705-.457-.739-1.466-1.524-.354-.593-.802-.806.488-.112 1.57.773.14-.303-.135-.447-1.578-.728h-.857l-.198-.514.116-.593-1.129-2.223-1.171-1.663-.185-.783 3.162 3.616.423.112h.556l1.31-.403-.25-.481-.59-.515-.573.235h-.744l-.39-.213-.175-.37.744-1.755-.322.112-.238.313-.408.146-.631.112-1.557-.94-1.374-2.54-.363-.525-.368-.884-.36-.37-1.58-3.608.605.268.719 1.041 1.399-.224.546-.604h.477l.488-.134.616-.571 1.792-2.485.474-3.279-.154-1.948-.262-1.933.593-.615.234.403.116.682.28.504.638.459 1.188.123 1.836.716.653.459.178-.907 2.112-.772-.637-.28-1.878.303-2.576-1.158-.854-.738-.798-1.397-.828-.727.056-.66 1.85-.604.489.111.198.728.497.29.189-.111.078-.616.007-1.653-.566-2.372.173-.458.507-.168.45-.314.315-.111.626.111.314.549.17.302.632.145.52.291.446-.112.37-.347.545-.111 1.683.004 1.528.005 3.041.01 3.04.01 3.041.01 2.291.007-.008-1.356-.01-2.09-.012-2.47-.011-2.37-.012-2.19-.01-2.591.125-.739.15-.313-.056-.425h2.356l4.26.19h2.392l2.326-.134 1.885.168.801.179.721.112 2.258.112 2.947-.146h1l.555.358z" transform="translate(-29.068 -41.523)" id="path2" />
  </g>
</svg>
