<?xml version="1.0" encoding="UTF-8" standalone="no"?>
<svg width="89.844" height="114.451" version="1.1" id="svg6" sodipodi:docname="kenya.svg" xmlns:inkscape="http://www.inkscape.org/namespaces/inkscape" xmlns:sodipodi="http://sodipodi.sourceforge.net/DTD/sodipodi-0.dtd" xmlns="http://www.w3.org/2000/svg" xmlns:svg="http://www.w3.org/2000/svg">
  <defs id="defs10" />
  <sodipodi:namedview id="namedview8" pagecolor="#ffffff" bordercolor="#666666" borderopacity="1.0" objecttolerance="10.0" gridtolerance="10.0" guidetolerance="10.0" inkscape:pageshadow="2" inkscape:pageopacity="0.0" inkscape:pagecheckerboard="0" />
  <g style="display:inline" id="g4">
    <path style="fill:#f0f076;fill-opacity:1;fill-rule:nonzero;stroke:#505050;stroke-width:.5;stroke-linecap:round;stroke-linejoin:round;stroke-miterlimit:4;stroke-dasharray:none;stroke-opacity:1" class="polygon" d="m390.667 91.621-.415.112.213-.65 1.227-.816.499.19.1.19-.022.168-.21.168zm-63.86-84.4.422.213.589-.224.515-.313.5-.112 3.092.84.52.726-.034.795.132.57-.235.571-.259 1.735.079 1.594.923 1.18.83.929.66 1.298.484.402.671.202 2.126.112 3.146.112 3.028.112h.275l.641.179 2.787 1.755 2.55 1.608 2.16 1.398 2.097 1.357 2.037 1.32 1.58 1.097 1.557.336 2.532.157h1.75l1.62.459 2.407.425 1.796.224 1.088.246 3.01.257.496-.145 1.328-1.217 1.486-1.974.58-1.085 1.925-1.085 3.378-1.509 2.38-1.063 2.647-1.063 1.202.929 1.657 1.487.743.738.596.325.9.213 1.098.005h.599l1.225-.19 2.862-.18h1.637l-1.377 1.97-1.65 2.363-3.04 4.352-2.315 2.288-1.748 1.731-.16.314.006 1.928.022 4.715.034 9.431.033 9.43.034 9.431.022 4.714.005 1.585 1.534 1.983 1.5 1.936 1.982 2.562 1.062 1.374.176.459-.056.918-1.632 1.92-1.337.874-1.797.414-.538-.112-.708-.28-.277.459-.208.716-.399-.145-.3-.213.18 1.275.184.626-.27.85-.873.74-.079.626-1.891 1.646-2.682.179-1.41.817-.628.671-.477 1.463.166 2.24-.745 1.724-.142.862-1.385 1.12-.614 1.03-.453 1.04-.395.46-.468 2.34-.645 1.422-.175.47-.159.425-.5.84-.324.57-.233.38-1.636 3.644-1.276 1.646-1-.19-.665.638-.067.302-.353-.168-.836-.604-1.718-1.238-1.718-1.236-1.718-1.238-1.718-1.235-1.718-1.238-1.717-1.236-1.718-1.238-1.718-1.236-1.007-.728-.446-.425-.349-.85-.169-.213-.457-.269h-.539l-.155-.156.005-.414.187-.593.63-1.136.068-.671-.124-.761-.198-1.213-.171-.28-1.138-.638-2.386-1.332-2.386-1.331-2.385-1.332-2.386-1.331-2.384-1.332-2.387-1.332-2.384-1.33-2.385-1.333-2.385-1.332-2.386-1.331-2.384-1.332-2.386-1.332-2.385-1.331-2.386-1.332-2.386-1.331-2.384-1.332-.896-.503-.808-.426h-.853l-.033-1.906.273-4.855-.034-4.262.243-2.135 1.052-1.35.486-.985.348-1.373.55-1.12 1.25-.906.223-.503 1.323-1.523.794-1.956.598-.66.747-.616.528-.324.868-.325.68-.179.124-.157.056-.313-.226-1.212.29-.403.464-.805.53-.75.48-.481.269-.493.125-.85.022-.604-.007-.985-.15-2.244-.561-1.877-.347-2.1.255-.694-.442-1.231-.218-.112-.36-.269-.46-1.16-.346-1.062-.215-.269-1.5-.929-.746-2.185-.836-.481-.454-2.171-.09-.615.475-2.167-.045-.492-.501-.459-1.408-.47-1.142-.895.148-.313.079-.325-.601-.213-1.745-3.703 2.246-2.226 2.275-2.255 2.906-2.852 2.669-2.62 2.306-2.264 2.058-2.018-.056.38.008.515z" transform="translate(-311.028 -5.739)" id="path2" />
  </g>
</svg>
