<?xml version="1.0" encoding="UTF-8" standalone="no"?>
<svg width="26.671" height="23.54" version="1.1" id="svg6" sodipodi:docname="lesotho.svg" xmlns:inkscape="http://www.inkscape.org/namespaces/inkscape" xmlns:sodipodi="http://sodipodi.sourceforge.net/DTD/sodipodi-0.dtd" xmlns="http://www.w3.org/2000/svg" xmlns:svg="http://www.w3.org/2000/svg">
  <defs id="defs10" />
  <sodipodi:namedview id="namedview8" pagecolor="#ffffff" bordercolor="#666666" borderopacity="1.0" objecttolerance="10.0" gridtolerance="10.0" guidetolerance="10.0" inkscape:pageshadow="2" inkscape:pageopacity="0.0" inkscape:pagecheckerboard="0" />
  <g style="display:inline" id="g4">
    <path style="fill:#60e736;fill-opacity:1;fill-rule:evenodd;stroke:#505050;stroke-width:.5;stroke-linecap:round;stroke-linejoin:round;stroke-miterlimit:4;stroke-dasharray:none;stroke-opacity:1" class="polygon" d="m253.505 404.31-1.007.28h-.14l-.646-.111-.863.112-.677.156h-.526l-.858.795-1.558 2.141-.415.448-.116.84-.361.67-.443.515-.433.124-1.302-.213-1.664-.269-.968-.649-.86-.85-.455-.616-.475-.335-.164-.19-.677-.28-.256-.146-.225-.111-.273-.415-.161-.358.067-.996-.478-.593-.815-1.007-.517-.828-.706-1.131-.434-.962-.447-1.008.056-.425.428-.29 1.256-.504.975-.392.697-.716.762-1.063.37-.638.37-.291.404-.447.706-1.008.785-1.107.84-1.197 1.061-.347 1.45-.402 1.393-1.041 1.659-.884 2.677-.951 1.248-.246.474-.135.301.18.32.548.454.458 1.056.795.447.19 1.091 1.18 1.167.805 1.344.929.914.459.465.134.387.828.392.616.222.57-.045.56-.424 1.367-.62 1.398-.495.582-.605.369-.592.548-.226 1.122-.268 1.319-.772.548-.6.358-.83.437z" transform="translate(-234.402 -386.99)" id="path2" />
  </g>
</svg>
