<?xml version="1.0" encoding="UTF-8" standalone="no"?>
<svg width="81.363" height="151.416" version="1.1" id="svg6" sodipodi:docname="madagascar.svg" xmlns:inkscape="http://www.inkscape.org/namespaces/inkscape" xmlns:sodipodi="http://sodipodi.sourceforge.net/DTD/sodipodi-0.dtd" xmlns="http://www.w3.org/2000/svg" xmlns:svg="http://www.w3.org/2000/svg">
  <defs id="defs10" />
  <sodipodi:namedview id="namedview8" pagecolor="#ffffff" bordercolor="#666666" borderopacity="1.0" objecttolerance="10.0" gridtolerance="10.0" guidetolerance="10.0" inkscape:pageshadow="2" inkscape:pageopacity="0.0" inkscape:pagecheckerboard="0" />
  <g style="display:inline" id="g4">
    <path style="fill:#e77936;fill-opacity:1;fill-rule:nonzero;stroke:#505050;stroke-width:.5;stroke-linecap:round;stroke-linejoin:round;stroke-miterlimit:4;stroke-dasharray:none;stroke-opacity:1" class="polygon" d="m490.728 256.614-1.258 2.054.354-1.717 1.458-2.47.415-.19zm-17.84-39.603.012.403-1.473-.168-.232-1.402h.72l.158-.57.439-.113.472 1.246zm13.385-10.426.513 1.17.6 1.124 1.87 2.714.801 1.04.683 1.108.332 2.216 1.189 3.443 1.123 5.173.345 5.306.345 2.435.874 2.292 1.43 2.378.463 2.644-.874 2.725-1.265 2.567-.327.481-.596.66h-.269l-1.013-.66-.828-1.085-1.05-2.555-.38-1.296-.44-.201-1.227.112-.888.805-.162.504.191 1.44.337 1.296.15 1.314.022 1.655.33.503.488.425.505 1.086.09 2.58-.31 1.305-.866 1.119.056.615.32.638-.306.38-1.151.482-.467.425-.623 1.138-1.01 2.324-.136 1.188.632 3.612-.176 2.562-1.287 4.9-.738 2.323-1.046 2.779-1.604 3.662-1.589 4.598-1.349 4.73-.998 2.844-1.133 2.8-1.55 4.951-1.318 5.024-1.957 5.53-2.701 6.164-.292.806-.561 3.149-.607 2.732-.724 2.707-1.514 4.473-.172 1.38-.344 1.322-1.459 2.804-.616 1.041-.437 1.108-.245 1.405-.435 1.357-1.069 2.494L458.26 347l-1.083.783-2.346 1.132-1.19.235h-2.635l-2.552.649-2.66 1.242-2.56 1.422-.98.671-1.081.38-3.382.113-1.013-.302-3.383-2.338-1.31-.38-2.484-.325-.751-.201-.68-.303-1.005-1.221-1.993-1.03-.479-.324-.303-.717-.207-.772-.516-.861-.382-1.635-.65-1.144-1.835-2.02-.196-.649-.148-2.143.056-1.45-.179-2.655.208-1.249.644-1.126-.263-1.217-.684-1.28-.257-1.324-.505-1.205-1.921-2.172-.451-1.063-.312-1.108-.724-3.45-.09-1.2.1-2.54.268-1.308.467-.906.116-.683.304-.582.456-.47.306-.56.717-3.247.91-.727 1.348-.414 1.081-.85.621-1.146.621-2.361 1.7-2.346.606-1.232 1.37-1.862 1.214-2.62.369-1.236.264-1.265.307-2.773.232-1.38-.045-1.367-.697-1.406-1.653-2.55-.056-.481.13-1.897-.14-1.37-.609-1.367-.782-1.287-.769-2.407-.374-3.977.079-1.439-.225-1.277-.56-1.218.4-2.124 4.947-7.71.16-.906-.198-2.353.1-1.367.173-.504.377-.29.847-.146 3.998-.336.514-.235.998-.649 1.372-1.256.627-.358.542.134.347.537.445.29 1.613-.57h.621l.631.112.297-.526.177-.705.235-.492.433-.28 2.078-.157 1.325-.201 1.714-.492.37.112 1.382 1.764.42.157.537.112.47-.325-1.123-.917-.169-.526.056-.593.601-1.272 1.006-.973 2.234-1.473 2.32-1.704.673-.123.571.269.438 2.008-.056.336h.37l.433-.246.383-.806.022-.671-.311-.65-.152-.548-.011-.503 1.175-1.186.927-1.135.429-1.353.371-.627.975-.705.287.112.227.571.127.604-.25.605-.358.593-.144.794.55.157.519-.19.76-1.432.865-1.354.515-.705.65-.492 1.078.112 1.048.302-1.708-1.43-.427-1.957 2.035-3.386.022-.705.294-.213.138-.268-1.053-1.145-.2-.57.14-.862.503-.761.457-.538.649-.201.516.291 1.132.94.763.145.922-.906.754-1.126 1.134-.772 1.287-.481 1.959-1.774 1.274-3.711.1-1.086-.281-1.313-.452-1.248-.756-1.558.197-.347 1.071.202.36-.213 1.163-1.38 1.917-2.643.632.006.544.493.203.727.378.537 1.296 1.255z" transform="translate(-415.728 -202.462)" id="path2" />
  </g>
</svg>
