<?xml version="1.0" encoding="UTF-8" standalone="no"?>
<svg width="36.555" height="87.101" version="1.1" id="svg6" sodipodi:docname="malawi.svg" xmlns:inkscape="http://www.inkscape.org/namespaces/inkscape" xmlns:sodipodi="http://sodipodi.sourceforge.net/DTD/sodipodi-0.dtd" xmlns="http://www.w3.org/2000/svg" xmlns:svg="http://www.w3.org/2000/svg">
  <defs id="defs10" />
  <sodipodi:namedview id="namedview8" pagecolor="#ffffff" bordercolor="#666666" borderopacity="1.0" objecttolerance="10.0" gridtolerance="10.0" guidetolerance="10.0" inkscape:pageshadow="2" inkscape:pageopacity="0.0" inkscape:pagecheckerboard="0" />
  <g style="display:inline" id="g4">
    <path style="fill:#e79436;fill-opacity:1;fill-rule:nonzero;stroke:#505050;stroke-width:.5;stroke-linecap:round;stroke-linejoin:round;stroke-miterlimit:4;stroke-dasharray:none;stroke-opacity:1" class="polygon" d="m320.448 202.988-.394.111-.247-.201.056-.593.139-.436.393-.112.268.112.19.201.003.313-.115.325zm-.87-1.086-.22.593-.463-.008-.435-.526.139-.403.418-.123.367.157zm-14.666-27.913 1.007.996.525.134.669-.134 1.903-.112.767.145.985.582.388.112h.616l.112-.157.068-.347-.112-.693.14-.38.374-.404 1.041.47 2.6 2.168.078.28 1.658 2.151.54.907v.48l.51 1.88.114.885-.116.671.023.537.201.772-.067.325.592 1.125.283.94.056.917-.165.895-.522 1.313-.09.526.114.481.338.526.564.56.426.682.287.795.243.358.303-.007.556.123.448.47.52.783.174.895.078.38h-1.487l-1.869.146-.459.347-.137.783-.585 1.612-.326.593-.693 1.085-.972 1.526-.204.493.034.515.574 2.074.6 2.18.192.85.43 2.899.238 2.046.034 1.204.2 1.61.537.873.56.549 2.114.324.631.403 1.198 1.03 2.614 2.835 1.436 1.81 1.26 1.594 2.26 2.959 1.754 2.298.219 2.159.292.313-.591 1.598-.387 2.585.278 1.715-.116 2.925-.321 3.116-.402 1.119-.52.414-1.225.336-2.695.391-.403.37-.347.604-.545 1.434-.643 1.45-.203.615.125.145.576.739.575 1.885.1 3.237-.2.235-.796.145h-.86l-.352-.18-.318-.357-.232-.694.563-.481.2-.84-.36-.727-.722-.156-.916-.66-1.954-2.164-1.635-1.516-.946-1.258-.972-.503-.278-.313-.234-.538-.004-.76.09-.571-.304-.638-.981-.985-.448-.548-.022-.65.413-.626.839-.76.634-1.55.227-1.008 1.184-2.013.163-1.749.023-1.398-.067-1.052-.304-2.144-.21-1.484-1.458-1.94-.475-.18-1.385.168-1.197.291-.586.403h-.89l-2.333.336-.73.145-.423.347-.245.112-1.468-1.5-1.29-1.619-1.639-2.757-.467-.335-.601-.806-.497.201-.685.57-.37.158h-.193l-.12-.146-.154-.358-.53-1.04-.593-.75-.63-.291-.513-.347.226-.336.24-.235-.101-.246-.288-.358-1.115-.515-.023-.224.985-.447.623-.537.423-.515.536-1.12.436-1.118.324-.358.113-.739-.067-.839.216-1.063.112-1.007-.33-.392-.279-.671.331-1.153.52-.794 2.482-.828 1.73-.75.365-.325.588-.637.325-.627-.234-.19-1.358-.012-.335-.234-.982-2.19.544-2.511.044-.985-.01-1.222-.175-.895-.429-.38-.264-.482.067-1.311.399-.157.863-1.732.384-1.019-.46-.816-.508-1.164-.229-.739-.128-.246.352-.459.583-.447.651-.123.69-.213 2.174-2.155.022-.414-.395-.716-.811-1.086-.18-.447-.1-1.309-.323-.391-1.192-.884-.918-.929.286-.94.156-1.03-.453-.559-.677-.582-.418-.861-.19-.638-.534-.258-.487-.008-.359.392h-.388l-.468-.134-.155-.549-.022-.593-.323-.403-.31-.559-.033-.302.195-.112.41-.112 1.75 1.128 1.062.112z" transform="translate(-297.28 -172.336)" id="path2" />
  </g>
</svg>
