<?xml version="1.0" encoding="UTF-8" standalone="no"?>
<svg width="119.383" height="183.86" version="1.1" id="svg6" sodipodi:docname="mozambique.svg" xmlns:inkscape="http://www.inkscape.org/namespaces/inkscape" xmlns:sodipodi="http://sodipodi.sourceforge.net/DTD/sodipodi-0.dtd" xmlns="http://www.w3.org/2000/svg" xmlns:svg="http://www.w3.org/2000/svg">
  <defs id="defs10" />
  <sodipodi:namedview id="namedview8" pagecolor="#ffffff" bordercolor="#666666" borderopacity="1.0" objecttolerance="10.0" gridtolerance="10.0" guidetolerance="10.0" inkscape:pageshadow="2" inkscape:pageopacity="0.0" inkscape:pagecheckerboard="0" />
  <g style="display:inline" id="g4">
    <path style="fill:#368be7;fill-opacity:1;fill-rule:evenodd;stroke:#505050;stroke-width:.5;stroke-linecap:round;stroke-linejoin:round;stroke-miterlimit:4;stroke-dasharray:none;stroke-opacity:1" class="polygon" d="M299.935 367.914h-5.96l-1.722-.313-.97.112-.08-3.575-.312-.784-.332-1.148-.078-.738.208-.739.1-1.174-.089-1.03-1.03-.514-.226-.168-.223-.806-.09-1.246.72-1.59-.056-3.049.09-1.074-.012-2.121-.01-2.572-.012-2.303.033-1.987-.214-.94-.18-.515-.476-1.052-.556-2.193-.657-1.656-.846-1.097-.269-.581-.273-.773-.8-1.357-.654-.794-.178-.627.022-1.637-.727-2.941-.53-2.144-.799-2.322-.536-1.555-.078-.269-.056-.593 1.585-1.155 1.588-1.626 1.86-1.903 1.66-1.7 1.458-1.494 1.997-2.043 1.973-2.02.462-.258.195-.168-.853-1.796 1.372-2.087.078-1.355-.056-1.298.165-.593.413-.526 1.603-1.086 1.212-1.73.993-1.614 1.378-2.6.136-.615.022-.627-.382-.873-.92-1.425-.668-1.23-.594-1.896.597-1.648.212-.996-.002-.537-.264-.515-.671-.38-.556-.258-.188-.682-.005-.806.255-.448 1.483-.727.336-.392.176-.436.011-.626.457-1.57.566-1.49.034-.526-.2-.459-.156-.839-.101-1.268-.01-3.553.292-3.669-.127-2.081-.952-2.393-.09-1.725.69-1.204.114-.716-.504-.112-1.038-.112-.766-.224-1.186-.985-2.058-.828-2.335-.75-3.395-.223-2.823-2.402-2.213-.38-.712-.302-2.126-1.44-3.328-.135-3.454-.134h-2.152l-.318-.19-.125-1.986-.023-1.765-.181-1.535-.328-1.747-.502-.683-.599-1.182-.304-1.302-.034-.626.113-.224 2.398-.929 1.025-.459 1.518-.526 2.705-.738 2.414-.66 2.212-.638 2.343-.683.953-.448 1.185-.458 2.833-.918.81-.313 1.628-.515.815-.201 3.138-1.041 3.595-1.199 1.26-.425 2.402-.805.468.335 1.638 2.756 1.29 1.62 1.468 1.5.245-.112.423-.347.73-.145 2.333-.336h.89l.587-.403 1.196-.29 1.385-.168.475.179 1.458 1.939.212 1.484.303 2.144.067 1.052-.022 1.398-.165 1.75-1.184 2.012-.226 1.007-.635 1.55-.839.761-.413.627.022.649.448.548.981.985.304.638-.09.57.004.761.234.537.279.314.971.503.947 1.258 1.634 1.517 1.954 2.162.917.66.722.157.36.728-.2.839-.563.481.231.694.318.358.353.179h.859l.797-.146.2-.246-.1-3.235-.576-1.886-.576-.739-.124-.145.202-.616.644-1.449.545-1.435.346-.604.403-.37 2.695-.39 1.226-.336.52-.414.401-1.12.321-3.114.116-2.925-.28-1.716.388-2.584.59-1.6-.291-.312-.218-2.159-1.754-2.297-2.26-2.96-1.261-1.594-1.436-1.81-2.614-2.836-1.198-1.03-.63-.402-2.113-.324-.56-.549-.536-.873-.201-1.61-.034-1.204-.238-2.047-.43-2.898-.19-.85-.602-2.18-.574-2.074-.033-.514.203-.493.973-1.527.692-1.085.326-.594.585-1.61.138-.784.459-.358 1.868-.146h3.985l2.637.112.37.112.593.168h.671l.746-.224.824-.56.904-.883h1.41l1.911.928 1.044.806.177.683 1.28.402 2.383.112 1.737-.358 1.088-.828 1.137-.436h1.189l.898.28.613.615 1.169.436 1.729.269 1.889-.392 2.049-1.052 1.17-1.107.288-1.15.339-.694.39-.247 1.087-.145h1.782l1.551.358 1.977 1.142 1.248-.76 2.142-1.303 2.157-.694 2.053-.004 1.685-.492 1.316-.985 1.391-.627 1.465-.268 1.373-.47 1.92-1.03 1.987-1.491 2.028-1.52 1.299-.974.594 1.152 1.063 1.052-.633.615-.767.549 1.237.727-.907 1.108-.112.772.23.302.199.448-.595 1.268-.787.973-.204.739.697 1.313-.358 2.327.677 2.093.19 1.075.235.716-.337 1.284.09 2.166.157.895-.403 1.108.685.38.363 1.22-.1 1.374-.21.739-1.183.895-.14.347.022.526h1.477l.056.817-.101.637.056 1.211-.197.783.347.896-.423.996.146.772.023.996.343 2.514.056 3.11.079.492.526.347.74.179-.034.85-.818 1.108-.045.694.119.974.901-1.32.54.005.484.515-.067.76.166.381-.067.739.267.94-.1.817-.663.57-.843.974-.149.917.079.605-.583.19-.273.37.396.86-.022.762-1.03 2.378-2.743 3.25-1.184 1.154-1.11 1.256v.514l-.111.448-1.294 1.793-1.386.29-.77.482.601 1.579-.896.369-1.557 1.244-4.287 2.386-.678.548-1.09 1.465-1.436.358-.798.414-1.423.157-.495-.112h-.486l-.41.313-2.826 1.03-2.639.817-.649.369-.433.503-2.336.806-3.66 1.986-2.997 1.895-2.17 1.894-.572.291-.674.66-.225.974-.22.548-1.605 1.995-2.417 2.36-.47.65-.96 1.31-.09.862-.856.258-.72-.817-.305 1.586-.587.112-.651-.325-1.622.783-1.414.907-2.265 1.908-3.2 3.692-4.671 3.568-.638.112h-.431l-1.47-1.241-.801-.112.717.738.474.616-.12 1.203.056 1.805-.581 3.509.078.772.668.996 1.257 1.218 1.178 1.516 1.514 4.352.116 2.24 1.563 2.86.056 1.24.63 3.085-.044 2.494-.112 1.527.753.65.278-.582-.079-.963.202-1.55.42-.693.418.111.124.728.282.649.114.604.022.828-.58 3.146.174 1.28.78 2.137-.907 2.485-1.315 5.848-.067 1.007.318.437.708.145.26-.75.415.011.218.448-.585 2.698-.578 1.182-2.05 2.9-1.106 1.243-1.834 1.222-4.306 1.91-8.63 2.76-3.424 1.353-2.044.806-4.322 2.568-1.891 1.722-.779 1.975-.746.907-.732 1.146.638.984.628.75.74.492.383.426.502.302.506-1.546.25-.482h.432l-.239 1.888-.496 6.47zm19.643-166.012-.194-.324-.367-.157-.419.123-.139.403.436.526.462.008zm.87 1.086.299-.247.114-.324-.003-.313-.19-.202-.269-.112-.393.112-.138.437-.056.593.247.201z" transform="translate(-269.901 -184.304)" id="path2" />
  </g>
</svg>
