<?xml version="1.0" encoding="UTF-8" standalone="no"?>
<svg width="151.989" height="134.468" version="1.1" id="svg6" sodipodi:docname="namibia.svg" xmlns:inkscape="http://www.inkscape.org/namespaces/inkscape" xmlns:sodipodi="http://sodipodi.sourceforge.net/DTD/sodipodi-0.dtd" xmlns="http://www.w3.org/2000/svg" xmlns:svg="http://www.w3.org/2000/svg">
  <defs id="defs10" />
  <sodipodi:namedview id="namedview8" pagecolor="#ffffff" bordercolor="#666666" borderopacity="1.0" objecttolerance="10.0" gridtolerance="10.0" guidetolerance="10.0" inkscape:pageshadow="2" inkscape:pageopacity="0.0" inkscape:pagecheckerboard="0" />
  <g style="display:inline" id="g4">
    <path style="fill:#e736d6;fill-opacity:1;fill-rule:evenodd;stroke:#505050;stroke-width:.5;stroke-linecap:round;stroke-linejoin:round;stroke-miterlimit:4;stroke-dasharray:none;stroke-opacity:1" class="polygon" d="m193.568 264.868 2.398-.458 2.286-.437 2.66-.436 2.128-.347.535-.112 5.125.414 2.233.291.775.28 1.012.738 1.864 1.78-.479-.111-3.434.38-1.308.481-2.928 2.105-.623-.268-.702-.437-.595-.123-1.287.504-1.283.604-1.418.862-1.167.839-.381.447-1.833 1.733-.596.28-.532.122-.214-.111-.228-.739-1.123-1.739-1.803-2.28-.527-.223-.36-.112-1.337.112-3.885.649-3.275.548-5.02.929-5.39.75-3.326.459-2.892.134.002 2.257.007 4.565.006 4.565.006 4.564.007 4.566.006 4.564.007 4.565.006 4.564.006 4.567.002 1.99-.09.425h-11.118l.003 2.712.003 3.208.003 3.207.003 3.207.004 3.207.004 3.208.003 3.208.003 3.207.003 3.208.003 2.42v41.396h-1.149l-2.309.604-1.473.794-.637.974-.847.593-1.057.213-.467.492.126.783-.408.604-.94.414-1.519-.123-2.096-.66-2.667-.156-3.24.347-2.329-.157-1.417-.672-1.505-.38-1.592-.112-.923-.28-1.89-.503-.36-.862-.222-.649-.538-.694-.056-.56.422-.424.056-.683-.303-.94-.523-.459h-.74l-.462-.358-.18-.738-.437-.56-1.043-.57-1.376.436-.65.649-.38 1.018-.349.515-.174.85-.079.605-.354.637-.366.258-.376-.112-.709.257-1.556.951-.443.504-1.259-.906-3.67-3.41-1.3-.884-1.923-2.09-4.225-6.483-.603-1.247-.804-3.133-.928-2.322-.1-1.339.441-.76-.27-1.03-.476-.918-1.442-1.205-.408-4.027-.962-2.602.207-2.15-.46-1.958-.045-1.255.208-2.386-.773-2.744-1.567-2.684-1.414-3.873-.204-1.697.151-4.56-.273-1.86.011-2.187-.56-2.267-.229-1.237.394-.973.233.313.407.146.271-1.3.067-1.15-.707-2.835-1.577-2.9-3.9-4.726-.954-1.802-.545-1.493-4.35-6.227-1.86-4.395-1.299-3.796-1.413-1.751-6.533-12.325-1.45-1.966-2.607-2.352-.61-.784-1.005-2.24-1.963-3.007-.475-2.806-.132-3.18.24-2.435 1.784-.258 1.247-.649h1.123l1.108.504h1.176l.457-.112 2.113.112 1.213-.582 1.44-.582.828-.515 1.163-.526 1.544-.537h.876l1.077.202 1.433.201.809.358.959 1.133 1.484 1.03 1.093.615 1.255.805.379.314.552.167h.337l2.332-.123 2.114-.112 2.274.003 4.281.006 4.282.006 4.281.005 4.282.005 4.281.006 4.282.006 4.281.006 4.28.006 1.752.002h6.278l.356.112.36.213.294.201 1.136 1.424 1.454 1.49 1.207.705 1.447.414 1.356.157 1.264-.112 2.1.19 2.935.481 3.049.146 3.161-.201 2.223.268 1.283.727 1.314.493 1.348.257 1.821-.156 2.296-.56 1.952.112.905.414h.54l3.374-.593 2.712-.481 4.067-.761 3.354-.627 4.971-.929z" transform="translate(-62.845 -257.01)" id="path2" />
  </g>
</svg>
