<?xml version="1.0" encoding="UTF-8" standalone="no"?>
<svg width="84.337" height="97.71" version="1.1" id="svg6" sodipodi:docname="republic_of_congo.svg" xmlns:inkscape="http://www.inkscape.org/namespaces/inkscape" xmlns:sodipodi="http://sodipodi.sourceforge.net/DTD/sodipodi-0.dtd" xmlns="http://www.w3.org/2000/svg" xmlns:svg="http://www.w3.org/2000/svg">
  <defs id="defs10" />
  <sodipodi:namedview id="namedview8" pagecolor="#ffffff" bordercolor="#666666" borderopacity="1.0" objecttolerance="10.0" gridtolerance="10.0" guidetolerance="10.0" inkscape:pageshadow="2" inkscape:pageopacity="0.0" inkscape:pagecheckerboard="0" />
  <g style="display:inline" id="g4">
    <path style="fill:#367ae7;fill-opacity:1;fill-rule:evenodd;stroke:#505050;stroke-width:.5;stroke-linecap:round;stroke-linejoin:round;stroke-miterlimit:4;stroke-dasharray:none;stroke-opacity:1" class="polygon" d="m140.188 28.545.132 1.952-.84 2.428-.629 1.82-1.65 3.01-1.475 2.69-1.56 4.496.006 3.288-.168 2.065-.515 1.261-1.223 3.403-.187 2.923.44 3.575-.419 3.393-1.282 3.206-.548 2.52.321 3.038-2.35 2.528-2.954 2.514-1.916.727-1.487.84-1.06.962-.346.526-.772 1.163-1.763 3.608-.915 1.58-1.198 1.351-1.787 1.65-.656.783-.265 1.133.115 2.077.174 6.328-.3 1.838-.49 3.018-1.754 3.38-1.316 1.88-1.319.57-1.729.504-.829.638-.503.94-.966.817-1.426.705-1.801 1.718-2.173 2.735-1.486 1.568-.799.403h-.827l-.855-.324h-.712l-.362.145-.231-.123-.338-.257.01-.627-.1-1.04-.42-1.075.498-.862.446-.66-.079-.347-.445-.548-.5-.783-.47.112-.998.604-1.043.47-.974.201-.766.493-.42.257h-.656l-.367-.291-.8-.28-.436.112-.246.134-.112.996-.09.84-.158.783-.288.37-1.208.39-.819.538-.71.358-.44-.112-.878-.716-.868-.66-.483-.56-.27-.403-.176-.179h-.55l-.164.37-.276-.168-.858-.75-1.01-1.193-.369-.179h-.558l-.882.437-.87.682-1.569.627-1.308.358-.117.436-.306.739-.434.459-1.16.145-.416.66-1.002 1.28-.663.582-.174-.246-.402-.313-.822-.996-.813-1.233-.217-.56-.228-.324-.034-1.24-1.225-1.472-3.068-2.618-.33-.783-2.62-2.397.67-1.727.496-.794.602-.56 2.418-1.352.363.112 1.667 1.757.534.146h.593l.701.111.345-.346.056-.448-.507-.504-.067-.548.356-.593.202-.649.52-.772.056-.358-.55-.392-1.126-.604-.772-.582-.295-.56.211-.716.621-.582-.033-.313-.547-.526-.398-.56-.41-.346-1.133-.213.216-.75.419-1.107.1-.85-.315-2.22.034-.403.31-.201.677.246.68.336 1.853-.481.648-.112.536.425.741.336 4.274-.929.078-.94.245-.85.034-.638-.178-.414-.21-.314-.127-.637-.003-.683.409-.325 1.362-.816h.425l.955.447.894.694.793 1.47.55 1.265.877 1.534 1.864.627 2.224.402 1.204-.111 1.72-1.307.973-1.019.315-.548.567.28.64 1.341.413.515.1.492-.29.616.281.403 1.197.28 1.046-.27.475-.547.783-.717.006-.604-.42-.391v-.538l.436-.425.424-1.153.132-.84.413-.537.785-.37.284-.335.44-1.997-.227-.728v-.604l.496-.76.09-1.253-.21-2.052-.144-1.409-.15-1.475.383-1.94.399-2.019-.067-.503-.553-.616-.682-.56-1.757-.458-.653-.728-.51-.772-.373-.246-1.918-.302-.425-.436.172-1.26.17-1.858-.068-1.292.342-1.041.386-.783.847-.828.45-.974.246-.246 1.606-.157.584-.403.46-.414.193-.56.55-.917.49-.626.056-.426-.1-.581-.488-1.153-.582-.962-.352-.347-.708-2.257-.66-.537-1.282-.291-2.405-.258-1.456.414-2.214.761-1.69.526-1.098.302-.647-.112-.293-.347.427-.29.213-.683-.276-.985-.427-.895-.245-1.264.112-1.573.417-1.475.886-1.916.056-.784h5.363l2.927-.01h2.827l2.205.111 1.061-.492 1.01.75.493.167.168-.112.387.526 1.255-.112.199.123.112.638h1.163l.576.146h.467l.677-.37.487.124.883.48.63.415.88-.134 2.046.111 1.582.392 1.567 1.097 1.046.638.942.94.347-.168.327-.258.185-.112-.01-.805-.528-1.367-.205-1.16.118-.951.398-.683.68-.414.068-.649.008-.112.765-1.53.76-1.521.913-1.77.753-1.463-.1-.727.078-1.086.155-1.206-.033-.716.218-.493.524-1.798.305-1.052.451-.47.7-.335 1.019-.012 2.665-.223 2.486-.47.825-.213 1.562-.75h.6l.515.291 3.01.862.825.336.3-.112.456.112.703.01.688-.112.437.112.555.57.37-.112.483-.414.908-.425 1.748-.47.284.213.605 1.052z" transform="translate(-56.233 -26.078)" id="path2" />
  </g>
</svg>
