<?xml version="1.0" encoding="UTF-8" standalone="no"?>
<svg width="23.089" height="20.044" version="1.1" id="svg6" sodipodi:docname="rwanda.svg" xmlns:inkscape="http://www.inkscape.org/namespaces/inkscape" xmlns:sodipodi="http://sodipodi.sourceforge.net/DTD/sodipodi-0.dtd" xmlns="http://www.w3.org/2000/svg" xmlns:svg="http://www.w3.org/2000/svg">
  <defs id="defs10" />
  <sodipodi:namedview id="namedview8" pagecolor="#ffffff" bordercolor="#666666" borderopacity="1.0" objecttolerance="10.0" gridtolerance="10.0" guidetolerance="10.0" inkscape:pageshadow="2" inkscape:pageopacity="0.0" inkscape:pagecheckerboard="0" />
  <g style="display:inline" id="g4">
    <path style="fill:#ea5b4d;fill-opacity:1;fill-rule:evenodd;stroke:#505050;stroke-width:.5;stroke-linecap:round;stroke-linejoin:round;stroke-miterlimit:4;stroke-dasharray:none;stroke-opacity:1" class="polygon" d="m273.345 79.412-.368.179-.078.537.424.861 1.386 1.783.881.324.577.694.564 1.168.166 1.462-.232 1.757.138 1.307.51.861.133 1.108-.242 1.366-.294.817-.348.269-.394.112-.534-.112-.651.112-.709.257h-.444l-.276-.112-.523-.212-.825-.705-1.538.391-.416-.008-.566.336-.458.414h-.28l-.284-.112-1.326-.828h-.484l-.2 2.34-.221 1.298-.273.582-.95.56-.955.313h-.522l-2.1.179-.822.002-.452-.19-.59-1.326-1.113-.594-1.069-.28-.435.113-.387.693-.16.627-1.037-.425-.31-.526-.023-.895-.378-1.219.21-.515.406-.335.86-.638 1.309-.895.28-.426.185-.705-.078-1.647-.125-1.39.155-.493.597-1.074.8-1.097.935-1.165.563-.112.739-.436.78-.65.44-.245.365-.007 2.414-.582.24.179.39 1.12.206.157h.337l.677-.258 1.242-.873.542-.537.638-.75.815-.839.454-.738.444-.437.582-.134h.645z" transform="translate(-254.607 -78.918)" id="path2" />
  </g>
</svg>
