<?xml version="1.0" encoding="UTF-8" standalone="no"?>
<svg width="184.444" height="141.891" version="1.1" id="svg6" sodipodi:docname="south_africa.svg" xmlns:inkscape="http://www.inkscape.org/namespaces/inkscape" xmlns:sodipodi="http://sodipodi.sourceforge.net/DTD/sodipodi-0.dtd" xmlns="http://www.w3.org/2000/svg" xmlns:svg="http://www.w3.org/2000/svg">
  <defs id="defs10" />
  <sodipodi:namedview id="namedview8" pagecolor="#ffffff" bordercolor="#666666" borderopacity="1.0" objecttolerance="10.0" gridtolerance="10.0" guidetolerance="10.0" inkscape:pageshadow="2" inkscape:pageopacity="0.0" inkscape:pagecheckerboard="0" />
  <g style="display:inline" id="g4">
    <path style="fill:#e7ca36;fill-opacity:1;fill-rule:nonzero;stroke:#505050;stroke-width:.5;stroke-linecap:round;stroke-linejoin:round;stroke-miterlimit:4;stroke-dasharray:none;stroke-opacity:1" class="polygon" d="m269.77 316.908 3.018.425 2.814-.347 2.288-.112 1.76.19 1.386.414 1.014.638.056.593.078.269.535 1.554.798 2.322.53 2.144.728 2.94-.022 1.638.178.627.654.794.8 1.357.273.773.269.581.846 1.097.657 1.657.556 2.193.476 1.052.18.515.214.94-.033 1.987.011 2.303.011 2.57.011 2.124-.089 1.074.056 3.049-.72 1.589.09 1.247.223.805-.298.123-.562.146-2.585-1.28-2.521-1.351h-.364l-.531.146-1.431.984-1.334 1.537-.613 1.31-.986 1.354-1.588 2.179-.16.47-.022 1.77.078 1.685.139.235.857.112.613 1.382 1.402 2.198 2.357 1.41 2.188.639 3.055.156h2.415l-.137-1.48.236-2.383.308-1.602.336-.112.636.157.35.168.97-.112 1.722.313h2.632l2.102-.112h1.226l-.414 2.584-1.604 4.044-.546 1.854-1.368 6.63-1.785 3.34-1 1.38-2.893 2.44-.805.492-.715.313-1.268.28-4.958 4.935-1.848 2.38-1.64 3.469-1.631 1.906-2.396 4.062-2.14 3.137-2.055 2.86-3.552 3.938-1.577 1.14-1.064.525-2.823 2.286-3.973 3.675-3.043 3.258-4.549 3.697-2.633 1.618-3.955 3.186-1.102.47-4.458 2.96-3.204 1.798-5.19 2.083-2.06.582-4.923-.537-2.056.291-1.717 1.259-.16 1.807-.716.269-1.085-.112-3.441-.75-1.867.145-1.09.963-.877 1.222-2.592.112-4.616-1.265-5.429-.772-1.257-.112-2.631.94-.92.134-3.833-.201-2.127-.593h-2.034l-1.559.492-1.89.168-5.11 3.397h-2.637l-2.276.392-1.13-.011-2.112-.47h-.786l-1.202.213-1.205.593-2.74.257-1.065.504-4.634 3.102-1.055-.124-.854-.201h-2.406l-2.724-1.653-1.044.112.28-.492.078-.873-.576-.615-.389-.28h-1.069l-.568-.75-1.636-.112-.566.19h-.786l-.067-.76.067-.482-.044-.727-.197-.895-.634-.291-.487-.123-1.158.112-.798.111-.375.258-.428.66-.005 2-.574-.57-.653-1.198-.209-1.28.235-1.511 1.238-.57-.1-1.019-.262-.884-1.383-2.27-.54-1.041-1.173-.705-.912-1.694-.92-.616-.382-1.186-.898-.951-.303-1.5.495-.862.782-.47.798.738.99-.29 1.409-1.086.832-1.646.056-2.635-.214-1.645-1.118-4.253-.528-.973-2.519-3.044-2.922-4.075-3.697-6.426-1.768-3.86-2.675-7.793-2.356-4.409-2.895-4.116-.371-.27.442-.503 1.556-.95.708-.258.376.112.366-.258.355-.637.079-.605.174-.85.348-.515.382-1.018.649-.65 1.375-.436 1.043.57.438.56.18.74.461.357h.74l.523.459.304.94-.068.683-.421.425.056.56.537.693.221.65.36.86 1.89.504.923.28 1.592.112 1.505.38 1.417.672 2.33.156 3.24-.346 2.667.156 2.096.66 1.518.124.94-.415.408-.604-.125-.783.466-.492 1.058-.213.847-.593.637-.974 1.473-.794 2.309-.604h1.148v-41.118l.538.336 3.543 2.493.957 1.311.475.828 1.524 3.02 1.135 2.708.922 2.042.067.93.13.917.13.447-.09.493-.648 1.108-.663.85-.796 1.16-.078 1.534.24 1.804.489.896.613.29 1.466-.447.929.134 1.31.347 4.297-.212.52.111 1.621.124.542-.146.485-.38.562-1.086.502-.358.911-.179 1.079-.29.895-.628 1.418-2.14 2.834-1.9.87-.46.548-.514.477-.694.993-2.393.751-1.994.256-.94.67-1.535.812-.985.792-.515.396-.134 1.02-.269 1.313-.246 1.38.28 1.479.593 1.67 1.007 1.709 1.238.787.626.848.28 1.51.112h.99l1.54 1.231.779.112 1.742.37 2.151.38h1.355l1.452-.672h2.399l1.486-.179 1.091-.28.834-.581.734-.627.843-1.885.487-1.516.753-1.744.923-2.364.33-1.648.339-.459 1.34-.503 1.107-.347 2.98-.65.611-.346.557-.772 1.3-1.317 1.605-1.097.827-.627 1.517-5.342.183-.66 1.102-1.417.68-.593h.44l.623-.369.808-.738.96-.46 1.113-.167.72-.492.33-.806.574-.392h.816l.464-.257.114-.537.492-.46.872-.38.457-.447.045-.526 1.04-1.268 2.038-2.015 1.92-1.123 1.803-.223 1.708-.414 1.615-.616 1.186-.962.758-1.306 1.302-.727 2.63-.213h.14l3.197-.526 2.677.425zm-26.41 74.054-1.06.347-.84 1.197-.786 1.12-.706 1.007-.404.447-.37.291-.37.638-.762 1.063-.697.716-.975.392-1.255.503-.429.291-.056.425.448 1.008.433.973.706 1.13.517.828.816 1.008.477.593-.067.995.161.359.273.414.225.112.255.145.679.28.163.19.475.336.455.615.86.85.968.65 1.665.268 1.301.213.433-.123.442-.515.362-.672.116-.839.415-.447 1.558-2.142.859-.795h.526l.678-.156.862-.112.646.112h.14l1.007-.28 1.837-.716.83-.437.601-.358.772-.537.268-1.318.226-1.121.592-.549.605-.369.496-.582.619-1.397.424-1.369.045-.56-.222-.57-.392-.616-.387-.828-.465-.123-.914-.458-1.343-.93-1.168-.805-1.09-1.18-.448-.19-1.057-.794-.454-.459-.319-.548-.3-.18-.475.135-1.248.246-2.678.951-1.658.884-1.394 1.041z" transform="translate(-115.712 -315.07)" id="path2" />
  </g>
</svg>
