<?xml version="1.0" encoding="UTF-8" standalone="no"?>
<svg width="125.163" height="120.548" version="1.1" id="svg6" sodipodi:docname="tanzania.svg" xmlns:inkscape="http://www.inkscape.org/namespaces/inkscape" xmlns:sodipodi="http://sodipodi.sourceforge.net/DTD/sodipodi-0.dtd" xmlns="http://www.w3.org/2000/svg" xmlns:svg="http://www.w3.org/2000/svg">
  <defs id="defs10" />
  <sodipodi:namedview id="namedview8" pagecolor="#ffffff" bordercolor="#666666" borderopacity="1.0" objecttolerance="10.0" gridtolerance="10.0" guidetolerance="10.0" inkscape:pageshadow="2" inkscape:pageopacity="0.0" inkscape:pagecheckerboard="0" />
  <g style="display:inline" id="g4">
    <path style="fill:#ed6aa3;fill-opacity:1;fill-rule:nonzero;stroke:#505050;stroke-width:.5;stroke-linecap:round;stroke-linejoin:round;stroke-miterlimit:4;stroke-dasharray:none;stroke-opacity:1" class="polygon" d="m376.309 156.737-.606.145-.236-.145-.371-.47.645-.403.627-.772 1.455-1.134.495-.75.182-.156-.101.884-.82 1.931-.7.124zm-2.404-20.173.857 2.38-.112.447-.604.269h-.316l-.376-.38-.265-.806-.459.19-.782-.962h-.774l-.684-1.146.267-.996-.155-1.702.835-.873.47-1.468.539 1.007.123 1.563.727 1.838.611.57zm4.124-14.195.067.56-.171.525.033 1.692-.067 1.123-.639 1.554-.521.548-.467-.156-.383-.258-.298-.425.607-2.852-.309-2.088 1.201.201zm-101.174-43.72h35.314l.808.425.896.503 2.384 1.332 2.386 1.331 2.385 1.332 2.386 1.33 2.386 1.333 2.384 1.332 2.385 1.331 2.386 1.332 2.384 1.333 2.385 1.33 2.386 1.332 2.385 1.332 2.385 1.331 2.386 1.332 2.386 1.331 2.385 1.332 1.138.638.17.28.199 1.213.124.76-.067.672-.631 1.135-.187.593-.005.414.155.156h.539l.457.269.17.213.348.85.446.425 1.007.728 1.718 1.237 1.718 1.237 1.718 1.237 1.717 1.237 1.718 1.236 1.718 1.237 1.718 1.237 1.718 1.237.836.604.353.168-.222.94-.88 2.283-.056.95-.345 1.12-.332.738-.896 3.212-.752 1.203-1.027 2.815-.163 2.154.567 1.509.21 1.413 1.202 1.387.961.492.65.638 1.152 1.445.66 1.452 2.07.716.825 1.627-.301 1.12-.96.929-.899 1.504-.724 1.975-.011 3.019.487-.459 1.095.739.141 2.223-1.13 2.59-.347 1.21-.056 1.04.82 3.098 1.243 1.58-.09.492-.322.414 2.127 2.792-.177 2.428.797 1.89.349 1.638.525 1.257.1.861-.655.963 1.55.246.911.783.43.75h1.12l.606.515.874.425 1.933 1.263.524.638.19.37.123.234-1.299.974-2.028 1.52-1.987 1.492-1.92 1.03-1.372.47-1.466.268-1.39.627-1.316.985-1.686.492-2.053.004-2.157.694-2.142 1.302-1.248.761-1.977-1.142-1.55-.358h-1.783l-1.086.145-.39.246-.34.694-.288 1.15-1.17 1.108-2.049 1.052-1.889.392-1.729-.269-1.17-.436-.611-.616-.899-.28h-1.189l-1.136.437-1.089.828-1.736.358-2.384-.112-1.28-.403-.176-.682-1.044-.806-1.913-.929h-1.408l-.905.884-.824.56-.746.224h-.67l-.594-.168-.37-.112-2.637-.112h-2.497l-.079-.38-.174-.896-.52-.783-.447-.47-.556-.123-.303.008-.243-.358-.288-.795-.425-.682-.564-.56-.338-.526-.114-.48.09-.527.522-1.314.165-.895-.056-.917-.284-.94-.592-1.125.068-.324-.202-.772-.022-.538.115-.671-.113-.884-.511-1.879v-.481l-.54-.906-1.657-2.152-.079-.28-2.6-2.169-1.04-.47-.375.403-.14.38.112.695-.067.346-.112.157h-.617l-.388-.112-.985-.582-.766-.145-1.904.112-.669.134-.525-.134-1.007-.996-1.181-.213h-1.061l-1.75-1.128-.411.112-.195.112-.633-.302-1.194-.66-1.659-.582-1.357-.65-.603-.626-1.274-.246-1.101-.112-1.02-.582-1.056-.112-1.038-.145-.232-.392-.033-.861-.364-.224-.762-.224-.82.01-.5.123-.296-.112-.68-.503-.633-.65-.239-1.029-.958-.66-1.103-.526h-3.069l-.48-.157-.728-.526-.855-.861-.686-.985-.603-1.34-.287-.805-.339-.996-.75-1.494-1.063-2.115-.819-1.731-.883-1.863-.36-1.365-.686-1.511-1.124-1.855-.57-.728-.622-.649-1.616-1.252-1.832-1.244-.99-.84-1.332-2.49-.558-.906-.387-1.586-.293-1.646.12-.672 1.181-2.12.119-.592-.145-.806-.58-1.69-.432-1.107-.306-.94-.63-1.571-.866-2.161-.216-.94.022-.705.47-1.867.409-1.927-.011-.526 3.52.112.58-.425 1.988-1.239 2.237-2.484.447-1.03.91-1.593.895-.794.343-.549.234-.861.28-.728 1.173-1.074 1.142-.828-.078-.336-.153-.246.169-.212.624-.426 1.213-.391.237-.828-.003-.94-.197-.526.034-.604-.186-.336-.792-.112-1.177-.47-1-.201-.665-.269-.247-.213-.112-.57.193-.616.1-.179.256-.66-.436-.392-.115-.19.2-.313 1.026-2.095.222-.29h.445l.708-.258.651-.112.534.112.394-.112.347-.269.294-.817.242-1.365-.133-1.108-.51-.861-.138-1.307.233-1.758-.167-1.46-.564-1.169-.576-.694-.882-.324-1.386-1.783-.424-.861.078-.537.369-.18.111-.111.882.112.828-.202.775-.492.752-.146z" transform="translate(-259.816 -78.147)" id="path2" />
  </g>
</svg>
