<?xml version="1.0" encoding="UTF-8" standalone="no"?>
<svg width="61.109" height="64.23" version="1.1" id="svg6" sodipodi:docname="uganda.svg" xmlns:inkscape="http://www.inkscape.org/namespaces/inkscape" xmlns:sodipodi="http://sodipodi.sourceforge.net/DTD/sodipodi-0.dtd" xmlns="http://www.w3.org/2000/svg" xmlns:svg="http://www.w3.org/2000/svg">
  <defs id="defs10" />
  <sodipodi:namedview id="namedview8" pagecolor="#ffffff" bordercolor="#666666" borderopacity="1.0" objecttolerance="10.0" gridtolerance="10.0" guidetolerance="10.0" inkscape:pageshadow="2" inkscape:pageopacity="0.0" inkscape:pagecheckerboard="0" />
  <g style="display:inline" id="g4">
    <path style="fill:#f0b576;fill-opacity:1;fill-rule:evenodd;stroke:#505050;stroke-width:.5;stroke-linecap:round;stroke-linejoin:round;stroke-miterlimit:4;stroke-dasharray:none;stroke-opacity:1" class="polygon" d="M311.316 78.682h-34.623l-.752.145-.774.493-.828.201-.882-.112-.112.112-.448-.011h-.644l-.583.134-.445.437-.454.738-.816.84-.637.75-.542.536-1.242.873-.677.258h-.337l-.206-.157-.39-1.12-.24-.18-2.414.583-.366.008.034-.347-.178-2.634-.023-1.612.315-1.007.183-1.164.023-1.03.443-1.746-.164-1.052.573-3.671.151-.593.222-1.774.358-.548.314-.213.412-1.085.792-1.74.549-.894-.119-1.958.09-1.33.125-.29 1.17-.493 1.516-1.231.64-1.447.906-.918 1.754-.593.003-.002 5.198-4.966 2.419-2.677 1.05-1.37.034-.493.202-.649-.422-.503-.503-.46-.168-.424-.434-.213-.62.007-.413-.302-.466-.604-.467-.38h-1.475l-1.135-.616.01-.84.445-1.652.863-1.891.045-.526-.121-.448-.208-.38-.391-.38-.364-.448.283-1.361.543-1.334.446-.671.435-.75-.124-.616-.635-.302.331-.593.685-1.007 1.328-1.018 1.167-.683.779-.004 1.516.537 1.37.638h.753l.914-.268 1.893-1.132.454.358.555.683.599 1.136 1.191.515.573.358.408.112.227-.112.453-.896.546-.48 1.009-.616 2.227-.493 1.591-.145.674-.112 1.13-.29 1.781-.918 1.755 1.18 1.905.224 1.846-.008.562-.358.324-.28 1.937-1.941 2.624-2.63 1.745 3.705.6.213-.078.324-.147.313 1.142.896 1.407.47.501.458.045.493-.474 2.165.09.615.454 2.172.836.482.745 2.184 1.5.929.215.268.347 1.063.459 1.16.36.268.218.112.444 1.231-.256.694.347 2.101.56 1.877.152 2.243.007.985-.022.604-.126.85-.268.493-.48.481-.53.761-.464.806-.29.403.225 1.212-.056.313-.123.157-.68.179-.869.324-.528.325-.746.615-.599.66-.793 1.958-1.323 1.521-.224.504-1.25.906-.55 1.12-.348 1.372-.485.985-1.052 1.352-.243 2.134.033 4.262-.273 4.852z" transform="translate(-262.487 -20.096)" id="path2" />
  </g>
</svg>
