<?xml version="1.0" encoding="UTF-8" standalone="no"?>
<svg width="131.233" height="110.763" version="1.1" id="svg6" sodipodi:docname="zambia.svg" xmlns:inkscape="http://www.inkscape.org/namespaces/inkscape" xmlns:sodipodi="http://sodipodi.sourceforge.net/DTD/sodipodi-0.dtd" xmlns="http://www.w3.org/2000/svg" xmlns:svg="http://www.w3.org/2000/svg">
  <defs id="defs10" />
  <sodipodi:namedview id="namedview8" pagecolor="#ffffff" bordercolor="#666666" borderopacity="1.0" objecttolerance="10.0" gridtolerance="10.0" guidetolerance="10.0" inkscape:pageshadow="2" inkscape:pageopacity="0.0" inkscape:pagecheckerboard="0" />
  <g style="display:inline" id="g4">
    <path style="fill:#bfe736;fill-opacity:1;fill-rule:evenodd;stroke:#505050;stroke-width:.5;stroke-linecap:round;stroke-linejoin:round;stroke-miterlimit:4;stroke-dasharray:none;stroke-opacity:1" class="polygon" d="m300.313 172.739.033.302.31.56.323.402.022.593.155.549.468.134h.388l.358-.392.487.008.534.258.19.637.418.862.677.582.453.56-.156 1.029-.286.94.917.929 1.193.884.322.391.1 1.308.18.448.812 1.085.395.717-.022.414-2.175 2.155-.69.212-.65.123-.584.448-.352.459.128.246.23.739.507 1.163.46.817-.384 1.019-.863 1.732-.398.156-.067 1.312.264.481.429.38.174.896.011 1.222-.044.984-.544 2.511.982 2.19.335.235 1.358.012.234.19-.326.626-.587.638-.366.325-1.729.75-2.483.828-.519.794-.331 1.153.278.671.33.392-.111 1.007-.216 1.063.067.84-.113.738-.325.358-.435 1.119-.535 1.119-.423.514-.623.538-.985.447.023.224 1.115.515.288.358.1.246-.239.235-.226.336.514.347.628.29.595.739.529 1.04.153.37.121.145h.193l.37-.156.685-.57.497-.202.6.805-2.401.806-1.26.414-3.596 1.199-3.137 1.04-.816.202-1.627.514-.81.314-2.834.917-1.184.459-.953.448-2.343.682-2.212.638-2.414.66-2.706.739-1.518.526-1.025.459-2.397.928-.113.224.033.627.305 1.302.598 1.182.503.683.327 1.747.182 1.536-1.627.004-2.862.006-2.97.005-2.71.582-2.232.895-2.656 1.396-.867.549-.671.425-.42.537-.21 1.187v1.834l-.269 1.32-.808 1.21.001-.003-4.037 1.464-2.642 1.197-2.59 1.415-1.967 1.837-1.34 2.257-2.225 2.795-2.262 2.422-2.406 2.575-2.695.928-2.265-.212-2.732-1.04-2.169-.202-1.607.649-1.484-.202-1.362-1.052-1.14-.38-.924.28h-1.179l-2.16-.582-1.864-1.78-1.011-.739-.776-.28-2.232-.29-5.125-.415-.535.112-2.129.347-2.66.436-2.286.437-2.397.459-2.227-1.861-2.527-2.11-2.617-2.356-1.97-1.847-.967-1.063-1.728-1.405-1.244-.683-.484-.347-1.236-3.741-.677-3.438v-2.59l-.001-3.591-.001-3.591-.001-3.59-.001-3.59-.001-3.592-.002-3.59v-3.592l-.001-3.59-.001-1.745h21.469l.733-.112.056-.347-.958-1.767.045-.627.255-1.198.396-1.03.521-1.36.056-.806-.42-2.606.033-1.454.124-1.51.117-1.432-.145-.995.177-.549.311-.772.164-.884.194-.38-.056-.347-.177-.65-.173-1.464-.244-2.035-.244-1.467.405.111.847.135.41.716.24.783h.568l1.485.47.512.65.343 1.401-.206.716-.479.582.479.515.992.347.582-.112 1.676-.962.67-.168.875-.19.789-.247 2.228-.436 1.218-.19.684-.347h.479l.342.28-.307.996-.101.895.426 1.663.321.783.717.57.521.292.582.604 1.197-.112 2.64.85.803.392 1.112.392.788.145 2.722.302 1.007.202 1.866.268h1.491l1.056-.123.743-.246.452-.269.21-.235.306-.828.557-1.8.217-.537.552-.246.714-.157.416.29.466 1.998 2.077 1.802.71 1.512.518 1.294.452.358.79.448 1.258.157h1.126l2.366.928 1.885.739 1.347.526.618.403.432.66.257.515.412 1.33.443 1.051.722.201.643.112.64.716.481.638.958 1.539.704 1.063.23 1.03.806.693 1.09.291h1.01l.58-.302 1.434-.537 1.115-.616.814-.212.482.134.37.425.195.828.044.46.794.436.587-.18.225-.503.011-.257-.002-2.263-.002-1.963-.003-1.847-.002-2.25v-1.962l-.003-1.617-.002-1.685-.509.112-.644.38h-1.48l-.577.291-.182.436.116.571.033.772-.216.358-.649.146-.938-.291-1.707-.392-1.419-.235-1.017-1.018-1.381-1.536-.902-.773-2.18-1.602-.37-.325-.661-.75-.567-1.273-.278-.85-.264-.627-.293-.94.526-1.439.74-2.74.533-1.973.294-1.464 1.059-1.49.078-1.332-.426-1.71.112-.94.067-2.396.056-2.016.011-.985-.29-1.705-.712-1.889-1.57-2.63.004-.559.936-.615 1.48-1.086.725-.649.867-.917.39-.47.85-1.178.54-.95.186-1.235-.406-1.173.829-.235 2.723-.414 3-.459 3.161-.48 3.191-.482 3.09-.47 2.802-.425 1.939-.291.286.806.604 1.34.685.984.855.861.728.526.48.157h3.07l1.103.526.958.66.24 1.03.631.649.68.503.296.112.5-.123.82-.011.763.224.363.223.034.862.231.392 1.039.145 1.056.112 1.02.582 1.1.112 1.275.235.603.627 1.357.649 1.66.581 1.192.66z" transform="translate(-177.623 -158.833)" id="path2" />
  </g>
</svg>
