<?xml version="1.0" encoding="UTF-8" standalone="no"?>
<svg width="87.594" height="76.163" version="1.1" id="svg6" sodipodi:docname="zimbabwe.svg" xmlns:inkscape="http://www.inkscape.org/namespaces/inkscape" xmlns:sodipodi="http://sodipodi.sourceforge.net/DTD/sodipodi-0.dtd" xmlns="http://www.w3.org/2000/svg" xmlns:svg="http://www.w3.org/2000/svg">
  <defs id="defs10" />
  <sodipodi:namedview id="namedview8" pagecolor="#ffffff" bordercolor="#666666" borderopacity="1.0" objecttolerance="10.0" gridtolerance="10.0" guidetolerance="10.0" inkscape:pageshadow="2" inkscape:pageopacity="0.0" inkscape:pagecheckerboard="0" />
  <g style="display:inline" id="g4">
    <path style="fill:#3b36e7;fill-opacity:1;fill-rule:evenodd;stroke:#505050;stroke-width:.5;stroke-linecap:round;stroke-linejoin:round;stroke-miterlimit:4;stroke-dasharray:none;stroke-opacity:1" class="polygon" d="m282.05 318.149-1.013-.638-1.386-.414-1.76-.19-2.289.111-2.814.347-3.018-.425-3.224-1.196-2.677-.425-3.196.526h-.141l-.555-.403-.873-.873-1.46-.157-.394-.201-.326-.325-.212-.414-.079-.458.24-1.44-.13-.156-.39-.168-.8-.168-1.92-.649-2.414-.627-3.92-.693-1.523-.18-.352-.212-.442-.526-.752-1.653-.708-1.096-1.687-1.684-.268-.526.09-1.336.124-1.086.18-.917-.078-.862-.022-1.063.056-.716-.227-.314-.612-.212-1.742-.112h-2.106l-.067-1.086-.2-1.676-.394-.962-.485-.504-.967-.526-1.959-.716-2.669-1.085-2.278-1.614-2.614-2.006-.816-.347-.963-1.883-1.469-3.225.09-1.075-.222-.525-1.426-1.585-.315-.817-.252-.828-2.271-2.32-.772-1.019-.588-1.301-.585-1.041-.493-.414-.647-.705-.449-.806-.205-.604.168-.806.22-.56 2.16.583h1.18l.922-.28 1.141.38 1.362 1.052 1.484.202 1.607-.65 2.17.202 2.731 1.04 2.264.213 2.696-.928 2.406-2.575 2.262-2.422 2.225-2.795 1.34-2.258 1.966-1.837 2.591-1.415 2.642-1.196 4.037-1.465v.002l.807-1.209.269-1.32v-1.833l.211-1.188.42-.537.671-.426.868-.548 2.655-1.395 2.231-.896 2.712-.581 2.969-.006 2.862-.006 1.627-.004.022 1.764.126 1.986.317.19h2.153l3.453.146 3.329.134 2.125 1.44.713.303 2.213.38 2.823 2.402 3.395.223 2.335.75 2.058.828 1.185.985.767.224 1.037.112.505.111-.114.717-.69 1.204.09 1.725.951 2.393.128 2.081-.292 3.67.01 3.552.1 1.268.156.84.2.458-.033.526-.566 1.49-.457 1.57-.011.626-.176.447-.337.392-1.483.727-.255.448.005.806.188.682.556.247.672.38.264.515.002.537-.213.996-.596 1.648.594 1.897.668 1.228.92 1.426.381.873-.022.626-.135.616-1.378 2.6-.994 1.614-1.212 1.73-1.603 1.085-.413.526-.164.594.056 1.298-.079 1.355-1.371 2.087.853 1.796-.195.167-.462.258-1.974 2.02-1.996 2.044-1.46 1.494-1.658 1.7-1.86 1.903-1.589 1.626z" transform="translate(-213.964 -242.236)" id="path2" />
  </g>
</svg>
