<?xml version="1.0" encoding="UTF-8" standalone="no"?>
<svg width="218.075" height="150.007" version="1.1" id="svg20" sodipodi:docname="australia.svg" xmlns:inkscape="http://www.inkscape.org/namespaces/inkscape" xmlns:sodipodi="http://sodipodi.sourceforge.net/DTD/sodipodi-0.dtd" xmlns="http://www.w3.org/2000/svg" xmlns:svg="http://www.w3.org/2000/svg">
  <defs id="defs24" />
  <sodipodi:namedview id="namedview22" pagecolor="#ffffff" bordercolor="#666666" borderopacity="1.0" objecttolerance="10.0" gridtolerance="10.0" guidetolerance="10.0" inkscape:pageshadow="2" inkscape:pageopacity="0.0" inkscape:pagecheckerboard="0" />
  <g style="display:inline" id="g18">
    <g style="stroke-width:.865384" id="g16">
      <path d="M140.084 154.648c-2.739-.189-2.746 3.376-2.52 4.479-1.503-4.763-9.176-.446-5.2 3.103 1.45 1.148.39 5.447 3.85 5.456 3.061.598 2.597-5.095 5.304-2.95.29 3.03 4.574 1.74 5.503 2.065-3.79 3.487 2.898 8.84 4.897 3.877 1.735-2.694-2.663-5.105-2.902-4.957 4.811-1.55.998-8.593-2.957-5.711-1.33 1.487-1.37-2.411-2.688-3.213-1.205-.65-1.626-2.339-3.287-2.149zm20.63 5.805c-5.08.63-.943 8.484 2.46 4.713 1.757-1.883.114-5.036-2.46-4.713zm-14.204.701c.476.352-1.086-.536 0 0zm9.25 11.957c-2.338.692-2.256 3.39-4.553 4.336-2.721 3.183 2.833 6.544 4.9 3.442 1.486 1.523 1.354 2.436 1.346 4.408 1.961 4.228 7.609-.654 4.576-3.365.032-2.254 1.824-3.603 1.483-5.928-.497-2.493-3.834-2.501-5.002-1.617-.582-.891-1.694-1.42-2.75-1.276z" style="display:inline;fill:#c1ddf3;fill-opacity:1;stroke:#e77936;stroke-width:.865384;stroke-linecap:butt;stroke-linejoin:bevel;stroke-miterlimit:4;stroke-dasharray:none;stroke-opacity:1" transform="translate(-18.95 -158.977) scale(1.15556)" id="path2" />
      <path style="display:inline;opacity:1;fill:#fff;fill-opacity:1;fill-rule:evenodd;stroke:#e77936;stroke-width:.865384;stroke-linejoin:round;stroke-miterlimit:4;stroke-dasharray:none;stroke-opacity:1" d="M138.707 161.623c-.092.024.036.056 0 0z" transform="translate(-18.95 -158.977) scale(1.15556)" id="path4" />
      <path d="M152.779 198.365c-.205 2.45.682.102 0 0zM16.616 192.88c.93 3.748 1.213.267 0 0zm.58-1.732c-.235 1.798.288-1.377 0 0zm.105-.956c-.114 1.34.276-.898 0 0zm60.872-47.95c-1.492-.627-1.407 1.495-2.123-.13-2.302.36 3.118 3.777 2.974.258-.656-1.202-.84-.457-.85-.128zm-2.257 1.599c-.401-1.81-1.332-1.52-1.119-.397-1.417.102.477.478 1.119.397zm70.741 78.887c1.842-3.715 1.697-.844 3.366-5.064 1.834-4.295 3.236-11.378 3.297-14.924-1.101-2.476-1.97-4.105-1.52-6.85-.175-1.835-.016-2.849-1.746-4.65-.684-2.408-2.996-3.621-4.33-4.723-2.423-1.03-1.44-4.579-1.96-4.965-.402-1.349-.202 2.108-2.074-1.239-.35 1.695-1.171 1.416-1.848.032-.36-2.455-.669-2.667-1.592-4.306-2.154-1.43.218-1.996-1.67-3.112-1.607-.123-3.446-1.643-3.97-2.515-2.73-.198-5.155-3.283-4.246-6.409-.555-2.568-2.582-3.394-2.83-7.304.757-2.048-1.547-3.296-2.932-4.371-2.16 2.25-3.242-2.324-3.057-4.924-1.515-.962-.868-3.067-2.219-4.426.366-2.628-1.654-1.617-.932-2.676-1.552-.637-1.568 2.613-1.743 2.924.18 1.372-.472 1.005-.823 2.158-1.344 1.585.195-.151.112 1.377 1.933.98-1.836-.014-.387 2.113.666.523-.14.597-.63.886.078 1.25.044 6.86.188 7.987-1.207.363-.508 2.804-1.647 3.516.417 2.836-5.741 3.836-5.55 1.97-.902-1.763-6.196-2.947-6.298-4.272-.882-.33-2.743-1.18-2.951-1.028-.745.753-1.587-3.271-3.946-2.218.586.569-1.074-1.629.449-3.456 2.529-1.035-.745-3.288 1.67-3.524 1.042-.246 1.405-.414 1.35-1.643.578-.305 1.782-2.373.517-1.673-1.435-2.144-.756-.488-1.639.542-1.915 1.294.199-2.32-1.544-.503.41-1.85-1.624.476-2.443-.023-1.268-1.39-1.029-.305-2.805-.761.045.884-1.283-1.852-2.308-.984-1.68-.495-3.346-1.927-4.42-2.021.473 1.094-2.47-.954-.37 1.12 2.421-.995 2.03 1.578 1.727 2.078-1.305 1.69-.172 1.622-1.188.188-1.48 1.598-3.652-1.176-4.383.559-.567.738.396 1.407-.66.803-1.02-1.54.18 1.267-.773.561-1.599-.594-.113 2.78-1.393 2.501-1.088.638-2.474 2.543-2.114 3.48.926 1.185 2.043 1.049.713 1.739-.031 2.224-1.54-1.772-1.62.78-.34-1.451-3.379-1.383-2.853-.336-1.368-1.024.775 3.004-.824.43-1.416 3.782.032-1.307.259-1.668-2.119-1.83-2.614-3.029-4.892-3.225.547 1.688-1.276.784-1.826 1.062-.677-1.193-.25-.165-.684 1.12-.384 1.099-1.35.489-1.2-.609-.024 1.592-2.116.87-1.216 2.34 1.023.637.703 1.389-.617.48-1.059.224-.592.685-.035 1.118 1.252 1.341-.6-.09-1.382-.36-.01.66-1.837 2.097-.332 1.996 1.423-1.521-.27.555.021 1.204-2.138-.184 3.325 1.325-.762.777 1.136 1.384-1.759-1.486-1.339-.166-.268.248-1.54-1.565-1.015-.19.23.636-.9.372-.351 1.114 1.372.64 1.383 2.17.445 1.654-.592-.692.276 3.84-.998.745-1.312-2.346-1.02-4.165-2.823-1.63-2.213.758.504 5.036-2.534 5.84-.836 3.186-4.811 5.804-8.214 5.299-1.669 1.232-3.764.91-5.204 2.421-2.824.597-3.63-1.237-5.897 1.255-1.068 1.711-3.97 2.336-4.296 3.022-.644 1.834-1.866 3.686-2.286 1.54-.645-4.172-1.169 3.404-1.547 4.985-3.238 3.357 4.084 7.995 1.285 10.274-.793-1.383-.974-1.636-1.968-2.871 1.531 1.706 1.263 5.305.23 2.606-1.783-2.654.137 1.51 2.024 4.571 2.416 5.359 2.924 11.314 5.524 16.887-.17 2.857-.012 7.12-2.562 7.455-.367 3.483 6.338 5.683 7.985 5.118 1.878.587 2.313.199 3.697-1.096 3.48-.98 3.534-2.93 7.52-3.533 3.44-.305 5.96.48 8.863.196 3.617-5.458 10.735-6.646 17.237-8.095 5.835-3.081 11.4-.568 16.466 1.126 1.444-1.078 1.647 1.556 3.138 1.93-1.545.942.543 2.259 1.41 2.099.602 2.104 4.16 6.731 1.454 5.423 2.152 1.58 2.886 2.431 2.683-.06 1.804-2.305 4.254-3.112 5.619-6.107.755-2.329.994-1.268 1.36.44-1.075 1.847-1.646 5.729-2.558 7.184-3.448 2.851 4.106.665 2.693-2.995 3.92 1.967-2.083 7.59 3.03 5.897 4.51 2.86 1.134 9.917 7.708 10.888 2.124.48 6.037 2.58 8.71 2.063 3.114-1.848 2.414-1.936 2.538-2.75 3.532-2.199-1.135 3.908 2.122 1.33 1.055-.659 1.224 1.701 2.6 2.358 1.325.467 2.283 1.107.742-.758 4.019-.456 6.347-5.42 11.38-4.235 2.608-1.942.515-6.379 2.701-9.25 1.753-1.884 1.333-3.821 2.744-6.407.632-.23.113-2.36 1.2-2.656zM82.713 141.11c-.714 1.313.71.48 0 0zm-25.01 12.06c-.235 1.328.518-.677 0 0zM25.17 175.326c-.034-1.088-.834 1.15 0 0zm109.36 74.511c-1.896 1.302 2.998 3.034.253.22l-.239-.213zm-34.857-16.031c3.265-.776-.579-2.005-2.794-1.223-2.63 1.953 2.324 1.21 2.794 1.223zm24.75 19.862c-.984.487 1.073.595 0 0zm-3.47-2.102c2.157-2.067-1.31-4.106 0 0zm6.89 4.103c-1.553-.931-4.818-3.084-4.377-.003-.25 2.068 4.579 8.004 1.71 5.086.36 3.033 2.046 4.76 3.158 5.175-.035-.186-1.165 1.156 1.589 1.021 1.981 1.21 1.316-2.9 1.414-1.828 1.613 1.612.26-4.085 1.487-.72-.522-1.174 1.506-.207 1.412-2.067 1.773-1.801 1.436-2.67 1.5-5.8 1.305-3.661-7.246-1.494-3.896.668-1.679-2.577-1.743-.153-3.997-1.531zm6.598 8.728c.125-1.417-1.747 1.187-.245.6.8 1.274.275-.531.245-.6zm-1.795 1.09c.084-1.723-1.693 2.316-.189.86.346-.31-.615-.595.19-.86zm-9.033-12.396c.106 1.084.47-1.12 0 0zm.564-.388c-.26.684.699-.314 0 0zm11.865-.187c-3.384-.847.561 1.434 0 0zm-.629.544c-1.03-.094.29.919 0 0zm-9.923-9.206c1.256.502.178-1.22 0 0zm9.39 19.044c.423.538-.036-1.207 0 0zm-9.77-18.66c.128.73 1.32-.12 0 0zm20.234-58.191c1.374.158-1.555-2.058 0 0zm7.629 14.919c.924-1.418-.666-1.782 0 0zm-1.06-3.314c-.264 1.432.504.537 0 0zm-23.006-31.097c-1.304-1.144.472 1.464 0 0zm22.841 27.11c1.763-3.71-.27-6.857 0 0zm-36.917-55.557c.69.412-.108-.88 0 0zm.799.077c-.73-.825-.47 1 0 0zm-.473 1.458c-1.023.553.934.776 0 0zm-23.227 5.288c-.457.87 1.786-.808 0 0zm-9.424-1.614c.61.825.523-.486 0 0zm22.508 17.356c1.875.414 1.857-2.32 0 0zM96 156.751c-.292 1.124.95-.423 0 0zm1.43.556c.956 1.467.473-1.22 0 0zm-.966-15.375c1.164-2.289-1.321 1.956 0 0zm9.77 20.264c-.124-.838-1.015.37 0 0zM95.77 152.052c2.527 1.004.932-1.124.879-1.819-.67.028-1.57 2.148-.88 1.82zm-.53-1.589c-1.019-.742-.357 1.016 0 0zm.254-7.55c-1.674.674-.074.484 0 0zm-1.533.71c-2.145 1.107-.672 1.55 0 0z" style="opacity:1;fill:#e77936;fill-opacity:1;fill-rule:evenodd;stroke:#505050;stroke-width:.432692;stroke-linejoin:round;stroke-miterlimit:4;stroke-dasharray:none;stroke-opacity:1" transform="translate(-18.95 -158.977) scale(1.15556)" id="path6" />
      <path d="M50.607 142.328c-3.982.168-3.593 5.8.079 6.156 4.385 2.42 6.066-4.523 1.718-5.588a2.839 2.839 0 0 0-1.797-.568z" style="display:inline;fill:#c1ddf3;fill-opacity:1;stroke:#e77936;stroke-width:.865384;stroke-linecap:butt;stroke-linejoin:bevel;stroke-miterlimit:4;stroke-dasharray:none;stroke-opacity:1" transform="translate(-18.95 -158.977) scale(1.15556)" id="path8" />
      <path style="display:inline;opacity:1;fill:#fff;fill-opacity:1;fill-rule:evenodd;stroke:#e77936;stroke-width:.240518;stroke-linejoin:round;stroke-miterlimit:4;stroke-dasharray:none;stroke-opacity:1" d="M50.427 145.299c-.01-.037-.06-.003 0 0z" transform="translate(-18.95 -158.977) scale(1.15556)" id="path10" />
      <path d="M201.635 203.031c-5.71.485-.99 9.532 2.545 4.78 1.32-1.913-.1-4.951-2.545-4.78z" style="display:inline;fill:#c1ddf3;fill-opacity:1;stroke:#e77936;stroke-width:.865384;stroke-linecap:butt;stroke-linejoin:bevel;stroke-miterlimit:4;stroke-dasharray:none;stroke-opacity:1" transform="translate(-18.95 -158.977) scale(1.15556)" id="path12" />
      <path style="display:inline;opacity:1;fill:#fff;fill-opacity:1;fill-rule:evenodd;stroke:#e77936;stroke-width:.865384;stroke-linejoin:round;stroke-miterlimit:4;stroke-dasharray:none;stroke-opacity:1" d="M201.772 206.299c.078.091.06-.122 0 0zm.134-.256c-.013-.571-.533.061 0 0z" transform="translate(-18.95 -158.977) scale(1.15556)" id="path14" />
    </g>
  </g>
</svg>
