<?xml version="1.0" encoding="UTF-8" standalone="no"?>
<svg width="40.149" height="60.088" version="1.1" id="svg10" sodipodi:docname="cook_islands.svg" xmlns:inkscape="http://www.inkscape.org/namespaces/inkscape" xmlns:sodipodi="http://sodipodi.sourceforge.net/DTD/sodipodi-0.dtd" xmlns="http://www.w3.org/2000/svg" xmlns:svg="http://www.w3.org/2000/svg">
  <defs id="defs14" />
  <sodipodi:namedview id="namedview12" pagecolor="#ffffff" bordercolor="#666666" borderopacity="1.0" objecttolerance="10.0" gridtolerance="10.0" guidetolerance="10.0" inkscape:pageshadow="2" inkscape:pageopacity="0.0" inkscape:pagecheckerboard="0" />
  <g style="display:inline" id="g8">
    <g style="stroke-width:.865384" id="g6">
      <path d="M316.014 131.256c-5.54.753-.457 9.208 2.927 4.662 1.489-2.033-.637-4.81-2.927-4.662zm-10.338 3.756c-5.081.78-1.344 9.907 2.713 5.93 1.226-1.84.293-6.583-2.713-5.93zm-15.846 2.916c-3.433.487-2.858 4.25-.998 5.836 1.902 4.897 8.108-.984 3.844-3.39-.014-1.459-1.388-2.69-2.846-2.446zm9.016 8.006c-4.55.494-2.112 7.924 1.828 5.357 2.73-1.595 1.066-5.565-1.828-5.357zm-.092 16.691c-4.874.665-1.484 8.52 2.219 4.93 1.934-1.778.336-5.161-2.22-4.93zm11.363 2.969c-3.882.265-3.018 6.384.737 5.85 2.313.815 2.946 4.493 5.85 3.722 3.514 2.877 6.647-3.477 2.638-5.14-1.853-1.041-3.757-.231-4.77-2.567-2.143.112-2.289-2.08-4.455-1.865zm7.395 4.662c.369.422-.308-.262 0 0zm-7.405 3.82c-5.32.902-.914 8.746 2.555 4.608 1.532-1.848-.178-4.95-2.555-4.608zm6.057 2.512c-4.64.84-1.14 8.284 2.416 4.943 2.075-1.812.205-5.388-2.416-4.943z" style="display:inline;fill:#c1ddf3;fill-opacity:1;stroke:#e52222;stroke-width:.865384;stroke-linecap:butt;stroke-linejoin:bevel;stroke-miterlimit:4;stroke-dasharray:none;stroke-opacity:1" transform="translate(-331.542 -151.167) scale(1.15556)" id="path2" />
      <path style="display:inline;opacity:1;fill:#fff;fill-opacity:1;fill-rule:evenodd;stroke:#e52222;stroke-width:.865384;stroke-linejoin:round;stroke-miterlimit:4;stroke-dasharray:none;stroke-opacity:1" d="M316.256 134.284c-.042-.183-.198-.255 0 0zm.423-.075c-.066-.102-.083-.06 0 0zm-.611 38.282c-.215-.409-.238.32 0 0zm.123-38.488c.007-.079-.047-.012 0 0zm.413.1c-.003-.087-.015-.057 0 0zm-.162-.133c.406.092-.366-.133 0 0zm-5.923 43.048c.008-.6-.77.126 0 0zm5.87-42.657c-.223-.282.25.383 0 0zm.327-.03c.064-.041 0-.087 0 0zm-26.77 6.2c.044.046.087-.09 0 0zm9.059 24.836c.004-.078-.09.008 0 0zm-9.021-24.662c-.064.046-.02.01 0 0zm-.093-.034c-.03-.047-.09.036 0 0zm16.26-1.642c0-.135.008.286 0 0zm.104-.127c-.101-.044.359.392 0 0zm-.328-1.19c-.068.068.15-.022 0 0zm.452 1.45c.193-.092-.05-.008 0 0zm4.148 29.53c.03-.123-.04 0 0 0zm5.735-34.735c.07-.016-.181-.035 0 0zm-5.74 34.645c.05-.009-.037-.068 0 0zm2.646 1.339c.065.007-.227-.173 0 0zm2.184 1.879c.079.053.05-.06 0 0zm1.926.203c.193.313.102-.364 0 0zm-4.052-2.139c-.003.001.06-.028 0 0zm-14.33-4.303c.023-.041-.05-.01 0 0zm.247-.067c.003-.066-.062.014 0 0zm11.31 2.9c-.04.026.044.052 0 0zm-11.51-2.736c.03-.048-.04-.03 0 0zm.052.02c.05-.037-.074-.041 0 0zm-7.603-22.756c-.017.069.083 0 0 0zm14.595-5.278c-.086.024-.09-.046 0 0zm4.409 30.627c-.256.487.124-.025 0 0zm6.376 11.178c-.347-.528-.317.37 0 0zm1.852-6.36c-.066-.565-.237.267 0 0z" transform="translate(-331.542 -151.167) scale(1.15556)" id="path4" />
    </g>
  </g>
</svg>
