<?xml version="1.0" encoding="UTF-8" standalone="no"?>
<svg width="34.897" height="44.99" version="1.1" id="svg10" sodipodi:docname="fiji.svg" xmlns:inkscape="http://www.inkscape.org/namespaces/inkscape" xmlns:sodipodi="http://sodipodi.sourceforge.net/DTD/sodipodi-0.dtd" xmlns="http://www.w3.org/2000/svg" xmlns:svg="http://www.w3.org/2000/svg">
  <defs id="defs14" />
  <sodipodi:namedview id="namedview12" pagecolor="#ffffff" bordercolor="#666666" borderopacity="1.0" objecttolerance="10.0" gridtolerance="10.0" guidetolerance="10.0" inkscape:pageshadow="2" inkscape:pageopacity="0.0" inkscape:pagecheckerboard="0" />
  <g style="display:inline" id="g8">
    <g style="stroke-width:.865384" id="g6">
      <path d="M232.307 143.53c-4.897-.042-2.586 7.272 1.56 5.195 2.67-1.47 1.62-5.576-1.56-5.196zm9.752 11.222c-4.005 2.064-9.735 2.178-12.383 6.357-1.134 4.17 2.489 9.094 5.844 11.135 2.859-.018 6.15-.413 7.201 3.096.435 3.372 5.45 5.048 6.699 1.129 1.712-3.977 2.04-8.584 1.129-12.813-2.099-3.689-3.148-9.225-8.49-8.904zm-18.139 21.262c-4.475.714-1.31 7.807 2.139 4.847 2.15-1.667.472-5.266-2.14-4.847z" style="display:inline;fill:#c1ddf3;fill-opacity:1;stroke:#e12bcf;stroke-width:.865384;stroke-linecap:butt;stroke-linejoin:bevel;stroke-miterlimit:4;stroke-dasharray:none;stroke-opacity:1" transform="translate(-255.7 -165.33) scale(1.15556)" id="path2" />
      <path style="display:inline;opacity:1;fill:#e12bcf;fill-opacity:1;fill-rule:evenodd;stroke:#e12bcf;stroke-width:.865384;stroke-linejoin:round;stroke-miterlimit:4;stroke-dasharray:none;stroke-opacity:1" d="M238.255 164.504c.032-.05-.064.015 0 0zm-6.21-2.256c-.033-.07-.09.053 0 0zm.985-.067c-.439.623.588-.314 0 0zm7.843-1.834c.04.009-.042.004 0 0zm1.626-1.577c-.856.41-.664.352-1.328.275-.215.283-.418.125-.621.314-.194.268-.66.463-1.44.583-.53-.09-.925.91-1.506.7-.315-.195.077.223-.233.271-.243-.092-.122.435.328.34-.033.272.62.966.597.39.043-.637.928.228.802-.242-.174-.214 1.087-.978 1.042-.345-.239.184.868.156 1.084-.109.496-.178 1.154.345.671-.25-.348.101.738-1.168-.247-.474-.497.883-1.44.997-.81.236.407-.35.918-1.047 1.324-1.433.083-.09.337-.125.337-.256zm-8.667 2.537c-.083.079.102-.004 0 0zm5.15.275c-.096.1.159.007 0 0zm-3.012 7.905c-.108-.017.07.164 0 0zm-3.428-5.448c.12.014-.039-.113 0 0zm4.692 4.932c.017-.05-.055-.012 0 0zm-4.525-4.529c.046-.041-.101-.005 0 0zm4.685 1.398c.054-.113-.062.05 0 0zm-4.967-2.24c.028-.058-.035-.036 0 0zm6.6.476c.155.137-.268-.366 0 0zm2.516 5.273c-.279.208.25.394 0 0zm-2.744-5.981c.087-.062-.04-.08 0 0zm-1.106 1.81c.059-.034-.09-.026 0 0zm-5.129-1.277c.031-.08-.055-.046 0 0zm.32-1.351c-.01-.182-.091-.057 0 0zm8.15-3.576c-.08.111.139.112 0 0zm.974 1.716c.437-.313-.143-.154 0 0zm-9.116 1.781c.062-.053-.045-.052 0 0zm7.667-3.159c.075-.04-.091-.049 0 0zm-7.726 3.236c.034-.048-.066-.03 0 0zm4.555 3.37c-.036-.346-.038.203 0 0zm-3.654-1.988c.06-.075-.084.023 0 0zm-.899-1.338c.043-.037-.043-.047 0 0zm5.062 1.31c.052-.143-.098.065 0 0zm1.58.721c.052.158.073-.161 0 0zm-2.212 4.081c.322-.376-.374-.247 0 0zm-3.838-6.936c.13-.225-.238-.106 0 0zm5.46 1.594c-.204.06.094.189 0 0zm-6.502.605c.074-.046-.057-.064 0 0zm.09-.003c.023-.08-.17-.074 0 0zm-.055-.501c.05-.016-.04-.066 0 0zm1.083-1.718c.075-.103-.048-.2 0 0zm-1.106 1.742c.062-.036-.065-.052 0 0zm-.167-17.416c.016-.06-.072 0 0 0zm8.685 12.95c.068-.05-.064-.072 0 0zm-3.386 6.796c-.27-.132.078.245-.018-.005zm1.673-5.954c.13-.165-.161-.02 0 0zm-1.669 1.543c.042-.02-.015-.038 0 0zm-1.188 1.475c.124.096-.133-.18 0 0zm1.262 3.004c-.05-.05-.05.079 0 0zm-4.055-4.368c-.005.307.456-.543 0 0zm2.564 1.495c.148-.171-.213-.024 0 0zm-.508 3.68c-.137.054.068.067 0 0zm-2.257-4.81c.217-.254-.231.198 0 0zm8.457-2.767c.066-.027-.059-.003 0 0zm-8.933 5.495c.151-.029.055-.164 0 0zm-.233-.361c-.037-.078-.12-.023 0 0zm3.862 1.767c.098-.017-.04-.073 0 0zm1.627-1.517c-.452-.732.206.528 0 0zm-.742 3.739c.093-.02-.072-.095 0 0zm-.99-5.236c.127-.153-.167-.003 0 0zm3.931 1.596c-.192.07.324.277 0 0zm-4.596-1.495c.04-.037-.054-.015 0 0zm1.673 5.269c.09-.07-.1-.032 0 0zm4.118-9.318c-.098-.05 0 .088 0 0zm-.521.025c-.056.01.062.076 0 0zm-5.177 3.996c-.014-.05-.082-.01 0 0zm.396 6.167c.143-.06-.096-.14 0 0zm-2.43-8.098c.017-.054-.079-.013 0 0zm4.448 3.408c.063-.075-.101.01 0 0zm3.549 2.958c.254.394.264-.1.303-.154-.07.033-.371.028-.303.154zm-8.621-3.897c.005-.096-.115-.056 0 0zm-.35.919c.307-.091-.267-.145 0 0zm.643-2.924c.078-.099-.087-.028 0 0zm4.478-1.083c.057-.112-.124-.012 0 0zm-1.375.754c.01-.081-.063-.037 0 0zm1.094 3.245c.047.025.04-.056 0 0zm-3.903-3.335c.036.38.85-.943.163-.07-.07-.015-.141.246-.163.07zm2.918.056c.153-.193-.375-.108 0 0zm.697 6.86c.085-.138-.082-.01 0 0zm1.919-8.936c.092-.014-.072-.139 0 0zm3.283.697c-.742.468.128.45 0 0zm-5.043.525c-.185.17.577-.163 0 0zm.487-.053c.294-.102-.206-.05 0 0zm-3.012 2.801c.008.063.076-.015 0 0zm-1.17-1.842c.03.044.03-.032 0 0zm2.85 4.518c.347-.057.377.1.852-.053.316-.003.566-.357.094-.502.06-.304-.013-.553-.135-.87.114-.633-.902-.606-.763-.862-.526-.016-.125-.305-.434-.565-.283.145-.753.314-.927.388-.299-.02-.34-.073-.498-.14-.283.325-1.053.42-1.125.759-.352.13-.01.745-.242.628.199.132-.753.352-.285.859.215.642 1.707.675 2.154.83.543.112.853-.07 1.201-.323.012-.03.086-.078.109-.149zm.749-.05c-.076-.124-.112.124 0 0zm-4.783-19.51c-.042.01.037.023 0 0zm7.467 14.801c-.012-.047-.044.02 0 0zm-7.736 2.938c.053-.012-.071.005 0 0zm.321-.883c-.051.12.101.048 0 0zm.038-.12c-.197 0 .122.218 0 0zm-.083-.182c-.29.094.296.266 0 0zm1.476-2.077c.032.106.026-.043 0 0zm-.463 5.123c-.027.059.077.02 0 0zm-.135-1.275c-.078-.03-.044.045.007-.004zm.004-.01c-.048-.003-.034.043 0 0zm6.503-5.042c-.087.017.09.029 0 0zm-3.935 9.567c-.405.052-.854.437-.31.375.537.069.199-.333.623-.411.179-.337.54.29.697-.097.313-.129-.503-.307-.664-.17-.163.015-.407.098-.346.303zm-2.391-4.62c-.078-.157.009.087 0 0zm9.034-3.737c-.577.255-1.132 1.703-.17.774.243-.252.432-.42.17-.774zm-4.599 3.601c.417.503.124-.762-.037-.081.105.001-.033.093.037.081zm2.286-1.627c-.621-.141.069 1.226 0 0zm-.579 2.509c-.28.173.293.613.318.351.012-.117-.154-.58-.318-.351zm-3.903 1.525c-.136.307.703-.155 0 0zm3.372-4.525c-.115.063.09-.013 0 0zm-4.874 1.201c.042.028.019-.039 0 0zm-.036.001c-.043-.05-.026.042 0 0zm-.573.317c-.088.034.028.082 0 0zm6.408-4.213c-.181-.104-.23.14 0 0zm-5.962 7.65c.14.968.272-.234 0 0zm-2.267-4.82c.134-.285-.207.132 0 0zm.337-16.11c.982.089-.25-.305 0 0zm14.004 19.97c.587.038-.216-.474-.014.006zm-1.813-1.68c.408.26.118-.511 0 0zm-1.238-3.513c-.204-.336-.52.345 0 0zm3.679 6.766c-.048-.082-.123.08 0 0zm-1.59.158c.052-.034-.039-.043 0 0zm2.062-.077c.033-.025-.03-.047 0 0zm-.673-1.319c-.042-.071-.061.02 0 0zm-2.023.105c-.004.186.147-.05 0 0zm1.774.863c-.003-.047-.036.013 0 0zm-2.219-9.34c.12-.029-.036-.037 0 0zm2.975 10.464c.031.072.049-.08 0 0zm-4.848-11.262c.459.146.134.052 0 0zm3.551 11.047c-.106.27.25-.216 0 0zm1.536.317c.076.024.036-.154 0 0zm-4.1-8.806c.064.063.002-.005 0 0zm-.139.184c.058-.072-.04-.064 0 0zm-.092.792c.105-.083-.1.007 0 0zm2.162.033c-.048.01.019.061 0 0zm-1.934.08c.07-.415-.255.234 0 0zm3.493 7.371c.494-.023-.439-.064 0 0zm-1.15.31c.103.572.31-.339 0 0zm-2.83.047c.324-.068-.458-.196-.128.13-.178-.103.107-.295.129-.13zm4.475.025c-.025.035.103.031 0 0zm-1.837-6.334c.033-.104-.073.032 0 0zm1.48 6.896c-.062-.153.29.354.006.083l-.014-.028zm-2.348-7.447c.213.153.01-.165 0 0zm.975.636c-.055 0 .025.049 0 0zm.311-.008c.087.069.064-.172 0 0zm2.272 9.257c-.25.215.113.051 0 0zm-2.538-8.783c.023.152.107-.008 0 0zm.66-.144c.166.024-.01-.127 0 0zm.255 12.03c.019-.193-.25-.022 0 0zm-.012-.113c.169.128-.027-.135 0 0zm-2.535-11.995c-.057-.135-.092-.001 0 0zm-.099-.026c-.097-.17-.229.158 0 0zm1.217-.03c-.285.017.18.246 0 0zm.536.134c.554-.359-.502-.625.027-.18-.098.058-.108.53-.027.18zm.546 1.412c.257.076-.18-.291 0 0zm.238 11.861c.05.005-.03-.044 0 0zm-.313.1c.047-.048-.079-.053 0 0zm-1.139-12.785c.33.256.088-.35 0 0zm1.61 11.401c.036-.039-.03-.033 0 0zm-2.796-11.515c-.053.16.155-.032 0 0zm2.198-.226c-.119.26.185-.117 0 0zm1.641 6.326c-.004-.306-.205.314 0 0zm-2.581-10.798c-.09.022.102.06 0 0zm2.278 8.321c.336-.036-.175-.13 0 0zm-1.559-3.902c-.18-.061-.028.059 0 0zm1.483 4.696c.248-.145-.225-.19 0 0zm-.707-4.075c-.011.103.05-.06 0 0zm.078 2.845c-.137-.021.029.044 0 0zm-3.376-6.444c-.051.046.098.023 0 0zm2.249 5.23c-.296-.366-.097.316 0 0zm.94 9.465c.081-.047-.048-.033 0 0zm1.11-5.308c-.083.022-.006.15 0 0zm-1.108-3.28c.084-.064-.004-.04 0 0z" transform="translate(-255.7 -165.33) scale(1.15556)" id="path4" />
    </g>
  </g>
</svg>
