<?xml version="1.0" encoding="UTF-8" standalone="no"?>
<svg width="85.911" height="89.715" version="1.1" id="svg10" sodipodi:docname="french_polynesia.svg" xmlns:inkscape="http://www.inkscape.org/namespaces/inkscape" xmlns:sodipodi="http://sodipodi.sourceforge.net/DTD/sodipodi-0.dtd" xmlns="http://www.w3.org/2000/svg" xmlns:svg="http://www.w3.org/2000/svg">
  <defs id="defs14" />
  <sodipodi:namedview id="namedview12" pagecolor="#ffffff" bordercolor="#666666" borderopacity="1.0" objecttolerance="10.0" gridtolerance="10.0" guidetolerance="10.0" inkscape:pageshadow="2" inkscape:pageopacity="0.0" inkscape:pagecheckerboard="0" />
  <g style="display:inline" id="g8">
    <g style="stroke-width:.865384" id="g6">
      <path d="M375.14 127.68c-4.525.312-3.662 6.438-1.331 8.336.82 3.039 4.492 1.93 5.4 4.98 2.718 3.516 6.795-1.43 4.385-4.28-.329-2.947-3.426-4.897-5.324-5.966.271-1.782-1.399-3.296-3.13-3.07zm-3.12 21.36c-5.648.588-.61 8.748 2.896 4.735 1.915-2.202-.372-4.962-2.896-4.736zm-15.159.79c-2.088-.317-3.599 2.002-4.472 2.506-2.853-1.278-9.005-.98-7.065 3.598 1.68 1.265.813 5.37 4.371 4.535 1.674-1.39 2.727-1.448 3.971.521 3.247.17.508 4.527 4.148 5.143 2.42.339 4.792-2.726 6.489.326 1.678 1.455 3.881 1.223 4.687 3.777 2.337 1.414 4.185 3.358 6.96 3.727 1.745-.817 3.393-2.24 1.362.11-.853 1.748 1.724 5.787-.376 2.511-3.531-3.86-7.641 4.096-2.53 4.83 2.596.128 2.938-3.348 4.008.096 2.57 4.663 7.315-.56 5.227-3.848 1.916-1.341.832-4.371-.871-4.998 2.203-1.609.92-5.37-.122-6.82 4.932-.797 1.344-8.09-2.296-4.836-2.11 1.405.721 4.14-2.194 3.963-1.983 2.714.324-3.98-3.285-3.328-2.976-.482-1.12-2.11.846-.666 4.609 1.081 4.323-6.462-.156-5.602-2.256-1.063-3.766 1.086-5.772-.678-2.113.017-4.214 3.456-5.86 2.07 1.163-2.753-1.424-8.137-5.048-6.314-.54-.5-1.302-.706-2.022-.623zm23.889 1.674c-4.936.257-1.897 7.933 1.932 4.851 2.007-1.554.712-5.18-1.932-4.851zm-31.262.914c.928.749-.301-.133 0 0zm-21.676 2.553c-3.534.67-4.567 8.49.092 8.152 3.267 3.523 7.341-3.437 2.791-4.709.533-1.755-.985-3.77-2.883-3.443zm9.12 1.472c-4.742.036-5.319 6.062-.766 6.727 2.087.8 2.404 2.226 4.002 3.621 2.154-.232 3.643.071 5.75.828 2.087-1.175 5.513 1.585 6.502-2.092.802-3.144-3.051-3.503-4.588-3.24-.195-2.813-3.79-3.948-5.348-2.463-1.176-1.661-3.648-2.692-5.552-3.38zm1.91 1.895c-.974.585-.147-.049 0 0zm26.908.744c.735 1.919.756 1.812-1.16 1.7-.106-.723.455-1.588 1.16-1.7zm20.75 4.518c-4.393.903-1.929 6.401 1.592 6.265 4.804 1.914 5.022-6.215.388-5.68a2.713 2.713 0 0 0-1.98-.585zm-4.422 3.197c.13.591-.698-1.664 0 0zm-22.172 2.387c-4.897.578-1.43 8.176 2.172 5.01-.036 2.92 7.52 5.727 7.254.388-.661-2.984-5.306-3.737-6.412-2.746-.046-1.542-1.431-2.917-3.014-2.652zm27.951 5.25c-3.257 0-3.448 4.571-.886 5.56 1.531 2.252-4.148.67-3.192 4.111.486 5.017 7.55 1.615 5.248-1.632 2.46-.137 2.057-.603 1.647 1.947.844 4.573 10.312 3.318 6.818-1.719-1.306-1.592-4.176-2.628-5.422-1.49 3.101-.597 3.965-5.674.147-6.123-1.782.474-2.592-.595-4.36-.654zm-60.632 1.787c-4.846.491-1.463 8.107 2.125 4.808 1.73-1.694.39-5.085-2.125-4.808zm37.88.623c-.107-.055.43.023 0 0zm-26.82 1.713c-2.049 1.05-2.176 1.994-4.351.722-5.082-.178-2.301 8.157 1.586 4.899.874-2.64 3.825 2.236 5.498-1.02 1.451-2.007-.253-4.959-2.733-4.601zm6.236 3.289c-4.682.8-1.39 8.227 2.385 5.037 2.26-1.832.57-5.698-2.385-5.037zm6.69 1.8c-4.64-.082-2.932 7.642 1.303 5.442 2.647-1.328 1.773-5.573-1.303-5.442zm10.715 13.94c-4.08.437-2.571 6.632 1.144 5.873 3.305 3.55 7.327-3.665 2.57-4.707-1.481.337-2.061-1.625-3.714-1.166z" style="display:inline;fill:#c1ddf3;fill-opacity:1;stroke:#df1aa7;stroke-width:.865384;stroke-linecap:butt;stroke-linejoin:bevel;stroke-miterlimit:4;stroke-dasharray:none;stroke-opacity:1" transform="translate(-374.797 -147.016) scale(1.15556)" id="path2" />
      <path style="display:inline;opacity:1;fill:#fff;fill-opacity:1;fill-rule:evenodd;stroke:#df1aa7;stroke-width:.865384;stroke-linejoin:round;stroke-miterlimit:4;stroke-dasharray:none;stroke-opacity:1" d="M357.177 158.219c-.107-.237-.135-.167 0 0zm17.537 6.212c-1.014.434-.071-.195 0 0zm-14.245-11.703c-1.05.854.542-.132-.274.071-2.802 1.96.63-.472.274-.071zm21.335 22.878c-.113-.128-.054.037 0 0zm-21.648-3.53c.04-.06-.108-.01 0 0zm-4.688-19.027c.096-.164-.028-.068 0 0zm-4.224 33.54c.063.017.017-.088 0 0zm3.25-30.926c.363.27.2.61 0 0zm19.323 10.702c.042-.018-.187-.149 0 0zm-13.343-5.251c.047-.033-.11 0 0 0zm-6.348-5.537c-.193-.066-.212.036 0 0zm-2.827 30.974c-.037-.02-.02.053 0 0zm4.939-28.95c-.134.102.085-.018 0 0zm3.061.058c-.233.255.178-.142 0 0zm.775 14.37c.083-.026-.06-.05 0 0zm14.067-7.371c.038.004.054-.136 0 0zm-22.814 21.883c-.007.025.072-.046 0 0zm8.954-25.443c.13.065.095-.03 0 0zm20.777 19.586c.06-.027-.05-.119 0 0zm-25.46-27.79c1.212.154-.44.054 0 0zm4.616 8.216c.086-.067-.208.08 0 0zm.357-.007c.117-.03-.108.017 0 0zm-4.102-3.463c-.074-.058-.106-.037 0 0zm24.604 23.076c.326-.162-.09-.01 0 0zm-23.632-21.565c-.06-.089.027.077 0 0zm2.804 12.992c.148.077-.018-.29 0 0zm3.992-11.9c.418.23 1.116.488 0 0zm7.523 2.937c.072-.082-.055-.055 0 0zm-1.973 3.08c-.598-.918.057.276 0 0zm-9.568 5.887c.05-.022-.037-.03 0 0zm-1.374-12.233c.043-.067-.23-.306 0 0zm3.725.012c-.33-.309-.07-.064 0 0zm18.503 20.497c.222.345.242.148 0 0zm-11.999-22.126c.064-.09-.04-.047 0 0zm-8.174 2.785c.228.199-.217-.16 0 0zm-9.527 25.347c-.033-.073-.166-.049 0 0zm22.369-20.15c.027-.041-.048-.024 0 0zm-5.256-7.123c-.07-.47-.045.152 0 0zm-17.441 27.404c.28.082.11-.268 0 0zm4.729-30.6c.63.676.158-.11-.388-.064.056.05.271.055.388.065zm18.33 8.75c-.008.075.056-.085 0 0zm-15.659-1.271c.004.077.055-.053 0 0zm10.358-5.207c.313-.306-.287.254 0 0zm-14.56-2.615c.108-.069-.34-.047 0 0zm19.864 10.646c.074-.134-.049-.043 0 0zm.52-1.673c.107-.115-.057-.033 0 0zm-14.711-11.459c-.02-.099.007-.04 0 0zm6.592 11.717c.174-.175-.09.095 0 0zm-9.546-11.963c.16-.081.038-.046 0 0zm17.05 11.974c.077-.114-.05-.008 0 0zm-23.257-9.236c.038-.062-.137-.028 0 0zM381 180.47c.157-.069.007-.048 0 0zm-6.966-15.661c.092-.051-.02-.044 0 0zm5.538 5.293c-.032.303-.038-.104 0 0zm-49.717-8.922c.049-.056-.09-.005 0 0zm44.057 5.354c.011-.058-.09-.054 0 0zm-22.567-11.71c.348.49 1.774 1.417.428.396-.054-.005-.76-.684-.428-.396zm5.55-1.906c.191-.078-.084.003 0 0zm3.246 6.132c.196.313-.02-.103 0 0zm22.139 4.048c-.02-.069-.072.035 0 0zm-27.91-7.447c-.057-.081-.224-.057 0 0zm14.27 3.514c.143-.134-.037-.108 0 0zm1.033-1.686c-.355.411-.097.164 0 0zm-10.982 2.248c-.105-.147-.087-.051 0 0zm22.672 10.628c-.011-.088-.06-.035 0 0zm-5.815.914c.221-.267-.362-.11 0 0zm-6.161-13.602c.096-.03-.032-.055 0 0zm-12.735-4.886c.375-.31-.619.463 0 0zm23.512 26.506c-.019-.082-.096-.01 0 0zm-5.867-14.356c.094-.143.038-.12 0 0zm-19.051-8.881c.226-.346-.121.184 0 0zm14.367 10.385c-.218.204.192-.227 0 0zm-9.342 5.505c-.062-.09-.179-.042 0 0zm1.617-12.21c-.004-.152-.03-.02 0 0zm-5.295-2.077c-.004-.05-.125.027 0 0zm23.62 21.645c.055-.03-.101 0 0 0zm-23.465-26.332c.333-.043-.232-.112 0 0zm-18.14 8.253c-.082-.238-.542-.529-.304.155-.05.313.609-.054.303-.155zm23.888.023c.214-.162-.19.004 0 0zm-7.266-5.1c-.056.023.038.043 0 0zm18.76 8.773c.087-.103-.049-.04 0 0zm-17.33-11.945c.12-.01-.044-.028 0 0zm25.75 10.109c.054-.016-.028-.04 0 0zm-8.537 3.406c.005-.056-.065-.07 0 0zm-11.27-5.923c.19-.007.014-.068 0 0zm3.995 4.354c.023-.095-.052-.016 0 0zm-.371-5.579c-.908-.34 1.56.916 0 0zm-9.683-6.355c-.04-.056-.045.008 0 0zm.077-.005c-.056.005-.041.032 0 0zm17.22 13.44c.06-.041-.099-.092 0 0zm-22.717-10.761c-.217.023.195-.03 0 0zm-23.107 2.019c.003-.058-.029.004 0 0zm54.096 5.366c-.198.13 1.01-.146 0 0zm4.376 20.864c.081-.101-.04-.02 0 0zm7.015.014c.231-.032.097-.185 0 0zm-43.737-18.962c.074-.129-.139-.009 0 0zM380.52 135.7c.007-.068-.115.036 0 0zm-6.251 29.242c-.06.033.057.007 0 0zm-17.485-12.24c.28-.158.207-.12 0-.013zm35.337 25.202c.288.274-.507-.389 0 0zm-33.937-14.857c.164-.078-.322-.082 0 0zm-30.166-5.405c.032.141.102.074 0 0zm25.692-1.726c.042-.065.034-.235 0 0zm-3.237-1.328c-.271.559.076.074 0 0zm36.134 29.308c-.159-.195.004.009 0 0zm-29.493-31.108c.152-.148.047-.055 0 0zm6.409 7.146c.094-.03-.022-.037 0 0zm-13.187-5.064c.085-.045-.015-.041 0 0zm43.684 28.974c.164-.1-.065-.037 0 0zm-44.964-28.97c.102-.196-.086-.049 0 0zm1.904-.22c.38.163.279.016 0 0zm5.172 3.063c.077-.063.035-.066 0 0zm3.49 3.185c.304.306-.38-.272 0 0zm8.941-2.359c.084-.181-.019-.107 0 0zm-11.508-5.722c.12-.036-.053-.04 0 0zm16.935 12.257c.078.028.042-.04 0 0zm-5.732-2.154c.174.107-.194-.104 0 0zm-.044.04c-.01-.08-.064-.045 0 0zm20.801 14.903c-.007-.03-.112-.074 0 0zm-61.032-20.139c.094-.092-.023-.08 0 0zm9.551 2.422c-.018-.253.015.331 0 0zm54.027 17.703c.122-.056-.051-.097 0 0zm-17.336-12.883c-.38.207-.048.078 0 0zm-7.004-3.972c.082-.03-.037-.092 0 0zm6.879 5.34c.255.325 1.017.978 0 0zm-.148-1.3c.065-.15.005-.144 0 0zm-32.874-.876c.062.183.205-.154 0 0zm50.723 13.684c.055-.085-.257.025 0 0zm-3.995-.655c.145.118.008-.169 0 0zm-5.935-1.53c-.029-.327-.329-.443.028-.04l-.009.033zm-13.963-11.875c.08-.061.008-.064 0 0zm-15.623-7.816c.034-.075-.076-.01 0 0zm.038-.018c.007-.05-.058-.011 0 0zm7.903 2.708c.395.003.356-.034 0 0zm33.81 24.912c.059.108.23.226 0 0zm-32.037-21.425c.08-.108-.02-.074 0 0zm-.39-7.502c-.197.083.138.059 0 0zm11.04-2.65c.073-.044-.124-.114 0 0zm-3.787 13.447c.114-.068.004-.077 0 0zm.176-.025c.193-.023-.222-.016 0 0zm-.13-6.747c.063-.086-.04-.03 0 0zm-8.235.58c.101-.06-.034-.055 0 0zm-3.167-.57c-.42.194.233-.067 0 0zm15.184-6.661c-.058.033.11.008 0 0zm1.595 14.812c.027-.046-.094.004 0 0zm-46.874-6.76c-.13.268-.018.492 0 0zm41.874 5.322c.263-.208-.11.044 0 0zm-33.627-5.532c-.201.105.197.077 0 0zm9.021 3.882c.089-.106-.076-.087 0 0zm21.905-1.662c-.023-.088.014.14 0 0zm-4.167.001c-.1-.12-.156-.107 0 0zm-26.881-2.163c.1.135.1-.36 0 0zm2.858.423c.042.045-.04-.068 0 0zm-10.686-.045c.063.01-.228-.26 0 0zm32.885-1.587c-.01-.057-.133-.004 0 0zm8.302.039c.067-.039-.046-.162 0 0zm-.055 6.796c.091-.017-.067-.087 0 0zm-2.256-3.521c.116-.288-.047-.048 0 0zm-9.644-4.171c-.86-.598.428.352 0 0zm6.652 2.034c.061-.014-.026-.03 0 0zm13.197-26.315c-.015.015-.329-.07-.72-.062-.01.912.805.279.775.306.113-.174-.21-.107-.055-.244zm-7.35 24.19c.18-.098-.056-.046 0 0zm3.374-5.722c.074-.027-.082-.03 0 0zm21.05 31.303c-.205.093.168-.007 0 0zm-55.754-23.06c-.072.042.113.001 0 0zm36.093 6.513c-.122-.062-.069-.022 0 0zm-1.335-14.81c-.174-.177-.072-.078 0 0zm-37.201 7.81c.05.076.153.16 0 0zm21.373-7.256c-.19.052-.04.109 0 0zm-12.418 9.385c.061.004.004-.075 0 0zm24.9 3.603c-.114-.679-.051-.047 0 0zm-29.458-4.47c.04-.101-.16-.11 0 0zm10.98 25.6c.044-.018-.044-.032 0 0zm-12.847-26.376c-.027.044.06 0 0 0zm16.905-2.547c-.29-.484-.007.099 0 0zm.245-1.793c.078-.058-.055-.035 0 0zm-21.572 26.14c.167.112.05-.224 0 0zm40.302-15.38c.075.035-.084-.084 0 0zm-5.2-7.941c-.089.128.064-.019 0 0zm20.222 19.026c-.211-.166-.182-.069 0 0zm-44.35-15.826c.085-.08-.117-.076 0 0zm23.162 1.924c.043-.012-.025-.074 0 0zm20.25 13.446c.21-.155-.213-.105 0 0zm-49.377 4.22c.025-.573-.305-.045 0 0zm12.972-25.604c.162-.02-.316-.092 0 0zm10.573 44.542c.097-.416-.372.239.067.08.074-.028-.237-.114-.067-.08zm11.783-33.74c.04-.03-.058-.05 0 0zm14.407 10.635c.276-.181-.222-.143 0 0zm-39.338-22.11c.184.014-.18-.116 0 0zm20.1 2.58c.032-.128-.03-.13 0 0zm-10.863-1.045c.023-.098-.063-.053 0 0zm22.044-19.869c.346-.037.57-.182.177-.187-.16-.228-1.19-.119-.697.332.19.083.177-.223.52-.145zm-11.507 28.737c.093-.095-.09-.02 0 0zm-2.352-3.856c-.017-.061-.179-.046 0 0zm25.369 16.196c-.203.165.114-.08 0 0zm-32.579-17.176c.033-.034-.453-.16 0 0zm7.211 1.47c.277.644-.16-.514 0 0zm-21.478 22.309c-.674-.107.038.505 0 0zm14.093-26.829c.032-.115-.041.099 0 0zm-.63 5.78c.034-.069-.056.008 0 0zm.046.025c.037-.07-.07-.014 0 0zm-13.974-1.71c.003-.047-.049.003 0 0zm2.949-7.495c.496.368-.207-.28.227.08-.059.025-.232.062-.227-.08zm12.467 4.562c.061-.055-.08-.063 0 0zm-15.36 2.85c-.083-.03-.087.099 0 0zm15.01-4.11c.133.506.264.552-.036-.12-.69.213.02-.211.037.12zm9.708 7.986c.133-.19-.023-.08 0 0zm-10.683-2.095c.076-.093-.077-.024 0 0zm9.397.204c-.5-.362.685.612 0 0zm-12.855-7.04c.015-.097-.068.009 0 0zm11.932 4.1c.026-.115-.007-.334 0 0zm2.142-2.984c.149-.125-.034-.077 0 0zm-10.955-1.116c.034-.063-.035-.048 0 0zm37.002 27.854c.04-.097-.093-.085 0 0zm-28.982-22.867c-.033-.088-.136-.047 0 0zm-7.563-.884c.02.008.01-.146 0 0zm16.077-30.292c.295-.203-.199.012 0 0zm-16.225 33.046c.012-.092-.055-.003 0 0zm-.603-7.034c-.027-.031-.037.253 0 0zm3.377 5.135c.055-.05-.05-.017 0 0zm30.114 16.302c-.066-.106.145.293 0 0zm-35.68-21.258c-.046.172.103-.68 0 0zm18.76 21.7c.148-.125.014-.2 0 0zm-8.165-16.667c-.135-.103-.089-.023 0 0zm7.985 5.095c.03-.009-.367-.053 0 0zm-18.482-9.078c-.108.182.222-.244 0 0zm35.845 20.343c.059-.083-.083 0 0 0zm-21.464-16.857c.017-.044.085-.007 0 0zm-16.583-5.513c.1-.04-.015-.07 0 0zm3.72 3.581c.068.156.07.063 0 0zm11.276-.46c.078-.063-.048-.034 0 0zM386.547 184c.087-.1-.017-.091 0 0zm-21.272-20.577c.4.126-.306-.046 0 0zm5.491 4.471c.04-.032-.106.008 0 0zm-21.502-12.633c.076-.027-.016-.063 0 0zm24.037 10.488c.467-.242-.035-.159 0 0zm-12.701-6.42c.077-.036.071-.114 0 0zm10.018 8.603c.09-.555.035.294 0 0zm-18.176-12.265c.23.311.273-.009 0 0zm16.975 10.141c-.027.344.022-.388 0 0zm-1.04-6.925c.044.17.291-.766 0 0zm23.21 19.081c-.004-.073-.067-.109 0 0zm-37.513-20.82c.03-.048-.131-.03 0 0zm-16.657 3.076c.191-.39-.186-.22 0 0zm37.09-29.488c-.14.57.511-.337 0 0zm-17.044 28.504c.07.19.037.037 0 0zm-3.612-2.127c.175-.028-.027-.058 0 0zm-16.674 2.203c-.045-.053-.085.14 0 0zm30.277 1.408c.125.314.102.203 0 0zm26.397 23.52c.071-.045-.06-.047 0 0zm-13.056-46.748c.183.572.065-.21 0 0zm-19.288 24.156c.038-.096-.047-.01 0 0zm-17.765 2.004c-.527.076.527.443.27-.141-.138.234-.252-.086-.27.14zm17.618-2.27c.354.294.092-.046 0 0zm3.874 2.156c.065.016-.085-.14 0 0zm-9.902-6.675c.03-.086-.064-.008 0 0zm3.918 1.099c.234.209.021.025 0 0zm-7.792-2.221c-.03-.041-.057.016 0 0zm6.913 1.299c.009-.062-.052-.001 0 0zm28.109 26.906c.04-.03-.024-.056 0 0zm-21.166-20.41c.063-.01-.029-.032 0 0zm-16.264-5.81c.16.486.242-.193 0 0zm2.504-1.932c-.132-.071.109.12 0 0zm5.967 3.524c-.077-.001.085.1 0 0zm22.02 8.043c.12-.02-.093-.05 0 0zm-21.15-10.34c.133-.021-.035-.321 0 0zm-.26-.176c.044-.054-.063-.087 0 0zm35.46 27.12c.055-.064-.053-.037 0 0zm-35.067-20.399c.004-.13-.072-.012 0 0zm4.538-2.743c.404.137-.175.021 0 0zm-35.573-.786c.22.111.177.11 0 0zm64.667 17.966c.02-.042-.054-.008 0 0zm-23.318-19.165c0 .076.046-.092 0 0zm-13.535-2.013c.047-.04-.06-.063 0 0zm-2.733-1.012c-.012.056.068-.02 0 0zm-12.583 5.12c.005-.118-.03-.038 0 0zm17.347-2.158c-.096.189.08-.037 0 0zm14.473 4.442c.131.165-.025-.408.045.004zm-13.52-6.734c-.758-.09.966.215 0 0zm-30.833 22.573c.026-.045-.04-.01 0 0zm45.94-13.079c0-.05-.052.01 0 0zm-9.413-6.005c.747.722-.928-.571 0 0zm-1.838-.413c.354.182-.333-.167 0 0zm-7.677-3.884c.072-.008-.054-.032 0 0zm18.293 14.024c.035-.332-.282.003 0 0zm-45.283 9.306c0-.104-.101-.03 0 0zm52.53-41.766c-.474.406.148.474.081.046-.12.056.007-.089-.08-.046zm-21.728 26.029c.064-.046-.028-.045 0 0zm-3.07-6.79c.036-.146-.028-.035 0 0zm15.503 11.603c.178.368-.02-.118 0 0zm-15.343-14.75c-.004.294.198-.722 0 0zm-.956 2.333c.039-.03-.085-.02 0 0zm-17.156 4.327c.085.107.04-.15 0 0zm43.684 19.034c-.11.507-.04-.24 0 0zm-18.324-18.34c.03-.066-.037-.087 0 0zm-12.395-5.529c-.015-.117-.084-.005 0 0zm5.286-1.898c-.036-.026-.042.055 0 0zm-17.42 7.337c.225.3.528-.217.023-.2-.07.066-.082.159-.023.2zm29.125.03c-.045.118.144-.089 0 0zm-13.432-3.281c.079-.039-.023-.048 0 0zm25.999 17.986c.042-.12.017-.028 0 0zm-25.428-18.065c.017-.033-.154-.063 0 0zm9.133 2.724c.049-.042-.02-.037 0 0zm17.018 19.243c.156-.014.027-.046 0 0zm-11.598-21.083c.057-.017-.018-.042 0 0zm-.208.916c.09-.056-.053-.038 0 0zm12.052 9.047c-.085.048.076.029 0 0zm-9.778-.094c-.387-.394.144.293 0 0zm-17.18-10.722c.023-.07-.072-.043 0 0zm5.611-3.635c.92-1.368-.83.725 0 0zm6.011 6.89c.592.263-1.228-.332 0 0zm-6.984 2.87c.034-.107-.141-.043 0 0zm-9.118-8.205c1.034-.445-.038-.007 0 0zm1.733.447c-.037-.04-.183.1 0 0zm2.696 1.58c.092-.1-.034-.194 0 0zm3.995 2.339c-.03.007.21.252 0 0zm.373-.737c.587 1.218.18.492-.112-.328-.72.225.187-.268.112.328zm10.831-.718c.089-.01-.025-.06 0 0zm11.67 21.076c.108.053.298.057 0 0zm-20.468-17.884c.049-.114-.046-.153 0 0zm-.629-3.115c.02-.055-.088-.032 0 0zm3.185 2.323c.12.116.222.281 0 0zm-2.881-2.314c.043-.02-.038-.031 0 0zm-1.537 5.01c-.012-.22-.043.074 0 0zm10.162-4.211c.016-.048-.056-.064 0 0zm6.21 19.503c.12-.094-.036-.06 0 0zm6.391-8.577c.083-.11-.378.028 0 0zm-17.576-9.888c.022-.085-.038-.054 0 0zm15.953 10.142c.212-.14-.147-.036 0 0zm-9.844-12.68c-.153.062-.18.195 0 0zm-8.45 3.816c.024-.05-.09-.083 0 0zm-9.875-5.646c.381.075-.145-.062 0 0zm9.972 5.673c-.035-.05-.153-.004 0 0zm13.482 17.267c-.151-.09-.147-.084 0 0zm-2.592-26.867c-.004-.14-.12-.036 0 0zm1.897 14.208c-.774-.708-.197-.211.148.176l-.017-.058zm-12.698-4.59c-.073-.053-.109-.026 0 0zm-3.658-1.862c.111.088-.16-.19 0 0zm11.08-.511c.051-.048.08-.146 0 0zm-8.612.009c-.005-.049-.029-.023 0 0zm-1.767 4.102c.074-.09-.136-.12 0 0zm-2.77-9.89c.122-.017-.072-.021 0 0zm3.36 7.517c-.087.042.16-.024 0 0zm10.165-2.544c-.368-.847-.004-.07 0 0zm-19.49-3.12c.051-.053-.013-.036 0 0zm9.514 5.684c-.079-.047-.175-.02 0 0zm14.477 5.424c.02-.018-.062-.05 0 0zm.88 3.235c.022-.115.331.06 0 0zm-38.779-9.395c.033-.052-.018-.08 0 0zm-5.726 1.038c.14.458.058-.003 0 0zm44.898 17.432c-.174-.506.03.741 0 0zm-19.26-25.281c.25-.019.047-.081 0 0zm-.245 5.616c.251.58.424-.302 0 0zm14.207-1.34c.124-.103.011-.08 0 0zm-18.786-1.852c-.117-.008.274.146 0 0zm25.695 2.714c.292-.312-.494.015 0 0zm-20.71-5.168c.198-.11-.09-.005 0 0zm17.944 13.077c-.004-.077-.14-.077 0 0zm-12.377-8.86c-.286-.136.137.286 0 0zm8.39-.003c-.142-.05.036.204 0 0zm-20.04-2.393c-.173.136.104-.031 0 0zm11.075 4.113c.183-.104-.308-.802 0 0zm19.945 19.816c-.19-.075-.226-.025 0 0zm.598-39.808c-.13.488.458.253.118-.03.012-.054-.204-.074-.118.03zm-22.421 21.635c.015.038.037-.047 0 0zm10.779-3.336c-.024-.046-.033.025 0 0zm-32.37 2.767c.08-.057-.05-.127 0 0zm20.794 3.029c.129.155-.153-.522 0 0zm.114-.06c.007.057.05-.014 0 0zm.097.108c-.058.063.175.174 0 0zm.153.223c.07.015-.038-.097 0 0zm22.49 4.636c-.027-.082-.236-.047 0 0zm-.138-13.97c-.19.2.469.134 0 0zm-31.795.762c-.167 1.15.048-.115 0 0zm.101-.235c-.199.018 1.016-.244.624.292.319-.152-.24-.757-.624-.292zm37.931 11.97c-.42-.343.23.216.06-.01-.253-.56-.642-.3-.06.01zm1.987 11.22c.157-.042-.032-.012 0 0zM350.8 154.63c.451.024-.806-.138 0 0zm1.026 1.307c.29.01.065-.044 0 0zm-.486-.269c-.02.057.053-.008 0 0zm42.887 28.08c-.15-.115-.005.037 0 0zm-5.121-16.462c.052-.046-.063-.053 0 0zm.17.121c.007.035.042-.031 0 0zm.061.01c-.69-.515-.599-.475 0 0zm-.062-.02c-.174-.061-.01.026 0 0zm-.363-.301c-.033.028.1.044 0 0zm.076.063c-.065-.052.004.043 0 0zm-12.525-31.67c.303.868.56-.53 0 0zm.27.335c-.038.023.051.042 0 0zm-36.88 25.206c.233-.334-.112-.324-.082-.018.068-.099-.003.06.083.018zm.004.005c-.24.303.544-.075 0 0zm38.638-27.073c.488-.118-.584-.291-.168.023.037.054.152-.05.168-.023zm-33.75 27.83c-.038.05.08.007 0 0zm.022.021c.063.05.054-.03 0 0zm49.215 22.247c.147-.079-.045-.103 0 0zm1.53.619c.107-.231-.279-.283 0 0zm-.072.005c-.004.042.047-.007 0 0zm-.022-.073c-.004.055.036.003 0 0zm.01.036c-.008.083.04-.004 0 0zm.087.035c-.094-.017-.046.054 0 0zM373.9 157.759c.431.018-.047-.238 0 0zm-15.165 5.74c.004.061.055-.008 0 0zm-.126-.167c-.098-.052-.01.037 0 0zm.127.163c-.054-.068-.03-.003 0 0zm-.526-.34c-.054-.111.009.072 0 0zm.495.309c-.568-1.549-.004.238 0 0zm-.233-.222c-.038.02.201.137 0 0zm-.016-.019c.01-.214-.285-.078 0 0zm6.454 10.843c.077.019.018-.07 0 0zm1.681.938c.079.07-.06-.105 0 0zm.052.04c.031-.078-.069-.123 0 0zm-.845-.353c.108-.009.092-.09 0 0zm.053.05c.106-.079-.173-.004 0 0zm-.844-.612c.082-.268-.037-.175 0 0zm2.29-13.543c.042-.022-.015-.041 0 0zm-7.082-1.92c-.29.188-.196.378 0 0zm-4.63-5.765c-.128.06-.044.044 0 0zm1.463-.367c.247.023.3.257 0 0zm-6.868 2.563c.036.038.024-.055 0 0zm-12.774 4.809c.13.176.076-.032 0 0zm-.016-.005c-.177-.119.004.059 0 0zm.16.137c-.134-.218-.032-.001 0 0zm52.202 19.618c-.259.052.066.342 0 0zm-23.17-14.839c-.018.05.035.073 0 0zm27.254 18.865c-.782.448.478-.195 0 0zm-47.643-18.918c.02-.508-.914-.138-.612-.884-.68-.812-1.656.395-.482.714.655-.694.354.78 1.094.17zm-9.094-5.57c-.018 0-.015 0 0 0z" transform="translate(-374.797 -147.016) scale(1.15556)" id="path4" />
    </g>
  </g>
</svg>
