<?xml version="1.0" encoding="UTF-8" standalone="no"?>
<svg width="98.444" height="47.577" version="1.1" id="svg10" sodipodi:docname="hawaii.svg" xmlns:inkscape="http://www.inkscape.org/namespaces/inkscape" xmlns:sodipodi="http://sodipodi.sourceforge.net/DTD/sodipodi-0.dtd" xmlns="http://www.w3.org/2000/svg" xmlns:svg="http://www.w3.org/2000/svg">
  <defs id="defs14" />
  <sodipodi:namedview id="namedview12" pagecolor="#ffffff" bordercolor="#666666" borderopacity="1.0" objecttolerance="10.0" gridtolerance="10.0" guidetolerance="10.0" inkscape:pageshadow="2" inkscape:pageopacity="0.0" inkscape:pagecheckerboard="0" />
  <g style="display:inline" id="g8">
    <g style="stroke-width:.865384" id="g6">
      <path d="M247.623 1.398c-5.236.878-.107 8.625 2.674 4.036.871-1.767-.697-4.164-2.674-4.036zm8.455 1.854c-4.858.68-2.161 8.603 2.04 5.346 2.453-1.649.963-5.795-2.04-5.346zm6.195 7.041c-4.581.205-2.037 7.373 1.674 5.082 2.592-1.515 1.449-5.438-1.674-5.082zm7.547 1.066c-4.884.762-1.253 7.036 1.916 5.489 2.526 3.863 7.782-2.176 3.278-3.955-2.445.414-2.824-1.344-5.194-1.534zm12.668 2.864c-5.258.74-.877 8.378 2.408 4.326 1.393-1.758-.053-4.741-2.408-4.326zm5.758 4.06c-5.77 1.078-.073 9.589 3.21 5.32 2.738 4.204 7.86-2.598 3.157-4.048-2.35.179-2.95 1.355-4.486-.907-.583-.273-1.236-.418-1.88-.365zm14.852 3.082c-5.162.398-1.577 8.09 2.025 4.606 1.687-1.612.424-4.916-2.025-4.606zm8.218 2.922c-3.19.406-8.933 4.38-4.648 7.371 1.971.38 5.192-1.27 6.482-.637 1.347 2.8 4.93 1.945 6.537 4.667 1.458 1.471.89 6.761 4.776 5.927 3.013-1.054 7.266-3.973 4.113-7.373-2.97-2.348-5.011-6.264-9.336-6.267-1.21-3.122-4.97.163-5.564-2.83-.614-.616-1.502-.897-2.36-.858z" style="display:inline;fill:#c1ddf3;fill-opacity:1;stroke:#5e22e5;stroke-width:.865384;stroke-linecap:butt;stroke-linejoin:bevel;stroke-miterlimit:4;stroke-dasharray:none;stroke-opacity:1" transform="translate(-283.029 -1.11) scale(1.15556)" id="path2" />
      <path style="display:inline;fill:#5e22e5;fill-opacity:1;fill-rule:evenodd;stroke:#5e22e5;stroke-width:.865384;stroke-miterlimit:4;stroke-dasharray:none;stroke-opacity:1" d="m303.125 24.048.008.01v-.01l.041-.004-.051-.018zm15.543 7.112c.663-.2 1.855.6 1.927-.253-.69.058-1.02-.121-1.759-.163.145.155-.168.252-.168.416zm-7.495-2.841c.77.05.682-.338.756-1.033-.355-.631-2.274.266-1.127.871.141.21.186.07.37.162zm-1.9.019c.635-1.003-.897.193-.334.34.077-.154.131-.357.333-.34zm-1.47.83c-.019-.079.005.057 0 0zm12.278 3.311c.933-.508-1.173-1.094-.342-.164.022.254.198.126.342.164zm.838-1.04c-.592.581.492.801.655 1.11-.179.938 1.531.333 1.57-.177-.62-.327-.997-.882-1.685-.48-.144-.243-.232-.532-.54-.453zm.297 1.724c-.044-.5-.84.353-.11.133.139-.028.252-.055.11-.133zm-4.76-2.95c-.005.099.105-.095 0 0zm.324.236c.005-.128-.163-.003 0 0zm-.275-.305c.138.077-.161.31.293.25.32.417.997.104.435-.47-.101.088-.372.037-.452-.406-.15-.634-.58-.611-.9-.1-.953-.309.316 1.584.527.852-.403.01.122-.098.097-.126zm6.969 8.378c.592.535.971.472 1.248-.267.624-.636 2.046-.499 2.342-1.454-.572-.155-.577-.784-.931-.81.005-1.15-1.849-1.232-2.488-1.824-.485.354.29 1.182-.39 1.472-.914.629.592 1.388.136 2.324-.023.208-.086.37.083.56zm-14.151-10.689c-.021-.07-.099.062 0 0zM248.079 4.098c-.156.101.106-.001 0 0zm14.54 8.837c.086.1-.026-.106 0 0zm7.542 1.051c-.2.091.088.146 0 0zm46.287 16.219c-.005.1.104-.093 0 0zm.324.236c.005-.125-.162-.003 0 0z" transform="translate(-283.029 -1.11) scale(1.15556)" id="path4" />
    </g>
  </g>
</svg>
