<?xml version="1.0" encoding="UTF-8" standalone="no"?>
<svg width="163.686" height="70.364" version="1.1" id="svg10" sodipodi:docname="kiribati.svg" xmlns:inkscape="http://www.inkscape.org/namespaces/inkscape" xmlns:sodipodi="http://sodipodi.sourceforge.net/DTD/sodipodi-0.dtd" xmlns="http://www.w3.org/2000/svg" xmlns:svg="http://www.w3.org/2000/svg">
  <defs id="defs14" />
  <sodipodi:namedview id="namedview12" pagecolor="#ffffff" bordercolor="#666666" borderopacity="1.0" objecttolerance="10.0" gridtolerance="10.0" guidetolerance="10.0" inkscape:pageshadow="2" inkscape:pageopacity="0.0" inkscape:pagecheckerboard="0" />
  <g style="display:inline" id="g8">
    <g style="stroke-width:.865384" id="g6">
      <path d="M307.758 85.326c-4.192 1.09-1.3 6.004 1.275 5.774.94 5.453 9.063.532 4.385-2.76-3.346.243-2.13-3.387-5.66-3.014zm-89.293 4.361c-3.161.09-4.303 3.901-2.416 5.93-1.006 2.244-.278 5.526 1.168 7.508 1.571 2.67 4.19 4.024 5.615 6.99 2.973 1.15 3.805 5.372 7.295 4.781 3.795 2.5 5.599-3.607 2.656-4.978 2.177-4.388-4.215-5.077-6.34-4.137-1.362-1.906-1.826-3.517-2.896-5.578-3.44-.538.766-4.488-2.592-5.734 1.256-1.913.152-5.131-2.49-4.782zm99.572 4.561c-4.886.513-2.55 8.042 1.957 6.35 3.572-1.335 1.195-6.603-1.957-6.35zm-111.414 9.719c-5.114 1.135.14 8.581 2.902 4.031 1.05-1.887-.731-4.503-2.902-4.031zm63.305 6.465c-3.362.426-2.025 3.987-1.756 5.838-4.872 1.204-.898 7.656 2.64 5.068 3.143.935 4.082-2.902 5.426-4.736-.502-3.167-3.143-5.721-6.31-6.17zm-8.032 2.777c-3.29.364-1.508 3.84-3.625 5.174-2.049 4.683 6.849 5.117 5.053.297 2.04-1.377 2.025-5.413-1.428-5.471zm64.637 1.307c-5.547.494-.927 8.888 2.467 4.379 1.235-1.802-.22-4.578-2.467-4.38zm-3.55 5.552c-4.63.714-1.34 7.784 2.257 4.9 2.22-1.674.452-5.473-2.258-4.9zm19.494 14.522c-5.704.597-.883 9.11 2.377 4.408 1.091-1.771-.163-4.504-2.377-4.408zm-5.866 5.207c-5.09 1.157.166 8.653 2.926 4.05 1.031-1.888-.751-4.525-2.926-4.05z" style="display:inline;fill:#c1ddf3;fill-opacity:1;stroke:#2b22e5;stroke-width:.865384;stroke-linecap:butt;stroke-linejoin:bevel;stroke-miterlimit:4;stroke-dasharray:none;stroke-opacity:1" transform="translate(-235.778 -98.07) scale(1.15556)" id="path2" />
      <path style="display:inline;opacity:1;fill:#fff;fill-opacity:1;fill-rule:evenodd;stroke:#2b22e5;stroke-width:.865384;stroke-linejoin:round;stroke-miterlimit:4;stroke-dasharray:none;stroke-opacity:1" d="M219.072 98.939c-.03.07.089-.028 0 0zm-.152 1.484c-.056.523-.394.75.103.053-.268-.212-.297-.144-.103-.053zm-.498-7.121c.036-.005.523-.497-.003-.003zm.35-.902c.14.467.056.08.005.007zm-.536 5.036c-.308-.152-.11.092 0 0zm.603 2.953c.007.025.045-.033 0 0zm2.592 2.084c-.205-.083.077.108 0 0zm.397.263c.098.034.024-.077 0 0zm.045-.41c-.642-.389-.334-.162 0 0zm-2.234-5.28c.268.098.153.054 0 0zm-.648 1.825c-.062.029.07.022 0 0zm-.277-.355c-.259-.805.174.41 0 0zm1.051-1.492c-.072-.36-.202.064 0 0zm-1.073-4.397c.067-.087-.004-.092 0 0zm.115 7.752c0-.05-.035.062 0 0zm3.151 2.232c-.032-.225-.136-.268 0 0zm-1.027.572c-.04.093-.016.043 0 0zm-2.798-9.8c-.921.344 1.017-.255 0 0zm-.277-.148c-.044-.074-.065-.051 0 0zm2.759 9.94c.263.11.02-.109 0 0zm1.335-.557c-1.735 2.296.254-.156 0 0zm-3.272-9.927c.128-.11-.13-.004 0 0zm-.033.228c-.011-.056-.045-.026 0 0zm.11 7.972c.036-.026-.029-.035 0 0zm2.89 1.726c-.04-.04-.01.052 0 0zm-3.631-9.683c-.043-.055-.68-.407 0 0zm1.196 6.123c-.082.047.11.07 0 0zm-.04-.032c-.062.04.108.05 0 0zm-.175-.16c-.123.019.063.018 0 0zm9.829 13.332c.27.165-.204-.185 0 0zm2.91.57c-.07-.232-.277-.242 0 0zm-13.073-13.5c-.092-.15-.237-.05 0 0zm.003.004c.639-.028.913-.292.111.028l-.077-.005-.034-.023zm11.886 9.232c-.128-.388-.55-.468 0 0zm-4.764.41c-.018.018-.075-.01 0 0zm-2.076-2.472c.342-.087-.97-1.246-.086-.475.038.014.181.65.086.475zm-.477-.726c.022-.049-.059-.026 0 0zm-.027-.019c.005-.066-.113-.077 0 0zm-.251-.09c-.076-.105-.024-.03 0 0zm.193.034c-.019-.034-.09.04 0 0zm-.047-.013c-.05-.015-.005.056 0 0zm-4.422-12.658c-.042-.02.048.11 0 0zm-.36 4.223c.095-.072-.01-.065 0 0zm.601.502c-.806-.831.076-.265-.088.305-.277.008.34-.03.088-.305zm.182 1.277c.105.12.1.003 0 0zm.027.004c.008-.048-.067.009 0 0zm-.067-.05c-.048.058.06-.02 0 0zm-11.954 7.764c.22.077-.07-.204 0 0zm21.868 1.67c-.376-.53-.27-.172 0 0zm-8.071-5.282c-.066.045 0 .082 0 0zm-.729-.081c-.072.285.382-.01 0 0zm4.652 5.002c-.196-.385-.848-.792 0 0zm.243.307c.016-.051-.094.024 0 0zm-.227-.164c-.054-.208.03-.072 0 0zm.248.19c.038.068.027-.023 0 0zm.077.083c.046-.056-.038-.031 0 0zm.046.04c-.015-.06-.089.011 0 0zm.304.132c-.057-.033-.003.044 0 0zm-.032-.02c-.09.003.047.053 0 0zm.06.027c-.074.044 0 .063 0 0zm0 .038c.129.075.03-.104 0 0zm.064.015c.064.128.07-.026 0 0zm.087.057c-.01-.014-.062.022 0 0zm.005.018c.084.302.183.16 0 0zm-6.95-9.667c-.058.112.139.078 0 0zm.112-.325c-.009-.16-.145-.038 0 0zm.067.084c-.042-.032-.119-.12 0 0zm1.24 4.181c.004-.213-.23-.123 0 0zm7.073 7.082c.55.767.095-.64.016-.08l-.048.069.032.01zm45.107 4.313c.111-.352-.189.014 0 0zm1.225 1.924c-.015.067.063.012 0 0zm-11.475-.414c.009.059.044-.03 0 0zm8.788-.02c-.007-.062-.041.014 0 0zm.956 2.966c.1-.23-.342.022 0 0zm-3.04.096c-.249-.179.03.188 0 0zm-.114.099c.173-.02-.051-.049 0 0zm1.613-5.904c-.446-.078.68.443-.087.139.236.256.523.158.087-.14zm-9.483 6.45c-.209-.061.037-.056 0 0zm7.713-.595c.2.226.04.022 0 0zm74.048 18.442c-.03-.231-.016-.12 0 0zm-.028-.045c.058-.003-.021-.089 0 0zm-5.39 5.176c-.02-.165-.12-.112 0 0zm5.335-4.917c.034-.06-.094-.049 0 0zm.056-.107c-.014-.03-.023.059 0 0zm-19.263-14.761c.31.249.494-.144 0 0zm-14.857-34.742c-.302-.224-.13.17 0 0zm3.261 2.556c.084.366-.01.118 0 0zm.067.223c.42.164.524.076.035.027zm6.341 6.318c.302-.497.038.707-.192.282-.165-.113.45.54 1.085.69-.1-.208-.35-.973-.819-1.196-.172-.066-.176.15-.074.224zm-5.97-6.345c-.277-.224-.427-.236 0 0zm30.387 46.726c.06.023-.003-.135 0 0zm-15.72-20.281c-.61-.095.014.495 0 0z" transform="translate(-235.778 -98.07) scale(1.15556)" id="path4" />
    </g>
  </g>
</svg>
