<?xml version="1.0" encoding="UTF-8" standalone="no"?>
<svg width="12.365" height="37.034" version="1.1" id="svg14" sodipodi:docname="mariana_islands.svg" xmlns:inkscape="http://www.inkscape.org/namespaces/inkscape" xmlns:sodipodi="http://sodipodi.sourceforge.net/DTD/sodipodi-0.dtd" xmlns="http://www.w3.org/2000/svg" xmlns:svg="http://www.w3.org/2000/svg">
  <defs id="defs18" />
  <sodipodi:namedview id="namedview16" pagecolor="#ffffff" bordercolor="#666666" borderopacity="1.0" objecttolerance="10.0" gridtolerance="10.0" guidetolerance="10.0" inkscape:pageshadow="2" inkscape:pageopacity="0.0" inkscape:pagecheckerboard="0" />
  <g style="display:inline" id="g12">
    <g style="stroke-width:.865384" id="g10">
      <path d="M123.836 54.715c-5.019.249-3.508 8.904 1.178 6.375 2.774-1.813 2.918-6.404-1.178-6.375z" style="display:inline;fill:#c1ddf3;fill-opacity:1;stroke:#7152eb;stroke-width:.865384;stroke-linecap:butt;stroke-linejoin:bevel;stroke-miterlimit:4;stroke-dasharray:none;stroke-opacity:1" transform="translate(-138.995 -34.584) scale(1.15556)" id="path2" />
      <path style="display:inline;opacity:1;fill:#fff;fill-opacity:1;fill-rule:evenodd;stroke:#7152eb;stroke-width:.865384;stroke-linejoin:round;stroke-miterlimit:4;stroke-dasharray:none;stroke-opacity:1" d="M123.372 58.828c-.043.042.124-.07 0 0zm.424-.543c.304-.205.93-.92.218-.8-.046.726-.836.475-.564.618-.06-.138-.275.517.195.69.15-.14.15-.247.151-.508z" transform="translate(-138.995 -34.584) scale(1.15556)" id="path4" />
      <path d="M123.852 30.383c-4.838 1.34-.68 5.95.238 8.305.108 3.298 1.094 6.569-.049 9.779 2.657 3.037-4.437 6.745-.416 9.66 3.982 1.663 5.068-3.385 6.336-5.89.653-2.145.991-4.194-.18-6.307.564-2.394.295-3.428-.181-6.213-1.077-3.203-1.396-7.109-4.55-9.22a2.739 2.739 0 0 0-1.198-.114zm-.536 5.283c.058.965-.199-.009 0 0z" style="display:inline;fill:#c1ddf3;fill-opacity:1;stroke:#7152eb;stroke-width:.865384;stroke-linecap:butt;stroke-linejoin:bevel;stroke-miterlimit:4;stroke-dasharray:none;stroke-opacity:1" transform="translate(-138.995 -34.584) scale(1.15556)" id="path6" />
      <path style="display:inline;opacity:1;fill:#fff;fill-opacity:1;fill-rule:evenodd;stroke:#7152eb;stroke-width:.865384;stroke-linejoin:round;stroke-miterlimit:4;stroke-dasharray:none;stroke-opacity:1" d="M126.734 52.96c.306-.857-.542-.488 0 0zm-.79-16.753c.096-.229-.207.013 0 0zm.75 11.77c.231.303.505-.264 0 0zm.71-3.316c.131-.146-.181-.1 0 0zm-.018-1.128c-.276.031.153.243 0 0zm-.2-1.957c-.415.379.033.733 0 0zm-.385-2.267c-.404.303.401.383 0 0zm1.301 9.886c.094-.097.001-.081 0 0zm-1.702 4.067c.265-.068-.082-.124 0 0zm.75-6.523c.132.203.075-.177 0 0zm-2.175 9.032c.48.207.873-.765 0 0zm2.018-3.826c-.311 1.098.766-.608.055-.025-.038.02-.044.026-.055.025zm-1.709-16.991c.112.004-.065-.042 0 0zm.034.048c.03.06.02-.106 0 0zm-1.144-1.918c-.039.145.115-.02 0 0zm1.09 1.934c.027 0-.056-.138 0 0z" transform="translate(-138.995 -34.584) scale(1.15556)" id="path8" />
    </g>
  </g>
</svg>
