<?xml version="1.0" encoding="UTF-8" standalone="no"?>
<svg width="51.274" height="46.923" version="1.1" id="svg10" sodipodi:docname="marshall_islands.svg" xmlns:inkscape="http://www.inkscape.org/namespaces/inkscape" xmlns:sodipodi="http://sodipodi.sourceforge.net/DTD/sodipodi-0.dtd" xmlns="http://www.w3.org/2000/svg" xmlns:svg="http://www.w3.org/2000/svg">
  <defs id="defs14" />
  <sodipodi:namedview id="namedview12" pagecolor="#ffffff" bordercolor="#666666" borderopacity="1.0" objecttolerance="10.0" gridtolerance="10.0" guidetolerance="10.0" inkscape:pageshadow="2" inkscape:pageopacity="0.0" inkscape:pagecheckerboard="0" />
  <g style="display:inline" id="g8">
    <g style="stroke-width:.865384" id="g6">
      <path d="M204.97 51.191c-5.519 1.029-.548 9.043 2.641 4.336 1.192-1.87-.25-4.772-2.64-4.336zm3.803 8.362c-3.102.67-1.689 4.185-4.148 5.48.824 2.442-1.444 2.363-2.02 4.522.85 3.131-1.765-1.718-3.533-.024-3.313-.675 1.935-1.208 2.99-2.095 3.35-3.98-3.247-6.733-6.158-4.602-2.938-4.414-9.119 2.262-4.013 4.418 1.729.28.2 3.309-.74 4.465-1.21 3.89 3.881 5.107 6.228 4.627 1.556 1.82 3.645 2.6 5.086 4.847 1.992.552 2.193 1.938-.125.86-3.584-.01-3.177 4.779-.846 5.742-.61 4.575 7.318 3.85 5.508-.662 4.254-.249 4.063-6.233.506-7.274 1.59-2.712-.912-4.907-3.084-5.539-1.49-1.816-.457-1.92 1.37-1.03.374 3.117 5.616 2.133 3.86 5.5-.772 2.937 2.67 3.309 2.65 5.962 1.891 2.742 7.532 2.166 6.159-2.004-1.187-2.114-.047-5.19-3.188-6.04.604-2.195-.4-4.773-1.943-5.577 2.936-2.358-1.047-5.31-2.434-5.27-.036-2.165 2.874-5.988-2.125-6.306zm-26.412 1.967c-5.701.57-1.707 9.595 2.534 5.65 1.968-1.967.253-5.822-2.534-5.65zm-4.64 6.185c-5.603.646-.742 8.803 2.799 4.64 1.485-1.974-.503-4.828-2.8-4.64zm37.595 7.57c-.137.573.04-.305 0 0zm.61 1.932c1.111.969-.73-.435 0 0z" style="display:inline;fill:#c1ddf3;fill-opacity:1;stroke:#b122e5;stroke-width:.865384;stroke-linecap:butt;stroke-linejoin:bevel;stroke-miterlimit:4;stroke-dasharray:none;stroke-opacity:1" transform="translate(-201.915 -58.606) scale(1.15556)" id="path2" />
      <path style="display:inline;opacity:1;fill:#fff;fill-opacity:1;fill-rule:evenodd;stroke:#b122e5;stroke-width:.865384;stroke-linejoin:round;stroke-miterlimit:4;stroke-dasharray:none;stroke-opacity:1" d="M178.284 70.735c.255.036-.214-.065 0 0zm26.236 7.705c-.004-.047-.075.06 0 0zm4.95-6.666c-.04.208.112.044 0 0zm-4.09-1.516c.03-.106-.072-.005 0 0zm3.137 1.336c.084.015.005-.056 0 0zm-9.727.632c.092-.034-.068-.017 0 0zm5.756 15.947c-.005.116.02-.13 0 0zm-1.575-10.861c-.018.171.062-.013 0 0zm3.737 5.276c.04-.049-.052-.029 0 0zm-4.833-6.503c-.078-.009.116.106 0 0zm-1.162-2.021c-.097-.125-.08.016 0 0zm-2.527-1.756c-.005-.047-.065 0 0 0zm2.884 1.754c.003-.272.037.216 0 0zm1.66 3.506c.032.039.248.014 0 0zm-2.993-4.562c.313-.112-.043-.02 0 0zm7.077 10.723c-.046-.074-.115-.009 0 0zm-2.64 4.46c.001-.09-.09-.051 0 0zm7.378-14.483c-.065-.092-.051.167 0 0zm-11.286-.593c.042 0-.093-.06 0 0zm4.83 5.47c-.27.192.012.03 0 0zm4.26-6.525c-.078.048.077-.056 0 0zm-5.53 6.719c.12.408-.091-.514 0 0zm3.5 4.475c.07 0-.122-.199 0 0zm-.21.826c.001-.086-.043-.014 0 0zm2.05-12.578c.095.001.033-.08 0 0zm-9.686 1.516c-.084-.087-.069.009 0 0zm4.816 5.561c.078-.028-.025-.055 0 0zm-10.643-5.918c.003-.065-.064-.046 0 0zm18.052 1.038c-.034-.038-.058.003 0 0zm-7.5 14.364c.038-.042-.014-.039 0 0zm1.825-17.52c.128-.046-.167.031 0 0zm-7.919 1.745c-.012-.067-.107.013 0 0zm7.026 6.06c-.066.024.024.133 0 0zm2.346 5.453c-.196.606-.17.58 0 0zm-13.036-10.204c-.074-.08-.042.068 0 0zm12.729 9.419c.026.09.036.087 0 0zm-6.096-8.78c-.116.077.005.169 0 0zm-.749-1.072c-.063-.087-.053-.004 0 0zm9.058-1.135c.056.028.042-.086 0 0zm-8.886 1.281c.025-.04-.066-.074 0 0zm4.742 4.319c.052-.057-.04-.045 0 0zm-.81.899c.077-.024-.005-.07 0 0zm-1.743-1.01c-.005.05.046.062 0 0zm6.156-4.217c-.038-.078-.048.016 0 0zm-14.794-.395c.029-.054-.098-.03 0 0zm8.512 3.318c.107.135-.075-.093 0 0zm2.55 2.28c0 .076.025-.083 0 0zm.978-7.966c.112.005-.038-.038 0 0zm-.38 14.228c.058.004.05-.074 0 0zm-1.497 3.485c.019-.037-.055.001 0 0zm2.164-17.751c-.022-.068-.103-.031 0 0zm-2.161 8.594c.307.112.263.094 0 0zm3.517 4.392c0 .123.053.02 0 0zm-8.41-10.559c-.02-.085-.072 0 0 0zm8.97-1.345c-.041-.056-.089-.012 0 0zm-7.111 2.176c.038-.072-.021-.11 0 0zm-3.15-1.492c-.02-.072-.118-.02 0 0zm9.038 11.726c.042-.045-.095-.067 0 0zm-3.016-4.984c.309.098-.215-.088 0 0zm1.801-8.384c-.152.044.197-.066 0 0zm-9.73 2.986c-.213.032.112.043 0 0zm16.53.55c-.027-.075-.054.037 0 0zm.594 5.72c.128-.095.029-.185 0 0zm1.621.04c-.355.204-.429.339 0 0zm-2.466-.095c2.149.54-1.023-.42 0 0zm.28-4.73c.066-.013-.023-.085 0 0zm-.48.443c-.023-.091-.038.053 0 0zm2.296 7.472c.03.11-.068-.44 0 0zm-1.699-8.602c.157-.054-.12-.11 0 0zm-.505 5.009c.04.06.046-.02 0 0zm.29-3.686c.106.004-.085-.086 0 0zm-.232-1.815c.02.058.033-.021 0 0zm3.563 9.96c.098.12.107.104 0 0zm-3.639-10.032c0-.054-.071 0 0 0zm2.325 6.435c-.419-.131-1.061-.455-.362-.134.108-.037.277.253.362.134zm-1.85-.65c.09-.006-.038-.02 0 0zm2.291 3.676c.691.248.594.205 0 0zm-2.423-7.047c.046.17.036-.047 0 0zm-.515-1.578c-.04-.024.065.07 0 0zm.512 1.442c-.039-.042-.014.04 0 0zm-29.763-11.7c.003-.037-.122-.058 0 0zm.205.658c.021-.036-.046-.005 0 0zm22.309-11.097c.036-.06-.057-.012 0 0zm-.042 15.809c-.106-.072.03.097 0 0zm6.3-.761c.057-.163-.086-.073 0 0zm-11.304-3.79c.068-.032-.062-.03 0 0zm7.582.582c-.044-.07-.049.013 0 0zm-2.534-11.83c-.156.166-.242.262 0 0zm-11.618 10.77c.058-.06-.008-.153 0 0zm4.07 1.2c.078-.04-.122.008 0 0zm7.333-11.773c.076-.045.046-.077 0 0zm3.396 14.254c.046-.033-.044-.061 0 0zm-3.193-14.507c.056-.04-.031-.08 0 0zm3.245 14.786c-.05.007.021.046 0 0zm-13.33.698c.082-.086-.155-.108 0 0zM200.2 65.5c.052-.054-.089.046 0 0zm-6.478-1.073c.024-.105-.143-.123 0 0zm2.872 1.695c.117-.03-.121.003 0 0zm11.943 2.279c.053-.022-.058-.047 0 0zm-15.48-3.583c.045-.018-.137.005 0 0zm1.92 4.554c.06-.037-.056-.081 0 0zm-1.724-4.594c.063-.058-.116.05 0 0zm15.266 3.593c.038-.058-.077-.007 0 0zm-10.406-2.378c-.187.077.384-.129 0 0zm-15.105-.81c.065-.15-.048.022 0 0zm14.543.61c.025-.054-.081.042 0 0zm1.245-.795c.029-.06-.056.024 0 0zm-15.94.373c.362-.23-.085.004 0 0zm12.362 4.253c.014-.145-.015-.11 0 0zm3.363-4.364c.083-.005-.13-.012 0 0zm-5.725-1.135c.028-.068-.073.016 0 0zm-9.934.496c.1.19.063 0 0 0zm15.311.91c.036-.17-.047.091 0 0zm9.337.62c.02-.062-.048 0 0 0zm-11.17-.053c.05-.05-.105.021 0 0zm12.171 2.422c.053-.09-.034.04 0 0zm.056.694c.072-.032-.056-.053 0 0zm-13.307.682c.05-.086-.124-.02 0 0zm-12.73-5.631c.004-.107-.078.034 0 0zm22.798 5.57c-.007-.06-.095.033 0 0zm-8.536-3.711c-.058.025.1-.01 0 0zm.686-1.192c.003-.05-.044.04 0 0zm14.714 14.495c.095-.007.003-.045 0 0zm2.716.456c-.138.14.632-.387 0 0zm-.98-.154c-.064-.005.015.107 0 0zm.282-.44c-.1.021-.092.168 0 0zm-14.099-7.3c.004.077.12.005 0 0zm-3.153-5.852c.029-.033-.054-.019 0 0zm11.14-.361c.259-.107-.212.034 0 0zm-5.785 19.012c.027.208-.138.125 0 0zm-.11-.024c.009.096.12-.035 0 0zm-9.067-20.62c.064.097.208-.076 0 0zm11.988 14.129c.042-.202-.084-.198 0 0zm-.466.958c.025-.05-.495-.056 0 0zm9.913 4.066c-.131-.184-.25-.035 0 0zm-14.746-7.575c.075-.047-.1-.055 0 0zm-.262-2.715c.132-.028.014-.023 0 0zm8.125 10.555c-.282.255-.142.126 0 0zm-.173-.216c.077.088.086.06 0 0zm8.236.278c-.05-.015.025.058 0 0zm-.942-.253c-.244-.06-.324-.033 0 0zm-8.51-12.84c-.169.04.126.048 0 0zm-.146-.246c-.053.015.05.024 0 0zm.04.028c-.06-.022.023.064 0 0zM182.55 64.26c.005-.108-.075.034 0 0zm.332.356c.099.188.066-.001 0 0zm-.066.748c.357-.23-.089.012 0 0zm.153-.185c.066-.161-.05.022 0 0zm.056-.107c.023-.036-.046-.007 0 0zm-.204-.657c.005-.037-.124-.06 0 0z" transform="translate(-201.915 -58.606) scale(1.15556)" id="path4" />
    </g>
  </g>
</svg>
