<?xml version="1.0" encoding="UTF-8" standalone="no"?>
<svg width="106.799" height="42.753" version="1.1" id="svg10" sodipodi:docname="micronesia.svg" xmlns:inkscape="http://www.inkscape.org/namespaces/inkscape" xmlns:sodipodi="http://sodipodi.sourceforge.net/DTD/sodipodi-0.dtd" xmlns="http://www.w3.org/2000/svg" xmlns:svg="http://www.w3.org/2000/svg">
  <defs id="defs14" />
  <sodipodi:namedview id="namedview12" pagecolor="#ffffff" bordercolor="#666666" borderopacity="1.0" objecttolerance="10.0" gridtolerance="10.0" guidetolerance="10.0" inkscape:pageshadow="2" inkscape:pageopacity="0.0" inkscape:pagecheckerboard="0" />
  <g style="display:inline" id="g8">
    <g style="stroke-width:.865384" id="g6">
      <path d="M106.574 66.979c-2.592-.283-2.34 3.874-4.527 1.615-3.843-.505-2.738 4.033-5.184 5.338-2.52 3.826 4.862 6.622 5.21 1.841-.347-1.323 2.15-3.323 2.52-3.334 1.93 1.248 4.635 1.115 6.686.368 3.118-3.622-2.157-5.212-4.705-5.828zm18.83 2.943c-1.788 1.489-3.665 2.023-5.049 3.926.58 2.383-.411 2.274-2.021 3.64-1.06 1.39-4.703 2.908-2.373 5.477 2.158 2.662 4.147-.828 5.61-1.186 2.15 1.588 3.657-2.266 4.292-1.82 1.904 1.955 5.79 2.126 7.793.424.886-1.825 4.21-4.065 1.244-6.227-2.155-.23-4.603-.788-6.535.563-1.462.015-3.623 1.79-3.797 2.662-.191-2.416 5.593-2.464 3.604-6.055-.51-.984-1.658-1.618-2.768-1.404zm16.262.781c-2.187.66-4.595 2.883-3.965 5.272-3.117 1.91-1.776 9.26 2.54 7.687 2.975-1.58-.116-6.877 3.984-6.594 1.475-1.554-2.234 2.686-.028 3.61 1.132 1.89 4.248 1.606 5.008 2.804-.044 3.627 5.593 7.712 7.488 2.825 1.23-3.833-4.548-3.53-3.869-7.229-1.766-1.58-3.237-1.765-1.011-3.898.984-4.37-5.016-4.448-6.89-2.114-.645-1.268-1.608-2.61-3.257-2.363zm-33.283 2.867c-4.86 1.095-.264 8.271 2.906 4.446 1.537-1.962-.568-4.943-2.906-4.446zm47.07.012c-4.416.944-1.846 6.132 1.09 6.256 2.521 4.586 8.63-1.508 4.256-4.137-2.776.315-2.705-2.085-5.346-2.119zm-18.44 3.402c0-.093.256-.42 0 0zm30.118.237c-3.556.29-.746 4.348-3.207 4.86-4.508 3.683 4.763 7.672 4.82 2.124.33-.393 3.182-2.498 3.424-1.164 1.721 1.069 3.114 1.155 4.701 2.453 4.57.812 3.714-6.501-.271-5.5-.864-3.035-4.37.012-4.856-1.098-.895-1.824-2.935-1.576-4.611-1.675zm17.904 5.761c-5.027.33-2.346 7.984 1.678 5.24 2.298-1.49 1.077-5.432-1.678-5.24zm-27.262 5.063c-4.652.46-1.771 7.853 1.97 4.975 2.131-1.57.661-5.287-1.97-4.975zm-.408 9.332c-5.375.514-.963 8.885 2.412 4.414 1.216-1.778-.174-4.576-2.412-4.414z" style="display:inline;fill:#c1ddf3;fill-opacity:1;stroke:#eb5293;stroke-width:.865384;stroke-linecap:butt;stroke-linejoin:bevel;stroke-miterlimit:4;stroke-dasharray:none;stroke-opacity:1" transform="translate(-110.834 -76.883) scale(1.15556)" id="path2" />
      <path style="display:inline;opacity:1;fill:#fff;fill-opacity:1;fill-rule:evenodd;stroke:#eb5293;stroke-width:.865384;stroke-linejoin:round;stroke-miterlimit:4;stroke-dasharray:none;stroke-opacity:1" d="M109.123 76.37c-.028-.108-.054-.015 0 0zm30.35 1.97c-.074-.073-.112.043 0 0zm-.832.6c.093-.045-.154-.055 0 0zm-9.434-.311c.038-.071-.053-.036 0 0zm9.824 2.634c.102-.127-.09-.116 0 0zm-10.519-2.83c.017-.056-.05-.004 0 0zm11.855-3.708c-.17.253.067 0 0 0zm-.906 3.288c.07-.045-.032-.052 0 0zm-.784.965c.083-.09-.028-.058 0 0zm8.014-.105c-.046.115.187-.038 0 0zm.669.145c.069-.01.019-.082 0 0zm-.095-3.712c.04-.025-.039-.02 0 0zm6.937 9.943c.21-.126-.129.018 0 0zm-4.145-5.045c.075-.013-.09-.079 0 0zm3.388 4.724c.012.183-.053.043 0 0zm-.427.47c.043.005-.007-.051 0 0zm-2.548-4.676c.065-.012-.042-.022 0 0zm1.42 3.095c-.017-.047-.054-.014 0 0zm1.423 1.457c.123-.034-.058-.037 0 0zm-1.332-1.481c.04.107.003-.047 0 0zm6.136 7.032c-.07.115.06-.007 0 0zm-4.224-5.596c-.03-.083-.05-.016 0 0zm-3.295-4.726c-.063.053.09.019 0 0zm3.319 5.342c.114-.08.016-.069 0 0zm-.12.064c-.46.254.34-.2 0 0zM152 83.908c.014-.032-.115-.038 0 0zm25.42-1.032c.192-.222-.092-.016 0 0zm7.716 2.803c-.69.503.298.277.066.099.03-.043.012-.142-.066-.1zm-16.39-5.123c.044.03 0-.047 0 0zm5.464.744c.068-.035-.056-.012 0 0zm10.603 4.634c-.05-.078.021.074 0 0zm-10.584-4.683c.054-.09-.003-.06 0 0zm-6.674-1.34c.007-.075-.058-.037 0 0zm1.724.32c-.003-.065-.065.02 0 0zm4.933.992c.032-.057-.033-.034 0 0zm-8.107 3.045c.009-.051-.051.043 0 0zm3.424-3.59c-.007-.067-.083.037 0 0zm-1.79-.634c.029-.04-.077-.014 0 0zm9.67 2.738c-.036-.053-.064.026 0 0zm-9.311-1.685c.14-.161-.076.018 0 0zm1.186-.885c.115-.019-.032-.04 0 0zm-3.783 4.063c-.036-.056-.091.008 0 0zm2.807-3.282c.162-.17.012-.059 0 0zm.788-.808c.015-.057-.052-.008 0 0zm-11.567 20.107c.004.014.073-.075 0 0zm11.906-19.645c-.095-.079-.029.206 0 0zm-.526-.39c-.319.058-.108.706.28.588.242-.046.147-.25.2-.431-.042-.1-.286-.105-.34-.136-.144-.079.107-.055-.14-.02zm.265-.096c.039-.158-.114.13 0 0zm15.847 5.552c-.024-.032-.06.07 0 0zm-37.273-6.772c-.038-.031-.03.067 0 0zm-4.944-4.105c.023-.037-.059-.011 0 0zm4.426 4.043c-.273-.18-.052.121 0 0zm-.2-.116c-.073-.05-.048.062 0 0zm.393.18c.044-.077-.105.035 0 0zm.292.244c.104-.09-.111-.137 0 0zm.527-4.43c.021-.04-.046-.03 0 0zm1.015-.337c.039-.005 0-.052 0 0zm-1.73 4.753c.044-.044-.047-.084 0 0zm-.291-.31c.061-.04-.023-.048 0 0zm.476-.34c.06.004-.023-.043 0 0zm.092 1.147c.164-.032-.113-.012 0 0zm-1.16-.65c.176.118.195-.176 0 0zm.357-.083c-.113-.036.079.113 0 0zm.32-1.07c.068-.026-.046-.011 0 0zm.3 1.133c-.155-.506-.048.386 0 0zm.173-4.13c.094.005-.04-.047 0 0zm.038-.007c.083-.022-.02-.04 0 0zm.234 4.644c.003-.07-.094.089 0 0zm-6.248-6.082c.062-.023-.06-.014 0 0zm6.066 6.198c.12-.051.01-.056 0 0zm1.044-4.928c.096-.007-.084-.033 0 0zm-17.49 4.163c-.07-.059-.071.113 0 0zm15.406.086c-.13-.385.017.312 0 0zm.946-.307c-.203-.185-.384.242 0 0zm-.045.203c-.222.123.106.073 0 0zm-27.077.053c-.052-.026-.067.057 0 0zm-14.06-8.664c-.052.084-.021.056 0 0zm14.292 8.638c-.12-.007.038.134 0 0zm1.85.482c-.014-.114-.082-.083 0 0zm-2.071-.458c.059.058.03-.035 0 0zm-19.138-7.607c.076-.106-.168-.14 0 0zm7.956-.52c.049-.128-.113.09 0 0zm11.164 8.297c.056-.014-.06-.021 0 0zm.241-.107c-.056.075.036.025 0 0zm-13.945-9.098c.058.009-.065-.034 0 0zm.075.053c.064-.05-.076-.042 0 0zm-5.499 1.511c.09.007.06-.356 0 0zm.136.052c-.076-.324-.282.37 0 0zm-.47.338c.285-.064.416-.89 0 0z" transform="translate(-110.834 -76.883) scale(1.15556)" id="path4" />
    </g>
  </g>
</svg>
