<?xml version="1.0" encoding="UTF-8" standalone="no"?>
<svg width="71.059" height="28.608" version="1.1" id="svg10" sodipodi:docname="new_caledonia.svg" xmlns:inkscape="http://www.inkscape.org/namespaces/inkscape" xmlns:sodipodi="http://sodipodi.sourceforge.net/DTD/sodipodi-0.dtd" xmlns="http://www.w3.org/2000/svg" xmlns:svg="http://www.w3.org/2000/svg">
  <defs id="defs14" />
  <sodipodi:namedview id="namedview12" pagecolor="#ffffff" bordercolor="#666666" borderopacity="1.0" objecttolerance="10.0" gridtolerance="10.0" guidetolerance="10.0" inkscape:pageshadow="2" inkscape:pageopacity="0.0" inkscape:pagecheckerboard="0" />
  <g style="display:inline" id="g8">
    <g style="stroke-width:.865384" id="g6">
      <path d="M184.633 162.291c-5.235 1.843-2.021 9.402.85 12.236 2.634 4.927 8.143 6.911 11.542 11.164 2.307 1.583 5.06-1.154 6.243-1.783 4.008 3.526 7.03-5.082 1.664-4.726 1.13-5.773-6.688-6.565-9.309-9.95-1.673-2.322-6.307 2.9-3.434-.2 1.897-2.635-1.766-5.62-3.935-4.329-.62-1.385-2.036-2.554-3.621-2.412zm-13.912 3.795c-5.313-.412-6.045 9.505-.354 8.904-4.506 1.652.299 8.082 3.08 4.112 1.506-1.822-.688-4.619-2.422-4.278 3.805-1.213 5.271-9.125-.304-8.738zm53.199 9.928c-4.475.714-1.31 7.807 2.139 4.847 2.15-1.667.472-5.266-2.14-4.847zm-11.147 2.244c-4.05.672-1.825 6.827 1.73 5.363 4.57 2.06 5.183-6.51.366-5.117-.627.266-1.353-.55-2.096-.246z" style="display:inline;fill:#c1ddf3;fill-opacity:1;stroke:#1b5394;stroke-width:.865384;stroke-linecap:butt;stroke-linejoin:bevel;stroke-miterlimit:4;stroke-dasharray:none;stroke-opacity:1" transform="translate(-191.794 -187.023) scale(1.15556)" id="path2" />
      <path style="display:inline;opacity:1;fill:#1b5394;fill-opacity:1;fill-rule:evenodd;stroke:#1b5394;stroke-width:.865384;stroke-linejoin:round;stroke-miterlimit:4;stroke-dasharray:none;stroke-opacity:1" d="M196.705 174.127c.054-.018-.052-.028 0 0zm-7.937-.497c-.089-.04-.017.042 0 0zm7.801.497c.07-.009-.044-.03 0 0zm-1.82 5.208c-.023-.09-.094.034 0 0zm18.517 1.608c-.077-.024.033.055 0 0zm-24.871-8.371c-.12.188.22.239-.017-.038l.025.012zm.434 1.096c.027-.218-.096 0 0 0zm-.996-.966c.253.214-.07-.334 0 0zm13.48 3.687c-.17.156.35.211 0 0zm-3.881-2.163c.057-.025-.035-.016 0 0zm-2.045 5.473c-.204.024.083.09 0 0zm-7.123-7.282c.068-.004-.048-.045 0 0zm7.32 7.3c.045-.026-.039-.039 0 0zm-7.306-7.154c.038-.091-.063-.034 0 0zm8.516 2.481c.06.024.017-.062 0 0zm-1.233 4.61c.04-.027-.034-.031 0 0zm-8.159-7.78c.105-.05.001-.076 0 0zm1.156 1.417c.072-.037-.126-.068 0 0zm8.628 7.52c.043-.021-.062-.037 0 0zm-2.74-1.776c.003-.112-.09.117 0 0zm-25.035-6.955c-.027-.072-.169-.124 0 0zm.51.063c0-.052-.109-.203 0 0zm27.31 1.745c-.302.005.244.248-.236.983-.348.418.55-.14.182-.528.214-.248.43-.125.053-.455zm-9.033-.897c.19.285.119-.023 0 0zm5.986 5.91c.06-.118-.094.037 0 0zm2.664 1.93c.073-.137-.05-.097 0 0zm3.655-4.21c.025-.103-.207-.085 0 0zm-3.965-1.534c.293.078.36-.146 0 0zm-9.305-3.92c.057.729.477.58 0 0zm8.264 8.489c.152-.133-.012-.166 0 0zm-6.446-6.854c.462.648-.015-.349 0 0zm7.46 5.736c.175-.046-.115-.03 0 0zm-7.937-5.437c.039-.058-.068-.044 0 0zm2.707 3.53c-.074-.022-.005.075 0 0zm9.128 5.4c-.03-.058-.008.078 0 0zm-11.932-8.99c.07.012.008-.06 0 0zm-3.192-6.652c.051-.014-.069-.026 0 0zm4.212 7.055c.03-.206-.182-.245 0 0zm5.969 4.415c.074.014.012-.076 0 0zm.12 2.141c-.214.059.078.02 0 0zm9.596 1.823c-.029.003-.087.238 0 0zm-4.582-4.776c.044-.068-.093-.042 0 0zm-13.466-6.112c-.07.056-.042.008 0 0zm13.21 10.831c.017-.044-.048-.017 0 0zm-4.823-1.85c.096-.082-.076-.038 0 0zm4.785 2.304c.185-.203.083-.076 0 0zm-4.9-2.276c-.024-.37-.087.114 0 0zm-3.449-2.55c.055-.107-.022-.085 0 0zm-3.507-4.48c.11-.082-.08-.026 0 0zm9.657 8.175c.01-.046-.077.001 0 0zm-13.118-15.541c.032-.078.008-.107 0 0zm15.53 16.926c.02-.048-.04-.012 0 0zm-4.594-1.974c-.03-.06-.042.003 0 0zm-4.092-3.149c-.094.17.208.011 0 0zm5.234-3.366c.032-.152-.2.027 0 0zm-.48 6.51c.076-.027-.075-.044 0 0zm-8.16-7.656c.035-.125-.14.016 0 0zm1.317 2.19c.056-.047-.05-.042 0 0zm10.402 7.262c.083-.057-.076-.004 0 0zm-4.467-8.323c.11.044.046-.096 0 0zm5.403 3.484c.047-.139-.055-.177 0 0zm-6.16 2.012c.022-.04-.09-.034 0 0zm1.584-4.495c.02-.061-.056-.024 0 0zm-1.554 4.506c-.028.06.084.056 0 0zm1.632-5.364c.056-.024-.043-.02 0 0zm.22-.013c.03-.044-.032-.02 0 0zm-11.373-7.01c.021-.028-.045-.015 0 0zm16.911 10.568c-.633.148-.34-.429-.922-.219-.133.26.076.955.385.944.508.36.654-.428.537-.725zm-6.718 2.415c.028.036.014-.06 0 0zm.066-.399c.007.079.066-.021 0 0zm-6.178-6.206c.047.053.014-.08 0 0zm-.032.023c.042.069.035-.037 0 0zm10.62 8.619c.297-.167.405-.012.295-.27-.335-.488-.51.085-.296.27zm-3.433-1.435c-.317-.206.04.131 0 0zm19.042.476c.05.011-.012-.066 0 0zm-20.52-1.52c.2.113-.11-.188 0 0zm-.07-.053c-.2-.078.08.159 0 0zm3.602 1.033c-.054.046.049.082 0 0zm-.019.07c-.03.056.078.023 0 0zm-2.082-2.077c.053.21.234-.1 0 0zm1.443 2.38c.009.07.049-.03 0 0zm-1.22-2.1c-.085.001.096.09 0 0zm-.646 1.439c-.046.055.08.08 0 0zm-6.86-6.856c-.369-.252-1.047-.922-.753-.577.027.11.301.345-.036.544.328.094.129-.008.545.254.083.267-.397.113.136.69.304.218.724.702.612.888.404.469.816.627.923.53-.065.353.142.09.072.443.328.106.584.066.434.204.164.04.063.507.387.809.114.043.346-.132.317.207.459-.221.327.417.784.545.524.227.871.556 1.224.709.288-.001.15-.01.486.152.029.138.114.289.316.322.429.41.4.31.734.238.262.126.203.418.244.482-.361.079.532.494.656.369-.215.103.028.262.255.032.06.325-.11.213.1.528.062-.416.393-.238.802.047.17.157.48.37.505-.051.027-.102.188.532.4.136.5-.222-.202-1.18-.724-1.3-.343-.139-.213-.175-.741-.588-.394-.514-.73-.661-1.05-.84-.648-.238-.486-.527-.857-.612.2.668-.161-.035-.267-.177-.149.243-.338-.316-.954-.564-.294-.214.184-.02-.166-.295-.621-.237-.512-.822-.999-.993.054-.672-1.267-.306-1.542-1.178-.55-.33-1.13-1.192-1.648-1.013.095.14-.185.146-.194.059zm6.84 1.27c.047-.026-.08-.029 0 0zm2.46 1.056c.308.487.906.88 1.36.884.472-.705-.953-.754-.38-1.548-.413-.41-1.346.197-.441.21.08.302-.29.555-.54.454zm1.887 1.447c.066-.033-.04-.05 0 0zm-10.761-9.824c.131.033-.04-.127 0 0zm-.08-.123c.007.15.107-.038 0 0zm.283.223c.079-.744-.351-.507 0 0zm7.986 13.872c.12.004.077-.439-.07-.124-.096.044-.012.162.07.124zm-4.104-9.928c.235.355.072.083 0 0zm.036.56c.415-.755-.693.467 0 0zm.72 7.07c0 .065.056-.014 0 0zm5.394 2.861c-.03-.047-.027.07 0 0zm-4.674-2.414c.057.01.02-.052 0 0zm-.153-1.642c.048-.024-.085.038 0 0z" transform="translate(-191.794 -187.023) scale(1.15556)" id="path4" />
    </g>
  </g>
</svg>
