<?xml version="1.0" encoding="UTF-8" standalone="no"?>
<svg width="97.163" height="213.138" version="1.1" id="svg12" sodipodi:docname="new_zealand.svg" xmlns:inkscape="http://www.inkscape.org/namespaces/inkscape" xmlns:sodipodi="http://sodipodi.sourceforge.net/DTD/sodipodi-0.dtd" xmlns="http://www.w3.org/2000/svg" xmlns:svg="http://www.w3.org/2000/svg">
  <defs id="defs16" />
  <sodipodi:namedview id="namedview14" pagecolor="#ffffff" bordercolor="#666666" borderopacity="1.0" objecttolerance="10.0" gridtolerance="10.0" guidetolerance="10.0" inkscape:pageshadow="2" inkscape:pageopacity="0.0" inkscape:pagecheckerboard="0" />
  <g style="display:inline" id="g10">
    <g style="stroke-width:.865384" id="g8">
      <path d="M198.242 278.356c1.312-1.018-1.18-.902 0 0zm4.946 5.8c-.658.273.93-1.216-1-1.167.072 1.067-1.36 3.464-.476 2.473 1.062-.215 3.061-.941 1.476-1.305zm-6.975 20.087c-.58.504 1.614.01 0 0zm10.404 9.083c.334 1.292.85-1.158 0 0zm-10.55-9.696c-.501.559 1.58.448.573-.18.846-.82.206-1.897-.573.18zm23.567-34.233c1.57-1.3-1.494-.846-.775-1.506.43-2.416 3.495-4.813 4.735-7.55.288-1.265-.512-2.766.422-2.885-2.257.386 1.034-.815-.2-1.158-1.652-.013-.166 1.112-1.046 1.06-.29-.026-.295-1.032.236-1.426-.817.055-2.331 2.69-3.158.998 1.032-1.484-2.941-2.409.017-2.584-2.019-.721-3.293 1.707-3.395 4.011-2.828 2.074-2.658 6.684-6.51 8.234-2.073 2.54-5.62 2.942-7.409 5.5.501 1.543-1.269.428-1.19 2.006-.792-1.049.026 1.328-.885.128.047 1.428-1.25.597-.445 1.82-.39.163.452 1.298-.42.58.168-1.28-2.066 1.231-.06.513-.66.49-1.059.861-.164 1.14-2.182.127-1.566 1.466-.847 1.06-.745.766.465.353.52.142-1.717 2.628 3.082-.306 3.276 1.941 2.06-.213 1.927 1.12 1.964 1.062 2.413.558 4.343.114 6-2.265.154-1.02 3.19-1.864 1.176-1.29.202-.806 2.37-3.85 1.371-4.674 1.848.538.104-3.87 2.783-3.935.945-.905 4.534-1.337 4.004-.922zm18.614-27.101c-1.028-3.042-3.985 2.689-5.714.45-1.913-1.076-2.893-.372-3.094-2.973.131-1.15-.768-1.627-.613-1.942-.621-.644-1.464-1.644-.65.276.07 1.174-.115 2.519-1.078.651-1.053-.289-1.06-.01-1.7-.585.468.057.337-.743.109-1.399.708-.194-.049-1.14-.787-2.238-.829-1.235.618-.128.223-1.47-.655-1.154-.99-1.887-1.247-1.047-.334-.602-.82-1.231-1.397-1.333-1.251.336-.921-1.258-1.76-.085.102-1-1.34-1.711-.926-1.993.252-.966-1.841.257.108 1.092.885 2.228.469 1.98 1.83 3.934.929 1.262 2.518 3.604 1.834 1.848.695.523 1.129-.7.924.638.855-.58-.622.263.311.582.477 1.855-1.784-1.34-.25.989-.087 2.037 2.165.721 1.67 1.603-.318 1.231-1.464-1.116-.497 1.188-.259-.16 1.455 2.19.231 2.101-.02.665.957 1.23-.312 1.167.602 2.751-1.425 3.682-3.035 5.04 1.438 2.229 7.22 3.3 4.013 7.285-.774 1.037-1.25 2.018-.22 1.527.693 2.58 4.346 0 4.901-2.758 2.08-1.838 1.977-4.213 2.11-6.167 1.73-2.4 3.876 1.258 3.124-1.761 1.705-1.264 1.125-2.919 1.892-4.62zm-10.069-6.706c-1.574-2.13.47 2.503 0 0zm-5.636 19.982c.003.965.731-1.268 0 0zm4.632-17.531c-1.64-.37.03.73 0 0zm29.096 33.151c-.597-.65-.252 1.197 0 0zm-1.593-2.565c-1.929.66 1.086.314-.042 1.763 1.932.627-.297-2.512.73-1.16.166-.131 1.932-.787-.688-.603zm-55.316 6.93c-.336 1.052.628.035 0 0z" style="display:inline;opacity:1;fill:#e7c736;fill-opacity:1;fill-rule:evenodd;stroke:#505050;stroke-width:.432692;stroke-linejoin:round;stroke-miterlimit:4;stroke-dasharray:none;stroke-opacity:1" transform="translate(-226.225 -149.625) scale(1.15556)" id="path2" />
      <path d="M276.146 166.057c-4.688.474-2.308 8.285 1.854 5.658 2.76-1.522 1.182-5.903-1.854-5.658zm-8.962-36.123c-3.548.63-2.255 5.119.12 6.029 1.536 2.612 7.516 3.732 7.282-.815-.483-3.206-4.673-2.353-5.955-4.994a2.87 2.87 0 0 0-1.447-.22z" style="display:inline;fill:#c1ddf3;fill-opacity:1;stroke:#e7c736;stroke-width:.865384;stroke-linecap:butt;stroke-linejoin:bevel;stroke-miterlimit:4;stroke-dasharray:none;stroke-opacity:1" transform="translate(-226.225 -149.625) scale(1.15556)" id="path4" />
      <path style="display:inline;opacity:1;fill:#e7c736;fill-opacity:1;fill-rule:evenodd;stroke:#e7c736;stroke-width:.865384;stroke-linejoin:round;stroke-miterlimit:4;stroke-dasharray:none;stroke-opacity:1" d="M276.24 169.117c.018 1.054.922-.836.004-.17l.018.116zm-8.723-36.488c.08-.067-.047.062 0 0zm2.464 1.95c.018-.048-.017-.02 0 0zm-.246.11c-.023-.197-.017.244 0 0zm.037.195c-.07-.133-.057.024 0 0zm.2-.15c.038.186.145.337 0 0zm1.744.754c.081.004-.023-.043 0 0zm.221.203c-.052.012.014.043 0 0zm-4.26-2.978c.084.14-.248-.286 0 0zm4.27 2.63c-.042-.001.175.25 0 0zm-.005-.004c0-.054-.1-.013 0 0zm.022.32c0-.077-.016-.064 0 0z" transform="translate(-226.225 -149.625) scale(1.15556)" id="path6" />
    </g>
  </g>
</svg>
