<?xml version="1.0" encoding="UTF-8" standalone="no"?>
<svg width="22.23" height="29.272" version="1.1" id="svg10" sodipodi:docname="palau.svg" xmlns:inkscape="http://www.inkscape.org/namespaces/inkscape" xmlns:sodipodi="http://sodipodi.sourceforge.net/DTD/sodipodi-0.dtd" xmlns="http://www.w3.org/2000/svg" xmlns:svg="http://www.w3.org/2000/svg">
  <defs id="defs14" />
  <sodipodi:namedview id="namedview12" pagecolor="#ffffff" bordercolor="#666666" borderopacity="1.0" objecttolerance="10.0" gridtolerance="10.0" guidetolerance="10.0" inkscape:pageshadow="2" inkscape:pageopacity="0.0" inkscape:pagecheckerboard="0" />
  <g style="display:inline" id="g8">
    <g style="stroke-width:.865384" id="g6">
      <path d="M89.268 73.002c-3.067.726-3.014 4.5-4.506 6.795-.886 5.066 6.365 4.786 7.445.648 1.467-2.695 1.179-7.731-2.94-7.443zm-8.223 9.553c-2.801.725-4.346 5.054-2.877 7.414.534.678-3.655.517-3.426 2.75-1.2 4.98 8.865 7.03 8.52 1.16-1.055-2.31 3.264-3.531 1.379-6.291.81-2.33-.484-5.487-3.596-5.033zm-3.399 13.902c-.284-.136-.659-.885 0 0z" style="display:inline;fill:#c1ddf3;fill-opacity:1;stroke:#1c9813;stroke-width:.865384;stroke-linecap:butt;stroke-linejoin:bevel;stroke-miterlimit:4;stroke-dasharray:none;stroke-opacity:1" transform="translate(-85.757 -83.845) scale(1.15556)" id="path2" />
      <path style="display:inline;opacity:1;fill:#fff;fill-opacity:1;fill-rule:evenodd;stroke:#1c9813;stroke-width:.865384;stroke-linejoin:round;stroke-miterlimit:4;stroke-dasharray:none;stroke-opacity:1" d="M88.331 79.727c.046.012-.057-.068 0 0zm.689-.734c.161.035-.11-.012 0 0zm-.608.587c.063-.05.024-.014 0 0zm-.011.212c.046-.09-.088.077 0 0zm.798-.724c.083-.012-.049-.044 0 0zm-7.62 6.675c.042-.026-.04-.034 0 0zm6.835-5.766c.129.008-.095-.095 0 0zm1.513-3.391c.04-.02-.004-.081 0 0zm-1.245 2.692c-.008-.09-.05-.054 0 0zm.151.423c.052-.22-.284-.081-.037-.05zm.627-.712c.025-.063-.079-.03 0 0zm-7.89 6.867c.056-.088-.08-.065 0 0zm7.54-6.847c.44.211-.16-.198 0 0zm-.657.95c.065-.017.005-.054 0 0zm1.503-3.476c.014.13-.007-.132 0 0zM88.05 80.45c-.152-.19-.08.31 0 0zm.43-.587c.095-.038-.084-.04 0 0zm.742-1.392c-.179.151.08.752.295.449.046-.356.315-.98.093-1.176.14.375-.562.605-.333.766-.065.094-.015-.12-.055-.039zm-.463 1.313c.08-.007-.053-.077 0 0zm-.319.244c-.42.213.031.295 0 0zm.365-.724c.03.053.012-.055 0 0zm.019-.008c.075.077-.014-.108 0 0zm.729-.383c-.125.047-.027.1 0 0zm-.7.304c-.004.063 0 .014 0 0zm.344-.08c.097-.118-.21-.056 0 0zm-.09-.112c-.043-.057-.052.053 0 0zm.531-1.441c-.048-.008.056.083 0 0zm-1.066 1.635c-.126-.01.088.014 0 0zm-.065-.017c-.013-.07.008.042 0 0zm.256.33c.055-.03.024-.114 0 0zm.28-.236c.03-.44-.074.069-.31.04.126.28.143-.186.31-.04zm-7.18 9.985c.056-.1-.04-.09 0 0zm-1.216-1.179c.045-.007-.012-.04 0 0zm-2.775 5.567c.058-.058-.056-.03 0 0z" transform="translate(-85.757 -83.845) scale(1.15556)" id="path4" />
    </g>
  </g>
</svg>
