<?xml version="1.0" encoding="UTF-8" standalone="no"?>
<svg width="59.187" height="40.819" version="1.1" id="svg6" sodipodi:docname="papua_new_guinea.svg" xmlns:inkscape="http://www.inkscape.org/namespaces/inkscape" xmlns:sodipodi="http://sodipodi.sourceforge.net/DTD/sodipodi-0.dtd" xmlns="http://www.w3.org/2000/svg" xmlns:svg="http://www.w3.org/2000/svg">
  <defs id="defs10" />
  <sodipodi:namedview id="namedview8" pagecolor="#ffffff" bordercolor="#666666" borderopacity="1.0" objecttolerance="10.0" gridtolerance="10.0" guidetolerance="10.0" inkscape:pageshadow="2" inkscape:pageopacity="0.0" inkscape:pagecheckerboard="0" />
  <g style="display:inline" id="g4">
    <path style="display:inline;fill:#a9e736;fill-opacity:1;stroke:#505050;stroke-width:.5;stroke-linecap:butt;stroke-linejoin:bevel;stroke-miterlimit:4;stroke-dasharray:none;stroke-opacity:1" d="M180.568 99.743c-.984-2.78-4.435-2.812-1.837.119.786 1.425 2.55 4.064 3.985 2.331-.135-1.276-1.34-1.782-2.148-2.45zm-3.073-2.363c1.074-1.537-1.047-2.309 0 0zm-3.776-5.621c-.836.19.339.852 0 0zm-4.192-3.282c.993.467-.479-1.383 0 0zm-2.262-1.478c-.238-.99-.53.72 0 0zm.763 5.6c-.28.245-3.924-.887-2.076 1.527.403 1.9-2.73 1.108-2.904 3.28-2.196.692-3.527-.103-3.373-1.77-.123 3.226-3.46 1.64-5.62 1.942-2.851.023 2.119 2.986 3.269 2.342 2.423 1.66 5.846-.039 7.898-1.642.336-1.071 3.87-.334 1.921-2.676 2.217.236 1.853-3.064.885-3.003zm-20.193-8.812c-3.632.204-.505 1.824 1.26.393 1.169-.166-.646-.209-1.26-.393zm.358 12.612c-1.32.97 1.609 1.043 0 0zm13.059-9.951c-.36-2.587-3.76.284 0 0zm-3.515-5.118c.013 1.802 1.657-.03 0 0zm11.586 9.96c.43 2 1.706 5.166 2.25 1.522-2.058-2.463-4.56-4.381-7.667-5.823-3.517-1.682 1.553 1.268 2.912 2.36 1.127.315 1.933.974 2.505 1.942zm-29.107.528c-.843.443.755.435 0 0zm3.71 1.911c-1.48.91 1.188 1.19 0 0zm7.285 4.635c2.327 1.008-1.503-2.284 0 0zm-26.615 4.63c-.903-.05-.5-1.236-.334-1.717.466-.846.173-2.892.254-4.247l.003-10.761c3.154.74 5.897 3.039 9.288 3.062 1.953 1.548 3.285 1.636 4.46 2.003-.037 1.212 5.504 2.07 4.903 4.942-.532 2.202 3.778 1.546 5.101 3.017 3.129-.44 3.988 4.565.014 2.989-1.604 1.473 1.618 4.218 2.977 4.93 1.917 1.225 1.892 5.71 5.396 4.168-.749 1.777 1.073 2.552 3.023 2.608-4.304 1.58 6.84 2.408 1.224 2.655 3.682 1.531-3.97 1.278-.992.28-1.343-.046-3.662-.802-5.224-.947.2-.7-1.64.542-2.185-.51-1.344 1.082-2.824-1.618-4.257-2.535-.554-.107-.862-.997-.489-1.3-.038-.107-2.123-.262-1.744-1.66-.837-1.099-1.882-2.492-2.887-3.01-.328.433-2.436-.19-2.839-.662-.548.694-.64-.604-.637-.665-.596 0-1.963-1.809-2.543-.178-.69.533-.353 1.38-1.966.178 1.966 2.44-.993 1.075-.459 2.458-.095 1.107-8.363-.457-3.341.568 2.622.345 3.32 3.178.213 3.552-1.843-.563-5.51.432-6.96-.856v-8.363zm46.26 8.557c-3.59-1.263.83 1.99 0 0zm-9.989 1.72c.784-2.178-2.688-.707 0 0zm12.21 7.704c-3.468-1.002 3.11 1.929 0 0zm-2.883-3.267c-2.325.01 1.674.482 0 0zm-6.54-7.415c.93-.79-.638-1.789.23-.4zm-1.448 2.678c-4.055-.378 3.363 2.502 0 0zm-28.2-3.931c.715.808.816-.426 0 0zm.513-.234c-1.74-.793-.472.888 0 0zm-.581.837c2.41 1.143-2.355-1.719 0 0zm42.24 11.035c-.68-.858-2.01.564 0 0zm-13.717-6.37c.573 2.091 3.207 1.005 1.058.732.044-.018-1.12-1.37-1.058-.731zm.779 3.244c-.433.688 1.161-.044 0 0z" transform="translate(-123.778 -81.08)" id="path2" />
  </g>
</svg>
