<?xml version="1.0" encoding="UTF-8" standalone="no"?>
<svg width="30.452" height="11.892" version="1.1" id="svg10" sodipodi:docname="pitcairn_islands.svg" xmlns:inkscape="http://www.inkscape.org/namespaces/inkscape" xmlns:sodipodi="http://sodipodi.sourceforge.net/DTD/sodipodi-0.dtd" xmlns="http://www.w3.org/2000/svg" xmlns:svg="http://www.w3.org/2000/svg">
  <defs id="defs14" />
  <sodipodi:namedview id="namedview12" pagecolor="#ffffff" bordercolor="#666666" borderopacity="1.0" objecttolerance="10.0" gridtolerance="10.0" guidetolerance="10.0" inkscape:pageshadow="2" inkscape:pageopacity="0.0" inkscape:pagecheckerboard="0" />
  <g style="display:inline" id="g8">
    <g style="stroke-width:.865384" id="g6">
      <path d="M407.633 184.076c-3.45.701-2.051 5.23.096 5.55-2.497 4.472 6.595 5.464 5.132.58-.561-2.129-3.66-1.36-2.351-3.87-.155-1.365-1.46-2.575-2.877-2.26zm8.316 1.225c-5.485.535-1.261 9.313 2.604 5.215 1.678-2.037.095-5.4-2.604-5.215zm11.742 1.363c-5.58.788-.346 9.042 2.858 4.397 1.459-2.01-.576-4.627-2.858-4.397z" style="display:inline;fill:#c1ddf3;fill-opacity:1;stroke:#15b02a;stroke-width:.865384;stroke-linecap:butt;stroke-linejoin:bevel;stroke-miterlimit:4;stroke-dasharray:none;stroke-opacity:1" transform="translate(-468.132 -212.151) scale(1.15556)" id="path2" />
      <path style="display:inline;opacity:1;fill:#fff;fill-opacity:1;fill-rule:evenodd;stroke:#15b02a;stroke-width:.865384;stroke-linejoin:round;stroke-miterlimit:4;stroke-dasharray:none;stroke-opacity:1" d="M416.129 188.506c.486.103-.245-.616 0 0zm-8.106-1.76c.084-.06-.068.034 0 0zm2.138 4.177c-.153.085.219.077 0 0zm17.87-1.418c.077 0 .136-.001 0 0z" transform="translate(-468.132 -212.151) scale(1.15556)" id="path4" />
    </g>
  </g>
</svg>
