<?xml version="1.0" encoding="UTF-8" standalone="no"?>
<svg width="24.785" height="21.314" version="1.1" id="svg12" sodipodi:docname="samoan_islands.svg" xmlns:inkscape="http://www.inkscape.org/namespaces/inkscape" xmlns:sodipodi="http://sodipodi.sourceforge.net/DTD/sodipodi-0.dtd" xmlns="http://www.w3.org/2000/svg" xmlns:svg="http://www.w3.org/2000/svg">
  <defs id="defs16" />
  <sodipodi:namedview id="namedview14" pagecolor="#ffffff" bordercolor="#666666" borderopacity="1.0" objecttolerance="10.0" gridtolerance="10.0" guidetolerance="10.0" inkscape:pageshadow="2" inkscape:pageopacity="0.0" inkscape:pagecheckerboard="0" />
  <g style="display:inline" id="g10">
    <g style="stroke-width:.865384" id="g8">
      <path d="M267.275 146.8c-4.956-.083-3.419 6.942.778 6.772 3.81 3.254 8.694-3.337 3.572-5.088-1.785-.178-2.155-2.151-4.35-1.683zm3.036 1.241c-.039.005-.102-.108 0 0zm.025.018c.467.469.337.467 0 0z" style="display:inline;fill:#c1ddf3;fill-opacity:1;stroke:#16b46f;stroke-width:.865384;stroke-linecap:butt;stroke-linejoin:bevel;stroke-miterlimit:4;stroke-dasharray:none;stroke-opacity:1" transform="translate(-304.773 -159.519) scale(1.15556)" id="path2" />
      <path d="M272.11 138.494c-5.097.601-1.03 8.343 2.357 4.48 1.52-1.754-.043-4.746-2.358-4.48zm4.984 10.75c-2.355.647-6.892-.399-6.56 3.692.46 3.272 4.073 2.183 5.857 1.742 2.11.852 3.317-1.077 4.752 1.095 4.36 1.917 5.077-6.28.503-5.125-1.76 1.694-2.07-2.192-4.552-1.404z" style="display:inline;fill:#c1ddf3;fill-opacity:1;stroke:#16b46f;stroke-width:.865384;stroke-linecap:butt;stroke-linejoin:bevel;stroke-miterlimit:4;stroke-dasharray:none;stroke-opacity:1" transform="translate(-304.773 -159.519) scale(1.15556)" id="path4" />
      <path style="display:inline;opacity:1;fill:#fff;fill-opacity:1;fill-rule:evenodd;stroke:#16b46f;stroke-width:.865384;stroke-linejoin:round;stroke-miterlimit:4;stroke-dasharray:none;stroke-opacity:1" d="M271.208 151.573c-.094-.008.054.073 0 0zm-1.084-.754c-.11-.375-1.643.092-.77.326.497.323.446.226 1.069.376.644.113.976-.178.448-.359-.068-.098-.288-.22-.747-.343zm-1.22.07c.056-.123-.148-.04 0 0zm-.14-.137c-.062-.048-.022.08 0 0zm-.193-.33c.19-.71-.604-1.245-1.287-.798-.416.086-1.012-.041-.309.482.28.816 1.234.461 1.56.446-.052-.03-.013-.123.036-.13zm5.557 1.95c.082-.044-.109-.026 0 0zm3.48-.205c.183.435.617-.382 0 0zm-5.26-10.912c.168-.068-.137-.086 0 0zm1.082 11.411c.077-.373.691-.357.514-.399-.086-.075-1.184.132-.514.399zm3.776-.707c-.178-.175-.243.162 0 0zm.092-.04c-.164.004.067.23 0 0z" transform="translate(-304.773 -159.519) scale(1.15556)" id="path6" />
    </g>
  </g>
</svg>
