<?xml version="1.0" encoding="UTF-8" standalone="no"?>
<svg width="64.098" height="38.749" version="1.1" id="svg10" sodipodi:docname="solomon_islands.svg" xmlns:inkscape="http://www.inkscape.org/namespaces/inkscape" xmlns:sodipodi="http://sodipodi.sourceforge.net/DTD/sodipodi-0.dtd" xmlns="http://www.w3.org/2000/svg" xmlns:svg="http://www.w3.org/2000/svg">
  <defs id="defs14" />
  <sodipodi:namedview id="namedview12" pagecolor="#ffffff" bordercolor="#666666" borderopacity="1.0" objecttolerance="10.0" gridtolerance="10.0" guidetolerance="10.0" inkscape:pageshadow="2" inkscape:pageopacity="0.0" inkscape:pagecheckerboard="0" />
  <g style="display:inline" id="g8">
    <g style="stroke-width:.865384" id="g6">
      <path d="M172.41 118.004c-3.245.459-3.052 4.227-2.33 6.266.853 4.18-4.442-1.218-6.805-.957-2.509.221-4.531 2.58-5.99 4.21.296 2.596-.09-.661.926 3.163 3.556 5.036 11.075 5.691 15.219 8.76-3.934 2.308-.535 8.27 1.888 10.646 5.184 3.007 5-6.656 4.387-7.592 3.111 2.562 7.957-.548 5.734-4.332-.496-2.148-3.654-4.24.079-3.344 4.77-1.172.393-8.13-2.788-4.418-.676 2.81-1.07 2.625-2.294.184-.334-3.205-5.585-3.125-6.303-3.307 2.363-2.223 3.977-7.02.037-8.892-.534-.292-1.15-.451-1.76-.387zm26.248 16.137c-1.984 1.943-5.532-.412-6.924 2.785-1.578 4.558 4.47 11.193 8.791 8.387 2.566-2.194-1.98-5.285 1.192-6.569 1.284-1.974-.8-4.926-3.059-4.603zm8.998 6.345c-2.148.512-1.62 3.115-4.138 2.57-4.713 2.573 2.838 8.027 3.937 3.014 3.54 3.15 6.68-3.704 2.281-4.96-.57-.474-1.339-.74-2.08-.624z" style="display:inline;fill:#c1ddf3;fill-opacity:1;stroke:#8019b1;stroke-width:.865384;stroke-linecap:butt;stroke-linejoin:bevel;stroke-miterlimit:4;stroke-dasharray:none;stroke-opacity:1" transform="translate(-181.256 -135.844) scale(1.15556)" id="path2" />
      <path style="display:inline;fill:#8019b1;fill-opacity:1;stroke:#8019b1;stroke-width:.865384;stroke-linecap:butt;stroke-linejoin:bevel;stroke-miterlimit:4;stroke-dasharray:none;stroke-opacity:1" d="M161.653 127.012c.132-.072-.099-.143 0 0zm-.15-.196c-.063-.008.021.063 0 0zm.139-.186c-.382.341.347-.015 0 0zm.234.077c-.245.29-.178.941.063.398.3.169-.468-.335-.063-.398zm-1.387.888c.267.372.992-.043.307-.25-.212-.21-.187.119-.307.25zm.726-.205c.034-.112-.109-.01 0 0zm-.222.059c-.012-.109-.094.028 0 0zm.007 0c.061-.007-.028-.066 0 0zm.138.201c.047-.044-.03-.038 0 0zm.04.158c.178-.126-.096-.145 0 0zm-.08-.04c.118-.02.07-.206 0 0zm-.196.017c.363.117.048-.205 0 0zm-.716.946c.477-.4-.786-.1 0 0zm-.094.108c.316-.118-.195-.043 0 0zm1.504-1.392c-.048-.08-.077.067 0 0zm-.243-.384c-.053.003.037.069 0 0zm.019.077c-.019-.046-.028.029 0 0zm-.145-.003c.008-.047-.099-.02 0 0zm.527.255c-.055-.04.007.098 0 0zm-.124-.067c-.026-.03-.02.043 0 0zm.014-.085c-.05-.059.037.058 0 0zm-1.16.358c-.03-.047-.072.036 0 0zm-.093-.004c-.145.084.146.003 0 0zm-.113-.08c-.01.041.056.013 0 0zm.126-.024c-.013.055.061-.004 0 0zm-.107-.069c-.02.059.075-.01 0 0zm44.422 18.094c.27-.057-.103-.13 0 0zm-9.484-5.248c.418-.072.242-.033.427-.232.101-.33-1.021-.261-1.098.126-.265-.252-.117.478.173.284-.08.265.675-.621.498-.178zm-.69-.362c.087.129.002-.012 0 0zm13.644 3.198c-.041.028.03.04 0 0zm-9.754.213c.032-.107-.766-.506-.37.095.03.054.657.092.37-.095zm-35.154-13.661c.27.196.37 1.031.715.906.233-.579.215-.8-.16-.977-.096-.114-.354-.594-.555.071zm8.346 1.348c.165.009-.136-.082 0 0zm2.773 3.744c.372-.205-.32-.33 0 0zm7.26 2.31c.268-.016-.072-.849-.025-.078zm-5.379 6.448c.23.716 1.587.51.433-.059-.481-.2-2.362-1.294-1.516-.354.379.341.795.196 1.083.413zm-2.722-11.035c.582.33.378-.035.251-.131.268-.485-.76-.237-.251.13zm.146-1.256c-.032-.178-.163-.052 0 0zm-.72-9.005c-.062-.362-.14.195 0 0zm.358.069c-.043-.043-.201-.059 0 0zm.666.026c.085-.133-.022-.234 0 0zm2.591 13.553c-.813-.586-1.875.21-2.536-.815-.805.368-.247 1.217.093 1.607.775.589 2.149.124 3.013.763.823-.2.714-.692.082-.937.056-.44-.529-.332-.652-.618zm4.316 2.762c.21-.533-.366-.217 0 0zm-6.434 3.462c-.414-.306-.31.05 0 0zm8.888-1.582c.128-.36-.279.11 0 0zm-.07.184c.111-.127-.22.007 0 0zm-3.494-1.86c.368.194.22.301.36.618.09.14.418.293.57.405.092.281.667.417 1.167.529.251.102 1.05.123 1.043.051-.355-.07-.48.044-.256-.389-.356-.058-.46-1.041-1.018-.8-.765-.078-1.154-.65-2.139-.985-.558.417-.06.518.273.57zm-.283-3.39c.173-.037.275.283.2.46.076.095.072.824.311.462.72.704-.09-1.11-.533-.978-.056.094-.02-.029.022.056zm-17.654-9.157c-.016.082.21.125 0 0zm15.227 4.083c-.06.243.28.179 0 0zm-5.24.73c.374.223.698.355.923.588.778.24 1.242.63 1.913 1.001-.096-.245-.45-.485-.368-.515.52-.444-.951-.958-1.212-1.303-.309-.072-.81-.359-.96-.313-.491-.391-.77-.537-1.366-1.19-.372.12-.998-.293-.981-.087-.046.21-.674-.111-.278.21.09.005.389.08.508.045-.066-.324.071.39.163.17-.03.069.568.672.698.651.1.253.641.487.96.743zm.74.459c-.054.059.084.036 0 0zm1.985 1.165c-.015.07.097.024 0 0zm-2.497-1.484c.036.056.048-.03 0 0zm2.673 1.264c-.086.067.102.126 0 0zm-1.295-1.474c-.054.124.155.061 0 0zm.74 1.448c.004.07.061.01 0 0zm.43.085c-.068.032.066-.003 0 0zm-.231-.37c-.039.092.128-.114 0 0zm-2.678-1.972c-.012.08.082.004 0 0zm-3.327-1.298c.056.17.014.024 0 0zm2.438.526c.014.043.067-.001 0 0zm-.597-.142c-.032.05.081.073 0 0zm-.802-.054c.055.067.127-.01 0 0zm-.053.046c.067.137.042-.034 0 0zm-.023-.032c-.021.064.06-.003 0 0zm.253.303c.03.033.032-.02 0 0zm.644.368c0 .05.062-.01 0 0zm.028.029c.042.036.053-.035 0 0zm-.038-.145c-.129.111.139.014 0 0zm-.234-.01c.075.132.069-.01 0 0zm.102-.042c-.079.082.136.068 0 0zm-.272-.149c-.063.17.245.054 0 0zm.014.135c.04.036.063-.046 0 0zm.198-.037c-.038.078.13.05 0 0zm-1.35-1.088c.099.051.074-.035 0 0zm.03.036c-.003.253.192-.088 0 0zm.174.117c.017.047.057-.031 0 0zm-.073-.02c.03.078.065-.04 0 0zm.12-.063c.045.25.244-.028 0 0zm.348.116c.054.047.043-.028 0 0zm-.174-.099c.025.083.192.058 0 0zm-.072-.045c.206.092-.217-.15 0 0zm.263.277c.178.11.021-.11 0 0zm-.01.003c.036-.084-.078-.148 0 0zm.137.026c-.057.119.1-.021 0 0zm.274.297c-.01-.272-.63-.225-.496-.436.012-.036-.445-.08-.09.16-.023-.055.457.386.586.276zm-.005.014c.034.039.05-.019 0 0zm-1.402 3.044c.198.124-.166-.15 0 0zm.081.276c.075-.113-.07.06 0 0zm.118-.244c.075.01-.16-.012 0 0zm.07.964c.293.021.195-.024 0 0zm-.079.04c-.037.017.022.046 0 0zm.085-1.001c-.066-.049-.05.083 0 0zm.061.796c-.028-.05-.016.09 0 0zm.023-.085c.021-.054-.036-.013 0 0zm.112-.638c.17.164-.182-.175 0 0zm-.03.726c-.03-.02-.033.054 0 0zm.007-.34c-.045.004.011.053 0 0zm.011.712c.565.376.191-1.087 0 0zm.009-.576c-.04-.005.009.042 0 0zm.078-.153c.145.5.125.093 0 0zm.017-.236c.1.48-.067-.272 0 0zm-.033.197c.095.004-.083-.3 0 0zm.041.493c-.046-.04-.056.029 0 0zm.034-.174c-.024-.074-.019.04 0 0zm.09-.014c.124.422 0-.13 0 0zm-.009-.173c-.052-.037.014.061 0 0zm-.07-.11c.066.11.022-.05 0 0zm.306.64c.21.07-.067-.178 0 0zm-.067.043c-.045-.03-.005.043 0 0zm-.853-.06c.596-.386.044-.474.426-.723-.254-.08-.77-.22-.571.035-.018-.307-.669.557.145.689zm-.056-1.134c-.051-.04-.038.037 0 0zm-.056.003c.077.007-.143-.069 0 0zm-1.685 1.026c1.375.68.183-.533 0 0zm.033-1.443c.362.062.314-.202 0 0zm.298.162c.045-.064-.078-.133 0 0zm-.94.345c.025-.112-.083.056 0 0zm.116-.358c.201-.16-.023-.134 0 0zm.159-.149c.53-.124-.216-.02 0 0zm-.569.904c.57.417.67.754.504-.056.469-.416-.004-1-.504.056zm-.02-.838c-.03-.077-.054.005 0 0zm-.078-.08c-.038-.046-.008.055 0 0zm-.065-.085c.043-.062-.093.023 0 0zm.02.032c-.025-.059-.06.036 0 0zm-.033.053c-.014-.092-.077.031 0 0zm-.063-.13c-.046-.011-.003.05 0 0zm-.039-.062c.012-.147-.07-.018 0 0zm-.079-.343c-.192.234.723.718.133-.017.107.03-.093-.022-.133.017zm-.025-.017c-.091-.012-.08-.007 0 0zm.066.308c-.555-.512-.041.328.12.344.013-.123-.217-.184-.12-.344zm2.733 1.035c.05-.023-.058-.013 0 0zm-.022-.082c.093-.005-.072-.06 0 0zm-.003-.046c.11.037-.06-.109 0 0zm-.174.275c-.004-.053-.045 0 0 0zm-.176.264c.06.008-.052-.19 0 0zm-.096.38c-.065-.035-.064.106 0 0zm.199-.663c-.076-.012.028.086 0 0zm-1.479.058c-.038-.04.05.069 0 0zm-.26-.676c.152.004-.087-.043 0 0zm-.028-.145c-.065-.032-.094.078 0 0zm-.35-.212c-.033.015.004.05 0 0zm-.014-.015c-.05-.025-.017.109 0 0zm-.104-.028c.046-.05-.08-.005 0 0zm-.095-.053c-.04.034.048.022 0 0zm2.666.544c.16.028-.07-.048 0 0zm-.1.147c-.043-.03 0 .05 0 0zm-.084-.193c-.008-.066-.054.008 0 0zm-.048-.116c.046.025-.066-.037 0 0zm.008-.008c.316.28.198.145 0 0zm-.048-.069c.062-.04-.113-.117 0 0zm-.137-.175c.46.514-.169-.262 0 0zm-.047-.125c-.007-.128-.106.039 0 0zm-.48-.3c.133.08-.207-.149 0 0zm.07.023c.306.16.307.067 0 0zm-.221-.48c.059-.031-.075-.089 0 0zm.041.074c.067.126-.07-.205 0 0zm.043.139c.016-.214-.088-.008 0 0zm0 .152c.031-.404-.026.064 0 0zm.516.27c.168.464-.144-.156 0 0zm-.774-.79c-.573-.533-.862.916-1.035.637-.537.433.256.506.373.34.492-.384.814.193.805.312-.54.128.574.412.53.572.385.56-.037-.224.386.079.245-.345-.336-1.24-.635-1.209-.415.241-.08-.544-.424-.732zm.982 1.93c-.05-.09-.003.066 0 0zm-1.128-.99c-.029-.055-.06.038 0 0zm-.622.068c-.04.038.035.018 0 0zm.85-3.123c-.09-.064-.074.108 0 0zm-.062-.107c-.034.06.03.03 0 0zm.058.005c-.04-.023-.018.037 0 0zm.02-.058c-.038-.038-.026.022 0 0zm.034-.033c.127-.135-.12-.021 0 0zm-.152.478c-.047-.029.052.023 0 0zm.06.112c-.029-.058-.094.003 0 0zm.035-.021c-.038-.074-.118-.077 0 0zm-.291-.21c.027-.075-.063.058 0 0zm.06-.01c-.05.003.025.037 0 0zm-.16.022c.26-.139-.194.021 0 0zm-.561-.126c.003-.068-.071.052 0 0zm.089.047c-.013-.055-.034.028 0 0zm-.488-.122c.056-.12-.107 0 0 0zm.003-.079c-.044-.015.009.053 0 0zm.18.062c-.06-.007.034.055 0 0zm.038.04c.043-.061-.042-.084 0 0zm-.294-.065c.031-.078-.06-.047 0 0zm1.939.37c.823.097-.266-.585 0 0zm-.057.003c-.022-.073-.04.038 0 0zm-.054-.028c-.025-.062-.043.207 0 0zm-.003.045c-.038.054-.018.083 0 0zm.02-.142c-.021-.037-.029.036 0 0zm-.061.142c-.071 0 .043.023 0 0zm-.112-.11c-.046-.044.02.088 0 0zm-2.413 1.8c-.135.52 1.374.912.684-.323-.298-.296-.686.086-.684.322zm3.526-1.744c.146.08-.24-.217 0 0zm-.909.193c-.028.046.04-.01 0 0zm.045.014c-.052-.01.009.043 0 0zm-1.913-1.326c-.013-.07-.013.067 0 0zm-.908 3.386c.017-.048-.125-.034 0 0zm-.16-.124c-.035.036.05.025 0 0zm-1.088.681c.047.203.106-.356 0 0zm.2-.981c-.452-.88.105 1.366.08.244-.128-.094-.055-.161-.08-.244zm.406-1.084c-.042.042.05-.025 0 0zm-.435.362c-.017-.094-.074.07 0 0zm-.143.193c.403-.062-.25-.343 0 0zm9.193 4.352c.07-.078-.047-.176 0 0zm.03-.347c.044-.09-.081-.084 0 0zm.043.052c-.033-.096-.018.07 0 0zm.036.287c-.038-.079-.05.152 0 0zm-.157-.27c-.044-.015-.007.066 0 0zm.023.096c-.069-.143-.04.099 0 0zm.033-.02c-.004-.186-.1.058 0 0zm-.28.244c.391-.446-.076-.447 0 0zm.043-.27c.12-.14-.102.031 0 0zm.164.248c.164-.109-.128-.088 0 0zm-.317.042c.016-.067-.105.011 0 0zm-.027-.409c-.04-.007.025.06 0 0zm.027-.073c.068-.036-.048-.007 0 0zm-.302 0c-.014-.135-.067.096 0 0zm.143.514c-.035-.058-.042.06 0 0zm.072.025c.226.037-.205-.187 0 0zm-.157-.542c.253.114-.494.328.23.4.375-.484-.224-.188-.16-.44-.033-.046-.132-.019-.07.04zm-.149.122c.132.042-.09-.2 0 0zm1.125.382c.068-.074-.09-.005 0 0zm-.294-.234c-.054.012.014.051 0 0zm.07.047c-.076.043.02.035 0 0zm2.854-.314c-.336.147-.105.347.236.394-.051-.215.242.42.233-.238-.205-.194-.247 0-.47-.156zm2.096-.004c.152.426 1.052 1.108 1.06 1.111.48.094.44.643 1.054.859.007-.522-.772-.928-.488-1.14-.02-.332-.304-.6-.387-.94.06-.038-.342-.302-.393-.378-.432.028-.204-.514-.165-.871-.258-.238-.948-1.362-.92-.762-.99-.479.084.429-.025.655-.12.238-.12.17.01.69.28.36.178.54.253.776zm-2.373.003c.139.247.15-.449 0 0zm2.705 2.822c-.016.12-.017-.295 0 0zm-.077.048c.016-.066-.12-.022 0 0zm-.023-.091c-.055.016.033.034 0 0zm-.05-.023c.145-.216-.168.014 0 0zm-1.312.4c-.08-.028-.055.04 0 0zm.605-1.41c.15-.026-.136-.058 0 0zm-1.107-1.046c-.045.05.071.014 0 0zm-.205-.125c.158.17.964-.173.28-.256-.067.316-.365.208-.28.256zm-.011-.57c.054.044-.028-.103 0 0zm-.048.616c-.055-.027.022.062 0 0zm3.853.872c-.068-.05.009.063 0 0zm.028-.077c-.018-.052-.014.059 0 0zm.645.498c.07-.037-.102-.17 0 0zm-.942-1.209c-.048-.02.003.054 0 0zm-.183.788c.17.213-.189-.279 0 0zm.085.16c.042-.049-.129-.182 0 0zm.05.045c-.038-.082-.059.01 0 0zm.042-1.115c-.015-.113-.1.041 0 0zm-.419.665c-.026-.049-.068-.028 0 0zm.12.094c.15.074-.21-.12 0 0zm.047.04c-.038.008.042.045 0 0zm.017-1.267c.074.088-.084-.116 0 0zm-14.135-7.264c-.61-.25-1.355-.915-1.878-1.014-.495.735 1.071 1.002 1.26 1.737.547.553.805.601 1.02.843.643-.073.496.042.873.159.044.108.863.054.458-.405-.554.371-.677-.402-1.149-.427-.266-.24-.116-.815-.584-.893zm-.115-.121c.04-.024-.031-.034 0 0zm-1.5-.116c-.05-.031.032.079 0 0zm-1.155.06c-.043.004.008.05 0 0zm-.1.079c.117-.207-.142.096 0 0zm-.163-.01c-.023-.085-.028.082 0 0zm.145-.15c.115.006-.135-.067 0 0zm10.387 7.357c.034-.032-.112.034 0 0zm-.32-.043c-.014-.056-.049.065 0 0zm-.047.032c-.033-.043.026.063 0 0zm6.33-.781c.131-.03.244.095 0 0zm-3.365.523c.144-.074.035-.014 0 0zm2.534.212c-.008-.167-.055.05 0 0zm.037-2.26c.365.351.048-.236 0 0zm-.092 1.885c-.026.115.033.029 0 0zm.017.23c-.035.059.02.064 0 0zm-.003-.027c-.035-.094-.008-.131 0 0zm-.525-2.035c.084-.08-.145-.06 0 0zm-1.89 2.267c.051-.083-.1-.027 0 0zm.054-.452c.008-.063-.09.032 0 0zm.014.362c.184-.12-.147.024 0 0zm.493-2.38c-.029-.068-.017.05 0 0zm-.747 2.218c-.043-.005-.019.05 0 0zm.031-.072c.046.12.01-.116 0 0zm-4.048-4.399c.078-.012-.084-.163 0 0zm-.32-.282c.087.263.116-.071 0 0zm.048.107c.01.054.047-.021 0 0zm-.12-.218c-.045.066.129.035 0 0zm.198.206c.033.215.268.122 0 0zm9.318 10.162c.154.123.19-.11 0 0zm-.435-.64c.009.11.055.02 0 0zm.517.473c-.043.045.014.033 0 0zm1.413-1.13c.045-.16-.106.085 0 0zm.062.186c.103-.115-.128-.112 0 0zm.06.177c.073.078.025.03 0 0zm-.928-.26c-.125-.157-.004.177 0 0zm-6.993-6.95c-.047-.003.047.037 0 0zm20.87 7.713c.082-.2-.197.022 0 0zm.81-1.075c-.004-.048-.05.018 0 0zm.836.376c.01-.104-.084-.014 0 0zm.183.24c-.368-.036-.038.25 0 0zm-.007.209c.005-.044-.045-.018 0 0zm.085-.21c-.066-.02-.014.06 0 0zm-25.66-4.25c-.162-.065-.03.122 0 0zm28.032 2.592c.025.046.036-.02 0 0zm-.077-.066c.063.096.094.05 0 0zm.094.13c.024.144.134-.046 0 0zm.242.224c.126.358.15-.104 0 0zm-23.612-2.612c-.144-.062.156.142 0 0zm20.128 5.548c-.014.08.061-.024 0 0zm.586-1.773c-.062.362.058.29 0 0zm-.803 2.01c-.442.251.376.033 0 0zm3.045 2.827c-.282.379.346-.03 0 0zm-35.581-16.722c.018.064.028-.042 0 0zm.009-.015c.038-.051-.05-.034 0 0zm2.822 5.416c-.067.028.058.05 0 0zm-1.445-.783c-.26-.208.312.34.003-.06.16.045-.084.166-.003.06zm.958.285c-.11-.034-.209-.015 0 0zm44.087 12.853c.034-.051-.063-.05 0 0zm-24.629-12.05c.086-.03 0-.084 0 0zm.228.089c.108-.064-.081-.03 0 0zm11.289 6.382c.047.016.009-.076 0 0zm-24.04-3.982c.1-.064-.05-.067 0 0zm-1.21-5.18c-.065.008.098.02 0 0zm-8.078-3.123c.05-.063-.074-.057 0 0zm2.433 1.01c.005-.052-.065-.005 0 0zm.306 1.346c.067-.142-.05.046 0 0zm6.864 2.837c.011.059.05-.023 0 0zm-3.062-2.014c.06-.02-.095-.067 0 0zm.325.113c.025.083.055-.05 0 0zm.65.47c.058.058-.027-.065 0 0zm-4.232 1.881c.007.082.09-.072 0 0zm.528.132c.091.265.066-.049 0 0zm-.326-.258c.201.066.024-.185 0 0zm7.594-9.82c.012-.06-.038-.049 0 0zm-.993-.807c.017-.056-.036-.017 0 0zm.061-.232c.049-.11-.082 0 0 0zm.672 1.457c-.08-.025-.22-.022 0 0zM196.3 138.67c.185-.134-.141.016 0 0zm-.035-.047c-.07.03.081.026 0 0zm-32.874-6.804c.007-.17-.044.091 0 0zm33.466 10.092c.225.036.183.25.275-.033.085.015-.283-.295-.275.033zm-19.098-4.917c.119.162.004-.157 0 0zm-12.983-6.217c-.056 0 .046.099 0 0zm12.867 5.918c.066.078.13.037 0 0zm-11.433-7.894c.118.09-.028-.104 0 0zm2.103 3.683c-.21.089.174.072 0 0zm-1.582-3.805c-.1.276.267.172.377.254.106-.271-.233-.15-.377-.254zm-.769-.057c-.081.045.046.09 0 0zm11.628 5.4c.042.008-.031-.07 0 0zm-11.347-1.263c-.02-.055.003.057 0 0z" transform="translate(-181.256 -135.844) scale(1.15556)" id="path4" />
    </g>
  </g>
</svg>
