<?xml version="1.0" encoding="UTF-8" standalone="no"?>
<svg width="28.081" height="41.862" version="1.1" id="svg10" sodipodi:docname="tonga.svg" xmlns:inkscape="http://www.inkscape.org/namespaces/inkscape" xmlns:sodipodi="http://sodipodi.sourceforge.net/DTD/sodipodi-0.dtd" xmlns="http://www.w3.org/2000/svg" xmlns:svg="http://www.w3.org/2000/svg">
  <defs id="defs14" />
  <sodipodi:namedview id="namedview12" pagecolor="#ffffff" bordercolor="#666666" borderopacity="1.0" objecttolerance="10.0" gridtolerance="10.0" guidetolerance="10.0" inkscape:pageshadow="2" inkscape:pageopacity="0.0" inkscape:pagecheckerboard="0" />
  <g style="display:inline" id="g8">
    <g style="stroke-width:.865384" id="g6">
      <path d="M256.748 154.113c-5.212.838-.861 8.743 2.52 4.53 1.506-1.899-.148-4.806-2.52-4.53zm6.275.99c-4.725.77-1.644 8.364 2.122 5.102 1.661-1.702.628-5.533-2.122-5.101zm-2.101 7.668c-2.46.787-2.16 3.708-3.352 5.526-.967 2.296-2.88 4.933-2.195 7.765.965 2.94-.148 1.78-2.29 2.965-3.559 4.189 5.556 6.81 4.747 1.327.518-.096 4.573.257 4.406-2.5-.1-2.462 2.327-4.923 2.274-7.56 2.414-2.31-.34-7.861-3.59-7.523zm-15.852 20.336c-5.455 1.014-1.062 9.273 2.848 5.26 1.81-2.011-.249-5.57-2.848-5.26z" style="display:inline;fill:#c1ddf3;fill-opacity:1;stroke:#9f6d17;stroke-width:.865384;stroke-linecap:butt;stroke-linejoin:bevel;stroke-miterlimit:4;stroke-dasharray:none;stroke-opacity:1" transform="translate(-279.738 -177.566) scale(1.15556)" id="path2" />
      <path style="display:inline;opacity:1;fill:#fff;fill-opacity:1;fill-rule:evenodd;stroke:#9f6d17;stroke-width:.865384;stroke-linejoin:round;stroke-miterlimit:4;stroke-dasharray:none;stroke-opacity:1" d="M259.329 177.77c-.04-.032-.009.049 0 0zm1.069-4.277c.1 0-.035-.036 0 0zm-.516-.132c-.248.063.193.11 0 0zm.279.328c-.018-.088-.092-.007 0 0zm.94-1.66c.043.082.043-.018 0 0zm.035.136c.038.161.08-.264 0 0zm-1.298.148c.043-.05-.023-.036 0 0zm.29.02c.103-.086-.072-.084 0 0zm-.102.015c.032-.037-.061.005 0 0zm-.09.177c-.034.1.118-.007 0 0zm1.666-1.077c-.032.04.025.033 0 0zm.02-.047c-.06-.336-.159-.135 0 0zm-.226.233c.41-.017.15-.271 0 0zm-.957.014c-.057-.008.02.053 0 0zm1.81-3.896c-.186-.058-.269.267 0 0zm-2.131 4.073c.022-.062-.104-.003 0 0zm.54.056c.114.01-.048-.081 0 0zm2.519-13.72c-.02.067.076-.032 0 0zm-2.192 12.901c.066.044-.003-.095 0 0zm.948-5.11c.022-.05-.059.02 0 0zm-1.05 5.257c.12-.057-.07-.045 0 0zm-2.427 5.442c-.025.072.046.029 0 0zm1.824-8.455c.107.354.289-.236 0 0zm3.088-10.346c.148.004-.108-.16 0 0zm-.061.291c-.344.224.247-.048 0 0zm-3.503 15.34c.054.134.014-.056 0 0zm1.07-1.109c.084 0 .09-.056 0 0zm-2.233 4.253c.053-.047-.057-.047 0 0zm.026-.035c.025.057.015-.068 0 0zm-.33-.07c.099-.015-.059-.042 0 0zm3.145-11.105c-.206.052.1.134 0 0zm-3.576 9.007c-.084-.077-.189.138 0 0zm-.82-17.585c-.582.001.224.53 0 0zm5.605 10.854c-.007.045.043-.05 0 0zm.135-.014c-.067-.11-.148.016 0 0zm-7.72 13.281c.108-.05-.108-.094 0 0zm5.675-7.229c.007-.071-.027.068 0 0zm-.017.156c-.117.04.01.05 0 0zm-.545-1.28c.01.086.074-.016 0 0zm2.03-4.697c-.035.031.045.024 0 0zm-3.711 8.667c-.396-.18-.929-.121-.026.302.47.513.528-.767.248-.221-.153.27-.091-.072-.378.019.133-.045.395-.089.156-.1zm4.038-8.796c-.235-.373.007.36 0 0zm-.495.088c0-.098-.081.053 0 0zm.703-.05c.044-.057-.018-.07 0 0zm0 .009c-.048.055.036.043 0 0zm-.111-.04c-.018.044.077-.004 0 0zm-.078-.075c.036.096.456-.43-.076-.232-.582.687.29-.222.076.232zm-.142.038c-.02.16.06-.105 0 0zm.118.16c-.007-.076-.063.045 0 0zm-4.262 8.348c-.013.085.01-.077 0 0zm.926.224c-.07.03.055.06 0 0zm.085.811c.008 1.253.399-.633 0 0zm1.893-5.371c-.047-.089-.177.183 0 0zm.189-.224c-.1-.124-.126.56 0 0zm.977-3.818c.047-.037-.06-.012 0 0zm.108.13c.035.103-.003-.092 0 0zm-.116-.22c.032.148.235.217 0 0zm.023.261c.012.08.053-.03 0 0zm.107.127c-.025.045.054-.008 0 0zm.181-.354c-.073.087.032.042 0 0zm-.428.023c.26.063-.232-.005 0 0zm.083.003c-.01.05.037-.001 0 0zm-.136.1c.06-.04-.122-.011 0 0zm.003.052c-.206.024.09.041 0 0zm-3.141 3.335c.153.154.05-.307 0 0zm3.6-3.575c.043.028.031-.052 0 0zm-3.768 3.942c.535.019-.31-.546 0 0z" transform="translate(-279.738 -177.566) scale(1.15556)" id="path4" />
    </g>
  </g>
</svg>
