<?xml version="1.0" encoding="UTF-8" standalone="no"?>
<svg width="21.862" height="27.467" version="1.1" id="svg10" sodipodi:docname="tuvalu.svg" xmlns:inkscape="http://www.inkscape.org/namespaces/inkscape" xmlns:sodipodi="http://sodipodi.sourceforge.net/DTD/sodipodi-0.dtd" xmlns="http://www.w3.org/2000/svg" xmlns:svg="http://www.w3.org/2000/svg">
  <defs id="defs14" />
  <sodipodi:namedview id="namedview12" pagecolor="#ffffff" bordercolor="#666666" borderopacity="1.0" objecttolerance="10.0" gridtolerance="10.0" guidetolerance="10.0" inkscape:pageshadow="2" inkscape:pageopacity="0.0" inkscape:pagecheckerboard="0" />
  <g style="display:inline" id="g8">
    <g style="stroke-width:.865384" id="g6">
      <path d="M228.79 120.184c-4.523.922-1.478 7.279 1.265 7.767-.576 2.669 2.997 3.04 3.957 3.018.45 3.184 4.338 3.733 5.722 6.508-.87.349-3.232 3.697-.673 5.056 2.929 2.122 5.524-2.607 3.49-4.256 4.915-2.274-.725-6.758-1.928-9.175.353-3.061-4.24-3.656-5.184-1.44-.616-1.62 2.337-4.746-1.156-5.851-2.15.324-2.67-.352-4.412-1.561a3.197 3.197 0 0 0-1.082-.066z" style="display:inline;fill:#c1ddf3;fill-opacity:1;stroke:#3dc11b;stroke-width:.865384;stroke-linecap:butt;stroke-linejoin:bevel;stroke-miterlimit:4;stroke-dasharray:none;stroke-opacity:1" transform="translate(-261.208 -138.357) scale(1.15556)" id="path2" />
      <path style="display:inline;opacity:1;fill:#fff;fill-opacity:1;fill-rule:evenodd;stroke:#3dc11b;stroke-width:.865384;stroke-linejoin:round;stroke-miterlimit:4;stroke-dasharray:none;stroke-opacity:1" d="M239.317 132.817c-.014.146 0 .111 0 0zm-1.372-3.745c.055 0-.238-.269 0 0zm-8.826-6.272c-.116-.025.111.064 0 0zm.177.13c.148.184-.075-.184 0 0zm.67 2.001c-.095.134.088.112 0 0zm3.423-.58c-.102.084.165-.007 0 0zm3.586 6.465c.095-.101.102-.118 0 0zm-.026.051c-.059.041-.109.31 0 0zm-.284.01c-.041.016.02.04 0 0zm-3.908-2.845c-.07.047.063.104 0 0zm6.843 4.577c.03-.113.053-.444 0 0zm.963 7.686c.027.039.055-.026 0 0zm1.332-4.641c.007-.196-.016-.216 0 0zm-.127-.276c.106.208.086-.022 0 0zm-8.999-7.317c-.007.026.058.06 0 0zm-.025.17c.136.018.016-.032 0 0zm4.317 2.482c.067-.025 0-.124 0 0z" transform="translate(-261.208 -138.357) scale(1.15556)" id="path4" />
    </g>
  </g>
</svg>
