<?xml version="1.0" encoding="UTF-8" standalone="no"?>
<svg width="137.006" height="123.489" version="1.1" id="svg14" sodipodi:docname="us_minor.svg" xmlns:inkscape="http://www.inkscape.org/namespaces/inkscape" xmlns:sodipodi="http://sodipodi.sourceforge.net/DTD/sodipodi-0.dtd" xmlns="http://www.w3.org/2000/svg" xmlns:svg="http://www.w3.org/2000/svg">
  <defs id="defs18" />
  <sodipodi:namedview id="namedview16" pagecolor="#ffffff" bordercolor="#666666" borderopacity="1.0" objecttolerance="10.0" gridtolerance="10.0" guidetolerance="10.0" inkscape:pageshadow="2" inkscape:pageopacity="0.0" inkscape:pagecheckerboard="0" />
  <g style="display:inline" id="g12">
    <g style="stroke-width:.865384" id="g10">
      <path d="M197.078 34.77c-5.417.641-.69 8.746 2.58 4.474 1.385-1.865-.248-4.756-2.58-4.474zm56.246 63.626c-4.593.673-1.095 8.097 2.344 4.577 1.667-1.745.19-5.08-2.344-4.577z" style="display:inline;fill:#c1ddf3;fill-opacity:1;stroke:#e59322;stroke-width:.865384;stroke-linecap:butt;stroke-linejoin:bevel;stroke-miterlimit:4;stroke-dasharray:none;stroke-opacity:1" transform="translate(-224.384 -1.663) scale(1.15556)" id="path2" />
      <path d="M253.926 100.457c-4.375.382-1.863 7.647 1.83 4.744 2.34-1.531.77-5.004-1.83-4.744zm47.454-20.93c-5.313.305-1.64 8.037 2.136 4.776 1.949-1.71.538-5.194-2.135-4.776z" style="display:inline;fill:#c1ddf3;fill-opacity:1;stroke:#e59322;stroke-width:.865384;stroke-linecap:butt;stroke-linejoin:bevel;stroke-miterlimit:4;stroke-dasharray:none;stroke-opacity:1" transform="translate(-224.384 -1.663) scale(1.15556)" id="path4" />
      <path d="M302.346 81.26c-4.925.502-1.485 7.762 2.205 4.818 2.034-1.668.4-5.234-2.205-4.818zm6.783 21.119c-4.701.922-.714 8.14 2.572 4.455 1.581-1.804-.14-5.029-2.572-4.455zM277.87 43.887c-4.052.013-3.689 6.625.476 5.449 2.963-.472 2.635-5.63-.477-5.45zM251.252 1.879c-4.981.253-2.438 8.152 1.664 5.127 2.073-1.454 1.008-5.328-1.664-5.127z" style="display:inline;fill:#c1ddf3;fill-opacity:1;stroke:#e59322;stroke-width:.865384;stroke-linecap:butt;stroke-linejoin:bevel;stroke-miterlimit:4;stroke-dasharray:none;stroke-opacity:1" transform="translate(-224.384 -1.663) scale(1.15556)" id="path6" />
      <path style="display:inline;opacity:1;fill:#fff;fill-opacity:1;fill-rule:evenodd;stroke:#e59322;stroke-width:.865384;stroke-linejoin:round;stroke-miterlimit:4;stroke-dasharray:none;stroke-opacity:1" d="M251.274 4.827c.005.063.13-.1 0 0zm-.18.047c.169-.01.133-.174 0 0zm26.449 41.827c-.148.129.181-.068 0 0zm-23.807 54.419c.014-.159-.097-.028 0 0zm48.922-17.158c-.009-.051-.168.028 0 0zm-.034.04c-.202.005.27.008 0 0zm-48.426 19.16c.07-.068-.109-.003 0 0zm55.47 1.916c-.007-.149-.184.064 0 0zM197.36 37.545c-.083-.124-.086.003 0 0zm-.062.054c.782.17-.159-.14 0 0z" transform="translate(-224.384 -1.663) scale(1.15556)" id="path8" />
    </g>
  </g>
</svg>
