<?xml version="1.0" encoding="UTF-8" standalone="no"?>
<svg width="21.647" height="36.398" version="1.1" id="svg10" sodipodi:docname="vanuatu.svg" xmlns:inkscape="http://www.inkscape.org/namespaces/inkscape" xmlns:sodipodi="http://sodipodi.sourceforge.net/DTD/sodipodi-0.dtd" xmlns="http://www.w3.org/2000/svg" xmlns:svg="http://www.w3.org/2000/svg">
  <defs id="defs14" />
  <sodipodi:namedview id="namedview12" pagecolor="#ffffff" bordercolor="#666666" borderopacity="1.0" objecttolerance="10.0" gridtolerance="10.0" guidetolerance="10.0" inkscape:pageshadow="2" inkscape:pageopacity="0.0" inkscape:pagecheckerboard="0" />
  <g style="display:inline" id="g8">
    <g style="stroke-width:.865384" id="g6">
      <path d="M197.371 145.441c-4.761.736-2.923 7.333-2.707 10.78 3.092 6.522 7.749 12.22 10.97 18.72 4.33 4.401 9.292-5.242 4.235-7.591-4.633-3.363-3.467-9.569-5.027-14.495-.354-4.416-2.85-7.54-7.47-7.414z" style="display:inline;fill:#c1ddf3;fill-opacity:1;stroke:#b11971;stroke-width:.865384;stroke-linecap:butt;stroke-linejoin:bevel;stroke-miterlimit:4;stroke-dasharray:none;stroke-opacity:1" transform="translate(-223.835 -167.562) scale(1.15556)" id="path2" />
      <path style="display:inline;opacity:1;fill:#fff;fill-opacity:1;fill-rule:evenodd;stroke:#b11971;stroke-width:.865384;stroke-linejoin:round;stroke-miterlimit:4;stroke-dasharray:none;stroke-opacity:1" d="M202.33 155.463c-.078.659.329.896.208.274.026-.37-.534-1.944-.346-.712.03.156.096.283.138.438zm.35 8.448c-.108-.163.063.267 0 0zm-5.398-15.249c-.203.298.442.042 0 0zm1.624 8.421c.301 1.146 1.048-.479 0 0zm9.254 15.903c-1.143.183.787.766 0 0zm-10.904-24.349c.128-.064-.138-.034 0 0zm2.2 8.703c.024.091.042-.114 0 0zm-.204-1.55c.05-.13-.16.02 0 0zm.025 1.058c-.057-.469-.347.467.062-.007zm2.768-3.834c.426.054-.08-.322 0 0zm.444 11.083c.075-.079-.103.068 0 0zm4.841 5.697c.02.283.112-.321 0 0zm-7.873-12.93c.185.145.174-.349 0 0zm4.434 4.695c.272-.435-.476.114 0 0zm-6.695-13.262c-.291-.466.018.751 0 0zm2.537 9.84c.055.018.04-.065 0 0zm4.26 3.66c-.03-.021-.003.061 0 0zm-1.034 1.847c-.333-.007-.366.438 0 0zm-2.549-11.578c-1.206.346.676.909.055.005zm-.932 4.332c-.06-.315-.102.076 0 0zm1.812-3.922c-.015-.058-.034.05 0 0zm2.141 10.298c-.018-.199-.116.013 0 0zm-4.75-8.175c.018.537-.645 1.339-.797.298.093-.573-.819-1.933-.801-.702.426.945.203 2.472.98 2.969.306-.46 1.15-.087 1.398-.665-.317-.334-.274-1.092-.617-1.547-.21-.258.254-.312-.164-.353zm.932 3.373c.026.074.08-.05 0 0zm4.307 3.757c.02-.083-.1-.085 0 0zm-1.515-1.33c.082-.051-.063-.016 0 0zm-.702-4.156c.894-1.136-1.82.39-.297.257.06-.14.445.25.297-.257zm-2.694-1.018c.13-.005-.054-.068 0 0zm2.19 5.005c.044-.022-.04-.053 0 0zm-1.97-3.192c.068-.001-.06-.022 0 0zm2.012 3.239c.06-.086-.075-.012 0 0zm-.785-9.637c.027-.049-.057.001 0 0zm2.453 7.423c-.2-.525-.27-1.357-.462-1.607-.161.517 0 1.862.377 1.821.168-.05-.063-.184.085-.214zm-1.501 2.146c.04-.16-.097-.022 0 0zm-.704-9.838c.015.067.05-.014 0 0zm-.515.869c.303-.263.473-.486-.064-.861-.498.214-.093.673.064.86zm-.819 4.98c.133-.075-.138-.114 0 0zm.549 2.089c.052-.072-.094-.025 0 0zm-1.016-3.314c.113-.055-.095-.074 0 0zm.348 1.156c.06-.082-.05.001 0 0zm1.43-5.813c.467.04.342-.462 0 0zm-.323-.307c.044 0-.015-.073 0 0zm2.974 13.589c.166-.015-.184-.167 0 0zm-.162-2.347c.04-.046-.03-.034 0 0zm-1.797-1.23c-.238.12.182.035 0 0zm-2.783-3.134c-.062-.04-.035.033 0 0zm1.202-7.213c-.63.069.238.24 0 0zm-.473 6.173c.072-.026-.05-.068 0 0zm10.038 14.93c.159.255.167-.247 0 0zm-6.263-10.596c.376-.095-.335-.268 0 0zm-3.68-3.288c.064-.003-.008-.064 0 0zm.802 3.53c.026-.127-.143-.056 0 0zm3.625.802c.06.013-.018-.064 0 0zm-3.24-1.091c.031-.047-.053-.01 0 0zm-1.893-3.166c.051-.042-.113-.014 0 0zm2.494 3.184c.062-.011-.017-.053 0 0zm-.408-.01c.025-.054-.056-.004 0 0zm-.659-1.5c.116-.005-.147-.081 0 0zm2.538 1.418c.317.198.053-.672 0 0zm-4.211-3.009c.01-.15-.127.018 0 0zm4.09 7.197c-.103.234.736-.032.336.316.442-.37-.021.311.588.063.874.198.076-1.3-.566-.878-.074.124-.28.292-.358.499zm.786-.609c-.044-.026-.02.07 0 0zm-5.777-14.21c.262-.172-.239-.341 0 0zm5.399 15.037c.034-.054-.06.017 0 0zm-3.937-9.828c-.186.127.366.187 0 0zm1.096 3.936c.073-.035-.089-.027 0 0zm-.896-1.61c.026-.061-.08.035 0 0zm3.707 3.724c-.246-.313-.607-.563-.475.19.09.516.97.149 1.095.293.12-.244-.54-.123-.62-.483zm-5.582-11.662c.135.233-.005.035 0 0zm5.664 10.407c-.378-.432-.458-.989-.901-.437-1.209.094.647.945.901.437zm-2.918-.721c-.172-.176-.393-1.113-.906-.658-.137.57.116.948.564.763.292.43.093 1.69.667 1.49.105-.492.796.093.994-.364-.354-.055-.061-.028-.26-.43-.464-.313-.935-.857-1.003-.762zm3.375 3.59c-.07-.092-.06.062 0 0zm-2.031-2.108c.04.026.025-.054 0 0zm-.426-.052c.06-.036-.03-.031 0 0zm.449.037c-.001-.056-.07.003 0 0zm2.488 1.74c.07-.065-.097-.012 0 0zm.1-.043c.28-.055-.105-.103 0 0zm2.418 6.722c-.215-.316-.534-.417-.271-.656-.287.034-.652-.864-.89-.02-.28.575.99 1.227 1.16.675zm-6.597-10.363c.066-.043-.042-.049 0 0zm3.323 5.285c.355-.154-.48-.394 0 0zm-2.526-12.612c-.031.023.05.023 0 0zm-.047.029c.101-.075-.108.01 0 0zm3 12.619c.162-.198-.222-.004 0 0zm-.214-1.525c-.194-.264-.5.392 0 0zm3.503 8.903c.303-.233-.657-.495-.48-.896-.937.039.345 1.87.48.896zm-9.495-21.92c-.106-.107-.127.1 0 0zm3.552 1.75c-.271-.007.138.242 0 0z" transform="translate(-223.835 -167.562) scale(1.15556)" id="path4" />
    </g>
  </g>
</svg>
