<?xml version="1.0" encoding="UTF-8" standalone="no"?>
<svg width="15.062" height="12.024" version="1.1" id="svg10" sodipodi:docname="wallis_and_futuna.svg" xmlns:inkscape="http://www.inkscape.org/namespaces/inkscape" xmlns:sodipodi="http://sodipodi.sourceforge.net/DTD/sodipodi-0.dtd" xmlns="http://www.w3.org/2000/svg" xmlns:svg="http://www.w3.org/2000/svg">
  <defs id="defs14" />
  <sodipodi:namedview id="namedview12" pagecolor="#ffffff" bordercolor="#666666" borderopacity="1.0" objecttolerance="10.0" gridtolerance="10.0" guidetolerance="10.0" inkscape:pageshadow="2" inkscape:pageopacity="0.0" inkscape:pagecheckerboard="0" />
  <g style="display:inline" id="g8">
    <g style="stroke-width:.865384" id="g6">
      <path d="M254.87 145.867c-4.815.51-1.883 8.597 2.038 5.428 2.215-1.762.91-5.745-2.039-5.428zm-6.474 3.664c-5.465.534-.955 8.778 2.649 4.766 1.914-1.988-.315-4.876-2.649-4.766z" style="display:inline;fill:#c1ddf3;fill-opacity:1;stroke:#2b6be1;stroke-width:.865384;stroke-linecap:butt;stroke-linejoin:bevel;stroke-miterlimit:4;stroke-dasharray:none;stroke-opacity:1" transform="translate(-283.595 -168.038) scale(1.15556)" id="path2" />
      <path style="display:inline;opacity:1;fill:#fff;fill-opacity:1;fill-rule:evenodd;stroke:#2b6be1;stroke-width:.865384;stroke-linejoin:round;stroke-miterlimit:4;stroke-dasharray:none;stroke-opacity:1" d="M255.226 148.888c-.33-.769-.203.913 0 0zm-.135.335c-.035-.144-.05.034 0 0zm.137.029c.038-.056-.055-.123 0 0zm-6.48 3.189c.298-.175-.744-.242 0 0zm6.408-3.858c-.04-.061-.057-.018 0 0zm-6.25 4.012c.518-.052-.301-.183 0 0z" transform="translate(-283.595 -168.038) scale(1.15556)" id="path4" />
    </g>
  </g>
</svg>
