<?xml version="1.0" encoding="UTF-8" standalone="no"?>
<svg width="411.027" height="238.068" version="1.1" id="svg6" sodipodi:docname="china.svg" xmlns:inkscape="http://www.inkscape.org/namespaces/inkscape" xmlns:sodipodi="http://sodipodi.sourceforge.net/DTD/sodipodi-0.dtd" xmlns="http://www.w3.org/2000/svg" xmlns:svg="http://www.w3.org/2000/svg">
  <defs id="defs10" />
  <sodipodi:namedview id="namedview8" pagecolor="#ffffff" bordercolor="#666666" borderopacity="1.0" objecttolerance="10.0" gridtolerance="10.0" guidetolerance="10.0" inkscape:pageshadow="2" inkscape:pageopacity="0.0" inkscape:pagecheckerboard="0" />
  <g style="display:inline" id="g4">
    <path style="display:inline;fill:#e7d436;fill-opacity:1;fill-rule:nonzero;stroke:#333;stroke-width:.5;stroke-linecap:round;stroke-linejoin:round;stroke-miterlimit:4;stroke-dasharray:none" class="polygon" d="m255.584 233.075.332.295.218.43.181.796.107.733-.678.463-.606.188-1.218 1.791-.254.564-.208.235-.067.249.027.248-.314.861-.28 1.059-.177.436-.348.336-.442.168h-.288l-.262.094-.641.577-.724.436.12.202.008.188-.317.208-.353-.067-1.02.168-.375.322-.383.598-.146.08-.614.142-.472.067-.8-.423-.398-.128-1.059-.168-1.029-.288-.722-.323-1.482-.8-.172-1.443-.255-.78-.013-.275.097-2.399.104-.262.188-.228.654-.537.751-.423 1.075-.888.78-.402.655-.585h-.383l-.283-.074.279-.496.299-.269.345-.148.693.108.642-.101.474-.443.45-.094 1.711.148 1.187-.202.595-.41h.28l.877.115.325.423-.027-.282.04-.276h.161l1.146.524.004-.644.067-.168.358-.269.18.01.443.524.433.302zm-3.382-7.395.25.235.666-.16.121.295-.005.14-.235.343-.55-.262-.55.067h-.396l-.11-.16.304-.337zm15.165-3.669-.659.141h-.138l.228-.349.596-.235zm.983.255-.128.134-.195-.241-.054-.35-.14-.187.321-.235.145-.262.382.067.158.08-.335.268-.08.114zm5.137-8.072.054.309-.524-.47h-.15l-.25-.175-.146-.295h.406l.374.356zm31.071-11.361-.225.403-.396-.067-.013-.289-.08-.087.108-.269.073-.074.449.229zm10.997-6.45-.498.308-.311-.147-.006-.417.158-.376-.182-.268.179-.322.372-.094.13.201.21.107.067.108.002.208-.199.35.157.187zm9.605-17.655-.585.162-.22-.001.014-.49.48-.464.194.155.111.242zm6.185-10.693-.027.128-.573-.436-.276-.074.132-.249.385-.067.304.55zm1.553-1.432-.067.308-.178-.067-.24-.55.129-.134h.34zm-.725-.477-.097.134-.83-.383-.899-.08-.31-.343-.054-.53h.948l1.167.483.254.248zm-2.909-10.265-.552.195-1.749-.577-1.232-.631-.736-.769-.105-.315.858.067.84.275.186.423.34.134.23.249 1.555.57.237.175zm10.923-147.96.304.02.168-.001.322-.134.894.238 1.704.708 1.071.315.44-.077.48.197.522.47.65.277 1.168.127 1.158.516.468.027.165-.288.432-.166.699-.04 1.01.253 1.322.552.83.242.336-.067.356.102.286.26.027.317-.097.172.318.269h.367l.598.129.468.476.421.22.294.19.054.16.027.16-.088.124-.16.205-.047.22.201.247.744.18.253.184.054.237.233.262.506.303.193.253-.118.204.149.17.25.133.053.484.02.278.408.312.084.64.285.708.962.97.316.526-.081.625.137.293.439.142.208.265-.027.386.172.24.137.256-.094.399.138.359.224.21.16.387.089.485.642.767 1.194 1.05.73.816.267.582.002.478-.262.375-.013.273.234.17.07.233-.094.292.39.346 1.308.602-.523.922-.137.648.07.682.325.481.577.28.358.292.141.303.693.332 1.244.359 1.595.06 1.945-.235 1.19-.04.436.156.148.235-.14.317.33.208.798.1.551.199.3.299.37.085.436-.13.425.02.413.167.27-.06.232-.183h.376l.385.004.24.44.387.246.535.054.816.535 1.641 1.521 1.067.541 1.07.17 1.328.034.43.59-.346.626-.09.52.302.187.416.613.589.356.111.282.274.314-.115.584-.504.852.137.728.78.603.448.58.117.559.195.339.274.12.8-.04 1.326-.203.973.033.62.273 1.535.007 2.448-.251 1.547-.077.645.097.575-.359.503-.816.472-.384.44.047.7-.262.96-.573.833-.277 1.055.027 1.122.026.704-.24.662-.501 1.144-.444 2.442-.578.587-.091.28.034.813.09.721.226.683.455.105.292-.077.384-.149.222-.281.25-.264.406.17.317.396.678.324.49.36.577-.162.208-.217.4-.668.678-.365.26-.392.254-.678.06-.29.06-.326.107-.206.24-.235.17-.386.338-.033.292.176.433.087.444-.438.397-.34.61-.1.184-.17.462-.047.16-.107.973-.437.664-.61.773.134.46.108.427-.151.208-.034.18-.09.412-.192.158-.554.257-.333.31.07.47-.17.408-.255.36-.267.235-.381.151-.256.128-.191.46-.06.354-.18.353.111.362-.196.312-.544.218-.308.128-.286.054-.544.338-.488 1.165-.11.678.11.602-.682.377-.509.3-.317-.109-.337-.1-.775-.131-.386-.088-.783-.195-1.25-.25-1.219-.29-.765-.153-.603-.121-.459-.2-.385-.356-.382.145-.355.42-.591.25-.269.463-.236.355-.612.473-.273.195-1.2.322-.27.108-.977.068-.331.142-.346.298-.093.299.243.313.38.629.177.43.261.848.87 2.67-.283.461-.262 2.002.06.362-.027.563.014.413.18.101.233.144.12.242-.033.369-.12.271-.185.537-.244.776-.269.299-.178.236-.154.164-.02.55-.1.362-.423.128-.421.21-.5-.078-.437.047-.543.141-.975.163-.566.218-.27.16-.187.19-.034.183.13.096.546.075.376.343.053.375-.386.214-.192-.235-.323-.076-.601-.33-.437-.363-.329-.402.014-.858-.054-.13-.598-.175-.178-.255-.284-.122-.404.078-.305-.083-.24-.14-.288-.02-.25.222-.13.476-.419.79-.04.477-.182.683-.179.865-.147.18-.47.027-.16.054-.244.294-.294.047-.261-.172-.411-.172-.388-.02-.35.172-.41.374-.235.303-.083.283-.067.35-.415.335-.379.175-.782.494-.25.206-.562.003-.61-.02-.82.133-1.34.067-.802-.1-.99.094-.773.162-.11.241.026.357.155.233.19.155.32.48.334.464.511.3.212.322.013.3-.241.378-.367.493-.342.304-.256-.013-.393-.177-.266-.223-.634-.083-1.55.141-.776-.1-.37-.18-.65-.014-1.004-.242-.611-.077-.29-.156-.053-.355-.29-.244-.16-.292-.366-.367-.35-.184-.344-.078-.378.222-.4.2-.3-.047-.144.054-.165.166-.643.341-.153.313-.257.663-.178.682-.155.241-.262.04-.266.206-.558.641-.504.59-.733.4-.345.367-.177.333-.522.466-.766.083-.61.136-.375.033-.268.188-.195.288-.095.113h-.345l-.344.244-.844.556-.688.102-.863.371-.758.281-.316.159-.084.174-.111.223-.367.047-.355-.014-.788.511-.4.433-1.554.924-.633.52-.165.672-.081-.053-.554.587-1.086.558-2.32.125-.734-.397-.266.274-.205.367-.609.123-.952.033-.532.242-.285.27-1.305.089-.478.36-.812.128-3.392 1.576-.737.663-.7.775-.49.39-.44.273-.4.112-.392.268-.397.034-.406-.123-.453.04-.299.327.253.423-.138.179-.89.23-1.324.152-.563.277-.194.157-.294.08-.281-.548-.1-.722.547-.173.504-.092 2.797-.996-.35-.749.247-.326.627-.53.406-.261-.221-.096-1.833.175-1.053-.014-.538-.054.163-.452-.09-.451-.128-.17.933-.514.424-.127.322.007-.02-.31-.268-.468.29-.603 1.904-.71.456-.644.765-.6 1.397-1.494.083-.253.407-.7.074-.279-.646-.409-.258-.573-1.89-1.034-.161-.887-.177.04-.288.622-.244.2-.875.02-.415-.236-2.435-.153-.595.401-.557.621-.542.443-.544.228-.474.404-1.958 2.405-.74.181-3.48 1.453-1.742.57-1.342 1.008-.462.61-.41.677-.246 1.026-1.238 1.246-.425.268-.434.108-.576-.04-.497.078-.846-.11-1.037.395-1.169.342-1.007-.86-.718-.213-1.176.239-.544.381-1.128 1.89-.422 1.085.026.445.66 1.349.743.756 1.666.86 3.548.595.831-.212.892-.002.94.564.588.931.054.637.02.22.213.187.127.321-.374.267-.286.132-.241.99-.014 1.093.306.363.763.51 1.179.422 1.09.09 2.087-.203.852-.66-.054-.284.02-.37 1.833-.968 1.045-.857-.164-.227-.2-.151.184-.088.573-.06 2.55-.893 2.008.73 1.145.84 1.132.142.787.43.906.367 1.183.026.996.076.304-.338.312-.223.356.047.4.444 1.132.342 1.044-.02.732-.124.435.158-.629.57.094.919-.482.29-.462.469.274.308.241.131-.026.375-.421.213-.78.556-.448-.013-.214-.107-.152-.2-.11-.32-.275-.21-.757-.082-.785.076-1.766.826-1.722.658-1.807.523-.606.33-.429.09-.748-.25-.454.014-.096.171.577.459.15.36-.06.277-.327.121-.476-.203-.434.289-.197.487-.007 1.158-.29.258-.795.142-.848.368-.3-.17-.122-.207.089-.533-.106-.26-.386.014-.583.159-.445.35-.154.21.586.681.56.069.134.153-.441.332-1.104.496-.182.415-.327.396-.45.316-.306.333-.374.174-.61.195-.747.798-.55.747-.65.384-.516 1.26-.92.685-.339 1.094.24.674 1.01-.01.506.237 1.048.886 1.254.577 1.303.325 1.596.82.438.347.376.705.692 2.032.497 1.006.034.526.744.992.798 1.704.917 1.478.177 1.164-.298.53.001.69.918.634 2.037.736.325.217.398.357.02 1.112.315.356.267.215 1.233.47.516.39.547.624.16.557.067.758h-.69l-.555-.087-2.208-.984h-.574l-.81.134-1.157-.181-1.22-1.09-.881-.33-.943-.168-2.256.938-.573-.067-.166.108-.256.161 1.046.201 1.046-.308 1.005-.457 1.466.242.247.41.238.691 1.005.47.792.209 1.003.61.981.959 2.08 1.112.84 1.053.326.68.292.971-.728.316-.633.067-.99.154-.73.342-.732.605-2.097.95-.398.59-.274.517-.51.255-1.286-.242h-1.21l-1.372.7-.342.283.228-.067.215-.094.618.107.953-.376.932 1.14 1.82-.18 1.712-.948h.662l.554.148.619.376 1.646 1.662.902.182.887.389.49.067.44.114-1.189.611-1.539 1.315-.684.316-.46.35 1.237-.175.883-.632.443-.154.358.148.182.774-.34 2.387-.431.067-.421-.65-.492-.209-.413.134h-.821l-.313.296-.265.416.491.087.967.724.099.39-.26.248-.678-.107.822.537-.217.564-.267.221-.478.141-.295.484.422.808.43 1.037.054.497-.672-.215-1.043.631-.553.067-.372-.833-.478.127-.317.242-.423.894-.517.808-.443.222-.534-.067h-.439l.107.215.466.268v.309l-.992.986-.16.383.027.322-.52.396.28.665-.145.47-.455.631-.478.417-.564.676-.711.39-.941 1.416-.276.707-.072.733-.294.255-.505.322-.574-.16-.02-.49-.249-.068-.142-.322-.04-.41.06-.329-.239.101-.147.383-.378.308-.396-.127-.425-.255.013.362.226.37.098.369.59.08.394.424.311.644.06.242.243.289.034.248-.563.229-.702.43-.843.732-.699.49h-.627l-.38-.067-.544-.282-.622-.114.835.987.458.174.576-.067.558-.369.791.067.198.57-.21.645-.431.834-.09.721.535 1.033.02.309-.2.154-.628-.275-.52-.342-.523.087-.542-.148-.557.12-.227.236.155.396.498.329.282.503-.336.175-1.416-.121-.316.094-.424.55.277.82-.313.51-.584.122-.77.41-.473.093.02.181.346.182.184.241-.417.838-.65.275-.996-.134-.783.188-.677-.356h-.721l-.491.45-.054.523-.476.067-.257-.067h-.364l.04.282.208.249.975.107.177.356.033.544-1.02.937-.434.631h-.657l-.495.504-.266.689-.33-.135-.757.108-.223.329.178.134.02.235-.304.774-.33.214-.142-.315-.106-.49-.268-.067-.442.45-.516.322-.44.134-.334-.302-.82-.154-.334 1.3-.681.476-.319.148-.555.067.355.174.11.336-.199.336-.555.067-.323.262-.124 1.162-.33.41h-.84l-.63-.27-.2.216-.105.208-.328.208-.637.067-1.413.517-.646-.148-.775-.194-.533.194-.178.396-.243.31h-.778l-.622-.383-.632-.276-.7.242-.533.49-.656.161-.121.302-.286.155-.695-.067-.264-.755-.4-.114-.395.383-.14.295-.184.228.067.618h-.39l-.51-.376-.534-.067-.5.35-.255-.088-.268-.074h-.439l-.167.094-.32.067-.215.195h-.02l-.566-.128-.69-.51-.496-.848-.627-.457-.279-.403-.108-.722-.115-.342.04-.383.19-.336-.677.168-.5.316.102.396-.125.37-.744.194.047.154.047.162.586.503.12.423.234.228.459.658-.014 1.275.251.363-.083.356-.183.483-.014.01-.132-.147h-.22l-.089.16-.013.148h-.034l-.387.108-.324.094-.266.127-.412.383-.788.094-.404-.893-.541.598-.164 1.216-.201.208-.336.174-.64-.423-.558.282-.435.29-.179.268-.32.288-.615-.282-.493-.416.122-.316-.068-.208-.222-.154h-.245l.12.41.082.78-.223.229-.346.174-.75-.14-.511-.29-.618-.248-.545-.067-.118.49-.355.396-.328.067-.326-.067-.43.43-.204.316-.53.329-1.412.16-.492.33-.661-.067-.513.08h-.293l-.265-.174h-.297l-.135.55-.797.229-.718.067-.799.721-.57.436-.423.067-.31-.154-.158-.645-.158-.074-.09.605-.154.503-.292.276-.924.63-.265.625.177.578 1.242.14.155.316-.121.255-.298.215-.088.322 1.333 1.03.04.39-.206.221-.251.477-.704.41-1.488.208-1.24-.208-.375-.464.02-.329.307.094h.351l-.104-.302-.147-.174-.573-.269-.464-.722.09-.605-.255-.463-.276-.39-.279-.234-.149-.289.281-.912-.155-.53.53-.652.13-.732.95-.262.067-.699h-.68l-.47-.517-.108.215h-.379l-.622-.989-.187-.128h-.301l.151 1.044-.728.39-.597.174-.848.074-.482.12-.45-.1.111-.316.238-.376-.213-.315-.478-.242h-.73l-.507-.067h-.501l-.186-.14-.466-.49-.394-.31-.178-.302.178-.356-.149-.215h-.764l.007.51.078.598.223.457-.158.255-.388.174-.413-.483-.19-.12h-.2l-.151.483-.376.423-.676-.067-.525.261-.636.121-.431-.349-.714-.57-.288-.068-.794.276-1.139.107-.254-.295-.553.221-.53-.683-.629-.067-.784-.517-.281-.275-.09-.39-.238-.207h-.307l-.34-.209-.54-.208-.435-.12-.213.094-.23.067-.04-.262.014-.795-.04-.705-.12-.315-.29-.242-.266-.114-.116-.363.095-.71.214-.484.34-.087.46-.35.234-.49.295-.456-1.05-.638-.551-.228-.61.094-.758.201-.397.067-.199-.08-.439-.578-.238-.1h-.537l-.453.01-.26.248-.401.08h-.4l-.408-.315-.611-.41-.961-.288-.116-.329-.244-.396-.365-.363-.602-.483-.505-.255-.245.154-.334.275-1.298.584-.574.229-.305.161-.257.242-.079.597-.128.672-.374.342-.354.255h-.737l-.34.108-1.042.672-.493-.067-.403-.383-.173-.275-.466.067-.6.322-.276.577-.147.538-.13.241-.2.067h-.179l-1.865-1.556-.114-.081-.333.322-.304.825-.217.161-.148-.067-.772-1.056-.197-.1h-.176l-.23.342-.49.504-.375.308-.007.343-.406.302-.473.302h-.157l-.315-.12-.408-.397-.297-.416-.732-.41-.822-.349-.547-.275-.31-.067-.29.12-.144.169-.206.41-.493.675-.438.537-.41.342-.325.235-.241-.221-.45-.182h-.531l-.696.343-.549-.684h-.142l-.21.067-.242.161-.17.383-.176.524-.35.342-.29.155.085.295.165.322-.014.282.105.443.182.444.65.72.247.375.047.323.02 1.156-.027.483-.129.932-.007.537.27.242.262.289-.007.154-.115.067-.372.322-.157.067-.243-.127-.315-.1-.253-.128-.279-.209h-.663l-1.089.316-.225-.087-.157-.175-.085-.362.054-.43-.097-.275-.203-.161.143-.769-.388-.302.054-.094-.13-.83.021-.2-.069-.068-.274-.067-.406.128-1.237.544-1.06 1.008-.488.222-.492.094-.575-.175-.639-.114-.912.255-.45-.114-.208-.208-.184-.316.11-.396-.068-.295-.365-.148-.423-.128-.251-.382-.102-.417.1-.543.047-.585-.203-.268-.62-.148-1.562-.262-1.37-.147-.575.067-.468-.067-.271-.108-.131-.181-.007-.262.222-.604.253-.591.635-.858.033-.59-.033-.686.315-.916.548-.686.27-.215-.067-.302-.22-.282-.312-.154-.518-.182-.809-.067-1.11-.18-1.284-.41.146-.78-.02-.49-.159-.404-.263-.282-.147-.255.23-.698-.298-.762-.353-.302-.364-.396-.027-.423.167-.396.889-.85.007-.208h-.475l-1.215.309-.129-.195-.435-.114h-.887l-1.04.067-1.313.302-1.203.53-.55.363-.468.229-.378.074-.437-.162.027-.517.821-.955.118-.658-.251-.564-.027-.45-.29-.289-.404-.14-.213-.323-.014-.936.362-.965.587-.302.356-.147.095-.188-.182-.675.027-.43.352-.83.35-.632.66.108.296-.155.327-.221.358-.376.24-.45.29-1.043.2-.155.832.175.25-.121.456-.611.429-.745.623-.228h.45l.208-.248-.014-.363-.427-.577-.181-.464.054-.282.612-.168.15-.335-.092-.733.253-.88.15-1.033.047-.77-.006-.591-.06-.618-.087-1.125-.28-.978.053-.369-.04-1.186-.172-1.01-.345-.175-.64-.33-.348-.066-.294.12-.11.35-.282.329-.347-.081-.165-.33-.223-.43-.742-2.043-.081-.59-.13-.585-.251-.295-.265-.175-.592-.687-.312-.289-.152-.067-.325.067-.32.001-.261-.342-.238-.416-.24-.208-.4-.114-.412.067-.24.362-.164.208-.31.484-.504.664-.228.249-.222-.128-.969-.695-.468-.194-.634.208-.993-.168h-.384l-.826-.557-.337-.067-1.174.362-.26.255-.152.01-.313-.127-.258-.168-.013-.108.317-.268.027-.188-.013-.195.458-.544 1.244-1.055-.207-.443-.49-.871-.068-.423-.21-.188-.597.154-1.24.79-.168-.086.027-.276-.128-.796.393-.242.602-.295.465-.33.108-.26-.125-.082-.686.1-.27-.18-.445-.732-.328-.288-.297-.155-1.009.376-1.173.517-1.306.722.007.37-.156.093-.25.235-.243.322-.208.115h-.243l-.497-.094-.902-.363-.98-.302h-.21l-1.33-.215-.04-.168-.2-.336-.378-.302-.362-.1-1.04.644-1.175.484-.67.57-.55.564-.63.108-.027.349-.266.315-.48.39-.95.49-.642.262-2.044.242-.73.167-.304.262-.327.658-.26.604-.565.504-1.028.671-1.209.544-.33.363-.061.215.149.08.147.162.002.248-.157.269-.79.47-.443.221-.442.141h-.496l-.476-.067-.131-.074-.19.094-.434.101h-.378l-.83.517h-.459l-.568-.114-.753-.087h-.542l-.013-.276.084-.822-.244-.195-.754-.2-.844-.27-.408-.281-.227-.094-.316.067-.51.302-.486.349h-.382l-.391-.161-.375-.215-1.282-.302-.575-.067-1.025.067-.837-.067-.132-.094.005-.168.124-.33.072-.321-.098-.182-.856-.228-.78-.161-.83-.067-.558.114-.544.255-.45.457-.653.201-.777.343-.378.322-.569.683-.827.84-.754.818-.39.797-.516.504-.523.362-.377.994-.396-.316-.454-.45-.107-.617.544-1.65.127-.679-.135-.262-.168-.671-.319-.222-.907-.349h-.29l-.311.242-.305.154-.405.155-1.012.289-.9.134-.216.107-.068.195.073.228-.58-.087-.604-.067h-.488l-1.195.437-.404.067-.452-.067H97.14l-1.003-.108-.814-.604-.58-.269-.613-.208-.618-.154-.207-.33-.195-.16-.511-.067-.403.12-.252.818-.215.16-.512.075-.538-.208-.743-.417-.293-.47-.25-.154-.391.208-.02.598-.076.403-.468.16-.27-.12-.218-.416-.548-.979-.542-.57-.545-.383-1.797.01-1.333-.114-.602-.155-.228-.376.221-.752.26-.59-.007-.135-.22-.067-.384-.067-1.437.376-.39-.067-.252-.127-.303-.108-.252-.174-.176-.256-1.243-.624-.367-.342-.662-.43-.56-.295-.357-.837-.32-.805-.178-.43-.533-.228-.577-.175-.977.35-.802.268h-.588l-.851-.824-.682-.892-.806-.775-.535-.39h-.95l-1.072-.436-1.433-.992-1.036-.74-1.785-.822-.414-.343-.159-.295-.244-.578-.373-.55-1.266-.242-1.43-.168-1.508.336-1.089 1.64-.523.356h-.448l-.368-.416-.304-.443-.167-.49-.751-.363-.852-.47-.433-.363-.492-.228-.456-.1-.882-.31-.998-.349-.468-.067-.034-.248.14-.524-.085-.51-.302-.208-.456.067-1.054-.718h-.054l-.3-.201-.518-.296h-.875l-.664.108-.485-.303-.703-.476-.126-.108-.208-.174-.713-.913-.842-1.08-.426-.162-.219.081-.25.578-.187-.067-.312.067-.37.201-.354.067-.227-.067-.096-.14.1-.758-.213-.235.19-.524.321-.457-.329-.335-.405-.484-.04-.436.22-.55.105-.47-.067-.175-.321-.262-1.221-1.294-.067-.14-.208-.431-.094-.652-.16-.465-.186-.357.013-.167.14-.087.764-.088.706-.054.466-.122.24.26.113.396.12.21.447.376.544.362.529-.047.465-.155.405-.589.286-.143.332-.027-.002-.047-.013-.379.116-.934-.04-.374-.15-.337.027-.374-.047-.546-.381-.371-.248-.143-.04-.2.126-.374.09-.428-.13-.316-.02-.047-.31-.162-.361-.276-.431-.37-.213-.27-.347-.297-.424-.46-.08-1.012-.04-1.064-.149-.529-.236-.844.034-.284.143-.215 1.2-.68.261-.264.04-.2-.047-.3-.226-.33-.48-.258-.684-.42-.62-.438-1.04-.268-1.268-.325-.302-.318-.308-.779-.52-1.186-.556-1.265-.427-.78-.02-.375.257-.957-.034-.204-.223-.07-.427.125-.342.152-.291-.079-.273-.16-.054-.053-.02-.02-.506.103-1.017.06-.353-.013-.493-.013-1.018-.22-1.375-.294-1.418-.41-.752-.326-.264-.113-.643-.34-.46-.294-.081-.765-.33.06-.781.276-.9.176-.496.003-.202-.124-.298-.808-.218-.226-.406-.09-.439-.142-.22-.21-.047-.266.196-.306.233-.234.04-1.434-.152-.508-.127-.427-.322-.531-.3-.33-.457-.303-.705-.316-.628-.116-.762.23-.242-.088-.318-.977-.203-.2-1.352-.402-.613-.093-.704.126-.402.107-.322-.18-.505-.225-.496-.154-.615-.006-.397.097-.1-.06-.192-.179-.817-.538-.027-.137 1.254-.53.739-.201.387-.162.083.034.19.245.489.162.343-.047.18-.124.606-.292.474-.34.267-.28-.143-.44-.746-.531-.474-.285-.145-.192.122-.576.174-.572-.114-.219-.14-.186-.068-.625-.324-.754-.355-.44-.097-.592-.02-.557.429-.87-.159-.376-.451-.334-1.551-.604-1.589-.401-.605.013-.376-.027-.443.354-.266.461-.374.04-.677-.195-.453-.296-.32-.618-.25-.794-.14-.249.073-.214.155-.192.433-.178.072-.183-.067-.225-.348-.285-.358-.403-.558-.837.106-.461.088-.663-.033-.35.564-.09.72-.18.335-.298.23-.303.048-.188-.216-.726-.287-.324-.027-.25.14-.192.19-.33.364-.678.355-.432.194-.11.434-.1 1.058-.118 1.136-.304 1.35-.906.45-.257.59-.13.42.007.076-.11-.272-.562.067-.203.162-.16.204-.073.933.295.717-.033.87-.176 1.88-.989.233.014.187.133.228.596.26 1.258.141.157 1.309.02.888-.458.39-.108.632.074.332-.214.35-.15.405.527.522-.253.563-.4.273-.415.383-.447.297-.567.118-.537.143-.25.318-.26.776-1.102.562-.28.53-.101 1.312.19.685-.026 1.999.145.924-.212.643-.21.949.034 1.12-.168 1.497-1.382.013-.294.092-.312.54-.308.674-.282 1.339-.675 2.725-1.068.974-.427.408.013 1.004-.268 1.76-.523.5-.65.464-.13 2.058-.116.128-.074.074-.11-.115-.47-.133-.404.159-.12.175-.185-.027-.26-.33-.842-.179-.798-.117-.72.02-.268.25-.463.323-.422 1.166-.392.772-.12.033-.256-.625-.16-.451-.256-.082-.146.02-.167.106-.152.784-.287.738-.285.901.173.179-.11.054-.287-.193-.287-.183-.47-.416-.24-.013-.288.257-.498-.355-.92-.385-.812-.655-1.39-.432-.4-.24-.641-.272-.337.027-.496.04-.35-.07-.693-.124-.75.125-.764.241-.502-.067-.192.128-.144.369-.047.175-.206-.175-.211-.635-.163-.71-.253-.855.026-.877.04-.436-.187-.382-.24-.02-.154.526-.405.732-.42 1.135-.184 1.253-.276.633-.2.843-.145.976-.06.491.04 1.256-.267 1.977-.517 1.794-.434.604-.258.449.258.207.57.522.294.52.143.297-.007.897-.222.965-.163.382.09.491.29.55.262.288-.014.252-.2.255-.407.162-.518.033-.546-.095-.334-.195-.123-.879-.198-.84-.322-.096-.294.02-.21.22-.514.548-.942.55-1.302.292-1.027.92-1.53.724-1.597 1.175-2.293.196-.453.107-.725.06-.299.409-.157.69.153 1.681.523 1.28.44.536.148.797.156 1.23.183.713-.053.625-.108.83-.007 1.3.137.403.006.498.02.356.221.177.504.27.225.484-.083 1.034-.444.66-.349.825-.505.819-.07.868-.112.302-.25.32-.59.533-.444.088-.562-.188-.396-.37-.646.013-.435-.18-1.262-.238-1.136.243-.915.43-1.021.17-.312.272-.412.385-.491.54-.155 1.52-.105 1.406-.207.718-.213.743-.128.444-.156.768-.718.364-.413.267-1.099-.196-.528.164-.466.371-.275.521-.274.35-.047.742-.083 1.218.027.624.135.63.06.4-.1.265-.207.408-.067.616-.1.632-.125.348.027.073.309-.06.242.123.324.252.214-.083.232-.356.134-.35.18-.077.248.443.309.153.296.74.177.576.2.216.19-.067.216-.266.232-.258.249-.034.15.083.174.557.116.641.193 1.02.249.698.46.692.128.334.45.06.653.71.333 1.051.462.534.085.358.263.514.318.457.1.542.046.897-.294 1.002-.027.549.168.52.637.367.201.218.18.352.17.357.027.532-.141.323-.282.465.06.174.183.086.315.245.39.59.29.82.174.118.141.112.391.223.27.3.353.283.645.06.532.133.294.38.477.607.764.485.647.56.125.477.206.273.479.504.9.082.591.04.438.165.2.034.249-.42.947-.356.427-.047.36.241.627.33.486.034.464-.282.34-.488.427-.233.243-.38.214-.578.824-.262.91-.06.47.219.34.37.373.092.325.604.723.16.449.247.013.266-.148.647-.007.59.158.564.332.606.177.866-.047.463.178.499.146 1.03.053.772-.003 1.188.006.96.223 1.686.177 1.041-.013 1.403-.167.86.105 2.54.248 1.49.26.942.292.663.463.758.724.603.33 1.621.2 1.11.845.87.315 1.462.817 1.034.319 1.234.295 2.018-.125.11.11-.154.444-.122.608v.44l.208.224.77.133.365.216.28.414.16.26.646 1.272 1.038 1.883.119.723.355.467 1.126.74.592.548.88.576.29.534.066.688.222.177 1.61-.158 1.395-.11 2.502-.198 3.447.36 3.554.347 3.142.308 1.548.15 3.498.323 1.944-.41 1.52-.322.689.047 2.905.362 1.702.195 2.145.245 1.489.09 1.219-.006.562.102.544.158.361.23 1.115 1.164.625.514 1.234.388 2.81.443 1.555.27 1.786.308 1.175.466 1.355.542 1.756.702 1.92-.307 2.068-.33 1.296-.208v1.466l1.85.117.581-.02.817.324.461-.137.435-.318.548-.502.787-.221 1.362-.563.33-.137 2.023-.798 3.018-.984 1.354-.477.405-.106.765-.243.517-.17.913-.135 1.24-.085 1.354-.186 3.064-.347.384-.034 1.721-.143.731-.135 1.093.071 1.427.047.945.089 1.257-.07 1.727-.095 1.398.014.693-.118 1.023-.367.689-.29 1.079-.353 1.338-.364.932-.332.618-.22.748-.208.197-.267.215-.206.398-.343.716-.64.544-.56.269-.247.61-.56.495-.42.632-.568.532-.183.673-.156 1.775-.557.351-.12.295-.027.627-.45.53-.389.345-.292.719-.104.37-.21.067-.275-.075-.42-.345-.43-.292-.374-1.028-.715-.545-.443-.557-.57-.225-.534-.38-.34-.183-.302.06-.349.528-.62.17-.39.219-.693.495-1.036.405-.483.467-.473.987-.634.903-.118.54.125h1.203l.8.033.591.318.655.626.738.23 2.3.49.986.105.704.02 1.038.162.351.034.532.112.44-.12.668-.419.839-.472.36-.108.668-.203.336-.192.585-.528.763-.41.927-.616.458-.464.1-.3.1-.323.289-.171.565-.156.634-.04 1.212.277 1.634-.08.368-.04 1.49-.16.672-.131.95-.127.727-.514.973-.614.708-.34.472-.068.59-.353.288-.38-.077-.334-.108-.277.346-.51.625-.898.586-.417.482-.338.309-.542.38-.156.467-.06.659-.368.484-.076.804.176 1.189.047.76.02.432-.067.157-.197-.004-.304.24-.678.09-.224.219-.102.73-.014.494.244.34.2.47.028.486-.131.652-.548 1.08-.318.574-.08 1.019-.259.643.094 1.182.075.458-.067.499.067.452-.37.36-.088.76.17.48.286.896.36 1.14.167.954-.086.982.152.58-.013.274-.142.804-.302.193-.408-.079-.393.092-.446-.236-.328-.499-.485-.192-.323-.02-.423-.31-.403-.744-.487-.492-.225-1.01-.839-.34-.197-.116-.138-.12-.281-.373-.134-.489-.219-.265-.223-.173-.388-.103-.255-.432-.21-.433-.117-.49-.15-.807-.218-.466-.434-.824-.813-.466-.273-1.737-.104-.622-.197-.706.067-.421.13-.932-.003-.484.081-.616.534-.814.696-.673.425-.478.44-.223.158-.435-.095-.597-.496-.855-.444-.792-.203-.34-.11-.944-.113-.729.034-.93.167-.908-.033-.41-.106-.577.013-1.05.461-.543.525-.642.164-.58-.344-.672-.408-.64-.51-.395-.47-.218-1.249.768-.372.98-.416.074-.658-.033-.735.193-.816.895-.753.482-.623.06-.388.43-.646.411-.68.562-.892 1.066-1.584 1.26-1.87.628-.933 1.381.577.891.3 1.504.458 1.554.103 1.486.495.767.15h.408l2.103-1.204 1.779-1.019 2.043-.794 1.501-.108 1.128-.231.755-.356.444-.595.136-.832-.3-.504-.737-.174-.19-.176.357-.178.263-.347.166-.515.426-.49.683-.462.376-.513.07-.564.411-.561.749-.56.41-.52.07-.482.38-.588 1.033-1.041.67-1.199 1.143-.821 1.836-.843 1.148-.836.458-.83-.033-.73-.532-.634-.1-.645.327-.656-.289-.49-.907-.326-1.081-.08-1.258.164-.706-.204-.155-.573.337-.463.83-.354 1.363-.86 1.9-1.368 1.888-.757 2.82-.219 2.273-.447 2.316-.456 1.671-.225.285.15.91.041 1.537-.077 1.43-.196 1.319-.315 1.044-.074.768.167z" transform="translate(-5.025 -7.123)" id="path2" />
  </g>
</svg>
