<?xml version="1.0" encoding="UTF-8" standalone="no"?>
<svg width="500" height="250" version="1.1" id="svg16" sodipodi:docname="east_asia.svg" xmlns:inkscape="http://www.inkscape.org/namespaces/inkscape" xmlns:sodipodi="http://sodipodi.sourceforge.net/DTD/sodipodi-0.dtd" xmlns="http://www.w3.org/2000/svg" xmlns:svg="http://www.w3.org/2000/svg">
  <defs id="defs20" />
  <sodipodi:namedview id="namedview18" pagecolor="#ffffff" bordercolor="#666666" borderopacity="1.0" objecttolerance="10.0" gridtolerance="10.0" guidetolerance="10.0" inkscape:pageshadow="2" inkscape:pageopacity="0.0" inkscape:pagecheckerboard="0" />
  <g style="display:inline" id="g14">
    <path style="display:inline;fill:#b5ddff;fill-opacity:1;stroke-width:.61648339;stroke-linejoin:bevel;stroke-miterlimit:4;stroke-dasharray:none;stroke-dashoffset:3.20000005" d="M.005 870.708H500v251.793H.005z" transform="translate(0 -872.52)" id="path2" />
    <path style="fill:#686868;fill-opacity:1;fill-rule:evenodd;stroke:#333;stroke-width:.5;stroke-linecap:round;stroke-linejoin:round;stroke-miterlimit:4;stroke-dasharray:none" d="M-2 870.711c.046 80.634 0 161.524 0 242.057.103.067 2.226.067 2.328 0l.433-.262c.027 0 .047-.067.067-.067.027 0 .047-.067.068-.08l-.092.302-.525.957c-.013 0-.02.067-.027.081l-.183.644c-.013.068-.02.088-.013.128l.026.275a.255.255 0 0 0 .068.135l.236.396.17 1.337c.002 0 .007.067.014.067l.183.682.145 1.062c.002 0 .007.068.013.068l.354 1.285h.013l.708 1.835-.053.564c-.003.067.002.081.013.12l.067 2.223h67.115l.853-2.578h.067l1.272-1.193c.013 0 .02-.067.027-.067l1.206-1.443.498-.396 2.99-1.482c.054 0 .098-.067.131-.107l.498-.695 1.875-1.928h.027l.97-1.285.525-.523c.013 0 .027-.067.04-.067l.394-.564c.027 0 .04-.067.053-.108l.119-.41 2.95-2.477 1.416-.787a.333.333 0 0 0 .171-.343l-.013-.094h.682l1.863-.658 2.426-.708h.026l.42-.155c.054 0 .095-.067.131-.094l.157-.167c.047-.067.076-.094.092-.155l.027-.168c.138.067.298 0 .393-.094l.46-.55c.013 0 .02-.067.027-.067l.315-.484 1.612-.918c.06 0 .113-.08.145-.14l.13-.29c.02-.066.034-.107.028-.167l-.04-.316.406-.644.564-.537c.02 0 .04-.067.053-.067l.341-.538a.337.337 0 0 0-.013-.396l-.197-.235-.275-1.403c-.002 0-.007-.067-.013-.067l-.328-.865.092-.709.564-.76.918-.853.59-.261 3.173-.721h.079l.984-.497c.026 0 .047-.067.067-.067l.839-.658c.013 0 .027-.067.04-.067.014 0 .027-.067.04-.067l.657-1.128.157-.141-.407 1.194-.275.658a.341.341 0 0 0 .067.369h.014l.445.396c.047.067.115.08.184.094l.891.08c.112 0 .22-.066.29-.127.026 0 .046-.067.066-.094l.105-.302.669.51c.08.067.187.094.288.067l.931-.302c.107 0 .19-.114.223-.221l.079-.249.013.155c.001.067.014.08.027.12l.131.276c.007 0 .02.067.04.08l.223.25a.336.336 0 0 0 .472.066l.59-.523h.014a.34.34 0 0 0 .21.127l.394.081c.04.01.079.01.118 0l.564-.094c.18 0 .309-.188.288-.37l-.067-.695c-.002 0-.007-.067-.013-.067l-.054-.154.25.302c.013 0 .026.067.04.067l.445.41c.034.067.074.067.119.08l.301.108h.17l.499-.107c.069 0 .133-.067.183-.094l.656-.672c.027 0 .047-.067.067-.08l.131-.263.014.47c.005.276.318.43.537.262l.382-.309c.034 0 .06-.067.079-.094l.21-.342.511-.235c.047 0 .085-.067.118-.081l.367-.43c.027 0 .04-.067.054-.107l.21-.564.118.302c.08.195.32.275.498.154l.367-.235-.092.276c-.013.067-.013.074-.013.107v.497a.33.33 0 0 0 .157.275l.367.235.157.181a.334.334 0 0 0 .302.094l.485-.08c.078 0 .148-.068.197-.121l.393-.47c.014 0 .027-.067.04-.067l.433-.944.498-.47a.337.337 0 0 0 .276.483l.59.067h.105l1.167-.235c.067 0 .124-.067.17-.094h.04l.342-.47c.033-.067.053-.087.067-.141l.236-1.547c.007 0 .013-.067.013-.067l.014-.631a.331.331 0 0 0-.092-.222l-.853-1.01-.21-.416-.078-.356.328.591c.013 0 .034.067.054.067l.786.84a.324.324 0 0 0 .276.094l.629-.067a.362.362 0 0 0-.092.194l-.236 2.793a.334.334 0 0 0 .104.262.333.333 0 0 0 .42.067l.708-.47c.07-.067.122-.114.144-.195l.184-.721a.3.3 0 0 0 0-.155l-.131-.564c-.007 0-.014-.067-.027-.067l-.524-1.036c-.02-.067-.054-.08-.092-.107h.288c.04 0 .084-.067.118-.067l.433-.195c.034 0 .068-.067.092-.067l.63-.604.616-.396c.02 0 .04-.067.054-.067l.275.51c.013 0 .027.067.04.067l1.062 1.325.263.617c.002 0 .007.067.013.067l.433.735c.04.067.1.114.171.141l-.013.067a.314.314 0 0 0 0 .222l.157.456.249 1.115c-.104 0-.186.107-.223.208l-.105.262c-.013 0-.02.067-.027.067l-.092.51a.3.3 0 0 0 0 .154l.118.41c.02.067.068.114.119.154a.375.375 0 0 0 0 .067l.104.827-.067.208a.34.34 0 0 0 .079.342l.196.195c.07.067.166.1.263.094h.498l.263 1.993c.013.067.033.1.067.14l.905 1.26.353.658h.014l.406.63a.346.346 0 0 0 .21.155h.013l.25.343h.026l1.521 1.64.76 1.153c.02 0 .041.067.068.067.21.175.532.067.55-.235l.054-.786.21.18.157.29h-.014l-.118.08c-.033 0-.06.068-.078.082l-.354.47a.335.335 0 0 0 .04.443l.25.235c.02 0 .046.067.078.067l.367.168h.054c-.02.067-.034.08-.04.127l-.014.578a.307.307 0 0 0 .027.154l.42.878c.02.067.053.087.092.121l.327.262c.234.181.569 0 .538-.302l-.027-.222.131.222a.33.33 0 0 0 .263.168l.406.067c.176 0 .336-.101.367-.276l.067-.315a.306.306 0 0 0-.013-.148l-.184-.645.25-.08.616.066.21.094h.04c-.027 0-.054.067-.079.067a.33.33 0 0 0-.078.249l.053.497c.005 0 .014.067.027.08l.17.47a.29.29 0 0 0 .105.155l.46.343c.229.174.556 0 .537-.29h.014c.027.068.068.095.118.128l.393.303c.014 0 .034.067.054.067l.367.18.079.182.04.168c-.07 0-.14 0-.196.067l-.17.094c-.028 0-.055.067-.08.067h-.013l-.301.329a.336.336 0 0 0-.054.37l.118.248h-.027a.314.314 0 0 0-.249-.081h-.315c-.067 0-.13 0-.184.067l-.249.18a.338.338 0 0 0-.092.444l.708 1.207c.002 0 .007.067.014.067l.72 1.075c.021.067.048.067.08.094l.459.33h-.067l-.853-.155a.236.236 0 0 0-.118 0l-.865.147c-.257.067-.38.33-.223.538l.55.72c.02 0 .04.068.067.068l.695.564a.332.332 0 0 0 .368 0l.118-.067c.033 0 .067-.067.092-.081l.183-.208c.034-.067.054-.081.067-.128l.184-.618c.007 0 .013-.067.013-.094v-.396a.331.331 0 0 0-.078-.208h.107l.866.41c.16.074.35 0 .433-.148l.223-.396c.013 0 .02-.067.027-.094l.013-.081.067.497c.003.067.014.074.027.107l.144.289a.26.26 0 0 0 .105.127l.46.316a.336.336 0 0 0-.014.383l.512.76.078.618c.007.067.02.074.04.107l1.076 2.007.42 2.478c.006.067.02.074.04.107l.42.8.17.774-.054 2.55h81.75l-1.14-3.534c-.028-.067-.055-.067-.093-.094l-.092-.067a.351.351 0 0 0 0-.08l-.118-.93.21-.397a.336.336 0 0 0-.027-.37l-.59-.72h-.027l-1.176-1.14c-.027 0-.067-.067-.105-.081l-.603-.249-.472-.342-1.154-1.206-.289-.436-.197-.457c-.013 0-.027-.067-.04-.067l-.42-.645-.067-.194c-.007 0-.013-.067-.027-.067l-.668-1.142.067-.382.433-.397c.033-.067.06-.074.078-.12l.512-1.115a.37.37 0 0 0 .04-.154l-.053-.51.157-.524c.013 0 .02-.067.027-.094l.027-.734 1.062-2.216.367-.222h.604c.083 0 .163-.067.223-.094l1.52-1.417.8-.55c.014 0 .028-.067.041-.067.027 0 .047-.067.067-.081l.367-.695a.374.374 0 0 0 .04-.208l-.118-.735 1.233-1.272a.335.335 0 0 0 .092-.315l-.054-.262.171.168c.152.134.386.1.498-.067l.407.396a.325.325 0 0 0 .263.107h.288c.088 0 .169-.066.223-.127l.079-.094c.013 0 .02-.067.027-.067l.144-.262a.37.37 0 0 0 .04-.154l.014-.121a.33.33 0 0 0-.105-.249l-.144-.127c-.034-.067-.074-.067-.119-.081l-.616-.195c-.12-.067-.252 0-.341.081l-.13.12c-.014 0-.028-.066-.041-.066l-.054-.067c.06 0 .112 0 .157-.067l.263-.128h.21c.06-.01.12 0 .17-.067l.21-.107h.144l.118.127c.047.067.104.087.17.108l.38.08c.08 0 .16 0 .223-.066l1.272-.721c.027 0 .047-.067.067-.067.04-.067.068-.094.079-.148v0h.498l-.223.342-.472.303c-.272.174-.165.597.157.617h.446c.06 0 .112 0 .157-.067l.38-.18c.06 0 .11-.068.145-.122l.21-.383a.407.407 0 0 0 .04-.167v-.343a.337.337 0 0 0-.525-.275l-.21.148.958-.84a.336.336 0 0 0 .013-.496c-.053-.067-.122-.087-.196-.094h-.197l-.223-.121.708-.208c.027 0 .054-.067.079-.067l.485-.249c.027 0 .047-.067.067-.067l.59-.524h.709l.315-.067c.284-.067.38-.41.157-.59l-.432-.356h-.013l-.709-.564c-.04 0-.082-.067-.13-.067l-.29-.067h-.182l-.761.262-.931.094-.131-.168a.339.339 0 0 0-.38-.094l-.328.127-.367-.483a.326.326 0 0 0-.249-.121l-.538-.067-.682-.443-.183-.181-.067-.302a.346.346 0 0 0-.118-.182l-.236-.195a.314.314 0 0 0-.249-.08h-.197l-.236-.155h-.067l-.538-.195h-.027l-.432-.127h-.237l.014-.604-.04-.709c-.005 0-.014-.067-.027-.094l-.131-.329c-.02-.067-.054-.094-.092-.127l-.302-.249c-.02 0-.04-.067-.067-.067l-.13-.067-.055-.14.079-.592.13-.288.171-.067c.047 0 .094-.067.131-.081l.46-.343c.02 0 .04-.067.053-.067.02 0 .04-.067.054-.08l.223-.47.289-.444a.338.338 0 0 0-.105-.47l-1.05-.631a.481.481 0 0 0-.053 0l-.55-.235h-.184l-.603.094h-.04l-.734.195h-.329l-.38-.51c-.04-.068-.088-.088-.145-.108l-.235-.094h-.092l-.55-.067h-.473c-.084 0-.164.067-.223.094l-.197.181-.275.081h-.25l-.314-.235h-.014l-.616-.41c-.027 0-.06-.066-.092-.066l-.8-.235-.054-.168c-.005 0-.013-.067-.027-.081l-.249-.396c-.013 0-.033-.067-.053-.067l-.368-.37h-.027l-.602-.483c-.014 0-.034-.067-.054-.067l-.512-.262h-.223v0c-.04 0-.074.067-.104.067l-.25.141h-.026l-.302.249-1.246.564-.564.221a.481.481 0 0 0-.053 0l-.302.168c-.027 0-.047.067-.067.067l-.249.235a.416.416 0 0 0-.105.195l-.078.59-.105.551-.275.262-.263.181h-.734l-.342.108c-.026 0-.053.067-.078.067l-.944.604h-.263l-.289-.275-.157-.235a.349.349 0 0 0-.327-.155l-.46.067c-.04 0-.083.067-.118.067l-.603.316c-.06.067-.114.087-.145.154l-.275.564c-.007 0-.013.067-.013.067l-.145.497-.053.094h-.027l-1.758-1.469h-.026l-.119-.094c-.138-.081-.313-.067-.42.067l-.34.316c-.034.067-.06.1-.067.154l-.237.645-.616-.852c-.027-.067-.07-.081-.118-.108l-.197-.107h-.393c-.068 0-.125.067-.171.094-.02 0-.04.067-.054.067l-.21.315-.458.47-.354.289a.338.338 0 0 0-.118.262l-.014.168-.262.194-.406.262-.158-.067-.34-.329-.276-.382c-.027-.067-.07-.081-.118-.108l-.721-.41h-.04l-.814-.342-.538-.262h-.078l-.315-.08h-.197l-.288.12c-.047 0-.087.067-.119.094l-.144.168c-.02 0-.04.067-.054.067l-.196.396-.472.645-.407.497-.38.329-.079.067-.04-.067c-.034 0-.067-.067-.105-.067l-.46-.195a.236.236 0 0 0-.117 0h-.682l-.446.221-.38-.47a.299.299 0 0 0-.196-.12h-.131a.187.187 0 0 0-.105 0v0h-.067l-.21.067c-.04 0-.074.067-.104.067l-.237.167c-.02 0-.04.067-.053.067-.027 0-.047.067-.068.094l-.17.397h-.027l-.144.443-.263.248-.249.128a.336.336 0 0 0-.17.396l.092.289c.013 0 .026.067.04.067l.118.235v.18a.306.306 0 0 0 0 .108l.105.43c.002 0 .007.067.013.067l.183.443c.014.067.04.067.068.094l.629.695.196.302.027.222.027 1.128-.027.456-.13.918a.375.375 0 0 0 0 .067l-.014.537a.342.342 0 0 0 .118.248l.263.236.067.066-.197.168-.105-.067h-.067l-.289-.094-.196-.107-.263-.181c-.06-.067-.132-.081-.21-.081h-.747l-.97.288h-.054l-.054-.067-.054-.221.04-.37a.322.322 0 0 0-.013-.154l-.092-.275c-.02-.067-.054-.094-.092-.128h-.027l-.04-.067.105-.577a.336.336 0 0 0-.119-.316l-.196-.154-.118-.787.013-.154a.33.33 0 0 0-.092-.276l-.067-.067c-.04-.067-.098-.08-.157-.094l-.276-.067h-.183l-.407.128h-.04l-1.233.55c-.033 0-.067.067-.092.067l-1.022.97-.394.182-.38.067-.498-.154h-.04l-.63-.121h-.157l-.813.221-.275-.067-.118-.12-.092-.142.079-.261a.354.354 0 0 0 0-.168l-.08-.29a.34.34 0 0 0-.209-.234l-.34-.141a.481.481 0 0 0-.054 0l-.302-.094-.157-.235-.067-.289.078-.47c.007 0 .014-.067.014-.067l.04-.577a.332.332 0 0 0-.067-.235l-.197-.262a.299.299 0 0 0-.196-.12l-.617-.155h-.027l-1.56-.262h-.014l-1.376-.141h-.068l-.537.067-.38-.067-.145-.067h-.013v-.094l.197-.537.222-.55.617-.827a.382.382 0 0 0 .067-.168l.04-.59a.375.375 0 0 0 0-.067l-.04-.618.275-.8.498-.618.237-.181a.336.336 0 0 0 .118-.343l-.067-.302a.278.278 0 0 0-.067-.141l-.223-.275c-.034-.067-.073-.074-.118-.094l-.302-.155a.481.481 0 0 0-.054 0l-.524-.181h-.092l-.787-.067-1.075-.168-.97-.315.092-.484a.36.36 0 0 0 0-.08l-.014-.484c-.003-.067-.013-.074-.027-.108l-.157-.41c-.013-.066-.04-.073-.067-.107l-.236-.261-.054-.094.183-.551a.357.357 0 0 0-.013-.222l-.302-.76c-.02-.067-.053-.094-.092-.127l-.34-.302-.263-.29-.014-.22.105-.263.84-.8a.341.341 0 0 0 .104-.235v-.208a.334.334 0 0 0-.354-.342h-.55l-.97.262a.35.35 0 0 0-.197-.142l-.446-.107h-.986l-1.036.067h-.067l-1.311.302a.481.481 0 0 0-.054 0l-1.206.524a.481.481 0 0 0-.054 0l-.538.356-.406.194-.236.067-.118-.067.013-.154.735-.878c.04-.067.067-.094.078-.155l.119-.658a.316.316 0 0 0-.027-.194l-.223-.51-.027-.397a.336.336 0 0 0-.092-.208l-.289-.289c-.033-.067-.082-.067-.13-.08l-.302-.108-.092-.148-.014-.774.302-.787.46-.235.34-.14c.073 0 .134-.088.17-.155l.093-.181a.318.318 0 0 0 .027-.235l-.17-.631.026-.316.315-.76.236-.41.42.081c.075 0 .149 0 .21-.067l.3-.154h.028l.327-.222c.027 0 .047-.067.067-.067l.354-.382c.02 0 .04-.067.054-.067l.236-.443c.013 0 .02-.067.026-.067l.263-.932.669.121h.21l.262-.12c.047 0 .088-.068.118-.108l.459-.604c.007 0 .013-.067.013-.067l.368-.645.472-.168h.393a.444.444 0 0 0 .237-.12l.209-.25a.337.337 0 0 0 .079-.22l-.014-.37a.33.33 0 0 0-.067-.181l-.393-.55-.119-.303.394-.12c.093 0 .17-.095.21-.182l.157-.343a.396.396 0 0 0 .026-.167l-.092-.672.237-.813c.007 0 .013-.067.013-.067l.144-1.022h.014l.04-.775v-.59l-.067-.618-.079-1.115c-.002 0-.007-.067-.013-.067l-.263-.917.04-.29a.375.375 0 0 0 0-.066l-.04-1.18a.375.375 0 0 0 0-.067l-.17-1.01a.334.334 0 0 0-.092-.168c-.027 0-.06-.067-.092-.067l-.341-.181-.643-.33h-.092l-.34-.066h-.197l-.29.12c-.092.067-.165.115-.196.209l-.092.288-.092.121-.105-.181-.21-.403-.72-1.993-.079-.551-.13-.59a.256.256 0 0 0-.08-.142l-.249-.289c-.013 0-.026-.067-.04-.067h-.027l-.223-.147-.564-.658h-.027l-.314-.302c-.04 0-.083-.067-.131-.067l-.158-.067h-.144l-.301.067h-.131l-.157-.209-.197-.382c-.02-.067-.047-.067-.079-.094l-.236-.208c-.04 0-.083-.067-.13-.067l-.408-.121h-.13l.013.067-.407.067c-.096 0-.182.067-.236.148l-.236.355-.157.195h-.014l-.315.47-.485.645-.04.067-.958-.672c-.02 0-.04-.067-.067-.067l-.472-.194h-.223l-.564.18-.904-.154a.2.2 0 0 0-.027 0h-.302l-.747-.51c-.04 0-.083-.067-.131-.067l-.328-.067h-.17l-1.167.356c-.047 0-.094.067-.131.08h-.014l-.144.149-.118-.067h.04a.405.405 0 0 0 .118-.208l.027-.182a.375.375 0 0 0 0-.067v-.067l.354-.416 1.22-1.036a.336.336 0 0 0 .078-.396l-.197-.443h-.013l-.46-.813-.066-.37a.318.318 0 0 0-.079-.168h-.04l-.197-.18a.338.338 0 0 0-.315-.082l-.603.155c-.034 0-.068.067-.092.067l-.892.564-.079-.47.184-.121.59-.289h.067l.46-.329c.053-.067.092-.087.117-.141l.118-.262a.337.337 0 0 0-.13-.41l-.131-.08c-.068-.067-.143-.074-.223-.067l-.564.08-.105-.066-.406-.672c-.014 0-.027-.067-.04-.067h-.027l-.328-.288c-.02 0-.047-.067-.079-.067l-.288-.155a.214.214 0 0 0-.276 0l-1.01.383h-.013l-1.18.524h-.027l-1.311.721a.339.339 0 0 0-.17.302v.168c-.014 0-.028.067-.041.067l-.25.235c-.013 0-.026.067-.04.067l-.196.262-.079.067h-.13l-.42-.08-.879-.357h-.027l-.97-.302h-.315l-1.049-.168c-.007 0-.013-.067-.027-.067l-.209-.342c-.02-.067-.047-.067-.079-.094l-.367-.302c-.04 0-.082-.067-.13-.067l-.355-.108c-.097 0-.198 0-.275.067l-1.01.631-1.154.47c-.033 0-.067.067-.092.067l-.668.578h-.014l-.485.497-.525.08c-.154 0-.268.162-.275.316l-.013.235-.17.208-.434.343-.905.47-.59.248-1.993.235h-.04l-.735.168c-.054 0-.102 0-.144.067l-.302.262c-.033 0-.06.067-.078.107l-.328.658h-.013l-.223.537-.498.437-.984.644-1.18.524c-.04 0-.075.067-.105.081l-.34.37c-.035.066-.055.08-.068.127l-.067.221a.337.337 0 0 0 .17.383l.092.067h.027v0l-.067.108-.708.416-.42.208-.367.12h-.42l-.38-.066-.078-.067a.272.272 0 0 0-.315 0l-.157.08-.367.095h-.354c-.06 0-.112 0-.157.067l-.748.456h-.327l-.538-.107h-.027l-.748-.094h-.237l.068-.671a.345.345 0 0 0-.131-.303l-.237-.18c-.033-.068-.082-.068-.13-.082l-.735-.195-.8-.248-.354-.248c-.02 0-.04-.067-.067-.067l-.223-.094h-.183l-.315.067c-.047 0-.093.067-.13.067l-.5.288h-.04l-.406.29h-.196l-.302-.122-.354-.208h-.092l-1.285-.316a.481.481 0 0 0-.053 0l-.577-.066h-.04l-1.01.067-.577-.067.054-.155c.007 0 .013-.067.013-.067l.079-.329a.354.354 0 0 0-.04-.235l-.093-.181a.322.322 0 0 0-.21-.155l-.865-.235h-.013l-.774-.154h-.067l-.826-.067h-.092l-.564.12h-.067l-.55.25c-.034 0-.068.066-.093.066l-.393.396-.577.182h-.027l-.787.342c-.026 0-.053.067-.078.067l-.38.316c-.014 0-.027.067-.04.067l-.564.681-.813.827-.761.813c-.02 0-.04.067-.054.08l-.367.748-.46.436-.498.356c-.053.067-.094.094-.118.155l-.21.55-.053-.067-.367-.369-.067-.416.511-1.574c.007 0 .014-.067.014-.067l.13-.682a.334.334 0 0 0-.04-.221l-.118-.222-.157-.63a.342.342 0 0 0-.13-.195l-.316-.222h-.078l-.905-.356a.236.236 0 0 0-.118 0h-.289c-.075 0-.15 0-.21.067l-.288.222-.263.127-.367.141-.984.275-.878.128h-.092l-.223.107c-.075.067-.132.115-.157.195l-.079.168h-.118l-.603-.067a.481.481 0 0 0-.054 0h-.577l-1.154.416h-.328l-.42-.067h-1.795l-.892-.107-.748-.55h-.054l-.576-.276h-.04l-.617-.195h-.04l-.498-.12-.119-.222c-.02 0-.047-.067-.078-.067l-.197-.168c-.054-.067-.115-.074-.183-.081l-.512-.067h-.13l-.407.12c-.107 0-.19.115-.223.222l-.223.722-.054.067-.34.067-.434-.168-.642-.37-.25-.396c-.026-.067-.07-.08-.117-.107l-.25-.155a.292.292 0 0 0-.327 0l-.394.209a.353.353 0 0 0-.183.288l-.013.564-.04.195-.158.067h-.04l-.157-.302h-.014l-.537-.97c-.014 0-.034-.067-.054-.081l-.55-.564c-.014 0-.034-.067-.054-.067l-.538-.383c-.054-.067-.126-.067-.197-.067h-1.783l-1.285-.108-.446-.12-.079-.128.17-.59.25-.565c.02-.067.033-.1.027-.154v-.128a.332.332 0 0 0-.237-.302l-.222-.08a.481.481 0 0 0-.054 0l-.394-.068a.236.236 0 0 0-.118 0l-1.377.37-.262-.068-.21-.094h-.04l-.25-.094-.17-.12-.144-.195c-.027-.067-.07-.094-.118-.121l-1.207-.604-.327-.302c-.014 0-.034-.067-.054-.067l-.655-.43h-.027l-.46-.235-.3-.722-.329-.8-.183-.416a.331.331 0 0 0-.17-.181l-.538-.235h-.067l-.564-.168h-.197l-.983.342-.748.262h-.394l-.734-.708-.669-.865c-.013 0-.027-.067-.04-.067l-.813-.774c-.013 0-.027-.067-.04-.067l-.525-.383c-.053-.067-.124-.074-.196-.08l-.879-.068-.983-.396-1.404-.97-1.036-.748c-.013 0-.033-.067-.053-.067l-1.744-.8-.328-.261-.131-.222-.236-.564c-.005 0-.014-.067-.027-.081l-.38-.537a.34.34 0 0 0-.21-.148l-1.272-.235h-.013l-1.43-.168h-.106l-1.509.33c-.086 0-.162.073-.21.147l-1.048 1.587-.394.275h-.184l-.249-.275-.301-.437c-.014 0-.027-.067-.04-.067l-.132-.37a.327.327 0 0 0-.17-.194l-.748-.356-.813-.443-.406-.342c-.02 0-.047-.067-.078-.067l-.486-.222h-.067l-.446-.094-.852-.302-1.01-.356h-.25l.104-.383c.014-.067.02-.094.014-.14l-.092-.497a.341.341 0 0 0-.145-.222l-.301-.208c-.067-.067-.143-.074-.223-.067l-.328.067-.93-.645v0c-.014 0-.034-.067-.054-.067h-.041l-.288-.194h-.027l-.512-.29c-.047-.066-.109-.066-.17-.066h-.946l-.538.094-.367-.222-.682-.456-.118-.094-.054-.067-.13-.094-.683-.892-.839-1.076c-.04-.066-.095-.086-.157-.107l-.42-.154h-.236l-.223.08c-.083.068-.149.101-.184.182l-.13.289h.026-.067l-.315.067c-.04 0-.084.067-.118.067l-.315.168h-.21l.068-.565a.345.345 0 0 0-.079-.275l-.079-.094.105-.288.302-.417a.336.336 0 0 0-.04-.436l-.328-.33-.328-.395-.027-.249.157-.396c.02 0 .034-.067.04-.08h.014l.013-.068.118-.416a.318.318 0 0 0-.013-.208l-.067-.168a.267.267 0 0 0-.105-.128l-.301-.248-1.167-1.246-.054-.092-.183-.38-.079-.603a.308.308 0 0 0-.013-.078l-.17-.46a.313.313 0 0 0-.014-.053l-.079-.145.538-.067.708-.067c.02 0 .034-.01.054-.013l.275-.067.054.054.092.315a.283.283 0 0 0 .027.078l.118.21c.013.02.027.04.04.054l.04.04.446.38c.007 0 .02.01.027.013l.55.367c.061.04.136.06.21.054l.525-.04c.026-.01.053-.013.078-.027l.472-.145c.07-.027.13-.07.17-.13l.354-.525.145-.067.275-.027a.337.337 0 0 0 .302-.354l-.014-.393.105-.905a.348.348 0 0 0 0-.079l-.04-.367a.382.382 0 0 0-.027-.105l-.118-.263.026-.288a.486.486 0 0 0 0-.054l-.053-.55a.35.35 0 0 0-.092-.21l-.38-.368a.28.28 0 0 0-.067-.054l-.105-.054.092-.262c.005-.013.007-.027.013-.04l.092-.433a.316.316 0 0 0-.027-.197l-.144-.367a.337.337 0 0 0-.157-.157l-.289-.157-.327-.25-.407-.34-.183-.25a.373.373 0 0 0-.054-.04l-.327-.288-.328-.368-.079-.878-.04-1.062a.323.323 0 0 0-.013-.08l-.157-.524-.223-.786.04-.131.054-.092 1.127-.63a.312.312 0 0 0 .068-.067c.005 0 .007-.01.013-.013l.25-.262c.004 0 .006-.01.013-.013a.34.34 0 0 0 .078-.157l.04-.197c.014-.04.014-.079.014-.118l-.054-.301a.321.321 0 0 0-.054-.131l-.223-.341a.331.331 0 0 0-.118-.105l-.472-.25-.668-.406-.617-.433a.348.348 0 0 0-.105-.054l-1.049-.262-1.167-.302-.196-.209-.276-.708c-.004 0-.007-.01-.013-.013l-.512-1.194-.564-1.258c-.007-.01-.02-.02-.027-.027l-.367-.722-.027-.236.25-.905a.352.352 0 0 0 .013-.144l-.054-.21a.336.336 0 0 0-.223-.262l-.223-.08a.322.322 0 0 0-.197-.012l-.433.13c-.013 0-.026.01-.04.014l-.236.104-.131-.04-.197-.104-.054-.054a.338.338 0 0 0-.301-.092l.054.04c-.027.01-.054.013-.079.027l-.695.354-.84.433-.996.511-.878.46-.827.42-.524.274-.144-.288-.17-.328-.342-.682-.315-.59-.459-.918-.315-.604a.323.323 0 0 0-.17-.157l-.263-.104-.616-.328-.302-.197-.067-.603a.337.337 0 0 0-.393-.301l-.341.078c-.014.004-.027.007-.04.014l-.761.262-.853.17h-.367l-.013-.013-.263-.694a.397.397 0 0 0-.078-.119l-.21-.223a.328.328 0 0 0-.17-.104l-.394-.079-.354-.118-.078-.079v-.027l.104-.17.197-.21c.06-.06.1-.138.105-.223l.04-1.429a.333.333 0 0 0-.013-.105l-.157-.511-.119-.433a.209.209 0 0 0-.04-.079l-.327-.524a.368.368 0 0 0-.04-.054l-.29-.328a.284.284 0 0 0-.078-.067l-.46-.301a.203.203 0 0 0-.053-.027l-.708-.328a.229.229 0 0 0-.067-.013l-.63-.118a.312.312 0 0 0-.156 0l-.643.21-.263-.827a.342.342 0 0 0-.092-.13l-.196-.198a.365.365 0 0 0-.145-.092l-1.35-.393c-.02-.006-.034-.013-.054-.013l-.616-.092a.335.335 0 0 0-.119 0l-.695.13h-.026l-.276.079-.196-.118c-.007-.005-.02-.007-.027-.014l-.512-.222c-.013-.005-.027-.007-.04-.014l-.498-.157a.38.38 0 0 0-.092-.013l-.617-.014h-.027l.014.027a.31.31 0 0 0-.054.014l-.223.053-.144-.118-.04-.04-.42-.276.76-.327.709-.197c.013-.004.027-.007.04-.013l.197-.079.078.092c.04.047.096.085.157.105l.486.17c.054.02.104.02.157.014l.144-.027c.116.054.253.04.354-.04l.157-.105.577-.289a.21.21 0 0 0 .054-.027l.472-.34a.373.373 0 0 0 .053-.041l.263-.275a.336.336 0 0 0 .079-.341l-.145-.433a.327.327 0 0 0-.118-.171l-.747-.538c-.007-.005-.02-.007-.027-.013l-.42-.25-.013-.013.092-.42.17-.55a.327.327 0 0 0-.027-.262l-.118-.21a.208.208 0 0 0-.027-.054l-.092-.118-.053-.524a.381.381 0 0 0-.027-.105l-.328-.747a.455.455 0 0 0-.054-.079l-.301-.367-.079-.486-.013-.459.393-.787a.329.329 0 0 0 0-.275l-.157-.38a.347.347 0 0 0-.092-.144l-.472-.328a.237.237 0 0 0-.078-.04l-1.548-.603c-.013-.005-.027-.007-.04-.014l-1.587-.407a.38.38 0 0 0-.092-.013l-.59.013-.354-.026a.323.323 0 0 0-.236.078l-.446.354a.259.259 0 0 0-.078.092l-.184.315-.118.013-.577-.17-.327-.21-.263-.511-.249-.774a.568.568 0 0 0-.04-.067l-.067-.118v-.014l.067-.078.354-.145a.332.332 0 0 0 .183-.183l.078-.184a.318.318 0 0 0 0-.223l-.067-.223a.314.314 0 0 0-.104-.17l-.328-.263-.328-.367-.459-.695.067-.328c.005-.007.007-.02.014-.027l.092-.655a.344.344 0 0 0 0-.078v-.054l.249-.054h.027l.72-.183a.327.327 0 0 0 .145-.079l.328-.288c.02-.02.04-.04.054-.068l.222-.301a.277.277 0 0 0 .068-.118l.04-.184a.286.286 0 0 0 0-.183l-.223-.722a.334.334 0 0 0-.067-.13l-.21-.25-.013-.013.067-.079.04-.04.184-.328.013-.013.341-.643.302-.353.092-.054.367-.092 1.036-.118a.31.31 0 0 0 .054-.014l1.14-.301a.263.263 0 0 0 .092-.04l1.351-.905.394-.223.498-.105h.38a.329.329 0 0 0 .288-.144l.068-.105c.07-.1.08-.231.026-.341l-.209-.446.054-.04.027-.014.826.263c.04.013.078.013.118.013l.721-.04h.04l.879-.17a.263.263 0 0 0 .092-.04l1.797-.945h.053l.027.027.183.472.25 1.233c.013.06.04.112.078.157l.145.157a.34.34 0 0 0 .249.105l1.298.026a.347.347 0 0 0 .17-.04l.853-.446.288-.078.577.067a.338.338 0 0 0 .21-.054l.315-.197.079-.04.249.328c.1.127.276.166.42.092l.511-.25a.208.208 0 0 0 .054-.026l.564-.407a.35.35 0 0 0 .092-.092l.249-.393.38-.433a.606.606 0 0 0 .04-.067l.302-.564c.013-.027.02-.054.027-.079l.104-.485.092-.157.263-.223a.558.558 0 0 0 .079-.067l.72-1.036.447-.21.42-.092 1.258.184a.324.324 0 0 0 .079.013l.656-.027 1.98.131c.034.006.07.006.105 0l.918-.21c.013-.004.027-.007.04-.013l.577-.183.891.027c.02.002.047.002.067 0l1.115-.171a.338.338 0 0 0 .184-.092l1.495-1.377a.325.325 0 0 0 .105-.236l.013-.25.04-.144.407-.223.656-.275c.007-.004.02-.007.026-.013l1.325-.669 2.701-1.062a.49.49 0 0 0 .014 0l.905-.407.34.013a.36.36 0 0 0 .093-.013l1.01-.263 1.77-.524a.327.327 0 0 0 .17-.118l.42-.564.328-.092 2.019-.131a.33.33 0 0 0 .157-.04l.118-.079a.325.325 0 0 0 .118-.092l.068-.118c.06-.08.076-.18.053-.275l-.118-.472v-.027l-.054-.145.158-.183c.067-.07.1-.166.092-.262l-.027-.263a.32.32 0 0 0-.014-.078l-.327-.827-.17-.76-.106-.669.014-.157.197-.38.249-.315 1.036-.354.747-.118a.337.337 0 0 0 .275-.289l.04-.249a.337.337 0 0 0-.248-.367l-.577-.157-.263-.144.617-.223.013-.014.643-.249.813.157c.08.014.164.002.235-.04l.184-.118a.341.341 0 0 0 .145-.223l.067-.289a.347.347 0 0 0-.054-.249l-.17-.249-.171-.433a.333.333 0 0 0-.144-.17l-.263-.158v-.013l.402-.06a.33.33 0 0 0 .026-.276l-.367-.93a.42.42 0 0 0 0-.014l-.393-.813-.656-1.39a.312.312 0 0 0-.067-.105l-.38-.354-.21-.564a.373.373 0 0 0-.053-.092l-.197-.236.027-.353.04-.342a.377.377 0 0 0 0-.067l-.066-.695c-.004-.007-.007-.02-.014-.027l-.118-.695.118-.656.223-.472a.3.3 0 0 0 .027-.17l.13-.027a.339.339 0 0 0 .224-.118l.17-.21a.336.336 0 0 0 0-.42l-.17-.209a.328.328 0 0 0-.17-.105l-.63-.157-.695-.249c-.04-.013-.077-.027-.118-.027l-.852.027h-.014l-.8.04-.34-.144-.068-.04.223-.183.655-.368 1.076-.184h.027l1.245-.275c.014-.004.027-.007.04-.013l.604-.184.8-.145.931-.067.472.04a.333.333 0 0 0 .105-.013l1.246-.262h.013l1.98-.525 1.797-.433a.31.31 0 0 0 .053-.013l.446-.197.197.118.17.446a.349.349 0 0 0 .145.184l.524.301c.027.014.054.02.079.027l.511.145a.53.53 0 0 0 .105.013l.289-.013a.32.32 0 0 0 .079-.014l.878-.21.892-.156.262.078.446.263c.007.005.02.007.027.013l.55.263c.048.027.103.04.158.04l.288-.013a.344.344 0 0 0 .197-.079l.25-.197a.259.259 0 0 0 .078-.092l.262-.406c.014-.027.02-.054.027-.079l.17-.511a.324.324 0 0 0 .014-.079l.027-.55a.333.333 0 0 0-.013-.105l-.092-.341a.345.345 0 0 0-.145-.183l-.196-.131a.309.309 0 0 0-.105-.04l-.852-.197-.67-.25-.026-.078.013-.092.184-.446.537-.918c.007-.013.02-.027.027-.04l.55-1.311c.006-.014.008-.027.014-.04l.276-.984.904-1.482c.006-.02.014-.034.014-.054l.721-1.587 1.167-2.294.014-.014.196-.46c.014-.026.02-.053.027-.078l.105-.721.013-.105.145-.053.576.118 1.666.524 1.272.433c.007.005.02.007.027.014l.537.144c.014.005.027.007.04.013l.788.157h.026l1.22.184a.344.344 0 0 0 .079 0l.708-.067h.04l.603-.105.774-.013 1.285.144h.432l.406.013.17.118.145.394a.37.37 0 0 0 .105.144l.262.223a.332.332 0 0 0 .276.079l.485-.092a.32.32 0 0 0 .079-.014l1.023-.446c.013-.004.026-.007.04-.013l.669-.354h.013l.76-.472.735-.067a.42.42 0 0 0 .013 0l.879-.105a.304.304 0 0 0 .17-.078l.302-.25c.005-.003.007-.006.013-.013.027-.027.047-.06.067-.092l.29-.524.485-.407.013-.013a.356.356 0 0 0 .105-.197l.078-.55a.316.316 0 0 0-.027-.197l-.183-.407-.013-.013-.328-.564.013-.341a.376.376 0 0 0 0-.067l-.193-1.248v-.027l-.223-1.049.21-.813.42-.996.144-.276.249-.393.327-.394.394-.118 1.482-.104h.04l1.403-.21h.054l.695-.21.721-.13a.31.31 0 0 0 .054-.014l.446-.157a.305.305 0 0 0 .118-.067l.773-.721c.005-.007.007-.02.014-.027l.367-.407a.29.29 0 0 0 .079-.144l.262-1.102a.329.329 0 0 0-.013-.197l-.157-.406.092-.262.275-.197.446-.236.289-.04.708-.079 1.167.027.59.131a.37.37 0 0 0 .105 0 .496.496 0 0 0 .027 0l.629.067c.04.003.08-.002.118-.013l.393-.092a.334.334 0 0 0 .131-.067l.197-.157.328-.054.616-.092a.49.49 0 0 0 .013 0l.59-.118.302.013h.054l.774-.013a.286.286 0 0 0 .13-.027l.354-.144a.54.54 0 0 0 .079-.067l.236-.197.55-.223a.335.335 0 0 0 .171-.17l.131-.29a.292.292 0 0 0 .027-.13v-.433l.223-.29.852-.117a.42.42 0 0 0 .014 0l.315-.054.34.054a.362.362 0 0 0 .093 0l.603-.067.511-.027.263.118c.02.006.033.013.054.013l.432.131a.38.38 0 0 0 .092.014l.564-.014a.344.344 0 0 0 .249-.118l.197-.223a.29.29 0 0 0 .078-.144l.027.013.145.145c.04.04.09.067.144.078l.249.067c.06.02.124.02.184 0l.682-.196c.013-.004.027-.007.04-.014l.472-.21c.083-.033.15-.1.183-.183l.119-.34.067-.041.21.054a.38.38 0 0 0 .091.013h.656a.33.33 0 0 0 .17-.054l.512-.315.643-.236.485-.118a.344.344 0 0 0 .223-.183l.105-.223a.36.36 0 0 0 0-.289l-.197-.393.027-.25.446-.196.84-.04a.32.32 0 0 0 .078-.014l.669-.21a.33.33 0 0 0 .223-.209l.144-.446.157-.078.275-.067.8-.092c.034 0 .06-.005.092-.014l.564-.236.341-.092.984-.301.892-.068a.31.31 0 0 0 .157-.053l.393-.25a.21.21 0 0 0 .079-.04l.249-.249.42-.092a.302.302 0 0 0 .078-.027l.524-.275.656-.328.237-.04 1.14-.197.446-.067.237-.067.472.027a.335.335 0 0 0 .301-.157l.157-.289.38-.196.446-.079a.348.348 0 0 0 .183-.105l.237-.235.406-.29.564-.156.97-.027.97.04h.054l.59-.078a.349.349 0 0 0 .21-.092l.486-.512a.362.362 0 0 0 .078-.118l.092-.237.04-.092.068-.013.353.301c.014.007.027.02.04.027l.407.25c.013.006.027.02.04.026l.577.25.289.222a.324.324 0 0 0 .183.079l.367.027a.33.33 0 0 0 .17-.027l.394-.184a.366.366 0 0 0 .131-.131l.197-.315.315-.054.367.054.04.054.027.157c.014.04.027.083.054.118l.262.394c.034.047.072.08.119.104l.629.341a.38.38 0 0 0 .17.04l.8-.026c.02.002.047.002.067 0l.276-.067.734.053.76.079.84.079h.013l.25.013.89.04 1.312.067h.027l.55-.026 1.01.092.119.144.196.642.17.656.068.512a.32.32 0 0 0 .105.223l.315.275c.04.04.09.067.144.079l.315.078.197.17.026.028.42.262.301.394a.336.336 0 0 0 .29.13l.405-.026a.357.357 0 0 0 .092-.027l.237-.079.564-.027.721.014.406.183.157.223c.04.06.093.105.157.13l.446.171a.3.3 0 0 0 .17.027l.342-.053h1.062l.302.013.327.144c.04.014.077.027.118.027l.55.027a.335.335 0 0 0 .21-.054l.236-.17.866-.144a.292.292 0 0 0 .104-.054l.472-.263.263-.013.21.105.196.183a.336.336 0 0 0 .302.079l.353-.092a.327.327 0 0 0 .145-.08l.092-.078h.13l.263.092h.054l.734.184.525.327c.047.034.1.047.157.054l.445.027a.343.343 0 0 0 .079 0l.564-.105.118-.027.157.105a.24.24 0 0 0 .092.04l.367.105a.323.323 0 0 0 .25-.027l.222-.118.394-.067 1.692.17.353.29c.02.013.04.026.068.04l.275.144.223.249c.027.034.067.06.105.079l.485.209a.31.31 0 0 0 .157.027l1.01-.067a.348.348 0 0 0 .144-.054l.394-.223.826-.472a.303.303 0 0 0 .105-.092l.262-.38.289-.105.406-.053h.42l.459-.014a.33.33 0 0 0 .17-.053l.512-.315.406-.105a.263.263 0 0 0 .092-.04l.669-.446a.303.303 0 0 0 .105-.092l.118-.197.327-.498.197-.315.341-.498c.027-.034.04-.076.054-.118l.17-.8.105-.42a.286.286 0 0 0 0-.183l-.092-.289a.314.314 0 0 0-.196-.224l-.394-.157a.237.237 0 0 0-.079-.04l-.445-.068-.368-.196-.249-.21-.157-.315c-.004-.007-.007-.02-.013-.026l-.21-.368v-.223a.333.333 0 0 0-.013-.104l-.067-.25a.313.313 0 0 0-.092-.157l-.223-.21-.014-.012-.393-.354-.105-.131.04-.237.46-.708a.35.35 0 0 0 .054-.144l.04-.315.067-.197a.352.352 0 0 0 .013-.144l-.027-.118.105-.276.183-.13c.034-.027.068-.054.092-.092l.276-.42.301-.157h.472a.32.32 0 0 0 .157-.054l.237-.13a.34.34 0 0 0 .157-.21l.105-.433.222-.328h.014l.144-.236.25-.21 1.861-.537a.305.305 0 0 0 .119-.067l.8-.695a.205.205 0 0 0 .053-.054l.275-.34a.537.537 0 0 0 .054-.093l.289-.695.118-.13.17.04.446.393c.06.054.142.08.223.079h.315l.512.222c.007.005.02.007.027.014l1.547.498c.014.005.027.007.04.013l.84.158h.053l.512.053.63.118.405.263c.007.005.02.007.027.013l.892.486a.32.32 0 0 0 .105.04l.76.118c.02.006.034.014.054.014l1.324.04 1.574.027.406.078 1.154.342 1.298.393 1.22.341.905.275.512.223c.02.014.04.027.067.04l.524.145c.054.02.105.02.157.013l.524-.118.643.027 1.652.302 1.05.249v.013l.812.17.119.119.013.144-.092.223a.316.316 0 0 0-.013.157l.067.734a.32.32 0 0 0 .067.171l.236.315.092.446.092.42-.067.432a.335.335 0 0 0 .04.197l.131.263c.034.06.083.112.145.144l.21.118.13.144-.04.158-.105.17a.29.29 0 0 0-.04.183l.027.328a.33.33 0 0 0 .118.236l.315.276a.323.323 0 0 0 .183.078l.46.054.327.054.446.38c.02.013.033.02.053.026l.918.499c.02.02.047.04.079.053l.538.131.616.223c.02.006.034.014.054.014l1.206.209c.014.005.027.007.04.013l.774.068.38.13.42.394a.328.328 0 0 0 .197.078l.747.092.472.131c.014.005.027.007.04.014l.918.17c.04.014.079.014.119.014l.603-.105c.013-.004.026-.007.04-.013l.472-.131.289.027.681.092h.04l.8.026a.362.362 0 0 0 .068-.013l.669-.092a.355.355 0 0 0 .118-.04l.538-.302c.007-.004.02-.007.026-.013l.577-.38.682-.183.84-.079a.36.36 0 0 0 .066-.013l.577-.157 1.915-.263.787-.054a.385.385 0 0 0 .104-.027l.604-.262.498-.197.695-.078 1.01.196 1.023.184c.02.007.047.013.067.013l1.18.067.76.236.565.236c.02.007.047.013.067.013l.904.184a.38.38 0 0 0 .092.014l1.01-.092 1.351-.079.84.092.891.407.524.315.63.695c.026.034.053.06.091.079l.695.354h.014l.603.301c.04.02.086.027.13.027l.774.04 1.889.027 1.023.144.013.014.748.067-.054.289a.344.344 0 0 0 0 .078l.027.708-.014.328a.328.328 0 0 0 .067.21l.197.262.014.013c.053.054.12.094.196.105l.118.027.092.183a.347.347 0 0 0 .158.17l.432.211c.013.005.027.007.04.013l.722.236 1.272.84c.013.006.026.02.04.026l.774.367c.026.014.053.02.078.027l.616.131c.034.004.06.004.092 0l.787-.078h3.331l1.403.249.486.17a.23.23 0 0 0 .067.014l1.482.21 1.639.222 1.377.236a.305.305 0 0 0 .17-.013l.76-.289.604-.027.603.197.656.328a.3.3 0 0 0 .17.027l.484-.027h.04l.787-.157a.31.31 0 0 0 .054-.014l2.53-.93.814-.316.537.079c.04.007.08.007.118 0l.551-.131h.013l.407-.092 1.049-.144.642-.054h.014l.668-.079.97-.053a.299.299 0 0 0 .08-.027l1.953-.59.735-.119 1.311.17c.034.005.06.005.092 0l.734-.117a.32.32 0 0 0 .079-.014l.721-.301.931-.315a.332.332 0 0 0 .197-.17l.236-.499.42-.603.957-.485h.014l.839-.446.852-.433 1.023-.354.984-.262a.298.298 0 0 0 .078-.027l1.246-.682.97-.341.42-.092.524.104c.014.005.027.007.04.014l1.128.092h.04l.774-.027.394.067.891.341.774.275.604.486.04.04 1.193.735c.014.007.027.02.04.026l.617.25c.02.005.034.013.054.013l.42.105a.324.324 0 0 0 .078.013l1.062.078h.013l.866.04c.04.004.08-.001.118-.013l.525-.17v-.014l.865-.301 1.35-.38.46.013.866.197 1.298.38.459.25.315.314c.034.034.074.06.118.079l1.377.576c.007.005.02.007.027.014l.878.301h.014l1.508.46a.324.324 0 0 0 .078.013l1.508.105 1.443.472c.013.005.027.007.04.013l.774.157c.02.002.047.002.067 0h.406a.33.33 0 0 0 .157-.04l2.112-1.207 1.757-1.01 1.967-.76 1.456-.105c.013-.004.026-.007.04-.013l1.128-.223a.302.302 0 0 0 .078-.027l.76-.354a.347.347 0 0 0 .12-.104l.445-.603a.36.36 0 0 0 .067-.145l.13-.826a.348.348 0 0 0-.04-.235l-.3-.499a.34.34 0 0 0-.21-.157l-.328-.078.21-.276a.336.336 0 0 0 .053-.104l.145-.446.353-.394.643-.445a.558.558 0 0 0 .079-.068l.38-.524a.362.362 0 0 0 .067-.144l.053-.498.342-.446.708-.512a.284.284 0 0 0 .067-.079l.42-.524a.34.34 0 0 0 .078-.157l.054-.407.327-.498 1.01-1.023.014-.013c.013-.014.026-.034.04-.054l.629-1.14 1.062-.748 1.81-.84a.208.208 0 0 0 .054-.027l1.14-.839a.338.338 0 0 0 .105-.105l.46-.839a.376.376 0 0 0 .04-.17l-.04-.735a.346.346 0 0 0-.08-.196l-.458-.564-.079-.446.289-.564a.347.347 0 0 0-.014-.315l-.288-.498a.33.33 0 0 0-.184-.145l-.905-.327a.38.38 0 0 0-.092-.014l-1.075-.078a.376.376 0 0 0-.067 0l-1.193.157-.46-.131-.078-.236.196-.262.735-.315c.02-.007.047-.014.067-.027l1.364-.865h.013l1.876-1.351 1.796-.721 2.767-.21c.013-.004.027-.007.04-.013l2.269-.446 2.308-.46 1.56-.196.184.092c.047.027.094.04.144.04l.918.04h.027l1.534-.078h.027l1.43-.197c.013-.004.026-.007.04-.013l1.285-.302.97-.078.722.157c.02.007.047.013.067.013l.433.014.301.013h.184a.29.29 0 0 0 .131-.027l.223-.092.76.21 1.68.695c.013.005.026.007.04.013l1.062.315c.053.02.104.02.157.013l.34-.067.342.131.472.433a.383.383 0 0 0 .105.067l.642.276c.027.013.06.02.092.027l1.115.118 1.115.498c.04.013.077.027.118.027l.472.027a.34.34 0 0 0 .262-.105.456.456 0 0 0 .04-.067l.105-.183.276-.105.602-.027.932.236 1.298.537c.013.005.027.007.04.014l.826.236c.054.02.105.02.157.014l.263-.054.197.054.13.118.014.092-.054.078a.333.333 0 0 0 .079.42l.315.275c.06.054.141.08.223.079h.327l.46.092.406.406c.02.034.047.054.078.079l.407.196.183.131.013.027h-.013l-.144.197a.337.337 0 0 0-.068.13l-.053.224a.325.325 0 0 0 .067.288l.21.25a.329.329 0 0 0 .17.104l.682.17.105.068.026.118a.371.371 0 0 0 .068.144l.236.263c.02.027.047.047.078.067l.46.275.013.027v.014c-.07.12-.06.27.027.38l.157.17c.027.034.054.06.092.079l.092.054.04.301.014.263a.338.338 0 0 0 .13.249l.302.223.067.498c0 .033.005.06.014.092l.301.708c.013.04.04.074.067.105l.931.944.25.393-.08.498a.335.335 0 0 0 .041.197l.118.289c.04.084.119.146.21.17l.047.115.067.078-.027.263c-.005.08.02.159.067.223l.157.222.067.119-.067.275a.329.329 0 0 0 .014.197l.144.353c.013.047.04.094.078.131l.171.158.118.288.092.446c.007.06.034.111.067.157l.643.774c.013.007.027.02.04.027l1.18 1.049.682.76.21.473v.288l-.197.289a.35.35 0 0 0-.054.183l-.013.276c-.002.1.04.197.118.262l.013.013.145.105v.027l-.054.197a.338.338 0 0 0 .092.354l.394.34c.02.02.047.041.078.054l.97.446-.34.617c-.014.026-.02.06-.027.092l-.145.642a.307.307 0 0 0 0 .105l.067.682a.32.32 0 0 0 .054.157l.328.485a.37.37 0 0 0 .13.118l.551.263.263.21.104.235a.34.34 0 0 0 .158.157l.695.341c.02.006.033.014.053.014l1.246.354a.324.324 0 0 0 .079.013l1.6.067h.053l1.928-.236 1.115-.04.249.091-.068.145a.333.333 0 0 0 .131.42l.328.209a.35.35 0 0 0 .144.054l.761.092.446.157.249.249c.04.047.097.076.157.092l.367.078a.367.367 0 0 0 .17 0l.38-.118.316.014.354.144c.06.027.13.04.196.027l.276-.054a.334.334 0 0 0 .13-.067l.145-.118h.262l.184.013.145.263c.027.047.069.09.118.118l.38.25c.047.033.1.046.157.053l.446.04.721.486 1.626 1.495c.02.02.047.04.079.053l1.062.538a.35.35 0 0 0 .105.054l1.062.17h.054l1.154.04.209.29-.236.432a.309.309 0 0 0-.04.104l-.093.525a.34.34 0 0 0 .157.34l.237.158.38.55c.027.04.067.07.105.093l.485.301.067.183a.33.33 0 0 0 .079.092l.17.184-.078.367-.472.813a.371.371 0 0 0-.054.223l.13.734c.02.08.068.15.132.197l.734.577.38.485.105.485a.33.33 0 0 0 .04.105l.197.341a.354.354 0 0 0 .144.131l.276.118c.047.027.102.04.157.04l.8-.053h.053l1.285-.197.879.027.564.25c.04.02.086.026.13.026l1.535.014h.054l2.44-.25 1.507-.078.603.092a.35.35 0 0 0 .236-.04l.577-.368a.316.316 0 0 0 .067-.067.373.373 0 0 0 .04-.054l.473-.76.314-.263.302.04a.335.335 0 0 0 .144-.026l.695-.263c.02-.007.047-.013.067-.026l.931-.551.748-.25.996.028 1.115.04a.355.355 0 0 0 .118-.04l.708-.223a.412.412 0 0 0 .092-.067l.63-.472 1.075-.42 2.413-.564.524-.078.236.026.774.079.656.21.55.367.027.092-.04.235-.092.131-.249.21a.285.285 0 0 0-.067.078l-.263.407c-.07.1-.08.231-.026.341l.17.315.013.014.394.668c.004.014.007.027.013.04l.315.486.237.367-.014.027c-.007.014-.02.027-.027.04l-.196.368-.617.616-.34.25-.316.196-.59.054c-.013.004-.027.007-.04.013l-.289.054a.31.31 0 0 0-.054.013l-.315.105a.312.312 0 0 0-.104.067.373.373 0 0 0-.054.04l-.183.21-.197.144c-.007.004-.02.007-.027.014l-.393.34a.327.327 0 0 0-.105.21l-.04.302a.328.328 0 0 0 .026.157l.158.406.053.223-.301.275a.285.285 0 0 0-.067.079l-.341.616-.105.183c-.005.014-.007.027-.013.04l-.171.473-.013.013-.054.17a.481.481 0 0 0 0 .054l-.105.892-.38.59-.603.76a.336.336 0 0 0-.068.302l.145.446.067.275-.067.079a.318.318 0 0 0-.054.13l-.04.184-.067.289-.079.053-.512.25a.372.372 0 0 0-.092.053l-.327.315a.338.338 0 0 0-.105.289l.054.38-.118.288-.197.302-.197.17-.327.131h-.04l-.25.131a.338.338 0 0 0-.144.17l-.21.46c-.013.027-.02.054-.027.079l-.04.301-.157.315a.323.323 0 0 0-.027.25l.067.209-.053.092-.446.17v.014l-.276.104-.262.054a.293.293 0 0 0-.105.054l-.55.34a.316.316 0 0 0-.067.068c-.027.027-.047.06-.068.092l-.485 1.167a.606.606 0 0 0-.04.067l-.105.682a.41.41 0 0 0 0 .131l.079.367-.472.263h-.014l-.367.223-.17-.079h-.014l-.341-.105a.481.481 0 0 0-.054 0l-.76-.13-.38-.092-.774-.197h-.027l-1.233-.25-1.22-.288h-.013l-.76-.157-.564-.105-.38-.17-.341-.315a.335.335 0 0 0-.354-.067l-.38.144a.342.342 0 0 0-.131.092l-.302.367-.511.223a.328.328 0 0 0-.157.131l-.263.46-.197.3-.576.434-.223.157-1.141.301c-.013.004-.027.007-.04.014l-.223.092-.918.067a.332.332 0 0 0-.105.04l-.341.145a.455.455 0 0 0-.079.053l-.353.302-.014.013a.443.443 0 0 0-.078.131l-.092.302a.339.339 0 0 0 .067.301l.223.301.367.59.157.394.249.84h.013l.813 2.517-.196.328a.337.337 0 0 0-.067.13l-.263 2.007a.368.368 0 0 0 0 .105l.079.315-.04.538v.026l.026.407a.325.325 0 0 0 .067.21.31.31 0 0 0 .105.078l.17.092.145.092.04.067-.027.223-.092.223c-.005.007-.007.02-.013.027l-.183.537v.014l-.223.695-.223.249c-.005.007-.007.02-.013.027l-.171.223-.157.144a.32.32 0 0 0-.092.223l-.014.512-.04.144-.249.079a.31.31 0 0 0-.054.013l-.327.17-.394-.067a.354.354 0 0 0-.092 0l-.433.04a.31.31 0 0 0-.053.014l-.525.131-.957.17a.362.362 0 0 0-.067.014l-.564.223a.208.208 0 0 0-.054.027l-.275.157a.234.234 0 0 0-.067.054l-.184.183a.34.34 0 0 0-.092.183l-.04.183a.335.335 0 0 0 .13.328l.131.092c.047.034.1.06.157.067l.446.079.197.183.013.027-.183.105a.336.336 0 0 0-.144.433l.183.406c.02.04.047.075.079.105l.406.38.158.196.026.21c.007.08.047.154.105.21l.197.17a.335.335 0 0 0 .38.04l.289-.157a.324.324 0 0 0 .144-.13l.695-1.325a.338.338 0 0 0-.054-.394l-.327-.341.76.157c.04.007.08.007.118 0l.486-.078.852.118a.336.336 0 0 0 .263-.067l.576-.486a.285.285 0 0 0 .068-.078l.275-.42.59-.301a.349.349 0 0 0 .118-.105l.813-1.14 1.35-1.352.42-.301.512-.17-.197.196a.308.308 0 0 0-.078.105l-.223.511a.335.335 0 0 0 .315.46h.538a.32.32 0 0 0 .092-.014l.55-.157a.208.208 0 0 0 .079-.04l1.377-.84c.02-.013.04-.026.053-.04l.119-.104-.21 2.255a.335.335 0 0 0 .394.367l1.101-.17.55.223c.04.02.087.027.132.027l.8-.027.957.511a.32.32 0 0 0 .223.027l.38-.067.288-.013.315.432.04.04c.04.04.091.068.145.079l.682.17c.068.02.142.02.21 0l1.114-.445 1.665-.42.787-.013a.416.416 0 0 0 .118-.027l2.02-.787c.02-.007.047-.013.067-.027l.957-.629 3.567-1.652c.014-.007.027-.02.04-.027l1.495-.892 1.417-.669a.324.324 0 0 0 .118-.092l.84-1.023 1.455-.983a.34.34 0 0 0 .144-.25l.04-.353.237-.393 2.242-2.636.669-.394 1.01-.327a.348.348 0 0 0 .144-.092l.446-.486a.392.392 0 0 0 .067-.104l.249-.617 1.324-.983a.568.568 0 0 0 .067-.04l.945-1.037.865-.656.04-.04.04-.04.407-.55 2.255-1.47c.014-.006.027-.02.04-.026l1.85-1.64 1.73-1.193a.368.368 0 0 0 .054-.04l.027-.027.538-.721 2.256-2.151.013-.013a.284.284 0 0 0 .067-.079l.656-1.338.774-.485a.34.34 0 0 0 .144-.197l.341-1.298.695-.918a.336.336 0 0 0 .054-.105l.183-.538.328-.459 2.74-2.164a.285.285 0 0 0 .068-.078l1.115-1.679 1.324-1.626.944-.564c.007-.004.02-.007.027-.013l1.049-.774.04-.04.538-.577 1.56-.944c.014-.007.028-.02.04-.027l.775-.669c.033-.02.053-.047.078-.078l.38-.682a.24.24 0 0 0 .04-.092l.342-1.6.983-1.22a.336.336 0 0 0-.027-.445l-.04-.04-.223-.158-.079-.196.068-.29.13-.222a.24.24 0 0 0 .04-.092l.093-.38.21-.394.183-.262a.383.383 0 0 0 .067-.105l.59-1.77c.014-.04.014-.079.014-.118l-.04-1.115a.329.329 0 0 0-.079-.183l-.25-.341-.012-.328.695-.695.17-.118a.343.343 0 0 0 .118-.157l.079-.197a.331.331 0 0 0-.079-.367.371.371 0 0 0-.118-.068l-.354-.144-.053-.04-.368-2.61.276-1.587.8-1.193a.237.237 0 0 0 .04-.078l.157-.433c.013-.027.02-.06.027-.092l.105-1.101.944-1.141a.284.284 0 0 0 .067-.079l.564-1.285 1.233-.669a.45.45 0 0 0 .078-.053.42.42 0 0 0 0-.014l.826-.852.682-.38a.454.454 0 0 0 .079-.054.325.325 0 0 0 .092-.196l.118-.814.603-.747a.336.336 0 0 0-.054-.485l-.512-.368c-.02-.013-.04-.027-.067-.04l-.511-.236-.984-.603-.078-.157.576-.577a.338.338 0 0 0 .092-.17l.131-.696a.324.324 0 0 0 .014-.078l-.067-1.26a.335.335 0 0 0-.236-.3l-1.089-.368-.656-.446 1.063.276a.32.32 0 0 0 .235-.027l.997-.55a.342.342 0 0 0 .092-.08l.485-.59a.336.336 0 0 0 .08-.301l-.198-.721a.335.335 0 0 0-.236-.25l-.997-.262-1.206-.708-.027-.131a.34.34 0 0 0-.223-.25l-2.098-.668-2.177-1.377-.669-1.193a.343.343 0 0 0-.078-.092l-.42-.341a.456.456 0 0 0-.067-.04l-2.111-1.023-.393-.315a.337.337 0 0 0-.131-.067l-.603-.145a.264.264 0 0 0-.145 0l-2.544.55-1.363-.156-2.728-.682a.333.333 0 0 0-.25.04l-.262.145a.336.336 0 0 0-.092.498l.302.393-.067.367a.368.368 0 0 0 0 .105l.104.643-.144 1.088-.223.748-.918 1.075-.301.157-.512.067.524-.38.027-.027 1.089-.97a.34.34 0 0 0 .105-.25v-.865a.335.335 0 0 0-.237-.315l-.275-.092a.38.38 0 0 0-.092-.013h-.223a.294.294 0 0 0-.131.027l-.774.34a.348.348 0 0 0-.144.119l-.787 1.14-1.901.788-1.377.275-2.61.144 1.285-.485a.37.37 0 0 0 .145-.105l.787-.97.839-.223a.327.327 0 0 0 .144-.079l.328-.288a.336.336 0 0 0-.183-.59l-1.39-.158-.918-.354-.158-.092.394-.157a.455.455 0 0 0 .078-.053l1.036-.853a.336.336 0 0 0-.196-.59l-.945-.054a.481.481 0 0 0-.053 0l-.997.054a.385.385 0 0 0-.105.027l-1.586.669a.324.324 0 0 0-.119.092l-.301.367a.335.335 0 0 0 .027.46l.512.485a.374.374 0 0 0 .118.067l.223.078-.407.813-.669-.13a.354.354 0 0 0-.092 0l-.892.053a.355.355 0 0 0-.157.079l-.433.289-.236-.068-.157-.564.275-.773a.23.23 0 0 0 .013-.067l.276-1.915.301-.616a.438.438 0 0 0 .04-.131l.027-.735a.287.287 0 0 0-.04-.144l-.17-.406a.335.335 0 0 0-.302-.197l-.55-.027h-.04l-.893.079h-2.321l-2.532.197-2.727-.722h-.04l-.719-.118-.289-.092-.196-.472.092-.262.13-.17.656-.407zm430.656 0a.335.335 0 0 0 .262.354l.341.067a.38.38 0 0 0 .092.014l.827-.092.353.196c.054.027.111.04.171.04l.577-.013a.342.342 0 0 0 .262-.144l.302-.42zm4.078 0-.223.223a.307.307 0 0 0-.078.105l-.276.682a.331.331 0 0 0 .079.367.33.33 0 0 0 .236.092l.302-.013a.416.416 0 0 0 .118-.027l1.062-.46.236.171.878 1.128a.335.335 0 0 0 .328.118l.407-.067a.321.321 0 0 0 .092-.027l.46-.223c.013-.007.026-.02.04-.027l.511-.34.577-.25a.412.412 0 0 0 .092-.067l.223-.223a.44.44 0 0 0 .078-.13l.145-.473.433-.485.196-.079zm36.338 3.292.013.013.014.014a.341.341 0 0 0-.276.196l-.157.341-.249.276-.301.118-1.39-.014a.336.336 0 0 0-.237.564l.879.892.013.014 1.325 1.167.144.315-.105.38-.249.498a.353.353 0 0 0 0 .327l-.367.067a.337.337 0 0 0-.197.105c-.007.014-.02.027-.027.04l-.288.434a.334.334 0 0 0 .092.459l.223.157-.145.236-.55.196-.289.04-.236-.013-.866-.485c-.02-.014-.047-.02-.067-.027l-.249-.079a.295.295 0 0 0-.17-.013l-1.194.262a.279.279 0 0 0-.105.04l-.747.447a.376.376 0 0 0-.118.13l-.197.328a.343.343 0 0 0-.054.197l.105 1.35a.299.299 0 0 0 .027.08l.21.602-.119 1.56-.34 1.522-.342.629-.42.629a.336.336 0 0 0-.053.105l-.144.576a.38.38 0 0 0-.014.092l.054 2.282a.32.32 0 0 0 .054.157l.353.59a.34.34 0 0 0 .105.105l.184.118-.092.027a.336.336 0 0 0-.13.564l.327.302c.02.02.04.04.067.053l.656.38.852.709.525.564.72 1.285v1.324l-.353.656-.027.027-.315.774c-.006.02-.013.033-.013.053l-.236.984a.354.354 0 0 0 0 .092l.027.774a.38.38 0 0 0 .027.104l.472 1.325.054.577-.067 4.288-.21.826-.289.84c-.005.012-.007.026-.013.04l-.301 1.547-.25.669-.76 1.468a.324.324 0 0 0-.027.21l.04.315c.007.033.02.072.04.104l.158.315c.007.02.013.034.027.054l.878 1.18.669 1.18.289 1.731-.17.603-.46.577a.205.205 0 0 0-.027.054l-.406.721c-.005.013-.007.027-.014.04l-.34.76c-.014.041-.028.078-.028.119l-.013.289a.481.481 0 0 0 0 .053l.144 1.325a.32.32 0 0 0 .014.067l.21.669.13.616-.157.63-.957 2.229c-.014.026-.02.06-.027.092l-.25 1.626a.356.356 0 0 0 .014.157l.577 1.849.079.538a.297.297 0 0 0 .026.078l.21.498c.02.047.047.085.078.118l.368.341.027.027.42.302c.14.099.332.076.445-.054l.486-.55c.007-.014.02-.027.026-.04l.407-.59a.412.412 0 0 0 .026-.08l.643-1.783.289-.656.367-.603.42-.538.576-.327.289-.079.223.027.275.197.302.315c.027.033.067.06.104.078l.237.092c.033.02.076.034.118.04l1.442.08 1.443.209.328.38.104.695a.32.32 0 0 0 .014.067l.315.865.078 1.26c.02.312.416.433.604.183l.21-.276a.235.235 0 0 0 .04-.078l.13-.315c.014-.027.02-.054.027-.079l.054-.367.092-.315.472-.84a.29.29 0 0 0 .04-.182l-.013-.302a.376.376 0 0 0 0-.067l-.263-1.128c-.004-.007-.007-.02-.013-.027l-.367-1.193a.298.298 0 0 0-.079-.13l-.249-.263a.328.328 0 0 0-.17-.105l-.42-.092a.376.376 0 0 0-.067 0l-.446-.014a.481.481 0 0 0-.054 0l-.485.068-.131-.171-.577-1.01-.55-1.455c-.007-.02-.014-.047-.027-.067l-.446-.682c-.007-.014-.02-.027-.027-.04l-.236-.263a.205.205 0 0 0-.054-.054l-.275-.21a.237.237 0 0 0-.079-.04l-.393-.144-.302-.197-.46-.524-.576-.931-.118-.289-.067-.892.17-1.18.499-1.128 2.15-4.498c.006-.02.014-.033.014-.053l.353-1.194.434-.511.773-.38.918-.184 2.321-.13.525.013.957.21.498.17.46.236 1.035.905c.014.007.027.02.04.027l.853.564.8.604.498.459.328.84c.013.046.04.093.078.13l.276.263c.22.205.578.04.564-.263l-.04-1.206a.416.416 0 0 0-.028-.119l-.144-.34a.342.342 0 0 0-.092-.132l-.538-.433-.027-.027-1.114-.734-.564-.8-.433-.826-.21-.774v-.04l-.275-.787a.208.208 0 0 0-.027-.053l-.38-.735-.616-1.547a.21.21 0 0 0-.027-.054l-1.534-2.57-.525-1.469-1.35-4.944a.33.33 0 0 0-.145-.196l-.249-.17-.013-.014-.04-.603v-.04l-.08-.46a.327.327 0 0 0-.078-.144l-.275-.341a.286.286 0 0 0-.079-.067l-.564-.368-.078-.184-.027-.695a.416.416 0 0 0-.027-.118l-.302-.695c-.007-.013-.02-.027-.026-.04l-.368-.603-.21-.84.105-1.69.144-.46.302-.17a.373.373 0 0 0 .053-.041c.034-.02.054-.047.079-.078l.21-.342a.741.741 0 0 0 .04-.067l.183-.564a.324.324 0 0 0 .013-.078l.079-.577a.376.376 0 0 0 0-.067l-.079-1.757a.362.362 0 0 0-.013-.067l-.236-1.154c-.004-.014-.007-.027-.014-.04l-.183-.565-.013-.013-.014-.013-.236-.538c-.007-.014-.02-.027-.027-.04l-.852-1.286-1.05-1.81a.34.34 0 0 0 .014-.3l-.145-.355.08-.38.248-.446a.202.202 0 0 0 .027-.053l.118-.38a.296.296 0 0 0 .014-.17l-.067-.368a.356.356 0 0 0-.079-.157l-1.442-1.705-.04-.04a.277.277 0 0 0-.119-.067l-.446-.131a.292.292 0 0 0-.13-.027zm30.922 64.033-.446.21a.412.412 0 0 0-.092.067l-.617.603a.325.325 0 0 0-.092.196l-.078.525-.97.577a.342.342 0 0 0-.092.078l-.276.354a.336.336 0 0 0-.053.105l-.25.721a.336.336 0 0 0 .499.393l1.298-.813.669-.144a.314.314 0 0 0 .196-.118l.302-.367zm-7.973 2.57a.32.32 0 0 0-.21.131l-1.101 1.47-.263.117a.368.368 0 0 0-.105.079c-.007.013-.02.027-.027.04l-.236.328-.485.406a.331.331 0 0 0-.105.118l-.131.328-.472.42-1.35.839a.331.331 0 0 0-.119.118l-.236.406c-.04.067-.054.147-.04.223l.091.498a.328.328 0 0 0 .145.223l.787.486a.335.335 0 0 0 .511-.223l.184-1.05 1.062-.563c.027-.014.047-.034.067-.054l.8-.721a.307.307 0 0 0 .078-.105l.145-.302 1.232-.878.315-.118.787-.079a.32.32 0 0 0 .157-.054l.853-.576h.433c.1.002.197-.04.262-.118l.354-.446a.336.336 0 0 0-.289-.538l-1.337.092-.905-.446a.285.285 0 0 0-.144-.04l-.643-.014a.376.376 0 0 0-.067 0zm4.8 4.289c-.014.004-.028.007-.041.013l-1.364.315a.343.343 0 0 0-.223.184l-.054.105c-.013.04-.026.077-.026.118l-.04.38a.338.338 0 0 0 .236.354l.498.157c.113.04.238.013.327-.067l.17-.145 1.155-.38c.2-.068.29-.301.184-.485l-.105-.17a.366.366 0 0 0-.13-.132l-.394-.21a.318.318 0 0 0-.157-.04h-.04zm-3.463 1.403a.33.33 0 0 0-.105.04l-.17.092a.455.455 0 0 0-.079.054l-.067.054a.336.336 0 0 0 .131.576l.105.04c.02.007.033.014.053.014l.29.027a.362.362 0 0 0 .104 0l.17-.04a.335.335 0 0 0 .25-.472l-.068-.119a.331.331 0 0 0-.235-.196l-.118-.027-.157-.027a.229.229 0 0 0-.068-.014h-.04zm-2.82 1.285c-.006.004-.02.007-.026.013h-.119a.337.337 0 0 0-.289.341v.04c.003.113.06.216.157.276v.013l.054.079c.067.122.203.19.341.17l.092-.013.144-.013h.079a.339.339 0 0 0 .223-.118c.007-.004.02-.007.027-.014v.014a.335.335 0 0 0 .367.236l.092-.014a.353.353 0 0 0 .092-.026l.17-.079.119-.054a.373.373 0 0 0 .053-.04l.092-.067a.336.336 0 0 0 0-.538l-.078-.078a.336.336 0 0 0-.328-.04l-.262.104a.21.21 0 0 0-.054.027l-.144.092a.557.557 0 0 0-.079.067.355.355 0 0 0-.079-.157l-.067-.079a.336.336 0 0 0-.288-.118l-.105.013h-.054l-.027-.013a.288.288 0 0 0-.104-.027zm.224.184.026.013v.04a.21.21 0 0 0-.026-.053zm1.036.183.026.079-.026.013zm-1.01.21v.092h-.092l-.067-.067.067-.014zm1.075 0 .054.17-.054.04-.054-.04v-.144zm-372.635 134.61.04.195-.13-.154c.033 0 .067-.067.092-.067zm.682 3.357.054.108-.105-.081h.054zm5.14 1.404c-.07 0-.136.067-.183.107l-.118.12c-.04.068-.067.095-.079.155l-.183.826a.353.353 0 0 0 .027.249l.38.644c.027.067.068.094.118.128l.289.168a.337.337 0 0 0 .353 0l.315-.209a.335.335 0 0 0 .145-.342l-.054-.289c-.002 0-.007-.067-.013-.067l-.171-.436h-.013l-.263-.578c-.007 0-.013-.067-.027-.067l-.197-.275a.335.335 0 0 0-.288-.148h-.04zm-18.673 4.34h.144l.014.067-.315 1.718-.157-.591zm21.742 1.626.027.067h-.04zm99.585 5.6h.067l-.027.066zm-92.438 5.14a.344.344 0 0 0 .105.195c.013 0 .034.067.054.067l-.184.235-.118-.107c-.027 0-.06-.067-.092-.067zm3.869 2.046.067.067c.06.067.132.081.21.081h.13l-.236.37c-.027.066-.047.08-.054.127zm-54.212.168h.131l.118.067.014.342-.145.081c-.06 0-.112.081-.144.141l-.092.209c-.013 0-.02.067-.027.08l-.42-.127a.197.197 0 0 0-.262 0l-.63.342.21-.342zm54.894 2.938.288.18.027.095z" transform="translate(0 -872.52)" id="path4" />
    <path style="fill:#fff;fill-opacity:1;fill-rule:nonzero;stroke:#333;stroke-width:.5;stroke-linecap:round;stroke-linejoin:round;stroke-miterlimit:4;stroke-dasharray:none" class="polygon" d="m255.584 1105.594.332.296.218.43.181.796.107.733-.678.463-.606.188-1.218 1.79-.254.565-.208.235-.067.248.027.249-.314.861-.28 1.058-.177.437-.348.335-.442.168h-.288l-.262.094-.641.578-.724.436.12.201.008.188-.317.209-.353-.067-1.02.167-.375.323-.383.597-.146.081-.614.141-.472.067-.8-.423-.398-.127-1.059-.168-1.029-.289-.722-.322-1.482-.8-.172-1.443-.255-.78-.013-.275.097-2.4.104-.261.188-.228.654-.537.751-.423 1.075-.888.78-.403.655-.584h-.383l-.283-.074.279-.497.299-.268.345-.148.693.107.642-.1.474-.444.45-.093 1.711.147 1.187-.201.595-.41h.28l.877.114.325.423-.027-.282.04-.275h.161l1.146.524.004-.645.067-.168.358-.268.18.01.443.524.433.302zm-3.382-7.394.25.235.666-.161.121.295-.005.141-.235.343-.55-.262-.55.067h-.396l-.11-.161.304-.336zm15.165-3.67-.659.142h-.138l.228-.35.596-.234zm.983.256-.128.134-.195-.242-.054-.349-.14-.188.321-.235.145-.262.382.067.158.08-.335.269-.08.114zm5.137-8.073.054.31-.524-.47h-.15l-.25-.175-.146-.296h.406l.374.356zm31.071-11.36-.225.402-.396-.067-.013-.288-.08-.087.108-.269.073-.074.449.228zm10.997-6.45-.498.308-.311-.148-.006-.416.158-.376-.182-.269.179-.322.372-.094.13.202.21.107.067.107.002.209-.199.349.157.188zm9.605-17.655-.585.161h-.22l.014-.49.48-.464.194.155.111.241zm6.185-10.693-.027.128-.573-.437-.276-.074.132-.248.385-.067.304.55zm1.553-1.433-.067.31-.178-.068-.24-.55.129-.135h.34zm-.725-.476-.097.134-.83-.383-.899-.08-.31-.343-.054-.53h.948l1.167.483.254.248zm-2.909-10.265-.552.195-1.749-.578-1.232-.63-.736-.769-.105-.315.858.067.84.275.186.423.34.134.23.249 1.555.57.237.175zm10.923-147.96.304.02.168-.002.322-.133.894.238 1.704.708 1.071.314.44-.076.48.197.522.469.65.277 1.168.128 1.158.515.468.027.165-.288.432-.166.699-.04 1.01.254 1.322.551.83.243.336-.068.356.103.286.259.027.318-.097.171.318.27h.367l.598.128.468.476.421.22.294.191.054.159.027.16-.088.124-.16.205-.047.22.201.248.744.18.253.184.054.237.233.262.506.303.193.253-.118.204.149.17.25.133.053.483.02.279.408.312.084.64.285.707.962.97.316.526-.081.626.137.292.439.143.208.264-.027.387.172.24.137.256-.094.398.138.36.224.209.16.388.089.485.642.767 1.194 1.05.73.816.267.581.002.478-.262.376-.013.273.234.17.07.232-.094.292.39.347 1.308.601-.523.922-.137.649.07.682.325.48.577.28.358.292.141.304.693.331 1.244.36 1.595.06 1.945-.235 1.19-.04.436.155.148.236-.14.316.33.208.798.1.551.2.3.299.37.084.436-.13.425.02.413.167.27-.06.232-.182h.376l.385.004.24.44.387.246.535.054.816.534 1.641 1.522 1.067.54 1.07.17 1.328.034.43.591-.346.625-.09.521.302.187.416.613.589.356.111.281.274.315-.115.584-.504.852.137.728.78.603.448.58.117.558.195.34.274.12.8-.04 1.326-.203.973.033.62.273 1.535.007 2.448-.251 1.547-.078.645.098.575-.36.503-.816.472-.384.44.047.7-.262.96-.572.833-.278 1.055.027 1.122.027.704-.24.662-.502 1.144-.443 2.442-.579.587-.09.28.033.813.09.721.226.683.456.105.292-.077.383-.149.222-.281.25-.264.406.17.318.396.678.324.49.36.576-.162.209-.217.4-.668.678-.365.26-.392.253-.678.06-.29.061-.326.107-.206.24-.235.169-.386.338-.033.292.176.433.087.445-.438.397-.34.61-.1.183-.17.462-.047.16-.107.973-.437.664-.61.773.134.461.108.427-.151.207-.034.181-.09.412-.192.157-.554.258-.333.31.07.47-.17.408-.255.36-.267.235-.381.15-.256.128-.191.46-.06.354-.18.353.111.362-.196.312-.544.219-.308.128-.286.054-.544.338-.488 1.164-.11.678.11.602-.682.378-.509.3-.317-.109-.337-.101-.775-.13-.386-.088-.783-.196-1.25-.25-1.219-.29-.765-.153-.603-.12-.459-.2-.385-.356-.382.145-.355.42-.591.25-.269.462-.236.355-.612.474-.273.195-1.2.322-.27.107-.977.069-.331.141-.346.3-.093.297.243.314.38.628.177.43.261.849.87 2.67-.283.46-.262 2.003.06.362-.027.562.014.413.18.102.233.143.12.242-.033.37-.12.27-.185.537-.244.776-.269.3-.178.236-.154.164-.02.549-.1.363-.423.128-.421.21-.5-.078-.437.047-.543.141-.975.163-.566.218-.27.159-.187.19-.034.183.13.096.546.075.376.343.053.376-.386.214-.192-.236-.323-.075-.601-.33-.437-.363-.329-.403.014-.858-.054-.128-.598-.176-.178-.256-.284-.122-.404.078-.305-.082-.24-.14-.288-.02-.25.222-.13.475-.419.79-.04.478-.182.682-.179.865-.147.18-.47.028-.16.053-.244.295-.294.047-.261-.172-.411-.172-.388-.02-.35.172-.41.374-.235.303-.083.283-.067.35-.415.335-.379.175-.782.494-.25.205-.562.003-.61-.02-.82.133-1.34.068-.802-.1-.99.094-.773.162-.11.24.026.357.155.233.19.156.32.48.334.463.511.3.212.323.013.3-.241.377-.367.494-.342.304-.256-.013-.393-.178-.266-.222-.634-.084-1.55.142-.776-.1-.37-.18-.65-.014-1.004-.242-.611-.077-.29-.156-.053-.355-.29-.244-.16-.293-.366-.367-.35-.184-.344-.078-.378.223-.4.2-.3-.047-.144.053-.165.166-.643.342-.153.313-.257.663-.178.682-.155.241-.262.04-.266.205-.558.642-.504.59-.733.4-.345.366-.177.333-.522.466-.766.084-.61.135-.375.034-.268.188-.195.287-.095.114h-.345l-.344.244-.844.555-.688.103-.863.37-.758.282-.316.158-.084.175-.111.222-.367.047-.355-.013-.788.51-.4.434-1.554.924-.633.52-.165.672-.081-.054-.554.587-1.086.559-2.32.125-.734-.398-.266.274-.205.367-.609.123-.952.034-.532.242-.285.27-1.305.088-.478.36-.812.128-3.392 1.576-.737.664-.7.775-.49.39-.44.272-.4.112-.392.269-.397.034-.406-.123-.453.04-.299.326.253.423-.138.18-.89.23-1.324.152-.563.277-.194.157-.294.08-.281-.548-.1-.722.547-.174.504-.091 2.797-.997-.35-.748.247-.326.627-.53.406-.261-.221-.096-1.833.174-1.053-.013-.538-.054.163-.452-.09-.452-.128-.169.933-.514.424-.127.322.007-.02-.31-.268-.468.29-.604 1.904-.71.456-.643.765-.6 1.397-1.494.083-.254.407-.7.074-.278-.646-.41-.258-.573-1.89-1.033-.161-.887-.177.04-.288.622-.244.199-.875.02-.415-.235-2.435-.153-.595.4-.557.622-.542.443-.544.228-.474.404-1.958 2.404-.74.182-3.48 1.453-1.742.57-1.342 1.008-.462.61-.41.676-.246 1.026-1.238 1.247-.425.267-.434.11-.576-.041-.497.078-.846-.11-1.037.394-1.169.342-1.007-.86-.718-.212-1.176.238-.544.382-1.128 1.89-.422 1.084.026.445.66 1.35.743.755 1.666.861 3.548.595.831-.212.892-.002.94.563.588.932.054.637.02.22.213.186.127.322-.374.267-.286.132-.241.989-.014 1.094.306.363.763.51 1.179.422 1.09.09 2.087-.203.852-.66-.054-.285.02-.369 1.833-.968 1.045-.857-.164-.227-.2-.151.184-.088.573-.06 2.55-.893 2.008.73 1.145.84 1.132.142.787.429.906.367 1.183.027.996.076.304-.338.312-.223.356.047.4.444 1.132.342 1.044-.02.732-.125.435.159-.629.57.094.919-.482.29-.462.468.274.308.241.132-.026.375-.421.212-.78.557-.448-.013-.214-.108-.152-.2-.11-.32-.275-.21-.757-.081-.785.075-1.766.827-1.722.658-1.807.523-.606.33-.429.09-.748-.25-.454.013-.096.172.577.459.15.36-.06.276-.327.122-.476-.203-.434.289-.197.487-.007 1.157-.29.258-.795.143-.848.368-.3-.17-.122-.208.089-.532-.106-.26-.386.013-.583.16-.445.35-.154.21.586.681.56.068.134.154-.441.332-1.104.495-.182.415-.327.397-.45.316-.306.333-.374.174-.61.194-.747.798-.55.748-.65.384-.516 1.26-.92.684-.339 1.094.24.674 1.01-.01.506.237 1.048.886 1.254.578 1.303.325 1.596.82.438.347.376.705.692 2.032.497 1.006.034.526.744.991.798 1.705.917 1.478.177 1.163-.298.532.001.69.918.632 2.037.737.325.217.398.357.02 1.112.315.356.267.215 1.233.47.516.389.547.624.16.558.067.758h-.69l-.555-.087-2.208-.985h-.574l-.81.135-1.157-.182-1.22-1.09-.881-.33-.943-.167-2.256.938-.573-.067-.166.108-.256.16 1.046.202 1.046-.309 1.005-.456 1.466.241.247.41.238.692 1.005.47.792.208 1.003.611.981.958 2.08 1.112.84 1.054.326.68.292.97-.728.316-.633.067-.99.155-.73.342-.732.604-2.097.95-.398.59-.274.518-.51.255-1.286-.242h-1.21l-1.372.7-.342.282.228-.067.215-.094.618.108.953-.376.932 1.14 1.82-.18 1.712-.948h.662l.554.148.619.376 1.646 1.662.902.181.887.39.49.067.44.114-1.189.61-1.539 1.316-.684.316-.46.349 1.237-.175.883-.631.443-.154.358.147.182.775-.34 2.387-.431.067-.421-.651-.492-.208-.413.134h-.821l-.313.295-.265.417.491.087.967.724.099.39-.26.248-.678-.108.822.538-.217.564-.267.221-.478.141-.295.484.422.807.43 1.038.054.496-.672-.214-1.043.63-.553.068-.372-.833-.478.127-.317.242-.423.894-.517.808-.443.221-.534-.067h-.439l.107.215.466.269v.309l-.992.986-.16.383.027.322-.52.396.28.665-.145.47-.455.63-.478.417-.564.676-.711.39-.941 1.416-.276.708-.072.733-.294.255-.505.322-.574-.161-.02-.49-.249-.067-.142-.323-.04-.41.06-.328-.239.1-.147.383-.378.31-.396-.128-.425-.256.013.363.226.37.098.369.59.08.394.424.311.644.06.242.243.289.034.248-.563.228-.702.43-.843.732-.699.49h-.627l-.38-.066-.544-.282-.622-.115.835.987.458.175.576-.067.558-.37.791.068.198.57-.21.645-.431.834-.09.721.535 1.033.02.308-.2.155-.628-.275-.52-.343-.523.087-.542-.147-.557.12-.227.235.155.396.498.33.282.503-.336.175-1.416-.121-.316.094-.424.55.277.82-.313.51-.584.121-.77.41-.473.094.02.181.346.181.184.242-.417.837-.65.276-.996-.135-.783.188-.677-.356h-.721l-.491.45-.054.524-.476.067-.257-.067h-.364l.04.282.208.248.975.108.177.356.033.544-1.02.937-.434.63h-.657l-.495.505-.266.688-.33-.134-.757.108-.223.329.178.134.02.235-.304.773-.33.215-.142-.315-.106-.49-.268-.068-.442.45-.516.323-.44.134-.334-.302-.82-.155-.334 1.3-.681.477-.319.148-.555.067.355.174.11.336-.199.336-.555.067-.323.261-.124 1.163-.33.41h-.84l-.63-.27-.2.215-.105.209-.328.208-.637.067-1.413.517-.646-.148-.775-.195-.533.195-.178.396-.243.309h-.778l-.622-.383-.632-.275-.7.242-.533.49-.656.161-.121.302-.286.155-.695-.067-.264-.755-.4-.114-.395.382-.14.296-.184.228.067.618h-.39l-.51-.376-.534-.067-.5.349-.255-.087-.268-.074h-.439l-.167.094-.32.067-.215.195h-.02l-.566-.128-.69-.51-.496-.849-.627-.456-.279-.403-.108-.722-.115-.342.04-.383.19-.336-.677.168-.5.316.102.396-.125.369-.744.195.047.154.047.161.586.504.12.423.234.228.459.658-.014 1.275.251.363-.083.356-.183.483-.014.01-.132-.148h-.22l-.089.161-.013.148h-.034l-.387.108-.324.094-.266.127-.412.383-.788.094-.404-.893-.541.597-.164 1.216-.201.208-.336.175-.64-.423-.558.282-.435.289-.179.268-.32.289-.615-.282-.493-.416.122-.316-.068-.208-.222-.154h-.245l.12.41.082.78-.223.228-.346.175-.75-.141-.511-.289-.618-.248-.545-.067-.118.49-.355.396-.328.067-.326-.067-.43.43-.204.315-.53.33-1.412.16-.492.33-.661-.068-.513.081h-.293l-.265-.174h-.297l-.135.55-.797.229-.718.067-.799.72-.57.437-.423.067-.31-.154-.158-.645-.158-.074-.09.604-.154.504-.292.275-.924.631-.265.625.177.577 1.242.141.155.316-.121.255-.298.215-.088.322 1.333 1.03.04.39-.206.221-.251.477-.704.41-1.488.207-1.24-.208-.375-.463.02-.329.307.094h.351l-.104-.302-.147-.175-.573-.268-.464-.723.09-.604-.255-.463-.276-.39-.279-.235-.149-.288.281-.912-.155-.53.53-.652.13-.732.95-.262.067-.7h-.68l-.47-.516-.108.215h-.379l-.622-.99-.187-.127h-.301l.151 1.044-.728.389-.597.175-.848.074-.482.12-.45-.1.111-.316.238-.376-.213-.315-.478-.242h-.73l-.507-.067h-.501l-.186-.141-.466-.49-.394-.31-.178-.301.178-.356-.149-.215h-.764l.007.51.078.598.223.456-.158.256-.388.174-.413-.483-.19-.121h-.2l-.151.483-.376.423-.676-.067-.525.262-.636.12-.431-.348-.714-.57-.288-.068-.794.275-1.139.108-.254-.296-.553.222-.53-.683-.629-.067-.784-.517-.281-.275-.09-.39-.238-.208h-.307l-.34-.208-.54-.208-.435-.12-.213.093-.23.067-.04-.262.014-.794-.04-.705-.12-.315-.29-.242-.266-.114-.116-.363.095-.711.214-.483.34-.087.46-.35.234-.49.295-.456-1.05-.638-.551-.228-.61.094-.758.201-.397.067-.199-.08-.439-.578-.238-.101h-.537l-.453.01-.26.248-.401.081h-.4l-.408-.315-.611-.41-.961-.288-.116-.33-.244-.396-.365-.362-.602-.484-.505-.255-.245.155-.334.275-1.298.584-.574.228-.305.162-.257.241-.079.598-.128.671-.374.343-.354.255h-.737l-.34.107-1.042.672-.493-.067-.403-.382-.173-.276-.466.067-.6.323-.276.577-.147.537-.13.242-.2.067h-.179l-1.865-1.556-.114-.081-.333.322-.304.825-.217.161-.148-.067-.772-1.056-.197-.1h-.176l-.23.342-.49.503-.375.31-.007.342-.406.302-.473.302h-.157l-.315-.121-.408-.396-.297-.416-.732-.41-.822-.35-.547-.274-.31-.067-.29.12-.144.168-.206.41-.493.675-.438.537-.41.343-.325.235-.241-.222-.45-.181h-.531l-.696.342-.549-.683h-.142l-.21.067-.242.161-.17.383-.176.523-.35.343-.29.154.085.296.165.322-.014.282.105.443.182.443.65.72.247.376.047.322.02 1.156-.027.484-.129.932-.007.537.27.242.262.288-.007.155-.115.067-.372.322-.157.067-.243-.127-.315-.101-.253-.128-.279-.208h-.663l-1.089.316-.225-.087-.157-.175-.085-.362.054-.43-.097-.275-.203-.162.143-.768-.388-.303.054-.094-.13-.829.021-.201-.069-.067-.274-.067-.406.127-1.237.544-1.06 1.009-.488.221-.492.094-.575-.174-.639-.114-.912.255-.45-.114-.208-.209-.184-.315.11-.396-.068-.296-.365-.147-.423-.128-.251-.383-.102-.416.1-.544.047-.584-.203-.268-.62-.148-1.562-.262-1.37-.148-.575.067-.468-.067-.271-.107-.131-.181-.007-.262.222-.605.253-.59.635-.858.033-.59-.033-.686.315-.916.548-.686.27-.215-.067-.302-.22-.282-.312-.155-.518-.18-.809-.068-1.11-.181-1.284-.41.146-.78-.02-.49-.159-.403-.263-.282-.147-.255.23-.698-.298-.762-.353-.302-.364-.397-.027-.423.167-.396.889-.85.007-.207h-.475l-1.215.309-.129-.195-.435-.114h-.887l-1.04.067-1.313.302-1.203.53-.55.363-.468.228-.378.074-.437-.161.027-.517.821-.955.118-.658-.251-.564-.027-.45-.29-.289-.404-.14-.213-.323-.014-.937.362-.964.587-.302.356-.148.095-.188-.182-.675.027-.43.352-.83.35-.631.66.108.296-.155.327-.221.358-.376.24-.45.29-1.044.2-.154.832.174.25-.12.456-.611.429-.745.623-.228h.45l.208-.249-.014-.362-.427-.578-.181-.463.054-.282.612-.168.15-.336-.092-.733.253-.88.15-1.032.047-.77-.006-.592-.06-.617-.087-1.125-.28-.978.053-.37-.04-1.185-.172-1.011-.345-.175-.64-.329-.348-.067-.294.121-.11.35-.282.328-.347-.08-.165-.33-.223-.43-.742-2.043-.081-.591-.13-.584-.251-.296-.265-.174-.592-.687-.312-.289-.152-.067-.325.067-.32.001-.261-.342-.238-.417-.24-.208-.4-.114-.412.067-.24.363-.164.208-.31.483-.504.665-.228.248-.222-.127-.969-.695-.468-.195-.634.208-.993-.167h-.384l-.826-.558-.337-.067-1.174.363-.26.255-.152.01-.313-.128-.258-.167-.013-.108.317-.268.027-.188-.013-.195.458-.544 1.244-1.055-.207-.444-.49-.87-.068-.423-.21-.188-.597.154-1.24.79-.168-.087.027-.275-.128-.796.393-.242.602-.295.465-.33.108-.261-.125-.081-.686.1-.27-.18-.445-.732-.328-.289-.297-.154-1.009.376-1.173.517-1.306.722.007.369-.156.094-.25.235-.243.322-.208.114h-.243l-.497-.094-.902-.362-.98-.302h-.21l-1.33-.215-.04-.168-.2-.336-.378-.302-.362-.1-1.04.644-1.175.483-.67.57-.55.565-.63.107-.027.35-.266.315-.48.39-.95.49-.642.262-2.044.241-.73.168-.304.262-.327.658-.26.604-.565.504-1.028.671-1.209.544-.33.363-.061.214.149.081.147.162.002.248-.157.269-.79.47-.443.221-.442.141h-.496l-.476-.067-.131-.074-.19.094-.434.1h-.378l-.83.518h-.459l-.568-.114-.753-.087-.542-.001-.013-.275.084-.822-.244-.195-.754-.201-.844-.269-.408-.282-.227-.094-.316.067-.51.302-.486.35h-.382l-.391-.162-.375-.215-1.282-.302-.575-.067-1.025.067-.837-.067-.132-.094.005-.167.124-.33.072-.322-.098-.181-.856-.228-.78-.161-.83-.067-.558.114-.544.255-.45.456-.653.202-.777.342-.378.322-.569.684-.827.84-.754.818-.39.797-.516.503-.523.363-.377.994-.396-.316-.454-.45-.107-.618.544-1.649.127-.68-.135-.261-.168-.671-.319-.222-.907-.35h-.29l-.311.243-.305.154-.405.155-1.012.288-.9.135-.216.107-.068.195.073.228-.58-.087-.604-.067h-.488l-1.195.436-.404.067-.452-.067H97.14l-1.003-.107-.814-.604-.58-.269-.613-.208-.618-.154-.207-.33-.195-.16-.511-.068-.403.121-.252.817-.215.161-.512.074-.538-.208-.743-.416-.293-.47-.25-.154-.391.208-.02.597-.076.403-.468.161-.27-.12-.218-.417-.548-.978-.542-.57-.545-.383-1.797.01-1.333-.115-.602-.154-.228-.376.221-.752.26-.59-.007-.135-.22-.067-.384-.067-1.437.376-.39-.067-.252-.128-.303-.107-.252-.175-.176-.255-1.243-.624-.367-.343-.662-.43-.56-.295-.357-.836-.32-.805-.178-.43-.533-.228-.577-.175-.977.35-.802.268h-.588l-.851-.825-.682-.891-.806-.775-.535-.39h-.95l-1.072-.436-1.433-.992-1.036-.741-1.785-.822-.414-.342-.159-.296-.244-.577-.373-.55-1.266-.242-1.43-.168-1.508.336-1.089 1.64-.523.356h-.448l-.368-.417-.304-.443-.167-.49-.751-.362-.852-.47-.433-.363-.492-.228-.456-.101-.882-.309-.998-.349-.468-.067-.034-.248.14-.524-.085-.51-.302-.209-.456.067-1.054-.717h-.054l-.3-.202-.518-.295h-.875l-.664.107-.485-.302-.703-.477-.126-.107-.208-.175-.713-.913-.842-1.08-.426-.161-.219.08-.25.578-.187-.067-.312.067-.37.202-.354.067-.227-.067-.096-.141.1-.758-.213-.235.19-.523.321-.457-.329-.336-.405-.483-.04-.436.22-.551.105-.47-.067-.175-.321-.261-1.221-1.294-.067-.141-.208-.43-.094-.652-.16-.465-.186-.357.013-.167.14-.087.764-.088.706-.054.466-.122.24.26.113.396.12.21.447.376.544.361.529-.047.465-.155.405-.588.286-.144.332-.027-.002-.047-.013-.378.116-.934-.04-.374-.15-.337.027-.375-.047-.545-.381-.372-.248-.142-.04-.2.126-.374.09-.429-.13-.315-.02-.047-.31-.162-.361-.276-.431-.37-.213-.27-.347-.297-.424-.46-.08-1.012-.04-1.064-.149-.53-.236-.844.034-.283.143-.215 1.2-.68.261-.264.04-.201-.047-.299-.226-.33-.48-.259-.684-.42-.62-.438-1.04-.267-1.268-.325-.302-.319-.308-.778-.52-1.186-.556-1.265-.427-.78-.02-.375.257-.957-.034-.204-.223-.07-.427.125-.342.152-.291-.08-.273-.158-.054-.054-.02-.02-.506.102-1.017.06-.353-.013-.493-.013-1.018-.219-1.375-.294-1.418-.411-.752-.325-.264-.114-.643-.34-.46-.293-.081-.766-.33.06-.781.277-.9.175-.496.003-.202-.124-.298-.807-.218-.227-.406-.09-.439-.141-.22-.211-.047-.265.196-.306.233-.234.04-1.434-.152-.509-.127-.426-.322-.532-.3-.329-.457-.303-.705-.316-.628-.116-.762.23-.242-.089-.318-.976-.203-.2-1.352-.402-.613-.093-.704.126-.402.107-.322-.18-.505-.225-.496-.155-.615-.006-.397.098-.1-.06-.192-.18-.817-.537-.027-.137 1.254-.53.739-.202.387-.161.083.034.19.245.489.162.343-.047.18-.124.606-.293.474-.339.267-.28-.143-.44-.746-.531-.474-.285-.145-.192.122-.577.174-.572-.114-.218-.14-.186-.068-.625-.324-.754-.355-.44-.097-.593-.02-.556.429-.87-.159-.376-.451-.334-1.551-.604-1.589-.402-.605.014-.376-.027-.443.354-.266.461-.374.04-.677-.196-.453-.295-.32-.618-.25-.794-.14-.25.073-.214.155-.19.433-.18.072-.183-.067-.225-.348-.284-.358-.403-.558-.837.106-.461.088-.664-.033-.35.564-.09.72-.18.335-.297.23-.303.048-.188-.216-.726-.287-.324-.027-.25.14-.192.19-.331.364-.677.355-.432.194-.11.434-.1 1.058-.118 1.136-.304 1.35-.906.45-.258.59-.13.42.008.076-.111-.272-.56.067-.204.162-.16.204-.073.933.295.717-.033.87-.176 1.88-.99.233.014.187.134.228.595.26 1.258.141.157 1.309.02.888-.457.39-.108.632.074.332-.214.35-.15.405.527.522-.253.563-.4.273-.415.383-.447.297-.568.118-.536.143-.251.318-.259.776-1.102.562-.28.53-.101 1.312.19.685-.027 1.999.145.924-.211.643-.21.949.033 1.12-.168 1.497-1.381.013-.294.092-.312.54-.308.674-.282 1.339-.675 2.725-1.068.974-.428.408.014 1.004-.268 1.76-.523.5-.65.464-.13 2.058-.117.128-.073.074-.11-.115-.47-.133-.405.159-.12.175-.185-.027-.26-.33-.841-.179-.799-.117-.72.02-.268.25-.462.323-.422 1.166-.393.772-.119.033-.256-.625-.16-.451-.256-.082-.147.02-.166.106-.153.784-.286.738-.286.901.173.179-.11.054-.286-.193-.288-.183-.469-.416-.24-.013-.288.257-.498-.355-.92-.385-.813-.655-1.39-.432-.4-.24-.64-.272-.337.027-.497.04-.349-.07-.693-.124-.751.125-.763.241-.502-.067-.192.128-.145.369-.047.175-.205-.175-.212-.635-.162-.71-.254-.855.027-.877.04-.436-.188-.382-.24-.02-.154.526-.405.732-.419 1.135-.184 1.253-.276.633-.2.843-.145.976-.06.491.04 1.256-.268 1.977-.517 1.794-.433.604-.259.449.259.207.57.522.294.52.142.297-.007.897-.221.965-.163.382.089.491.291.55.261.288-.013.252-.2.255-.408.162-.517.033-.546-.095-.335-.195-.122-.879-.198-.84-.322-.096-.294.02-.21.22-.514.548-.943.55-1.301.292-1.027.92-1.53.724-1.597 1.175-2.293.196-.454.107-.724.06-.3.409-.156.69.153 1.681.523 1.28.439.536.149.797.156 1.23.183.713-.054.625-.108.83-.007 1.3.137.403.006.498.02.356.222.177.503.27.226.484-.083 1.034-.444.66-.35.825-.504.819-.07.868-.113.302-.25.32-.589.533-.444.088-.562-.188-.397-.37-.645.013-.436-.18-1.262-.238-1.135.243-.915.43-1.022.17-.312.272-.411.385-.492.54-.154 1.52-.106 1.406-.206.718-.213.743-.129.444-.155.768-.718.364-.414.267-1.098-.196-.528.164-.467.371-.274.521-.275.35-.047.742-.082 1.218.026.624.135.63.06.4-.099.265-.208.408-.067.616-.1.632-.124.348.027.073.309-.06.241.123.325.252.213-.083.232-.356.135-.35.18-.077.248.443.308.153.296.74.178.576.2.216.19-.067.215-.266.233-.258.249-.034.15.083.173.557.116.641.194 1.02.248.698.46.692.128.334.45.06.654.71.333 1.051.461.534.086.358.262.514.319.457.099.542.047.897-.295 1.002-.027.549.169.52.637.367.2.218.18.352.171.357.027.532-.142.323-.282.465.06.174.183.086.315.245.39.59.291.82.174.118.141.112.39.223.271.3.353.283.644.06.533.133.293.38.478.607.763.485.647.56.126.477.206.273.478.504.901.082.59.04.439.165.2.034.249-.42.946-.356.428-.047.36.241.627.33.485.034.465-.282.34-.488.426-.233.243-.38.214-.578.824-.262.911-.06.47.219.34.37.373.092.324.604.724.16.448.247.014.266-.148.647-.007.59.158.564.331.606.178.866-.047.463.178.499.145 1.03.054.772-.003 1.188.006.96.223 1.686.177 1.041-.014 1.403-.166.86.104 2.54.249 1.49.26.942.292.663.463.758.723.603.331 1.621.2 1.11.844.87.316 1.462.817 1.034.319 1.234.294 2.018-.125.11.111-.154.444-.122.608v.44l.208.224.77.133.365.216.28.414.16.26.646 1.272 1.038 1.882.119.724.355.466 1.126.741.592.548.88.576.29.533.066.689.222.177 1.61-.158 1.395-.11 2.502-.198 3.447.36 3.554.347 3.142.307 1.548.152 3.498.322 1.944-.411 1.52-.322.689.047 2.905.363 1.702.195 2.145.245 1.489.09 1.219-.006.562.102.544.157.361.23 1.115 1.165.625.513 1.234.389 2.81.443 1.555.269 1.786.309 1.175.466 1.355.542 1.756.701 1.92-.306 2.068-.33 1.296-.208v1.466l1.85.117.581-.02.817.324.461-.137.435-.319.548-.502.787-.22 1.362-.563.33-.137 2.023-.799 3.018-.984 1.354-.476.405-.107.765-.243.517-.169.913-.135 1.24-.086 1.354-.186 3.064-.347.384-.033 1.721-.143.731-.135 1.093.07 1.427.048.945.088 1.257-.07 1.727-.094 1.398.013.693-.118 1.023-.366.689-.291 1.079-.352 1.338-.365.932-.331.618-.22.748-.208.197-.268.215-.205.398-.343.716-.64.544-.56.269-.247.61-.56.495-.421.632-.568.532-.183.673-.156 1.775-.556.351-.12.295-.027.627-.45.53-.389.345-.292.719-.105.37-.21.067-.274-.075-.42-.345-.43-.292-.374-1.028-.715-.545-.443-.557-.57-.225-.535-.38-.34-.183-.302.06-.348.528-.62.17-.391.219-.692.495-1.036.405-.483.467-.473.987-.635.903-.118.54.126h1.203l.8.033.591.317.655.627.738.23 2.3.49.986.104.704.02 1.038.163.351.033.532.113.44-.12.668-.419.839-.472.36-.108.668-.203.336-.192.585-.529.763-.41.927-.615.458-.464.1-.3.1-.324.289-.17.565-.157.634-.04 1.212.278 1.634-.08.368-.041 1.49-.16.672-.13.95-.127.727-.514.973-.614.708-.341.472-.067.59-.353.288-.38-.077-.335-.108-.276.346-.511.625-.897.586-.418.482-.337.309-.542.38-.157.467-.06.659-.367.484-.076.804.176 1.189.047.76.02.432-.067.157-.197-.004-.305.24-.677.09-.224.219-.103.73-.013.494.244.34.2.47.027.486-.13.652-.548 1.08-.318.574-.08 1.019-.26.643.094 1.182.076.458-.067.499.067.452-.37.36-.088.76.17.48.286.896.36 1.14.167.954-.086.982.152.58-.013.274-.143.804-.302.193-.407-.079-.394.092-.446-.236-.327-.499-.485-.192-.324-.02-.423-.31-.403-.744-.486-.492-.225-1.01-.84-.34-.196-.116-.138-.12-.282-.373-.133-.489-.22-.265-.223-.173-.388-.103-.254-.432-.21-.433-.118-.49-.149-.807-.218-.466-.435-.824-.812-.466-.273-1.737-.104-.622-.198-.706.068-.421.13-.932-.003-.484.08-.616.535-.814.696-.673.425-.478.44-.223.158-.435-.095-.597-.496-.855-.444-.792-.203-.34-.11-.944-.113-.729.034-.93.167-.908-.034-.41-.106-.577.014-1.05.46-.543.526-.642.164-.58-.345-.672-.407-.64-.51-.395-.471-.218-1.248.768-.372.98-.416.074-.659-.033-.734.193-.816.895-.753.482-.624.06-.388.43-.645.411-.68.562-.893 1.066-1.583 1.26-1.87.628-.934 1.381.578.891.3 1.504.458 1.554.103 1.486.494.767.15h.408l2.103-1.203 1.779-1.02 2.043-.794 1.501-.107 1.128-.232.755-.356.444-.594.136-.833-.3-.503-.737-.174-.19-.176.357-.178.263-.347.166-.516.426-.49.683-.462.376-.513.07-.563.411-.561.749-.56.41-.52.07-.483.38-.587 1.033-1.041.67-1.2 1.143-.82 1.836-.843 1.148-.836.458-.83-.033-.73-.532-.635-.1-.644.327-.656-.289-.491-.907-.325-1.081-.08-1.258.164-.706-.204-.155-.573.337-.463.83-.354 1.363-.86 1.9-1.369 1.888-.757 2.82-.218 2.273-.447 2.316-.456 1.671-.226.285.152.91.04 1.537-.077 1.43-.196 1.319-.315 1.044-.074.768.167zm2.68 196.382-.424.094-.509-.114h-.464l-.006-.202.488-.208.007-.289.12-.154 1.096.349-.047.255zm2.716-1.584-.396 1.06-.326.154-.335-.087-.342-.59.239-.229.334.121.27-.067.614-.862.149.141zm7.728-1.526-.57.175-.607-.1.098-.937.211.128.132.322.452.188zm112.421-12.577h-.122l-.422-.71h.122l.245.114.27.41zm-93.523-.242-.647.309-.239.37-.598.127-.582.517-.565.094.013.416.24.35-.377.066-.394.43-.033.309.14.255-.02.127-.498.37h-.513l-.02-.403.034-.302.485-.73.013-.847.45-.1.164-.115.71-.604.13-.255-.367-.248.027-.296.083-.127.585.094.237.221h.115l.341-.161.16-.295.638-.571.258-.57.515.47-.139.61zm4.964-7.17-.282.12-.378-.168-.115-.77.166-.376.296-.08.256.664.179.275zm2.188-2.58.047.154-.66-.127-.268-.611.436.107.134.208zm.863-.699-.579.544-.614-.49-.74-.329.352-.087.207-.134.02-.208.48-.309.954-.242h.303l.342-.228.111-.201.14-.101.615-.282.169.322-.027.255-.462.141-.45.336-.416.416-.376.175-.12.114zm7.857-13.79-.77.147-.42-.154-.386-.83.732-.516.983.517.2.148zm2.262-.9-.588.074-.013-.39.467-.878.047-.644.436-.813.185-.182.138-.067.15.256-.17.996-.435.755zm-8.337-8.461-.21.12.135-.53.54-.463.041.302zm4.452-5.147-.594.027-.246-.078-.096-.213.831-.433.645.077-.288.39zm-2.005 1.303-.53.242-.069-.229-.222-.107.383-.323-.014-.146-.241-.218.282-.824-.077-.355 1.06-.131.194.333.02 1.014zm-9.515-3.721.26.181.383-.104.302-.027.218.088.274.467.101.277-.491.04-.208.067-.267.34-.387-.125-.24-.16-.053-.225zm75.036-1.827-.116.07-.323-.22-.047-.194.053-.12.211-.028.435.24zm-72.272 1.448-.168.072-.217-.605-.15-.216.253-.115.502-1.098.093.436.196.432.196.068-.19.315-.282.116zm2.785-2.57-.473.317h-.342l.313-.37.04-.176.26-.496.512-.178.214-.02-.415.515zm2.04-3.53-.463.279-.348-.218.169-.599.116-.198.397.196zm9.259.982.903.2.382.013.354-.09.537-.264.566-.193.403.098.357.235.188.329-.092.345-.638.742-.525.791 1.207.148 1.205-.02-.281.49-.047.426.368.204.313.273-.081.248-.18.245.659.366-.04.247-.172.257-1.642 1.687-.482.854-.335.94-.307.689-.225.713-.171.77-.305.796.1.706-.102.722-.824 1.787h-.588l-.738-.215h-.463l-.24.396.426.816-1.318.967-1.453.652-.014-.296.137-.235.21-.188.151-.228.211-.76-.104-.767-.438-.959-.033-.342.303-.141.204-.067.111-.134.004-.316-.138-.235-.414-.074h-.4l-.28.356-.385.687-.187.695.083.382.171.343.528.57-.155.336-.22.262-1.867-.59-.404-.068-.335-.127-.358-.783.76-.188.226-.094.084-.249.102-.763-.356-.638-.3-.228-.243-.262.154-.537-.101-.677-.007-.947.131-.16.706-.196.509-.51.45-.577.66-1.014.539-1.096-.52-.047-.438-.205.48-.519-.149-.654-.717-.804-.394-.949-.634-.417-.334-.153-.407.222-.336.267.31.617-.033.545.047.54.317.034.389-.134.312.095.181.284.047.366-.136.362-.288.181-.35-.013-.353-.195-.274-.28-.658-.154-.693.33-.66.671-.564.34.266-.498.126-.538-.274-.378-.644-.629-.15-.364-.033-.44.112-.436.662.5.34.624.487.273h.61l-.468-.915-.169-.231-.659-.411-.897-.692-.571-.334.202-.72.334-.144.284.034.953.255.09-.359-.14-.192-.073-.223.627-.312 1.027-.257.211-.12.183-.259.25-.135h.72l.604-.247.5-.67.119-.367.178-.307 1.247-.543.31-.083.833.067.761.307.376.646.33.691zm7.328-2.3.325.246.779-.1.096.069-.227.223-.343.221-.623-.164-.393-.01-.053-.369.047-.134zm2.097-1.142-.195.27-.594-.082.237-.233.184-.283.133-.06.112.307zm-22.15-.054-.436.273-.188-.418.191-1.179.82.241-.013.362zm34.095-.892.928.279.952-.08-.013 1.226.135.412.268.369-.138.536.43.183-1.276.613-1.153.812-.473.547-.43.587-.248.621-.161.67-.386-.265-1.11-1.085-.704-.297-1.13-.159-.36.034-2.324 1.014-.308.741-.634 1.118-.3.369-.333.106-.237.192-.26.952-.72.587-.441.02-.753-.16-.338.09.45-.94-.718-.114-.717.02-.02-.611-.435-.347.321-.451.007-.367.189-.202.067-.296-.027-.254-.443-.077-.27-.179.054-.666-.255-.027-.63.116-1.31.515h-.358l.55-.366 1.164-.504.523-.288 1.143-.809.718-.383.376-.677.116-.412.242-.362.214-.58.37-.193.643-.497.37.047.41.61.553.47.4-.04.71-.24.342-.055.82.027.739-.297.3-.351.112-.439-.274-.733.355.074.34-.034.802-.467.824-.276.856-.07.963.264zm-.04-1.526-.126.133-.12-.034-.427.308-.092-.295-.335-.197-.04-.153.966-.102.31.081zm3.9 1.312-.728.572-.629-.04-.317-.255-.105-.317.6-.497.518-.702.469-.311.38-.174.295.01-.666.98zm-37.245-.44-.136.323-.456-.229-.207-.207.421-1.017-.047-.385.027-.188.84-.532.144.102.054.147-.074.227.04.504-.63.833zm67.617-2.503-.072.316-.358-.07-.171-.206.02-.368h.377zm-40.862-9.919-.307.251-.574-.082-.331-.362.109-.409.601-.313.574.629zm33.393-10.865-.637.013-.16-.067.386-.166.034-.28.231-.495-.004-.143-.507-.026.027-.564.379-.555 1.04-.875.284-.165.04.383-.317.904-.06.326.816.069-.525 1.085zm19.372-23.839.266.126 1.253-.342-.239 1.032-.133 1.04.092 1.725.112.778.217.754.534.54.698.383 1.013 1.225.543 1.504.383.73.288.766.087.35.007.351-.086.48.095.388-.109 1.22-.453 1.411-.06.721-.395.143-.239.333-.204.155-.226.12-.329.026-.234.136-.094.382-.15.355-.287.326-.224.36-.185.879-.067.9-.277.63-.667.164-.764-.014-.98.292-.209.17-.773 1.1-.223.644-.007.694.215.853.292.833.221 1.553-.233 2.367-.223.756-.492.512-.373.238-.321.292-.416.772-.688 1.538-.054.386.003.401-.185.522-.122.514.114.597.211.559.924 1.433.362.425.406.386-1.576.428-.285.197-.936.817-.299.776.027.858-.158.307-.257.267-.268.177-1.046.393-.67.391-.667.611-.265.32-.513-.102-.3-.282.295-.356-.091-.418.146-1.075-.168-.433.535-.326.256-.522.557-.417.397-.37.07-.3-.356-.325-.378-.234h-.521l-.504.068-.325.308-.109.42.027.196-.04.171-.79.576.103.602.232.305.295.145-.088.208-.376.485-.262.047-.483-.679-.602-.37h-.745l-.766.134-.582.452-.192.375-.123.388.04.944-.24.788-.473.693-.222.253-.576.47-.398.06-.285-.214-.229-.323.292-1.185-.014-.666.678-.338-.556-.474-.68-.19-.956.252-.27.284-.183.383-.514.483-.567.454-.64.772-.432.915-1.41-.3-.77-.066-.778.027-1.377-.113-1.513.187-1.721.36.103-.26 1.415-.55.053-.163-.135-.301-.353-.013-.846.105-.432-.047-.177-.323-.286-.14-.192.132.06.629-.209.084-.279-.162.09-.488-.191-.716-.02-.445.296-.381-.304-.161-.32.06-.408.183-.359.261-.76 1.307-.294.746.556.6 1.516.838.26.205.006.357-.184.379-.413.166-1.664.28-1.44.543-.416.55-1.312 2.126-1.05 1.454-1.483.502-1.628-.446-.393-.506-.32-.626-.604-.566-.546-.616-.319-.731.047-1.18-.236-.71.213-.19.898-.43.293-.243.507-.56.182-.313.027-.473-.407-.248-1.054.01-1.051.148-.75-.207-.974-.572-.301-.123-1.05-.034-.748.107-.736.208-.778.067-.259.11-.898.701-.713.442-.617.22-1.333.06-.667.142-.7.232-.195-.02-.736.321-.845.278-.453.28-.828-.183-1.64.5-.794.06-.82-.276-.759-.445-.73.19-.5.658-.242 1.309-.286.59-.087.707-.378-.112-2.196-1.274-.152-.047-1.775.22-.458.106-.572.257-.605.116-.552-.185-.527-.302-.507.09-.52.211-.199-1.92.1-.254.32-.337.351-.288.86-.099.87.093.622-.132.524-.38.554-.54.625-.438.846-.346.819-.398.719-.558.682-.608.627-.447.68-.374 1.038-.9 1.376-1.01.528-.749.328-.206 1.185-.418 1.57-.32.74.013.735.656.395-.09.4-.17.81-.093.831.109h.812l.812-.083 1.564-.215.822-.26.802-.336 2.862-.237 1.96-.562.311.04.302.13.02.416-.247.456.24.275.397.17 1.846.054.527.098.77-.312.726-.385.76-.508.53-.571-.49-.715-.107-.782.41-.848.597-.715.709-.432.652-.497 1.322-1.411.955-1.142.344-1.403-.202-1.661.834-1.234.798-.211 1.587-.563.833-.165.124.245-.027.323-1.245 1.036-.714.425-.427.133-.39.188-.162.365.634.61.162.45-.04.434.027.389.718.423.823.14.345-.003.302-.112.94-1.036.21-.18 2.68-.76 1.32-.58.728-.15.684-.302 1.533-1.166.568-.538.514-.594.41-.69.324-.747.445-.465 2.431-1.108.784-.604.249-.292.3-.847.209-.88.295-.69.399-.646.534-.66.6-.61.354-.629.515-1.5.227-.83.176-.299.26-.251.226-.319.172-.356.078-.353.112-1.08-.068-.838-.403-.71-.332-.201-.363-.014-.543.06-.462-.289.094-.256.471-.047.322-.132.23-.242.434-.773.26-.829.02-.366-.339-.667-.269-.803-.007-.434.294-.498.42-.406.377-.095.407-.027.37-.157.344-.227.194-.25.302-.683.116-.389-.19-1.042.196-.285.279-.178.372.135.38.027.444-.04.427.11.08.267.267 1.762.154.238.31.184.35-.026.303-.274.204-.366.402-.075 1.226.393.434-.28.283-.433.247-.767-.12-.69-.294-.256-.305.047-.268.19-.3.103-1.811.364.007-.77.387-1.154.214-.365.305-.173.76.2.375.134zm-11.736-4.756-.153.034-.16-.054-.155-.508.133-.268.432-.187.42-.054-.357.932zm12.18-20.4-.466.047-.542-.28-.067-.35.392-.28.39.103.391.361.129.19zm-1.495-1.433-.26.426-.349-.634-.07-.683.201.004.37.103.089.333zm18.475 8.163.84.034.376-.034.644.102 2.555 1.02.77.13.797.013.559-.082.492-.28 1.542-1.237 1.62-1.126.18.047v.31l-.118.345-.717 1.032-.798 1.388-.17.704.26.685.499.566.395.775.456 1.076.64.137.348.02.64-.323.607-.41.52-.047.55.07-.722.285-.68.35-.583.662-.217.124-.674-.04-.384.027-.788.277-.692.312-.66.384-.72.207-.768.047-1.184.314-.77.02-1.44-.274-.7.072-1.531.62-1.391.894-1.217 1.003-1.017 1.208-.408.629-.245.703-.033.466-.091.448-.235.312-.283.252-.838-.147-1.38-.646-2.672-.937-2.822-1.435-1.589-.72-2.985.215-2.824 1.375-.253-.117-1.08-.943-.522-.373-.625-.106-.464.014-.45.068-.639.485-.234.35-.182.396-.054.28.077.275.603.622.745.462.337.088.716-.033.332.047 1.199.93 1.312.871.29.289-.485.304-.532.15-.617-.04-.612-.115-1.051-.37-.45.315-.696.648-.386.703-.314.323-.771.425-.816.22-.426-.072-.326-.267-.184-.32-.093-.37.175-.8.422-.722.162-.737-.346-1.036-.22-.217-.866-.607-.4-.591-.099-.735.054-.407.212-.897.208-.454.4-.149.432-.089.668-.323.735-.42.702-.479.696-.586.364-.643-.598-.789-.122-.468.088-.443.634-.236.656.178 1.317.65.258.066.904.034 1.238.14.718-.033.344-.098.522-.537.257-.684-.094-.88-.005-.873.33-.712 1.033-1.144.295-.674.108-1.64.373-.722.3-.747.142-1.57-.424-1.509-.425-.74-.488-.703.072-.671.395-.623.007-.187.094-.166.74-.118.344-.134.33-.298.397-.176.29.174.239.306 1.042.755 1.64 1.347 1.935 2.053 1.213 1 1.278.909 1.433.928 1.5.8.958.377.701.602z" transform="translate(0 -872.52)" id="path6" />
    <path style="fill:#fff;fill-opacity:1;fill-rule:nonzero;stroke:#333;stroke-width:.5;stroke-linecap:round;stroke-linejoin:round;stroke-miterlimit:4;stroke-dasharray:none" class="polygon" d="m359.238 1016.755-.302.148-.28-.089-.075-.07-.338-.385-.088-.197.227-.377.928-.62 2.403-.596.432-.027.949.255.202.48-.174.412-.218.277-1.099.466-.856.224zm2.86-7.523.114.32-.543-.06-.289-.307.04-.263.324-.04zm-3.486-.178-.43.103-.241-.23-.17-.06.097-.304.7-.596.136-.206.648.124.241.315-.298.48zm10.51-1.641-.076.208-.339-.315.335-.343zm-10.925-.78-.088.162-.293-.047-.3-.461-.124-.366-.3-.201.477-.318.605.572zm12.716-.502-.075.657-.474.034-.284-.423-.301.207h-.157l-.237-.526-.04-.411.559-.313.337.188.486.097zm4.533.047-.633.415-.854-.556-.203-.306.65-.45.55-.514.362-.034zm-15.6-11.374-.092.435-.445-.287-.128-.953.457.278zm30.204-6.619-.305.2-.361-.2-.047-.21.188-.184.439-.11.205.16zm-29.511-1.735-.034.888-.37-.04-.252-.09-.108-.173-.255-.824.284-.34.55.27zm12.447-5.953 1.64 3.004 1.568 1.94 1.337 1.407 1.904 2.706.558 1.447.054.896.318 1.233-.272.707.081 1.114-.12.572-.232.422-.007.81.074.432.007.574.15.225.218.082.346-.21.423-.086-.074.691-.512 1.747-.446 1.273-.604 1.108-.772 1.014-.922.397-.65.142-1.237.054-1.028-.173-.884.125-.355.212-.264.361.194.561-.027.415-.378-.034-.75-.241-.83-.034-.388-.12-.392-.593-.4.02-.694.352-1.064.078-.374.19-.133.246.155.311.536.408-.18.413-.558.207-.45-.508-.28-.498-.314-.027-.487.142-.099.538.227.366.374.424-.523.488-.138.349-.376.25-1.015-.556.144-.395.44-.38.054-.394-.145-.234-1.452.995-.895 1.128-.478-.082-.2-.29-.28-.118-.967.728-.178.577-.355.02-.156-.244-.013-.522-.166-.44-1.001-.643-.458-.561.246-.314.836.17.664-.02-.131-.265-.216-.126.441-.15.368-.307-.304-.083-.466.177-.388-.087-.154-.734-.472-.754-.244-.733.466-.42.237-.655.433-.948.217-.307.6-.223.214-.245-.33-.126-.526-.111.014-.273.358-.15.401-.301.778-.367.239-.692-.224-.174-.485-.165.109-.35.2-.266-.075-.16-.573-.45-.38-.41.113-.469-.087-.707.054-.594-.027-.323-.28-.725-.127-.726-.367.106-.297.18-1.061-.256-.334-.013-.137-.54.38-.664.902-.586.518-.073.392-.258.608-.08.732.397.657.08.364.687.224.145.047-.253.53-.296.127-.223-.115-.123-.61-.121-.547-.853-.076-.372-.2-.237.297-.681-.633-.777-.308-.245.047-.698-.33-.445-.185-.244-.113-.421.097-.19.289-.071.088-.178.207-.126.013-.183.002-.6.587-.415.837-.853.41-.467.468-.435.541-.292.532-.139.836-.06 1.603.054.314-.047 1.115-.047.263.077.81.047.897-.054.452-.126.419-.215.366-.387.377-.717.404-.565z" transform="translate(0 -872.52)" id="path8" />
    <path style="fill:#fff;fill-opacity:1;fill-rule:evenodd;stroke:#333;stroke-width:.5;stroke-linecap:round;stroke-linejoin:round;stroke-miterlimit:4;stroke-dasharray:none" class="polygon" d="m294.49 905.299-.63.933-1.259 1.87-1.066 1.584-.562.892-.412.68-.43.646-.06.388-.481.624-.895.752-.193.816.033.735-.074.658-.98.417-.768.372.218 1.247.395.472.64.51.67.407.582.344.642-.164.543-.525 1.05-.46.578-.014.41.106.907.033.93-.167.73-.033.943.112.34.11.792.203.855.444.597.496.435.096.223-.158.477-.44.674-.426.814-.695.616-.535.484-.08.932.002.42-.13.707-.067.621.197 1.738.104.465.274.824.812.466.435.808.218.49.149.432.118.432.21.103.254.173.388.265.224.489.218.373.134.12.281.116.139.34.196 1.01.84.492.224.745.487.31.403.02.423.191.324.499.484.236.328-.092.446.079.393-.193.408-.804.302-.274.142-.58.014-.982-.153-.954.086-1.14-.167-.897-.36-.48-.286-.759-.17-.36.088-.452.37-.499-.066-.458.067-1.182-.076-.643-.093-1.02.258-.574.08-1.08.318-.65.548-.486.131-.47-.027-.34-.2-.495-.244-.73.013-.218.103-.09.223-.24.678.003.305-.158.197-.432.067-.76-.02-1.189-.047-.803-.176-.485.076-.658.367-.467.06-.38.157-.309.542-.482.337-.586.418-.625.896-.346.511.108.277.077.334-.289.38-.59.354-.471.067-.708.34-.974.614-.725.515-.951.125-.672.131-1.49.16-.368.04-1.634.08-1.212-.277-.634.04-.565.157-.289.17-.1.325-.1.299-.458.464-.927.616-.763.41-.585.528-.336.192-.667.203-.361.108-.839.472-.668.42-.44.12-.532-.112-.35-.034-1.04-.162-.704-.02-.984-.104-2.301-.491-.738-.23-.655-.626-.59-.318-.801-.033h-1.204l-.539-.125-.903.118-.987.634-.467.473-.405.483-.495 1.036-.22.692-.17.392-.527.62-.06.348.183.302.38.34.225.535.557.57.545.443 1.028.715.291.374.346.43.075.42-.067.275-.37.21-.719.104-.345.292-.53.39-.628.449-.294.027-.351.12-1.775.556-.673.156-.533.183-.63.568-.495.421-.611.56-.269.247-.545.56-.716.64-.397.343-.216.205-.196.268-.748.208-.618.22-.932.331-1.338.365-1.08.352-.688.29-1.023.367-.693.118-1.398-.013-1.727.095-1.257.07-.945-.09-1.427-.046-1.093-.07-.73.134-1.722.143-.384.034-3.064.347-1.354.186-1.24.085-.913.136-.517.169-.765.243-.405.106-1.354.477-3.018.984-2.022.798-.331.137-1.362.563-.787.22-.548.503-.435.318-.46.137-.818-.323-.582.02-1.849-.118v-1.465l-1.296.207-2.067.33-1.922.307-1.755-.702-1.355-.542-1.175-.466-1.786-.308-1.555-.27-2.81-.443-1.234-.388-.625-.513-1.115-1.165-.361-.23-.544-.158-.562-.102-1.22.006-1.488-.09-2.145-.245-1.702-.195-2.905-.362-.689-.047-1.52.321-1.944.411-3.498-.322-1.548-.15-3.143-.308-3.553-.348-3.447-.36-2.502.199-1.394.11-1.61.158-.223-.178-.067-.688-.289-.533-.88-.576-.592-.548-1.126-.741-.355-.467-.119-.723-1.038-1.882-.645-1.273-.161-.26-.28-.414-.364-.216-.771-.133-.208-.224v-.44l.122-.607.155-.444-.111-.111-2.018.125-1.234-.295-1.034-.319-1.461-.817-.87-.315-1.11-.844-1.622-.2-.603-.331-.758-.723-.663-.464-.942-.292-1.49-.26-2.54-.248-.86-.105-1.403.167-1.041.013-1.686-.176-.96-.224-1.188-.006-.772.003-1.03-.054-.499-.145-.463-.178-.866.047-.606-.178-.565-.331-.589-.158-.647.013-.266.148-.247-.013-.161-.449-.604-.723-.092-.325-.37-.374-.219-.34.06-.469.262-.91.579-.824.38-.214.232-.244.488-.425.282-.34-.033-.465-.33-.486-.242-.627.047-.36.357-.427.419-.947-.034-.25-.165-.199-.04-.438-.081-.59-.505-.901-.273-.479-.476-.206-.56-.125-.485-.647-.607-.764-.38-.477-.133-.293-.06-.533-.285-.644-.298-.353-.223-.27-.113-.39-.117-.142-.82-.174-.59-.29-.246-.391-.085-.315-.175-.183-.464-.06-.324.282-.531.14-.357-.026-.353-.171-.217-.18-.368-.2-.52-.638-.549-.168-1.002.027-.897.295-.542-.047-.456-.1-.515-.318-.358-.263-.533-.085-1.05-.462-.712-.333-.06-.653-.334-.45-.692-.127-.698-.462-1.02-.248-.641-.194-.557-.116-.082-.174.033-.15.258-.248.266-.233.067-.215-.215-.19-.576-.2-.74-.178-.153-.296-.443-.308.077-.248.35-.18.356-.135.082-.232-.252-.213-.123-.325.06-.241-.073-.31.027.002.782-.014.358-.15.271-.22.586-.246.125-.283.007-.558.382-.47.975-.14.374-.07.396.069.617-.067.597-.027.333.145.437.123.562-.014.193-.222.02-.31.244-.08.303.214.17.16.253.074.68-.192.472-.208.154-.426.276-.21.37.106.648-.003.533-.33.7-.262.503-.12.103-.221-.237-.49.067-.534.674-.303.899-.034.666-.206.186-.571.327-.165.335-.067.811-.09.583-.231.36-.106 1.02-.311.928-.06.398-.25.312-.312.519-.12.53-.27.702-.345.276-.047 1.148-.2.449-.074.27-.047.498.013.211-.363.505-.267.505-.09.25-.267.485-.338.658-.189 1.023-.027.99.04.593-.06.49-.5.092-.25.113-.252.396-.096.481.41.404.255.62.266.322.25.367.033.385-.186.272-.454.518-.07.57.073.15.224.047.217.263.39.626.34.802-.02.322-.06.78.046.768.074.836.08.244.013.896.04 1.305.06.577-.026 1.177.11.241.303.217.715.185.681.053.548.306.283.391.094.258.22.455.302.337.431.407-.027.286-.102.626-.033.8.027.554.238.211.313.45.176.369-.054 1.096-.002.377.02.377.173.543.027.299-.22.944-.148.547-.313.42-.003.32.15.243.206.361-.091.195-.17.316.001.31.11.792.19.573.356.444.034.573-.104.264-.047.252.175.37.095.281-.13.48-.092 1.84.193.426.355.326.168.264.29.481.208 1.015-.071.393-.213.823-.47.325-.46.414-.148.468-.074.435.001.46-.013.554-.336.452-.118.668-.427.125-.193.323-.497.2-.316.339-.502.18-.81.104-.43-.089-.31-.396-.16-.507-.077-.444-.237-.33-.274-.191-.385-.264-.45.013-.326-.074-.252-.223-.215-.428-.377-.208-.281.07-.446.505-.762.047-.354.067-.221-.027-.2.158-.456.284-.192.325-.49.44-.225.547-.014.237-.133.118-.489.265-.377.177-.267.333-.291 1.932-.562.803-.697.285-.352.31-.756.298-.317.436.105.511.445.384.004.57.242 1.55.505.84.159.542.047.714.14.46.296.898.484.758.123 1.315.047 1.602.027.452.085 1.171.348 1.295.385 1.22.344.926.267.546.258.515.149.558-.127.716.027 1.68.309 1.06.26.89.194.295.266.027.356-.119.3.068.73.286.38.105.514.107.489-.075.483.135.257.278.15.269.338-.09.355-.118.208.02.333.323.274.472.054.42.07.517.433.92.498.551.138.633.224 1.207.219.82.067.485.178.474.43.784.088.504.149.917.177.607-.103.533-.149.359.027.687.097.807.02.678-.102.54-.302.63-.408.755-.207.873-.074.598-.166 1.957-.276.791-.047.612-.267.543-.207.785-.089 1.06.219 1.014.181 1.227.06.814.253.577.237.909.188 1.011-.088 1.383-.075.918.109.957.432.588.346.664.74.69.36.606.292.764.02 1.906.027 1.047.155.871.082.21.155-.088.508.027.727-.013.334.193.252.296.047.162.355.432.21.772.254 1.302.862.775.369.613.125.801-.085 1.255.002 2.127.003 1.457.259.503.178 1.489.205 1.639.226 1.379.237.816-.306.714-.027.683.221.682.333.528-.034.793-.156 2.527-.927.889-.347.622.089.555-.123.422-.104 1.08-.143.656-.04.679-.084.975-.053 1.984-.607.804-.12 1.359.169.732-.11.728-.307.945-.315.245-.512.484-.703 1.04-.518.85-.452.863-.439 1.062-.366 1-.265 1.272-.696 1.014-.353.506-.114.6.126 1.125.094.812-.026.458.08.916.34.831.299.636.531 1.185.743.607.249.431.103 1.066.07.872.033.52-.17.878-.31 1.4-.394.552.007.902.21 1.343.388.54.29z" transform="translate(0 -872.52)" id="path10" />
    <path style="fill:#fff;fill-opacity:1;fill-rule:nonzero;stroke:#333;stroke-width:.5;stroke-linecap:round;stroke-linejoin:round;stroke-miterlimit:4;stroke-dasharray:none" class="polygon" d="m349.693 974.37-.378.193-.02-.344.291-.29.303-.04zm34.052-23.086.304.082.405-.078.283.122.178.256.598.175.054.13-.014.857.329.402.437.364.601.33.323.075.192.236.183.407.429.397.226.29.04.3.197.169-.341.186-.452-.113-.75-.067-.959.588-.53.208-.376.578-.75.344-.408.367-.531.634-.349.612-.805.626-.47.788-.027.676.514.69.047.588-.36 1.21.2 1.285-.223.503-2.468.88-.645.438-.909 1.141-1.105.424-.686.466-.95.276-.609.803-.668.454-.794.278-.594.356-1.33.02-.939.248-.668.67-2.007.765-.273.58.133.891.013.683-.175.562-.44-.158-.236.184-.26.52.074.592.687.19.564.243.793.123.585.274 1.246 1.25 1.016.548.265.203.583.275.538.432.303.386-.237.104-.403.565-.377.717-.366.387-.42.215-.451.127-.898.053-.81-.047-.263-.077-1.114.047-.315.054-1.602-.054-.836.06-.532.14-.542.29-.467.437-.41.466-.837.854-.587.414-.002.6-.014.183-.206.127-.071-.054-.34-.047-1.361-.547-1.12.334-.283.435-.297.14-.446-.852-.729-.027-1.158-.75-.498.152-.127.303-.635.689-.888.57-.286.075-.328-.04.047-.158-.363-.64-1.402-.259-.505-.272-.255-.06 1.372-.714.36-.128-.269-.166-.296-.08-1.125.105-.59-.233-.857.074-.595-.186 1.233-.7.053-.413-.013-.314.626-.93.628-.514 1.627-.73.71-.1.513.027.421-.068-.442-.28-.432-.127-.841.026-.874-.42-.077-.443 1.694-2.799.027-.254-.265-.68-.086-.666-1.214-.382-.537-.047-1.559-.748-.622-.378-.244.111-.047.6-.222.133-.409.116-.206-.684-.337-.494-1.031-.503-.37-.278.177-.6-.087-.053.164-.673.634-.52 1.554-.923.4-.433.788-.511.355.013.367-.047.11-.222.085-.175.316-.158.758-.281.863-.371.688-.103.844-.555.344-.244h.345l.094-.114.196-.287.268-.188.374-.034.61-.136.767-.083.522-.466.177-.333.345-.366.733-.4.504-.59.558-.642.266-.205.261-.04.156-.241.178-.682.257-.663.153-.313.643-.342.165-.166.144-.053.3.047.4-.2.378-.223.344.078.35.184.366.367.16.292.29.245.054.355.288.156.612.077 1.004.242.65.013.37.181.776.099 1.55-.142.634.084.266.222.393.177.256.014.342-.305.366-.493.242-.377-.013-.3-.212-.322-.51-.3-.335-.464-.321-.48-.189-.155-.155-.233-.027-.357.111-.24.772-.163.991-.094.802.1 1.34-.067.82-.133.61.02.562-.003.25-.206.782-.494.379-.175.415-.336.067-.35.083-.282.234-.304.41-.374.35-.172.389.02.41.172.262.172.294-.047.244-.294.16-.054.47-.026.147-.181.18-.865.18-.682.041-.478.418-.79.131-.476.25-.222.289.02zm-77.68 123.894.294.45-.124.275-.924-.148-.054-.268.35.067zm17.466 12.768-.416.788-.332.832-.134.785.007.81-.096.731-.163.723-.652-.208-.353-.517-.082-.85-.472-1.026-.178-.295-.68-.578-.62-.288-.48-.423h.061l-.354-.571-.268-.611-.555-1.726-.192-.416-.256-.383-.074-.376.088-.416.24-.624.146-.631-.118-.857.047-.848.18-.376 3.16-5.167.858-1.099.527-.537.44-.61.42-.771.514-.704.368-.215 1.813-.631.565-.605.454-.188h.514l.332.29.295.341.31.182.803.335.351.323.16.557-.488.524-.242.476-.047.524.087.71.013.714-.61 1.672-.656 1.042-.177.517-.2 1.288-.384 1.294-.329 1.639-.535 1.689-.303.706-.378.676-.904 1.278z" transform="translate(0 -872.52)" id="path12" />
  </g>
</svg>
