<?xml version="1.0" encoding="UTF-8" standalone="no"?>
<svg width="149.237" height="143.117" version="1.1" id="svg6" sodipodi:docname="japan.svg" xmlns:inkscape="http://www.inkscape.org/namespaces/inkscape" xmlns:sodipodi="http://sodipodi.sourceforge.net/DTD/sodipodi-0.dtd" xmlns="http://www.w3.org/2000/svg" xmlns:svg="http://www.w3.org/2000/svg">
  <defs id="defs10" />
  <sodipodi:namedview id="namedview8" pagecolor="#ffffff" bordercolor="#666666" borderopacity="1.0" objecttolerance="10.0" gridtolerance="10.0" guidetolerance="10.0" inkscape:pageshadow="2" inkscape:pageopacity="0.0" inkscape:pagecheckerboard="0" />
  <g style="display:inline" id="g4">
    <path style="display:inline;fill:#e77936;fill-opacity:1;fill-rule:nonzero;stroke:#333;stroke-width:.5;stroke-linecap:round;stroke-linejoin:round;stroke-miterlimit:4;stroke-dasharray:none" class="polygon" d="m342.867 204.283-.424.094-.509-.114h-.464l-.006-.202.488-.208.007-.288.12-.155 1.096.35-.047.254zm2.716-1.583-.396 1.06-.326.154-.335-.087-.342-.591.239-.228.334.12.27-.067.614-.862.149.141zm7.728-1.526-.57.174-.607-.1.098-.936.211.127.132.322.452.188zm112.421-12.578h-.122l-.422-.71h.122l.245.114.27.41zm-93.523-.242-.647.31-.239.369-.598.127-.582.517-.565.094.013.416.24.35-.377.067-.394.43-.033.308.14.255-.02.128-.498.369h-.513l-.02-.403.034-.302.485-.73.013-.846.45-.101.164-.114.71-.605.13-.255-.367-.248.027-.296.083-.127.585.094.237.221h.115l.341-.16.16-.296.638-.57.258-.571.515.47-.139.61zm4.964-7.17-.282.12-.378-.167-.115-.77.166-.376.296-.081.256.664.179.276zm2.188-2.58.047.155-.66-.128-.268-.611.436.107.134.209zm.863-.698-.579.544-.614-.49-.74-.33.352-.086.207-.135.02-.208.48-.309.954-.241h.303l.342-.229.111-.201.14-.1.615-.283.169.322-.027.256-.462.14-.45.336-.416.417-.376.174-.12.114zm7.857-13.791-.77.148-.42-.155-.386-.829.732-.517.983.517.2.148zm2.262-.9-.588.074-.013-.389.467-.878.047-.645.436-.813.185-.181.138-.067.15.255-.17.996-.435.756zm-8.337-8.46-.21.12.135-.53.54-.464.041.302zm4.452-5.148-.594.027-.246-.078-.096-.213.831-.432.645.077-.288.389zm-2.005 1.303-.53.242-.069-.228-.222-.108.383-.323-.014-.146-.241-.218.282-.824-.077-.354 1.06-.132.194.333.02 1.014zm-9.515-3.72.26.18.383-.104.302-.027.218.088.274.468.101.276-.491.04-.208.067-.267.34-.387-.125-.24-.159-.053-.225zm75.036-1.828-.116.07-.323-.22-.047-.193.053-.121.211-.027.435.24zm-72.272 1.449-.168.072-.217-.605-.15-.216.253-.116.502-1.098.093.436.196.433.196.068-.19.314-.282.117zm2.785-2.57-.473.317h-.342l.313-.37.04-.177.26-.496.512-.178.214-.02-.415.515zm2.04-3.53-.463.278-.348-.217.169-.6.116-.197.397.196zm9.259.981.903.2.382.013.354-.09.537-.264.566-.193.403.098.357.235.188.329-.092.346-.638.742-.525.79 1.207.148 1.205-.02-.281.49-.047.427.368.203.313.273-.081.248-.18.245.659.367-.04.246-.172.258-1.642 1.686-.482.854-.335.94-.307.689-.225.714-.171.77-.305.795.1.706-.102.723-.824 1.786h-.588l-.738-.215h-.463l-.24.396.426.816-1.318.968-1.453.65-.014-.294.137-.235.21-.188.151-.229.211-.76-.104-.767-.438-.958-.033-.343.303-.14.204-.068.111-.134.004-.316-.138-.235-.414-.074h-.4l-.28.356-.385.688-.187.694.083.383.171.342.528.57-.155.337-.22.261-1.867-.59-.404-.067-.335-.128-.358-.783.76-.188.226-.094.084-.248.102-.764-.356-.638-.3-.228-.243-.262.154-.537-.101-.677-.007-.946.131-.161.706-.195.509-.51.45-.577.66-1.015.539-1.095-.52-.047-.438-.206.48-.518-.149-.655-.717-.804-.394-.948-.634-.418-.334-.153-.407.222-.336.267.31.617-.033.545.047.54.317.035.389-.135.312.095.181.284.047.366-.136.363-.288.18-.35-.012-.353-.196-.274-.28-.658-.154-.693.33-.66.671-.564.34.266-.498.126-.538-.274-.378-.644-.628-.15-.364-.033-.44.112-.436.662.5.34.623.487.274h.61l-.468-.916-.169-.231-.659-.41-.897-.693-.571-.333.202-.721.334-.143.284.034.953.255.09-.36-.14-.191-.073-.223.627-.313 1.027-.257.211-.12.183-.258.25-.135h.72l.604-.247.5-.67.119-.368.178-.307 1.247-.543.31-.083.833.067.761.307.376.646.33.691zm7.328-2.3.325.246.779-.1.096.069-.227.224-.343.22-.623-.164-.393-.01-.053-.369.047-.134zm2.097-1.141-.195.269-.594-.082.237-.233.184-.283.133-.06.112.307zm-22.15-.054-.436.272-.188-.417.191-1.18.82.242-.013.361zm34.095-.893.928.28.952-.08-.013 1.226.135.411.268.369-.138.536.43.184-1.276.612-1.153.812-.473.548-.43.587-.248.62-.161.67-.386-.265-1.11-1.084-.704-.298-1.13-.158-.36.034-2.324 1.014-.308.74-.634 1.118-.3.369-.333.106-.237.192-.26.953-.72.586-.441.02-.753-.16-.338.09.45-.94-.718-.113-.717.02-.02-.612-.435-.347.321-.45.007-.368.189-.202.067-.296-.027-.253-.443-.077-.27-.18.054-.666-.255-.027-.63.117-1.31.515h-.358l.55-.367 1.164-.504.523-.288 1.143-.808.718-.383.376-.678.116-.412.242-.362.214-.579.37-.193.643-.498.37.047.41.611.553.469.4-.04.71-.24.342-.055.82.027.739-.297.3-.351.112-.439-.274-.733.355.074.34-.034.802-.466.824-.277.856-.07.963.265zm-.04-1.526-.126.134-.12-.034-.427.308-.092-.296-.335-.196-.04-.154.966-.102.31.081zm3.9 1.313-.728.572-.629-.04-.317-.256-.105-.317.6-.497.518-.701.469-.312.38-.173.295.01-.666.978zm-37.245-.44-.136.323-.456-.23-.207-.207.421-1.016-.047-.386.027-.188.84-.532.144.102.054.147-.074.228.04.504-.63.832zm67.617-2.504-.072.316-.358-.07-.171-.205.02-.37h.377zm-40.862-9.919-.307.252-.574-.083-.331-.362.109-.408.601-.314.574.63zm33.393-10.865-.637.014-.16-.068.386-.166.034-.28.231-.494-.004-.143-.507-.027.027-.563.379-.556 1.04-.875.284-.164.04.382-.317.904-.06.326.816.069-.525 1.085zm19.372-23.839.266.127 1.253-.342-.239 1.03-.133 1.04.092 1.726.112.779.217.753.534.54.698.383 1.013 1.226.543 1.503.383.73.288.766.087.35.007.352-.086.48.095.388-.109 1.22-.453 1.41-.06.721-.395.144-.239.333-.204.154-.226.12-.329.026-.234.137-.094.382-.15.354-.287.326-.224.361-.185.878-.067.901-.277.63-.667.163-.764-.013-.98.292-.209.17-.773 1.1-.223.644-.007.693.215.853.292.834.221 1.552-.233 2.367-.223.756-.492.513-.373.237-.321.292-.416.772-.688 1.539-.054.386.003.4-.185.523-.122.513.114.597.211.559.924 1.434.362.424.406.387-1.576.427-.285.197-.936.818-.299.775.027.858-.158.307-.257.267-.268.177-1.046.394-.67.39-.667.611-.265.32-.513-.102-.3-.282.295-.355-.091-.418.146-1.076-.168-.432.535-.326.256-.522.557-.418.397-.37.07-.3-.356-.324-.378-.234-.521-.001-.504.069-.325.308-.109.42.027.195-.04.172-.79.575.103.602.232.306.295.145-.088.207-.376.486-.262.047-.483-.68-.602-.37h-.745l-.766.134-.582.452-.192.376-.123.388.04.944-.24.788-.473.692-.222.253-.576.47-.398.06-.285-.213-.229-.324.292-1.185-.014-.665.678-.339-.556-.473-.68-.19-.956.252-.27.284-.183.382-.514.484-.567.453-.64.772-.432.916-1.41-.3-.77-.067-.778.027-1.377-.113-1.513.187-1.721.36.103-.26 1.415-.55.053-.162-.135-.302-.353-.013-.846.106-.432-.047-.177-.324-.286-.14-.192.133.06.628-.209.084-.279-.162.09-.488-.191-.716-.02-.444.296-.382-.304-.16-.32.06-.408.182-.359.262-.76 1.306-.294.747.556.6 1.516.837.26.206.006.356-.184.379-.413.167-1.664.279-1.44.543-.416.55-1.312 2.127-1.05 1.453-1.483.503-1.628-.446-.393-.507-.32-.625-.604-.566-.546-.617-.319-.731.047-1.18-.236-.71.213-.189.898-.431.293-.242.507-.561.182-.313.027-.473-.407-.247-1.054.01-1.051.147-.75-.207-.974-.572-.301-.122-1.05-.034-.748.106-.736.209-.778.067-.259.109-.898.701-.713.442-.617.22-1.333.06-.667.142-.7.232-.195-.02-.736.321-.845.278-.453.28-.828-.183-1.64.5-.794.06-.82-.276-.759-.445-.73.19-.5.658-.242 1.31-.286.589-.087.708-.378-.112-2.196-1.275-.152-.047-1.775.22-.458.106-.572.258-.605.115-.552-.185-.527-.302-.507.09-.52.211-.199-1.92.1-.254.32-.337.351-.288.86-.099.87.093.622-.132.524-.38.554-.539.625-.439.846-.346.819-.397.719-.558.682-.609.627-.446.68-.375 1.038-.9 1.376-1.01.528-.749.328-.206 1.185-.418 1.57-.32.74.013.735.656.395-.09.4-.169.81-.094.831.109h.812l.812-.083 1.564-.215.822-.26.802-.335 2.862-.237 1.96-.563.311.04.302.13.02.417-.247.455.24.275.397.17 1.846.054.527.098.77-.311.726-.386.76-.507.53-.572-.49-.715-.107-.782.41-.847.597-.716.709-.431.652-.498 1.322-1.411.955-1.142.344-1.403-.202-1.66.834-1.235.798-.211 1.587-.563.833-.165.124.246-.027.322-1.245 1.036-.714.426-.427.132-.39.189-.162.364.634.61.162.451-.04.433.027.389.718.424.823.14.345-.004.302-.112.94-1.036.21-.18 2.68-.759 1.32-.58.728-.15.684-.303 1.533-1.166.568-.537.514-.594.41-.69.324-.748.445-.464 2.431-1.11.784-.603.249-.292.3-.847.209-.88.295-.69.399-.646.534-.659.6-.611.354-.628.515-1.5.227-.83.176-.3.26-.251.226-.318.172-.357.078-.353.112-1.079-.068-.838-.403-.71-.332-.202-.363-.013-.543.06-.462-.29.094-.255.471-.047.322-.133.23-.241.434-.774.26-.828.02-.366-.339-.668-.269-.803-.007-.433.294-.5.42-.405.377-.095.407-.027.37-.156.344-.228.194-.25.302-.682.116-.39-.19-1.042.196-.285.279-.177.372.134.38.027.444-.04.427.11.08.267.267 1.762.154.238.31.185.35-.027.303-.274.204-.365.402-.075 1.226.392.434-.28.283-.433.247-.766-.12-.692-.294-.255-.305.047-.268.19-.3.103-1.811.365.007-.771.387-1.154.214-.364.305-.174.76.2.375.134zm-11.736-4.756-.153.034-.16-.054-.155-.507.133-.268.432-.188.42-.053-.357.932zm12.18-20.4-.466.048-.542-.28-.067-.352.392-.28.39.104.391.362.129.188zm-1.495-1.433-.26.426-.349-.633-.07-.683.201.004.37.102.089.333zm18.475 8.164.84.033.376-.033.644.1 2.555 1.021.77.13.797.013.559-.081.492-.28 1.542-1.237 1.62-1.126.18.047v.309l-.118.346-.717 1.031-.798 1.389-.17.703.26.686.499.566.395.774.456 1.077.64.136.348.02.64-.322.607-.41.52-.048.55.07-.722.286-.68.35-.583.661-.217.125-.674-.04-.384.026-.788.277-.692.313-.66.384-.72.206-.768.047-1.184.314-.77.02-1.44-.274-.7.073-1.531.619-1.391.895-1.217 1.003-1.017 1.207-.408.63-.245.703-.033.465-.091.448-.235.312-.283.253-.838-.148-1.38-.645-2.672-.938-2.822-1.435-1.589-.72-2.985.215-2.824 1.375-.253-.117-1.08-.943-.522-.373-.625-.105-.464.013-.45.068-.639.485-.234.35-.182.396-.054.28.077.275.603.622.745.463.337.088.716-.034.332.047 1.199.93 1.312.872.29.288-.485.304-.532.15-.617-.04-.612-.114-1.051-.37-.45.315-.696.647-.386.703-.314.323-.771.425-.816.22-.426-.072-.326-.266-.184-.32-.093-.37.175-.801.422-.722.162-.736-.346-1.037-.22-.216-.866-.608-.4-.59-.099-.736.054-.407.212-.897.208-.453.4-.15.432-.089.668-.323.735-.42.702-.479.696-.586.364-.643-.598-.788-.122-.469.088-.443.634-.236.656.178 1.317.65.258.067.904.033 1.238.141.718-.033.344-.098.522-.538.257-.683-.094-.88-.005-.874.33-.711 1.033-1.144.295-.675.108-1.64.373-.721.3-.748.142-1.57-.424-1.509-.425-.74-.488-.702.072-.672.395-.622.007-.188.094-.165.74-.119.344-.133.33-.299.397-.176.29.175.239.306 1.042.754 1.64 1.347 1.935 2.053 1.213 1.001 1.278.908 1.433.928 1.5.8.958.377.701.602z" transform="translate(-341.214 -61.51)" id="path2" />
  </g>
</svg>
