<?xml version="1.0" encoding="UTF-8" standalone="no"?>
<svg width="216.386" height="71.145" version="1.1" id="svg6" sodipodi:docname="mongolia.svg" xmlns:inkscape="http://www.inkscape.org/namespaces/inkscape" xmlns:sodipodi="http://sodipodi.sourceforge.net/DTD/sodipodi-0.dtd" xmlns="http://www.w3.org/2000/svg" xmlns:svg="http://www.w3.org/2000/svg">
  <defs id="defs10" />
  <sodipodi:namedview id="namedview8" pagecolor="#ffffff" bordercolor="#666666" borderopacity="1.0" objecttolerance="10.0" gridtolerance="10.0" guidetolerance="10.0" inkscape:pageshadow="2" inkscape:pageopacity="0.0" inkscape:pagecheckerboard="0" />
  <g style="display:inline" id="g4">
    <path style="display:inline;fill:#36e738;fill-opacity:1;fill-rule:evenodd;stroke:#333;stroke-width:.5;stroke-linecap:round;stroke-linejoin:round;stroke-miterlimit:4;stroke-dasharray:none" class="polygon" d="m294.49 32.78-.63.932-1.259 1.87-1.066 1.584-.562.893-.412.68-.43.645-.06.388-.481.624-.895.753-.193.816.033.734-.074.659-.98.416-.768.372.218 1.248.395.471.64.51.67.407.582.345.642-.164.543-.525 1.05-.461.578-.014.41.106.907.034.93-.167.73-.034.943.112.34.11.792.204.855.443.597.497.435.095.223-.158.477-.44.674-.425.814-.696.616-.534.484-.081.932.002.42-.13.707-.067.621.198 1.738.104.465.273.824.812.466.435.808.218.49.15.432.117.432.21.103.254.173.388.265.224.489.219.373.133.12.282.116.138.34.197 1.01.839.492.225.745.486.31.403.02.423.191.324.499.485.236.327-.092.446.079.394-.193.407-.804.302-.274.143-.58.013-.982-.152-.954.086-1.14-.168-.897-.359-.48-.287-.759-.17-.36.089-.452.37-.499-.067-.458.067-1.182-.076-.643-.093-1.02.258-.574.081-1.08.318-.65.547-.486.131-.47-.026-.34-.201-.495-.244-.73.013-.218.103-.09.224-.24.677.003.305-.158.197-.432.067-.76-.02-1.189-.047-.803-.176-.485.076-.658.367-.467.06-.38.157-.309.542-.482.338-.586.417-.625.897-.346.51.108.277.077.335-.289.38-.59.353-.471.067-.708.341-.974.614-.725.514-.951.126-.672.13-1.49.16-.368.04-1.634.081-1.212-.278-.634.04-.565.157-.289.17-.1.325-.1.3-.458.463-.927.616-.763.41-.585.528-.336.192-.667.203-.361.108-.839.472-.668.42-.44.12-.532-.112-.35-.033-1.04-.163-.704-.02-.984-.104-2.301-.49-.738-.23-.655-.627-.59-.318-.801-.033h-1.204l-.539-.125-.903.118-.987.635-.467.472-.405.484-.495 1.035-.22.692-.17.392-.527.62-.06.349.183.301.38.34.225.536.557.57.545.442 1.028.715.291.375.346.43.075.419-.067.275-.37.21-.719.104-.345.292-.53.39-.628.45-.294.026-.351.12-1.775.557-.673.155-.533.184-.63.567-.495.422-.611.559-.269.248-.545.559-.716.64-.397.343-.216.205-.196.268-.748.208-.618.22-.932.332-1.338.364-1.08.352-.688.29-1.023.367-.693.119-1.398-.014-1.727.095-1.257.07-.945-.089-1.427-.047-1.093-.07-.73.135-1.722.143-.384.033-3.064.347-1.354.186-1.24.086-.913.135-.517.17-.765.242-.405.107-1.354.476-3.018.984-2.022.799-.331.137-1.362.562-.787.221-.548.502-.435.319-.46.137-.818-.324-.582.02-1.849-.117v-1.466l-1.296.207-2.067.33-1.922.307-1.755-.701-1.355-.542-1.175-.466-1.786-.309-1.555-.27-2.81-.442-1.234-.388-.625-.514-1.115-1.165-.361-.23-.544-.157-.562-.102-1.22.006-1.488-.09-2.145-.245-1.702-.195-2.905-.363-.689-.047-1.52.322-1.944.41-3.498-.322-1.548-.15-3.143-.308-3.553-.348-3.447-.36-2.502.199-1.394.11-1.61.158-.223-.177-.067-.689-.289-.533-.88-.576-.592-.548-1.126-.74-.355-.467-.119-.724-1.038-1.882-.645-1.273-.161-.259-.28-.414-.364-.216-.771-.133-.208-.225v-.44l.122-.607.155-.444-.111-.11-2.018.124-1.234-.294-1.034-.32-1.461-.816-.87-.316-1.11-.844-1.622-.2-.603-.33-.758-.724-.663-.463-.942-.292-1.49-.26-2.54-.249-.86-.104-1.403.166-1.041.014-1.686-.177-.96-.224-1.188-.006-.772.003-1.03-.053-.499-.146-.463-.178-.866.047-.606-.177-.565-.332-.589-.158-.647.014-.266.147-.247-.013-.161-.448-.604-.724-.092-.324-.37-.374-.219-.34.06-.47.262-.91.579-.824.38-.214.232-.243.488-.426.282-.34-.033-.465-.33-.485-.242-.627.047-.36.357-.428.419-.947-.034-.249-.165-.2-.04-.438-.081-.59-.505-.901-.273-.478-.476-.206-.56-.126-.485-.647-.607-.764-.38-.477-.133-.293-.06-.532-.285-.645-.298-.352-.223-.27-.113-.392-.117-.14-.82-.174-.59-.291-.246-.39-.085-.316-.175-.182-.464-.06-.324.281-.531.141-.357-.027-.353-.171-.217-.18-.368-.2-.52-.637-.549-.169-1.002.027-.897.295-.542-.047-.456-.1-.515-.318-.358-.262-.533-.086-1.05-.461-.712-.333-.06-.654-.334-.45-.692-.127-.698-.461-1.02-.249-.641-.193-.557-.116-.082-.174.033-.15.258-.25.266-.231.067-.216-.215-.19-.576-.2-.74-.177-.153-.296-.443-.309.077-.247.35-.18.356-.135.082-.232-.252-.214-.123-.324.06-.242-.073-.309.027.001.782-.013.358-.15.271-.222.586-.245.125-.282.007-.558.382-.472.975-.14.374-.068.396.068.617-.067.597-.027.333.145.437.123.562-.013.193-.223.02-.31.244-.08.303.214.17.16.253.074.68-.192.472-.207.154-.427.276-.21.37.106.648-.003.533-.329.7-.263.503-.12.103-.221-.237-.489.067-.535.674-.303.899-.033.666-.207.186-.57.327-.165.335-.067.811-.09.583-.232.36-.105 1.02-.312.928-.06.398-.25.312-.312.519-.12.53-.27.702-.345.276-.047 1.148-.2.449-.074.27-.047.498.014.211-.364.505-.267.505-.09.25-.266.485-.339.658-.188 1.023-.027.99.04.593-.06.49-.501.092-.249.113-.252.396-.097.481.41.404.256.62.265.322.25.367.034.385-.186.272-.455.518-.07.57.074.15.223.047.218.263.39.626.339.802-.02.322-.06.78.046.768.074.836.08.244.014.896.04 1.305.06.577-.027 1.177.111.241.302.217.715.185.682.053.547.306.284.391.093.258.22.455.302.337.431.407-.026.286-.102.626-.034.8.027.554.238.211.314.45.175.369-.054 1.096-.002.377.02.377.173.543.027.299-.219.944-.15.547-.311.42-.003.32.15.243.206.361-.092.195-.169h.316l.31.11.792.19.573.356.444.034.573-.104.264-.047.252.176.37.095.281-.13.48-.093 1.84.194.426.355.326.167.264.29.481.208 1.015-.071.393-.212.823-.47.325-.46.414-.148.468-.074h.435l.46-.013.554-.336.452-.117.668-.427.125-.194.323-.496.2-.317.339-.502.18-.81.104-.43-.089-.31-.396-.16-.507-.077-.444-.236-.33-.274-.191-.386-.264-.45.013-.326-.074-.252-.223-.214-.428-.378-.208-.281.07-.446.505-.762.047-.354.067-.22-.027-.2.158-.457.284-.192.325-.49.44-.225.547-.013.237-.134.118-.489.265-.377.177-.267.333-.29 1.932-.562.803-.698.285-.352.31-.756.298-.317.436.105.511.445.384.004.57.242 1.55.506.84.158.542.047.714.14.46.296.898.484.758.123 1.315.047 1.602.027.452.085 1.171.348 1.295.385 1.22.344.926.267.546.259.515.148.558-.127.716.027 1.68.31 1.06.26.89.193.295.267.027.355-.119.3.068.73.286.38.105.514.107.49-.075.483.135.256.278.151.269.337-.09.356-.118.207.02.333.323.275.472.053.42.07.517.433.92.498.551.139.633.223 1.207.22.82.066.485.178.474.43.784.088.504.149.917.177.607-.103.533-.149.359.027.687.098.807.02.678-.102.54-.302.63-.409.755-.207.873-.074.598-.166 1.957-.276.791-.047.612-.266.543-.208.785-.088 1.06.218 1.014.182 1.227.06.814.252.577.237.909.188 1.011-.087 1.383-.076.918.11.957.431.588.346.664.74.69.36.606.292.764.02 1.906.027 1.047.155.871.082.21.155-.088.509.027.727-.013.334.193.251.296.047.162.355.432.21.772.254 1.302.863.775.368.613.126.801-.086 1.255.002 2.127.003 1.457.26.503.177 1.489.205 1.639.227 1.379.236.816-.305.714-.027.683.22.682.333.528-.034.793-.155 2.527-.928.889-.346.622.088.555-.123.422-.104 1.08-.143.656-.04.679-.083.975-.054 1.984-.607.804-.119 1.359.168.732-.11.728-.306.945-.316.245-.512.484-.703 1.04-.517.85-.452.863-.44 1.062-.365 1-.266 1.272-.696 1.014-.352.506-.115.6.127 1.125.094.812-.027.458.08.916.34.831.3.636.53 1.185.743.607.25.431.102 1.066.07.872.033.52-.17.878-.31 1.4-.393.552.007.902.21 1.343.387.54.291z" transform="translate(-99.939 -17.144)" id="path2" />
  </g>
</svg>
