<?xml version="1.0" encoding="UTF-8" standalone="no"?>
<svg width="43.056" height="35.938" version="1.1" id="svg6" sodipodi:docname="north_korea.svg" xmlns:inkscape="http://www.inkscape.org/namespaces/inkscape" xmlns:sodipodi="http://sodipodi.sourceforge.net/DTD/sodipodi-0.dtd" xmlns="http://www.w3.org/2000/svg" xmlns:svg="http://www.w3.org/2000/svg">
  <defs id="defs10" />
  <sodipodi:namedview id="namedview8" pagecolor="#ffffff" bordercolor="#666666" borderopacity="1.0" objecttolerance="10.0" gridtolerance="10.0" guidetolerance="10.0" inkscape:pageshadow="2" inkscape:pageopacity="0.0" inkscape:pagecheckerboard="0" />
  <g style="display:inline" id="g4">
    <path style="display:inline;fill:#3c90e8;fill-opacity:1;fill-rule:nonzero;stroke:#333;stroke-width:.5;stroke-linecap:round;stroke-linejoin:round;stroke-miterlimit:4;stroke-dasharray:none" class="polygon" d="m349.693 101.85-.378.194-.02-.345.291-.29.303-.04zm34.052-23.086.304.082.405-.077.283.122.178.255.598.176.054.129-.014.858.329.402.437.363.601.33.323.076.192.235.183.408.429.397.226.289.04.3.197.17-.341.185-.452-.112-.75-.068-.959.589-.53.207-.376.579-.75.344-.408.366-.531.634-.349.612-.805.627-.47.787-.027.676.514.69.047.588-.36 1.21.2 1.285-.223.503-2.468.88-.645.438-.909 1.141-1.105.425-.686.466-.95.275-.609.803-.668.455-.794.277-.594.356-1.33.02-.939.248-.668.67-2.007.765-.273.58.133.892.013.683-.175.562-.44-.159-.236.184-.26.52.074.592.687.19.564.244.793.122.585.275 1.246 1.25 1.016.547.265.204.583.274.538.432.303.386-.237.105-.403.564-.377.717-.366.388-.42.215-.451.126-.898.054-.81-.047-.263-.078-1.114.047-.315.054-1.602-.054-.836.06-.532.14-.542.291-.467.436-.41.467-.837.853-.587.415-.002.6-.014.182-.206.127-.071-.054-.34-.047-1.361-.547-1.12.334-.283.435-.297.14-.446-.852-.729-.027-1.158-.75-.498.153-.127.302-.635.69-.888.569-.286.075-.328-.04.047-.157-.363-.64-1.402-.26-.505-.271-.255-.06 1.372-.715.36-.127-.269-.166-.296-.082-1.125.107-.59-.234-.857.074-.595-.186 1.233-.7.053-.413-.013-.313.626-.93.628-.514 1.627-.73.71-.1.513.026.421-.067-.442-.28-.432-.128-.841.027-.874-.42-.077-.444 1.694-2.798.027-.255-.265-.68-.086-.665-1.214-.382-.537-.047-1.559-.749-.622-.378-.244.112-.047.6-.222.132-.409.116-.206-.683-.337-.495-1.031-.502-.37-.278.177-.6-.087-.054.164-.672.634-.52 1.554-.924.4-.433.788-.51.355.012.367-.047.11-.222.085-.174.316-.159.758-.281.863-.37.688-.103.844-.556.344-.244h.345l.094-.114.196-.287.268-.188.374-.034.61-.135.767-.083.522-.466.177-.333.345-.367.733-.4.504-.59.558-.642.266-.204.261-.04.156-.242.178-.682.257-.663.153-.313.643-.342.165-.165.144-.054.3.047.4-.2.378-.222.344.077.35.184.366.368.16.292.29.244.054.355.288.156.612.077 1.004.242.65.013.37.182.776.098 1.55-.141.634.083.266.222.393.178.256.013.342-.304.366-.494.242-.377-.013-.3-.212-.322-.51-.3-.335-.464-.321-.48-.189-.155-.155-.233-.027-.357.111-.24.772-.162.991-.094.802.1 1.34-.068.82-.133.61.02.562-.003.25-.205.782-.495.379-.175.415-.336.067-.35.083-.282.234-.303.41-.374.35-.172.389.02.41.172.262.172.294-.047.244-.295.16-.053.47-.027.147-.18.18-.866.18-.682.041-.477.418-.79.131-.477.25-.222.289.02z" transform="translate(-345.703 -78.373)" id="path2" />
  </g>
</svg>
