<?xml version="1.0" encoding="UTF-8" standalone="no"?>
<svg width="33.576" height="36.906" version="1.1" id="svg6" sodipodi:docname="south_korea.svg" xmlns:inkscape="http://www.inkscape.org/namespaces/inkscape" xmlns:sodipodi="http://sodipodi.sourceforge.net/DTD/sodipodi-0.dtd" xmlns="http://www.w3.org/2000/svg" xmlns:svg="http://www.w3.org/2000/svg">
  <defs id="defs10" />
  <sodipodi:namedview id="namedview8" pagecolor="#ffffff" bordercolor="#666666" borderopacity="1.0" objecttolerance="10.0" gridtolerance="10.0" guidetolerance="10.0" inkscape:pageshadow="2" inkscape:pageopacity="0.0" inkscape:pagecheckerboard="0" />
  <g style="display:inline" id="g4">
    <path style="display:inline;fill:#6e59eb;fill-opacity:1;fill-rule:nonzero;stroke:#333;stroke-width:.5;stroke-linecap:round;stroke-linejoin:round;stroke-miterlimit:4;stroke-dasharray:none" class="polygon" d="m359.238 144.235-.302.148-.28-.089-.075-.07-.338-.384-.088-.198.227-.376.928-.62 2.403-.597.432-.027.949.256.202.478-.174.413-.218.277-1.099.467-.856.223zm2.86-7.522.114.32-.543-.06-.289-.308.04-.263.324-.04zm-3.486-.178-.43.102-.241-.23-.17-.06.097-.304.7-.596.136-.206.648.124.241.315-.298.48zm10.51-1.642-.076.208-.339-.314.335-.344zm-10.925-.78-.088.163-.293-.047-.3-.462-.124-.366-.3-.2.477-.319.605.572zm12.716-.501-.075.656-.474.034-.284-.423-.301.207h-.157l-.237-.526-.04-.411.559-.312.337.188.486.097zm4.533.047-.633.414-.854-.555-.203-.307.65-.45.55-.514.362-.034zm-15.6-11.374-.092.434-.445-.287-.128-.953.457.278zm30.204-6.62-.305.2-.361-.2-.047-.21.188-.184.439-.11.205.16zm-29.511-1.734-.034.887-.37-.04-.252-.09-.108-.173-.255-.823.284-.34.55.27zm12.447-5.953 1.64 3.003 1.568 1.941 1.337 1.406 1.904 2.706.558 1.447.054.897.318 1.233-.272.707.081 1.114-.12.572-.232.421-.007.81.074.433.007.574.15.224.218.083.346-.21.423-.086-.074.69-.512 1.748-.446 1.272-.604 1.109-.772 1.013-.922.397-.65.142-1.237.054-1.028-.172-.884.125-.355.211-.264.361.194.562-.027.414-.378-.034-.75-.241-.83-.034-.388-.119-.392-.593-.4.02-.694.351-1.064.078-.374.19-.133.247.155.31.536.409-.18.413-.558.207-.45-.509-.28-.498-.314-.027-.487.142-.099.538.227.366.374.425-.523.488-.138.348-.376.251-1.015-.556.144-.396.44-.38.054-.394-.145-.234-1.452.996-.895 1.128-.478-.082-.2-.29-.28-.118-.967.727-.178.577-.355.02-.156-.244-.013-.522-.166-.44-1.001-.643-.458-.561.246-.313.836.17.664-.02-.131-.266-.216-.126.441-.15.368-.307-.304-.083-.466.178-.388-.087-.154-.735-.472-.754-.244-.732.466-.421.237-.655.433-.948.217-.307.6-.223.214-.245-.33-.125-.526-.112.014-.273.358-.15.401-.301.778-.367.239-.692-.224-.174-.485-.165.109-.35.2-.266-.075-.16-.573-.45-.38-.41.113-.468-.087-.708.054-.594-.027-.322-.28-.726-.127-.726-.367.106-.297.18-1.061-.255-.334-.014-.137-.539.38-.665.902-.586.518-.072.392-.258.608-.081.732.397.657.08.364.687.224.145.047-.252.53-.296.127-.224-.115-.122-.61-.122-.547-.852-.076-.373-.2-.237.297-.68-.633-.778-.308-.244.047-.699-.33-.445-.185-.244-.113-.42.097-.19.289-.072.088-.177.207-.127.013-.183.002-.6.587-.414.837-.854.41-.466.468-.436.541-.291.532-.14.836-.06 1.603.054.314-.047 1.115-.047.263.077.81.047.897-.054.452-.126.419-.215.366-.387.377-.717.404-.565z" transform="translate(-356.843 -107.728)" id="path2" />
  </g>
</svg>
