<?xml version="1.0" encoding="UTF-8" standalone="no"?>
<svg width="24.952" height="23.047" version="1.1" id="svg6" sodipodi:docname="taiwan.svg" xmlns:inkscape="http://www.inkscape.org/namespaces/inkscape" xmlns:sodipodi="http://sodipodi.sourceforge.net/DTD/sodipodi-0.dtd" xmlns="http://www.w3.org/2000/svg" xmlns:svg="http://www.w3.org/2000/svg">
  <defs id="defs10" />
  <sodipodi:namedview id="namedview8" pagecolor="#ffffff" bordercolor="#666666" borderopacity="1.0" objecttolerance="10.0" gridtolerance="10.0" guidetolerance="10.0" inkscape:pageshadow="2" inkscape:pageopacity="0.0" inkscape:pagecheckerboard="0" />
  <g style="display:inline" id="g4">
    <path style="display:inline;fill:#eb59d0;fill-opacity:1;fill-rule:nonzero;stroke:#333;stroke-width:.5;stroke-linecap:round;stroke-linejoin:round;stroke-miterlimit:4;stroke-dasharray:none" class="polygon" d="m306.065 202.658.294.45-.124.275-.924-.147-.054-.269.35.067zm17.466 12.769-.416.787-.332.832-.134.786.007.81-.096.73-.163.724-.652-.209-.353-.517-.082-.85-.472-1.026-.178-.295-.68-.577-.62-.29-.48-.422h.061l-.354-.57-.268-.612-.555-1.725-.192-.417-.256-.382-.074-.376.088-.417.24-.624.146-.631-.118-.857.047-.848.18-.376 3.16-5.166.858-1.1.527-.537.44-.61.42-.77.514-.705.368-.215 1.813-.631.565-.604.454-.188h.514l.332.288.295.343.31.181.803.336.351.322.16.557-.488.524-.242.477-.047.524.087.71.013.713-.61 1.672-.656 1.042-.177.517-.2 1.288-.384 1.294-.329 1.639-.535 1.69-.303.706-.378.676-.904 1.277z" transform="translate(-305.007 -197.299)" id="path2" />
  </g>
</svg>
