<?xml version="1.0" encoding="UTF-8" standalone="no"?>
<svg width="500" height="270" version="1.1" id="svg16" sodipodi:docname="central_asia.svg" xmlns:inkscape="http://www.inkscape.org/namespaces/inkscape" xmlns:sodipodi="http://sodipodi.sourceforge.net/DTD/sodipodi-0.dtd" xmlns="http://www.w3.org/2000/svg" xmlns:svg="http://www.w3.org/2000/svg">
  <defs id="defs20" />
  <sodipodi:namedview id="namedview18" pagecolor="#ffffff" bordercolor="#666666" borderopacity="1.0" objecttolerance="10.0" gridtolerance="10.0" guidetolerance="10.0" inkscape:pageshadow="2" inkscape:pageopacity="0.0" inkscape:pagecheckerboard="0" />
  <g style="display:inline" id="g14">
    <path style="fill:#b5ddff;fill-opacity:1;stroke:none;stroke-width:.57123458;stroke-linejoin:bevel;stroke-miterlimit:4;stroke-dasharray:none;stroke-dashoffset:3.20000005;stroke-opacity:1" d="M0 852.52h500v270H0z" transform="translate(0 -852.52)" id="path2" />
    <path style="fill:#686868;fill-opacity:1;fill-rule:evenodd;stroke:#505050;stroke-width:.5;stroke-linecap:round;stroke-linejoin:round;stroke-miterlimit:4;stroke-dasharray:none;stroke-opacity:1" d="M-2 850.52v274h504v-274zm277.267 18.29 3.145.21 2.934 2.188 2.84.564 1.502.704c.012.01.036.012.048.024l1.338.564a.428.428 0 0 0 .12.024l1.267.258.024.024 1.15.165a.626.626 0 0 0 .212 0l1.314-.259a.45.45 0 0 0 .096-.024l.939-.352a.544.544 0 0 0 .211-.12l.47-.422.658-.28 2.675-.235.4.352 1.36 1.502.94 2.042c.006.012.01.036.023.048l1.596 2.817.587 1.126-.212.47a.523.523 0 0 0-.048.234v.985l-.072.845-1.032 1.103a.602.602 0 0 0-.048.798l.492.587a.597.597 0 0 0 .328.187l2.934.657a.57.57 0 0 0 .165 0l4.084-.234c.036.003.06.003.096 0l2.417-.517 1.315.188a.596.596 0 0 0 .305-.048l.751-.306a.608.608 0 0 0 .281-.28l.352-.68.446-.097.68.446.658.985a.667.667 0 0 0 .072.096l.516.517-.024.564a.568.568 0 0 0 0 .164l.259 1.08c.036.171.15.318.305.4l.517.258a.6.6 0 0 0 .517.024l.985-.399.657-.234a.618.618 0 0 0 .328-.306l.165-.328a.589.589 0 0 0-.048-.61l-.234-.328v-.024l.096-.024 1.29.12 1.949.187 2.347 1.456c.06.036.121.084.187.096l1.338.28c.036.004.06.004.096 0l.564.025h.096l1.244-.096a.588.588 0 0 0 .12-.024l1.502-.446c.036-.012.084-.024.12-.048l1.032-.54.073-.072.164-.12.234.024.12.048.025.024-.259.493-1.29.633-1.831.68a.612.612 0 0 0-.235.165l-1.126 1.244a.605.605 0 0 0-.14.281l-.259 1.314a.589.589 0 0 0 .12.47l.493.658c.012.024.036.048.048.072l.306.305.096.446a.596.596 0 0 0 .47.492l.423.073c.096.024.206.01.305-.024l.75-.259c.037-.011.085-.024.121-.048l2.018-1.244.939-.281 1.432-.187 2.417.096 1.526.375.704.516c.024.01.072.012.096.024l.892.493c.143.084.313.12.47.072l.61-.211a.589.589 0 0 0 .352-.259l.305-.563a.587.587 0 0 0 .096-.282v-.516l.12-.235 2.559-1.196 1.76-.822.446-.073 1.15.165a.551.551 0 0 0 .14 0l.776-.072a.513.513 0 0 0 .14-.048l2.019-.798c.012-.007.036-.011.048-.024l1.878-.916a.604.604 0 0 0 .329-.375l.187-.61c.011-.036.024-.06.024-.096l.024-.259.096-.048 2.512-.187a.45.45 0 0 0 .096-.024l.423-.12h.024l2.253-.634a.867.867 0 0 0 .072 0l3.122-1.103h.024l1.431-.61 2.676-.281a.548.548 0 0 0 .14-.024l.517-.188c.012-.007.036-.011.048-.024l.892-.423 1.502-.517-.187.47-.939 1.55-.328.234-2.582-.072a.6.6 0 0 0-.61.586v.47c0 .12.036.23.096.33l.446.703c.007.012.011.036.024.048l.328.4c.007.011.011.035.024.047l.352.353.048.048.751.61c.036.024.072.048.12.072l2.934 1.432 3.756 1.854 4.037 2.042 2.793 1.432 1.103.704.68.54 2.042 2.065 1.971 1.995 3.333 3.474 2.957 3.38 3.24 3.708 1.877 2.16 3.826 4.482 1.032 1.361 1.925 2.63 1.737 2.44 1.502 2.183a.62.62 0 0 0 .375.234l.962.212a.603.603 0 0 0 .727-.517l.048-.517.072-.096.282-.14.048-.049 1.056-.586.423-.12.798.072a.6.6 0 0 0 .258-.024l.939-.328a.595.595 0 0 0 .328-.281l.305-.61a.66.66 0 0 0 .096-.424l-.211-1.126c-.007-.012-.012-.036-.024-.048l-.096-.305.12-.165.28-.12.634-.165.61-.096a.608.608 0 0 0 .376-.211l.399-.47.728-.14.822.12h.096l.586.023.446.282.305.54a.613.613 0 0 0 .47.28l.728.049a.867.867 0 0 0 .073 0l.68-.024-.212.54-.399.632a.78.78 0 0 0-.072.235l-.096.563a.611.611 0 0 0 .352.61l.633.282a.54.54 0 0 0 .306.048l2.253-.234.446.072.14.258a.667.667 0 0 0 .072.096l.259.375.096.281-.188.446a.598.598 0 0 0 .165.658l.422.375c.108.108.25.16.399.164h2.018a.603.603 0 0 0 .12 0l1.362-.305 2.018-.024 1.878.633a.627.627 0 0 0 .258.024l1.362-.096c.024-.006.048-.011.072-.024l1.29-.234 1.925.164a.584.584 0 0 0 .258-.048l1.432-.516a.364.364 0 0 0 .14-.073l.986-.657.072-.072a.66.66 0 0 0 .096-.14l.235-.4.234-.12h1.761l1.197-.048a.582.582 0 0 0 .375-.14l.822-.705.61-.258 1.244-.072h.916l2.605.68 1.572.564 1.667.822.869.446.61 1.009a.66.66 0 0 0 .14.187l1.127.822.775.87.187.844a.36.36 0 0 0 .048.096l.751 1.784a.664.664 0 0 0 .188.258l.798.587c.096.072.225.12.352.12h.869l1.126.234h.024l1.22.188 2.7 1.29a.78.78 0 0 0 .234.073l.915.048.4.164.023.12-.234.54c-.06.15-.06.32 0 .47l.33.704c.035.06.071.12.12.165l.891.869.704.822.822.962.235.517a.66.66 0 0 0 .14.187c.072.072.162.12.259.14l.704.212a.611.611 0 0 0 .328-.024l.845-.234 1.384.188 4.6.586.4.048.328.423a.6.6 0 0 0 .516.234l.658-.048.727-.024 1.01.072a.574.574 0 0 0 .42-.14l.728-.564h.024l.517-.446 1.431-.563c.048-.024.084-.048.12-.072l1.244-.822.024-.024.916-.634.446-.072.14.048-.422.282c-.036.024-.097.048-.12.072l-.611.563a.6.6 0 0 0-.188.587l.141.563a.604.604 0 0 0 .564.446l.868.048.986.704 1.643 1.925c.024.048.084.084.12.12l.586.4c.024.023.06.047.097.071l.844.4c.048.023.096.035.14.047l.893.165.844.234.048.049a.603.603 0 0 0-.12 0l-2.182-.049a1.54 1.54 0 0 0-.097 0l-1.337.141-.634.096c-.072.024-.148.048-.211.096l-.916.47a.667.667 0 0 0-.096.072l-.657.493a.614.614 0 0 0-.212.281l-.281.822a.635.635 0 0 0 0 .422l.281.75-.399 1.644-.54.61-1.243 1.197-.634.212-1.29.211a.328.328 0 0 0-.073.024l-1.244.375-2.44.352-2.7.188a.596.596 0 0 0-.12.024l-.985.28a.585.585 0 0 0-.305.212l-.68.87c-.01.011-.012.035-.025.047l-.492.729c-.01.012-.012.036-.024.048l-.306.563c-.009.012-.011.036-.024.048l-.775 1.831c-.009.024-.011.072-.024.096l-.446 1.643a.472.472 0 0 0 0 .258l.423 2.019.306 2.183-.024.727c0 .12.036.23.096.329l.657 1.126.234.517-.096.61-.774.633a.55.55 0 0 0-.14.188l-.517.938-.328.282-1.361.164-1.455.14a.627.627 0 0 0-.259.097l-1.455.892-1.15.61-1.76.751-.54.096-.14-.12-.259-.75a.632.632 0 0 0-.234-.306l-.658-.4a.592.592 0 0 0-.28-.095l-.892-.024h-.024l-.68-.048-2.3-.212a.867.867 0 0 0-.073 0H458.2a.588.588 0 0 0-.12.024l-1.08.188-1.174.072-2.136-.305-1.384-.282-.916-.234-2.277-.798h-.024l-3.004-.938h-.048l-1.244-.282a.616.616 0 0 0-.33.024l-.726.282a.598.598 0 0 0-.375.445l-.12.54v.024l-.188 1.22-.305.727-2.089 4.084-.024.024-1.267 2.817-1.643 2.722a.422.422 0 0 0-.072.14l-.493 1.808-.962 2.253-.963 1.643c-.009.024-.011.048-.024.072l-.399.916a.515.515 0 0 0-.048.187l-.048.375a.6.6 0 0 0 .024.259l.187.517a.61.61 0 0 0 .352.374l1.503.564a.36.36 0 0 0 .096.048l1.455.33.072.023.072.282-.048.798-.234.797-.352.564-.235.188h-.164l-.822-.4-.87-.492a.43.43 0 0 0-.164-.072l-.68-.165a.767.767 0 0 0-.234 0l-1.737.281c-.012.007-.036.012-.048.024l-1.526.375h-.375l-.775-.211-.68-.375-.305-.822a.596.596 0 0 0-.258-.305l-.798-.47a.61.61 0 0 0-.54-.024l-1.032.446-3.169.75-3.52.94-2.16.445-.798-.072a.867.867 0 0 0-.072 0l-1.76.12h-.048l-1.526.258c-.024.006-.048.012-.072.024l-1.103.353-2.206.492-2.018.328a.636.636 0 0 0-.212.072l-1.29.751a.357.357 0 0 0-.097.049l-.916.727a.6.6 0 0 0-.234.54l.024.28c.024.176.13.33.281.423l.68.422a.36.36 0 0 0 .096.048l.774.352c.084.036.17.048.259.048l1.572-.072 1.409-.048 1.174.4c.012.01.036.01.048.023l.258.072-.072.072-.234.259a.606.606 0 0 0-.12.61l.023.096-.305.68c-.036.048-.096.108-.12.165l-.211 1.361a.59.59 0 0 0 0 .188l.211 1.338.14 1.15-.071.563a.63.63 0 0 0 0 .048l-.073.892a.608.608 0 0 0 .141.399l.423.517.4 1.079a.717.717 0 0 0 .14.211l.704.634 1.126 2.394.68 1.431.517 1.385-.33.633a.674.674 0 0 0-.072.305l.024.517a.604.604 0 0 0 .306.493l.563.33.235.632a.367.367 0 0 0 .072.141l.14.234-1.22-.234a.611.611 0 0 0-.328.024l-1.315.517-1.384.517a.585.585 0 0 0-.306.211l-.187.281a.625.625 0 0 0-.096.259l-.048.305a.585.585 0 0 0 .072.352l.164.281c.049.084.124.16.212.212l.586.328-2.065.704a.585.585 0 0 0-.305.211l-.564.751c-.012.024-.036.048-.048.072l-.446.845a.779.779 0 0 0-.072.235l-.048.47a.551.551 0 0 0 0 .14l.212 1.291c.007.012.01.036.024.048l.305 1.432c.005.036.011.06.024.096l.563 1.408.024.12-.096.096-.234.188a.602.602 0 0 0-.212.657l.212.704.12.422-3.403.187a.395.395 0 0 0-.12.024l-.845.235a.6.6 0 0 0-.281.187l-.024.024-.774 1.01-2.957.891-1.714.446-.633-.024a.632.632 0 0 0-.258.048l-1.737.798-4.859 1.901c-.024.01-.048.011-.072.024l-2.37 1.197-1.173.493c-.024.01-.048.012-.072.024l-.963.563a.59.59 0 0 0-.281.352l-.165.564a.605.605 0 0 0-.024.14l-.024.282-2.347 2.183-1.784.258-1.643-.096c-.06.01-.127.048-.187.072l-1.126.352-1.55.352-3.496-.258h-.072l-1.15.048-2.3-.328a.626.626 0 0 0-.212 0l-.939.187a.68.68 0 0 0-.164.048l-1.01.517a.622.622 0 0 0-.211.187l-1.338 1.901-.517.423a.46.46 0 0 0-.14.165l-.259.446c-.024.048-.036.108-.048.165l-.211.891-.446.87-.657.75c-.012.024-.036.048-.048.072l-.423.633-.87.634-.445.211-.422-.54a.602.602 0 0 0-.728-.187l-.61.259a.358.358 0 0 0-.097.048l-.423.258-.915-.096a.54.54 0 0 0-.235.024l-.704.187a.358.358 0 0 0-.096.048l-1.455.751-1.901-.048-.446-2.041c-.005-.036-.036-.06-.048-.096l-.4-1.08a.622.622 0 0 0-.21-.258l-.353-.258a.572.572 0 0 0-.305-.096l-.423-.024a.665.665 0 0 0-.305.072l-3.286 1.713-1.432.305-1.126.048-1.572-.492a.664.664 0 0 0-.375 0l-.352.14a.711.711 0 0 0-.212.14l-.305.282a.788.788 0 0 0-.14.234l-.141.352a.582.582 0 0 0 .024.47l.164.328a.333.333 0 0 0-.14 0l-1.056.235a.493.493 0 0 0-.188.072l-.798.47h-.024l-2.347 1.572-1.878.517-1.854.211h-.096l-.774.188a.68.68 0 0 0-.164.048l-.352.211a.61.61 0 0 0-.165.14l-.633.775a.666.666 0 0 0-.072.096l-.634 1.197-.328.563-.234.305a.592.592 0 0 0-.12.422l.048.446a.61.61 0 0 0 .164.33l.423.492.306 1.01-.024.072-.306.398-.445.375-1.126.282-.986.164a.604.604 0 0 0-.492.658l.048.54-.14 1.102-.188.798a.588.588 0 0 0 .12.47l.985 1.502c.024.012.048.036.072.048l.634.728c.024.036.072.072.096.096l.423.353-.446.187a.55.55 0 0 0-.235.187l-.28.306a.688.688 0 0 0-.12.187l-.121.375a.591.591 0 0 0 .048.493l.212.399.423 1.361c.011.036.048.084.072.12l.563 1.103a.594.594 0 0 0 .212.235l.822.516c.048.036.096.06.14.072l1.22.353a.513.513 0 0 0 .235.024l.657-.072a.617.617 0 0 0 .47-.306l.423-.704.517-.423.446.024h.048l1.01-.024 2.722.704 2.652 1.033.633.445.096.259-.633 1.29a.674.674 0 0 0-.072.306l.048.985a.513.513 0 0 0 0 .096l.165 1.08a.587.587 0 0 0 .14.258l.587.727.493 1.197.12 1.032c.01.108.048.216.12.305l.234.281.072.12-.258.798a.64.64 0 0 0 0 .048l-.234 1.033a.587.587 0 0 0 .12.492l.258.352c.048.06.096.109.165.141l.845.493 1.15.822.072.258-.188.212-.75.54-1.01.47-.281-.26-.073-.071-1.196-.845c-.024-.012-.049-.036-.073-.048l-.868-.446a.52.52 0 0 0-.328-.072l-1.55.14-.844-.14-1.126-.281a.707.707 0 0 0-.165-.024l-1.08.048a.618.618 0 0 0-.352.12l-.658.517a.366.366 0 0 0-.096.096l-.305.352-.845.14a.867.867 0 0 0-.072 0l-1.549.4-2.277.61h-.12l.072-.048a.591.591 0 0 0 .259-.328l.211-.564a.664.664 0 0 0 0-.375l-.165-.516a.596.596 0 0 0-.445-.422l-.751-.14-.259-.097-.328-.096c-.012-.01-.036-.01-.048-.024l-1.479-.305a.59.59 0 0 0-.187 0l-1.173.096a.473.473 0 0 0-.14.024l-2.066.657c-.012.01-.036.011-.048.024l-3.802 1.69c-.036.012-.084.024-.12.048l-1.667 1.15a.46.46 0 0 0-.14.165l-1.057 1.502-3.333.517a.513.513 0 0 0-.14.048l-2.465.985a.358.358 0 0 0-.096.048l-2.511 1.62-1.573.775-.633.14-.633-.14-.587-.306-.68-1.15-.68-1.995-.423-1.197.234-1.596.306-1.971.305-1.995.47-2.206.375-.774a.57.57 0 0 0 .096-.235l.024-.54a.598.598 0 0 0-.235-.516l-.375-.281a.602.602 0 0 0-.374-.14l-.774.023a.333.333 0 0 0-.14 0l-1.127.306-.61.072.024-.564.586-1.878a.595.595 0 0 0-.072-.492l-.916-1.643c-.036-.048-.072-.109-.12-.14a.453.453 0 0 0-.12-.097l-2.441-1.338a.43.43 0 0 0-.165-.072l-2.089-.446a.513.513 0 0 0-.234-.024l-.024.048-.024.024-1.713.4a.565.565 0 0 0-.235.095l-1.431 1.057a.46.46 0 0 0-.14.164l-1.15 1.667-1.15 1.338-1.198 1.032-.845.492c-.012.01-.036.011-.048.024l-.28.212a.558.558 0 0 0-.212.258l-.188.47a.582.582 0 0 0 .024.47l.61 1.314-.048.892-.563.727-.587.33-.657-.049-.54-.164-.422-.352a.646.646 0 0 0-.329-.12l-1.431-.096h-.12l-2.348.187a.473.473 0 0 0-.14.024l-1.596.493a.596.596 0 0 0-.234.12l-.87.798a.604.604 0 0 0-.164.305l-.258 1.056a.656.656 0 0 0 0 .306l.328 1.174-.12.657-.54.517-.47.305-.14.048-.751-.47-1.526-1.267c-.024-.01-.048-.011-.072-.024l-1.08-.705a.466.466 0 0 0-.21-.096l-.587-.12a.767.767 0 0 0-.235 0l-.328.096c-.024.01-.048.011-.072.024l-.352.12a.556.556 0 0 0-.187.12l-.188.188a.608.608 0 0 0-.164.212l-.073.14-.14.024-.564-.12a.626.626 0 0 0-.211 0l-.634.14a.618.618 0 0 0-.328.188l-.305.305-.938.446-1.878.54a.513.513 0 0 0-.14.048l-1.057.586a.609.609 0 0 0-.258.352l-.12.446-.282-.048a.592.592 0 0 0-.352.048l-1.549.774-.985-.212-1.338-.985-.68-.751-.048-.234-.072-.328a.594.594 0 0 0-.306-.4l-.633-.327a.675.675 0 0 0-.305-.072l-1.032.048-.47-.096-.235-.235-.024-.024a.6.6 0 0 0-.47-.164l-.915.12c-.06 0-.108.01-.165.024l-1.29.516-1.174-.234-1.408-1.103a.618.618 0 0 0-.281-.12l-2.91-.446h-.12l-3.686.258-.516.048-1.385-.258-2.84-.564-2.441-1.079-1.62-.728a.583.583 0 0 0-.47-.024l-.234.096a.811.811 0 0 0-.14.096l-.727.493a.567.567 0 0 0-.12.12l-.517.633a.602.602 0 0 0-.096.188l-.4 1.15-.469 1.032-2.629.048h-.024l-2.558.12c-.06 0-.108.01-.165.024l-1.666.54c-.024.01-.072.01-.096.024l-1.62.727a.6.6 0 0 0-.305.305l-.399.869c-.009.024-.011.048-.024.072l-.352 1.126-.938 2.558-.87 2.347a.64.64 0 0 0 0 .048l-.421 1.455-.564.87-1.69 1.266-2.018.892-1.08.446a.533.533 0 0 0-.233.14l-.493.54a.605.605 0 0 0-.14.281l-.049.188-.657-.096h-.12l-.916.096c-.036.01-.06.01-.096.024l-1.995.516-.024.024-2.136.658-2.511.633h-1.409a.333.333 0 0 0-.14 0l-.587.165a.635.635 0 0 0-.328.211l-.258.33a.604.604 0 0 0-.072.586l.258.633c.007.012.012.036.024.048l.234.446.049.14-.259.212a.608.608 0 0 0-.164.212l-.423.822c-.024.048-.036.096-.049.14l-.28 1.197-.634.305h-.024l-1.455.727c-.012.01-.036.012-.048.024l-1.596.916-.352.165-.774.211-.798-.072-.822-.12a.473.473 0 0 0-.259 0l-.938.234a.543.543 0 0 0-.212.12l-.563.423-.096-.352a.622.622 0 0 0-.165-.258l-.47-.47-.072-.072-1.479-1.056-.048-.048-1.267-.751a.627.627 0 0 0-.259-.096l-.563-.048a.333.333 0 0 0-.14 0l-1.15.187-1.362.14-1.08-.14-.798-.258-1.315-.963-.492-.516-.4-.446a.604.604 0 0 0-.516-.188l-.517.072-.024-.072-.024-.258.235-.564a.641.641 0 0 0 .048-.258l-.096-1.267a.564.564 0 0 0-.097-.282l-.54-.985a.594.594 0 0 0-.21-.187l-.235-.141.165-.375.328-.517a.626.626 0 0 0 .096-.328v-1.103a.58.58 0 0 0-.024-.211l-.423-1.104-.165-1.596.12-1.619a.612.612 0 0 0-.12-.399l-.61-.845a.601.601 0 0 0-.47-.258h-4.976l-4.178.048-.072-.024-1.667-2.042v-.024l-1.384-1.596a.574.574 0 0 0-.12-.12l-1.362-.939a.424.424 0 0 0-.14-.072l-3.146-1.15-.024-.024-1.408-.446-1.197-.822-.869-.822-.234-1.126a.516.516 0 0 0-.048-.14l-.212-.446a.47.47 0 0 0-.096-.12l-.305-.375a.552.552 0 0 0-.187-.14l-.33-.165a.623.623 0 0 0-.328-.048l-.234.024-3.52-1.502c-.025-.01-.049-.011-.073-.024l-1.455-.4a.656.656 0 0 0-.305 0l-1.338.306-.446.048-1.056-.4a.634.634 0 0 0-.446.025l-1.29.563-.4.024-.727-.14-.54-.165-1.736-1.361a.43.43 0 0 0-.165-.072l-1.549-.586h-.024l-1.103-.353c-.012-.01-.036-.012-.048-.024l-2.136-.54a1.54 1.54 0 0 0-.096 0l-2.253-.28-1.104-.212-.61-.234v-.212a.64.64 0 0 0 0-.048l-.048-.68a.633.633 0 0 0-.096-.258l-.281-.493c-.024-.048-.048-.084-.072-.12l-.587-.586a.515.515 0 0 0-.14-.12l-.798-.446c-.097-.06-.212-.12-.329-.12l-1.36.12-1.972-.048-1.502-.446a.427.427 0 0 0-.12-.024l-1.268-.096a.867.867 0 0 0-.072 0l-1.502.096h-1.22c-.073.01-.147.06-.212.096l-.869.305a.666.666 0 0 0-.165.096l-.516.375a.608.608 0 0 0-.212.305l-.258.939-.328.048-.634-.048h-1.479l-2.488-.212h-.024l-3.169-.048a.333.333 0 0 0-.14 0l-2.394.587a.36.36 0 0 0-.097.048l-1.877.821c-.012.01-.036.011-.048.024l-1.808.963c-.024.01-.048.012-.072.024l-2.089 1.502a.366.366 0 0 0-.096.096l-.633.658a.45.45 0 0 0-.096.14l-1.174 2.511-.375.259-.564.234-.633.072h-.14l-1.432.4c-.012.01-.036.01-.048.023l-1.878.633-1.174.235-3.262-.14a.602.602 0 0 0-.61.726l.445 1.948v.024l.775 2.723.096.492-.072.282-.211.14-.564.048h-.072l.493-.281c.548-.305.322-1.14-.306-1.126H92.13a.867.867 0 0 0-.072 0l-4.742.751h-.024l-14.176 2.957-5.022.072-7.629-1.502-2.23-.798-4.646-2.394-2.23-1.549-1.432-2.183a.357.357 0 0 0-.048-.096l-.47-.492-.024-.024a.666.666 0 0 0-.096-.072l-.563-.328a.43.43 0 0 0-.165-.072l-1.784-.446c-.024-.01-.048-.011-.072-.024l-3.051-.423h-.048l-3.028-.188-1.103-.258-2.3-.916-.939-.704-.704-1.174-.61-1.29-.4-1.433-.28-1.502-.353-2.957-.024-.281v-.024l.024-.024a.513.513 0 0 0 0-.096l-.211-4.507.024-.14.797-1.385c.024-.036.049-.072.073-.12l.375-1.268.211-.234.423.211v.282a.59.59 0 0 0 .048.28l.165.306a.602.602 0 0 0 .845.258l.516-.329a.61.61 0 0 0 .165-.14l.423-.493c.048-.06.072-.136.096-.212l.798-2.37.423-.375.446-.212a.602.602 0 0 0 .328-.492l.072-.587a.582.582 0 0 0-.048-.258l-.446-1.15-.024-1.056 1.032-2.676c.01-.024.012-.048.024-.072l.728-2.863.729-1.057 1.244-.586 1.408-.446 1.455-.328 2.558-.072 2.606.517a.6.6 0 0 0 .68-.845l-.727-1.596a.715.715 0 0 0-.14-.212l-.705-.586c-.024-.012-.048-.036-.072-.048l-.774-.517a.36.36 0 0 0-.096-.048l-.751-.352c-.024-.01-.048-.012-.072-.024l-1.55-.517a.966.966 0 0 0-.187-.024l-1.643-.048-.775-.072-.564-.211-1.877-1.267-1.15-.963-2.7-2.652-.539-.939-.352-1.174c-.007-.012-.011-.036-.024-.048l-.446-1.01a.367.367 0 0 0-.072-.14l-.68-.869-.024-.024-2.723-3.074-.024-.024-1.924-1.878a.366.366 0 0 0-.096-.096l-1.104-.704a.613.613 0 0 0-.211-.072h-.024l-.798-.517c-.036-.024-.084-.036-.12-.048l-.54-.211-.352-.235-.892-1.431-.024-.024-.891-1.22-.024-.025-1.807-2.089-.024-.024-3.099-3.145a.66.66 0 0 0-.14-.096l-.587-.352-.28-.258-.212-1.338a.581.581 0 0 0-.12-.281l-.892-1.126c-.048-.048-.108-.084-.165-.12l-1.22-.751-.4-.329-.095-.12.516-1.924a.706.706 0 0 0 .024-.165v-.633a.598.598 0 0 0-.024-.12l-.234-1.22.212-1.386.68-2.018.704-1.408c.024-.048.036-.096.048-.141l.212-.938a.601.601 0 0 0-.892-.658l-1.01.61a.605.605 0 0 0-.258.306l-.399 1.103-.048-.328a.444.444 0 0 0-.024-.096l-.798-2.558a.357.357 0 0 0-.048-.096l-.657-1.315a.367.367 0 0 0-.072-.14l-.939-1.057a.573.573 0 0 0-.12-.12l-1.268-.822-1.15-.962a.43.43 0 0 0-.164-.072l-1.291-.54a.605.605 0 0 0-.14-.024l-1.784-.375-.141-.14-.096-.328.096-.493.375-.939.869-.61 1.361-.751a.593.593 0 0 0 .234-.212l.259-.423.493.235a.6.6 0 0 0 .821-.353l.353-.985.47-.633.68-.61a.511.511 0 0 0 .12-.141l.869-1.479.633-.775a.424.424 0 0 0 .072-.14l.47-.916a.55.55 0 0 0 .072-.188l.187-1.103.141-.072a.464.464 0 0 0 .165-.072l.399-.259c.06-.048.121-.096.164-.164l.305-.423a.453.453 0 0 0 .097-.14l.164-.47a.64.64 0 0 0 .048-.259l-.024-.399.282.234a.601.601 0 0 0 .985-.305l.14-.633.141-.12.517.164c.048.024.096.06.14.072l.798.024a.608.608 0 0 0 .188-.024l.211-.072v.048l.048.658c0 .084.011.16.049.234l.586 1.126c.204.369.714.44.985.12l.188-.211a.587.587 0 0 0 .14-.352l.049-.798a.584.584 0 0 0-.049-.259l-.423-.962.87-.235 1.243-.164c.048-.01.096-.048.14-.072l1.175-.493c.036-.012.108-.024.14-.048l2.63-1.807.398-.048.4.048.492.28a.926.926 0 0 0 .12.073l.633.187a.528.528 0 0 0 .306.024l.47-.096a.562.562 0 0 0 .352-.211l.234-.281a.601.601 0 0 0 0-.775l-.493-.564-.12-.446-.024-.12.14-.048h.752a.608.608 0 0 0 .187-.024l3.24-1.08a.539.539 0 0 0 .257-.187l.375-.47c.06-.06.12-.133.141-.211l.048-.234 1.032-.097a.602.602 0 0 0 .54-.775l-.165-.54a.598.598 0 0 0-.446-.421l-.54-.12-2.651-1.103-.024-.024-2.23-.774-1.948-.704-.234-.097-.4-.258-.234-.33-.024-.258.048-.096.212-.14.352-.072.328.048.47.234c.024.01.048.011.072.024l1.01.305c.048.024.096.036.14.048l1.291.049a.58.58 0 0 0 .212-.024l.797-.235a.595.595 0 0 0 .423-.47l.097-.586a.586.586 0 0 0-.097-.47l-1.525-2.16-.024-.023-1.408-1.737-1.338-1.925-.048-.048-.564-.704-.048-.048-1.69-1.62-1.62-1.596-1.314-1.408-.072-.072-.048-.048-.68-.423a.662.662 0 0 0-.258-.12l-2.113-.188-4.013-.352-1.408-.164a.62.62 0 0 0-.282.024l-1.126.446-.869.258-.775-.446-.75-.892-.306-.586.165-.633a.605.605 0 0 0 .024-.14l.072-1.292a.588.588 0 0 0-.048-.305l-.658-1.267a.66.66 0 0 0-.14-.188l-.728-.61a.79.79 0 0 0-.235-.14l-1.784-.447-2.018-.938-.47-1.479 1.01-2.488 1.666-1.83 1.244-.774c.048-.037.096-.073.14-.12l.634-.729a.498.498 0 0 0 .12-.211l.187-.61a.585.585 0 0 0 .024-.353l-.164-.586a.635.635 0 0 0-.212-.328l-.775-.634a.363.363 0 0 0-.096-.048l-1.103-.563-.352-.47.187-1.291.775-2.23 1.104-1.69 1.525-.962 1.408-.727a.544.544 0 0 0 .188-.165l.563-.68a.636.636 0 0 0 .141-.375l.024-.963v-.048l-.048-.75.258-.447.517-.446.586-.445.752-.47.891-.096 1.08.352 1.619 1.079 2.488 2.23 1.431 1.478c.012.01.036.012.049.024l.516.47.048.048 1.338.892c.048.036.108.06.165.072l1.197.352a.512.512 0 0 0 .328 0l1.995-.54.024-.023 1.901-.634a.366.366 0 0 0 .14-.072l.634-.423c.06-.048.121-.096.165-.165l.399-.61a.595.595 0 0 0 .072-.493l-.306-1.056c-.011-.036-.024-.084-.048-.12l-.399-.657-.399-.845-.563-1.409-.4-2.3v-.024l.141.024c.012.01.037.012.049.024l.868.073a.59.59 0 0 0 .282-.049l1.267-.516c.024-.012.048-.036.072-.048l1.713-.963 3.169-1.502a.594.594 0 0 0 .234-.212l.68-.985c.013-.024.037-.048.049-.072l.47-.986.657-.492 1.854-.212h.024l1.878-.352a.636.636 0 0 0 .211-.072l1.267-.751 1.972-.68 1.69-.4a.513.513 0 0 0 .14-.047l.751-.4a.612.612 0 0 0 .165-.14l.493-.563 1.9-1.573 1.503-.985c.012-.007.036-.012.048-.024l1.338-1.033c.06-.036.096-.084.14-.14l.235-.352.657.096 1.596.422h.024l1.69.399.986.492.164.4.12.492c.048.162.155.3.306.375l.516.281a.523.523 0 0 0 .235.048l.61.072a.551.551 0 0 0 .14 0l.892-.14 1.596-.024a.729.729 0 0 0 .212-.048l2.018-.845.024-.024 2.7-1.385 2.347-.399 1.056.258.985.939.87.963c.06.072.129.126.21.164l.892.352a.523.523 0 0 0 .235.048l.54.024h.187c.06.008.108.008.164 0l1.033-.211h.024l.938.024.916.305a.707.707 0 0 0 .164.024l1.643.072c.036.003.06.003.096 0l2.277-.28a.715.715 0 0 0 .188-.049l.072-.048.869.14 1.22.422.916.47 1.784 1.713a.69.69 0 0 0 .187.12l1.056.47c.024.01.048.012.072.025l2.113.61.915.493 1.126.844.61.54.025.024 1.244.963 1.338 1.431.234 1.126V927l.352 1.08a.534.534 0 0 0 .14.235l.025.024.54.517a.61.61 0 0 0 .329.164l.47.073a.57.57 0 0 0 .28-.049l.493-.164a.715.715 0 0 0 .212-.14l.492-.493a.616.616 0 0 0 .141-.306l.188-.845a.568.568 0 0 0 0-.164l-.141-1.455a.588.588 0 0 0-.024-.12l-.399-1.197a.601.601 0 0 0-.187-.282l-.4-.305v-.024l.025-.024.47-.14.821.12 1.62.657 1.69.822 2.136 1.479c.036.024.06.06.096.072l1.995.962c.012.01.036.012.048.024l2.183.751c.036.024.108.036.14.048l1.737.212a.57.57 0 0 0 .165 0l1.338-.234a.596.596 0 0 0 .12-.024l1.596-.634h.048l1.455-.728a.613.613 0 0 0 .165-.14l.657-.752a.667.667 0 0 0 .072-.096l.399-.68 2.018-1.01 1.808-.915.633.14.586.235c.13.072.282.084.423.048l2.019-.61.657-.165 1.83-.211 1.808.305 1.479 1.01a.36.36 0 0 0 .096.047l1.572.704c.085.037.186.06.282.049l1.384-.097a.548.548 0 0 0 .141-.024l1.15-.352c.072-.024.15-.096.212-.14l.775-.68a.366.366 0 0 0 .096-.096l.492-.705.564-.375 2.324.259a.603.603 0 0 0 .12 0l1.549-.024a.594.594 0 0 0 .305-.096l1.737.164 2.089 1.033 1.338 1.196 1.807 1.573c.024.012.048.036.072.048l.845.517c.06.048.136.084.211.096l1.22.211h.049l.916.12 1.267.235c.012.009.036.011.048.024l3.31.305.28.12-.164.423a.603.603 0 0 0 .212.68l.305.212a.596.596 0 0 0 .47.12l2.746-.633a.582.582 0 0 0 .187-.072l.728-.446a.543.543 0 0 0 .188-.165l.892-1.314.024-.024.75-1.22.424-.33.352-.072.375.12.798.68.048.048 1.22.798a.57.57 0 0 0 .234.097l1.643.28.024.025 1.01.12h.048l1.549.048c.036.003.06.003.096 0l3.661-.375a.45.45 0 0 0 .096-.024l3.45-.938c.037-.012.085-.024.12-.049l1.949-1.056a.594.594 0 0 0 .234-.211l.916-1.55c.024-.035.036-.083.048-.12l.54-1.666.797-1.032a.606.606 0 0 0 .12-.564l-.374-1.126a.624.624 0 0 0-.259-.329l-1.713-1.08-.024-.023-.586-.33a.611.611 0 0 0-.212-.072l-3.896-.563-.12-.188a.56.56 0 0 0-.281-.258l-.235-.096c-.036-.01-.06-.024-.096-.024l-4.13-.963-1.808-.375-.352-.398-.328-.752a.57.57 0 0 0-.259-.28l-1.29-.752c-.048-.024-.096-.036-.141-.048l-2.347-.633 1.784-.493c.036-.012.084-.024.12-.048l2.253-1.173.751-.211 1.995-.072a.547.547 0 0 0 .259-.097l1.877-.985 1.291-.54a.662.662 0 0 0 .188-.14l.68-.657a.644.644 0 0 0 .164-.587l-.187-.704a.586.586 0 0 0-.14-.258l-1.831-2.019-.422-.962.187-.446.963-.798.61-.493a.667.667 0 0 0 .096-.072l.727-.869.306-.305 1.69-.165 2.276-.096 1.55.212h.047l2.207.12 2.018.164 1.01.141a.62.62 0 0 0 .28-.024l.752-.281a.557.557 0 0 0 .187-.12l.564-.47a.667.667 0 0 0 .072-.096.58.58 0 0 0 .14-.4l-.023-.633a.626.626 0 0 0-.259-.423l-.775-.633a.639.639 0 0 0-.211-.096l-2.934-.774-1.22-.633a.678.678 0 0 0-.306-.072l-.963.072-1.572-.188-1.455-.421a.428.428 0 0 0-.12-.024l-1.08-.12-.096-.12.14-.4.282-.258.751-.188.963.12a.57.57 0 0 0 .234-.023l1.174-.352a.364.364 0 0 0 .14-.073l.329-.187a.605.605 0 0 0 .258-.305l.096-.259a.589.589 0 0 0-.024-.492l-.187-.375a.654.654 0 0 0-.235-.235l-.54-.329a.782.782 0 0 0-.233-.072l-.776-.072a.767.767 0 0 0-.234 0l-.845.258-.915.141-1.667-.352-.563-.165.423-.258a.992.992 0 0 0 .14-.12l.47-.517a.634.634 0 0 0 .165-.305V888.4l.258-.68.798-.517 1.01-.281 3.027.61c.012.01.036.011.048.024l3.967.564c.06.008.108.008.164 0l.704-.096a.587.587 0 0 0 .4-.259l.14-.187.188-.12 5.35-.141a.608.608 0 0 0 .188-.024l1.08-.375a.357.357 0 0 0 .095-.048l.423-.234 5.164-.422a.564.564 0 0 0 .281-.096l.61-.375.611-.305h1.08a.867.867 0 0 0 .071 0l1.455-.165c.037.003.06.003.097 0l1.995-.47 1.408-.234.165-.024 1.455.096c.06.008.108.008.164 0l1.878-.375a.45.45 0 0 0 .096-.024l.423-.14a.557.557 0 0 0 .187-.12l.212-.212 1.455-.47 2.957-.423.634.234a.605.605 0 0 0 .14.024l1.502.12a.825.825 0 0 0 .141 0l1.878-.187a.729.729 0 0 0 .12-.024l1.22-.281.633.258a.867.867 0 0 0 .073 0l1.103.352a.663.663 0 0 0 .375 0l.844-.305a.594.594 0 0 0 .353-.305l.399-.892.423-.704.704-.328.68-.14a.598.598 0 0 0 .164-.049l.658-.352a.356.356 0 0 0 .096-.048l.328-.259 2.582.072a.729.729 0 0 0 .211-.048l2.16-.775.234.188a.586.586 0 0 0 .399.14l3.215-.096a.867.867 0 0 0 .072 0l3.99-.586 2.394-.259v-.024l4.131-.586c.024-.006.048-.011.072-.024l1.878-.493 2.676-.305 2.511-.211a.634.634 0 0 0 .212-.072l1.549-.798 1.173-.141 1.596-.072c.036.003.06.003.096 0l.985-.212a.513.513 0 0 0 .14-.048l.658-.328a.812.812 0 0 0 .14-.096.667.667 0 0 0 .073-.096l.423-.586a.613.613 0 0 0 .096-.517l-.234-.727.445-.12 1.573-.096h.048l1.032-.141a.634.634 0 0 0 .212-.072l2.213-1.161 1.479-.564z" transform="translate(0 -852.52)" id="path4" />
    <path style="fill:#fff;fill-opacity:1;fill-rule:nonzero;stroke:#505050;stroke-width:.5;stroke-linecap:round;stroke-linejoin:round;stroke-miterlimit:4;stroke-dasharray:none;stroke-opacity:1" class="polygon" d="m49.208 996.875-.43.339-.641-.048-1.204-1.278.335-1.295.436-.266.607-.181.084.285-.857.579-.072.732.713.812zm1.529-1.411-.415.162-.253-.767.466-.643.658-.084-.226 1.017zm28.488-5.285-.211.127-.8-.324-.528-.55.656-.649.61.12.4.689zm209.156-117.345 1.142.172 1.333-.254.938-.344.55-.492.83-.35 3.025-.275.629.529 1.44 1.6.98 2.133 1.616 2.83.713 1.39-.317.73.007 1-.097 1.098-1.194 1.244.485.58 2.924.648 4.094-.237 2.527-.522 1.407.19.734-.313.477-.923.97-.206.998.642.725 1.09.695.702-.048.834.256 1.072.51.272 1.004-.408.669-.242.16-.326-.284-.403-.136-.407.223-.375.474-.153 1.427.12 2.08.207 2.467 1.521 1.328.277.561.024 1.251-.084 1.502-.44 1.014-.548.336-.27.582.049.552.253.037.555-.44.803-1.499.734-1.86.683-1.126 1.253-.24 1.308.495.663.422.445.12.622.422.084.757-.256 2.08-1.29 1.06-.319 1.535-.203 2.52.096 1.698.421.81.585.892.482.615-.202.32-.556.011-.637.259-.523 2.758-1.287 1.835-.857.632-.096 1.228.178.76-.096 2.019-.807 1.884-.917.184-.62.072-.562.47-.254 2.64-.197.432-.108 2.257-.64 3.123-1.088 1.515-.642 2.762-.284.513-.185.918-.433 1.729-.599.936-.072-.58 1.449-1.033 1.675-.581.447-2.8-.072.006.456.439.7.314.394.34.353.753.61 2.944 1.44 3.746 1.833 4.048 2.059 2.826 1.438 1.141.741.728.58 2.086 2.093 1.977 1.986 3.334 3.5 2.956 3.382 3.252 3.72 1.882 2.155 3.847 4.506 1.027 1.384 1.948 2.62 1.721 2.457 1.521 2.174.958.197.072-.59.172-.393.491-.22 1.118-.643.603-.153.9.06.941-.327.344-.617-.224-1.141-.145-.525.32-.565.516-.221.718-.178.658-.096.541-.638 1.02-.194.934.12.773.024.681.465.379.637.734.048 1.207-.06.166.535-.344.892-.419.69-.072.555.638.27 2.338-.241.83.12.263.56.33.466.168.57-.242.63.415.377 2.018.009 1.42-.304 2.183-.024 1.975.667 1.369-.109 1.375-.27 2.014.172 1.415-.528.977-.658.308-.52.508-.287 1.901.003 1.204-.048.883-.76.811-.344 1.364-.06h1.005l2.693.706 1.638.584 1.707.83 1.026.522.687 1.176 1.166.866.922 1.012.223.999.76 1.793.787.59h.933l1.18.245 1.3.197 2.784 1.335 1.023.036.786.32.122.614-.294.711.308.684.91.871.722.852.884 1.032.27.59.713.196.958-.294 1.524.223 4.591.587.638.072.49.614.664-.048.762-.024 1.056.072.737-.565.603-.495 1.51-.613 1.252-.833 1.057-.737.784-.097.64.344.024.638-.785.468-.614.564.146.565 1.057.048 1.174.85 1.692 1.993.578.418.837.393.93.178 1.028.283.76.823.312.744-1.116-.241-2.18-.048-1.329.147-.626.085-.933.491-.663.492-.294.835.35.944-.478 1.966-.651.74-1.374 1.285-.795.279-1.33.23-1.285.38-2.518.37-2.719.19-.967.276-.687.88-.488.736-.303.559-.77 1.828-.437 1.637.428 2.033.321 2.259-.024.778.663 1.156.337.71-.159 1.005-.954.796-.572 1.054-.54.448-1.555.202-1.464.125-1.478.903-1.18.625-1.851.795-.867.149-.482-.404-.318-.901-.636-.397-.893-.036-.72-.01-2.326-.245-1.486.012-1.12.193-1.274.096-2.204-.328-1.425-.278-.96-.267-2.29-.786-3.01-.936-1.235-.274-.73.28-.109.536-.192 1.297-.35.811-2.103 4.105-1.295 2.857-1.648 2.74-.521 1.837-.986 2.33-.98 1.687-.395.92-.036.375.175.527 1.502.577 1.572.353.35.22.17.598-.06.977-.289.927-.457.728-.45.36-.515.023-.985-.467-.88-.522-.682-.158-1.729.29-1.604.397-.532.012-.93-.255-.935-.527-.37-1.02-.804-.462-1.08.463-3.213.776-3.538.927-2.247.478-.88-.072-1.746.108-1.51.258-1.131.36-2.244.493-2.031.33-1.31.75-.941.724.036.277.683.429.78.336 1.57-.072 1.53-.048 1.271.454 1.137.29.313.38-.313.367-.66.084-.23.259.12.343-.43.9-.225 1.365.223 1.344.125 1.24-.072.625-.048.89.487.601.429 1.147.773.717 1.172 2.488.689 1.453.637 1.648-.462.89.024.516.745.43.327.84.345.514-.096.512-.32.198-1.612-.31-1.322.511-1.403.513-.189.273-.036.298.145.262.81.46 1.118.285-.06.46-1.381.212-2.088.703-.577.754-.447.828-.036.481.21 1.288.318 1.43.592 1.504.048.467-.314.331-.283.214-1.66-1.357-1.805-1.324-1.414-.304-2.463-.218-1.301-.011-.744-.312-.727-.765-.869-.692-1.112-.736-.459-1.117-.459-.2-.802.142-1.345-.036-.755-.096-1.125-.191-1.793-.456-1.419-.43-1.781-.085-1.032.084-3.208.084-2.661-.453-2.154-.084-1.325.024-.635-.06h-1.09l-1.599-.096-2.141-.697-.832-.036-.529.024-3.575.513-1.65.12-3.498-.06-3.436-.06-1.104-.108-.61.06-1.296 1.231-.554.191-3.238-.269-3.828-.81-2.765-.887-2.347-.937-3.105-1.48-1.86-.733-.268.422-.492.135-.717.06-1.646-.072-.76.75-2.012.538-1.28.48-.671.542-1.275 3.603-.34 1.316.854 2.217-.977-.129-1.148-.567-.398-.446-1.107-.274-4.034-.412-.754-.509-.473-.413-1.043-.27-1.478-.208-3.213-.96-1.37-.036-4.146-.74-.676.01-.31.037-1.61.483-1.04.14-1.108-.194-1.988.596-1.073.794-.887.972-.85.614-.25.918-.597.477-.715.954v.557l.648.54-1.038.5-1.151.156-.593.306-.633.735-.591.634-.349.224-.53-.036-.614-.49-.877.024-1.047.608-1.238.986-1.565 1.508-1.63.799-2.066.681-1.493.303-1.186.518-1.972 1.048-.392.616-1.43.364-1.15.42-1.067.701-.258 1.236-.679.71-1.631.976-1.37.984-.894.967-.945 1.023-.298.565-.037.772.446.647.084.617-.336.448-.925.168-.97-.13-1.48-.44-1.582-.79-.577-.388-.777-.663.108-.617.4-1.198.274-.822-.645-.393-.476-.42-.34-.407-.67-.8-.84.196-.73.197-.841-.28-2.488.121-1.88.096-1.762.084-2.239.108-2.697.131-.773-.176-.482-.266-.493-1.1-.28-.937-.524-1.75-.35-1.354-.417-1.614-.275-1.78-.197-1.267-2.04-.048-1.63-.036-2.207-.048.024-1.009.024-1.27.024-1.446.412-1.898.155-1.591.19-1.94.124-1.283.137-1.412-1.137.435-1.257.482-1.178.452-.81-1.144-.785-1.112-1.196-1.689-.895-1.266-1.559-.74-1.153-.546-1.197-.922-1.034-.955-.981-.906-1.175-.788-1.124.25-1.271.492-1.226.475-1.297.502-.636.247-1.502-.096-1.315-.084-2.349-.146-1.984-.124-2.025-.126-2.822-.175-2.858-.177-1.915.235-2.421.295-2.544.311-2.104.258-2.662.325-1.994.243-.982-.036-1.233-1.023-1.975-1.638-1.197-.993-1.174-.973-1.692-1.403-1.365-1.061-1.33-1.037-.766-.957-.381-1.203-.69-.546-1.547-.736-1.659-.79-1.66-.792-1.661-.79-1.66-.791-1.66-.79-1.66-.792-1.66-.79-1.66-.79-1.66-.79-1.66-.791-1.661-.79-1.66-.792-1.659-.79-1.662-.791-1.659-.79-1.66-.792-1.365-.574-1.272.15-1.903.403-1.994.422-1.972.417-3.537.748-2.276.481-1.779.406-1.894.432-2.483.566-2.08.474-2.442.557-2.158.492-1.818.415-1.891.431-1.5.343v2.758l.003 2.759v2.758l.002 2.758v2.759l.002 2.759v2.758l.002 2.758v2.758l.002 2.759v2.758l.002 2.759v2.758l.002 2.758.002 2.76v2.758l-.51-.024-1.152.16-1.928.384-1.604.194-.699-.12-.632-.29-.553-.607-.824-.74-.843-.596-1.049-1.228-.727-.943-1.796-2.059-.25-.649-.334-.662-.6-.554-2.114-1.358-2.464-1.225-2.415-1.2-.684-.29-1.13-.373-1.391-.01-.947.072-2.896.395-2.218.464-3.013.63-2.334.698-.522.205-1.706.842-2.087 1.396-2.44 1.971-.315-1.268-.109-1.952.049-.628.662-1.641.673-1.126.542-1.17.241-1.532-.503-2.457-.56-.545-.675-.177-.717-.048-1.32.096-.618.197-1.074-.828-1.3-.132-.684.23-.695.12-.75-.228-.65-.49-.399-.529-.31-.6-1.02-1.198-1.014-.653-1.225-.146-1.998.036-.63-.084-.035-.68.252-1.502.006-.783-.146-.74-.331-.606-.423-.526-1.193-.867-.9-1.218-1.501-2.504-1.311-2.815-.578-.424-1.174-.446-2.562-.357-1.69-.369-.668-.356-.277-.617.005-.661.14-.781.395-.661 1.346-.51 2.92-.11 2.498.061 2.265 1.181.744.273.798.072 1.605-.372.792-.109 2.006.123-.598-.559-.754-.293-.779.024-.674-.227-1.106-1.084-1.926-1.233-.447-.51-.136-.814.372-.703 1.363-.72 1.156-.98.53-1.298.473-.599.99-.94 1.489.18 2.318-.68 3.8.133 4.542-.196 1.253.072 2.895.662 1.668.286 2.02.147 1.46-.295-1.377-.906-2.983-1.074-.766-.913 1.366-2.485 1.852-2.264 1.125-2.689-.316-2.672-.54-.736.173-.868.648-.731.454-.73-.393-.877-.818-1.37-.42-.444-1.424-.739-2.865-.036-2.336-.402-.756.324-.425.5-.535.328-1.822.665-.606.13-.634-.131-.894-.75-.793.085-2.41-.468-1.135-1.013-.419-.143-3.899-.81-1.355-.153-3.1.835-2.251 1.07-.635.154-1.165.68-.655.108-.676-.12-.635.035-1.36 1.017-2.46 1.184-1.222.747-1.364.464-1.511.29-1.55.049-.567.27-1.769.095-1.08.218-.035.404.215.904-.917-.32-.964.615.32.583-.577-.14-2.707-1.122-2.22-.79-1.972-.704-.29-.128-.538-.343-.385-.532-.084-.585.195-.43.478-.273.564-.109.502.084.559.264.995.318 1.288.06.802-.245.108-.586-1.533-2.167-1.411-1.75-1.366-1.944-.578-.705-1.676-1.629-1.651-1.603-1.306-1.429-.685-.44-2.107-.183-4.02-.352-1.42-.167-1.137.424-1.14.333-1.086-.62-.856-1.013-.451-.854.22-.87.096-1.284-.654-1.267-.724-.625-1.817-.47-2.31-1.066-.622-1.942 1.124-2.785 1.806-1.971 1.313-.826.626-.72.205-.626-.158-.596-.779-.633-1.208-.616-.611-.76.253-1.624.798-2.34 1.231-1.872 1.654-1.037 1.427-.743.563-.692.024-.982-.036-.927.381-.674.6-.536.634-.479.894-.538 1.154-.13 1.276.428 1.728 1.15 2.538 2.268 1.449 1.485.523.458 1.323.885 1.194.357 1.991-.555 1.91-.644.617-.41.397-.609-.304-1.042-.4-.68-.424-.865-.587-1.506-.415-2.362-.491-.75.361-.084.957.156.884.072 1.267-.52 1.741-.98 3.182-1.51.673-.997.542-1.109.882-.68 2.022-.225 1.874-.355 1.322-.785 2.074-.69 1.706-.42.75-.385.534-.578 1.954-1.633 1.533-1.003 1.349-1.034.454-.649 1.064.12 1.627.452 1.75.411 1.28.637.25.653.124.514.523.266.619.048.93-.129 1.63-.024 1.998-.845 2.785-1.423 2.548-.441 1.345.337 1.105 1.047.879.987.901.366.56.01.21.013 1.117-.224.084.003 1.027.036.987.332 1.631.036 2.271-.255.24-.108 1.09.135 1.329.454 1.033.54 1.844 1.776 1.062.458 2.168.631 1.017.553 1.18.894.618.542 1.283.98 1.486 1.608.263 1.278.337 1.083.552.512.455.06.492-.18.48-.49.166-.824-.145-1.453-.38-1.187-.488-.377-.234-.418.323-.532.825-.256 1.028.163 1.693.681 1.765.86 2.167 1.503 1.994.954 2.177.763 1.73.228 1.339-.231 1.58-.621 1.449-.72.658-.753.475-.822 2.183-1.1 1.992-1.001.907.18.641.284 2.044-.61.713-.168 1.948-.235 2.01.35 1.604 1.075 1.559.693 1.39-.084 1.153-.356.76-.67.575-.792.77-.506.12-.036 2.479.274 1.557-.036.166-.12 2.052.215 2.262 1.115 1.407 1.235 1.797 1.575.836.514 1.216.22.955.096 1.28.244 3.383.33.514.194.346.259-.313.861.302.219 2.742-.614.735-.458.906-1.3.81-1.31.602-.486.64-.127.644.193.896.774 1.218.788 1.643.3 1.006.12 1.556.061 3.657-.382 3.42-.953 1.954-1.036.908-1.553.567-1.763.875-1.114-.365-1.14-1.723-1.083-.58-.327-4.184-.607-.258-.436-.238-.096-4.124-.96-1.99-.412-.558-.633-.371-.83-1.288-.74-2.558-.673-.447-.512.423-.52 2.02-.576 2.306-1.215.886-.25 2.055-.06 1.9-.993 1.312-.567.684-.676-.18-.696-1.901-2.104-.564-1.273.335-.828 1.093-.898.619-.489.742-.88.492-.47 1.916-.199 2.33-.084 1.596.21 2.232.109 2.033.162 1.029.146.756-.269.548-.472-.024-.625-.798-.606-2.986-.794-1.278-.655-1.005.072-1.675-.203-1.513-.43-1.342-.144-.438-.596.278-.834.517-.477.993-.238 1.075.12 1.173-.347.336-.203.096-.261-.19-.375-.54-.31-.772-.084-.887.263-1.06.17-1.795-.385-1.43-.464.071-.429 1.058-.637.476-.517v-1.55l.367-.978 1.05-.67 1.233-.357 3.178.652 3.972.582.684-.096.2-.307.456-.273 5.513-.126 1.074-.375.533-.299 5.302-.431.632-.409.779-.382 1.218.007 1.454-.153 2.023-.465 1.434-.256.238-.024 1.513.096 1.885-.367.402-.153.307-.279 1.64-.535 3.146-.442.768.265 1.5.12 1.915-.196 1.412-.338.824.335 1.118.344.834-.29.413-.922.544-.9.943-.427.747-.155.677-.347.512-.36 2.774.06 2.481-.897.486.406 3.22-.096 3.998-.577 2.393-.27 4.132-.605 1.91-.488 2.732-.309 2.508-.215 1.64-.854 1.323-.123 1.61-.072.985-.205.643-.316.417-.594-.226-.755-.229-.549 1.15-.307 1.64-.096 1.038-.125 2.26-1.246 1.563-.599 1.614-.374 3.241.205 2.96.187 2.968.595 1.562.742 1.34.56z" transform="translate(0 -852.52)" id="path6" />
    <path style="fill:#fff;fill-opacity:1;fill-rule:evenodd;stroke:#505050;stroke-width:.5;stroke-linecap:round;stroke-linejoin:round;stroke-miterlimit:4;stroke-dasharray:none;stroke-opacity:1" class="polygon" d="m410.017 1028.896.238.723.204.841-.132.197-.227.132-3.684.21-.832.23-.892 1.165-3.151.936-1.797.48-.73-.025-1.745.766-4.877 1.911-2.396 1.208-1.205.505-.968.551-.163.558-.024.526-2.678 2.473-2.007.3-1.697-.06-1.152.376-1.654.378-3.578-.26-1.225.049-2.348-.341-.948.18-1.006.502-1.39 1.973-.568.463-.256.45-.213.96-.531 1.015-.685.8-.49.742-1.006.717-.935.452-.723-.943-.629.269-.594.383-1.133-.133-.697.193-1.59.82-2.341-.036-.255-.281-.464-2.252-.407-1.066-.335-.239-.419-.024-3.362 1.77-1.558.315-1.284.06-1.669-.529-.366.131-.289.286-.12.364.487 1.005-.136.198-.753-.012-1.057.232-.802.461-2.418 1.622-2.034.543-1.893.213-.777.18-.347.195-.635.773-.651 1.212-.34.592-.251.343.048.448.514.58.386 1.3-.084.336-.414.543-.598.532-1.289.321-1.01.161-.675-.108-1.264-.036-.997.215-.616.365-1.216.455-1.51.152-1.922.06-.925-.036-2.794-.307-.92.108-.88.238-1.591.246-.848.758-.45.698-.237.096-.993-.639-.76-.6-.497-.498-.622.012-2.224.905-.328-.024-.636-.344.12-.854-.036-.545-.716-.29-1.518-.071-.517-.31.024-.46.138-.442-.173-.34-.393-.258-.793.072-.911.35-.67.402-.842.186-1.018.072-.636.243-.724.98-2.47.205-.796-.224-.655-.697-.85-1.118-.479-.139-.802-.138-1.311.06-1.77.473-.428-.39-.459-.108-.412.32-.423-.036-1.75.096-2.21-.048-1.263-.22-.82.013-1.629.501h-.863l-1.128.096-.21-1.695-.614-1.144.187-.793.41-1.09.341-.61.7.258.799.448.532-.12.14-.37-.204-.482-.024-.362.3-.476.44-.444 2.823-.73 2.422-.531 1.258.354 2.439.816 1.255.42.872.25.766 1.193.501-.06.51-.24.3-.295.242-1.015 1.132-.573 2.497-.678.176-.398-.036-.219.391-.192 1.249-.197 2.525-.189.86.14.977.4.757.396.722-.012.594-.084.252.109.191.353.309.316.964-.43.874-.555.689-.084.636-.212.185-.371.498-.615 1.426-1.177.74-.19h.48l.024.19.232.174 1.246.271.379-.309.2-.429-.435-.68-.008-.285.164-.26.233-.155 1.988.645.44-.012.907-.363.832-.638.3-.501 4.075-1.63.288-.296-.06-.215-1.708-.38-.77.213-.714.001-.429-.238-2.075-.096-.455-.167-1.375-1.176-.945-.449-.76-.294-.83.048-.984.309-.31-.14-.084-.492.003-.62-.2-.665-.587-.154-.757.262-1.13-.268-.96-.096-.248-1.398-.387-.597-.4-.626-.418-.18-.685-.312-.036-.74-.145-.21-.243-.095-.33.084-.422.371.209.815-.161.817-.249.411-.48.303-.547.01-.95-.413-.151 2.473-.184.153-1.132-.35-.906.15-1.354-.152-1.02-.408-.761-.108-1.228-.347-.937-.452-.577-1.659-.547-.592-.516-.126-2.097.573-.765-.443-1.415-.569-1.072-.211-.287-.307.048-.377 3.293-1.846 1.297-1.271.817-.537 1.164-.357.909-.21.464-1.165.177-.135.646-.084 1.464-.478 2.36-1.022.047-.282-.235-.242-.994-.523-1.13-.417-.685.217-.387.216-.647-.541v-.557l.715-.954.596-.477.25-.918.85-.614.887-.972 1.073-.795 1.988-.596 1.108.195 1.04-.14 1.61-.484.31-.036.676-.01 4.147.74 1.37.035 3.212.96 1.478.209 1.043.27.473.413.754.509 4.034.412 1.107.274.398.446 1.149.567.977.128-.855-2.216.34-1.316 1.275-3.603.67-.542 1.28-.48 2.013-.538.76-.75 1.646.071.718-.06.491-.134.268-.422 1.86.732 3.105 1.48 2.347.938 2.765.887 3.828.81 3.238.27.554-.192 1.296-1.231.61-.06 1.105.108 3.436.06 3.497.06 1.65-.12 3.575-.513.53-.024.83.036 2.143.697 1.598.096h1.09l.635.06 1.325-.024 2.154.084 2.661.453 3.208-.084 1.032-.084 1.781.084 1.42.431 1.792.456 1.126.19.755.097 1.345.036.803-.143.459.2.459 1.118 1.111.736.87.692.726.765.744.311 1.301.011 2.464.22 1.414.303 1.805 1.324zm-114.254 28.417-.036-.248-.41-.12-1.167-.133-.833-.19h-.179l.072.237.354.419.491.448.63.048zm12.954-1.502.123-.542-.296.024-.346.148-.665.148-.147.271.443.345.566.124zm-6.892.694.12-.171-.436-.878.594-.821-1.183-.138-.6-.243-.676-.833-.224-.036-.35.228-.188.545.166.59.48.398.32.13.048.023-.012.195-.383.976.63.122 1.106.012z" transform="translate(0 -852.52)" id="path8" />
    <path style="fill:#fff;fill-opacity:1;fill-rule:nonzero;stroke:#505050;stroke-width:.5;stroke-linecap:round;stroke-linejoin:round;stroke-miterlimit:4;stroke-dasharray:none;stroke-opacity:1" class="polygon" d="m295.763 1057.313-1.077.462-.631-.048-.492-.448-.353-.42-.072-.236h.18l.832.19 1.167.133.41.12zm-.59-13.355-.359.024-.648-.57-.225-.398.265-.12.557.278.371.49zm.55 3.31-1.797 1.182-1.997 1.313-.072.172-.084.327.024.335.32.273.862.192.766.25.387.69.443.637.606.156 2.96-.401.703-.048.036.219-.174.397-2.497.68-1.132.572-.243 1.016-.299.294-.51.24-.5.06-.767-1.193-.872-.248-1.255-.42-2.439-.817-1.258-.354-2.422.53-2.824.73-.44.445-.299.476.024.361.204.483-.14.37-.532.12-.8-.449-.699-.258-.341.61-.41 1.09-.187.794.615 1.144.21 1.695 1.127-.096h.863l1.63-.501.819-.012 1.262.218 2.21.048 1.751-.084.423.036.412-.32.46.109.427.39 1.77-.473 1.31-.06.803.138.479.138.85 1.12.655.696.796.224 2.47-.206.724-.98.637-.242 1.017-.072.843-.186.67-.402.91-.35.793-.071.393.258.173.34-.138.442-.024.46.517.31 1.518.071.716.29.036.544-.12.855.636.344.328.024 2.224-.905.622-.012.498.498.76.6.992.64.238-.097.45-.698.846-.758 1.593-.247.878-.237.92-.109 2.795.308.925.036 1.921-.06 1.51-.153 1.217-.454.616-.365.998-.215 1.263.036.675.108.06.627-.159 1.187-.19.826.999 1.498.64.721.624.51.12.402-.128.328-.777.32-.277.342-.129.384.249.446.448 1.421.572 1.106.811.529 1.212.35.669-.072.477-.825.793-.633.673.048 1.082-.024 2.844.718 2.775 1.082.81.597.283.673-.768 1.557.036.996.174 1.061.635.787.58 1.35.12 1.118.253.333.204.39-.313 1.025-.217 1.032.26.344.848.51 1.334.95.256.788-.477.501-.848.607-1.084.524-.322.221-.191-.125-.54-.528-1.2-.854-.856-.45-1.624.145-.953-.159-1.153-.277-1.073.036-.675.516-.437.517-1.075.159-1.549.398-2.394.617-1.155-.096-.312-.267.256-.355.823-.46.198-.556-.158-.517-.763-.14-.295-.084-.335-.108-1.482-.308-1.183.108-2.064.647-3.793 1.694-1.664 1.14-1.197 1.725-3.588.554-2.467.99-2.542 1.612-1.682.867-.82.123-.82-.155-.82-.433-.8-1.348-.709-2.043-.469-1.35.264-1.735.299-1.973.305-2.006.494-2.316.41-.824.025-.55-.364-.278-.772.012-1.179.308-.837.048-.498-.2.048-1.075.6-1.951-.924-1.643-2.448-1.333-2.082-.463-1.718.407-1.443 1.058-1.17 1.712-1.21 1.4-1.257 1.09-.895.523-.29.202-.182.462.668 1.45-.048 1.216-.755.982-.826.468-.903-.048-.719-.227-.532-.41-1.439-.108-2.344.187-1.607.492-.865.798-.251 1.05.366 1.304-.182.998-.729.694-.6.397-.47.096-1.017-.6-1.564-1.3-1.077-.703-.584-.108-.32.072-.359.135-.203.168-.178.386-.501.153-.707-.12-.65.12-.386.407-1.087.493-1.918.551-1.05.59-.177.626-.286.28-.586-.097-1.734.862-1.32-.267-1.484-1.108-.823-.912-.084-.386.47-.875.195-2.908.592-1.006 1.77-1.806.922-1.376 1.039-1.117.75-.375.692-.88.567-1.008.16-.633-.049-.499-.206-.322-.982-.681-1.288-1.065-.684-1.086-.375-1.387-.096-.966 1.21-2.66-.193-.445-.348-.413-.712-.26-1.019-.108-1.008.12-1.287.01-.89-.149-.216-.166-.108-1.21-.227-.264-.382-.23-2.597-.558-.515-.24-.096-.306.92-2.685.402-.203.386-.436.61-.468 2.122-.767 2.278.332 2.025.356 2.017.19.698.128 1.154.108.772-.096.524-.313.952-.868.29-1.301.344-1.15.576-.083.58.121.277-.232.12-.316.12-.269.238-.06.418.298.238-.084.198-.198-.06-.24-.474-.4-.42-.632.035-.218.143-.227 1.248-.216.567-.035.197-.224-.072-.356-.471-.202-1.71.108-1.74-.024-.208-.217.096-.238.263-.187 3.596-.48 1.905.167 1.418.254.56-.126-.666-1.082.9-.096.12-.37-1.176-2.874.645-.254.65-.566-.06-1.072.574-.522.68-.358 1.014.361 1.564 1.058.51.205.506.06.724-.328 2.793-1.048 1.57-.589 1.872-.856.322-.33.646-1.303.352-.096.474.14 1.643 1.346.951.862v.296l-.272.222.049.217 1.343.468.001.214-.306.409-.164.224zm-211.365 22.329-.108.563-.652-1.695-.328-1.869.418-.527.467.036-.444.675zm67.54-46.543 1.767 1.378.648.255 1.261.146 1.05.048.437.148.475.357.93 1.509.933.395 1.164.286 3.743-.024 1.15.072.94.71.584.292.251.251-.06.314-.23.397-.024.765-.06.592-.298.282-.084.263.25.23 1.735.564.584.606.438.271.108.376-.293.25-.814-.125-.397.397v.71l.582.668.168.61-.384.588-.448.83-.012.587.268.336 1.326.605 3.064 1.53.705.06 2.9-.355 1.349-.036.793.237 2.244.217.714.244.758.012 1.04-.072.704-.685.359-.156.316-.12.64-.012 1.774.435 1.867.918 1.237.837.609.759.77 1.644.93 2.53 1.124 1.707 1.317.885.924 1.628.8 3.555.5.728.508.379 1.505 1.028 3.078 1.703 1.818 1.005 2.81 1.606 2.573 1.47 2.58 2.271.516.332 2.27 1.228 2.526 1.259 1.769-.285 2.664 1.936 1.084.718.457.246 1.932.764 3.076 1.598 3.88 2.29 2.564 1.326.697.154.692-.01.741-.285.804-.225 1.371.294 1.486.53.94.403 1.088.584.862.552.654.254 2.22.482.38.29.242.323.036.334-1.246 1.758-.172 2.242-.008 1.688.14 1.325-.606.048-1.46-.282-2.908-.56-2.496-1.122-1.63-.733-.255.096-.73.501-.503.617-.399 1.194-.636 1.409-3.021.048-2.571.108-1.66.534-1.625.739-.407.875-.353 1.135-.946 2.579-.863 2.351-.441 1.526-.659 1.044-1.839 1.377-2.086.927-1.108.435-.49.542-.109.51-.393.157-.86-.096-.909.084-1.993.534-2.159.658-2.587.657h-1.475l-.588.147-.257.33.257.626.25.462.227.604-.606.487-.423.836-.33 1.469-.918.44-1.47.715-1.626.94-.416.193-.931.267-.93-.084-.844-.139-.917.242-.947.726-.44-.22-.22-.734-.478-.477-1.483-1.08-1.27-.769-.551-.048-1.167.198-1.458.145-1.186-.155-.94-.307-1.453-1.056-.53-.568-.396-.438-.994.12-.277-.477-.036-.556.277-.675-.084-1.272-.556-.914-.636-.398.084-.278.278-.635.358-.557-.005-1.098-.443-1.192-.177-1.719.12-1.677-.604-.845-4.948-.01-4.405.06-.248-.19-1.71-2.114-1.39-1.604-1.371-.946-3.142-1.164-1.502-.486-1.288-.888-1.053-.972-.273-1.333-.214-.438-.303-.354-.331-.158-.4.036-3.649-1.549-1.463-.406-1.378.327-.608.06-1.198-.44-1.38.597-.588.036-.824-.143-.68-.223-1.836-1.41-1.54-.569-1.111-.365-2.135-.534-2.278-.278-1.168-.231-.842-.308-.216-.2.012-.516-.06-.678-.28-.494-.577-.591-.8-.442-1.377.072-2.072-.036-1.586-.445-1.258-.084-1.513.084h-1.243l-.885.323-.515.378-.327 1.157-.299.173-.52.084-.692-.06-1.453.01-2.511-.205-3.16-.06-2.374.584-1.876.838-1.792.949-2.11 1.496-.618.665-1.243 2.653-.55.38-.719.306-.729.06-1.445.393-1.909.648-1.3.253-3.334-.133-.196-.842-.601-3.076-.292-3.105.024-1.43.347-2.868-.024-1.445-.142-1.31.139-1.284.266-1.445.14-1.467-.2-1.024-.646-.825-1.091-1.023-.173-.605-.06-.675-1.046-.072-.939-.698-.775-.38-1.666-.422-.835-.024-.763.31-.561.623-.392-.982.009-1.026 1.332-2.12.833.618 1.017.248 1.295.036 1.27-.165-.248-.726-.59-.412-.733-.326-.262-.957.096-.994.349-.94-.397-.378-.602-.235-1.39.024-1.802-.248-1.816-.109-.424 1.107 1.002 1.455-.85-.715-.8-.945-1.124-1.7-.724-1.992-.128-2.15.614-1.78.782-1.669.474-2.137.65-2.098.652.94.744.842 1.029.779.562.186 1.694.322 1.09-.121 1.162-.46 1.14.15.943.866.841.971 1.277.204 2.63-.701 1.251-.16 1.085.32.56.06.571-.06-.494-.861-.202-.836.661-.443 2.075.47 1.321-.313.337-.177.3-.217.159-.724-.06-.741-.172-.699-.387-.612-.953-.858-3.697-2.045-1.243-.816-1.036-1.055-.661-1.49-.536-1.553-.498-1.152-1.29-2.676-.502-.319-.628-.142-1.532-.084-1.55.195-2.535.46-1.451-.144-.672.285-1.662 1.127-.779.967-1.086 2.21.824.713-.012.468-.626 3.266.38 1.584-.137.12-.298-.368-.94-1.617-1.658-1.97-1.388-3.016 2.44-1.971 2.086-1.396 1.706-.843.522-.204 2.334-.698 3.013-.63 2.218-.464 2.896-.395.947-.072 1.392.01 1.13.372.683.291 2.415 1.2 2.465 1.225 2.113 1.358.6.554.335.662.249.649 1.796 2.058.727.944 1.05 1.227.842.597.824.74.553.608.632.288.7.12 1.603-.193 1.928-.385 1.152-.16.51.024 3.18.137 2.859.123 3.53.151 1.048.143 1.261.132.627.024.557-.526.368-.288.288-.229-.06-.258-.447-.219-.703-.728-.4-2.629-.25-2.25.836-.7.96-.508 1.385-1.53.743-.473 1.094-.39 3.658-.109 1.54-.3.501-.495.811-1.252.268-1.019.454-.466.546-.347.56.012 1.083.299.823.167.586.227.533.36.52.627.084.412.24.24h.72l.21-.096.136-.21-.108-.28-.706-.8-1.556-1.45-1.017-.59-.506-.32-.126-.301.66-.46.639-.261 1.123.197 1.49.108.664-.23.681-1.16z" transform="translate(0 -852.52)" id="path10" />
    <path style="fill:#fff;fill-opacity:1;fill-rule:nonzero;stroke:#505050;stroke-width:.5;stroke-linecap:round;stroke-linejoin:round;stroke-miterlimit:4;stroke-dasharray:none;stroke-opacity:1" class="polygon" d="m308.717 1055.811-.322.518-.566-.124-.443-.344.147-.272.665-.148.346-.148.296-.024zm-6.892.694-.6.108-1.105-.012-.631-.123.383-.976.012-.194-.048-.024-.32-.13-.48-.398-.166-.59.187-.544.351-.229.225.036.677.833.6.243 1.182.138-.594.82.436.878zm-110.748-43.256.982.036 1.994-.243 2.662-.325 2.104-.257 2.544-.311 2.42-.296 1.916-.234 2.858.177 2.822.175 2.024.126 1.985.124 2.35.145 1.314.084 1.502.096.635-.246 1.298-.502 1.226-.475 1.27-.493 1.125-.25 1.174.789.982.906 1.034.955 1.196.922 1.154.547 1.559.739.895 1.266 1.195 1.69.786 1.11.81 1.145 1.18-.452 1.256-.482 1.137-.435-.137 1.411-.125 1.283-.19 1.94-.155 1.592-.412 1.898-.024 1.446-.024 1.27-.024 1.008 2.206.048 1.63.036 2.04.048.198 1.268.274 1.78.417 1.614.35 1.353.525 1.751.28.936.492 1.101.482.266.774.176 2.697-.13 2.24-.109 1.76-.084 1.88-.096 2.488-.121.842.28.73-.197.84-.196.67.8.34.406.476.421.645.393-.274.822-.4 1.198-.108.616.777.664.576.388 1.582.79 1.48.44.97.13.923-.168.337-.448-.084-.617-.446-.647.036-.772.298-.565.946-1.024.893-.966 1.37-.984 1.631-.976.68-.71.258-1.236 1.066-.7 1.15-.42 1.43-.365.392-.616 1.973-1.048 1.186-.518 1.493-.303 2.065-.681 1.63-.8 1.566-1.508 1.238-.985 1.046-.608.878-.024.614.49.53.036.348-.224.591-.634.634-.735.592-.307 1.151-.156 1.039-.498.386-.216.685-.217 1.13.417.994.523.235.242-.048.282-2.359 1.022-1.464.478-.645.084-.177.135-.464 1.166-.908.209-1.165.357-.817.537-1.297 1.27-3.293 1.847-.048.377.287.307 1.072.211 1.416.569.764.443 2.097-.573.517.126.546.592.578 1.66.938.451 1.227.347.762.108 1.02.408 1.354.152.906-.15 1.132.35.183-.153.15-2.474.951.414.548-.01.48-.303.248-.411.161-.817-.209-.815.423-.371.33-.084.242.096.146.209.036.74.685.313.418.179.4.626.387.597.248 1.398.96.096 1.13.268.757-.262.586.154.2.664-.003.62.084.492.31.14.983-.308.83-.048.76.294.945.448 1.376 1.177.455.167 2.075.096.429.238.714-.001.77-.213 1.708.38.06.215-.289.296-4.074 1.63-.3.5-.832.639-.907.363-.44.012-1.988-.646-.233.155-.164.261.008.285.435.68-.2.43-.379.308-1.246-.272-.232-.173-.024-.19h-.48l-.74.19-1.426 1.176-.499.616-.185.37-.635.212-.689.084-.875.557-.964.429-.308-.316-.191-.354-.253-.108-.593.084-.723.012-.757-.396-.977-.4-.859-.14-2.525.189-1.249.197-.392.192-.704.048-2.96.402-.605-.157-.444-.637-.387-.69-.765-.25-.862-.192-.32-.272-.025-.336.085-.326.072-.172 1.997-1.313 1.797-1.183.164-.096.164-.225.306-.408v-.214l-1.345-.469-.048-.216.272-.222v-.296l-.95-.863-1.644-1.345-.474-.14-.352.095-.646 1.303-.322.33-1.872.857-1.57.589-2.793 1.048-.724.328-.506-.06-.51-.206-1.564-1.057-1.014-.362-.68.358-.575.523.06 1.072-.649.566-.645.253 1.176 2.874-.12.37-.9.097.666 1.081-.56.126-1.418-.253-1.906-.167-3.595.48-.263.187-.097.238.208.217 1.74.024 1.71-.108.472.202.072.355-.197.224-.568.036-1.247.215-.143.227-.036.219.42.63.475.403.06.24-.198.198-.238.084-.418-.298-.238.06-.12.269-.12.316-.277.232-.58-.121-.576.084-.343 1.148-.291 1.302-.952.867-.524.314-.773.096-1.153-.108-.698-.127-2.017-.191-2.025-.356-2.278-.332-2.122.767-.61.467-.386.437-.401.201-.92 2.686.095.305.515.24 2.597.558.382.23.227.264.108 1.21.215.167.89.149 1.288-.01 1.008-.12 1.02.108.71.26.35.413.191.445-1.21 2.66.097.966.374 1.386.684 1.086 1.289 1.065.982.681.206.323.048.498-.16.634-.567 1.008-.69.88-.752.374-1.038 1.118-.922 1.376-1.77 1.805-.592 1.006-.196 2.909-.47.875-.072-.332-.635-.33-1.113.06-.732-.157-.35-.372-.91.108-1.465.582-1.493-.308-1.522-1.197-2.897-.439-3.671.274-.14-1.324.008-1.688.172-2.242 1.247-1.758-.036-.334-.242-.323-.381-.29-2.22-.482-.654-.255-.862-.551-1.087-.584-.941-.403-1.486-.53-1.37-.294-.804.224-.742.285-.692.01-.697-.154-2.563-1.325-3.88-2.29-3.077-1.599-1.931-.764-.458-.245-1.084-.719-2.664-1.935-1.769.284-2.526-1.258-2.27-1.228-.515-.332-2.581-2.27-2.574-1.472-2.81-1.606-1.817-1.004-3.078-1.703-1.505-1.029-.508-.378-.5-.729-.8-3.555-.925-1.627-1.317-.886-1.124-1.707-.93-2.53-.77-1.644-.61-.758-1.236-.838-1.867-.918-1.773-.435-.641.012-.316.12-.36.157-.704.685-1.039.072-.758-.012-.714-.244-2.244-.218-.793-.237-1.35.036-2.9.356-.704-.06-3.064-1.53-1.326-.606-.268-.335.012-.588.448-.829.384-.587-.168-.61-.582-.67v-.71l.396-.396.815.125.293-.25-.108-.376-.438-.272-.584-.605-1.735-.565-.25-.23.084-.263.298-.28.06-.593.024-.766.23-.396.06-.314-.251-.251-.584-.292-.94-.71-1.15-.072-3.743.024-1.164-.286-.933-.396-.93-1.508-.476-.357-.438-.15-1.049-.047-1.261-.147-.648-.255-1.766-1.378-1.694-1.23-.681 1.16-.663.23-1.49-.108-1.124-.197-.64.262-.66.459.126.301.505.32 1.017.59 1.556 1.45.707.8.108.28-.137.21-.21.096h-.72l-.24-.24-.083-.413-.52-.626-.533-.359-.587-.226-.823-.167-1.082-.3-.56-.011-.546.347-.454.466-.268 1.02-.811 1.251-.501.495-1.54.3-3.658.109-1.095.39-.742.472-1.385 1.53-.96.51-.837.7.25 2.25.4 2.628.703.728.447.219.06.258-.288.229-.368.288-.556.526-.626-.024-1.262-.132-1.048-.143-3.53-.152-2.858-.123-3.18-.137v-2.758l-.002-2.76-.001-2.758-.001-2.758-.001-2.758-.001-2.759-.001-2.758-.001-2.759-.001-2.757-.001-2.759-.001-2.759-.001-2.758-.001-2.759-.001-2.758-.002-2.758-.001-2.759 1.5-.342 1.891-.432 1.818-.414 2.158-.493 2.44-.556 2.082-.476 2.483-.566 1.894-.432 1.779-.406 2.275-.48 3.537-.75 1.973-.416 1.994-.422 1.902-.402 1.272-.15 1.366.575 1.66.79 1.66.791 1.66.791 1.66.79 1.66.792 1.661.79 1.66.791 1.66.79 1.66.79 1.659.79 1.66.792 1.661.79 1.66.791 1.66.79 1.66.791 1.66.791 1.547.737.69.545.38 1.204.766.956 1.33 1.037 1.366 1.062 1.692 1.403 1.174.973 1.197.992 1.975 1.639zm103.088 30.166.65.57.357-.024-.036-.291-.371-.49-.556-.278-.266.12z" transform="translate(0 -852.52)" id="path12" />
  </g>
</svg>
