<?xml version="1.0" encoding="UTF-8" standalone="no"?>
<svg width="489.752" height="178.204" version="1.1" id="svg6" sodipodi:docname="kazakhstan.svg" xmlns:inkscape="http://www.inkscape.org/namespaces/inkscape" xmlns:sodipodi="http://sodipodi.sourceforge.net/DTD/sodipodi-0.dtd" xmlns="http://www.w3.org/2000/svg" xmlns:svg="http://www.w3.org/2000/svg">
  <defs id="defs10" />
  <sodipodi:namedview id="namedview8" pagecolor="#ffffff" bordercolor="#666666" borderopacity="1.0" objecttolerance="10.0" gridtolerance="10.0" guidetolerance="10.0" inkscape:pageshadow="2" inkscape:pageopacity="0.0" inkscape:pagecheckerboard="0" />
  <g style="display:inline" id="g4">
    <path style="display:inline;fill:#e77936;fill-opacity:1;fill-rule:nonzero;stroke:#505050;stroke-width:.5;stroke-linecap:round;stroke-linejoin:round;stroke-miterlimit:4;stroke-dasharray:none;stroke-opacity:1" class="polygon" d="m49.208 144.355-.43.34-.641-.049-1.204-1.278.335-1.295.436-.265.607-.182.084.285-.857.58-.072.731.713.812zm1.529-1.41-.415.161-.253-.766.466-.643.658-.084-.226 1.016zm28.488-5.285-.211.126-.8-.323-.528-.55.656-.65.61.12.4.69zM288.381 20.314l1.142.172 1.333-.253.938-.345.55-.492.83-.35 3.025-.275.629.53 1.44 1.6.98 2.132 1.616 2.83.713 1.39-.317.73.007 1-.097 1.098-1.194 1.244.485.58 2.924.649 4.094-.237 2.527-.523 1.407.19.734-.313.477-.922.97-.207.998.643.725 1.09.695.702-.048.834.256 1.071.51.272 1.004-.407.669-.243.16-.326-.284-.402-.136-.408.223-.375.474-.152 1.427.12 2.08.207 2.467 1.52 1.328.277.561.024 1.251-.084 1.502-.439 1.014-.549.336-.27.582.049.552.254.037.555-.44.802-1.499.735-1.86.682-1.126 1.253-.24 1.308.495.663.422.445.12.622.422.084.757-.256 2.08-1.29 1.06-.318 1.535-.203 2.52.096 1.698.42.81.586.892.481.615-.201.32-.557.011-.637.259-.522 2.758-1.288 1.835-.857.632-.096 1.228.178.76-.096 2.019-.806 1.884-.917.184-.62.072-.563.47-.253 2.64-.197.432-.108 2.257-.64 3.123-1.089 1.515-.641 2.762-.285.513-.185.918-.433 1.729-.598.936-.072-.58 1.448-1.033 1.675-.581.447-2.8-.072.006.457.439.7.314.393.34.354.753.609 2.944 1.44 3.746 1.833 4.048 2.06 2.826 1.437 1.141.741.728.58 2.086 2.093 1.977 1.986 3.334 3.5 2.956 3.382 3.252 3.72 1.882 2.155 3.847 4.507 1.027 1.383 1.948 2.62 1.721 2.458 1.521 2.174.958.197.072-.59.172-.393.491-.221 1.118-.642.603-.154.9.06.941-.327.344-.616-.224-1.142-.145-.525.32-.565.516-.22.718-.179.658-.096.541-.638 1.02-.193.934.12.773.024.681.465.379.637.734.048 1.207-.06.166.534-.344.892-.419.69-.072.555.638.27 2.338-.241.83.12.263.561.33.465.168.57-.242.63.415.377 2.018.009 1.42-.304 2.183-.024 1.975.667 1.369-.108 1.375-.27 2.014.171 1.415-.527.977-.659.308-.519.508-.287 1.901.003 1.204-.048.883-.761.811-.344 1.364-.06h1.005l2.693.707 1.638.584 1.707.83 1.026.522.687 1.175 1.166.866.922 1.012.223.999.76 1.793.787.59h.933l1.18.245 1.3.197 2.784 1.335 1.023.036.786.32.122.614-.294.711.308.684.91.871.722.852.884 1.033.27.589.713.197.958-.295 1.524.224 4.591.586.638.072.49.614.664-.048.762-.024 1.056.072.737-.565.603-.495 1.51-.612 1.252-.833 1.057-.738.784-.096.64.343.024.639-.785.467-.614.565.146.565 1.057.048 1.174.85 1.692 1.992.578.418.837.393.93.178 1.028.284.76.823.312.744-1.116-.242-2.18-.048-1.329.148-.626.084-.933.491-.663.492-.294.835.35.945-.478 1.965-.651.74-1.374 1.286-.795.278-1.33.23-1.285.38-2.518.37-2.719.19-.967.276-.687.88-.488.736-.303.56-.77 1.827-.437 1.638.428 2.032.321 2.259-.024.779.663 1.156.337.709-.159 1.006-.954.795-.572 1.054-.54.448-1.555.202-1.464.125-1.478.904-1.18.625-1.851.794-.867.149-.482-.404-.318-.901-.636-.397-.893-.036-.72-.01-2.326-.245-1.486.012-1.12.194-1.274.096-2.204-.328-1.425-.28-.96-.266-2.29-.786-3.01-.936-1.235-.274-.73.281-.109.535-.192 1.297-.35.812-2.103 4.104-1.295 2.858-1.648 2.74-.521 1.836-.986 2.33-.98 1.687-.395.92-.036.376.175.526 1.502.577 1.572.353.35.22.17.599-.06.977-.289.926-.457.728-.45.36-.515.024-.985-.468-.88-.521-.682-.159-1.729.29-1.604.397-.532.012-.93-.254-.935-.528-.37-1.019-.804-.463-1.08.463-3.213.776-3.538.927-2.247.478-.88-.072-1.746.108-1.51.259-1.131.359-2.244.494-2.031.33-1.31.749-.941.725.036.276.683.429.78.336 1.57-.072 1.53-.048 1.271.454 1.137.291.313.379-.313.368-.66.084-.23.258.12.344-.43.899-.225 1.365.223 1.344.125 1.24-.072.626-.048.889.487.602.429 1.146.773.718 1.172 2.487.689 1.453.637 1.648-.462.89.024.516.745.43.327.84.345.515-.096.512-.32.198-1.612-.31-1.322.51-1.403.514-.189.272-.036.298.145.262.81.46 1.118.285-.06.46-1.381.212-2.088.703-.577.755-.447.828-.036.48.21 1.288.318 1.43.592 1.505.048.466-.314.332-.283.214-1.66-1.358-1.805-1.323-1.414-.304-2.463-.219-1.301-.01-.744-.312-.727-.766-.869-.692-1.112-.735-.459-1.118-.459-.2-.802.142-1.345-.036-.755-.096-1.125-.19-1.793-.456-1.419-.432-1.781-.084-1.032.084-3.208.084-2.661-.453-2.154-.084-1.325.024-.635-.06h-1.09l-1.599-.096-2.141-.697-.832-.036-.529.024-3.575.514-1.65.12-3.498-.06-3.436-.06-1.104-.108-.61.06-1.296 1.23-.554.192-3.238-.27-3.828-.81-2.765-.886-2.347-.938-3.105-1.48-1.86-.732-.268.421-.492.135-.717.06-1.646-.072-.76.751-2.012.537-1.28.48-.671.543-1.275 3.602-.34 1.316.854 2.217-.977-.129-1.148-.567-.398-.446-1.107-.274-4.034-.412-.754-.508-.473-.414-1.043-.27-1.478-.208-3.213-.96-1.37-.036-4.146-.739-.676.01-.31.036-1.61.483-1.04.14-1.108-.194-1.988.596-1.073.794-.887.973-.85.614-.25.918-.597.477-.715.954v.556l.648.541-1.038.499-1.151.156-.593.306-.633.736-.591.633-.349.225-.53-.036-.614-.49-.877.024-1.047.608-1.238.985-1.565 1.508-1.63.8-2.066.68-1.493.303-1.186.518-1.972 1.048-.392.617-1.43.364-1.15.42-1.067.7-.258 1.237-.679.71-1.631.976-1.37.984-.894.966-.945 1.024-.298.565-.037.771.446.648.084.616-.336.449-.925.168-.97-.13-1.48-.441-1.582-.79-.577-.388-.777-.663.108-.616.4-1.199.274-.822-.645-.392-.476-.421-.34-.406-.67-.8-.84.195-.73.197-.841-.28-2.488.122-1.88.096-1.762.084-2.239.108-2.697.13-.773-.176-.482-.265-.493-1.101-.28-.936-.524-1.751-.35-1.354-.417-1.613-.275-1.78-.197-1.268-2.04-.048-1.63-.036-2.207-.048.024-1.008.024-1.27.024-1.447.412-1.898.155-1.591.19-1.94.124-1.283.137-1.411-1.137.435-1.257.482-1.178.451-.81-1.144-.785-1.111-1.196-1.69-.895-1.266-1.559-.739-1.153-.547-1.197-.921-1.034-.956-.981-.906-1.175-.788-1.124.25-1.271.493-1.226.474-1.297.503-.636.246-1.502-.096-1.315-.084-2.349-.145-1.984-.124-2.025-.126-2.822-.176-2.858-.176-1.915.234-2.421.296-2.544.31-2.104.258-2.662.326-1.994.242-.982-.036-1.233-1.022-1.975-1.639-1.197-.992-1.174-.974-1.692-1.403-1.365-1.06-1.33-1.038-.766-.956-.381-1.204-.69-.545-1.547-.737-1.659-.79-1.66-.791-1.661-.791-1.66-.79-1.66-.791-1.66-.791-1.66-.79-1.66-.79-1.66-.791-1.66-.79-1.661-.792-1.66-.79-1.659-.791-1.662-.79-1.659-.791-1.66-.791-1.365-.575-1.272.15-1.903.403-1.994.422-1.972.417-3.537.749-2.276.48-1.779.407-1.894.43-2.483.567-2.08.475-2.442.556-2.158.493-1.818.414-1.891.432-1.5.342v2.759l.003 2.758v2.758l.002 2.759v2.758l.002 2.76v2.757l.002 2.758v2.759l.002 2.758v2.758l.002 2.759v2.758l.002 2.759.002 2.759v2.758l-.51-.024-1.152.16-1.928.384-1.604.194-.699-.12-.632-.289-.553-.608-.824-.739-.843-.597-1.049-1.228-.727-.943-1.796-2.058-.25-.65-.334-.661-.6-.554-2.114-1.359-2.464-1.225-2.415-1.2-.684-.29-1.13-.373-1.391-.01-.947.072-2.896.396-2.218.464-3.013.63-2.334.698-.522.204-1.706.842-2.087 1.397-2.44 1.97-.315-1.267-.109-1.952.049-.629.662-1.64.673-1.127.542-1.17.241-1.532-.503-2.457-.56-.544-.675-.178-.717-.048-1.32.096-.618.197-1.074-.828-1.3-.132-.684.23-.695.12-.75-.228-.65-.49-.399-.529-.31-.6-1.02-1.197-1.014-.654-1.225-.146-1.998.036-.63-.084-.035-.68.252-1.501.006-.784-.146-.739-.331-.607-.423-.526-1.193-.866-.9-1.219-1.501-2.504-1.311-2.815-.578-.424-1.174-.446-2.562-.357-1.69-.369-.668-.355-.277-.618.005-.66.14-.782.395-.66 1.346-.512 2.92-.108 2.498.06 2.265 1.182.744.272.798.072 1.605-.372.792-.108 2.006.122-.598-.558-.754-.294-.779.024-.674-.227-1.106-1.084-1.926-1.232-.447-.51-.136-.815.372-.703 1.363-.72 1.156-.979.53-1.3.473-.598.99-.94 1.489.18 2.318-.68 3.8.133 4.542-.196 1.253.072 2.895.662 1.668.286 2.02.147 1.46-.294-1.377-.906-2.983-1.075-.766-.913 1.366-2.485 1.852-2.263 1.125-2.69-.316-2.672-.54-.736.173-.867.648-.732.454-.73-.393-.877-.818-1.37-.42-.443-1.424-.74-2.865-.035-2.336-.403-.756.325-.425.5-.535.328-1.822.664-.606.131-.634-.132-.894-.749-.793.084-2.41-.467-1.135-1.013-.419-.143-3.899-.81-1.355-.154-3.1.835-2.251 1.07-.635.155-1.165.679-.655.108-.676-.12-.635.036-1.36 1.016-2.46 1.184-1.222.748-1.364.463-1.511.291-1.55.048-.567.27-1.769.096-1.08.217-.035.404.215.905-.917-.32-.964.614.32.583-.577-.14-2.707-1.122-2.22-.79-1.972-.703-.29-.13-.538-.342-.385-.532-.084-.585.195-.43.478-.273.564-.108.502.084.559.263.995.318 1.288.06.802-.245.108-.586-1.533-2.167-1.411-1.75-1.366-1.944-.578-.705-1.676-1.628-1.651-1.604-1.306-1.428-.685-.44-2.107-.184-4.02-.352-1.42-.167-1.137.424-1.14.333-1.086-.62-.856-1.013-.451-.853.22-.87.096-1.285-.654-1.267-.724-.625-1.817-.47-2.31-1.066-.622-1.942 1.124-2.784 1.806-1.972 1.313-.825.626-.721.205-.625-.158-.596-.779-.634-1.208-.616-.611-.76.253-1.624.798-2.34 1.231-1.871 1.654-1.038 1.427-.742.563-.692.024-.982-.036-.928.381-.674.6-.536.634-.478.894-.539 1.154-.13 1.276.428 1.728 1.15 2.538 2.268 1.449 1.485.523.458 1.323.886 1.194.357 1.991-.555 1.91-.645.617-.41.397-.609-.304-1.041-.4-.68-.424-.866-.587-1.505-.415-2.363-.491-.75.361-.084.957.156.884.073 1.267-.52 1.741-.98 3.182-1.51.673-.997.542-1.11.882-.68 2.022-.224 1.874-.356 1.322-.785 2.074-.69 1.706-.419.75-.386.534-.578 1.954-1.633 1.533-1.003 1.349-1.033.454-.65 1.064.12 1.627.453 1.75.41 1.28.637.25.653.124.514.523.266.619.048.93-.129 1.63-.024 1.998-.844 2.785-1.424 2.548-.44 1.345.337 1.105 1.046.879.987.901.367.56.01.21.012 1.117-.223.084.003 1.027.036.987.331 1.631.036 2.271-.254.24-.109 1.09.135 1.329.454 1.033.541 1.844 1.776 1.062.458 2.168.63 1.017.553 1.18.894.618.542 1.283.98 1.486 1.608.263 1.279.337 1.082.552.512.455.06.492-.179.48-.491.166-.823-.145-1.453-.38-1.188-.488-.377-.234-.418.323-.531.825-.256 1.028.162 1.693.681 1.765.86 2.167 1.504 1.994.954 2.177.763 1.73.227 1.339-.23 1.58-.622 1.449-.719.658-.753.475-.822 2.183-1.1 1.992-1.002.907.18.641.284 2.044-.61.713-.168 1.948-.235 2.01.35 1.604 1.075 1.559.693 1.39-.084 1.153-.355.76-.67.575-.793.77-.506.12-.036 2.479.274 1.557-.036.166-.12 2.052.215 2.262 1.115 1.407 1.235 1.797 1.575.836.515 1.216.22.955.096 1.28.244 3.383.33.514.194.346.258-.313.862.302.218 2.742-.614.735-.458.906-1.3.81-1.31.602-.486.64-.127.644.193.896.774 1.218.789 1.643.3 1.006.12 1.556.06 3.657-.382 3.42-.953 1.954-1.036.908-1.552.567-1.764.875-1.114-.365-1.14-1.723-1.083-.58-.327-4.184-.607-.258-.436-.238-.096-4.124-.96-1.99-.411-.558-.634-.371-.83-1.288-.74-2.558-.673-.447-.512.423-.52 2.02-.576 2.306-1.215.886-.25 2.055-.06 1.9-.992 1.312-.568.684-.676-.18-.696-1.901-2.103-.564-1.274.335-.828 1.093-.897.619-.49.742-.879.492-.47 1.916-.2 2.33-.083 1.596.21 2.232.108 2.033.162 1.029.147.756-.27.548-.472-.024-.624-.798-.606-2.986-.794-1.278-.655-1.005.072-1.675-.203-1.513-.43-1.342-.145-.438-.596.278-.834.517-.477.993-.238 1.075.12 1.173-.347.336-.203.096-.26-.19-.376-.54-.31-.772-.084-.887.263-1.06.17-1.795-.385-1.43-.464.071-.429 1.058-.637.476-.516v-1.551l.367-.978 1.05-.669 1.233-.358 3.178.652 3.972.582.684-.096.2-.307.456-.272 5.513-.126 1.074-.375.533-.3 5.302-.431.632-.409.779-.382 1.218.007 1.454-.152 2.023-.465 1.434-.256.238-.024 1.513.096 1.885-.368.402-.153.307-.278 1.64-.535 3.146-.442.768.264 1.5.12 1.915-.196 1.412-.337.824.335 1.118.344.834-.291.413-.922.544-.9.943-.427.747-.155.677-.347.512-.36 2.774.06 2.481-.897.486.406 3.22-.096 3.998-.577 2.393-.27 4.132-.604 1.91-.488 2.732-.31 2.508-.214 1.64-.855 1.323-.122 1.61-.072.985-.206.643-.316.417-.594-.226-.754-.229-.55 1.15-.307 1.64-.096 1.038-.125 2.26-1.246 1.563-.598 1.614-.375 3.241.205 2.96.188 2.968.595 1.562.741 1.34.56z" transform="translate(-6.002 -17.426)" id="path2" />
  </g>
</svg>
