<?xml version="1.0" encoding="UTF-8" standalone="no"?>
<svg width="132.891" height="48.956" version="1.1" id="svg6" sodipodi:docname="kyrgyzstan.svg" xmlns:inkscape="http://www.inkscape.org/namespaces/inkscape" xmlns:sodipodi="http://sodipodi.sourceforge.net/DTD/sodipodi-0.dtd" xmlns="http://www.w3.org/2000/svg" xmlns:svg="http://www.w3.org/2000/svg">
  <defs id="defs10" />
  <sodipodi:namedview id="namedview8" pagecolor="#ffffff" bordercolor="#666666" borderopacity="1.0" objecttolerance="10.0" gridtolerance="10.0" guidetolerance="10.0" inkscape:pageshadow="2" inkscape:pageopacity="0.0" inkscape:pagecheckerboard="0" />
  <g style="display:inline" id="g4">
    <path style="display:inline;fill:#e7c236;fill-opacity:1;fill-rule:evenodd;stroke:#505050;stroke-width:.5;stroke-linecap:round;stroke-linejoin:round;stroke-miterlimit:4;stroke-dasharray:none;stroke-opacity:1" class="polygon" d="m410.017 176.376.238.723.204.841-.132.198-.227.132-3.684.209-.832.23-.892 1.165-3.151.936-1.797.48-.73-.024-1.745.765-4.877 1.912-2.396 1.207-1.205.505-.968.552-.163.557-.024.527-2.678 2.473-2.007.3-1.697-.06-1.152.375-1.654.379-3.578-.26-1.225.048-2.348-.341-.948.18-1.006.502-1.39 1.974-.568.462-.256.45-.213.96-.531 1.015-.685.8-.49.742-1.006.718-.935.451-.723-.943-.629.27-.594.383-1.133-.134-.697.194-1.59.82-2.341-.037-.255-.28-.464-2.252-.407-1.066-.335-.24-.419-.023-3.362 1.77-1.558.314-1.284.06-1.669-.529-.366.131-.289.286-.12.364.487 1.005-.136.198-.753-.012-1.057.232-.802.462-2.418 1.622-2.034.543-1.893.212-.777.18-.347.195-.635.773-.651 1.212-.34.593-.251.342.048.448.514.58.386 1.3-.084.336-.414.543-.598.532-1.289.321-1.01.161-.675-.108-1.264-.036-.997.215-.616.366-1.216.454-1.51.152-1.922.06-.925-.036-2.794-.307-.92.108-.88.238-1.591.246-.848.759-.45.698-.237.096-.993-.64-.76-.6-.497-.498-.622.012-2.224.905-.328-.024-.636-.344.12-.854-.036-.545-.716-.29-1.518-.071-.517-.309.024-.46.138-.442-.173-.34-.393-.259-.793.072-.911.351-.67.401-.842.187-1.018.072-.636.242-.724.98-2.47.205-.796-.223-.655-.697-.85-1.119-.479-.138-.802-.138-1.311.06-1.77.472-.428-.39-.459-.108-.412.32-.423-.036-1.75.096-2.21-.048-1.263-.219-.82.012-1.629.501h-.863l-1.128.096-.21-1.695-.614-1.144.187-.793.41-1.09.341-.61.7.258.799.448.532-.12.14-.369-.204-.483-.024-.362.3-.476.44-.444 2.823-.73 2.422-.53 1.258.354 2.439.816 1.255.42.872.249.766 1.193.501-.06.51-.24.3-.294.242-1.016 1.132-.573 2.497-.678.176-.398-.036-.218.391-.193 1.249-.197 2.525-.188.86.14.977.4.757.396.722-.012.594-.084.252.108.191.353.309.316.964-.429.874-.556.689-.084.636-.212.185-.371.498-.615 1.426-1.177.74-.19.48.001.024.19.232.173 1.246.272.379-.31.2-.428-.435-.68-.008-.285.164-.261.233-.155 1.988.645.44-.012.907-.363.832-.638.3-.5 4.075-1.63.288-.296-.06-.216-1.708-.38-.77.213-.714.001-.429-.238-2.075-.096-.455-.167-1.375-1.176-.945-.448-.76-.295-.83.048-.984.31-.31-.141-.084-.492.003-.62-.2-.665-.587-.153-.757.262-1.13-.268-.96-.096-.248-1.399-.387-.597-.4-.626-.418-.18-.685-.312-.036-.74-.145-.209-.243-.096-.33.084-.422.371.209.815-.161.817-.249.411-.48.303-.547.01-.95-.413-.151 2.474-.184.152-1.132-.35-.906.15-1.354-.152-1.02-.407-.761-.108-1.228-.348-.937-.452-.577-1.658-.547-.593-.516-.126-2.097.573-.765-.443-1.415-.569-1.072-.211-.287-.307.048-.377 3.293-1.846 1.297-1.27.817-.538 1.164-.357.909-.209.464-1.166.177-.134.646-.084 1.464-.478 2.36-1.023.047-.281-.235-.243-.994-.523-1.13-.417-.685.218-.387.215-.647-.541v-.556l.715-.954.596-.478.25-.918.85-.614.887-.972 1.073-.794 1.988-.596 1.108.194 1.04-.14 1.61-.483.31-.036.676-.01 4.147.739 1.37.036 3.212.96 1.478.208 1.043.27.473.414.754.508 4.034.412 1.107.274.398.446 1.149.567.977.129-.855-2.217.34-1.316 1.275-3.602.67-.542 1.28-.481 2.013-.537.76-.751 1.646.072.718-.06.491-.135.268-.422 1.86.732 3.105 1.481 2.347.937 2.765.887 3.828.81 3.238.27.554-.192 1.296-1.23.61-.06 1.105.108 3.436.06 3.497.06 1.65-.12 3.575-.514.53-.024.83.036 2.143.697 1.598.096h1.09l.635.06 1.325-.024 2.154.084 2.661.453 3.208-.084 1.032-.084 1.781.084 1.42.432 1.792.455 1.126.191.755.096 1.345.036.803-.143.459.2.459 1.118 1.111.736.87.692.726.766.744.31 1.301.012 2.464.218 1.414.305 1.805 1.323zm-114.254 28.417-.036-.247-.41-.12-1.167-.134-.833-.19h-.179l.072.237.354.42.491.447.63.048zm12.954-1.501.123-.542-.296.024-.346.147-.665.148-.147.272.443.345.566.123zm-6.892.693.12-.17-.436-.88.594-.82-1.183-.138-.6-.243-.676-.833-.224-.036-.35.229-.188.544.166.59.48.398.32.13.048.024-.012.194-.383.976.63.123 1.106.012z" transform="translate(-277.818 -163.523)" id="path2" />
  </g>
</svg>
