<?xml version="1.0" encoding="UTF-8" standalone="no"?>
<svg width="93.858" height="52.791" version="1.1" id="svg6" sodipodi:docname="tajikistan.svg" xmlns:inkscape="http://www.inkscape.org/namespaces/inkscape" xmlns:sodipodi="http://sodipodi.sourceforge.net/DTD/sodipodi-0.dtd" xmlns="http://www.w3.org/2000/svg" xmlns:svg="http://www.w3.org/2000/svg">
  <defs id="defs10" />
  <sodipodi:namedview id="namedview8" pagecolor="#ffffff" bordercolor="#666666" borderopacity="1.0" objecttolerance="10.0" gridtolerance="10.0" guidetolerance="10.0" inkscape:pageshadow="2" inkscape:pageopacity="0.0" inkscape:pagecheckerboard="0" />
  <g style="display:inline" id="g4">
    <path style="display:inline;fill:#85e736;fill-opacity:1;fill-rule:nonzero;stroke:#505050;stroke-width:.5;stroke-linecap:round;stroke-linejoin:round;stroke-miterlimit:4;stroke-dasharray:none;stroke-opacity:1" class="polygon" d="m295.763 204.793-1.077.463-.631-.048-.492-.449-.353-.419-.072-.237h.18l.832.19 1.167.134.41.12zm-.59-13.355-.359.024-.648-.57-.225-.397.265-.12.557.277.371.49zm.55 3.31-1.797 1.183-1.997 1.313-.072.172-.084.326.024.336.32.273.862.192.766.25.387.69.443.636.606.157 2.96-.402.703-.048.036.219-.174.398-2.497.679-1.132.573-.243 1.015-.299.295-.51.24-.5.06-.767-1.193-.872-.249-1.255-.42-2.439-.816-1.258-.355-2.422.531-2.824.73-.44.444-.299.476.024.362.204.483-.14.369-.532.12-.8-.448-.699-.259-.341.61-.41 1.09-.187.794.615 1.144.21 1.695 1.127-.096h.863l1.63-.501.819-.012 1.262.219 2.21.048 1.751-.084.423.036.412-.32.46.108.427.39 1.77-.473 1.31-.06.803.139.479.138.85 1.119.655.697.796.223 2.47-.205.724-.98.637-.243 1.017-.072.843-.186.67-.401.91-.35.793-.072.393.258.173.34-.138.443-.024.46.517.309 1.518.072.716.29.036.544-.12.854.636.344.328.024 2.224-.905.622-.012.498.499.76.6.992.639.238-.096.45-.698.846-.759 1.593-.246.878-.238.92-.108 2.795.307.925.036 1.921-.06 1.51-.152 1.217-.454.616-.366.998-.215 1.263.036.675.108.06.628-.159 1.187-.19.825.999 1.498.64.721.624.51.12.403-.128.328-.777.32-.277.342-.129.383.249.446.448 1.422.572 1.105.811.53 1.212.35.669-.072.477-.826.793-.633.673.048 1.082-.024 2.844.719 2.775 1.081.81.597.283.673-.768 1.557.036.996.174 1.061.635.787.58 1.35.12 1.119.253.333.204.39-.313 1.024-.217 1.032.26.344.848.51 1.334.95.256.788-.477.501-.848.607-1.084.524-.322.221-.191-.125-.54-.527-1.2-.855-.856-.45-1.624.145-.953-.158-1.153-.278-1.073.036-.675.517-.437.516-1.075.16-1.549.397-2.394.618-1.155-.096-.312-.267.256-.356.823-.459.198-.556-.158-.517-.763-.14-.295-.085-.335-.108-1.482-.308-1.183.109-2.064.646-3.793 1.694-1.664 1.14-1.197 1.726-3.588.554-2.467.99-2.542 1.611-1.682.868-.82.122-.82-.155-.82-.432-.8-1.349-.709-2.042-.469-1.351.264-1.734.299-1.974.305-2.005.494-2.316.41-.825.025-.55-.364-.278-.772.012-1.179.308-.837.048-.498-.2.048-1.075.6-1.95-.924-1.644-2.448-1.332-2.082-.463-1.718.406-1.443 1.059-1.17 1.711-1.21 1.4-1.257 1.09-.895.524-.29.201-.182.462.668 1.45-.048 1.216-.755.982-.826.469-.903-.048-.719-.227-.532-.41-1.439-.108-2.344.186-1.607.493-.865.798-.251 1.05.366 1.303-.182.999-.729.693-.6.398-.47.096-1.017-.6-1.564-1.3-1.077-.703-.584-.108-.32.072-.359.134-.203.168-.178.386-.501.153-.707-.12-.65.12-.386.407-1.087.493-1.918.552-1.05.59-.177.626-.286.278-.586-.096-1.734.862-1.32-.267-1.484-1.108-.823-.912-.084-.386.47-.874.195-2.909.592-1.006 1.77-1.805.922-1.376 1.039-1.118.75-.375.692-.88.567-1.008.16-.633-.049-.499-.206-.322-.982-.681-1.288-1.065-.684-1.086-.375-1.387-.096-.966 1.21-2.66-.193-.444-.348-.414-.712-.26-1.019-.107-1.008.12-1.287.01-.89-.15-.216-.166-.108-1.21-.227-.263-.382-.231-2.597-.558-.515-.24-.096-.305.92-2.686.402-.203.386-.436.61-.468 2.122-.766 2.278.331 2.025.356 2.017.191.698.128 1.154.108.772-.096.524-.314.952-.868.29-1.3.344-1.15.576-.084.58.122.277-.232.12-.316.12-.27.238-.06.418.298.238-.084.198-.198-.06-.239-.474-.401-.42-.631.035-.219.143-.227 1.248-.215.567-.036.197-.224-.072-.355-.471-.202-1.71.108-1.74-.024-.208-.218.096-.238.263-.187 3.596-.48 1.905.168 1.418.253.56-.126-.666-1.082.9-.096.12-.37-1.176-2.874.645-.253.65-.566-.06-1.072.574-.523.68-.358 1.014.362 1.564 1.057.51.206.506.06.724-.328 2.793-1.048 1.57-.59 1.872-.856.322-.33.646-1.303.352-.096.474.14 1.643 1.346.951.863v.295l-.272.223.049.216 1.343.469.001.214-.306.408-.164.225z" transform="translate(-255.255 -190.007)" id="path2" />
  </g>
</svg>
