<?xml version="1.0" encoding="UTF-8" standalone="no"?>
<svg width="170.337" height="91.943" version="1.1" id="svg6" sodipodi:docname="turkmenistan.svg" xmlns:inkscape="http://www.inkscape.org/namespaces/inkscape" xmlns:sodipodi="http://sodipodi.sourceforge.net/DTD/sodipodi-0.dtd" xmlns="http://www.w3.org/2000/svg" xmlns:svg="http://www.w3.org/2000/svg">
  <defs id="defs10" />
  <sodipodi:namedview id="namedview8" pagecolor="#ffffff" bordercolor="#666666" borderopacity="1.0" objecttolerance="10.0" gridtolerance="10.0" guidetolerance="10.0" inkscape:pageshadow="2" inkscape:pageopacity="0.0" inkscape:pagecheckerboard="0" />
  <g style="display:inline" id="g4">
    <path style="display:inline;fill:#36e77c;fill-opacity:1;fill-rule:nonzero;stroke:#505050;stroke-width:.5;stroke-linecap:round;stroke-linejoin:round;stroke-miterlimit:4;stroke-dasharray:none;stroke-opacity:1" class="polygon" d="m84.358 217.077-.108.564-.652-1.696-.328-1.868.418-.528.467.036-.444.675zm67.54-46.543 1.767 1.378.648.255 1.261.147 1.05.048.437.147.475.357.93 1.509.933.395 1.164.286 3.743-.024 1.15.072.94.71.584.293.251.25-.06.314-.23.397-.024.765-.06.593-.298.281-.084.263.25.23 1.735.565.584.605.438.272.108.376-.293.25-.814-.125-.397.396v.71l.582.669.168.61-.384.588-.448.83-.012.587.268.335 1.326.606 3.064 1.53.705.06 2.9-.356 1.349-.036.793.237 2.244.218.714.243.758.012 1.04-.072.704-.685.359-.156.316-.12.64-.012 1.774.435 1.867.918 1.237.838.609.758.77 1.644.93 2.53 1.124 1.707 1.317.886.924 1.627.8 3.555.5.728.508.379 1.505 1.029 3.078 1.702 1.818 1.005 2.81 1.606 2.573 1.471 2.58 2.27.516.332 2.27 1.229 2.526 1.258 1.769-.285 2.664 1.936 1.084.719.457.245 1.932.764 3.076 1.598 3.88 2.291 2.564 1.325.697.154.692-.01.741-.285.804-.225 1.371.295 1.486.53.94.402 1.088.584.862.552.654.255 2.22.482.38.29.242.323.036.334-1.246 1.758-.172 2.242-.008 1.688.14 1.324-.606.048-1.46-.281-2.908-.56-2.496-1.123-1.63-.733-.255.096-.73.501-.503.617-.399 1.194-.636 1.41-3.021.047-2.571.108-1.66.534-1.625.74-.407.874-.353 1.136-.946 2.578-.863 2.351-.441 1.526-.659 1.044-1.839 1.378-2.086.926-1.108.435-.49.542-.109.51-.393.157-.86-.096-.909.084-1.993.535-2.159.657-2.587.657h-1.475l-.588.148-.257.33.257.625.25.463.227.603-.606.488-.423.835-.33 1.47-.918.44-1.47.714-1.626.941-.416.192-.931.267-.93-.084-.844-.138-.917.241-.947.726-.44-.22-.22-.734-.478-.477-1.483-1.08-1.27-.768-.551-.048-1.167.197-1.458.145-1.186-.155-.94-.306-1.453-1.057-.53-.568-.396-.437-.994.12-.277-.477-.036-.557.277-.675-.084-1.272-.556-.914-.636-.398.084-.277.278-.636.358-.556-.005-1.099-.443-1.192-.177-1.719.12-1.677-.604-.844-4.948-.01-4.405.06-.248-.191-1.71-2.114-1.39-1.604-1.371-.945-3.142-1.165-1.502-.485-1.288-.888-1.053-.973-.273-1.333-.214-.438-.303-.354-.331-.158-.4.036-3.649-1.549-1.463-.406-1.378.327-.608.06-1.198-.44-1.38.597-.588.036-.824-.143-.68-.223-1.836-1.409-1.54-.57-1.111-.365-2.135-.533-2.278-.28-1.168-.23-.842-.308-.216-.199.012-.517-.06-.678-.28-.493-.577-.592-.8-.442-1.377.072-2.072-.036-1.586-.444-1.258-.084-1.513.084h-1.243l-.885.323-.515.377-.327 1.157-.299.173-.52.084-.692-.06-1.453.01-2.511-.205-3.16-.06-2.374.584-1.876.839-1.792.948-2.11 1.497-.618.664-1.243 2.653-.55.381-.719.305-.729.06-1.445.393-1.909.648-1.3.253-3.334-.133-.196-.841-.601-3.077-.292-3.104.024-1.43.347-2.869-.024-1.445-.142-1.31.139-1.284.266-1.444.14-1.468-.2-1.024-.646-.825-1.091-1.023-.173-.604-.06-.676-1.046-.072-.939-.698-.775-.38-1.666-.421-.835-.024-.763.31-.561.622-.392-.982.009-1.026 1.332-2.12.833.619 1.017.247 1.295.036 1.27-.165-.248-.725-.59-.413-.733-.325-.262-.958.096-.994.349-.94-.397-.378-.602-.234-1.39.024-1.802-.25-1.816-.107-.424 1.106 1.002 1.455-.85-.715-.8-.945-1.124-1.7-.724-1.992-.128-2.15.614-1.779.782-1.67.474-2.136.65-2.099.652.94.744.842 1.029.78.562.185 1.694.323 1.09-.122 1.162-.46 1.14.15.943.867.841.97 1.277.205 2.63-.702 1.251-.16 1.085.321.56.06.571-.06-.494-.862-.202-.836.661-.442 2.075.47 1.321-.314.337-.177.3-.217.159-.724-.06-.741-.172-.698-.387-.613-.953-.858-3.697-2.045-1.243-.816-1.036-1.055-.661-1.49-.536-1.552-.498-1.153-1.29-2.676-.502-.319-.628-.141-1.532-.084-1.55.194-2.535.46-1.451-.144-.672.285-1.662 1.127-.779.968-1.086 2.21.824.713-.012.467-.626 3.266.38 1.584-.137.12-.298-.367-.94-1.617-1.658-1.971-1.388-3.016 2.44-1.97 2.086-1.397 1.706-.843.522-.204 2.334-.698 3.013-.63 2.218-.464 2.896-.395.947-.072 1.392.01 1.13.373.683.29 2.415 1.2 2.465 1.225 2.113 1.358.6.554.335.662.249.65 1.796 2.058.727.943 1.05 1.228.842.597.824.739.553.608.632.288.7.12 1.603-.193 1.928-.385 1.152-.16.51.025 3.18.137 2.859.122 3.53.152 1.048.143 1.261.132.627.024.557-.527.368-.288.288-.228-.06-.259-.447-.218-.703-.729-.4-2.628-.25-2.25.836-.7.96-.509 1.385-1.53.743-.473 1.094-.39 3.658-.108 1.54-.3.501-.496.811-1.251.268-1.02.454-.466.546-.347.56.012 1.083.3.823.166.586.227.533.36.52.627.084.412.24.24h.72l.21-.095.136-.21-.108-.28-.706-.801-1.556-1.45-1.017-.59-.506-.32-.126-.3.66-.46.639-.262 1.123.197 1.49.108.664-.229.681-1.16z" transform="translate(-76.76 -168.99)" id="path2" />
  </g>
</svg>
