<?xml version="1.0" encoding="UTF-8" standalone="no"?>
<svg width="206.745" height="101.193" version="1.1" id="svg6" sodipodi:docname="uzbekistan.svg" xmlns:inkscape="http://www.inkscape.org/namespaces/inkscape" xmlns:sodipodi="http://sodipodi.sourceforge.net/DTD/sodipodi-0.dtd" xmlns="http://www.w3.org/2000/svg" xmlns:svg="http://www.w3.org/2000/svg">
  <defs id="defs10" />
  <sodipodi:namedview id="namedview8" pagecolor="#ffffff" bordercolor="#666666" borderopacity="1.0" objecttolerance="10.0" gridtolerance="10.0" guidetolerance="10.0" inkscape:pageshadow="2" inkscape:pageopacity="0.0" inkscape:pagecheckerboard="0" />
  <g style="display:inline" id="g4">
    <path style="display:inline;fill:#36bde7;fill-opacity:1;fill-rule:nonzero;stroke:#505050;stroke-width:.5;stroke-linecap:round;stroke-linejoin:round;stroke-miterlimit:4;stroke-dasharray:none;stroke-opacity:1" class="polygon" d="m308.717 203.292-.322.517-.566-.123-.443-.345.147-.272.665-.148.346-.147.296-.024zm-6.892.693-.6.108-1.105-.012-.631-.122.383-.976.012-.195-.048-.024-.32-.13-.48-.398-.166-.59.187-.544.351-.228.225.036.677.833.6.242 1.182.138-.594.821.436.877zm-110.748-43.256.982.036 1.994-.243 2.662-.324 2.104-.257 2.544-.312 2.42-.295 1.916-.235 2.858.177 2.822.175 2.024.127 1.985.123 2.35.146 1.314.084 1.502.096.635-.247 1.298-.502 1.226-.475 1.27-.492 1.125-.25 1.174.788.982.906 1.034.956 1.196.921 1.154.547 1.559.739.895 1.266 1.195 1.69.786 1.111.81 1.144 1.18-.452 1.256-.481 1.137-.435-.137 1.41-.125 1.283-.19 1.94-.155 1.592-.412 1.898-.024 1.446-.024 1.27-.024 1.009 2.206.048 1.63.036 2.04.048.198 1.267.274 1.78.417 1.614.35 1.354.525 1.75.28.937.492 1.1.482.266.774.177 2.697-.131 2.24-.108 1.76-.084 1.88-.096 2.488-.122.842.28.73-.197.84-.196.67.8.34.407.476.42.645.393-.274.822-.4 1.198-.108.617.777.663.576.388 1.582.79 1.48.44.97.13.923-.168.337-.448-.084-.616-.446-.648.036-.771.298-.565.946-1.024.893-.966 1.37-.984 1.631-.976.68-.71.258-1.236 1.066-.7 1.15-.421 1.43-.364.392-.617 1.973-1.048 1.186-.518 1.493-.303 2.065-.68 1.63-.8 1.566-1.508 1.238-.986 1.046-.608.878-.024.614.49.53.037.348-.225.591-.633.634-.736.592-.306 1.151-.156 1.039-.499.386-.215.685-.218 1.13.417.994.523.235.243-.048.281-2.359 1.023-1.464.478-.645.084-.177.134-.464 1.166-.908.21-1.165.356-.817.537-1.297 1.271-3.293 1.846-.048.378.287.306 1.072.212 1.416.568.764.443 2.097-.573.517.126.546.593.578 1.658.938.452 1.227.348.762.108 1.02.407 1.354.153.906-.15 1.132.35.183-.153.15-2.474.951.413.548-.01.48-.303.248-.41.161-.818-.209-.815.423-.37.33-.085.242.096.146.21.036.74.685.312.418.179.4.626.387.597.248 1.398.96.096 1.13.268.757-.261.586.153.2.665-.003.62.084.491.31.141.983-.309.83-.048.76.295.945.448 1.376 1.176.455.167 2.075.096.429.238h.714l.77-.213 1.708.38.06.214-.289.296-4.074 1.63-.3.501-.832.638-.907.363-.44.012-1.988-.645-.233.155-.164.26.008.285.435.68-.2.43-.379.308-1.246-.271-.232-.173-.024-.19h-.48l-.74.19-1.426 1.176-.499.615-.185.371-.635.212-.689.084-.875.556-.964.43-.308-.317-.191-.353-.253-.108-.593.084-.723.012-.757-.397-.977-.399-.859-.14-2.525.188-1.249.197-.392.193-.704.048-2.96.401-.605-.156-.444-.637-.387-.69-.765-.25-.862-.192-.32-.273-.025-.335.085-.327.072-.172 1.997-1.313 1.797-1.183.164-.096.164-.224.306-.409v-.214l-1.345-.468-.048-.217.272-.222v-.296l-.95-.862-1.644-1.346-.474-.14-.352.095-.646 1.303-.322.33-1.872.857-1.57.59-2.793 1.047-.724.328-.506-.06-.51-.205-1.564-1.058-1.014-.362-.68.359-.575.522.06 1.072-.649.566-.645.254 1.176 2.874-.12.37-.9.096.666 1.081-.56.127-1.418-.254-1.906-.167-3.595.48-.263.187-.097.238.208.217 1.74.024 1.71-.108.472.202.072.356-.197.223-.568.036-1.247.215-.143.228-.036.218.42.631.475.403.06.239-.198.198-.238.084-.418-.298-.238.06-.12.27-.12.315-.277.232-.58-.121-.576.084-.343 1.149-.291 1.301-.952.868-.524.313-.773.096-1.153-.108-.698-.127-2.017-.191-2.025-.356-2.278-.332-2.122.767-.61.468-.386.436-.401.202-.92 2.685.095.306.515.24 2.597.558.382.23.227.263.108 1.21.215.167.89.15 1.288-.01 1.008-.12 1.02.107.71.26.35.413.191.445-1.21 2.66.097.966.374 1.386.684 1.087 1.289 1.064.982.682.206.322.048.499-.16.633-.567 1.008-.69.88-.752.375-1.038 1.117-.922 1.376-1.77 1.806-.592 1.006-.196 2.908-.47.875-.072-.332-.635-.329-1.113.06-.732-.157-.35-.373-.91.108-1.465.582-1.493-.308-1.522-1.197-2.897-.438-3.671.274-.14-1.325.008-1.688.172-2.242 1.247-1.758-.036-.334-.242-.323-.381-.29-2.22-.482-.654-.254-.862-.552-1.087-.584-.941-.403-1.486-.53-1.37-.294-.804.225-.742.285-.692.01-.697-.154-2.563-1.325-3.88-2.29-3.077-1.6-1.931-.763-.458-.246-1.084-.718-2.664-1.936-1.769.285-2.526-1.259-2.27-1.228-.515-.332-2.581-2.27-2.574-1.471-2.81-1.606-1.817-1.005-3.078-1.703-1.505-1.029-.508-.378-.5-.728-.8-3.556-.925-1.627-1.317-.885-1.124-1.708-.93-2.53-.77-1.643-.61-.759-1.236-.837-1.867-.918-1.773-.435-.641.012-.316.12-.36.156-.704.685-1.039.072-.758-.012-.714-.244-2.244-.217-.793-.237-1.35.036-2.9.356-.704-.06-3.064-1.53-1.326-.606-.268-.336.012-.587.448-.83.384-.587-.168-.61-.582-.669v-.71l.396-.396.815.125.293-.25-.108-.377-.438-.271-.584-.606-1.735-.565-.25-.23.084-.262.298-.282.06-.592.024-.765.23-.397.06-.314-.251-.25-.584-.293-.94-.71-1.15-.072-3.743.024-1.164-.286-.933-.395-.93-1.509-.476-.357-.438-.149-1.049-.048-1.261-.147-.648-.254-1.766-1.379-1.694-1.229-.681 1.16-.663.23-1.49-.109-1.124-.197-.64.262-.66.46.126.3.505.32 1.017.59 1.556 1.45.707.8.108.28-.137.21-.21.096h-.72l-.24-.24-.083-.412-.52-.626-.533-.36-.587-.226-.823-.167-1.082-.299-.56-.012-.546.348-.454.466-.268 1.019-.811 1.251-.501.495-1.54.3-3.658.109-1.095.39-.742.473-1.385 1.53-.96.508-.837.701.25 2.25.4 2.628.703.729.447.218.06.259-.288.228-.368.288-.556.527-.626-.024-1.262-.132-1.048-.143-3.53-.153-2.858-.123-3.18-.137v-2.758l-.002-2.759-.001-2.758-.001-2.759-.001-2.758-.001-2.758-.001-2.759-.001-2.758-.001-2.758-.001-2.758-.001-2.76-.001-2.758-.001-2.758-.001-2.759-.002-2.758-.001-2.758 1.5-.343 1.891-.431 1.818-.415 2.158-.493 2.44-.556 2.082-.476 2.483-.566 1.894-.431 1.779-.406 2.275-.481 3.537-.749 1.973-.417 1.994-.422 1.902-.402 1.272-.15 1.366.575 1.66.791 1.66.79 1.66.791 1.66.791 1.66.79 1.661.792 1.66.79 1.66.791 1.66.79 1.659.79 1.66.791 1.661.79 1.66.791 1.66.791 1.66.79 1.66.792 1.547.736.69.546.38 1.203.766.957 1.33 1.037 1.366 1.06 1.692 1.404 1.174.973 1.197.993 1.975 1.638zm103.088 30.166.65.57.357-.024-.036-.29-.371-.491-.556-.278-.266.12z" transform="translate(-118.53 -135.723)" id="path2" />
  </g>
</svg>
