<?xml version="1.0" encoding="UTF-8" standalone="no"?>
<svg width="71.637" height="68.946" version="1.1" id="svg6" sodipodi:docname="bahamas.svg" xmlns:inkscape="http://www.inkscape.org/namespaces/inkscape" xmlns:sodipodi="http://sodipodi.sourceforge.net/DTD/sodipodi-0.dtd" xmlns="http://www.w3.org/2000/svg" xmlns:svg="http://www.w3.org/2000/svg">
  <defs id="defs10" />
  <sodipodi:namedview id="namedview8" pagecolor="#ffffff" bordercolor="#666666" borderopacity="1.0" objecttolerance="10.0" gridtolerance="10.0" guidetolerance="10.0" inkscape:pageshadow="2" inkscape:pageopacity="0.0" inkscape:pagecheckerboard="0" />
  <g style="display:inline" id="g4">
    <path class="polygon" d="m342.128 77.204-.364.837-1.206 1.595-2.694.402-2.967.074-.23-.436-.068-.382.216-.598-.022-.236-.124-.24 1.087-.258.707-.74 1.124-.124 1.402.52.755.02 1.119-.574.898-1.238.534.158zm1.263-3.583-1.52.559-.152-.658.774-.528zm-1.425-10.518.708.165.385-.011 1.305.342.777.47.175.194-.417.42-1.2-.795-1.049-.103-1.472.02-.59-.15.393-.85zm-13.292 2.455-.8.343.178-.591 1.534-1.002.848-.88.483-.312.172-.243.673-.325.337-.567-.091-.462-.705-.765.01-.538.243-.38 1.189-.176-.314.573.468 1.623-1.575 2.021-1.349.626zm1.702-5.812.26.204-.728.458-1.638-.566-.37.039-.324-.602-.123-.446.08-.411.974.32.526.588zm-8.928-1.948-.068.292-1.442-2.279-1.811-.553-1.04-.55.216-.312.721-.136.12-.722-.308-.78-.954-1.576-.536-1.068-.246-.246-.069-.896 1.134 1.387.47 1.232.759 1.207.508 2.083 1.45.707 1.043 1.006zm-9.396-6.338-.477.068-.852-.302-1.995-1.386-.924-.12.304-.782.705.273 1.609 1.196.607.599zm14.083-7.045-.904 1.235-.482-.105.274-1.552.626-.246.245.014zm-36.81-2.069.023.261-1.13.72.82.513.775-1.116.614.907.337 1.7-.057.297.057.254.12.325.034.473-.627 1.485-2.253-.153-.045-1.252-.348-.241-.525-1.789-.704-.576-.979-1.47.57-.379.757.126.388-.177 1.05-.141.639-.201zm26.788.564.08.58-.765-.118-1.127.227-.406.006.253-.397.782-.537.046-.511-.97-.737-1.127-1.834-.528-.435-.25-.69-.947-.739.197-.395.194-.094.64.19 1.448 2.638.091.253zm-23.252-9.28-1.288.237-.92-.234-.236-.187.395-.315.867-.263 1.393-.026.61.31.069.136zm-4.519 3.494-.023 1.381.125 1.033-.115.368-1.234.69-.317.386-1.163.39-.704.541-.352-.88-.683-.544-.115-.925-.522.312-.753-.19-1.241-.7-.785-.951 1.1-.165.226.59.87-.724-.197-.382-.157-.05-.285-.71 1.308-1.86.283-1.2-.593-1.927.554-.126 1.476.675.662.665.023.913.62.706.899 1.693zm12.486-8.893 1.877 1.286 1.601.485 1.731 1.61.746.574.134.522-.292 2.384-.389 1.435.057 1.259-.406-.373-.41-.824-.674-.474-.225-.248 1.211-.055.103-1.297.59-1.023-.09-1.065-1.414-1.172-.97-1.031-1.489-.33-1.377-1.028-.822-.126-1.002.18.361-.612.251-.81.184-.151zm-21.026-14.158 1.381.354.74-.048.444-.233 2.044.095 1.65-.341.245.605-.046.317-3.509.296-3.22.89-1.763.602-.83.067-.633-.317-2.126-1.836.569.183 1.57 1.038.975-.19.905-.685.138-.518-.135-.246.408-.818zm14.45 9.405-.238.1-.99-1.143-.797-.331 1.246-.808.538-.693-.011-1.514.304-.829-.102-.717.274-.733-.371-.823-1.041-.653-2.06-2.595-3.255-.63-1.684-.027.926-.416.855.05 1.316.248 1.576.12.964.764.92 1.012.831.41.342.26-.034.295.138.276 1.084.474 1.091.765.32 2.243-1.47 1.062-.27 3.248z" style="fill:#e7dd36;fill-opacity:1;fill-rule:nonzero;stroke:#505050;stroke-width:.5;stroke-linecap:round;stroke-linejoin:round;stroke-miterlimit:4;stroke-dasharray:none;stroke-opacity:1" transform="translate(-273.929 -11.416)" id="path2" />
  </g>
</svg>
