<?xml version="1.0" encoding="UTF-8" standalone="no"?>
<svg width="17.021" height="30.075" version="1.1" id="svg6" sodipodi:docname="belize.svg" xmlns:inkscape="http://www.inkscape.org/namespaces/inkscape" xmlns:sodipodi="http://sodipodi.sourceforge.net/DTD/sodipodi-0.dtd" xmlns="http://www.w3.org/2000/svg" xmlns:svg="http://www.w3.org/2000/svg">
  <defs id="defs10" />
  <sodipodi:namedview id="namedview8" pagecolor="#ffffff" bordercolor="#666666" borderopacity="1.0" objecttolerance="10.0" gridtolerance="10.0" guidetolerance="10.0" inkscape:pageshadow="2" inkscape:pageopacity="0.0" inkscape:pagecheckerboard="0" />
  <g style="display:inline" id="g4">
    <path class="polygon" d="m173.074 120.186-.878 1.595-.056-.456.365-1.18.495-.414.307-.437.07-.515.43.252-.108.508zm-1.113-5.725-.542.212.445-.657.065-.423.627-1.754.45.01.118.156zm-4.546-4.947.61.168.553-.12 1.334.045.513 1.42-.136 1.192-1.258 3.142-.159 1.08-.573 1.613.778 1.064-.726 1.414-.247.91-.06 1.375.368 2.613-.589 3.766-1.039 1.643-.645.625-1.154 1.635-1.515.488-2.097 2.634-.372.691.202.746-.492.009-2.011-.124-1.36.137-.054-.066.113-2.832.174-4.383.127-3.213.124-3.144.094-2.355.126-3.204.11-2.766-.01-.994.328-.785.947-.33 1.23.685.51.287.462-.163.582-.419.715-1.21 1.795-2.495.72-1.772.704-.352 1.013-.064.876.113z" style="fill:#81e736;fill-opacity:1;fill-rule:nonzero;stroke:#505050;stroke-width:.5;stroke-linecap:round;stroke-linejoin:round;stroke-miterlimit:4;stroke-dasharray:none;stroke-opacity:1" transform="translate(-157.036 -107.855)" id="path2" />
  </g>
</svg>
