<?xml version="1.0" encoding="UTF-8" standalone="no"?>
<svg width="500" height="240" version="1.1" id="svg68" sodipodi:docname="central_america.svg" xmlns:inkscape="http://www.inkscape.org/namespaces/inkscape" xmlns:sodipodi="http://sodipodi.sourceforge.net/DTD/sodipodi-0.dtd" xmlns="http://www.w3.org/2000/svg" xmlns:svg="http://www.w3.org/2000/svg">
  <defs id="defs72" />
  <sodipodi:namedview id="namedview70" pagecolor="#ffffff" bordercolor="#666666" borderopacity="1.0" objecttolerance="10.0" gridtolerance="10.0" guidetolerance="10.0" inkscape:pageshadow="2" inkscape:pageopacity="0.0" inkscape:pagecheckerboard="0" />
  <g style="display:inline" id="g66">
    <path style="fill:#b5ddff;fill-opacity:1;stroke:none;stroke-width:.35840499;stroke-linejoin:bevel;stroke-miterlimit:4;stroke-dasharray:none;stroke-dashoffset:3.20000005;stroke-opacity:1" d="M0 0h500v240H0z" id="path2" />
    <path class="polygon" d="m377.792 176.866.034.33-.53-.176-.707-.707-.707-.53.173-.571.18-.194.707.53.7.994zm78.653-65.789-1.811.574.08-.33 1.451-.791.53.056z" style="fill:#686868;fill-opacity:1;fill-rule:evenodd;stroke:#505050;stroke-width:.5;stroke-linecap:round;stroke-linejoin:round;stroke-miterlimit:4;stroke-dasharray:none;stroke-opacity:1" id="path4" />
    <path class="polygon" d="m471.099 124.586-.366.454-1.272-.184-.256-.568-.056-.4.795-.807.898.348.346.38.254.076-.003.326-.092.238zm-.355-6.134-.17.3-.933-.542-.285-1.018.034-.215.157-.112.37.196.493.073.31.333z" style="fill:#686868;fill-opacity:1;fill-rule:nonzero;stroke:#505050;stroke-width:.5;stroke-linecap:round;stroke-linejoin:round;stroke-miterlimit:4;stroke-dasharray:none;stroke-opacity:1" id="path6" />
    <path class="polygon" d="m342.128 77.204-.364.837-1.206 1.595-2.694.402-2.967.074-.23-.436-.068-.382.216-.598-.022-.236-.124-.24 1.087-.258.707-.74 1.124-.124 1.402.52.755.02 1.119-.574.898-1.238.534.158zm1.263-3.583-1.52.559-.152-.658.774-.528zm-1.425-10.518.708.165.385-.011 1.305.342.777.47.175.194-.417.42-1.2-.795-1.049-.103-1.472.02-.59-.15.393-.85zm-13.292 2.455-.8.343.178-.591 1.534-1.002.848-.88.483-.312.172-.243.673-.325.337-.567-.091-.462-.705-.765.01-.538.243-.38 1.189-.176-.314.573.468 1.623-1.575 2.021-1.349.626zm1.702-5.812.26.204-.728.458-1.638-.566-.37.039-.324-.602-.123-.446.08-.411.974.32.526.588zm-8.928-1.948-.068.292-1.442-2.279-1.811-.553-1.04-.55.216-.312.721-.136.12-.722-.308-.78-.954-1.576-.536-1.068-.246-.246-.069-.896 1.134 1.387.47 1.232.759 1.207.508 2.083 1.45.707 1.043 1.006zm-9.396-6.338-.477.068-.852-.302-1.995-1.386-.924-.12.304-.782.705.273 1.609 1.196.607.599zm14.083-7.045-.904 1.235-.482-.105.274-1.552.626-.246.245.014zm-36.81-2.069.023.261-1.13.72.82.513.775-1.116.614.907.337 1.7-.057.297.057.254.12.325.034.473-.627 1.485-2.253-.153-.045-1.252-.348-.241-.525-1.789-.704-.576-.979-1.47.57-.379.757.126.388-.177 1.05-.141.639-.201zm26.788.564.08.58-.765-.118-1.127.227-.406.006.253-.397.782-.537.046-.511-.97-.737-1.127-1.834-.528-.435-.25-.69-.947-.739.197-.395.194-.094.64.19 1.448 2.638.091.253zm-23.252-9.28-1.288.237-.92-.234-.236-.187.395-.315.867-.263 1.393-.026.61.31.069.136zm-4.519 3.494-.023 1.381.125 1.033-.115.368-1.234.69-.317.386-1.163.39-.704.541-.352-.88-.683-.544-.115-.925-.522.312-.753-.19-1.241-.7-.785-.951 1.1-.165.226.59.87-.724-.197-.382-.157-.05-.285-.71 1.308-1.86.283-1.2-.593-1.927.554-.126 1.476.675.662.665.023.913.62.706.899 1.693zm12.486-8.893 1.877 1.286 1.601.485 1.731 1.61.746.574.134.522-.292 2.384-.389 1.435.057 1.259-.406-.373-.41-.824-.674-.474-.225-.248 1.211-.055.103-1.297.59-1.023-.09-1.065-1.414-1.172-.97-1.031-1.489-.33-1.377-1.028-.822-.126-1.002.18.361-.612.251-.81.184-.151zm-21.026-14.158 1.381.354.74-.048.444-.233 2.044.095 1.65-.341.245.605-.046.317-3.509.296-3.22.89-1.763.602-.83.067-.633-.317-2.126-1.836.569.183 1.57 1.038.975-.19.905-.685.138-.518-.135-.246.408-.818zm14.45 9.405-.238.1-.99-1.143-.797-.331 1.246-.808.538-.693-.011-1.514.304-.829-.102-.717.274-.733-.371-.823-1.041-.653-2.06-2.595-3.255-.63-1.684-.027.926-.416.855.05 1.316.248 1.576.12.964.764.92 1.012.831.41.342.26-.034.295.138.276 1.084.474 1.091.765.32 2.243-1.47 1.062-.27 3.248z" style="fill:#fff;fill-opacity:1;fill-rule:nonzero;stroke:#505050;stroke-width:.5;stroke-linecap:round;stroke-linejoin:round;stroke-miterlimit:4;stroke-dasharray:none;stroke-opacity:1" id="path8" />
    <path class="polygon" d="m458.375 115.014-.171.015-.137-.096-.12-.17-.068-.171.011-.1.103.046.749.11-.08.125-.126.14z" style="fill:#686868;fill-opacity:1;fill-rule:evenodd;stroke:#505050;stroke-width:.5;stroke-linecap:round;stroke-linejoin:round;stroke-miterlimit:4;stroke-dasharray:none;stroke-opacity:1" id="path10" />
    <path class="polygon" d="m173.074 120.186-.878 1.595-.056-.456.365-1.18.495-.414.307-.437.07-.515.43.252-.108.508zm-1.113-5.725-.542.212.445-.657.065-.423.627-1.754.45.01.118.156zm-4.546-4.947.61.168.553-.12 1.334.045.513 1.42-.136 1.192-1.258 3.142-.159 1.08-.573 1.613.778 1.064-.726 1.414-.247.91-.06 1.375.368 2.613-.589 3.766-1.039 1.643-.645.625-1.154 1.635-1.515.488-2.097 2.634-.372.691.202.746-.492.009-2.011-.124-1.36.137-.054-.066.113-2.832.174-4.383.127-3.213.124-3.144.094-2.355.126-3.204.11-2.766-.01-.994.328-.785.947-.33 1.23.685.51.287.462-.163.582-.419.715-1.21 1.795-2.495.72-1.772.704-.352 1.013-.064.876.113z" style="fill:#fff;fill-opacity:1;fill-rule:nonzero;stroke:#505050;stroke-width:.5;stroke-linecap:round;stroke-linejoin:round;stroke-miterlimit:4;stroke-dasharray:none;stroke-opacity:1" id="path12" />
    <path class="polygon" d="m436.73-49.375-1.025.386-.285-.031-.203-.132 1.046-.386.873-.903.3.057z" style="fill:#fff;fill-opacity:1;fill-rule:evenodd;stroke:#505050;stroke-width:.5;stroke-linecap:round;stroke-linejoin:round;stroke-miterlimit:4;stroke-dasharray:none;stroke-opacity:1" id="path14" />
    <path class="polygon" d="m496.443 169.683-.326.225-1.02-.455-.357-.55-.046-1.742.629-.166 1.182 1.378.687.503z" style="fill:#686868;fill-opacity:1;fill-rule:evenodd;stroke:#505050;stroke-width:.5;stroke-linecap:round;stroke-linejoin:round;stroke-miterlimit:4;stroke-dasharray:none;stroke-opacity:1" id="path16" />
    <path class="polygon" d="m284.125 289.867-.309.252-.59-.452-.2-.568.361-.424.466.138.21.349zm78.125-111.67 1.221 1.951.202 1.344-1.675 1.46-.406.643-.408.138-.508.3-1.55.563-2.091.539-2.72.689-.619.735-2.693 4.624-2.253.937-.82.688-.618.875-1.343 1.611-.56 1.24-1.485 2.69-.81 3.369-.307 1.893-.447 2.743-.656 1.38-.88 1.294-.946 1.266-.815 1.387-.692 1.085-.114.373.337.299 1.636-.3.644-.326.892-.42.56.225.56 1.194.635.15.597-.15.635.299.807 2.972.685 2.517 1.593 1.572 1.245 1.228.299 1.083.299 1.53.08.747-.39.452-.619.93-.154 1.782-.102.592-.115 1.65.08 1.014.33.792.55.453 1.122.235 1.01.276.581 1.375.826 1.743.885.732 1.3.483.927-.177 2.171-.309 1.868.074 2.728.47 1.017-.017 1.316-.088 2.31-.948.838-.142.936.083 1.363.482.74.38.948.394 1.384.281.89-.047.671-.018.39.179 2.176 2.71 1.884 2.347 1.644 1.972 1.774 2.127.138.125.799-.274.527.119.487.432.839-.179 1.192-.787 1.742-.157 2.289.472 3.018.002 3.748-.467 2.329-.507.908-.547 1.506.056 1.814.492.981.702.119.69.367 1.074-.393 1.09-1.156 1.104-.64 1.411-.125 1.717-.596 1.269-1.07.821-.416 1.198.236 1.573-.115 2.3-.467 3.025v1.808l.467.591.216.848-.035 1.104.176.977.58 1.274.807 2.534.674 1.088.586.399.597.487 1.722 2.593.417.546-.126.477-.16.358-.198.228-1.838 1.543-3.648 3.358-.302.427.023.704 1.056-.453 1.13.378.554.075.25.277.328.905.377.15.553.378 1.081.955.906 1.006.678.482.478.448.15.654-.2.653.568 1.516.387.47.201.578-.2.579.477.679.52 1.335.636 1.631.08.905.265.417.31 1.211.532 1.138-.125.78.222.762-2.157.509-.194-.08-.13-.28.057-2.173-.023-2.452-.332-1.004-.987-1.61-1.31-2.135-.356-.613-.553-.352-.654-.05-.478.15-.643.399-.606.432-1.17 1.288-1.178 1.506-.69.336-.692.138-.61-.047-.491-.405-.504-.821-.607-1.091-.724-.356-.28.335-.24.641-.189.637.487.809.418.624-.718-.022-2.325.001-2.68.001-2.676.001-2.407.001-2.229.001-.85-.051-.864-.367-.83-.174-.436.028-.785.357-1.021.052-.688.339-.554-.04-.01 1.879-.012 2.68-.01 2.843.615-.216.534.02.39.2 1.096-.16.608.085.575.072.533.01.329.225.441-.04.472-.247.566.154.605.4.39.596.35.74.348.39-.023.708-.01.555-.123.461.154.299.114.318-.035.185-.205.082-.441.062-.472.05-.329-.02-.256-.287-.246-.03-.36.04-.38-.175-.328-.359-.585-.36-.626.155-.43.185-.443.226-.4.236-.4-.062-.515.175-.43.267-.575.215-.626.103-.719.104-.687.04-.781.083-.046 1.496-.091 2.942-.057 1.948.003 1.795.302.653 1.383 1.383 1.081.729.918.811.912.341.382.306.252.502.126.528.102.454-.102.477-.226.452.102.478.328.377.102.478.226.452.126.454.277.326.352.227.453.376.045.352-.045.403-.003.304.43.692.127.486-.2.58-.194 2.006-.498 2.284-.317 1.744-.518 2.842-.602 3.308-.734 4.03-.726 3.98-.7 3.852-.635 3.48-.699 3.84-.424 2.326-.202.403-.585-.843-.885-.796-.829-.479-.352-.628-.478-1.281-.662-.439-.469-.34-.452.05-.478.352-.74.224-.5-.033-2.012-.883-.33-.084 1.293-2.018 2.312-3.606 1.469-2.292 1.631-2.545.834-1.299.114-.221-.002-.332-.355-.496-.786-.209-.908-.38-.573-.615-.792-.265-.617-.44-1.124-.429-.674-.397-.822-.143-.655-.727-2.385-1.408-.616-.133-.67.216-.98.224-.947.771-1.183.249-1.105-.008-.575-.46-.555-.166-.723-.627-1.277-.48-.923-.335-.573.155-.735.7-.744.695-.59.432-.793-.023-.946.64-.93.225-.939.1-1.082.224-1.198-.386-.98-.34-.441-.155-.397.107-.616.356-1.107.151-.865.034-.616-.164-.553-.62-.895-.316-.984-.385-.208-.796.142-.594.384-.858-.213-.887-.414-1.402-.177-.57-.308-.486-.484-.176-.948.132-1.035-.53-.639-.505-.33-.618.353-1.166-.309-.991-.617-.551-.397-.97-.616-.77-.815-.395-.814.043-.638-.242-.728-.815-.683-.309-.77-.793-1.441-.352-.748-.31-.428-.487-.576-.877.069-.485-.28-.476-.248-.858-.49-1.262-.54-.719-.555-.542-.47-.459-.699-.682-.859-.397-.726-.417-.286-.617-.243-.507-.407.037-.585-.045-.644-.128-.681-.368-.567-.447-.954-.755-.521-.1h-.462l-.683.74-2.047-.777-1.748-1.155-1.817-.3-1.176-.705-1.084-1.103-.585-.745-.476-.37-2.31-1.07-.462-.104-.88.496-.287.298-.057.854-.103.487-.767.294-1.236-.063-.861-.31-.576-.045-.117.242-.324.105-.702-.07-1.036-.236-.938-.316-1.274-.67-.588.082-1.448-.144-1.181-.382-.302-.353-.511-2.413-.157-.168-.51-.104-.857-.333-.54-.389-.28-.668-.338-.634-1.445.142-2.365-.836-1.638-.796-1.5-.885-2.273-1.741-.868-.432-1.071-.533-.633-.858-1.047-.866-.351-.236-.329-.784-1.561-1.135.773-1.466 1.878-1.1 2.463.854.303-1.709-.892-1.512.132-2.856.289-.569.65-.764.847-.53.496-.152.844.261.532-.57 2.008.255.61-.239.415-.387.49-.295.627-.687.359-.794.3-.308.694.108.069-.342.357-.467 1.215-1.044-.01-.461-.342-1.006.08-.37.702-.128.832-.282.443-.961.549-.839.628-1.232.69-.077.367-1.439.93-1.26 1.893-3.74-.57.082-.453.5-.518-.06-.587-.294.172-1.684-.337-.2-.915 1.297-.788-1.32-.068-.804.33-.796-.045-.535-1.277.398.057-.496.795-.51.36-.53.692-.579.288-.874.167-1.356.312-1.458-.23-.717-.376-.615-.311-2.714.091-1.58-.16-1.24-.325-1.052-1.513-1.38 2.392-1.579.859-1.192-1.088-2.453-1.423-2.069-.045-1.241.376.158.477-.037.438-2.617-.103-.81-.8-1.309-.992-.032-.87-1.644-.498-.369-.4-1.035-1.4-2.016-1.111-1.05.83-2.434.725-.466.237-.608-.284-1.495.08-.35.171-.15.17.011.293.225.544.645.456.8.365.244.55-.264 2.139-1.592-.137-.493.195-.997.714-.817.763-.277.229-.456-.186-.7-.802-1.747-.717-.94-.46-.937-.245-.862-.812-.811.345-.77.63-.898.216-.155.343.246.942 1.63 1.499 1.062 1.571 1.713.643 1.18.512.216.446.427-.196.317-.491.334-.143.687.32.384.338.245.916-.155.504-.804-.339-3.517-.53-1.758-.611-.548-.55-.695.37-.526.978-.237 1.287-.617 4.704-3.356 1.611-3.153 1.235-1.142 1.393-.743 1.705.174 1.325-.397.407-1.003-.362-1.361-.51-.82.49-1.192.506-1.807-.034-1.518.653-.904-.226-.357-.955.733-.755.328.428-.604 1.336-1.498.694-2.28.534-.949 1.886-1.326.372-.639 1.425-.994 2.297-2.134.878-.594 4.45 1.375 1.415-.086-.253.25-.653.086-.943.373-.273.821.638.86.678.25.578-.554.572-1.58.921-1.745.217-1.829.653-.628.956-.226 1.705.362 1.299.379 1.354.047 4.145-.276 6.746-4.748 3.132-1.021 1.962-.999 1.252-1.949.336-1.464.92-.568h.97l.443-.355.138-.451 2.333-1.265 1.335-.164 1.18.024z" style="fill:#686868;fill-opacity:1;fill-rule:nonzero;stroke:#505050;stroke-width:.5;stroke-linecap:round;stroke-linejoin:round;stroke-miterlimit:4;stroke-dasharray:none;stroke-opacity:1" id="path18" />
    <path class="polygon" d="m221.09 194.366.28.454.333.712.147.915 1.448 3.065 1.157 1.717 2.534 3.122 1.095.574 1.85 2.512.639.415.363.741 1.919.61.53.45-.064.21-.197.22-.283.224-.374.153-.904-.46-.885-.52-.49.24-.184.676-.329.347-.411.137-.169.226-.034 2.284.028 2.152.673.048 1.12.748.478.44.152.406-.138.2-.82.469-.8.594-.4.74.7 1.198.15.814-.025.85-.192.41-1.55.977-.34.342.046.248.855.675.405.653.338.787.045.683-.774-1.267-1.074-1.208-.934-.745-.07-1.738-.375-.943-1.407-.869-1.204-.608-.893.124.547.999 1.414 1.28.093.492-.023.66-.972-.102-.858-.27-1.046-.084-.695-.393-1.475-1.529 1.048-1.305.324-.857-.027-1.776-.24-.861-1.137-1.311-1.809-1.438-2.535-1.175-1.191-.947-2.968-.726-1.128-.481-.882-.893-.132-.64.313-.987-.82-1.255-3.536-2.466-1.977-.908-.424-.533-.314-.166.304 1.702.864 1.025 2.257.958.62.557.25.726-1.309 1.387-.666.353-.198.757-.427.23-.45-.437-1.83-2.176-3.54-1.043-.64-.64-1.316-1.988-.606-1.815.217-1.21 1.453-1.885.454-.82-.092-.506.048-.744-.543-.52-1.346-.676-.857-.543.235-.27 1.541-.73.097-.658-.007-.218.252-.048.224-.175.138-.181.42-.634.368-.358.424-.057.519.264 1.942.682 2.16.759 3.076 1.079 1.275-.691 1.097-.528.764.075 1.653.615.996.196.61-.061 1.058.902.577.678.096.451.322.243.822.054 2.018.46 1.232-.09 1.12-.486.616-.581z" style="fill:#fff;fill-opacity:1;fill-rule:evenodd;stroke:#505050;stroke-width:.5;stroke-linecap:round;stroke-linejoin:round;stroke-miterlimit:4;stroke-dasharray:none;stroke-opacity:1" id="path20" />
    <path class="polygon" d="m233.406 72.88-1.06.604-2.262.853-1.214.03-1.228-.32-.846-.714-.482-.702.04-.337.768.563.662.277.543-.185.384-.304-1.242-2.27.054-.48.987-1.246 2.685.379.47.219.372.788.598.619.702 1.654zm55.79-4.337-.469.35-.513-.505-.326-.055-.45-.2-.876-.56-.21-.581.727-.045.915.103 1.605.33-.14.656zm-2.4-2.002-.375.032-1.136-.475-.339-.398.4-.533.08-.578.154-.039.184.7.865.299.057.153.531.594zm-1.683-1.797-.233.19-.617-.425-.894-.185-.525-.661-.5-.254-.046-.243.827-.16.575.07.643.505.37.927zm-6.876-3.045 1.565.241.543-.145.522-.042.55.1.768.949-.674.118h-.535l-.394-.171-1.404-.045-.928-.275-.509-.236-.25-.287zm-8.204-1.274.023.3-1.993-.838-.857-.873-.345-.2.559-.017 2.246 1.43zm-28.368-5.69 2.988.53 2.415-.15 1.155-.31-.106.322 1.06.786.388.053 1.562-.398 4.076-.15.419.22.718.765 1.04.475 1.076.36 1.126.096 1.123-.164 1.054.08 1.315.746.415.089 1.177-.204-.347.682 1.984.96 1.454 1.884 1.057.774 1.12.695.941.471 1.057.225 3.205-.092.759.058.678.269.647.106.374-.1 6.195 2.935 1.969 1.567 1.202.814 2.602 1.177 1.046.26.547-.157-.102-.259-.762-.653-.114-.239.98.201 1.768 1.327.486.49.883.455.888.328-.423.524-.722.045-1.387-.216 1.101.853.19.62.514.052.763-.681.482-.575 1.945 1.483 1.047.678-.268.396-.092.392 1.168-.365.444.04.428.21.468.638 1.092.142 1.1-.017 2.234.527 2.116 1.071 1.991.219 2.008.036 1.017.567.432.76-.487.539-.278.562.75.69-1.63.293-.231.415.08.449.323.247.933-.217 1.348.193 2.126.171 1.423-.14 2.892.47.88.251 1.716.883.794.583 1.702 1.568 1.468.617 1.272.15.444-.104.404.17.353.22.35.688-.193.722-.726.587-.404.427-1.816.049-2.538.196-2.455.637-1.198.506-.549.335-1.29.31-.092-.266.023-.333-.338-.621-.293.558-.48.408-.81.348-2.981.023-1.2-.469-1.23-.321-4.485-.335-1.077.03-2.996.347-3.012.188-1.26.215-1.245.326-2.423-.01-2.865.369-2.872.067 1.84-2.585 3.88-2.488.73-.535.52-.687.123-.517-.17-.442-.924-.779-.188-.58-.275-.375-1.345-.326-1.363-.196-1.433-.007-3.012-.268-1.601-.02-1.358-.53-2.252-1.89-1.054-.528-.542-.423-.42-.487-.53-2.772-.449-1.334-.683-1.16-1.04-.88-1.087-.3-4.176.754-.971-.111-.947-.257-6.304-1.795-2.6-.988-1.06-.49-.905-.698-.938-1.144-1.055-1.023.007.414-.162.27-5.278.12-.84-.235-.542-.278-.382-.414-.283-.829-.502-.696-.16.742-.261.684-.707.382-.808.06-.979-.908-4.277-.187-.379-.154-1.404-.88-1.199-1.105 1.194-.389 2.462-.512.533-.341.31-.435-.223-.65-.49-.469-.504-.275-.558-.176-.736-.074-9.517-.116-.551.352-.854.721-1.69.925-1.114.959-.417.495-.52.354-1.172.595-.998.915-1.212.41-.662-.25-.656.003-.473.226-.497.102-2.441.112-.365.233-.349.657-.396 1.276-.375.422-1.224.161-1.167.35-2.374 1.216-.613.177.133-.891-.119-.866-.669-.031-.762.144-.636.243-1.177.647-.597.164-.558-.331.114-.424 3.928-1.562.439-.12.698.118.683-.053.533-.437-.646-2.067.248-1.406.911-1.087 1.82-1.646.876-.54 8.975-3.44.919-.175 5.831-.69.89-.24 2.705-1.02 2.842-.415z" style="fill:#fff;fill-opacity:1;fill-rule:nonzero;stroke:#505050;stroke-width:.5;stroke-linecap:round;stroke-linejoin:round;stroke-miterlimit:4;stroke-dasharray:none;stroke-opacity:1" id="path22" />
    <path class="polygon" d="m390.882 181.339-.596.163-2.187-1.1-1.81-1.785-.057-.933.461.08.476.356.725 1.262 2.118.83z" style="fill:#686868;fill-opacity:1;fill-rule:evenodd;stroke:#505050;stroke-width:.5;stroke-linecap:round;stroke-linejoin:round;stroke-miterlimit:4;stroke-dasharray:none;stroke-opacity:1" id="path24" />
    <path class="polygon" d="m247 98.225.369.22.465-.134.133-.242 1.76.18.266.474-1.34.012-.6.305-.302.063-1.152-.075-.164-1.098.32-.116zm15.856-4.097-.114.065-.365-.05-.837.467-.361-.027.114-.163.173-.153.198-.114.183-.045.586-.095.278-.01.19.106zm1.775-.042-.533.173-.411-.067.935-.474.24-.16.205-.085.215-.001.274.098v.072z" style="fill:#fff;fill-opacity:1;fill-rule:nonzero;stroke:#505050;stroke-width:.5;stroke-linecap:round;stroke-linejoin:round;stroke-miterlimit:4;stroke-dasharray:none;stroke-opacity:1" id="path26" />
    <path class="polygon" d="m476.051 144.973-1.068.248-.46-1.968-.745-1.428.128-.893.134-.338 1.575.548.488.665.299 1.751z" style="fill:#686868;fill-opacity:1;fill-rule:evenodd;stroke:#505050;stroke-width:.5;stroke-linecap:round;stroke-linejoin:round;stroke-miterlimit:4;stroke-dasharray:none;stroke-opacity:1" id="path28" />
    <path class="polygon" d="m356.478 113.159.046-1.88.302-.761-.282-.804-1.261-.854-.773-1.1-.685-.972.154-.142 1.373-.044.482-.357.924-.997.184-.801-.08-.607-.6-.725-.236-.764.742-.667.97-.972.133-.374-.023-.37-1.133-1.024-.08-.44.527-1.112-.045-.737-.525-2.299-.248-.342.502-.193.331-.685.441-.61.586-.328.664-.204 1.324.016 1.828.531.518-.008 1.756-.482 1.457-.268 1.371.305.554.414 1.132.657.568.201 1.789-.014.489.065 1.501 1.085 1.265.434.734.021 1.316-.42.652.013.748.936.147 1.328.626 1.21.958.775 4.726-.325 1.054.637-.362.526-.667.28-2.246-.124-.983.063-.197.524-.003.487 1.314.116 1.29.246 1.311.39 1.336.267 1.503.174 1.481.282 2.47.954 2.73 2.17.729.494.481.68-.23.837-.975 1.373-.552.441-.805.269-.552.56-.531.961-.326.081-.383-.04-.656-.544-.469-.834-1.316-.783-1.566.1-2.306-.463-1.396.225-1.396.05-1.429-.236-1.436-.082-1.434.294-1.39.503-.513.319-.893.782-.473.289-3.384.393-.975-.574-.905-.783-1.301-.107-1.887.606-1.18.22-.48.26-.14.297-.004 1.094-.267.666-1.839 2.513-1.037 1.773-.427.547-.493.12-.906-1.02-.578-.368-.715-.186-.303-.541.011-.77-.188-.746-.441-.586z" style="fill:#fff;fill-opacity:1;fill-rule:evenodd;stroke:#505050;stroke-width:.5;stroke-linecap:round;stroke-linejoin:round;stroke-miterlimit:4;stroke-dasharray:none;stroke-opacity:1" id="path30" />
    <path class="polygon" d="m471.105 181.876-.76.048.301-.422.069-.719.398-.874.621-.592.609.157-.23 1.93z" style="fill:#686868;fill-opacity:1;fill-rule:evenodd;stroke:#505050;stroke-width:.5;stroke-linecap:round;stroke-linejoin:round;stroke-miterlimit:4;stroke-dasharray:none;stroke-opacity:1" id="path32" />
    <path class="polygon" d="m158.154 115.717-.11 2.766-.126 3.204-.094 2.355-.124 3.144-.127 3.214-.174 4.382-.113 2.832.054.066 1.36-.137 2.011.124.492-.008.616.246.475.075 1.023.638 1.2.483.766-.974-.403-.587-.301-.3.046-.261 4.17 2.523-.492.389-1.062.9-1.924 1.536-1.724 1.377-1.659 1.248-1.494 1.124-.176.112-1.894.802-.317.37-.408 1.588-.185.394.343.882.343 1.362-.11.711-1.31.877-.6.79-.265.51-.236-.133-.406-.04-.935.198-.452.044-.378.226-.037.49.25.797.09.41-.264.19-1.152.478-.454.472-.436.733-.505.307-.528-.057-.373.108-.798.55-1.203 1.064-.645.79-.014.59.121.53-4.377-1.874-1.457-.32-6.148.038-2.637-.736-3.005-1.423-2.032-1.292-4.744-3.616.298-.292.25-.674.31-.695-.189-.801-.113-.65.35-.947-.033-.71.163-.437.52-.283.272-.541-1.477-1.864.001-.426.195-.523 1.197-1.991 1.425-2.368 1.57-2.613.946-1.571 3.45-.002 2.283-.002 2.898-.001 3.151-.002 2.067-.001.853-.018-.145-1.022.111-1.129.378-1.025v-.453l-.617-.554-1.194-.322-.664-.49-.002-.62-.292-.75-.579-.88-1.2-.9-1.823-.92-1.55-1.236-1.281-1.552-1.084-.998-.834-.418-.197-.221 2.441.02 2.31.02.016-2.224.014-1.976.015-2.23 4.186.001 5 .003 5.185.003 4.074.003z" style="fill:#fff;fill-opacity:1;fill-rule:evenodd;stroke:#505050;stroke-width:.5;stroke-linecap:round;stroke-linejoin:round;stroke-miterlimit:4;stroke-dasharray:none;stroke-opacity:1" id="path34" />
    <path class="polygon" d="m522.652 255.584-.605.72-.114.457-.392.812-.304.44.444 1.01.505.045.192.129.126.198-.023.214-.194.193-.483.244-.46.584.046.642-.287.335-.925.178h-1.81l-.888.044-.71.11-.467.416-.594.29-.465.07-.413.483-.41.686.14.47.422.626.25.64-.328 1.039-.36.801-.21.612-.286 1.177-.696 1.294-.498.736.002.8.252 1.138 1.42 1.656.47.792.386 1.269 1.28 1 .809.808-.08 1.068.103.333.501.269.606.206.673-.017.6-.091.14-.15 1.391-.02.156.268.08 1.536.057.622.33.251.198.381.011.346.069.86.206.453-.034.919.142.337.385.228.484.658.183.083.09.233.416.937.21.28.15.041.056.325.301.876.203.216.389.643.156.701.514.792.524.556.236.576.67 1.274.647.895.88.233.735.125.46.345.452.372-.487.17-.435.228-.603-.176-.837.095-.871.252-.804.125-1.514-.4-.462-.056-.314-.173-.628-.79-.299-.094-.806.369-.98.255-.478-.048-.562.266-.524.356-1 1.54-.516.545-.556.25-1.109-.007-1.185.055-.887.373-.831.19-.416.024-.14.845-.19.392-.261.225-.645.067-.58-.03-.353-.351-.654-.176-.578-.126-.377-.201-.302.05-.251.352-.202.302-.176.553-.88.176-.377.315.219 1.037-.103.404-.185.315-1.062.063-.907-.022-.521.382-.649.445-.394.083-.464-.027-.617-.516-.592-.635-1.504-.446-1.491-.369-.979-1.01-.231-.497-.46-.218-1.161-1.198-.642-.771-.695-.205-.798-.323.035-.558-.057-.537-.343-.218-.48-.145-.177-.302.045-.704.091-1.816-.133-1.738-1.07-.604-.463-.41-.81-2.57-.382-1.158-.023-.86.269-2.567.304-1.11.828-2.226.478-.754.023-.563-.046-.725-.243-1.429 1.4-.901.6-.38.102-.603.75-.763.331-.727.277-.572-.08-.302-.327-.175-.385-.544-.81-1.565-.293-.317-.247-.44.127-.694.317-.751-.046-.315-.485-.405-.997-.676-.83-.05-.641-.244-.943-.034-.754-.075-.428-.251.092-.415.187-.32.634-.787.424-.842.057-.823.129-1.081.183-.939.103-1.06-.997-.698-.318-.572-.412-.509h-.452l-.683-.218-1.068.669-.839-.124-.578.252-1.333-.05-.855-.327-1.035.217-2.416-2.683-2.431-2.7-2.39-2.655-.16-.362 1-1.263.892-.908.747-.516.35-.455-.268-1.947.011-.7-.349-.763-.25-.855.3-.713.36-.498.466-.192 1.114-.173.788-.071.278-.286.458-.332.599-.018 1.174.23.534-.43.97-.582 2.178-1.007.49-.655.342-1.017-.035-.478-.223-.183-.54-.166-.827-.023-.665.26-.684-.142-.571-.626-.034-.519.337-.732-.196-.485-1.089-1.543.007-.425.79-.692.448-.59.614-1.41.487-.47 1.516-.164.386-.3.774-.747 1.148-.85 1.662-.68.476-1.236.295-.337 1.32-.65.23-.348-.033-.306-2.12-2.775.42.19 1.644 1.811.91.392.191.009.007-.47.835.197 2.157 1.238 3.155 2.046 4.432 3.866 1.26 1.47.85.693 1.316 1.685.386.825-.035 3.28-1.166 2.217-.285 1.669-.069 2.22-.678 1.275.9-.693.28-2.003.766-1.218.995-1.336 1.33-.32 1.431.569 1.153.1 1.017.396 2.163 2.136 2.113 1.69.768 1.354 2.24.678 1.325 1.068.425.925.262 2.42-.433 3.654z" style="fill:#686868;fill-opacity:1;fill-rule:evenodd;stroke:#505050;stroke-width:.5;stroke-linecap:round;stroke-linejoin:round;stroke-miterlimit:4;stroke-dasharray:none;stroke-opacity:1" id="path36" />
    <path class="polygon" d="m196.665 136.378 3.424 1.178 3.65-.213 1.315-.636.85-.181 3.736 1.212.985.93.769.092.596-.212.16-.193-.734-.203-.334-.29 2.944.572 5.541 4.398.116.358-2.366-1.302-1.254.1-.325.21.07.71.115.333.538.038.396-.191.978.232.647.47.787.725.47.785.508.012.499-.473.94-.057.613.53.433-.032-.606-.82-1.426-.814.34-.034 3.16 1.464.893 1.837.745.418.776.561-2.936-.17-1.386.353-.607.792-.521.355-.435-.081-.881.311-1.327.704-1.197.267-1.067-.17-.31.172-.083.231-.16.224-.415.121-.475-.064-.534-.249-.282.106-.03.46-.29.124-.545-.217-.614.167-.683.548-.959.117-1.235-.316-.956-.596-.677-.878-.812-.221-1.422.653-.596.763-.128.466.138.422-.26.282-.66.14-.503.52-.344.895-.07.691.206.487-.329.359-.864.23-1.022.773-1.178 1.313-1.17.918-1.166.52-.561.578.04.636-.071.198-.222.076-.38.086-2.247-1.382-.645-.963-.558.147-.706.486-.992 1.085-1.067 1.475-.515.164-2.66-.218-1.407.13-.29.197-.132.54.081.725.387 2.6.216 1.07-.212.33-.717.053-.928.151-.51.49-.12.504-.05.705-.293.728-.575.523-.568.187-3.171.139.053-1.203-.915-.487-.52-1.003-.456-.678.151-.407-.046-.483-1.29-.372-1.21.29-.696-.188-.51-.257.88-.595.061-.362-.282-.261-.29-.176.087-.672.179-.794.493-1.855-.184-.324-.807-.558-1.024-.057-1.129.175-.544-.285-.476-.638-.804-.305-1.428.51-1.508.767-.463.278-.383-.038-.17-.573-.077-.68-.093-.169-.805-.241-.94-.176-.48-.189-.453-.458-1.124-.598-.255-.444-1.504-1.016-.304-.504-.345-.367-.722-.468-.566.113-1.906-.583-.289-.052.265-.51.6-.79 1.31-.877.11-.71-.342-1.363-.344-.882.186-.393.408-1.589.316-.37 1.895-.802.176-.111 1.494-1.125 1.659-1.248 1.723-1.376 1.924-1.537 1.062-.9.492-.389 1.108.32.873-.728.504-.244 1.178-.871.366-.191 1.974-.357.954.009.835.884.662.48 1.247-.413 1.045-.091 4.318.821 1.712-.363 3.15-.078 1.416.204 2-1.162 1.285-.234 1.508-.545-.201-.556-.362-.25zm-7.251-4.282-1.828.89-.572-.016.838-.688 1.353-.59 1.145-.29.939.126zm6.26-.948-.87.66-.157-.297.42-.611.524-.35.506.035-.121.264zm148.988-26.41-.2.804-2.917-.955-2.363-1.207.102-.653 1.207-.151 1.157.402 1.71.805zm9.696-10.764 1.363.284.633-.244.248.342.524 2.299.057.736-.527 1.112.08.44 1.132 1.026.023.37-.133.373-.97.972-.742.667.236.764.601.725.08.606-.185.802-.924.997-.482.357-1.372.044-.154.142.684.972.773 1.1 1.262.853.281.804-.302.763-.045 1.879-.965-.912-1.063-.764-.638-.295-.66-.189-5.059.098-.566.132-.442.245-.472.121-1.39.23-1.385.05-3.231-.615-1.28-.318-1.287-.201-1.479.066-1.473.186-1.177.443-.883.78-.164.725-.522.186-1.192-1.155-1.094-.82-1.246-.617-2.559-.878-.466-.534-.208-.65 1.033-1.991 1.175-.365.647-.068 1.452.246 1.418.452 1.294.297 2.001.115 1.088.49 7.689.76 1.459.238.569-.083.496-.297.412-.538.476-.404 2.28-.09.479-.18.335-.562-.01-.584-1.34-.782-2.098-1.717-1.846-2.023.797-.682-.306-1.246.299-1.154.44-1.131-1.827-.97-2.158-.965-2.997-.303-.921-.244-.479-.723.431-.973.972-.537 1.112-.332 1.14-.23 2.752-.276 2.73.31 2.362.999 2.395.782zm-8.093-3.601.462.266-.175.323-1.151-.2-1.19-.366-.39.092-.24-.046-.695-.351.612-.27.63-.088.69.02z" style="fill:#fff;fill-opacity:1;fill-rule:nonzero;stroke:#505050;stroke-width:.5;stroke-linecap:round;stroke-linejoin:round;stroke-miterlimit:4;stroke-dasharray:none;stroke-opacity:1" id="path38" />
    <path class="polygon" d="m293.843 108.39 1.39.41 1.434.211.62.012.584.13 1.31.983 1.056.537 4 1.2 1.336 2.07.25.648-1.034.385-1.3.132-1.244.023-1.15-.396-.501-.304-1.197-.146.297-.28-.53-.13-.666.03-.49.794-.547.63-1.046-.06-.404-.537-.55.241-.443.4-.532 1.483-.854-.736-.929-.618-1.168-.255-2.359-.042-1.11-.202-.926-1.255-.364-.36-.932-.325-.929-1.44-.333-.197-2.514-.307-.517-.788.154-.714.838-.872.407-.249 1.393.038 1.326-.262.585-.375.61-.246 4.81.63 1.11.007z" style="fill:#fff;fill-opacity:1;fill-rule:evenodd;stroke:#505050;stroke-width:.5;stroke-linecap:round;stroke-linejoin:round;stroke-miterlimit:4;stroke-dasharray:none;stroke-opacity:1" id="path40" />
    <path class="polygon" d="m461.792 123.618-.572.243-.485-.33.114-.794.463-.021.462.352zm-1.122-1.347-.294.178-.519-.703-.838-.191-.723-.416-.023-.089.012-.208.14-.24.37-.185.922.563.432.71.401.327z" style="fill:#686868;fill-opacity:1;fill-rule:nonzero;stroke:#505050;stroke-width:.5;stroke-linecap:round;stroke-linejoin:round;stroke-miterlimit:4;stroke-dasharray:none;stroke-opacity:1" id="path42" />
    <path class="polygon" d="m480.458 161.245-.64 1.19-1.246-.747-.143-.94.114-.57.763-1.088.594-.705.416-.234.243.937zm-24.127-48.425h-1.276l.092-.25.591-.28.437.025.176.1z" style="fill:#686868;fill-opacity:1;fill-rule:evenodd;stroke:#505050;stroke-width:.5;stroke-linecap:round;stroke-linejoin:round;stroke-miterlimit:4;stroke-dasharray:none;stroke-opacity:1" id="path44" />
    <path style="fill:#fff;fill-opacity:1;stroke:#505050;stroke-width:.5;stroke-miterlimit:4;stroke-dasharray:none;stroke-opacity:1" class="polygon" d="M0 0v111.434l.143.046 3.638 1.415 1.739.244 3.767.957 2.522-.174.875.146.816.428.967.916 1.847 2.17 1.291.414 1.159 1.152 2.709 1.381 1.664 1.334 1.758.864 4.742 1.554 2.154.912 2.492.725 3.807 2.291 3.906.625 3.95.951 1.068.42 1.662.111 2.758 2.622 4.347 1.125 4.381 2.73 6.502.656 4.295 2.084 3.389.85 1.164-.356 2.224-.113 5.037-2.22 3.506-.99 3.762-2.307 2.111-.377 1.71.002.154-.221-.686-.2-1.994-.353-.031-.326 1.013-.832.391-.438.477-.025.75.629-.053.428.076.455.434-.047 1.164-.69.386.047.338.362-1.084 1 .237.298 2.175.176 5.352 1.912-.307-.492-1.883-.953-.64-.25-.608-.02-.767-.298-.643-.352.2-.695.396.03.719.517.812.39 1.836.682 1.858 1.047 2.072 1.88 2.203 1.577 4.268 3.447 1.623 1.57 1.209.846 1.248 1.111 3.17 3.41 3.039 3.1.334.254.298-.29.25-.675.309-.695-.187-.8-.114-.651.35-.947-.033-.71.164-.437.52-.283.27-.541-1.476-1.863v-.426l.195-.524 1.198-1.992 1.426-2.367 1.57-2.613.945-1.57 3.45-.003 2.283-.002 2.898-.002 3.152-.002 2.067-.002.851-.015-.144-1.024.111-1.129.377-1.025v-.453l-.615-.553-1.195-.322-.665-.49-.002-.62-.29-.75-.579-.88-1.2-.9-1.823-.92-1.553-1.237-1.28-1.55-1.083-.999-.834-.418-.197-.222 2.441.021 2.31.02.016-2.223.014-1.977.015-2.23 4.186.002 5 .002 5.186.004 4.072.002 2.396.002-.01-.994.328-.785.948-.33 1.228.685.512.287.46-.164.583-.418.715-1.209 1.795-2.496.72-1.771.704-.354 1.013-.062.875.113.229-.48.916-1.462-.018-.878.799-.61.605-.7.479-.05.234 1.277-.515 2.31.197.462.906.49.885 1.904.328.055.56-1.004.483-1.015.322-2.381.918-1.637.678-2.826 1.055-2.752-.096-.34-.47-.039-.813.803-.385-.084-.033-1.078.355-.346.69-.377.617-.111.346-.207.547-.662.113-.93-.51-.037-.48.135-.864.02-.662.218-.51-.455.028-.494 1.162-1.623.9-.55.463.04.28-.426.11-.422-.386-1.14-.015-1.182.521-1.475 2.283-3.144 1.844-1.414 1.52-1.77.7-1.125.561-1.369.5-1.658-.367-.565-.15-.388-.08-2.139-.999-.469-1.404-1.474-1.068-.334-1.002.445-.678.123-1.057-.023-.207.253 1.038.301.527-.017.443-.2.254-.027.274.367-.266.42-.346.22-.375.126-2.619-.29-2.375-.722-.969-.156-2.658-.623-1.422-.135-.453.14-.004.14-.148.142-.756.137-2.46-.028-1.347.35-1.845 1.031-1.504.389-10.73 1.592-.776.25-3.365 1.502-1.942 1.271-.935 2.871-.266.5-.293 1.795.066 2.01-.091 1.78.044 2.26-.105.901-.176.397-1.63 1.322-.49.754-.528 4.305-2.46 2.287-1.185.611-.877.692-3.43 1.683-.242.287-.128.362.27.002 1.167-.772.102.27-.383.806.13.338.548.037.337.6.04 1.097-1.885.942-1.067.973-.748.107-2.318-.268-1.262-.66-.332-.398.711-.412v-.436l-1.064-.89-1.477.13-1.254.223-2.597.11-.506.12-2.563.606-.215.424-.457.574-1.32.633-2.766.515-1.146-.232-3.7.152-2.417.827-1.24.61-3.602 1.245-2.318.334-.77-.008-.984-.092-1.545-1.98-1.328-1.895-2.47-.638-1.905-1.483-4.329-.21-1.546-.638-.26.075.74.51.873.378h-.553l-2.214-.73-1.133-.74-.09-.348 1.344.527.369-.02-1.54-1.044-.816-1.787-1.011-.592-.579-1.064-1.886-1.65-.295-1.472-.604-1.076-1-3.45-2.88-3.632-4.708-4.865-.74-1.164-.097-.947-1.85-3.465-1.635-3.354-.006-.386-.152-.524-.594-.34-.353-.32-.455-.773-1.327-4.825 1.864 3.018 1.525 1.707.834.521-.016.489-.45.668-.112 1.24.285.957.246-1.156.578-.729.254-1.441-.52-.578-1.417-1.026-1.145-1.181-2.035-3.391-.217-1.977-.685-2.634.01-.534-.186-.77.469-1.73.666-1.251.15-.643-.236-4.147.44-4.859-.175-.324.16-.31.131-2.198.563-4.668 1.832-7.121.947-2.492 2.27-4.018.69-1.931.208-2.356-1.547.227-.648.345-.127.303-.096.162-.199-.015-.736-.217-1.676-1.065-2.442-.658-3.209-.256-2.193-.533-1.174-.812-1.228-.48-1.283-.153-1.061-.44-.842-.728-1.232-.467-1.62-.201-1.054-.547-.732-1.338-.002-.02-.659-2.234-.826-1.4-1.61-1.733-.146-.228h-.002l-.013-.285.2-1.008-.17-.727-.51-.59-.118-.625.278-.658.017-.79-.24-.925-1.025-.998-1.813-1.072-1.543-1.566L35.142 0zm185.775 76.203-.158.016.19.52.257.415.2.067-.203-.551-.147-.287zm-.277 7.994-.744.23-1.131.085-.572.703-.473 1.226.32 1.256.59-.355 1.492-1.883.614-.951zm-55.025 20.537-2.588 1.164.226.248 1.284-.263.335-.39 1.34-.554-.154-.156z" id="path46" />
    <path class="polygon" d="m466.168 127.969-.068.674-.769-.209-.01-.593.36-.603.178-.059z" style="fill:#686868;fill-opacity:1;fill-rule:evenodd;stroke:#505050;stroke-width:.5;stroke-linecap:round;stroke-linejoin:round;stroke-miterlimit:4;stroke-dasharray:none;stroke-opacity:1" id="path48" />
    <path class="polygon" d="m226.613 147.892-.317.418-.349.274-.729 1.363-.252.122-.05-1.008-.433-.132-.509.359-.281.516.443.676.389.01.473.185 1.271 4.663-.273.832-.788 1.294-.75 1.102-.75.69-.928 2.938-.84 4.772.604 4.292-.305 3.964.265.937.08 1.166-.62.21-.35-.035-.356-.717.04-.63.37-.738.15-1.001-.174-.524-.365 1.142-.642.51-.419.177-.409.578.434 1.086.557.794.183.57-.205.68-.127 2.316-.197-.065-.204-.313-.588-.021-.071.933.045.522-.5.402-.179.403.41.283.452.17.556-.038.459 1.148.143.934-1.063.861-.36.713-.602.864-.339.85-.1.611.41 1.933.73 1.372.614.87.822.19-.194.917-.615.58-1.12.487-1.233.09-2.017-.46-.823-.053-.322-.244-.096-.451-.577-.678-1.057-.902-.61.061-.996-.196-1.654-.615-.764-.075-1.097.528-1.275.69-3.076-1.078-2.16-.759-1.942-.682-.518-.264-.425.057-.367.358-.42.634-.139.182-.224.174-.251.048-.01-.302-.95-1.256-1.513-1.512-5.79-4.64-2.127-2.774-1.142-1.997-1.087-1.039-3.127-2.125-.72-.846-3.1-2.842-2.364-1.664-.03-.709.971-.885.476.041.517.633.84.719.395.005.583-.334.014-.334 3.171-.14.569-.186.575-.523.293-.728.05-.706.12-.504.51-.489.928-.151.716-.053.212-.33-.215-1.07-.387-2.6-.081-.725.132-.54.29-.198 1.406-.13 2.66.22.516-.165 1.066-1.475.992-1.085.707-.486.557-.148.645.964 2.247 1.382.38-.086.222-.076.07-.198-.04-.636.563-.578 1.164-.52 1.172-.918 1.177-1.314 1.022-.772.865-.23.329-.36-.206-.486.07-.692.343-.895.502-.518.66-.141.261-.282-.138-.423.129-.465.595-.763 1.422-.653.813.22.677.879.956.596 1.235.316.958-.118.683-.548.615-.166.545.217.289-.123.03-.46.283-.107.534.249.474.064.415-.121.16-.224.084-.23.31-.174 1.066.17 1.197-.266 1.327-.704.881-.311.435.08.522-.355.607-.791 1.385-.354z" style="fill:#fff;fill-opacity:1;fill-rule:evenodd;stroke:#505050;stroke-width:.5;stroke-linecap:round;stroke-linejoin:round;stroke-miterlimit:4;stroke-dasharray:none;stroke-opacity:1" id="path50" />
    <path class="polygon" d="m244.336 235.238-.626.06-1.277-.488-.934-.946-.074-.307.02-.313.51-.966.682-.334.269.003.653 1.115-.444.432.179.69.927.512zm28.937-10.507-.512.507-.196-.48.356-.496.125-.003zm1.905-.228-.225.482-.534-1.075.08-.278-.034-.972.508-.255.374-.023.31.137.193 1.144-.16.518zm-38.028-12.617-.125.532-.882-.958.524-.157.187.018zm32.816-2.15 1.64.426 1.134-.055 1.09.3.475.656.495.28 2.676-.072 2.196.324 4.807 1.939 2.873 1.917 1.524 2.038 3.683 2.635-.216.156-.63.898-.345.77.812.81.244.863.46.936.718.94.801 1.747.186.7-.228.456-.764.278-.714.817-.194.997.136.492-2.138 1.592-.55.265-.365-.245-.456-.8-.544-.644-.293-.225-.17-.01-.171.148-.08.35.284 1.496-.237.607-.725.466-.83 2.434-.327-.308-2.74-3.277-2.373-4.06-.495-1.837.616-.11.595.041.32-.283.371-.534-.3-1.243 1.154-.943.434-.636.32.074.753 1.081 1.096.622 1.346.902.833.204-1.053-.946-1.82-1.245-.51-.818-.482-1.138-.711.493-.33.415-.368.236-.32-.283-.058-.368-1.071-.072-.276-.333-.284-.187.129.71.21.438-.113.529-.35.037-.298-.547-.381-.494-.509-2.07-1.218-.975-.557-.325-.46-.122-.68-.663-.896-.355-1.219-1.03-1.496-.737-1.828-.261-2.221.16-.748.41-.509.52-.236.241-1.312.597-.497.862-.314.727-.654.825.747.499-4.28 2.803-.848.407-1.922.287-.443.3-.587.554-.078.843.089.717.558.553.497.349 1.193 1.668 2.118 2.105.401.767.329 1.138-.64.534-.494.225-2.015.09-.695.455-.281.696-.752.566-2.598.562-2.04.064-.634-.65-.153-1.83-1.374-3.12-.328-2.15-.343.267-.728.25-.246.535-.183 1.586-.269.541-.563-.051-1.153-.568-1.535-.524-1.956-3.36-.212-.633-.38-.754-1.512-.318-1.29-.566-1.407-.088-.72.318-.734-.405-.127-.92-1.476.413-1.894-.143-1.694-.394-1.159.21-.968.652.134 1.674-.285.33-.046-.684-.337-.787-.405-.653-.855-.674-.046-.248.34-.343 1.55-.977.192-.409.024-.85-.15-.814-.699-1.198.4-.74.8-.595.82-.47.138-.198-.152-.407-.478-.44-1.12-.747-.673-.048-.028-2.153.034-2.283.168-.227.412-.136.328-.348.184-.676.49-.24.886.521.904.459.374-.153.282-.223.197-.22.066-.211.72.609 1.478 1.08.086.531-.14.51.407 1.46.767.212.771-.283.191.27-.143.27-.397.3-.099 1.257 1.265.586.632.516 2.095-.242.772.137.527-.15-.585-1.008-.783-.746.065-.335.594.248.454.508 1.03.63 1.9 2.188 2.176.53 1.722-.071 1.604-.296 2.559-.85 1.85-1.536 1.477-.685 4.787-1.459 1.7-1.525.717-.202.684-.19 1.505-1.155.809-.9.854-.452zM400.9 112.923l-.102.01-.103-.011-.045-.033-.069-.104-.325-.172-.08-.156.069-.165.133-.067.66-.02.069.017.131.115.002.081-.068.079-.115.198-.046.05-.034.052-.012.09zm27.9-.522-.893.07-.583-.094-.195-.338 1.085-.316 1.265.046.724.19.091.126zm-8.024-3.869.352.225.343-.032-.277-.467h.254l2.186.287 1.404.482 1.446.23.09 1.586-1.112.634-.727.662-.592.813-1.559.946-1.878.284-1.248.025-.467-.03-.455-.163-.944.155-1.166-.415-.999.104-1.983-.1-.744.36-.711.081-.698-.067-.594-.16-1.472.014-.621-.314.257-1.805.023-.818-.361-.675-.397-.424-.286-.502.578-.33.474-.481.15-.724.52-.177.609-.085 2.813.338 7.119.191.405.059z" style="fill:#fff;fill-opacity:1;fill-rule:nonzero;stroke:#505050;stroke-width:.5;stroke-linecap:round;stroke-linejoin:round;stroke-miterlimit:4;stroke-dasharray:none;stroke-opacity:1" id="path52" />
    <path class="polygon" d="m155.86 154.472.29.052 1.905.582.566-.113.722.469.345.367.304.504 1.504 1.016.255.443 1.124.599.454.458.478.189.94.175.806.242.093.168.076.68.171.574.383.038.463-.279 1.508-.767 1.428-.51.804.306.476.638.544.285 1.13-.175 1.023.057.807.558.184.323-.493 1.856-.179.794-.088.672.29.175.283.261-.061.362-.88.596-.276.152.202 1.148-.655.692-.601.5-1.056.135-1.793.054-2.696-.565-1.989-.77-1.073-.003.34.254.847.163 1.114.545-.32.15-4.05-1.132-4.68-2.222-2.801-.354-3.204-.58-1.896-1.404-1.422-.608-.122-.53.014-.59.646-.79 1.202-1.065.798-.55.374-.108.527.057.506-.307.435-.733.455-.472 1.152-.478.263-.19-.09-.41-.25-.796.038-.49.377-.227.452-.044.936-.198.406.04z" style="fill:#fff;fill-opacity:1;fill-rule:evenodd;stroke:#505050;stroke-width:.5;stroke-linecap:round;stroke-linejoin:round;stroke-miterlimit:4;stroke-dasharray:none;stroke-opacity:1" id="path54" />
    <path class="polygon" d="M455.055 112.82h1.276l-.011.268-.122.299-.769-.254-.39-.261z" style="fill:#686868;fill-opacity:1;fill-rule:evenodd;stroke:#505050;stroke-width:.5;stroke-linecap:round;stroke-linejoin:round;stroke-miterlimit:4;stroke-dasharray:none;stroke-opacity:1" id="path56" />
    <path class="polygon" d="m350.042 69.69 1.301.628.785-.093.057.134-.424.145-.103.117-1.257.166-.394-.032-.08-.426zm7.655.982-.046.155-.643-.44-1.238-.004-.197-.602.474-.098 1.57.212.359.524zm-2.491-.857-.2.12-.661-.393-.092-.316-.237-.015-.393-.284.091-.367.902-.017.364 1.02z" style="fill:#fff;fill-opacity:1;fill-rule:nonzero;stroke:#505050;stroke-width:.5;stroke-linecap:round;stroke-linejoin:round;stroke-miterlimit:4;stroke-dasharray:none;stroke-opacity:1" id="path58" />
    <path class="polygon" d="m479.125 203.293-1.849.642-4.816.153-1.996-.233-1.532.182 2.79-1.398.326-.59 1.185-.11.336-.176.394-3.083-.153-.735-.235-.404-.48-.292-1.077-.398-.181-.214.676-.34 1.448-.188 1.081-.37 2.238-.074 1.086-.326 1.834-.094-.902 1.414-.421.528.164 1.275-.208.864.24 1.094.548.718-.354.706-.057 1.068zm2.917-11.906-.619.113.069-.454 1.087-.785 1.667-.528.425-.021-.24.703zm-6.592-17.294-.115.005-.103-.039.023-.034.13-.027.057-.076-.023-.1.005-.112.103-.068.08-.007.034.043.023.104-.058.08-.068.065-.034.099zm1.234-3.414-.182.125h.09l-.09.084-.057-.084-.092-.052-.115-.023-.132.002v-.085l.17.052.259-.051.001-.092-.08-.084-.034-.058.091-.09.317-.2.134-.106.01.044.006.04.011.04.046.038-.163.155zm.59-1.864-.336.18-.837-.767.103-.89.506-.49.478-.29.493-.031.17.738-.12 1.04z" style="fill:#686868;fill-opacity:1;fill-rule:nonzero;stroke:#505050;stroke-width:.5;stroke-linecap:round;stroke-linejoin:round;stroke-miterlimit:4;stroke-dasharray:none;stroke-opacity:1" id="path60" />
    <path class="polygon" d="m479.287 217.74-.708.232-.102-1.144.213-.308 1.205-.92.33-.174.243.193-.057.245.578.412-.14.526-.628.574zm2.015-3.09-1.37.374.023-.305.367-.53.711-.149.268-.18.454-.122.259.021.263.15-.621.298zm-50.071-20.16-.615.255-1.127-.256-.563-.358.358-.41h.923l.864.497zm15.543-2.561.366 1.49-.114.28-1.032 1.006-.866.072-.696-.036-.53-.195-.681-.654-.663.196-1.637-.227-.454-.229.613-.802 1.127-.324.412-.066.33.492.82.426.964.043.24-.76 1.302-1.125zm-67.423-6.215.575 1.275.916.961.705-.062.503-.16 3.342-.217 2.03.655 2.584.334 2.414 1.395 2.481 1.692.633 1.233.21 1.18.6.79-.599.814.324 1.361.71 1.37 1.072.872 3.06.236 3.31-.59 5.108-.532 1.645-.459 8.459-.246 1.612.657.156.656.023.504 2.722 2.453 2.234.334 1.898.788 1.96.422 2.148.596 1.206-.075.905-.21 1.067-.035 7.55-4.101 4.044.106.622-.267.539-.359-1.492-.624-3.366-.24-1.022.418-.578-1.056 1.097.028 3.746-.354 4.295.234 3.499-.752 1.76-.125 1.013.149 2.787-.487 5.245.573 4.137-.473-.478.68-1.357.41-2.195.13-1.677.994-3.575-.184-2.51.36.806.276v1.018l.343.206.361.007.855.754.234.493.276 1.04-.377 1.124-.524.5 1.02-.165.578-.528-.08-.53.08-.614.572.193.401.277 1.303 2.938.918 1.544.234-.058.218-.055.273-.296.406-.726.35.46.21.177.213.056-.193-.658.261-.843-.091-.295.407-.063.485.111.69.232 1.231.967.813 1.002.068.559.295.314.531.33.26.517.046-.813-.313-.592-.08-.677 1.603-.03.416-.89.873.536 2.314 2.445.856.404 2.52.47 1.588 1.175.93 1.056-.552 1.107-1.483.553-.594.69-.341.679-.005.682-.45.793-.068.279-.268 1.116-.61 1.346-.814 1.425-4.235.034 1.046.585.962.427 1.58 1.12 1.257-.88 1.799-.062 1.947-.978.733-.152 3.643.512.878-.718.733-.211 1.97.134 1.71.772 2.12 2.775.033.305-.23.348-1.32.65-.295.338-.476 1.237-1.662.678-1.148.851-.775.746-.385.3-1.517.166-.487.469-.613 1.41-.45.59-.788.692-.007.425 1.089 1.543.196.484-.338.733.034.519.572.626.684.142.665-.26.827.023.54.166.223.182.034.479-.342 1.016-.489.656-2.179 1.007-.969.583-.535.429-1.173-.23-.599.018-.458.332-.278.286-.788.07-1.114.174-.466.192-.36.497-.3.713.25.856.349.762-.011.7.269 1.948-.352.455-.746.515-.892.909-1 1.263.16.362 2.39 2.654 2.43 2.7 2.416 2.684.345.12.456.31.422.94.347.996.007.515-.27.648-.588.746-.714.604-1.046.513-.83.483-.686 1.278-.415.45-.382.182-.755.167-1.22-.04-.806-.1-.998.957-1.275.35-.854 1.306-3.04 1.035-2.973.806-.816.319-2.936-.666-.706.208-.814.618-.75.48-.634.029-.534.248-.317.884-.281 3.05-1.054.906-1.273-.005-.875-1.056-1.036-.797-1.808-1.891-.501-.247-.469.012-1.676.56-.796-.243-.642-.294-1.072.094-1.912.022-1.218.018-.592-.516-.55-1.056-.372-.378-.436-.304-.72-.154-3.078.003h-.58l-.424-.202-.592-.906-.647-.425-.757-.018-.333.499 1.315 1.63.383.883 1.152 1.278 3.337 2.703.618.859-.069 1.097-.023 1.678.115 1.589.858 2.278 1.206 2.319.329 1.478-.225 1.092-.23.582.024.259.247.234 1.149.335 2.413.21 1.458.001 2.228.251.164.815-.218 1.345-.44.763-.358.223-1.213.177-1.275.825-1.851.815-1.057.11-.44.16-.373.244-.307.31-.36 1.527-.545 1.724-1.029 1.024-1.131.846-1.15.096-.923-.067-.459.248-.662.697-.948.867-.73.462-.986-.043-1.05.426-1.328.699-.88.574-.751.98-1.076 1.03-1.105.72-.529.892-.755 1.13-.943.039-.08-.68.453-1.093-.49-.942-.897-.505-.42-.15-.418.062-1.063.465-1.306.845-.804.609-.726.278-1.496.252-1.26.129-.518-.174-.936-.621-2.164-1.944-2.93-2.633-.223-.762.125-.78-.53-1.137-.311-1.211-.265-.417-.08-.905-.636-1.631-.52-1.336-.478-.678.2-.579-.2-.578-.388-.47-.568-1.516.2-.653-.15-.655-.478-.448-.678-.482-.905-1.006-1.081-.954-.553-.378-.378-.15-.327-.905-.25-.277-.554-.075-1.131-.378-1.056.453-.023-.704.302-.428 3.648-3.357 1.839-1.544.197-.228.16-.357.126-.478-.417-.546-1.722-2.592-.597-.487-.586-.399-.674-1.088-.806-2.535-.58-1.274-.176-.976.034-1.104-.216-.848-.467-.591v-1.808l.467-3.026.116-2.3-.236-1.573.416-1.197 1.07-.821.596-1.27.124-1.716.64-1.411 1.156-1.105.393-1.09-.367-1.074-.118-.69-.982-.701-1.814-.492-1.506-.056-.908.547-2.329.506-3.748.467-3.018-.002-2.289-.472-1.741.158-1.193.787-.84.178-.486-.432-.527-.118-.8.274-.137-.125-1.774-2.127-1.644-1.972-1.884-2.347-2.175-2.71-.39-.18-.672.019-.89.047-1.384-.281-.948-.394-.74-.38-1.363-.483-.936-.083-.838.142-2.31.949-1.315.087-1.018.018-2.728-.47-1.868-.074-2.17.31-.929.176-1.299-.483-.885-.732-.825-1.743-.582-1.375-1.01-.276-1.121-.235-.55-.453-.331-.792-.08-1.014.115-1.65.102-.592.154-1.782.62-.93.388-.452-.08-.746-.298-1.531-.299-1.083-1.245-1.228-1.593-1.572-.685-2.517-.807-2.972-.635-.299-.597.15-.635-.15-.56-1.194-.56-.224-.892.419-.644.327-1.636.299-.337-.3.114-.372.692-1.085.814-1.387.947-1.266.88-1.295.656-1.379.447-2.743.308-1.893.81-3.37 1.484-2.69.56-1.239 1.343-1.61.619-.876.82-.688 2.253-.937 2.693-4.624.618-.735 2.721-.69 2.091-.538 1.55-.564.508-.299.408-.138-.338.535-.743.682-.841.415-4.336 1.042-.444.221-.563.434-.002.993.116.78 1.276 2.555.497.63 1.709 1.386-.39.192-.629.024.462 1.815 1.05 1.246.045.785-.804 2.436-1.467 1.457-1.041 1.696-.81.674-1.791 3.335 1.363 1.985.194 1.007 1.177 1.432.769.47.512.578-.235.977.47 1.324.608.7.767.28.945-.003 2.721-.882.645-.397.41-.707 1.363-1.434.08-1.853.293-2.224-.33-1.453-1.432-2.068-.627-1.47-1.419-1.371-.868-2.343-.358-.73-.27-1.01-.305-1.789.952-.649-.091-1.465 2.34-.403 5.06-2.383 3.135-.603 3.57-1.273.827-.628.717-1.046.554-.12 1.86.98.92-.34.363-.765-.506-1.491h-1.067l-3.212.541-.313-.641v-.562l-.758-1.778.472-1.34.483-1.081.921-.436 1.346-.47 1.022.721.62.689.335.668.23 1.81zm58.936-76.702-.892.042-.265-.143.503-.352.932-.043.274.093zm2.263-.704-.296.082-.192-.018-.069-.164.202-.453 1.156-.05zm1.223-3.147.163.381-.102-.007-.651-.262-.5-.022-.207-.068-.114-.144 1.007-.017zm-5.447 10.789.956.504h1.156l-1.207.503-2.313.05.046-.805zm1.207-6.385-.755.302-.509-.042-.195-.109.402-.351zm-2.112.277-.855.1-1.182-.528.93-.2.603.124z" style="fill:#686868;fill-opacity:1;fill-rule:nonzero;stroke:#505050;stroke-width:.5;stroke-linecap:round;stroke-linejoin:round;stroke-miterlimit:4;stroke-dasharray:none;stroke-opacity:1" id="path62" />
    <path style="fill:#686868;fill-opacity:1;stroke:#505050;stroke-width:.5;stroke-miterlimit:4;stroke-dasharray:none;stroke-opacity:1" class="polygon" d="m35.166 0 .672 1.096 1.535 1.558 1.826 1.069 1.026 1.002.222.914v.8l-.289.647.112.646.511.579.178.734-.2 1.004.022.289.135.223 1.604 1.736.845 1.404.645 2.227v.021l.736 1.336 1.068.535 1.604.223 1.248.445.822.735 1.07.445 1.292.156 1.224.469 1.182.824 2.181.533 3.208.246 2.449.668 1.67 1.069.736.201.2.021.09-.156.132-.31.646-.334 1.537-.246.09-.78-.134-.4-.713-.024-2.16-3.74-.356-1.025-.357-2.338-.31-.78-.38-1.693-.334-.69.445-.98.467-.734v-.623l-.111-.736-2.36-.557-.869-1.959.98.734 1.804.914.511-.023.47-.133.667-1.047 1.047-2.873-1.648-1.892.312-.246.355-.133 1.405.178.912-.29.869-.939zm33.629 0-.42.738.244-.043.563-.695zm161.74 0-.322 1.34.402.78.356.49.379.288.31-.289.625.178.4-.31.178-.358.157-1.09-.424-.29L232.14 0zm2.569 0 .117.049.668.912.244.111.601-.377.467.446.045.31-.334.737-1.023 1.068-1.315 1.736-.58.112-.31.18.668.577.4.535 2.027 3.897 1.002 1.426.735.734.535.246.713.112.132-.403-.132-.713.957-.289.957.024-.623.779-.133 2.137.445 1.738.377.133.424-.133.557-.89.445-.38.601-.267-.757 1.023-.735 1.227.313.244.756.379.625 3.295 1.09 1.85 1.671 1.046 2.338.69.223 1.137 1.336 1.69 1.29 2.474.647.334.87.289.466.556-.289.446-1.513-1.09-.424.111-.268.467-.09.469.647 1.023 1.113.066 1.715-.49 1.426.225 2.049-.87.824.022 1.336-1.158.467-1.09.29-2.183.936-1.403.69-1.558.177.043.09.357.111.111.178-3.408.78-4.965-.088-2.74-.446-2.115-.424-1.026-1.136-1.402L256.305 0zm23.689 0 .145.316.49.4-.323-.716zm.836 1.295.69 2.361 1.314 3.051 1.047 1.938-.201-.846-1.915-4.543-.468-1.336zm-189.545.312-.8.49-1.872 2.919-.935 2.226-.088.98.355-.67 1.18-2.738zm-3.719 7.127-.222 1.114.044 3.183 1.538 5.59.957 2.473.156-.533-.379-1.604-1.693-5.701zm173.51 5.657.4 1.248.557 1.113.022-.668-.422-1.293zm-.357 1.736.2.781.446.377.824.223.4-.29-.89-.087-.268-.18zm22.16 13.697-.268.067-.803.511-.043.713-.558.625-.578.356-.29.535-.89 1.135-.246.535 2.25-2.139zm-4.188 4.633-.467.488.311-.043.268-.402zm-1.982 1.09-.445.312-.112.178h.201l.49-.2.022-.179zm-1.492.98-1.782.29-.578.267.533.201.514-.267.645-.135zm-5.59.112-.022.2.49.757v.334l.157.068.355-.223.156-.2-.023-.202zm-1.625.691-.201.69-.579.445.735-.111.379-.157.021-.334zm-2.338 1.291-.49.201.021.178.29-.023.49-.112.023-.244z" id="path64" />
  </g>
</svg>
