<?xml version="1.0" encoding="UTF-8" standalone="no"?>
<svg width="38.634" height="36.063" version="1.1" id="svg6" sodipodi:docname="costa_rica.svg" xmlns:inkscape="http://www.inkscape.org/namespaces/inkscape" xmlns:sodipodi="http://sodipodi.sourceforge.net/DTD/sodipodi-0.dtd" xmlns="http://www.w3.org/2000/svg" xmlns:svg="http://www.w3.org/2000/svg">
  <defs id="defs10" />
  <sodipodi:namedview id="namedview8" pagecolor="#ffffff" bordercolor="#666666" borderopacity="1.0" objecttolerance="10.0" gridtolerance="10.0" guidetolerance="10.0" inkscape:pageshadow="2" inkscape:pageopacity="0.0" inkscape:pagecheckerboard="0" />
  <g style="display:inline" id="g4">
    <path class="polygon" d="m221.09 194.366.28.454.333.712.147.915 1.448 3.065 1.157 1.717 2.534 3.122 1.095.574 1.85 2.512.639.415.363.741 1.919.61.53.45-.064.21-.197.22-.283.224-.374.153-.904-.46-.885-.52-.49.24-.184.676-.329.347-.411.137-.169.226-.034 2.284.028 2.152.673.048 1.12.748.478.44.152.406-.138.2-.82.469-.8.594-.4.74.7 1.198.15.814-.025.85-.192.41-1.55.977-.34.342.046.248.855.675.405.653.338.787.045.683-.774-1.267-1.074-1.208-.934-.745-.07-1.738-.375-.943-1.407-.869-1.204-.608-.893.124.547.999 1.414 1.28.093.492-.023.66-.972-.102-.858-.27-1.046-.084-.695-.393-1.475-1.529 1.048-1.305.324-.857-.027-1.776-.24-.861-1.137-1.311-1.809-1.438-2.535-1.175-1.191-.947-2.968-.726-1.128-.481-.882-.893-.132-.64.313-.987-.82-1.255-3.536-2.466-1.977-.908-.424-.533-.314-.166.304 1.702.864 1.025 2.257.958.62.557.25.726-1.309 1.387-.666.353-.198.757-.427.23-.45-.437-1.83-2.176-3.54-1.043-.64-.64-1.316-1.988-.606-1.815.217-1.21 1.453-1.885.454-.82-.092-.506.048-.744-.543-.52-1.346-.676-.857-.543.235-.27 1.541-.73.097-.658-.007-.218.252-.048.224-.175.138-.181.42-.634.368-.358.424-.057.519.264 1.942.682 2.16.759 3.076 1.079 1.275-.691 1.097-.528.764.075 1.653.615.996.196.61-.061 1.058.902.577.678.096.451.322.243.822.054 2.018.46 1.232-.09 1.12-.486.616-.581z" style="fill:#4fe736;fill-opacity:1;fill-rule:evenodd;stroke:#505050;stroke-width:.5;stroke-linecap:round;stroke-linejoin:round;stroke-miterlimit:4;stroke-dasharray:none;stroke-opacity:1" transform="translate(-195.002 -191.01)" id="path2" />
  </g>
</svg>
