<?xml version="1.0" encoding="UTF-8" standalone="no"?>
<svg width="123.084" height="38.526" version="1.1" id="svg6" sodipodi:docname="cuba.svg" xmlns:inkscape="http://www.inkscape.org/namespaces/inkscape" xmlns:sodipodi="http://sodipodi.sourceforge.net/DTD/sodipodi-0.dtd" xmlns="http://www.w3.org/2000/svg" xmlns:svg="http://www.w3.org/2000/svg">
  <defs id="defs10" />
  <sodipodi:namedview id="namedview8" pagecolor="#ffffff" bordercolor="#666666" borderopacity="1.0" objecttolerance="10.0" gridtolerance="10.0" guidetolerance="10.0" inkscape:pageshadow="2" inkscape:pageopacity="0.0" inkscape:pagecheckerboard="0" />
  <g style="display:inline" id="g4">
    <path class="polygon" d="m233.406 72.88-1.06.604-2.262.853-1.214.03-1.228-.32-.846-.714-.482-.702.04-.337.768.563.662.277.543-.185.384-.304-1.242-2.27.054-.48.987-1.246 2.685.379.47.219.372.788.598.619.702 1.654zm55.79-4.337-.469.35-.513-.505-.326-.055-.45-.2-.876-.56-.21-.581.727-.045.915.103 1.605.33-.14.656zm-2.4-2.002-.375.032-1.136-.475-.339-.398.4-.533.08-.578.154-.039.184.7.865.299.057.153.531.594zm-1.683-1.797-.233.19-.617-.425-.894-.185-.525-.661-.5-.254-.046-.243.827-.16.575.07.643.505.37.927zm-6.876-3.045 1.565.241.543-.145.522-.042.55.1.768.949-.674.118h-.535l-.394-.171-1.404-.045-.928-.275-.509-.236-.25-.287zm-8.204-1.274.023.3-1.993-.838-.857-.873-.345-.2.559-.017 2.246 1.43zm-28.368-5.69 2.988.53 2.415-.15 1.155-.31-.106.322 1.06.786.388.053 1.562-.398 4.076-.15.419.22.718.765 1.04.475 1.076.36 1.126.096 1.123-.164 1.054.08 1.315.746.415.089 1.177-.204-.347.682 1.984.96 1.454 1.884 1.057.774 1.12.695.941.471 1.057.225 3.205-.092.759.058.678.269.647.106.374-.1 6.195 2.935 1.969 1.567 1.202.814 2.602 1.177 1.046.26.547-.157-.102-.259-.762-.653-.114-.239.98.201 1.768 1.327.486.49.883.455.888.328-.423.524-.722.045-1.387-.216 1.101.853.19.62.514.052.763-.681.482-.575 1.945 1.483 1.047.678-.268.396-.092.392 1.168-.365.444.04.428.21.468.638 1.092.142 1.1-.017 2.234.527 2.116 1.071 1.991.219 2.008.036 1.017.567.432.76-.487.539-.278.562.75.69-1.63.293-.231.415.08.449.323.247.933-.217 1.348.193 2.126.171 1.423-.14 2.892.47.88.251 1.716.883.794.583 1.702 1.568 1.468.617 1.272.15.444-.104.404.17.353.22.35.688-.193.722-.726.587-.404.427-1.816.049-2.538.196-2.455.637-1.198.506-.549.335-1.29.31-.092-.266.023-.333-.338-.621-.293.558-.48.408-.81.348-2.981.023-1.2-.469-1.23-.321-4.485-.335-1.077.03-2.996.347-3.012.188-1.26.215-1.245.326-2.423-.01-2.865.369-2.872.067 1.84-2.585 3.88-2.488.73-.535.52-.687.123-.517-.17-.442-.924-.779-.188-.58-.275-.375-1.345-.326-1.363-.196-1.433-.007-3.012-.268-1.601-.02-1.358-.53-2.252-1.89-1.054-.528-.542-.423-.42-.487-.53-2.772-.449-1.334-.683-1.16-1.04-.88-1.087-.3-4.176.754-.971-.111-.947-.257-6.304-1.795-2.6-.988-1.06-.49-.905-.698-.938-1.144-1.055-1.023.007.414-.162.27-5.278.12-.84-.235-.542-.278-.382-.414-.283-.829-.502-.696-.16.742-.261.684-.707.382-.808.06-.979-.908-4.277-.187-.379-.154-1.404-.88-1.199-1.105 1.194-.389 2.462-.512.533-.341.31-.435-.223-.65-.49-.469-.504-.275-.558-.176-.736-.074-9.517-.116-.551.352-.854.721-1.69.925-1.114.959-.417.495-.52.354-1.172.595-.998.915-1.212.41-.662-.25-.656.003-.473.226-.497.102-2.441.112-.365.233-.349.657-.396 1.276-.375.422-1.224.161-1.167.35-2.374 1.216-.613.177.133-.891-.119-.866-.669-.031-.762.144-.636.243-1.177.647-.597.164-.558-.331.114-.424 3.928-1.562.439-.12.698.118.683-.053.533-.437-.646-2.067.248-1.406.911-1.087 1.82-1.646.876-.54 8.975-3.44.919-.175 5.831-.69.89-.24 2.705-1.02 2.842-.415z" style="fill:#36e7a2;fill-opacity:1;fill-rule:nonzero;stroke:#505050;stroke-width:.5;stroke-linecap:round;stroke-linejoin:round;stroke-miterlimit:4;stroke-dasharray:none;stroke-opacity:1" transform="translate(-206.629 -54.173)" id="path2" />
  </g>
</svg>
