<?xml version="1.0" encoding="UTF-8" standalone="no"?>
<svg width="42.243" height="26.478" version="1.1" id="svg6" sodipodi:docname="dominican_republic.svg" xmlns:inkscape="http://www.inkscape.org/namespaces/inkscape" xmlns:sodipodi="http://sodipodi.sourceforge.net/DTD/sodipodi-0.dtd" xmlns="http://www.w3.org/2000/svg" xmlns:svg="http://www.w3.org/2000/svg">
  <defs id="defs10" />
  <sodipodi:namedview id="namedview8" pagecolor="#ffffff" bordercolor="#666666" borderopacity="1.0" objecttolerance="10.0" gridtolerance="10.0" guidetolerance="10.0" inkscape:pageshadow="2" inkscape:pageopacity="0.0" inkscape:pagecheckerboard="0" />
  <g style="display:inline" id="g4">
    <path class="polygon" d="m356.478 113.159.046-1.88.302-.761-.282-.804-1.261-.854-.773-1.1-.685-.972.154-.142 1.373-.044.482-.357.924-.997.184-.801-.08-.607-.6-.725-.236-.764.742-.667.97-.972.133-.374-.023-.37-1.133-1.024-.08-.44.527-1.112-.045-.737-.525-2.299-.248-.342.502-.193.331-.685.441-.61.586-.328.664-.204 1.324.016 1.828.531.518-.008 1.756-.482 1.457-.268 1.371.305.554.414 1.132.657.568.201 1.789-.014.489.065 1.501 1.085 1.265.434.734.021 1.316-.42.652.013.748.936.147 1.328.626 1.21.958.775 4.726-.325 1.054.637-.362.526-.667.28-2.246-.124-.983.063-.197.524-.003.487 1.314.116 1.29.246 1.311.39 1.336.267 1.503.174 1.481.282 2.47.954 2.73 2.17.729.494.481.68-.23.837-.975 1.373-.552.441-.805.269-.552.56-.531.961-.326.081-.383-.04-.656-.544-.469-.834-1.316-.783-1.566.1-2.306-.463-1.396.225-1.396.05-1.429-.236-1.436-.082-1.434.294-1.39.503-.513.319-.893.782-.473.289-3.384.393-.975-.574-.905-.783-1.301-.107-1.887.606-1.18.22-.48.26-.14.297-.004 1.094-.267.666-1.839 2.513-1.037 1.773-.427.547-.493.12-.906-1.02-.578-.368-.715-.186-.303-.541.011-.77-.188-.746-.441-.586z" style="fill:#3699e7;fill-opacity:1;fill-rule:evenodd;stroke:#505050;stroke-width:.5;stroke-linecap:round;stroke-linejoin:round;stroke-miterlimit:4;stroke-dasharray:none;stroke-opacity:1" transform="translate(-353.575 -91.533)" id="path2" />
  </g>
</svg>
