<?xml version="1.0" encoding="UTF-8" standalone="no"?>
<svg width="27.759" height="14.946" version="1.1" id="svg6" sodipodi:docname="el_salvador.svg" xmlns:inkscape="http://www.inkscape.org/namespaces/inkscape" xmlns:sodipodi="http://sodipodi.sourceforge.net/DTD/sodipodi-0.dtd" xmlns="http://www.w3.org/2000/svg" xmlns:svg="http://www.w3.org/2000/svg">
  <defs id="defs10" />
  <sodipodi:namedview id="namedview8" pagecolor="#ffffff" bordercolor="#666666" borderopacity="1.0" objecttolerance="10.0" gridtolerance="10.0" guidetolerance="10.0" inkscape:pageshadow="2" inkscape:pageopacity="0.0" inkscape:pagecheckerboard="0" />
  <g style="display:inline" id="g4">
    <path class="polygon" d="m155.86 154.472.29.052 1.905.582.566-.113.722.469.345.367.304.504 1.504 1.016.255.443 1.124.599.454.458.478.189.94.175.806.242.093.168.076.68.171.574.383.038.463-.279 1.508-.767 1.428-.51.804.306.476.638.544.285 1.13-.175 1.023.057.807.558.184.323-.493 1.856-.179.794-.088.672.29.175.283.261-.061.362-.88.596-.276.152.202 1.148-.655.692-.601.5-1.056.135-1.793.054-2.696-.565-1.989-.77-1.073-.003.34.254.847.163 1.114.545-.32.15-4.05-1.132-4.68-2.222-2.801-.354-3.204-.58-1.896-1.404-1.422-.608-.122-.53.014-.59.646-.79 1.202-1.065.798-.55.374-.108.527.057.506-.307.435-.733.455-.472 1.152-.478.263-.19-.09-.41-.25-.796.038-.49.377-.227.452-.044.936-.198.406.04z" style="fill:#365de7;fill-opacity:1;fill-rule:evenodd;stroke:#505050;stroke-width:.5;stroke-linecap:round;stroke-linejoin:round;stroke-miterlimit:4;stroke-dasharray:none;stroke-opacity:1" transform="translate(-147.134 -154.051)" id="path2" />
  </g>
</svg>
