<?xml version="1.0" encoding="UTF-8" standalone="no"?>
<svg width="46.189" height="47.016" version="1.1" id="svg6" sodipodi:docname="guatemala.svg" xmlns:inkscape="http://www.inkscape.org/namespaces/inkscape" xmlns:sodipodi="http://sodipodi.sourceforge.net/DTD/sodipodi-0.dtd" xmlns="http://www.w3.org/2000/svg" xmlns:svg="http://www.w3.org/2000/svg">
  <defs id="defs10" />
  <sodipodi:namedview id="namedview8" pagecolor="#ffffff" bordercolor="#666666" borderopacity="1.0" objecttolerance="10.0" gridtolerance="10.0" guidetolerance="10.0" inkscape:pageshadow="2" inkscape:pageopacity="0.0" inkscape:pagecheckerboard="0" />
  <g style="display:inline" id="g4">
    <path class="polygon" d="m158.154 115.717-.11 2.766-.126 3.204-.094 2.355-.124 3.144-.127 3.214-.174 4.382-.113 2.832.054.066 1.36-.137 2.011.124.492-.008.616.246.475.075 1.023.638 1.2.483.766-.974-.403-.587-.301-.3.046-.261 4.17 2.523-.492.389-1.062.9-1.924 1.536-1.724 1.377-1.659 1.248-1.494 1.124-.176.112-1.894.802-.317.37-.408 1.588-.185.394.343.882.343 1.362-.11.711-1.31.877-.6.79-.265.51-.236-.133-.406-.04-.935.198-.452.044-.378.226-.037.49.25.797.09.41-.264.19-1.152.478-.454.472-.436.733-.505.307-.528-.057-.373.108-.798.55-1.203 1.064-.645.79-.014.59.121.53-4.377-1.874-1.457-.32-6.148.038-2.637-.736-3.005-1.423-2.032-1.292-4.744-3.616.298-.292.25-.674.31-.695-.189-.801-.113-.65.35-.947-.033-.71.163-.437.52-.283.272-.541-1.477-1.864.001-.426.195-.523 1.197-1.991 1.425-2.368 1.57-2.613.946-1.571 3.45-.002 2.283-.002 2.898-.001 3.151-.002 2.067-.001.853-.018-.145-1.022.111-1.129.378-1.025v-.453l-.617-.554-1.194-.322-.664-.49-.002-.62-.292-.75-.579-.88-1.2-.9-1.823-.92-1.55-1.236-1.281-1.552-1.084-.998-.834-.418-.197-.221 2.441.02 2.31.02.016-2.224.014-1.976.015-2.23 4.186.001 5 .003 5.185.003 4.074.003z" style="fill:#8936e7;fill-opacity:1;fill-rule:evenodd;stroke:#505050;stroke-width:.5;stroke-linecap:round;stroke-linejoin:round;stroke-miterlimit:4;stroke-dasharray:none;stroke-opacity:1" transform="translate(-122.856 -115.455)" id="path2" />
  </g>
</svg>
