<?xml version="1.0" encoding="UTF-8" standalone="no"?>
<svg width="32.792" height="23.926" version="1.1" id="svg6" sodipodi:docname="haiti.svg" xmlns:inkscape="http://www.inkscape.org/namespaces/inkscape" xmlns:sodipodi="http://sodipodi.sourceforge.net/DTD/sodipodi-0.dtd" xmlns="http://www.w3.org/2000/svg" xmlns:svg="http://www.w3.org/2000/svg">
  <defs id="defs10" />
  <sodipodi:namedview id="namedview8" pagecolor="#ffffff" bordercolor="#666666" borderopacity="1.0" objecttolerance="10.0" gridtolerance="10.0" guidetolerance="10.0" inkscape:pageshadow="2" inkscape:pageopacity="0.0" inkscape:pagecheckerboard="0" />
  <g style="display:inline" id="g4">
    <path class="polygon" d="m344.662 104.738-.2.804-2.917-.955-2.363-1.207.102-.653 1.207-.151 1.157.402 1.71.805zm9.696-10.764 1.363.284.633-.244.248.342.524 2.299.057.736-.527 1.112.08.44 1.132 1.026.023.37-.133.373-.97.972-.742.667.236.764.601.725.08.606-.185.802-.924.997-.482.357-1.372.044-.154.142.684.972.773 1.1 1.262.853.281.804-.302.763-.045 1.879-.965-.912-1.063-.764-.638-.295-.66-.189-5.059.098-.566.132-.442.245-.472.121-1.39.23-1.385.05-3.231-.615-1.28-.318-1.287-.201-1.479.066-1.473.186-1.177.443-.883.78-.164.725-.522.186-1.192-1.155-1.094-.82-1.246-.617-2.559-.878-.466-.534-.208-.65 1.033-1.991 1.175-.365.647-.068 1.452.246 1.418.452 1.294.297 2.001.115 1.088.49 7.689.76 1.459.238.569-.083.496-.297.412-.538.476-.404 2.28-.09.479-.18.335-.562-.01-.584-1.34-.782-2.098-1.717-1.846-2.023.797-.682-.306-1.246.299-1.154.44-1.131-1.827-.97-2.158-.965-2.997-.303-.921-.244-.479-.723.431-.973.972-.537 1.112-.332 1.14-.23 2.752-.276 2.73.31 2.362.999 2.395.782zm-8.093-3.601.462.266-.175.323-1.151-.2-1.19-.366-.39.092-.24-.046-.695-.351.612-.27.63-.088.69.02z" style="fill:#dc36e7;fill-opacity:1;fill-rule:nonzero;stroke:#505050;stroke-width:.5;stroke-linecap:round;stroke-linejoin:round;stroke-miterlimit:4;stroke-dasharray:none;stroke-opacity:1" transform="translate(-325.348 -89.483)" id="path2" />
  </g>
</svg>
