<?xml version="1.0" encoding="UTF-8" standalone="no"?>
<svg width="71.252" height="40.804" version="1.1" id="svg6" sodipodi:docname="honduras.svg" xmlns:inkscape="http://www.inkscape.org/namespaces/inkscape" xmlns:sodipodi="http://sodipodi.sourceforge.net/DTD/sodipodi-0.dtd" xmlns="http://www.w3.org/2000/svg" xmlns:svg="http://www.w3.org/2000/svg">
  <defs id="defs10" />
  <sodipodi:namedview id="namedview8" pagecolor="#ffffff" bordercolor="#666666" borderopacity="1.0" objecttolerance="10.0" gridtolerance="10.0" guidetolerance="10.0" inkscape:pageshadow="2" inkscape:pageopacity="0.0" inkscape:pagecheckerboard="0" />
  <g style="display:inline" id="g4">
    <path class="polygon" d="m196.665 136.378 3.424 1.178 3.65-.213 1.315-.636.85-.181 3.736 1.212.985.93.769.092.596-.212.16-.193-.734-.203-.334-.29 2.944.572 5.541 4.398.116.358-2.366-1.302-1.254.1-.325.21.07.71.115.333.538.038.396-.191.978.232.647.47.787.725.47.785.508.012.499-.473.94-.057.613.53.433-.032-.606-.82-1.426-.814.34-.034 3.16 1.464.893 1.837.745.418.776.561-2.936-.17-1.386.353-.607.792-.521.355-.435-.081-.881.311-1.327.704-1.197.267-1.067-.17-.31.172-.083.231-.16.224-.415.121-.475-.064-.534-.249-.282.106-.03.46-.29.124-.545-.217-.614.167-.683.548-.959.117-1.235-.316-.956-.596-.677-.878-.812-.221-1.422.653-.596.763-.128.466.138.422-.26.282-.66.14-.503.52-.344.895-.07.691.206.487-.329.359-.864.23-1.022.773-1.178 1.313-1.17.918-1.166.52-.561.578.04.636-.071.198-.222.076-.38.086-2.247-1.382-.645-.963-.558.147-.706.486-.992 1.085-1.067 1.475-.515.164-2.66-.218-1.407.13-.29.197-.132.54.081.725.387 2.6.216 1.07-.212.33-.717.053-.928.151-.51.49-.12.504-.05.705-.293.728-.575.523-.568.187-3.171.139.053-1.203-.915-.487-.52-1.003-.456-.678.151-.407-.046-.483-1.29-.372-1.21.29-.696-.188-.51-.257.88-.595.061-.362-.282-.261-.29-.176.087-.672.179-.794.493-1.855-.184-.324-.807-.558-1.024-.057-1.129.175-.544-.285-.476-.638-.804-.305-1.428.51-1.508.767-.463.278-.383-.038-.17-.573-.077-.68-.093-.169-.805-.241-.94-.176-.48-.189-.453-.458-1.124-.598-.255-.444-1.504-1.016-.304-.504-.345-.367-.722-.468-.566.113-1.906-.583-.289-.052.265-.51.6-.79 1.31-.877.11-.71-.342-1.363-.344-.882.186-.393.408-1.589.316-.37 1.895-.802.176-.111 1.494-1.125 1.659-1.248 1.723-1.376 1.924-1.537 1.062-.9.492-.389 1.108.32.873-.728.504-.244 1.178-.871.366-.191 1.974-.357.954.009.835.884.662.48 1.247-.413 1.045-.091 4.318.821 1.712-.363 3.15-.078 1.416.204 2-1.162 1.285-.234 1.508-.545-.201-.556-.362-.25zm-7.251-4.282-1.828.89-.572-.016.838-.688 1.353-.59 1.145-.29.939.126zm6.26-.948-.87.66-.157-.297.42-.611.524-.35.506.035-.121.264z" style="fill:#e73694;fill-opacity:1;fill-rule:nonzero;stroke:#505050;stroke-width:.5;stroke-linecap:round;stroke-linejoin:round;stroke-miterlimit:4;stroke-dasharray:none;stroke-opacity:1" transform="translate(-155.612 -130.3)" id="path2" />
  </g>
</svg>
