<?xml version="1.0" encoding="UTF-8" standalone="no"?>
<svg width="24.773" height="9.705" version="1.1" id="svg6" sodipodi:docname="jamaica.svg" xmlns:inkscape="http://www.inkscape.org/namespaces/inkscape" xmlns:sodipodi="http://sodipodi.sourceforge.net/DTD/sodipodi-0.dtd" xmlns="http://www.w3.org/2000/svg" xmlns:svg="http://www.w3.org/2000/svg">
  <defs id="defs10" />
  <sodipodi:namedview id="namedview8" pagecolor="#ffffff" bordercolor="#666666" borderopacity="1.0" objecttolerance="10.0" gridtolerance="10.0" guidetolerance="10.0" inkscape:pageshadow="2" inkscape:pageopacity="0.0" inkscape:pagecheckerboard="0" />
  <g style="display:inline" id="g4">
    <path class="polygon" d="m293.843 108.39 1.39.41 1.434.211.62.012.584.13 1.31.983 1.056.537 4 1.2 1.336 2.07.25.648-1.034.385-1.3.132-1.244.023-1.15-.396-.501-.304-1.197-.146.297-.28-.53-.13-.666.03-.49.794-.547.63-1.046-.06-.404-.537-.55.241-.443.4-.532 1.483-.854-.736-.929-.618-1.168-.255-2.359-.042-1.11-.202-.926-1.255-.364-.36-.932-.325-.929-1.44-.333-.197-2.514-.307-.517-.788.154-.714.838-.872.407-.249 1.393.038 1.326-.262.585-.375.61-.246 4.81.63 1.11.007z" style="fill:#e7366d;fill-opacity:1;fill-rule:evenodd;stroke:#505050;stroke-width:.5;stroke-linecap:round;stroke-linejoin:round;stroke-miterlimit:4;stroke-dasharray:none;stroke-opacity:1" transform="translate(-281.3 -107.401)" id="path2" />
  </g>
</svg>
