<?xml version="1.0" encoding="UTF-8" standalone="no"?>
<svg width="186.928" height="153.577" version="1.1" id="svg6" sodipodi:docname="mexico.svg" xmlns:inkscape="http://www.inkscape.org/namespaces/inkscape" xmlns:sodipodi="http://sodipodi.sourceforge.net/DTD/sodipodi-0.dtd" xmlns="http://www.w3.org/2000/svg" xmlns:svg="http://www.w3.org/2000/svg">
  <defs id="defs10" />
  <sodipodi:namedview id="namedview8" pagecolor="#ffffff" bordercolor="#666666" borderopacity="1.0" objecttolerance="10.0" gridtolerance="10.0" guidetolerance="10.0" inkscape:pageshadow="2" inkscape:pageopacity="0.0" inkscape:pagecheckerboard="0" />
  <g style="display:inline" id="g4">
    <path style="fill:#e77936;fill-opacity:1;stroke:#505050;stroke-width:.5;stroke-miterlimit:4;stroke-dasharray:none;stroke-opacity:1" class="polygon" d="M0 0v111.434l.143.046 3.638 1.415 1.739.244 3.767.957 2.522-.174.875.146.816.428.967.916 1.847 2.17 1.291.414 1.159 1.152 2.709 1.381 1.664 1.334 1.758.864 4.742 1.554 2.154.912 2.492.725 3.807 2.291 3.906.625 3.95.951 1.068.42 1.662.111 2.758 2.622 4.347 1.125 4.381 2.73 6.502.656 4.295 2.084 3.389.85 1.164-.356 2.224-.113 5.037-2.22 3.506-.99 3.762-2.307 2.111-.377 1.71.002.154-.221-.686-.2-1.994-.353-.031-.326 1.013-.832.391-.438.477-.025.75.629-.053.428.076.455.434-.047 1.164-.69.386.047.338.362-1.084 1 .237.298 2.175.176 5.352 1.912-.307-.492-1.883-.953-.64-.25-.608-.02-.767-.298-.643-.352.2-.695.396.03.719.517.812.39 1.836.682 1.858 1.047 2.072 1.88 2.203 1.577 4.268 3.447 1.623 1.57 1.209.846 1.248 1.111 3.17 3.41 3.039 3.1.334.254.298-.29.25-.675.309-.695-.187-.8-.114-.651.35-.947-.033-.71.164-.437.52-.283.27-.541-1.476-1.863v-.426l.195-.524 1.198-1.992 1.426-2.367 1.57-2.613.945-1.57 3.45-.003 2.283-.002 2.898-.002 3.152-.002 2.067-.002.851-.015-.144-1.024.111-1.129.377-1.025v-.453l-.615-.553-1.195-.322-.665-.49-.002-.62-.29-.75-.579-.88-1.2-.9-1.823-.92-1.553-1.237-1.28-1.55-1.083-.999-.834-.418-.197-.222 2.441.021 2.31.02.016-2.223.014-1.977.015-2.23 4.186.002 5 .002 5.186.004 4.072.002 2.396.002-.01-.994.328-.785.948-.33 1.228.685.512.287.46-.164.583-.418.715-1.209 1.795-2.496.72-1.771.704-.354 1.013-.062.875.113.229-.48.916-1.462-.018-.878.799-.61.605-.7.479-.05.234 1.277-.515 2.31.197.462.906.49.885 1.904.328.055.56-1.004.483-1.015.322-2.381.918-1.637.678-2.826 1.055-2.752-.096-.34-.47-.039-.813.803-.385-.084-.033-1.078.355-.346.69-.377.617-.111.346-.207.547-.662.113-.93-.51-.037-.48.134-.864.02-.662.219-.51-.455.028-.494 1.162-1.624.9-.548.463.039.28-.426.11-.422-.386-1.14-.015-1.182.521-1.475 2.283-3.144 1.844-1.414 1.52-1.77.7-1.125.561-1.37.5-1.657-.367-.565-.15-.388-.08-2.14-.999-.468-1.404-1.474-1.068-.334-1.002.445-.678.123-1.057-.023-.207.253 1.038.301.527-.017.443-.2.254-.027.274.367-.266.42-.346.22-.375.126-2.619-.29-2.375-.722-.969-.156-2.658-.623-1.422-.135-.453.14-.004.14-.148.142-.756.137-2.46-.028-1.347.35-1.845 1.031-1.504.389-10.73 1.592-.776.25-3.365 1.502-1.942 1.271-.935 2.871-.266.5-.293 1.795.066 2.01-.091 1.78.044 2.26-.105.901-.176.397-1.63 1.322-.49.754-.528 4.305-2.46 2.287-1.185.611-.877.691-3.43 1.684-.242.287-.128.362.27.002 1.167-.772.102.27-.383.806.13.338.548.037.337.6.04 1.097-1.885.942-1.067.973-.748.107-2.318-.268-1.262-.66-.332-.398.711-.412v-.436l-1.064-.89-1.477.13-1.254.223-2.597.11-.506.12-2.563.606-.215.424-.457.574-1.32.633-2.766.515-1.146-.232-3.7.152-2.417.827-1.24.61-3.602 1.245-2.318.334-.77-.008-.984-.092-1.545-1.98-1.328-1.895-2.47-.639-1.905-1.482-4.329-.21-1.546-.638-.26.075.74.51.873.378h-.553l-2.214-.73-1.133-.74-.09-.348 1.344.527.369-.02-1.54-1.044-.816-1.787-1.011-.592-.579-1.065-1.886-1.65-.295-1.47-.604-1.077-1-3.45-2.88-3.632-4.708-4.865-.74-1.164-.097-.947-1.85-3.465-1.635-3.354-.006-.386-.152-.524-.594-.34-.353-.32-.455-.773-1.327-4.825 1.864 3.018 1.525 1.707.834.521-.016.489-.45.668-.112 1.24.285.957.246-1.156.578-.729.254-1.441-.52-.578-1.417-1.026-1.145-1.181-2.035-3.391-.217-1.977-.685-2.634.01-.534-.186-.77.469-1.73.666-1.252.15-.642-.236-4.147.44-4.859-.175-.324.16-.31.131-2.198.563-4.668 1.832-7.121.947-2.492 2.27-4.018.69-1.931.208-2.356-1.547.227-.648.345-.127.303-.096.162-.199-.015-.736-.217-1.676-1.065-2.442-.658-3.209-.256-2.193-.533-1.174-.812-1.228-.48-1.283-.153-1.061-.44-.842-.728-1.232-.467-1.62-.201-1.054-.547-.732-1.338-.002-.02-.659-2.234-.826-1.4-1.61-1.733-.146-.228h-.002l-.013-.285.199-1.008-.17-.727-.51-.59-.117-.625.277-.658.018-.79-.24-.925-1.026-.998-1.812-1.072-1.543-1.566L35.142 0zm185.775 76.203-.158.016.19.52.257.415.2.067-.203-.551-.147-.287zm-.277 7.994-.744.23-1.131.085-.572.703-.473 1.226.32 1.256.59-.355 1.492-1.883.614-.951zm-55.025 20.537-2.588 1.164.226.248 1.284-.263.335-.39 1.34-.554-.154-.156z" transform="translate(.25 .25)" id="path2" />
  </g>
</svg>
