<?xml version="1.0" encoding="UTF-8" standalone="no"?>
<svg width="51.956" height="49.219" version="1.1" id="svg6" sodipodi:docname="nicaragua.svg" xmlns:inkscape="http://www.inkscape.org/namespaces/inkscape" xmlns:sodipodi="http://sodipodi.sourceforge.net/DTD/sodipodi-0.dtd" xmlns="http://www.w3.org/2000/svg" xmlns:svg="http://www.w3.org/2000/svg">
  <defs id="defs10" />
  <sodipodi:namedview id="namedview8" pagecolor="#ffffff" bordercolor="#666666" borderopacity="1.0" objecttolerance="10.0" gridtolerance="10.0" guidetolerance="10.0" inkscape:pageshadow="2" inkscape:pageopacity="0.0" inkscape:pagecheckerboard="0" />
  <g style="display:inline" id="g4">
    <path class="polygon" d="m226.613 147.892-.317.418-.349.274-.729 1.363-.252.122-.05-1.008-.433-.132-.509.359-.281.516.443.676.389.01.473.185 1.271 4.663-.273.832-.788 1.294-.75 1.102-.75.69-.928 2.938-.84 4.772.604 4.292-.305 3.964.265.937.08 1.166-.62.21-.35-.035-.356-.717.04-.63.37-.738.15-1.001-.174-.524-.365 1.142-.642.51-.419.177-.409.578.434 1.086.557.794.183.57-.205.68-.127 2.316-.197-.065-.204-.313-.588-.021-.071.933.045.522-.5.402-.179.403.41.283.452.17.556-.038.459 1.148.143.934-1.063.861-.36.713-.602.864-.339.85-.1.611.41 1.933.73 1.372.614.87.822.19-.194.917-.615.58-1.12.487-1.233.09-2.017-.46-.823-.053-.322-.244-.096-.451-.577-.678-1.057-.902-.61.061-.996-.196-1.654-.615-.764-.075-1.097.528-1.275.69-3.076-1.078-2.16-.759-1.942-.682-.518-.264-.425.057-.367.358-.42.634-.139.182-.224.174-.251.048-.01-.302-.95-1.256-1.513-1.512-5.79-4.64-2.127-2.774-1.142-1.997-1.087-1.039-3.127-2.125-.72-.846-3.1-2.842-2.364-1.664-.03-.709.971-.885.476.041.517.633.84.719.395.005.583-.334.014-.334 3.171-.14.569-.186.575-.523.293-.728.05-.706.12-.504.51-.489.928-.151.716-.053.212-.33-.215-1.07-.387-2.6-.081-.725.132-.54.29-.198 1.406-.13 2.66.22.516-.165 1.066-1.475.992-1.085.707-.486.557-.148.645.964 2.247 1.382.38-.086.222-.076.07-.198-.04-.636.563-.578 1.164-.52 1.172-.918 1.177-1.314 1.022-.772.865-.23.329-.36-.206-.486.07-.692.343-.895.502-.518.66-.141.261-.282-.138-.423.129-.465.595-.763 1.422-.653.813.22.677.879.956.596 1.235.316.958-.118.683-.548.615-.166.545.217.289-.123.03-.46.283-.107.534.249.474.064.415-.121.16-.224.084-.23.31-.174 1.066.17 1.197-.266 1.327-.704.881-.311.435.08.522-.355.607-.791 1.385-.354z" style="fill:#e7a736;fill-opacity:1;fill-rule:evenodd;stroke:#505050;stroke-width:.5;stroke-linecap:round;stroke-linejoin:round;stroke-miterlimit:4;stroke-dasharray:none;stroke-opacity:1" transform="translate(-174.908 -147.47)" id="path2" />
  </g>
</svg>
