<?xml version="1.0" encoding="UTF-8" standalone="no"?>
<svg width="66.995" height="27.613" version="1.1" id="svg6" sodipodi:docname="panama.svg" xmlns:inkscape="http://www.inkscape.org/namespaces/inkscape" xmlns:sodipodi="http://sodipodi.sourceforge.net/DTD/sodipodi-0.dtd" xmlns="http://www.w3.org/2000/svg" xmlns:svg="http://www.w3.org/2000/svg">
  <defs id="defs10" />
  <sodipodi:namedview id="namedview8" pagecolor="#ffffff" bordercolor="#666666" borderopacity="1.0" objecttolerance="10.0" gridtolerance="10.0" guidetolerance="10.0" inkscape:pageshadow="2" inkscape:pageopacity="0.0" inkscape:pagecheckerboard="0" />
  <g style="display:inline" id="g4">
    <path class="polygon" d="m244.336 235.238-.626.06-1.277-.488-.934-.946-.074-.307.02-.313.51-.966.682-.334.269.003.653 1.115-.444.432.179.69.927.512zm28.937-10.507-.512.507-.196-.48.356-.496.125-.003zm1.905-.228-.225.482-.534-1.075.08-.278-.034-.972.508-.255.374-.023.31.137.193 1.144-.16.518zm-38.028-12.617-.125.532-.882-.958.524-.157.187.018zm32.816-2.15 1.64.426 1.134-.055 1.09.3.475.656.495.28 2.676-.072 2.196.324 4.807 1.939 2.873 1.917 1.524 2.038 3.683 2.635-.216.156-.63.898-.345.77.812.81.244.863.46.936.718.94.801 1.747.186.7-.228.456-.764.278-.714.817-.194.997.136.492-2.138 1.592-.55.265-.365-.245-.456-.8-.544-.644-.293-.225-.17-.01-.171.148-.08.35.284 1.496-.237.607-.725.466-.83 2.434-.327-.308-2.74-3.277-2.373-4.06-.495-1.837.616-.11.595.041.32-.283.371-.534-.3-1.243 1.154-.943.434-.636.32.074.753 1.081 1.096.622 1.346.902.833.204-1.053-.946-1.82-1.245-.51-.818-.482-1.138-.711.493-.33.415-.368.236-.32-.283-.058-.368-1.071-.072-.276-.333-.284-.187.129.71.21.438-.113.529-.35.037-.298-.547-.381-.494-.509-2.07-1.218-.975-.557-.325-.46-.122-.68-.663-.896-.355-1.219-1.03-1.496-.737-1.828-.261-2.221.16-.748.41-.509.52-.236.241-1.312.597-.497.862-.314.727-.654.825.747.499-4.28 2.803-.848.407-1.922.287-.443.3-.587.554-.078.843.089.717.558.553.497.349 1.193 1.668 2.118 2.105.401.767.329 1.138-.64.534-.494.225-2.015.09-.695.455-.281.696-.752.566-2.598.562-2.04.064-.634-.65-.153-1.83-1.374-3.12-.328-2.15-.343.267-.728.25-.246.535-.183 1.586-.269.541-.563-.051-1.153-.568-1.535-.524-1.956-3.36-.212-.633-.38-.754-1.512-.318-1.29-.566-1.407-.088-.72.318-.734-.405-.127-.92-1.476.413-1.894-.143-1.694-.394-1.159.21-.968.652.134 1.674-.285.33-.046-.684-.337-.787-.405-.653-.855-.674-.046-.248.34-.343 1.55-.977.192-.409.024-.85-.15-.814-.699-1.198.4-.74.8-.595.82-.47.138-.198-.152-.407-.478-.44-1.12-.747-.673-.048-.028-2.153.034-2.283.168-.227.412-.136.328-.348.184-.676.49-.24.886.521.904.459.374-.153.282-.223.197-.22.066-.211.72.609 1.478 1.08.086.531-.14.51.407 1.46.767.212.771-.283.191.27-.143.27-.397.3-.099 1.257 1.265.586.632.516 2.095-.242.772.137.527-.15-.585-1.008-.783-.746.065-.335.594.248.454.508 1.03.63 1.9 2.188 2.176.53 1.722-.071 1.604-.296 2.559-.85 1.85-1.536 1.477-.685 4.787-1.459 1.7-1.525.717-.202.684-.19 1.505-1.155.809-.9.854-.452z" style="fill:#d8ef3e;fill-opacity:1;fill-rule:nonzero;stroke:#505050;stroke-width:.5;stroke-linecap:round;stroke-linejoin:round;stroke-miterlimit:4;stroke-dasharray:none;stroke-opacity:1" transform="translate(-227.844 -209.161)" id="path2" />
  </g>
</svg>
