<?xml version="1.0" encoding="UTF-8" standalone="no"?>
<svg width="30.618" height="7.056" version="1.1" id="svg6" sodipodi:docname="puerto_rico.svg" xmlns:inkscape="http://www.inkscape.org/namespaces/inkscape" xmlns:sodipodi="http://sodipodi.sourceforge.net/DTD/sodipodi-0.dtd" xmlns="http://www.w3.org/2000/svg" xmlns:svg="http://www.w3.org/2000/svg">
  <defs id="defs10" />
  <sodipodi:namedview id="namedview8" pagecolor="#ffffff" bordercolor="#666666" borderopacity="1.0" objecttolerance="10.0" gridtolerance="10.0" guidetolerance="10.0" inkscape:pageshadow="2" inkscape:pageopacity="0.0" inkscape:pagecheckerboard="0" />
  <g style="display:inline" id="g4">
    <path class="polygon" d="m400.9 112.923-.102.01-.103-.011-.045-.033-.069-.104-.325-.172-.08-.156.069-.165.133-.067.66-.02.069.017.131.115.002.081-.068.079-.115.198-.046.05-.034.052-.012.09zm27.9-.522-.893.07-.583-.094-.195-.338 1.085-.316 1.265.046.724.19.091.126zm-8.024-3.869.352.225.343-.032-.277-.467h.254l2.186.287 1.404.482 1.446.23.09 1.586-1.112.634-.727.662-.592.813-1.559.946-1.878.284-1.248.025-.467-.03-.455-.163-.944.155-1.166-.415-.999.104-1.983-.1-.744.36-.711.081-.698-.067-.594-.16-1.472.014-.621-.314.257-1.805.023-.818-.361-.675-.397-.424-.286-.502.578-.33.474-.481.15-.724.52-.177.609-.085 2.813.338 7.119.191.405.059z" style="fill:#3e3eef;fill-opacity:1;fill-rule:nonzero;stroke:#505050;stroke-width:.5;stroke-linecap:round;stroke-linejoin:round;stroke-miterlimit:4;stroke-dasharray:none;stroke-opacity:1" transform="translate(-399.926 -107.401)" id="path2" />
  </g>
</svg>
