<?xml version="1.0" encoding="UTF-8" standalone="no"?>
<svg width="138.475" height="121.481" version="1.1" id="svg6" sodipodi:docname="algeria.svg" xmlns:inkscape="http://www.inkscape.org/namespaces/inkscape" xmlns:sodipodi="http://sodipodi.sourceforge.net/DTD/sodipodi-0.dtd" xmlns="http://www.w3.org/2000/svg" xmlns:svg="http://www.w3.org/2000/svg">
  <defs id="defs10" />
  <sodipodi:namedview id="namedview8" pagecolor="#ffffff" bordercolor="#666666" borderopacity="1.0" objecttolerance="10.0" gridtolerance="10.0" guidetolerance="10.0" inkscape:pageshadow="2" inkscape:pageopacity="0.0" inkscape:pagecheckerboard="0" />
  <g style="display:inline" id="g4">
    <path style="display:inline;fill:#e77936;fill-opacity:1;fill-rule:evenodd;stroke:#505050;stroke-width:.525892;stroke-linecap:round;stroke-linejoin:round;stroke-miterlimit:4;stroke-dasharray:none;stroke-opacity:1" class="polygon" d="m212.427-15.504.14.356.027.333-.63.31-.418.179-.499.856-.927.583-.155.176.006.16.628.263.208.25.098.336-.28 1.197-.177.92-.232 1.205.006.46.24.55.235.43.073.486-.085 1.196.291.692.23.64-.549.796-.235.702-.148 1.006-.06.634-.353.586-.463.55-.52.343-.642.294-.742.39-.6 1.04-1.296.865-.272.298-.122.694.034.962.228.766.623 1.13.545 1.245.148.627.21.236.765.407 1.325.556.246.225.657.859.624 1.539.195 1.02 1.214.81 1.12.747 1.076.657 1.169.712.167.22.39 1.512.387 1.501.426 1.655.427 1.658.503 1.954.286 1.11.347 1.345.406 1.576-.653.334-.74.428.54.812 1.037 1.32.627 1.066.217.46.49 1.323.396 1.283.103.414.146.987-.18 2.718.285 3.452.386 1.72-.606 1.555-.519 1.485.033.744.287 1.166.279.862.382.454-.074 1.45-.16.528-1.165.76-1.292.697-.358.588-.103.654.173.535.888 1.182 1.335 1.776 1.467 1.952.123.494.06 1.386.61 1.742.662.762.249.568.467.407.468.3h.288l1.65-.474 2.82.785 2.668.798.196.16.583 1.01.954 1.651.708 1.32.633 1.183-3.459 2.04-3.458 2.039-3.46 2.039-3.459 2.039-3.458 2.04-3.459 2.038-3.459 2.04-3.46 2.039-2.293 1.352-1.459 1.193-1.83 1.497-1.728 1.485-1.36 1.17-1.762 1.515-.886.762-1.964 1.69-.59.3-2.603.5-2.386.455-2.205.42-1.507.288-1.457.28-2.12.395-1.514.28-1.635.3-.253.068h-.517l-.451-.167-.546-.401-.364-.2-.091-.315.212-.414.263-.374.101-.294.183-.22.232-.18.006-.254-.192-.421-.17-.581.006-1.055.004-.347.002-.127-.49-.408-.92-.44-.847-.261-.387-.087-.936-.16-1.293-.28-.454-.194-.837-.978-.411-.254-1.94-.167-.645-.16-.529-.234-.453-.314-.254-.541-.076-.441-.17-.207-2.14-1.055-.543-.361-.289-.334-.013-.494.06-.608-.09-.535-.092-.267-.976-.641-2.188-1.43-2.187-1.43-2.187-1.431-2.188-1.43-2.187-1.43-2.188-1.431-2.187-1.43-2.187-1.43-2.188-1.43-2.187-1.43-2.188-1.43-2.187-1.43-2.188-1.43-2.187-1.43-2.188-1.432-2.188-1.429-1.847-1.21-2.043-1.276-1.515-.933-1.506-.93-1.617-.997-1.052-.62-1.256-.74-1.256-.738-1.256-.74-1.256-.737-1.256-.74-1.257-.738-1.256-.739-1.256-.738-1.256-.74-1.256-.738-1.256-.739-1.256-.738-1.257-.74-1.256-.738-1.256-.739-1.256-.739v-8.915l.033-.461.124-.194.678-.327 1.063-.75.393-.334.502-.334 1.779-1.015.368-.28 1.728-1.168.405-.174.927-.113.388-.22.52-.468.768-.535.499-.254.119-.066.317-.067 1.599.16.67.12.8.1.252-.066.214-.167.302-.374.066-.441.02-.388.047-.167.141-.073h.348l.468.067h.954l.322-.067 1.084-.08 1.532-.254 1.213-.327.966-.26 1.036-.68.758-.718.79-1.071.625-.928 1.267-.58 1.062-.348.604-.14 1.378-.488 1.163-.74 1.091-.694.837-.094 1.056-.113.235-.127.267-.247.013-.434-.32-.308-.386-.16-.272-.174h-.273l-.144-.207.08-.387.04-.354.174-.354-.047-.501-.272-.501-.083-.36.02-.355.133-.28.391-.187.454-.067.639.087 1.1-.12 2.822-.867.195-.267.18-.601.203-.528.292-.174.159-.066.94-.14 1.332-.201h.5l1.45.067 1.059.067 1.708.066h2.271l1.347.067.33-.12v-.38l-.242-.714.146-.444.52-.412.648-.461-.304-.561-.516-.376-.722-.448-.373-.186-.653-.543-.401-.62-.272-1.309-.497-.733-.361-.904.32-1.657-.48-1.003-.073-.434-.004-.51.146-.882-.095-1.241-.567-1.282.266-.436.125-.226-.04-.194-.515-.407-.221-.335.115-.316.268-.459-.02-.191-.837-.559-1.409-.903-.394-.394-.193-.497 1.348.128.699-.06 1.6-.594 1.269-.802.988-.408.871-.879.786-.555 1.137-.598 3.282-1.29.503-.013 1.08.295.94-.092.643-.452.693-1.086 1.073-.663 1.354-.664 1.843-.633 1.208-.584 1.907-.505 4.791-.32 2.46-.286 1.674.067 1.69-.923.845-.304 3.658-.071 1.727-.675 6.54-.001.8.226.785.363 1.337.877.666.19.863-.181 2.01-.83 2.266-.432 1.232-.495.526-.72 1.06-.264.597.552 2.349.559 1.442-.16.635-.168-.229-.828 1.524.221 1.17.398 1.229.798.794.16 1.447-.361z" transform="translate(-96.87 16.857)" id="path2" />
  </g>
</svg>
