<?xml version="1.0" encoding="UTF-8" standalone="no"?>
<svg width="21.045" height="41.688" version="1.1" id="svg6" sodipodi:docname="benin.svg" xmlns:inkscape="http://www.inkscape.org/namespaces/inkscape" xmlns:sodipodi="http://sodipodi.sourceforge.net/DTD/sodipodi-0.dtd" xmlns="http://www.w3.org/2000/svg" xmlns:svg="http://www.w3.org/2000/svg">
  <defs id="defs10" />
  <sodipodi:namedview id="namedview8" pagecolor="#ffffff" bordercolor="#666666" borderopacity="1.0" objecttolerance="10.0" gridtolerance="10.0" guidetolerance="10.0" inkscape:pageshadow="2" inkscape:pageopacity="0.0" inkscape:pagecheckerboard="0" />
  <g style="display:inline" id="g4">
    <path style="display:inline;fill:#5fef84;fill-opacity:1;fill-rule:evenodd;stroke:#505050;stroke-width:.525892;stroke-linecap:round;stroke-linejoin:round;stroke-miterlimit:4;stroke-dasharray:none;stroke-opacity:1" class="polygon" d="m179.155 153.095-.278.427-.423.887-.02.693 1.009 1.46.116.147.261.227.141.274.12.719.07.811.08.548.487.768.033.307-.338 1.146-.08.12h-.09l-.522-.1-.225.127-.284.388-.175.387-.006.16.463.724-.292 1.04-.3.647-.537.367-.481.087-.336.174-.196.227.027.744-.709.677-.393.474-.19.287.08.876-.252.883-.437.698-.981.147-.824.087-.28 1.777.014 1.126-.073 1.15-.137.467.053.661-.06 1.491-.109 1.176.145.314.085.692-.006.713.21.494.23.434-.007.228-.121.14-.102.18v1.683l.04.5-.06.321-.176.268.07.85.141.542.145.4-.14.334-.12.441-.185 1.123-.013.387-2.803.274-3.13.448-1.307.294-.078-.227 1.116-.294-.233-.88-.694-1.037-.272-.194-.14-.514.17-.34-.081-.228-.06-.7-.342-.77h.626v-8.508l-.12-1.926-.02-1.414-.027-1.864-.227-.581-.948-.987-.258-.514-.047-.677-.212-.699-.014-1.22-.013-1.42-.086-.228-1.028-.677-1.455-.96-1.11-.731-.081-.067-.111-.18.16-2.162.23-.28.354-.89.172-.717h.16l.224-.234.18-.34.193.073.323.067.15-.12-.02-.267.106-.267.254-.12.067-.241.002-.28.22-.074h.374l.306-.086.246-.14.317-.562.179-.194.053-.14.181-.12.499-.067.401.067.258.32 1.72-.287.82.167 1.674-1.407.376-.414.508-.995.173-.38.157-.683-.33-1.263.02-.227.69-.274.863-.207h.334l.22-.107.315-.274.513-.2.3.066.186.067 1.813 1.667.787.843.212.435.406.313.6.194.547.428z" transform="translate(-159.969 -148.213)" id="path2" />
  </g>
</svg>
