<?xml version="1.0" encoding="UTF-8" standalone="no"?>
<svg width="53.382" height="38.215" version="1.1" id="svg6" sodipodi:docname="burkina_faso.svg" xmlns:inkscape="http://www.inkscape.org/namespaces/inkscape" xmlns:sodipodi="http://sodipodi.sourceforge.net/DTD/sodipodi-0.dtd" xmlns="http://www.w3.org/2000/svg" xmlns:svg="http://www.w3.org/2000/svg">
  <defs id="defs10" />
  <sodipodi:namedview id="namedview8" pagecolor="#ffffff" bordercolor="#666666" borderopacity="1.0" objecttolerance="10.0" gridtolerance="10.0" guidetolerance="10.0" inkscape:pageshadow="2" inkscape:pageopacity="0.0" inkscape:pagecheckerboard="0" />
  <g style="display:inline" id="g4">
    <path style="display:inline;fill:#ef785f;fill-opacity:1;fill-rule:evenodd;stroke:#505050;stroke-width:.525892;stroke-linecap:round;stroke-linejoin:round;stroke-miterlimit:4;stroke-dasharray:none;stroke-opacity:1" class="polygon" d="m156.591 131.62-.091.306-.006.548-.118.867-.142 1.04.58.673.694.725.186.28-.184.713.127.421.37.697.622.884.64.91.443.121.422.073.256.16.376.161.372.1.325.2.208.194.267.561.723.374.502.368-.203.187-.627-.074-.59-.16-.08.267-.026 1.03.096.858.137.113.594.16 1.416 1.115 1.28 1.054.431.274.71.107.792.067.342-.1.77-.534.408-.067h.377l.206.087.369.434.346.654.098.481-.033.26-.118.1-.63.128-.273.1-.068.14.097.327.124.207.688.945.995 1.273.306.327-.173.38-.509.995-.376.415-1.673 1.408-.82-.167-1.721.287-.258-.32-.401-.068-.499.067-.18.12-.054.14-.179.194-.317.561-.246.14-.306.087h-.374l-.22.074-.002.28-.067.24-.254.12-.107.268.02.267-.149.12-.323-.066-.192-.073-.181.34-.223.234h-.161l-1.72.066-.627.187h-.377l-.014-.153-.04-.094-2.17-.52-1.522-.308-1.542-.34-.088.32-.222.207h-.333l-.232-.067-.155.247-.255.327-.357.16-.35.2-.197.174h-.143l-.354-.414-.468-.066-.878.066-.393-.113-.54-.068-1.27.088-2.03-.167-.333.093-.088.074h-7.695l-.003-.074-.52-.01-.06.14-.459 1.667-.053.906.244.561.275.354.307.147.034.207-.246.26.02.268.288.274.071.287-.147.307.034.731.217 1.159.006.75-.205.341.097.588.4.83.068.353-.142.16-.33.214-.336-.01-.39-.501-.171-.227-.316-.508-.268-.514-.363-.228-.355-.207-.434-.647-.42-.308-.441.086-.646-.12-1.301-.16-1.4.067-.58.147-.574.234-1.454.521-.574.254-.434.654h-.495l-.495-.207-.309-.294-.662.067-.641-.288-.62-.567-.455-.187-.583-.408-.16-.777-.37-.548-.338-.756-.503-.34-.581-.181-.802.067-.527-.307-.417-.441.11-.38.188-.548.02-.528.124-.852-.077-1.067-.146-.743.443-.307.513-.28.318-.508.331-1.135.139-.98-.103-.36-.17-.287-.135-.421-.077-.515.093-.447.387-.414.486-.348.345-.167.914-.173 1.143-.26.658-.295.482-.294.27-.233.272-.475.443-.367.342-.374.046-1.039-.002-.594-.253-.328-.138-.28 1.693-.812.014-.574-.237-.641-.331-.515-.124-.447.468-.521.417-.394.302-.334.668-.508.693-.133.628.193 1.854 1.199.322.073.385-.093.489-.314.635-.248.233-.801-.02-1.18.144-.541.335-.094 1.067.227h.278l.31-.073.225-.207-.006-.381-.047-.334.347-1.095.635-.821 1.284-1.028.4-.207.465-.107 2.298.706.374-.174.562-1.75.623-.167h.748l.486-.147.252-.12 1.093-.662 1.928-.904 1.039-.387.203-.147.743-.642.985-.737.628-.147.868-.067.547.12.149.208.18.106 1.132-.313 1.624.5z" transform="translate(-117.977 -130.166)" id="path2" />
  </g>
</svg>
