<?xml version="1.0" encoding="UTF-8" standalone="no"?>
<svg width="51.641" height="76.806" version="1.1" id="svg6" sodipodi:docname="cameroon.svg" xmlns:inkscape="http://www.inkscape.org/namespaces/inkscape" xmlns:sodipodi="http://sodipodi.sourceforge.net/DTD/sodipodi-0.dtd" xmlns="http://www.w3.org/2000/svg" xmlns:svg="http://www.w3.org/2000/svg">
  <defs id="defs10" />
  <sodipodi:namedview id="namedview8" pagecolor="#ffffff" bordercolor="#666666" borderopacity="1.0" objecttolerance="10.0" gridtolerance="10.0" guidetolerance="10.0" inkscape:pageshadow="2" inkscape:pageopacity="0.0" inkscape:pagecheckerboard="0" />
  <g style="display:inline" id="g4">
    <path style="display:inline;fill:#5f82ef;fill-opacity:1;fill-rule:evenodd;stroke:#505050;stroke-width:.525892;stroke-linecap:round;stroke-linejoin:round;stroke-miterlimit:4;stroke-dasharray:none;stroke-opacity:1" class="polygon" d="m258.54 180.966-.675 1.106-.89.635-.262.38-.14.475-.19.474-.474 1.026-.346.838-.346.26-.807 1.267-.545 1.27-.109.327-.165.247-.265.194-.936.394-.316.193-.248.234-.23.267-.066.32.218.455.263.36h.495l.144.215.121.127v2.468l-.222.374.005.167-.11.428-.033.474.07.187.189.154.26.334.14.759.316 2.67.15.422.261.293.823.575.863.757.272.495.16.807.33.635-.006.214-.136.087-.321.01-.217.068.182.46.444.804.743.833.803.902.656.737.818.852.64.668.657.685.496.16.372.067.159.134.195.314.336.347.369.454.126.461-.154.44.153.636.006.066.123.247-.04.227.075.84.196.732.316.628-.005.067-.04.387-.406.247-.238.408-.07.567.123.692.314.816.006.481-.11.066-.196.154-.207.1-.562-.561-.625-.381-.935-.655-.944-.233-1.221-.067-.526.08-.377-.247-.527-.287-.29-.074-.404.22-.28.011-.343-.087h-.695l-.067-.381-.118-.074-.75.068-.23-.314h-.1l-.295-.1-.603-.448-.633.294-1.316-.066h-6.636l-.158-.42-.331-.215h-.597l-1.76.087-1.347-.068-.43-.066-.479-.107-1.125-.1-1.389.08h-1.427l-2.543-.113h-1.407l.034.254-.09.187-.075.44h-6.824l-2.185-.002-.734-.3-.221-.194-.047-.22-.027-.147-.17-.068.14-1.568.307-1.307.12-1.213.42-1.086-.223-1.072-.26-.468-1.363-1.522.625-.574-.824.08-.177-.568-.4-.679.245-.106.236-.375.745.114-.027-.18-.642-.568.06-.287.265-.32-.13-.135-.46.334-.334-.01-.259-.214-.187-.067.114.434-.26.388-.244.133h-.421l-.344-.1-.09-.22-.322-.167-.904-.287-.76-.341-.154-.927-.3-.401-.124-.454-.072-.515.103-.792-.192-.127-.22-.067-.33.067-.302-.067-.36-.44-.319-.168.196.806-.223.228-.546-.068-.233-.307-.047-.227.252-.977h-.099l.196-.52.37-.629.502-.8.57-1.006.39-1.78.264-1.107.241-1.011.415-.913.421-.608 1.193-1.183.899-.892.46-.36.32-.3.56-.348.574-.414.438-.789.363-.736.272-.16.357-.127 1.1-.789.7-.5.161.246.119.308.133.14.585.1.802-.01.462-.094.245-.26.25-.715.145-.134.188-.067.877.5.727.712.72.703.364.247.159.274.315 1.285.18.32.312.134.561-.087.584-.227.515-.328.506-.427.345-.388.15-.28.076-1.051.114-.228.517-.42.865-.699.497-.4-.047-.148-.308-.427-.275-.468.279-.487.289-.375 1.093-1.263.004-.414.06-.507.873-1.434.503-1.904.013-.367.52-.918.616-1.174 1.197-.194.46-.294.531-.52.342-.481.162-.461.12-.887.21-1.011.132-.887.359-.82.6-.414 1.043-.34.155-.16.15-.542.118-1.128.033-.68.04-.295.134-.507.967-.903.427-1.416.38-1.481 1.099-1.791 1.283-1.783.597-.48.503-.221h.578l.395-.134 1.384-.888.578-.3.425-.308.105-.267.04-.394-.132-.92.237-.675.14-1.047.06-.815-.047-.28-.219-.388-.04-.087-.414-.508-.691-.307-.953-.08-.503-.18-.085-.421-.046-.247-.047-.268-.068-.594-.642-3.112 1.208.011 1.449.374.364.28.19 1.067.524.6.922.495.573 1.025.225 1.555.508.928.114.147.575 1.344.143.414.04.81-.067.547.293.677-.444 1.154-.132.708-.04.994.26 1.754.424 1.354.46 1.094.5.85.828.939.882.857.821.541-.761.314-1.476.067-.847-.18h-.404l-.408.113-1.575.16-1.589-.073-1.474-.214h-.895l-.691.52-.56.785-.526.621.185.687.396.38.76.838.682.81.348.548 1.362 1.191 1.314 1.066.257.18.367.194.23.08.717.608.99 1.001.91 1.57.645 1.593.628 1.55.277.26.437.167.053.334-.033.488-.135.4z" transform="translate(-211.858 -143.544)" id="path2" />
  </g>
</svg>
