<?xml version="1.0" encoding="UTF-8" standalone="no"?>
<svg width="87.182" height="59.041" version="1.1" id="svg6" sodipodi:docname="central_african_republic.svg" xmlns:inkscape="http://www.inkscape.org/namespaces/inkscape" xmlns:sodipodi="http://sodipodi.sourceforge.net/DTD/sodipodi-0.dtd" xmlns="http://www.w3.org/2000/svg" xmlns:svg="http://www.w3.org/2000/svg">
  <defs id="defs10" />
  <sodipodi:namedview id="namedview8" pagecolor="#ffffff" bordercolor="#666666" borderopacity="1.0" objecttolerance="10.0" gridtolerance="10.0" guidetolerance="10.0" inkscape:pageshadow="2" inkscape:pageopacity="0.0" inkscape:pagecheckerboard="0" />
  <g style="display:inline" id="g4">
    <path style="display:inline;fill:#865fef;fill-opacity:1;fill-rule:evenodd;stroke:#505050;stroke-width:.525892;stroke-linecap:round;stroke-linejoin:round;stroke-miterlimit:4;stroke-dasharray:none;stroke-opacity:1" class="polygon" d="m307.835 158.283.472.83.225.294 1.947 1.964.377.467.964 1.428.59.963.677 1.384.066.751-.09.642-.134 1.825-.178.528-.854.983-.033.441.176.367.26.154.16.18-.098.851.306.334.642.22 1.621.154.843.12.663.174.317.08.174.3-.273.983.19.615.554.52.562.221.538.127 1.875.32.779.362 1.028 1.153 1.29 1.048.314.555-.06.507-.383.615.06.254.594.614.68.628 1.241.7 2.154 1.093.985.733.337.555.55.6.77.555.516.428-.356 1.202.107.394.192.34.449.475.18.608.446.76.53.347.886.127.469.354.974.607.942.521.404.361.25.32.214.375.105.374.02.814.161 1.009.506.69.474.514-1.927-.594h-.287l-.343.1-1.005.726-.322.087-.364-.067-.901-.088-3.067-.574-2.362-.555-.708-.2-1.261-.187-.834.374-.782 1.29-.226.254-1.23.381-.58-.1-1.422.354-2.193-.534-.784.107-.615.267-1.576.588-.957.334-1.113.307-1.057.468-.711.253h-.697l-.628-.26-.687-.227-.822-.067-.857.133-.727.514-.294.368-.63.976-.746 1.59-.292.32h-.081l-.184.134-3.433-.794-1.477-.18-.998.246-1.252-.447-.547-.08-.257.14-.696-.2-1.135-.541-1.087-.227-.972.08-.597-.18-.479-.529-.62-.966-1.118-.958-1.496-.769-.934-.58-.374-.388-.805-.214-1.236-.067-1.186.38-1.703 1.198-1.581 2.458-.881.94-.707.241-.178.595.35.941.092 1.085-.247 1.84.092 1.338-.378-.213-.36-.628-.17-.127-1.044.28-.542.254-.288.247-.22.068-.332-.341-.261-.067-.41.067-.42-.01-.273-.067h-.179l-.492-.2-1.797-.515-.307-.173h-.358l-.933.447-.492.127-1.484.28-1.59.134-.609.01-.418.201-.27.28-.181.629-.313 1.073-.13.294.02.427-.093.72-.047.648.06.435-.45.873-.544 1.057-.454.908-.457.914-.316-.628-.196-.733-.075-.84.04-.227-.123-.248-.006-.066-.153-.634.155-.441-.127-.468-.369-.454-.335-.347-.196-.314-.159-.134-.371-.066-.497-.16-.657-.685-.64-.668-.817-.852-.656-.737-.804-.901-.742-.834-.445-.804-.182-.46.217-.067.321-.01.136-.088.006-.213-.33-.635-.16-.807-.272-.495-.863-.757-.822-.574-.262-.294-.149-.42-.316-2.673-.14-.758-.26-.334-.19-.153-.07-.187.034-.475.109-.427-.005-.167.222-.374v-2.469l-.12-.127-.145-.214h-.495l-.263-.36-.218-.455.067-.32.229-.267.247-.234.316-.194.936-.394.266-.2.165-.247.11-.328.544-1.269.806-1.266.347-.26.346-.84.473-1.026.192-.474.14-.474.261-.381.89-.635.674-1.106.73.068.748.18.96.086.752-.214.488-.434 1.072-.34 1.254-.401.17-.595.368-.314.426-.273.148-.068.033.2.26.615.53.615.777.673.224-.067.482-.508 1.213-.314.307-.14.862-.742 1.037-.481.229-.066.376-.127 1.047-.495.744.067 1.198-.08 1.995-.234 1.444-.08.729-.094.183-.1.28-.714.218-.2.543-.307 1.062-1.078.698-.909.193-.307h.014l.143-.066.3-.381-.298-.394-1.19-.806.014-.113-.069-.14.067-.114.454-.327.612-.374.653-.14h1.701l1.451-.08h.34l1.131-.194.774-.174.796-.387 1.8.067 1.501-.988.43-.174.19-.153.053-.154.702-.387.786-.812.623-.729.169-.514 1.699-1.746h.592l.291-.214.674-1.164.208-.214.319-.073.38-.134.334-.347.288-.515.002-.634-.131-.508v-.247l.16-.227.273-.227 1.292-.628.327-.3.196-.275.36-.066h.396l.25-.167.282-.287.894-.38.829-.301.87.127.708.153.583.18z" transform="translate(-251.263 -157.183)" id="path2" />
  </g>
</svg>
