<?xml version="1.0" encoding="UTF-8" standalone="no"?>
<svg width="70.879" height="107.222" version="1.1" id="svg6" sodipodi:docname="chad.svg" xmlns:inkscape="http://www.inkscape.org/namespaces/inkscape" xmlns:sodipodi="http://sodipodi.sourceforge.net/DTD/sodipodi-0.dtd" xmlns="http://www.w3.org/2000/svg" xmlns:svg="http://www.w3.org/2000/svg">
  <defs id="defs10" />
  <sodipodi:namedview id="namedview8" pagecolor="#ffffff" bordercolor="#666666" borderopacity="1.0" objecttolerance="10.0" gridtolerance="10.0" guidetolerance="10.0" inkscape:pageshadow="2" inkscape:pageopacity="0.0" inkscape:pagecheckerboard="0" />
  <g style="display:inline" id="g4">
    <path style="display:inline;fill:#e736e1;fill-opacity:1;fill-rule:evenodd;stroke:#505050;stroke-width:.525892;stroke-linecap:round;stroke-linejoin:round;stroke-miterlimit:4;stroke-dasharray:none;stroke-opacity:1" class="polygon" d="m315.318 100.992.002 2.979.002 2.98.002 2.979.002 2.98.002 2.98.002 2.98.002 2.978.002 2.98v.989l-.084.394-.04.066-.128.067-1.589-.274h-.693l-.975.214-1.433.114h-.924l-.64.514-.504.621.238 1.481-.054.488-.193.507-.435.441-.434.348-.26.307-.323.67-.238.314.02.42-.077.441-.261.228-.667.166-.43.194-.344.32-.232.235.122.307.169.42.096.662.067.387.327.314.2.227.07.274-.192.227-.813.481-.326.18-.373.248-.143.093-.595.455-.3.4-.145.334.006.461.302.694.33.588.127.448.075.487-.027.461-.17.4-.298.362-1.12.68-.552.75-.44.91-.11.494.12.327.233.28.334.14.485.067.805-.154.75-.1.794.328.415.762-.162.554.301 1.01.269 1.22-.02.414.116.153.497.08.111.287-.164 2.142.232.6.334.428.376.22.378.288.197.2.438.067.492.387.134.521-.033.501-.287 1.09-.232.73-.286-.067-.582-.18-.71-.154-.869-.126-.828.3-.894.38-.283.288-.25.167h-.395l-.36.067-.197.274-.326.3-1.292.629-.272.227-.161.227v.247l.13.508-.001.634-.288.515-.334.347-.38.134-.32.073-.207.214-.674 1.164-.292.214h-.591l-1.7 1.746-.169.514-.622.729-.787.811-.702.395-.053.153-.189.154-.43.174-1.502.988-1.8-.068-.795.388-.774.173-1.131.194h-.34l-1.45.08h-1.703l-.652.14-.612.374-.454.328-.067.113.069.14-.014.114 1.19.805.297.395-.299.38-.144.067h-.013l-.194.307-.697.909-1.062 1.077-.543.308-.218.2-.28.714-.183.1-.73.094-1.443.08-1.996.233-1.197.08-.745-.067-1.047.494-.375.127-.23.067-1.036.481-.861.742-.308.14-1.213.315-.482.507-.223.068-.778-.674-.53-.614-.26-.615-.033-.2h-.147l-.427.274-.367.314-.17.594-1.255.401-1.072.34-.487.435-.753.214-.96-.087-.748-.18-.73-.067.35-.541.135-.401.033-.488-.053-.334-.436-.167-.278-.26-.627-1.55-.646-1.593-.909-1.57-.99-1.001-.716-.608-.23-.08-.368-.194-.257-.18-1.314-1.066-1.362-1.19-.348-.549-.682-.81-.76-.837-.396-.38-.185-.688.526-.621.56-.784.691-.521h.896l1.474.213 1.59.074 1.574-.16.408-.114.404.01.847.181 1.476-.067.761-.32-.821-.542-.882-.858-.827-.938-.502-.85-.459-1.095-.424-1.353-.26-1.754.04-.994.132-.709.444-1.153-.293-.677.067-.547-.04-.81-.143-.414-.575-1.344-.114-.147-.508-.928-.225-1.555-.573-1.025-.922-.494-.524-.602-.19-1.065-.364-.28-1.45-.375-1.207-.01-.88-1.203-1.127-1.543-1.05-1.436-.672-2.871-.384-1.645.437-.501.86-1.17 1.1-2.24 2.479-3.465 1.267-1.773 2.53-2.648 3.109-3.255 1.751-1.834.284-3.34.299-3.532.227-2.67.281-3.165.236-2.644.172-1.928.243-2.73.208-.521 1.22-2.142.096-.287-.227-.36-1.742-1.82-.543-.408-.313-.946.448-.534-2.096-3.054-.52-.374-.226-.374-.027-.548-.04-2.112-.557-3.315-.734-3.86 2.461-1.099 1.868-.835 2.384-1.066 2.211 1.092 3.2 1.58 3.2 1.58 3.2 1.58 3.2 1.58 3.2 1.581 3.2 1.58 3.2 1.58 3.2 1.58 3.2 1.581 3.201 1.58 3.2 1.58 3.2 1.58 3.2 1.58 3.2 1.581 3.2 1.58z" transform="translate(-244.718 -74.533)" id="path2" />
  </g>
</svg>
