<?xml version="1.0" encoding="UTF-8" standalone="no"?>
<svg width="11.517" height="12.309" version="1.1" id="svg6" sodipodi:docname="djibouti.svg" xmlns:inkscape="http://www.inkscape.org/namespaces/inkscape" xmlns:sodipodi="http://sodipodi.sourceforge.net/DTD/sodipodi-0.dtd" xmlns="http://www.w3.org/2000/svg" xmlns:svg="http://www.w3.org/2000/svg">
  <defs id="defs10" />
  <sodipodi:namedview id="namedview8" pagecolor="#ffffff" bordercolor="#666666" borderopacity="1.0" objecttolerance="10.0" gridtolerance="10.0" guidetolerance="10.0" inkscape:pageshadow="2" inkscape:pageopacity="0.0" inkscape:pagecheckerboard="0" />
  <g style="display:inline" id="g4">
    <path style="display:inline;fill:#efc75f;fill-opacity:1;fill-rule:evenodd;stroke:#505050;stroke-width:.525892;stroke-linecap:round;stroke-linejoin:round;stroke-miterlimit:4;stroke-dasharray:none;stroke-opacity:1" class="polygon" d="m444.005 154.407-.578.896-.74 1.145-.84 1.302-.526.01-.408-.073-.28-.22-.575-.24h-.65l-.619.227-1.048.28-.948.094-.762.153-.633.18-.57-.1-.493-.166-.108-1.385-.117-1.503.014-1.177.175-.648.154-.254.895-.896.309-.367 1.023-1.482.877-1.27.655-.95.201-.187.277-.18.196.067 1.274.916h.225l.426-.287.386-.979.271-.354h.116l.818-.273.741-.308.095.32 1.12 1.314.367.648.377 1.183-.197.661-.292.428-.432.387-1.496.939-1.664.6-1.062 1.198-.79-.08.12.455.295.067.46-.086.915-.347.813-.167h.877l.795.153z" transform="translate(-433.848 -146.115)" id="path2" />
  </g>
</svg>
