<?xml version="1.0" encoding="UTF-8" standalone="no"?>
<svg width="81.805" height="65.048" version="1.1" id="svg6" sodipodi:docname="egypt.svg" xmlns:inkscape="http://www.inkscape.org/namespaces/inkscape" xmlns:sodipodi="http://sodipodi.sourceforge.net/DTD/sodipodi-0.dtd" xmlns="http://www.w3.org/2000/svg" xmlns:svg="http://www.w3.org/2000/svg">
  <defs id="defs10" />
  <sodipodi:namedview id="namedview8" pagecolor="#ffffff" bordercolor="#666666" borderopacity="1.0" objecttolerance="10.0" gridtolerance="10.0" guidetolerance="10.0" inkscape:pageshadow="2" inkscape:pageopacity="0.0" inkscape:pagecheckerboard="0" />
  <g style="display:inline" id="g4">
    <path style="display:inline;fill:#36b5e7;fill-opacity:1;fill-rule:evenodd;stroke:#505050;stroke-width:.525892;stroke-linecap:round;stroke-linejoin:round;stroke-miterlimit:4;stroke-dasharray:none;stroke-opacity:1" class="polygon" d="m383.569 21.999.096.2.22.561.555 1.425.484 1.117.595 1.546.185.595.08.407.86 1.7.512 1.4.374 1.135.526 1.658.23.58-.373.302-.748 1.078-.797 3.425-1.14 2.676-.13 1.675-.182.608-.542.849-.657.832-1.169-.434-1.903-1.462-1.11-1.388-1.189-.897-1.124-1.189-.306-.854.013-.548-.49-1.339-.364-.635-1.37-1.424-.394-.76-.3-.334-.302-.48-.497-1.848-.543-1.173-.62.32.11.495-.54.682-.326.793.25.648 1.12.985.228.427.261.934-.04 1.269.18.434.84.942.3.561.181.481.279.434.832.822 1.198 1.563 1.136 1.053.82.508.348.508.079 1.315-.06.628.718 1.18.266.602.697.488.319.554.292.905.441 2.675.604.654 1.869 3.516 1.575 2.226.763 1.66 1.162 2.022 2.277 4.44 1.355 1.371.54.77.981.594 1.063.856-1.014-.086-.255.066-.354.147-.171.521-.072.428.123 2.249.277 1.145.892 2.17.665.649.323.42.452.308 2.112.74 1.235 1.567 2.773 1.98.272.549.006.127h-8.766l-2.192.002h-10.958l-2.192.002h-8.765l-2.193.002h-1.25l.213-.595.132-.42-.147-.295-.427-.073-.28.093-.653 1.245-.344.067h-3.33l-2.551-.002H347.52l-2.552-.002h-10.207l-2.552-.002h-10.207V36.318l-.06-.28-.372-1.019-.335-1.296-.368-1.592-.047-.514-.615-1.64-.054-.461.155-.327 1.01-1.383.303-.671.257-.805.083-.655-.296-1.001-.348-.9-.117-.922-.047-.905.516-.622.619-.58.23-.355.367-.4.257-.188.501.81 1.047.14 3.414-.722 3.767.726 2.08.28 3.202.615 1.95 1.104.535.14h1.402l.92.655 3.655.314 1.95.72 1.109.574.663.18h.587l.794-.213 1-.408 1.09-.56 2.258-1.444.8-.253.52.066h.636l.265-.387.334-.267.21-.307.343-.368 1.175-.1 2.355-.628-.263.294-2.146.704.919.087.941-.24 1.071-.154.195-.3.14-.562.208-.08.741.107 2.208.863h.548l1.555-.474.331-.1.503.26 1.148 1.077h-.401l-1.228-.922-.11.46-.699.81.875.347.71.134.382.447.241.4.7-.173.503-.548-.261-.307-.178-.314.23-.006.488.26 1.398 1.038.47.214h.544l1.135-.294.314.067 1.525-.38.18.28.25.28 1.227-.307 1.927.003 1.577-.334 1.828-.821z" transform="translate(-319.89 -19.54)" id="path2" />
  </g>
</svg>
