<?xml version="1.0" encoding="UTF-8" standalone="no"?>
<svg width="19.906" height="19.272" version="1.1" id="svg6" sodipodi:docname="equatorial_guinea.svg" xmlns:inkscape="http://www.inkscape.org/namespaces/inkscape" xmlns:sodipodi="http://sodipodi.sourceforge.net/DTD/sodipodi-0.dtd" xmlns="http://www.w3.org/2000/svg" xmlns:svg="http://www.w3.org/2000/svg">
  <defs id="defs10" />
  <sodipodi:namedview id="namedview8" pagecolor="#ffffff" bordercolor="#666666" borderopacity="1.0" objecttolerance="10.0" gridtolerance="10.0" guidetolerance="10.0" inkscape:pageshadow="2" inkscape:pageopacity="0.0" inkscape:pagecheckerboard="0" />
  <g style="display:inline" id="g4">
    <path style="display:inline;fill:#ba5fef;fill-opacity:1;fill-rule:nonzero;stroke:#505050;stroke-width:.525892;stroke-linecap:round;stroke-linejoin:round;stroke-miterlimit:4;stroke-dasharray:none;stroke-opacity:1" class="polygon" d="m230.85 223.736.004.808h-3.183l-1.815-.01-1.815-.011h-1.916l-.326.066-.22.207-.267.068-.31-.174-.378-.087-.101-.18-.188-.328-.374-.067-.188.067-.269.187-.302.1.06-.154-.599-.4-.43-.067-.397-.127.321-1.05.402-.927.601-.7.32-.168.103-.347.476-1.143.589-.928-.182-.94.14-1.577.17.067.027.147.047.22.221.194.734.3h2.185l1.304.001 1.928.001h3.592l.006 1.548.006 1.307.006 1.415.006 1.474zm-17.36-17.618h1.165l.27.354-.033.52-1.028 1.518-.191.641-.398.541-.345.068-1.186-.32-.2-.195-.07-.26.116-.608.086-.187.57-.114.182-.1.304-.654.1-.595.255-.447z" transform="translate(-211.21 -205.855)" id="path2" />
  </g>
</svg>
