<?xml version="1.0" encoding="UTF-8" standalone="no"?>
<svg width="45.213" height="38.107" version="1.1" id="svg6" sodipodi:docname="eritrea.svg" xmlns:inkscape="http://www.inkscape.org/namespaces/inkscape" xmlns:sodipodi="http://sodipodi.sourceforge.net/DTD/sodipodi-0.dtd" xmlns="http://www.w3.org/2000/svg" xmlns:svg="http://www.w3.org/2000/svg">
  <defs id="defs10" />
  <sodipodi:namedview id="namedview8" pagecolor="#ffffff" bordercolor="#666666" borderopacity="1.0" objecttolerance="10.0" gridtolerance="10.0" guidetolerance="10.0" inkscape:pageshadow="2" inkscape:pageopacity="0.0" inkscape:pagecheckerboard="0" />
  <g style="display:inline" id="g4">
    <path style="display:inline;fill:#e73647;fill-opacity:1;fill-rule:nonzero;stroke:#505050;stroke-width:.525892;stroke-linecap:round;stroke-linejoin:round;stroke-miterlimit:4;stroke-dasharray:none;stroke-opacity:1" class="polygon" d="m423.266 126.378.276.354h.193l.152-.12.107-.254 1.056.494-.06.327h-.63l-.728-.14-.672.067-.801-.147-.185-.561.51.274.265-.067.046-.074-.362-.38-.51-.074.033-.3.229-.114.14-.147-.292-.407.573.093.362.247.238.288zm-.433-2.58.225.647-.653-.247-.109-.134.288-.253.06-.16zm-9.798-12.843 2.018 3.86.82 2.282.722 2.38.535 3.577.51 1.82.824.9.563 1.7.483.066.35.467.599 1.596.432.595.227-.508-.027-.294-.169-.487.155-.635.336-.38.765.514.418.394.113.784.175.434.802.92.676.268.877.067.733.2.588.34 1.102.936 2.52.82 2.025 2.514 1.192 1.742 3.92 2.641.677 1.267.353 1.239.825-.066 1.414 1.354.412 1.031 1.158.375.197-.608.56.5.226.776-.742.307-.817.274h-.116l-.271.354-.386.978-.427.287h-.224l-1.274-.915-.196-.067-.277.18-.201.188-.592-.694-.433-.614-.606-.731-.586-.328-.63-.414-.62-.958-.63-1.057-.936-.863-1.75-1.246-1.607-1.579-1.228-1.65-.791-.858-.338-.22-1.637-.542-1.144-.754-.88-.621-.54-.167h-.524l-1.116.127-.928-.387h-.389l-.622-.114-.487-.14-.573.167-1.175.28-.482-.067-.264-.387-.154-.294-.409-.307h-.336l-.188.274-1.227.698-2.055.387h-.487l-.364-.28-1.038-1.197-.297-.194h-.234l-.482-.14-.45-.227-.395-.488-.396-.28-.427.96-.747 1.679-.401.899-.516 1.158h-.163l-.264-.086-1.026-1.443-.644-.541-.482.067-.35.267-.222.48-.24.301-.26.114-.56-.067-.86-.227-.888.067-.913.327-.121.006-.214-1.92-.143-1.284-.152-1.36-.143-1.283.635-.788.295-.748.756-2.433.302-.481.595-1.303.083-.374.587-1.642-.054-1.092-.118-1.103.32-.654.288-.521-.02-.441.13-1.029.092-.253h.35l.722.133.53-.1.611-.001h.472l.28-.314.382-1.2.25-.24.19-.073.54-.22.461-.348.377-.254.14-.066h.398l.399-.147.183-.167.503-.134.491.074.332-.147.22-.094.25-.006.23-.14.093-.214.151-.134.384-.313.176-.228.08-.227.077-.18.169-.307.67-.766z" transform="translate(-398.191 -110.692)" id="path2" />
  </g>
</svg>
