<?xml version="1.0" encoding="UTF-8" standalone="no"?>
<svg width="100.58" height="76.565" version="1.1" id="svg6" sodipodi:docname="ethiopia.svg" xmlns:inkscape="http://www.inkscape.org/namespaces/inkscape" xmlns:sodipodi="http://sodipodi.sourceforge.net/DTD/sodipodi-0.dtd" xmlns="http://www.w3.org/2000/svg" xmlns:svg="http://www.w3.org/2000/svg">
  <defs id="defs10" />
  <sodipodi:namedview id="namedview8" pagecolor="#ffffff" bordercolor="#666666" borderopacity="1.0" objecttolerance="10.0" gridtolerance="10.0" guidetolerance="10.0" inkscape:pageshadow="2" inkscape:pageopacity="0.0" inkscape:pagecheckerboard="0" />
  <g style="display:inline" id="g4">
    <path style="display:inline;fill:#ef965f;fill-opacity:1;fill-rule:evenodd;stroke:#505050;stroke-width:.525892;stroke-linecap:round;stroke-linejoin:round;stroke-miterlimit:4;stroke-dasharray:none;stroke-opacity:1" class="polygon" d="M411.846 134.844h.487l2.054-.387 1.227-.698.188-.274h.337l.409.307.154.294.263.387.482.067 1.175-.28.573-.167.487.14.622.113h.389l.928.388 1.115-.127h.525l.54.167.88.621 1.144.754 1.637.541.338.22.791.86 1.228 1.649 1.606 1.578 1.751 1.247.936.863.63 1.056.62.959.63.414.586.327.606.732.433.614.592.694-.655.949-.877 1.27-1.024 1.481-.309.36-.895.897-.153.253-.175.648-.014 1.178.116 1.503.109 1.385.493.167.57.1.633-.18.761-.154.948-.093 1.05-.281.618-.227h.65l.575.24.28.22.408.074.525-.01-.111.26-.29.381-.354.38-.312.395-.691 1.105-.02.14.085.214.374.508.39.816.22.75.168.36.473.415.683.856.362.574.753.308.246.733.566 1.076.609.86.589.674.658.26h.263l1.378 1.247 1.049.948.26.153 1.894.621 2.176.715 1.747.575 2.227.73 2.194.72 2.056.69 2.89.968 2.33.78 1.835.614.393.194h6.679l-1.647 1.588-1.862 1.796-1.958 1.888-1.26 1.214-2 1.929-1.661 1.603-1.711 1.754-1.549 1.586-2.013 2.198-1.303 1.42-2.042 2.23-1.284 1.4-.194.08-1.836-.106-1.784-.1-2.28-.134h-.263l-.664.134-.402.127-1.642.374-.302.1-1.364.6-1.392.708-.732.541-.569.788-.241.561-.255.248-.434.213-2.915.535-.847.073-1.365.428-.726.712-.21.36-.977-.01-1.708.107-.732.114h-1.012l-.538-.127-.355-.194-.444-.441-.99-.887-.717-.554-1.58.634-1.42.635-2.017.9-1.149.647-.346.648-.887 1.18-.793.725-.297.087-1.796-.154-.65-.147-1.072-.133-1.436-.254-.967-.274h-1.045l-1.511-.093-.93-.2-.943-.655-1.216-.788-1.252-.81-1.289-.834-1.522-.96-1.663-1.048-.383-.107h-.164l-1.808-.067-1.878-.067h-1.269l-.4-.12-.29-.24-.393-.776-.496-.555-.55-.703-.048-.952.155-1.036.14-.34-.079-.341.02-.474-.31-.434-1.846-.501-.298.067-.308.187-.351.133-.252-.126-.153-.188-.005-.307.034-.227-.107-.127-.587-.467-.552-.615-.334-.68-.322-.554-.164-1.247-.409-.767-.399-.937-.594-1.788-.258-.615-.48-.414-.508-.387-.523-.793-1.37-.697-.527-.548-.91-.943-.227-.474-.067-.474-.284-.448-.504-.501-1.579-1.079-.435-.127-.565-.113-.829-.107-1.11-.247-.97-.421-.442-.3-.105-.208.091-.347.352-.595.668-1.406.46-.97.313-.275.857-.073h.908l.665.073.937.01 1.124-.08.443-.326.354-.354.146-.248.047-.627-.001-.508-.071-1.933-.04-1.184-.047-1.352.006-.274.006-.348.274-1.444.259-.826.175-.434.71-1.378.131-.44.027-.408-.262-1.847.456-.872.585-.863.511-.368.427-.247.2.107.489.401.643.394.3-.087.441-.34.328-.362-.046-.647.295-1.334-.054-.769.316-.955.346-1.344.154-.85.198-.454.936-.939.803-1.326.514-.968.978-1.582.495-.574.403-.247.601-.16 1.116-.141.8-.134.12-.207.067-.32.014-.707.153-1.216.348-1.188.41-.9.222-.407.264-.394.296-.668.377-1.443-.02-.977.537-1.794h.12l.914-.327.887-.067.86.227.56.067.26-.113.24-.301.222-.481.35-.267.482-.067.645.541 1.025 1.444.264.08h.163l.516-1.16.4-.898.748-1.679.427-.96.396.28.395.488.45.227.482.14h.234l.297.194 1.038 1.197z" transform="translate(-375.295 -131.713)" id="path2" />
  </g>
</svg>
