<?xml version="1.0" encoding="UTF-8" standalone="no"?>
<svg width="39.118" height="41.995" version="1.1" id="svg6" sodipodi:docname="gabon.svg" xmlns:inkscape="http://www.inkscape.org/namespaces/inkscape" xmlns:sodipodi="http://sodipodi.sourceforge.net/DTD/sodipodi-0.dtd" xmlns="http://www.w3.org/2000/svg" xmlns:svg="http://www.w3.org/2000/svg">
  <defs id="defs10" />
  <sodipodi:namedview id="namedview8" pagecolor="#ffffff" bordercolor="#666666" borderopacity="1.0" objecttolerance="10.0" gridtolerance="10.0" guidetolerance="10.0" inkscape:pageshadow="2" inkscape:pageopacity="0.0" inkscape:pagecheckerboard="0" />
  <g style="display:inline" id="g4">
    <path style="display:inline;fill:#ef5fd5;fill-opacity:1;fill-rule:evenodd;stroke:#505050;stroke-width:.525892;stroke-linecap:round;stroke-linejoin:round;stroke-miterlimit:4;stroke-dasharray:none;stroke-opacity:1" class="polygon" d="m243.934 216.783-.033.468-.529 1.144-.25.88-.06.94.147.754.255.541.165.588-.127.407-.256.174.175.207.387.066.655-.18 1.009-.314 1.322-.454.87-.24 1.434.153.766.174.393.32.423 1.348.21.207.348.574.29.688.06.347-.033.254-.292.374-.328.548-.116.334-.274.247-.349.24-.958.094-.147.147-.269.581-.505.495-.23.467-.205.621.04.772-.101 1.11-.103.75.254.261 1.145.187.223.147.304.468.39.434 1.049.274.407.334.33.367.04.3-.238 1.206-.23 1.157.09.881.086.841.125 1.225-.054.748-.296.454v.36l.136.428-.263 1.193-.17.2-.468.22-.247.321-.079.501-.253.689-.26.254v.32l.25.234-.003.36-.468.428-.283.327-.624.16-.715-.166-.167-.234.173-.367-.06-.294-.247-.308-.382-.8-.338-.168-.188.328-.582.608-1.026.78-.718.067-1.328-.24-1.113-.374-.523-.916-.328-.755-.474-.878-.534-.415-.57-.267h-.253l-.814.488-.244.194.002.407.076.38.126.188.106.247-.02.38-.147.508-.046.562-2.552.554-.442-.2-.32-.254-.386.066-1.107.287-.406-.2-.404-.147-.185.12-.014.24.189 1.326-.06.507-.25.662-.13.447.677.127.245.207.238.334.326.314.02.187-.371.348-.126.427.176.334.461.347.673.361.328.234-.034.214-.31.46-.121.388-.213.354.04.327.303.3-.033.275-.206.207-.419-.068h-.354l-.319-.086-.994-1.05h-.217l-1.443.808-.36.334-.296.474-.4 1.03-.656-.6-.567-1.098-.66-.673-1.387-1.091-.37-.802-1.588-1.77-2.281-1.768-1.648-1.535-.25-.34.278.067 1.592.765.217-.086.184-.174-.688-.4-.656-.314-.616-.2h-.616l-.346-.321-.224-.495-.114-.42-.272-.441-.875-.91-.212-.354-.478-.481.291-.066.937.46.084-.18-.08-.267-.943-.434h-.511l-.119-.307.07-.354-.674-1.327-.7-.993-.11-.467 1.888 2.158.252.066h.332l.781-.24-.148-.287-.352-.308-.342.14h-.445l-.233-.126-.104-.22.444-1.049-.192.068-.142.187-.244.086-.376.067-.93-.56-.82-1.517-.217-.307-.219-.527-.216-.22-.942-2.155.361.16.429.628.835-.133.326-.361h.285l.291-.08.368-.34 1.07-1.484.283-1.957-.092-1.163-.157-1.154.354-.367.14.24.07.408.166.3.381.274.71.074 1.095.427.39.274.106-.54 1.261-.462-.38-.167-1.121.18-1.538-.69-.51-.441-.476-.834-.495-.435.034-.394 1.104-.36.291.067.119.428.296.18.113-.067.047-.368.004-.987-.337-1.415.102-.274.303-.1.27-.187.187-.066.374.066.188.328.101.18.377.08.31.174.266-.067.221-.207.326-.067h1.916l1.815.01 1.815.011 1.815.01h1.368l-.004-.808-.006-1.248-.006-1.475-.006-1.415-.006-1.307-.006-1.546.075-.441.089-.187-.033-.254h1.406l2.543.114h1.429l1.389-.08 1.125.1.478.106.43.067 1.348.066 1.76-.087h.596l.332.214z" transform="translate(-213.005 -215.706)" id="path2" />
  </g>
</svg>
