<?xml version="1.0" encoding="UTF-8" standalone="no"?>
<svg width="20.551" height="5.602" version="1.1" id="svg6" sodipodi:docname="gambia.svg" xmlns:inkscape="http://www.inkscape.org/namespaces/inkscape" xmlns:sodipodi="http://sodipodi.sourceforge.net/DTD/sodipodi-0.dtd" xmlns="http://www.w3.org/2000/svg" xmlns:svg="http://www.w3.org/2000/svg">
  <defs id="defs10" />
  <sodipodi:namedview id="namedview8" pagecolor="#ffffff" bordercolor="#666666" borderopacity="1.0" objecttolerance="10.0" gridtolerance="10.0" guidetolerance="10.0" inkscape:pageshadow="2" inkscape:pageopacity="0.0" inkscape:pagecheckerboard="0" />
  <g style="display:inline" id="g4">
    <path style="display:inline;fill:#3ee736;fill-opacity:1;fill-rule:evenodd;stroke:#505050;stroke-width:.525892;stroke-linecap:round;stroke-linejoin:round;stroke-miterlimit:4;stroke-dasharray:none;stroke-opacity:1" class="polygon" d="m43.166 143.958-.04-.56-.37-1.287.496-.561.542-.334.364.267.11.52.28.362.956.227.946-.16.579.073-.02-.294.197-.387 1.148-.167 1.216-.114 1.248-.234.977.01.293-.065-.07-.1-.879-.114-1.872.267-1.908.08-1.445.7-.592-.065-.599-.7-.215-.865 1.694-.067h5.337l.553-.94 1.051-.414 1.077-.153.56.067.593.14 1.134.775.707.174.596.18.427.374.678.374.534.1.317-.066.528-.147.348-.114 1.133-.066.832.434.174.474-.139.488-1.118.26-1.549.408-1.281-.22-1.559-.555-.91-.394-.38-.16-.57-.254-.496-.274-.48-.174-.365-.114-.27.14-.137.335-.217.374-.278.22-1.307.134-1.172.14-.63.114-.419.086-.133 1.127h-5.44l-.373.227z" transform="translate(-42.492 -138.62)" id="path2" />
  </g>
</svg>
