<?xml version="1.0" encoding="UTF-8" standalone="no"?>
<svg width="30.129" height="43.138" version="1.1" id="svg6" sodipodi:docname="ghana.svg" xmlns:inkscape="http://www.inkscape.org/namespaces/inkscape" xmlns:sodipodi="http://sodipodi.sourceforge.net/DTD/sodipodi-0.dtd" xmlns="http://www.w3.org/2000/svg" xmlns:svg="http://www.w3.org/2000/svg">
  <defs id="defs10" />
  <sodipodi:namedview id="namedview8" pagecolor="#ffffff" bordercolor="#666666" borderopacity="1.0" objecttolerance="10.0" gridtolerance="10.0" guidetolerance="10.0" inkscape:pageshadow="2" inkscape:pageopacity="0.0" inkscape:pagecheckerboard="0" />
  <g style="display:inline" id="g4">
    <path style="display:inline;fill:#efd25f;fill-opacity:1;fill-rule:evenodd;stroke:#505050;stroke-width:.525892;stroke-linecap:round;stroke-linejoin:round;stroke-miterlimit:4;stroke-dasharray:none;stroke-opacity:1" class="polygon" d="m154.68 156.974.427.4.095.234-.155.866-.312.608-.198.567.026.288.192.28.649.448.332.287.394.44.453.428.774.561.327.1-.013.154-.106.214-.072 2.081-.06.534-.054.274-.071.778-.081.113-.148-.01h-.134l-.034.153.054.16.466.114-.101.12-.347.107-.16.234.07.267-.19.214.053.147.124.107.196-.066.545-.361.23-.066.282.073.521.548.02.267-.212.915-.207.708-.04.943.22.528-.034.287-.237.254-.539.36.04.247.246.461.454.515.888.64.468.834.013.34-.274.341-.319.294-.104.428.144 2.789-.702 1.211-.006.347.07.401.185.24.36.068.292.234-.102.849-.155.867-.027.421-.087.2-.276.16-.1.275.069.334-.054.247.15.32.32.401.514 1 .197.08.088.207-.054.207.199.441.57.44.6.388.487.068.115.347.318.44.231.195.37.126.302.068.014.374-.545.254-.37.38-.282.588-.39.641-1.341.334h-3.268l-2.58 1.263-1.484.448-.913.712-1.23.508-.856.614-1.78.294-2.922.967-.914.38-.924.671-1.503.788h-.59l-1.177-.734-.885-.368-2.165-.561-1.616-.22-.781-.24-.215-.068.183-.267h.451l.473.08.358-.2h.528l.137-.215.04-.534-.006-.427.185-.194.047-.508-.259-1.12-.183-.126-.942-.16-.07-.22-.17-.235-.181-.574-.207-.859-.33-1.064-.634-1.754-.156-.622-.11-.634-.026-.755.132-.28-.02-.388-.06-.387.447-.894.876-1.093.184-.394.163-.274.026-.394.155-1.275.42-1.54.262-.58.18-.315.213-.514.054-.24.807-.602.371-.16.083-.24-.127-.26.053-.181.194-.087.297-.073.216-.247-.34-1.9-.275-1.892-.013-.16-.164-.26-.162-.782-.272-.454-.381-.134.001-.434.384-.728.1-.428-.184-.127-.027-.333.131-.535-.067-.334-.069-.354-.4-.829-.097-.588.205-.34-.006-.752-.217-1.158-.033-.731.147-.308-.071-.287-.289-.274-.02-.267.246-.26-.027-.207-.307-.147-.275-.354-.244-.562.054-.905.46-1.667.06-.14.52.01.002.074h7.695l.088-.074.332-.093 2.032.167 1.27-.086.539.066.393.113.878-.073.469.067.353.414h.143l.197-.173.35-.2.357-.161.255-.327.155-.247.232.067h.333l.222-.207.087-.32z" transform="translate(-133.203 -156.444)" id="path2" />
  </g>
</svg>
