<?xml version="1.0" encoding="UTF-8" standalone="no"?>
<svg width="49.77" height="36.935" version="1.1" id="svg6" sodipodi:docname="guinea.svg" xmlns:inkscape="http://www.inkscape.org/namespaces/inkscape" xmlns:sodipodi="http://sodipodi.sourceforge.net/DTD/sodipodi-0.dtd" xmlns="http://www.w3.org/2000/svg" xmlns:svg="http://www.w3.org/2000/svg">
  <defs id="defs10" />
  <sodipodi:namedview id="namedview8" pagecolor="#ffffff" bordercolor="#666666" borderopacity="1.0" objecttolerance="10.0" gridtolerance="10.0" guidetolerance="10.0" inkscape:pageshadow="2" inkscape:pageopacity="0.0" inkscape:pagecheckerboard="0" />
  <g style="display:inline" id="g4">
    <path style="display:inline;fill:#a9e736;fill-opacity:1;fill-rule:evenodd;stroke:#505050;stroke-width:.525892;stroke-linecap:round;stroke-linejoin:round;stroke-miterlimit:4;stroke-dasharray:none;stroke-opacity:1" class="polygon" d="m79.062 148.365-.192.18-.197.388-.18.48-.185.321.067.214.52.42.731.595.297.074.341-.14.537-.468.424-.508.41-.247h.475l.381.354.466.786.424.714.053.074.172.12h.213l.224-.173.165-.107.197-.328.827-.99.622-.275.22-.073.433-.147.72.234 1.045.407 1.269.494.446.08.262-.08.377-.672.471-.26.674-.308.547-.16h.313l.12-.18.06-.275-.06-.28-.353-.508-.013-.147.201-.1.436-.073.564.066.635.22.517.321.295.374.321.804.247.782.639 1.242-.013.771-.014.895.283.166.311.074.145.134.31.686.293.2.35.068.655.44.423.175.06.133-.014.18-.164.234-.255.16-.38.301-.313.394-.646.943-.02.174.137.126h.267l.286-.066.593-.347.469.127.448.26.165.274.04.36-.102.462-.014.514.151.882.233.879.235.32 1.498.776.144.287.075.327-.108.448-.153.247-.43.387-.392.301-.124.327.06.608-.001 1.382.06 1.196.323.435.385.22.456-.066.444-.08-.026.716-.121.803.526.247.264.247.146.227-.83.428-.24.247-.113.67.027.621 1.115.44.43.522.192.534.067 1.016-.1.234h-.286l-.324-.314-.242-.307h-.301l-.564-.067-.641-.12h-.793l-.282.066-.18.187-.047.32-.08 1.03.26.228.511.254.335.107.28-.068.212.167.047.441-.146.328-.281.3-.354.78.06.294.013.42-.604 1.14-.173.226-.801-.227-.522-.073-.378.287-.239-.18-.281-.268-.097-.347-.19-.074h-.35l-.324.194-.142.36-.02.415-.054.32-.193.194-.392.501-.185.461-.227.4h-.326l-.151-.066-.105.107-.506.22-.435.067-.115-.234-.254-.187-.283-.367-.321-.294-.614-.207-.243.094h-.29l-.192-.114.026-.18.323-.448.184-.414.1-.454-.001-.428-.172-.608-.277-.48-.067-.28.033-.395-.067-.367-.09-.194-.046-.368-.087-.333-.163-.127-.091-.562.026-.574-.238-.22-.376-.16-.221-.228-.137-.247-.135-.074h-.116l-.105.154h-.125l-.218-.541h-.092l-.152.127-1.734.594-.076-.233-.146-.274-.333-.094-.572.207h-.335l-.514-.067-.23.1-.68.794-.41.307h-.31l-.324-.073-.23.067-.167-.094.067-.193.165-.24.327-.865.837-.871.02-.18-.341-.508-.36-.693-.002-.743-.068-.535-.74-.146-.135-.094-.02-.18.191-.481.225-.448.033-.187-.053-.167-.455-.474-.71-.876-.656-.97-.564-.833-.456-.38-.435-.548-.166-.348-.454-.127-1.325.011-1.59.01-1.343.011-.078.468-1.467.314-.904-.361-1.004.214-.49.24-.154.501-.223.548-.214.227-.092.247-.125.227-.197.26-.219.522-.477.738-.503.475-.853.26-.265.778-.197.287-.33.227-.35.147-.324-.087-.374-.067-.39.14-.067-.193.222-.615-.176-.32-.67-.641-.066-.308-.205-.4-.882-.823-.822.068.228-.69-.013-.918-.28-.5.072-.515h-.153l-.274.354-.444-.113-.898-.548-.45-.528-.053-.447-.1-.174-.276.094-.562-.011-1.714-.8-1.22-2.013-.026-.455.175-.782-.04-.214-.56.521-.107-.347-.428-.808-.124-.468-.41-.207h-.33l-.254.154-.336.945-.25-.01-.259-.2.054-.706.294-.347.364-.534 1.103-2.227.394-.508.25-.18h.522l1.018-.3.832-.495.416-.2.957.067 1.13-.087 1.472-.475.027-.654-.014-.84-.046-.334-.523-.3-.305-.261-.263-.334-.318-.234.013-.247.4-.214.253-.107h.6l.198-.126.148-.214.17-.541.06-.568-.394-.764.02-.54 2.16.08.223.067.965.093h.598l.372.066.154.127-.033.227-.103.3.124.308.33.08.176-.094.167-.154.2-.12.283.08.607.454.563.127.616.247.579.134h.513l.39.254.72.08.93-.328.732-.14h1.028l.537.107 1.566-.26.781.066z" transform="translate(-54.325 -146.307)" id="path2" />
  </g>
</svg>
