<?xml version="1.0" encoding="UTF-8" standalone="no"?>
<svg width="20.822" height="12.166" version="1.1" id="svg6" sodipodi:docname="guinea_bissau.svg" xmlns:inkscape="http://www.inkscape.org/namespaces/inkscape" xmlns:sodipodi="http://sodipodi.sourceforge.net/DTD/sodipodi-0.dtd" xmlns="http://www.w3.org/2000/svg" xmlns:svg="http://www.w3.org/2000/svg">
  <defs id="defs10" />
  <sodipodi:namedview id="namedview8" pagecolor="#ffffff" bordercolor="#666666" borderopacity="1.0" objecttolerance="10.0" gridtolerance="10.0" guidetolerance="10.0" inkscape:pageshadow="2" inkscape:pageopacity="0.0" inkscape:pagecheckerboard="0" />
  <g style="display:inline" id="g4">
    <path style="display:inline;fill:#e7ca36;fill-opacity:1;fill-rule:nonzero;stroke:#505050;stroke-width:.525892;stroke-linecap:round;stroke-linejoin:round;stroke-miterlimit:4;stroke-dasharray:none;stroke-opacity:1" class="polygon" d="m48.96 157.195-.06.187h-.393l.09-.187-.086-.067.113-.561.06-.087.191.213.027.088zm-1.46.154-.534.1-.244-.334-.033-.127.279-.114h.125l.213-.24.262-.16.116-.068h.134l.097.535-.13.227zm2.6-1.043v.274l-.282-.067-.082-.08.168-.494.248-.22h.305l.09.067-.06.193-.132.16zm-1.18-1.672-.312.208-.324-.1-.174-.188.027-.333.366-.475.328.068zm2.328-.474-.06.154-.38-.134.555-.56.362-.1-.014.433-.279.094zm-2.892-2.305-.347.818-.428-.094-.3-.488-.034-.207.873-.067zm15.449-3.984-.06.568-.17.541-.149.214-.198.127h-.6l-.253.107-.4.213-.013.248.318.233.263.334.305.26.523.301.046.334.014.84-.027.655-1.473.475-1.129.087-.957-.067-.416.2-.832.494-1.018.3h-.522l-.25.181-.394.508-1.103 2.226-.364.535-.294.347-.339-.474.262-.875h-.282l-.563.707h-.275l.034-.837h-.312l-.362.067-.505-.434-.046-.327.04-.454.308-.294-.04-.12h-.298l-.332.08-.204-.14.337-.595 1.179-.495.593-.067.608-.114-.332-.427-.721-.167-.577.12-.287.307-.356.068-.594-.726.014-.367.22-.434.345-.194 1.368.01.52-.24.209-.067.198-.22-.04-.148-.222-.01-.512.287-1.648-.107-.525.174-.917.661-1.127.368-.817-.154.26-.89-.116-.12-.258-.146-1.2.28-.908-.407-.36-.488.061-.614.428-.415.068-.207-.452-.066-.832.26-1.836-1.006.366-.066.906.107.701-.127.495-.214.673-.294.65-.094 2.035.127 1.768-.354 1.315-.66 1.215-.609h1.573l1.686.01h6.538l-.02.542z" transform="translate(-43.246 -146.228)" id="path2" />
  </g>
</svg>
