<?xml version="1.0" encoding="UTF-8" standalone="no"?>
<svg width="41.254" height="42.977" version="1.1" id="svg6" sodipodi:docname="ivory_coast.svg" xmlns:inkscape="http://www.inkscape.org/namespaces/inkscape" xmlns:sodipodi="http://sodipodi.sourceforge.net/DTD/sodipodi-0.dtd" xmlns="http://www.w3.org/2000/svg" xmlns:svg="http://www.w3.org/2000/svg">
  <defs id="defs10" />
  <sodipodi:namedview id="namedview8" pagecolor="#ffffff" bordercolor="#666666" borderopacity="1.0" objecttolerance="10.0" gridtolerance="10.0" guidetolerance="10.0" inkscape:pageshadow="2" inkscape:pageopacity="0.0" inkscape:pagecheckerboard="0" />
  <g style="display:inline" id="g4">
    <path style="display:inline;fill:#3ae736;fill-opacity:1;fill-rule:nonzero;stroke:#505050;stroke-width:.525892;stroke-linecap:round;stroke-linejoin:round;stroke-miterlimit:4;stroke-dasharray:none;stroke-opacity:1" class="polygon" d="m134.52 196.966-.182.268-.884-.167.21-.22zm-21-36.532-.06.26.147.549.181.507-.013.207-.15.314-.176.287.02.12.278.194.532.2.552.067.306-.294.321-.24.221-.214.076-.32.35-.234.998-.294.92-.067.221.094.416.44.528.308.802-.066.58.18.504.34.338.758.369.547.161.778.582.407.457.187.619.568.64.287.663-.067.31.294.494.207h.495l.434-.655.574-.254 1.454-.52.573-.234.581-.147 1.4-.068 1.301.16.646.121.442-.087.42.307.433.648.355.207.363.227.268.514.316.508.171.227.39.501.336.01.33-.213.142-.16.067.333-.131.535.026.334.185.127-.1.427-.385.728v.428l.38.133.272.455.162.781.164.26.013.161.275 1.892.34 1.9-.216.246-.297.074-.194.086-.053.18.127.261-.083.24-.371.161-.808.601-.053.24-.214.515-.179.314-.264.581-.419 1.54-.155 1.275-.026.394-.163.274-.184.394-.876 1.093-.447.893.06.388.02.387-.132.28.027.756.109.634.156.621.634 1.754.33 1.065.207.858.18.575.17.234.071.22.943.16.183.127.259 1.12-.047.508-.185.193.006.428-.047.534-.137.214h-.528l-.358.2-.472-.08-.047-.133-.255-.068-.7-.3.116-.97-.324-.067-.25.127-.498 1.166-.238.2-3.493-.6-.76-.482-.907-.113-1.584.067-1.306.147-.375.294 3.298-.174h.354l.167.18-4.17.388-1.592.227-.47-.067-.358-.374-1.728-.067-.354.12-.215.274.68-.068h1.074l.288.214-3.359.274-2.331.528-.989.387-3.25 1.277-1.983.6-.519.221-.902.628-1.158.394-1.3.734-.795.167-.178-.233-.02-1.242-.11-1.665.04-.634.105-.602.003-.494.395-.187.104-.207.06-.648.37-.588.006-1.024.11-.213.084-.274-.159-.674-.205-1.269-.1-.08-.09.068h-.208l-.816-.441-.629-.074-.442-.374-.027-.427-.216-.247-.149-.495-.22-.567-.622-.341-.584-.08-.414.074h-.487l-.556-.188-.386-.213-.364-.414-.338-.328-.27.068-.328-.08-.323-.154-.105-.113 1.352-1.318.458-.642.047-.394.004-.4.148-.408.04-.621-.749-2.257-.19-.698-.2-.207-.128-.08.377-.287.522.073.8.227.174-.227.604-1.139-.013-.42-.06-.294.354-.78.281-.3.146-.328-.046-.44-.213-.168h-.28l-.335-.107-.511-.253-.26-.227.08-1.03.046-.321.18-.187.283-.067h.792l.641.12.564.067h.302l.242.307.323.314h.287l.1-.234-.068-1.016-.19-.541-.431-.521-1.116-.441-.026-.621.112-.67.241-.247.83-.428-.146-.227-.265-.247-.526-.247.121-.803.027-.716-.444.08-.456.067-.386-.22-.322-.435-.06-1.196v-1.382l-.06-.608.124-.327.393-.3.43-.388.153-.247h.198l.514-.147.467-.34.434-.707.588-.568.66.068.197-.107h.233l.276.374.279.287.198.01.146.542 1.208.227.517.147.435.394.152.01.184-.08.143-.14.026-.147-.186-.354.082-.32.195-.288h.31l.47-.08h.537l.4.066.16-.288-.152-.8.04-.44.067-.375.148-.153.599.467.548.167h.392l.11-.086-.168-.508.046-.153.145-.088.257-.067.698-.207.073.067z" transform="translate(-97.409 -159.28)" id="path2" />
  </g>
</svg>
