<?xml version="1.0" encoding="UTF-8" standalone="no"?>
<svg width="53.856" height="68.538" version="1.1" id="svg6" sodipodi:docname="kenya.svg" xmlns:inkscape="http://www.inkscape.org/namespaces/inkscape" xmlns:sodipodi="http://sodipodi.sourceforge.net/DTD/sodipodi-0.dtd" xmlns="http://www.w3.org/2000/svg" xmlns:svg="http://www.w3.org/2000/svg">
  <defs id="defs10" />
  <sodipodi:namedview id="namedview8" pagecolor="#ffffff" bordercolor="#666666" borderopacity="1.0" objecttolerance="10.0" gridtolerance="10.0" guidetolerance="10.0" inkscape:pageshadow="2" inkscape:pageopacity="0.0" inkscape:pagecheckerboard="0" />
  <g style="display:inline" id="g4">
    <path style="display:inline;fill:#9cef5f;fill-opacity:1;fill-rule:nonzero;stroke:#505050;stroke-width:.525892;stroke-linecap:round;stroke-linejoin:round;stroke-miterlimit:4;stroke-dasharray:none;stroke-opacity:1" class="polygon" d="m428.966 245.639-.248.066.127-.387.732-.488.298.107.06.114-.013.1-.125.1zm-38.12-50.38.252.126.351-.133.308-.187.298-.068 1.846.501.31.435-.02.474.079.34-.14.341-.155 1.035.047.952.551.704.496.555.393.775.29.24.4.12 1.269.068 1.878.066 1.807.067h.165l.383.107 1.663 1.048 1.522.96 1.29.834 1.251.81 1.216.788.943.655.93.2 1.511.094 1.045.067.967.274 1.436.254 1.073.133.649.147 1.796.154.297-.088.792-.725.888-1.178.346-.648 1.149-.648 2.016-.9 1.421-.635 1.58-.635.717.555.99.887.444.435.355.193.538.127h1.012l.731-.113 1.709-.107.977.01-.822 1.177-.985 1.41-1.815 2.597-1.381 1.366-1.044 1.034-.095.187.004 1.15.013 2.815.02 5.63.02 5.629.02 5.629.014 2.815.003.945.916 1.184.895 1.156 1.183 1.53.634.82.105.273-.034.548-.974 1.147-.797.52-1.073.248-.322-.066-.422-.167-.165.274-.125.427-.237-.093-.18-.127.107.76.11.375-.16.507-.522.441-.047.374-1.129.983-1.6.107-.842.487-.375.401-.285.873.1 1.337-.445 1.03-.085.514-.827.669-.366.614-.27.621-.237.274-.279 1.397-.385.85-.104.28-.095.254-.299.5-.193.342-.14.227-.976 2.174-.761.982-.597-.113-.397.38-.04.181-.211-.1-.5-.36-1.025-.739-1.025-.739-1.026-.738-1.025-.738-1.026-.738-1.025-.738-1.025-.739-1.026-.738-.6-.434-.267-.254-.208-.507-.101-.127-.273-.16h-.322l-.092-.094.003-.247.111-.354.377-.678.04-.401-.074-.454-.118-.724-.102-.167-.68-.381-1.424-.795-1.424-.795-1.424-.795-1.424-.795-1.423-.795-1.425-.794-1.423-.795-1.424-.795-1.423-.795-1.425-.795-1.423-.795-1.424-.795-1.424-.795-1.424-.795-1.424-.794-1.423-.796-.535-.3-.482-.254h-.51l-.02-1.138.164-2.898-.02-2.544.144-1.274.628-.806.29-.588.208-.82.329-.668.745-.54.134-.301.79-.91.473-1.167.358-.394.445-.367.315-.194.519-.194.406-.107.073-.093.034-.187-.135-.724.173-.234.277-.48.316-.448.287-.287.16-.294.075-.508.013-.36-.004-.588-.09-1.34-.334-1.12-.207-1.254.152-.414-.264-.735-.13-.066-.215-.16-.274-.693-.207-.635-.128-.16-.896-.555-.445-1.304-.499-.287-.271-1.296-.054-.367.284-1.293-.027-.294-.3-.274-.84-.28-.681-.535.088-.187.047-.194-.359-.127-1.042-2.21 1.342-1.329 1.358-1.347 1.734-1.702 1.593-1.563 1.377-1.352 1.228-1.205-.033.228.005.307z" transform="translate(-381.315 -194.329)" id="path2" />
  </g>
</svg>
