<?xml version="1.0" encoding="UTF-8" standalone="no"?>
<svg width="27.964" height="28.46" version="1.1" id="svg6" sodipodi:docname="liberia.svg" xmlns:inkscape="http://www.inkscape.org/namespaces/inkscape" xmlns:sodipodi="http://sodipodi.sourceforge.net/DTD/sodipodi-0.dtd" xmlns="http://www.w3.org/2000/svg" xmlns:svg="http://www.w3.org/2000/svg">
  <defs id="defs10" />
  <sodipodi:namedview id="namedview8" pagecolor="#ffffff" bordercolor="#666666" borderopacity="1.0" objecttolerance="10.0" gridtolerance="10.0" guidetolerance="10.0" inkscape:pageshadow="2" inkscape:pageopacity="0.0" inkscape:pagecheckerboard="0" />
  <g style="display:inline" id="g4">
    <path style="display:inline;fill:#36a7e7;fill-opacity:1;fill-rule:evenodd;stroke:#505050;stroke-width:.525892;stroke-linecap:round;stroke-linejoin:round;stroke-miterlimit:4;stroke-dasharray:none;stroke-opacity:1" class="polygon" d="m98.453 180.734.127.08.201.207.19.698.749 2.257-.04.62-.148.408-.004.401-.047.394-.458.641-1.352 1.318.105.114.322.154.33.08.269-.068.338.327.363.415.386.213.557.187h.487l.415-.073.583.08.62.34.222.568.149.494.216.248.026.427.442.374.63.074.816.44h.208l.09-.067.1.08.205 1.27.159.673-.085.273-.11.214-.006 1.024-.37.588-.06.648-.104.207-.395.187-.003.494-.105.601-.04.635.11 1.665.02 1.241.178.234-.768-.1-2.26-.948-1.741-.54-5.833-3.104-1.62-1.245-1.869-1.855-4.154-3.733-.947-.602-1.195-.293-.739-.321-.52-.347-.424-1.035-1.039-.615-1.917-.874-1.443-1.458.354-.3.52-.96.729-.92.678-.548.54-.561.568-.428.816-.5 1.248-1.324.292-.154.2-.916.312-1.167.361-.36.85-.214.198-.2.302-.822.193-.956.014-.207h.335l.572-.207.333.093.147.274.076.234 1.734-.595.152-.126h.092l.218.54h.125l.105-.153h.115l.136.074.136.254.22.227.377.16.238.22-.027.575.092.56.163.128.087.334.047.367.09.194.066.367-.033.394.067.28.276.482.173.608v.427l-.1.454-.183.414-.323.448-.026.18.191.114h.29l.243-.094.615.207.321.294.283.368.254.187.114.233.436-.067.506-.22.105-.107.15.066h.326l.228-.4.185-.462.392-.5.193-.194.054-.32.02-.415.14-.36.325-.194h.35l.19.073.097.348.281.26z" transform="translate(-78.007 -173.922)" id="path2" />
  </g>
</svg>
