<?xml version="1.0" encoding="UTF-8" standalone="no"?>
<svg width="106.33" height="91.869" version="1.1" id="svg6" sodipodi:docname="libya.svg" xmlns:inkscape="http://www.inkscape.org/namespaces/inkscape" xmlns:sodipodi="http://sodipodi.sourceforge.net/DTD/sodipodi-0.dtd" xmlns="http://www.w3.org/2000/svg" xmlns:svg="http://www.w3.org/2000/svg">
  <defs id="defs10" />
  <sodipodi:namedview id="namedview8" pagecolor="#ffffff" bordercolor="#666666" borderopacity="1.0" objecttolerance="10.0" gridtolerance="10.0" guidetolerance="10.0" inkscape:pageshadow="2" inkscape:pageopacity="0.0" inkscape:pagecheckerboard="0" />
  <g style="display:inline" id="g4">
    <path style="display:inline;fill:#36e789;fill-opacity:1;fill-rule:evenodd;stroke:#505050;stroke-width:.525892;stroke-linecap:round;stroke-linejoin:round;stroke-miterlimit:4;stroke-dasharray:none;stroke-opacity:1" class="polygon" d="m323.134 19.78-.257.186-.366.4-.231.355-.62.581-.515.621.047.906.117.921.348.9.296 1.002-.083.654-.257.805-.304.672-1.009 1.382-.155.327.054.467.615 1.64.047.515.368 1.593.335 1.296.371 1.018.06.28V87.63l-.001 3.328-.001 3.329-.001 3.329h-1.728l-1.648-.002h-1.648l-1.648-.001v3.335l-3.2-1.581-3.2-1.58-3.2-1.58-3.2-1.58-3.2-1.58-3.2-1.581-3.2-1.58-3.2-1.58-3.2-1.58-3.2-1.581-3.2-1.58-3.2-1.58-3.2-1.58-3.2-1.58-3.2-1.58-3.2-1.581-2.211-1.092-2.385 1.066-1.868.835-2.46 1.1-.002-.002L252.367 79l-2.17 1.096h-.201l-2.257-1.86-1.764-1.452-.784-.407-3.324-.742-3.305-.738-3.48-.776-.633-1.182-.708-1.32-.954-1.651-.583-1.01-.196-.154-2.668-.799-2.819-.784-1.65.474h-.289l-.468-.3-.467-.408-.248-.568-.662-.761-.61-1.742-.061-1.386-.123-.494-1.467-1.951-1.334-1.777-.889-1.182-.173-.534.104-.655.357-.588 1.293-.698 1.165-.76.159-.527.075-1.45-.383-.454-.279-.862-.286-1.166-.033-.745.519-1.483.605-1.555-.386-1.72-.284-3.453.18-2.717-.147-.988-.103-.414-.396-1.282-.49-1.324-.216-.46-.628-1.066-1.037-1.32-.54-.813.74-.427.653-.334.797-.354 1.132-.4.585-.301.25-.254.85-1.034.442-.574.604-.783.266-.548.006-.507-.092-.608-.472-1.462-.386-1.422.3-.547.241-.261.525-.668.21-.134 1.134-.207.454-.447.347-.555.09-.293.494-.308.592-.307.366-.394 1.194-.615 1.09-.56 1.267-.592.982-.457.207-.4-.013-.344-.534-.785v-.93l.033-.772.054-.457.235-1.268.013-.177 1.02.421 1.043.169 3.116 1.57.983.197 2.18.187 2.57-.644.97-.115 1.69.604.744.17 1.253.046 2.14.548.544.19 1.247.875.598.262 4.43.8.603.532.616 1.015.026 1.26.34.914.55 1.185.665.84.735.7.844.434 1.942.64 2.19.248 2.209.087 3.792.89 3.214 1.028.794.507 1.61.501 3.203 2.416 1.78.837 1.252.16 1.122-.147 1.991-.84.825-.5 2.003-2.087.657-1.09.263-.766-.066-.78-.25-.703-.56-.735-.392-.97-.233-1.748.314-1.213.384-.726.605-.741 1.664-1.416 1.673-.998 2.947-1.305 1.713-.014.708-.143 1.41-.923.572-.033.789.226 2.324-.067 1.023.256 1.221.574 1.541.357 1.088.356 1.16.457.261 1.14-.128.339-.027.44 1.203.786 3.416.367.673.207.938.602.606.187 2.339.087 1.363-.127 1.3.213.483.207.496.468.601 1.143z" transform="translate(-217.067 -9.342)" id="path2" />
  </g>
</svg>
