<?xml version="1.0" encoding="UTF-8" standalone="no"?>
<svg width="110.862" height="99.8" version="1.1" id="svg6" sodipodi:docname="mali.svg" xmlns:inkscape="http://www.inkscape.org/namespaces/inkscape" xmlns:sodipodi="http://sodipodi.sourceforge.net/DTD/sodipodi-0.dtd" xmlns="http://www.w3.org/2000/svg" xmlns:svg="http://www.w3.org/2000/svg">
  <defs id="defs10" />
  <sodipodi:namedview id="namedview8" pagecolor="#ffffff" bordercolor="#666666" borderopacity="1.0" objecttolerance="10.0" gridtolerance="10.0" guidetolerance="10.0" inkscape:pageshadow="2" inkscape:pageopacity="0.0" inkscape:pagecheckerboard="0" />
  <g style="display:inline" id="g4">
    <path style="display:inline;fill:#4136e7;fill-opacity:1;fill-rule:evenodd;stroke:#505050;stroke-width:.525892;stroke-linecap:round;stroke-linejoin:round;stroke-miterlimit:4;stroke-dasharray:none;stroke-opacity:1" class="polygon" d="m183.378 103.356.004 1.167.005 1.761.006 1.962.005 1.811.006 2.064.005 1.659.006 1.962.006 1.95-.212.227-.078 1.099-.06 1.446-.407 1.496-.71 1.103-.26 1.05-.194.6-.265.328-.06.394-.14.555-.228.36-.177.187-.714.214-1.263 1.06-.108.846-1.438-.234-1.53-.24h-.205l-.126.113-.067.448-2.08.073-1.796.067-2.222.073-1.528.067-1.939.1-1.796.094-1.195.976-1.077.93h-.084l-1.529.18-1.908-.16-.98-.006-.384.107-.075.347-1.404-.487-1.624-.501-1.133.314-.18-.107-.148-.207-.547-.12-.868.066-.628.147-.985.737-.743.641-.203.147-1.038.388-1.929.905-1.093.661-.252.12-.485.154h-.749l-.623.167-.562 1.75-.374.173-2.298-.706-.466.107-.399.207-1.283 1.028-.636.821-.346 1.096.046.334.006.38-.225.208-.31.073h-.276l-1.067-.227-.336.093-.143.541.02 1.18-.234.802-.634.247-.49.314-.385.093-.321-.08-1.855-1.197-.627-.194-.694.134-.667.507-.302.334-.418.394-.467.521.123.448.332.514.236.642-.013.574-1.694.812.139.28.253.327.002.588-.047 1.039-.342.374-.442.367-.273.475-.27.233-.481.294-.659.294-1.142.26-.915.174-.344.167-.486.348-.388.414-.092.447.076.515.135.42.17.288.104.36-.14.98-.33 1.135-.319.507-.513.28-.443.308.147.743.077 1.067-.125.851-.02.528-.187.548-.11.38-.221-.093-.92.067-.999.294-.35.234-.075.32-.221.214-.321.24-.307.294-.551-.066-.533-.2-.277-.194-.02-.12.176-.287.15-.314.013-.207-.181-.508-.147-.548.06-.26-.131-.805-.073-.066-.698.207-.257.067-.145.087-.047.153.168.508-.11.087h-.392l-.547-.167-.599-.467-.148.153-.067.374-.04.441.151.8-.16.288-.4-.068-.537.001-.469.08h-.31l-.196.287-.082.321.187.354-.027.154-.142.14-.185.08-.151-.01-.435-.395-.517-.147-1.208-.227-.146-.54-.199-.011-.28-.287-.276-.375h-.23l-.196.107-.661-.066-.587.568-.435.706-.467.34-.514.147-.198.011.108-.448-.075-.327-.144-.287-1.497-.776-.236-.32-.233-.88-.15-.88.013-.515.102-.46-.04-.361-.165-.274-.448-.26-.47-.128-.592.348-.286.067h-.267l-.137-.127.02-.173.646-.944.314-.394.379-.3.255-.16.164-.234.014-.18-.06-.134-.423-.174-.655-.44-.35-.068-.292-.2-.311-.687-.145-.133-.311-.074-.283-.167.014-.894.013-.771-.638-1.242-.248-.783-.32-.803-.295-.38-.517-.322-.636-.22-.564-.067-.436.073-.201.1.013.147.353.508.06.28-.06.274-.12.18H92.3l-.547.16-.674.308-.471.26-.377.673-.263.087-.445-.087-1.269-.495-1.045-.407-.72-.234-.434.147-.22.074-.621.274-.827.99-.197.328-.165.107-.224.174h-.213l-.172-.12-.053-.074-.424-.715-.466-.785-.38-.354h-.477l-.41.247-.423.507-.537.468-.34.14-.298-.073-.731-.595-.52-.42-.066-.214.184-.321.18-.481.197-.387.192-.18.047-.502-.444-.354-.013-.173.04-.468.198-.988-.02-.374.181-.735-.29-.334-.068-.247-.326-.395-.374-.554-.086-.448-.132-.354-.358-.534-.263-.08-.56-.08-.094.18-.208.268-.19.073-.307-.327-.116-.28.004-.254-.418-.448-.648-.816.067-.673.4-.361.12-.274.033-.307-.182-.368-.213-.293.06-.648-.054-.9-.328-.454-.298-.328-.416-.354-.355-.547.144-.752.136-.514-.629-1.075 1.175.428.155-.14.4-.261.54-.548.454-.723.205-.897.09-.771.202-.655.256-.554.563-.581.529-.408.628-.427.317.073.598.595 1.312 1.19 1.081.906.395.481.352.004.538-.876.555-.756.236-.187.735-.08h1.167l1 .146.457.134.429.08 1.256.067 1.245-.187 1.184-.24.874-.14.047-.361-.047-.421.141-.32.275-.301.233-.067.1 1.013.28.154.78.066h24.476l.38-1.959.348-1.793.291-1.503-1-1.063-.795-.845-.184-1.61-.19-1.66-.19-1.662-.19-1.661-.19-1.66-.191-1.662-.19-1.661-.191-1.66-.19-1.662-.19-1.66-.19-1.662-.19-1.66-.191-1.661-.19-1.662-.19-1.66-.191-1.661-.19-1.662-.19-1.66-.19-1.661-.191-1.662-.19-1.66-.19-1.661-.191-1.662-.19-1.66-.19-1.661-.19-1.661-.191-1.661-.19-1.661-.19-1.662-.191-1.66-.19-1.661-.19-1.662-.19-1.66-.178-1.522h2.05l2.186-.002h2.132l3.125-.002h2.34l2.041 1.276 1.848 1.209 2.188 1.43 2.187 1.43 2.187 1.43 2.188 1.43 2.187 1.43 2.188 1.43 2.188 1.43 2.187 1.431 2.187 1.43 2.188 1.43 2.187 1.43 2.187 1.43 2.188 1.43 2.187 1.43 2.188 1.43 2.187 1.432.976.64.092.268.09.541-.06.608.014.494.288.334.544.361 2.14 1.055.17.207.075.435.255.54.453.315.529.233.644.16 1.94.168.411.253.837.978.455.194 1.293.28.936.16.386.094.847.261.92.44.49.408-.002.127-.004.348-.006 1.054.17.581.192.421-.006.254-.232.18-.182.22-.1.295-.264.374-.212.414.091.314.364.2.546.401.45.167h.518l.253-.067 1.635-.307 1.514-.28z" transform="translate(-72.821 -63.87)" id="path2" />
  </g>
</svg>
