<?xml version="1.0" encoding="UTF-8" standalone="no"?>
<svg width="82.287" height="84.377" version="1.1" id="svg6" sodipodi:docname="mauritania.svg" xmlns:inkscape="http://www.inkscape.org/namespaces/inkscape" xmlns:sodipodi="http://sodipodi.sourceforge.net/DTD/sodipodi-0.dtd" xmlns="http://www.w3.org/2000/svg" xmlns:svg="http://www.w3.org/2000/svg">
  <defs id="defs10" />
  <sodipodi:namedview id="namedview8" pagecolor="#ffffff" bordercolor="#666666" borderopacity="1.0" objecttolerance="10.0" gridtolerance="10.0" guidetolerance="10.0" inkscape:pageshadow="2" inkscape:pageopacity="0.0" inkscape:pagecheckerboard="0" />
  <g style="display:inline" id="g4">
    <path style="display:inline;fill:#3661e7;fill-opacity:1;fill-rule:nonzero;stroke:#505050;stroke-width:.525892;stroke-linecap:round;stroke-linejoin:round;stroke-miterlimit:4;stroke-dasharray:none;stroke-opacity:1" class="polygon" d="m45.771 99.59-.429.648-.19-.247-.073-.427.38-.615.18-.314.33-.113zm68.163-10.547.19 1.66.19 1.661.19 1.662.19 1.66.19 1.661.191 1.662.19 1.66.19 1.661.191 1.662.19 1.66.19 1.661.19 1.662.191 1.66.19 1.661.19 1.662.191 1.66.19 1.661.19 1.662.185 1.609.795.845 1 1.064-.292 1.502-.348 1.793-.38 1.958h-12.31l-1.362.002H93.842l-.781-.067-.28-.154-.1-1.013-.233.067-.275.3-.14.32.046.422-.047.354-.874.14-1.184.24-1.245.188-1.256-.067-.43-.08-.456-.134-1-.147H84.42l-.735.08-.236.187-.555.756-.538.877-.351-.004-.396-.48-1.081-.907-1.311-1.19-.599-.594-.317-.074-.628.428-.53.407-.562.582-.256.554-.202.655-.09.77-.205.897-.455.723-.539.548-.4.26-.155.14-1.175-.427-.146-.067-.71-.48-.342-.575-.559-.428-.775-.287-.505-.327-.234-.367-.287-.248-.302-.127-.027-.133.071-.18-.072-.341-.455-.752-.424-.348-.362.067-.206-.093-.124-.167-.047-.247-.248-.207-.428-.094-.345-.554-.26-1.025-.338-.8-.414-.574-.297-.214-.22-.067-.075-.086-.06-.167-.324-.067-.454.174-.408-.067-.202-.28h-.279l-.355.226-.392-.067-.429-.367-.237-.36-.047-.361-.739-.72-1.432-1.078-1.56-.508-1.69.067-.949-.067-.206-.166h-.208l-.209.193-.222.067-.236-.107-.148.08-.06.274-.595.14-1.132.005-.913.167-.695.334-.985.146-1.274-.066-.769-.12-.262-.201-.368-.067-.472.107-.423.534-.373.964-.309.547-.245.134-.26.717-.148 1.201-.222.528-.003-2.996.363-1.118.119-.984.78-2.17.93-1.778.86-2.36.324-2.285-.11-2.239-.255-1.99-.434-1.316-.421-1.905-.62-1.005-1.137-.877-.256-.514.264-.194.692-.133.44-.684-.932.26 1.079-2.097.335-1.428-.053-.937.205-.581-.824-1.256-.641-1.58-.33-.246-.342-.134-.034.374-.185.334-.4-.2-.707-1.15-.986-1.87-.347-.193-.289.254-.18.247-.333 1.56-.106-.621.144-.73.244-.897.276-1.248.857-.001 1.531-.001 1.532-.002 1.531-.002 1.532-.002 1.532-.002 1.531-.002 1.532-.001 1.532-.002 1.531-.002 1.532-.001 1.532-.002 1.532-.002 1.531-.002 1.532-.002 1.532-.001 1.531-.002h1.01l-.06-.888-.046-.704-.067-.946-.067-.942-.06-.942-.06-.884-.06-.884-.054-.82-.053-.753-.087-.434-.325-.86-.07-.427.087-.447.217-.428.597-.775.905-.595 1.045-.69.796-.527.407-.127 1.246-.18.98-.394.954-.388.4-.213.047-.728V57.468h22.271v-1.856l-.001-1.5-.002-1.505-.001-1.324-.002-1.322-.001-1.114 1.256.74 1.256.738 1.256.739 1.256.738 1.256.74 1.256.738 1.256.739 1.257.738 1.256.74 1.256.738 1.256.738 1.256.74 1.256.738 1.257.74 1.256.738 1.256.739 1.052.62 1.616.997 1.506.93 1.516.933-2.34.001-3.125.002-2.131.001-2.187.001-2.05.001.178 1.522.19 1.66.19 1.662.19 1.66.19 1.662.191 1.66.19 1.662.19 1.66.191 1.661.19 1.662.19 1.66.19 1.661.19 1.662.191 1.66z" transform="translate(-40.885 -48.584)" id="path2" />
  </g>
</svg>
