<?xml version="1.0" encoding="UTF-8" standalone="no"?>
<svg width="81.491" height="55.975" version="1.1" id="svg6" sodipodi:docname="morocco.svg" xmlns:inkscape="http://www.inkscape.org/namespaces/inkscape" xmlns:sodipodi="http://sodipodi.sourceforge.net/DTD/sodipodi-0.dtd" xmlns="http://www.w3.org/2000/svg" xmlns:svg="http://www.w3.org/2000/svg">
  <defs id="defs10" />
  <sodipodi:namedview id="namedview8" pagecolor="#ffffff" bordercolor="#666666" borderopacity="1.0" objecttolerance="10.0" gridtolerance="10.0" guidetolerance="10.0" inkscape:pageshadow="2" inkscape:pageopacity="0.0" inkscape:pagecheckerboard="0" />
  <g style="display:inline" id="g4">
    <path style="display:inline;fill:#e7b936;fill-opacity:1;fill-rule:evenodd;stroke:#505050;stroke-width:.525892;stroke-linecap:round;stroke-linejoin:round;stroke-miterlimit:4;stroke-dasharray:none;stroke-opacity:1" d="m119.082-8.775-.834.454-.672.221-.836.087-1.181.201-.22.698-2.642 6.046-2.689 4.296-.97 1.095-1.629.926-2.79 1.27-4.934 1.777-1.413.813-.559.438-1.602 1.78-2.736 2.324-.02.58-.25 1.639-.406 1.029-2.188 2.506-.893 1.915-.165 2.37.006 1.485-.287.863.143.49.539.279.803 1.039.195.635-.29 1.625-.51 1.01-.728.995-1.056 1.121-1.27 1.742-1.908 2.108-1.251.84-2.72 1.506-1.457 1.253-.877.963-.818.481-2.894 1.208-3.225.801-2.17.206-1.037.427-.614.965-.902.763h-.006l-.066.178h29.2l-.017-.17-.002-.004h.9v-6.44l.033-.463.123-.193.678-.326 1.064-.75.392-.335.504-.335 1.776-1.013.368-.281 1.73-1.167.402-.174.929-.113.388-.22.52-.469.768-.534.497-.254.12-.066.318-.068 1.598.16.672.121.8.099.25-.066.215-.166.3-.374.068-.442.02-.388.046-.166.141-.074h.348l.468.068h.953l.325-.068 1.082-.08 1.533-.253 1.212-.329.965-.259 1.038-.68.758-.719.789-1.068.626-.928 1.268-.582 1.06-.347.604-.142 1.378-.486 1.163-.74 1.093-.694.836-.095 1.056-.113.234-.127.267-.247.014-.433-.32-.308-.386-.16-.274-.175h-.27l-.147-.205.08-.389.042-.353.172-.355-.045-.5-.273-.5-.082-.362.018-.354.134-.281.392-.187.452-.066.64.086 1.1-.12 2.823-.866.195-.267.18-.602.202-.528.291-.172.159-.068.94-.14 1.334-.2h.499l1.45.067 1.058.066 1.71.067h2.269l1.348.066.33-.119v-.382l-.242-.71.146-.445.52-.412.649-.46-.304-.561-.516-.376-.723-.45-.374-.185-.653-.542-.4-.62-.272-1.31-.497-.733-.361-.904.32-1.657-.479-1.003-.073-.433-.004-.512.145-.881-.094-1.241-.567-1.282.267-.435.123-.226-.04-.195L143 .393l-.22-.337.115-.314.267-.459-.019-.19-.838-.56-1.409-.903-.392-.395-.193-.497-1.364-.127-1.424.072-.63-.15-.726.045-.2-.298-.375-.764-.185-.189-.027-.32-.094-.294-.608.6-.953.521-1.262.183-1.308-.11-.686-.346-.633.234-1.298.015-2.322.546-1.992-.3-1.4-.499-1.79-1.245-.985-.982-.569-.87v-.744l.401-.309z" transform="translate(-66.79 9.038)" id="path2" />
  </g>
</svg>
