<?xml version="1.0" encoding="UTF-8" standalone="no"?>
<svg width="106.061" height="79.518" version="1.1" id="svg6" sodipodi:docname="niger.svg" xmlns:inkscape="http://www.inkscape.org/namespaces/inkscape" xmlns:sodipodi="http://sodipodi.sourceforge.net/DTD/sodipodi-0.dtd" xmlns="http://www.w3.org/2000/svg" xmlns:svg="http://www.w3.org/2000/svg">
  <defs id="defs10" />
  <sodipodi:namedview id="namedview8" pagecolor="#ffffff" bordercolor="#666666" borderopacity="1.0" objecttolerance="10.0" gridtolerance="10.0" guidetolerance="10.0" inkscape:pageshadow="2" inkscape:pageopacity="0.0" inkscape:pagecheckerboard="0" />
  <g style="display:inline" id="g4">
    <path style="display:inline;fill:#9936e7;fill-opacity:1;fill-rule:evenodd;stroke:#505050;stroke-width:.525892;stroke-linecap:round;stroke-linejoin:round;stroke-miterlimit:4;stroke-dasharray:none;stroke-opacity:1" class="polygon" d="m255.193 77.616.734 3.86.556 3.315.04 2.112.027.548.227.374.52.374 2.095 3.053-.447.535.312.946.543.408 1.743 1.82.226.36-.096.288-1.22 2.141-.208.521-.243 2.73-.171 1.927-.236 2.645-.281 3.165-.228 2.67-.299 3.532-.283 3.34-1.751 1.834-3.11 3.255-2.529 2.649-1.267 1.772-2.48 3.464-1.1 2.24-.86 1.171-.436.501.384 1.645.672 2.871h-1.199l-.688.207-.869.655-.97.254-1.182.574-.746.46-.702.362-.966.883-.314.672-.963.133-1.343-.113-.855-.678-1.982-.707-1.284-.287-.596-.088-3.026-.12-3.226.274-1.645.327-.3.074-.932.427-.774.475-2.093 2.168-2.768-.074-1.63-.24-1.382-.34-1.968-1.013-2.411-1.546-.93-.214-.837-.12h-.28l-2.877 1.54h-.556l-.679.175-.447.38-.33.194h-.345l-.453-.087-.445-.234-.443-.428-1.187-1.714-.245-.3-.507-.508-.853-.79-.578-.367-.35-.093-.421.067-2.312-.68-2.312-.718-.51.094-.361.147-.8.534-.942.094-1.197-.067-.657-.074-1.058.18-.704.208-.922.36-1.197.98-.344.126-.289.16-.402 2.687-.325.807-.607 1.066-1.193 1.021-.819.615-.02.833-.067 1.36-.013.935.054.608-.137.287-.054.268.047.4.193.187.116.248-.077.207-.386.233-.425-.607-.547-.435-.6-.193-.406-.314-.212-.434-.787-.843-1.813-1.668-.186-.067-.3-.066-.513.2-.316.274-.22.107h-.333l-.863.214-.69.274-.02.227.33 1.263-.157.683-.306-.327-.995-1.273-.688-.945-.123-.207-.098-.327.068-.14.273-.1.63-.127.118-.1.033-.26-.098-.482-.346-.654-.369-.434-.205-.087h-.378l-.408.068-.77.534-.341.1-.794-.066-.709-.107-.43-.274-1.281-1.054-1.416-1.115-.593-.16-.138-.114-.096-.857.027-1.03.078-.268.59.16.629.074.202-.187-.502-.367-.722-.374-.268-.561-.208-.194-.325-.2-.372-.1-.376-.16-.255-.161-.423-.074-.443-.12-.64-.91-.623-.885-.368-.696-.128-.42.184-.714-.186-.28-.695-.724-.579-.674.142-1.04.118-.867.006-.548.092-.314.074-.347.384-.107h.98l1.909.16 1.528-.18h.084l1.077-.93 1.195-.977 1.797-.093 1.938-.1 1.529-.067 2.222-.074 1.795-.067 2.08-.073.067-.448.126-.113h.206l1.529.24 1.437.234.109-.846 1.262-1.06.715-.213.177-.187.227-.361.14-.555.06-.394.266-.327.195-.601.258-1.05.711-1.102.406-1.496.06-1.446.079-1.1.211-.227-.006-1.95-.006-1.962-.005-1.659-.006-2.063-.005-1.812-.006-1.962-.005-1.761-.004-1.167 1.457-.28 1.507-.288 2.205-.42 2.386-.455 2.603-.5.59-.301 1.964-1.69.886-.762 1.762-1.515 1.36-1.17 1.728-1.485 1.83-1.497 1.459-1.193 2.294-1.352 3.459-2.039 3.46-2.04 3.458-2.039 3.458-2.039 3.46-2.04 3.458-2.038 3.459-2.04 3.46-2.039 3.479.777 3.305.737 3.324.742.784.407 1.764 1.453 2.258 1.859h.2l2.17-1.095 2.827-1.429z" transform="translate(-155.971 -73.773)" id="path2" />
  </g>
</svg>
