<?xml version="1.0" encoding="UTF-8" standalone="no"?>
<svg width="80.288" height="64.556" version="1.1" id="svg6" sodipodi:docname="nigeria.svg" xmlns:inkscape="http://www.inkscape.org/namespaces/inkscape" xmlns:sodipodi="http://sodipodi.sourceforge.net/DTD/sodipodi-0.dtd" xmlns="http://www.w3.org/2000/svg" xmlns:svg="http://www.w3.org/2000/svg">
  <defs id="defs10" />
  <sodipodi:namedview id="namedview8" pagecolor="#ffffff" bordercolor="#666666" borderopacity="1.0" objecttolerance="10.0" gridtolerance="10.0" guidetolerance="10.0" inkscape:pageshadow="2" inkscape:pageopacity="0.0" inkscape:pagecheckerboard="0" />
  <g style="display:inline" id="g4">
    <path style="display:inline;fill:#5fb3ef;fill-opacity:1;fill-rule:nonzero;stroke:#505050;stroke-width:.525892;stroke-linecap:round;stroke-linejoin:round;stroke-miterlimit:4;stroke-dasharray:none;stroke-opacity:1" class="polygon" d="m203.905 201.71-.647.207-.424-.066.58-.884.294.187.377.08zm-9.77-62.435 2.312.679.42-.067.352.094.577.367.854.79.507.507.244.3 1.187 1.715.443.427.445.234.454.087.345-.066.33-.194.447-.38.679-.174h.555l2.878-1.541h.28l.836.12.93.214 2.412 1.546 1.967 1.012 1.383.34 1.63.241 2.767.074 2.093-2.168.774-.474.932-.428.3-.074 1.645-.327 3.227-.274 3.026.12.596.087 1.284.287 1.982.707.854.677 1.343.114.963-.134.314-.672.966-.883.703-.36.746-.462 1.18-.574.972-.254.868-.655.689-.207h1.198l1.05 1.437 1.127 1.543.88 1.202.642 3.111.068.595.047.267.046.247.085.42.503.181.953.08.691.307.414.508.04.087.219.388.047.28-.06.816-.14 1.047-.237.676.132.918-.04.394-.104.267-.426.308-.578.3-1.384.889-.395.133h-.577l-.503.22-.598.481-1.283 1.784-1.1 1.79-.379 1.482-.427 1.415-.966.904-.135.507-.04.294-.033.68-.118 1.129-.15.54-.155.16-1.042.342-.6.414-.36.82-.132.886-.21 1.01-.12.889-.162.46-.341.481-.532.521-.46.294-1.197.194-.615 1.174-.52.918-.014.368-.502 1.903-.874 1.434-.06.507-.004.414-1.093 1.263-.289.374-.28.487.276.468.309.428.046.147-.497.4-.865.7-.517.42-.114.228-.075 1.05-.151.28-.345.388-.506.421-.515.327-.583.227-.561.087-.314-.134-.179-.32-.315-1.286-.159-.274-.364-.247-.72-.702-.727-.712-.877-.5h-.188l-.145.133-.25.715-.245.26-.461.094-.803.01-.585-.1-.133-.14-.119-.307-.161-.247-.7.5-1.1.79-.357.126-.272.16-.363.737-.438.788-.574.414-.56.347-.32.301-.46.36-.899.892-1.193 1.183-.42.608-.415.913-.242 1.01-.265 1.11-.388 1.778-.57 1.006-.502.8-.37.628-.196.52h-.081l-.193.221-.558-.147-.252-.454-.344-.073-.597-.662-.127.107.629 1.68-.234.654h-1.767l-1.521.22h-1.046l-.525-.24-.233-.628-.09.066-.053.341-.331.267-1.173.068-.518-.428-.42-.48-.45-.215.07.2.516.468-.067.676-.944.783-.602.067-.37-.334-.192-.548-.097-.813-.247-.528h-.133l.123.488.04.394.005.825.45.64-.69.201-.28.01h-.55l-.104-.233-.105-.528-.144-.14-.17.898-.365.068-.253-.01-1.084.193-.24-.068-.054-.166.128-.248-.026-.4-.376.313-.06.622-.215.1-.647-.088-.707-.32-.43-.328-.72-.454-1.408-1.277-.229-.574-.402-.706-.302-.715-.432-1.223.132-.086.327.107.159-.18-.586-.134-.122-.14-.04-.428.026-.528.477-.187.411-.087.207-.32.12-.321-1.095.48-1.024-.547-.222-.334.11-.254.49-.066h.7l.419-.248-.258-.086-.453.01-.167-.166.014-.401-.147.086-.195.354-.69.26-.405-.26-.04-.58-.088-.261-.34-.2-1.21-1.53-1.519-1.274-1.351-.878-2.04-.42h-4.27l-.24-.12.262-.201.376-.134 1.373-.71-.232-.094-1.427.447-.488.068-.632.855-3.761.14-.441.067.013-.388.184-1.122.121-.44.14-.335-.145-.4-.142-.541-.068-.852.176-.267.06-.32-.04-.502v-1.682l.101-.18.122-.14.006-.228-.228-.434-.211-.494.006-.714-.085-.691-.145-.314.109-1.176.06-1.49-.054-.662.137-.468.074-1.15-.014-1.125.28-1.777.823-.087.981-.154.438-.697.251-.884-.08-.876.19-.287.394-.474.708-.678-.027-.744.196-.227.336-.174.481-.086.538-.367.299-.648.293-1.04-.463-.722.006-.16.175-.388.284-.387.225-.127.522.1h.089l.08-.12.339-1.146-.034-.307-.486-.769-.08-.547-.07-.812-.12-.72-.14-.273-.262-.227-.116-.147-1.01-1.46.02-.694.424-.885.278-.428.385-.24.077-.207-.116-.248-.193-.187-.047-.4.054-.268.137-.287-.054-.608.014-.935.066-1.36.02-.833.82-.615 1.192-1.021.607-1.066.325-.807.402-2.687.29-.16.343-.128 1.197-.977.922-.361.704-.207 1.059-.18.656.073 1.197.067.942-.094.8-.534.362-.147.509-.094z" transform="translate(-172.81 -138.304)" id="path2" />
  </g>
</svg>
