<?xml version="1.0" encoding="UTF-8" standalone="no"?>
<svg width="14.01" height="12.182" version="1.1" id="svg6" sodipodi:docname="rwanda.svg" xmlns:inkscape="http://www.inkscape.org/namespaces/inkscape" xmlns:sodipodi="http://sodipodi.sourceforge.net/DTD/sodipodi-0.dtd" xmlns="http://www.w3.org/2000/svg" xmlns:svg="http://www.w3.org/2000/svg">
  <defs id="defs10" />
  <sodipodi:namedview id="namedview8" pagecolor="#ffffff" bordercolor="#666666" borderopacity="1.0" objecttolerance="10.0" gridtolerance="10.0" guidetolerance="10.0" inkscape:pageshadow="2" inkscape:pageopacity="0.0" inkscape:pagecheckerboard="0" />
  <g style="display:inline" id="g4">
    <path style="display:inline;fill:#5fb0ef;fill-opacity:1;fill-rule:evenodd;stroke:#505050;stroke-width:.525892;stroke-linecap:round;stroke-linejoin:round;stroke-miterlimit:4;stroke-dasharray:none;stroke-opacity:1" class="polygon" d="m358.933 238.35-.22.108-.046.32.253.514.827 1.065.526.193.344.414.337.698.1.872-.14 1.049.084.78.304.514.079.662-.144.815-.176.488-.208.16-.235.066-.318-.066-.39.066-.422.154h-.43l-.312-.134-.492-.42-.919.233-.248-.01-.338.2-.274.247h-.337l-.79-.494h-.29l-.119 1.397-.132.775-.163.347-.566.334-.57.187h-.313l-1.253.107h-.49l-.27-.113-.353-.791-.664-.354-.638-.167-.26.066-.231.414-.095.374-.619-.254-.186-.314-.013-.534-.226-.727.126-.307.242-.2.514-.388.78-.535.168-.253.11-.421-.046-.984-.075-.83.093-.294.356-.642.478-.654.558-.695.336-.067.44-.26.467-.388.262-.147h.218l1.441-.347.144.107.232.668.123.1h.201l.404-.154.742-.52.323-.321.381-.448.486-.5.272-.442.265-.253.347-.08h.385z" transform="translate(-347.634 -238.073)" id="path2" />
  </g>
</svg>
