<?xml version="1.0" encoding="UTF-8" standalone="no"?>
<svg width="41.627" height="29.483" version="1.1" id="svg6" sodipodi:docname="senegal.svg" xmlns:inkscape="http://www.inkscape.org/namespaces/inkscape" xmlns:sodipodi="http://sodipodi.sourceforge.net/DTD/sodipodi-0.dtd" xmlns="http://www.w3.org/2000/svg" xmlns:svg="http://www.w3.org/2000/svg">
  <defs id="defs10" />
  <sodipodi:namedview id="namedview8" pagecolor="#ffffff" bordercolor="#666666" borderopacity="1.0" objecttolerance="10.0" gridtolerance="10.0" guidetolerance="10.0" inkscape:pageshadow="2" inkscape:pageopacity="0.0" inkscape:pagecheckerboard="0" />
  <g style="display:inline" id="g4">
    <path style="display:inline;fill:#e75436;fill-opacity:1;fill-rule:evenodd;stroke:#505050;stroke-width:.525892;stroke-linecap:round;stroke-linejoin:round;stroke-miterlimit:4;stroke-dasharray:none;stroke-opacity:1" class="polygon" d="m73.109 132.303.629 1.075-.136.514-.144.752.355.547.417.354.297.328.329.454.053.9-.06.648.214.293.181.368-.04.307-.119.274-.4.36-.068.674.649.816.417.441-.004.254.116.28.308.328.19-.074.207-.267.094-.18.56.08.263.08.358.534.132.354.086.447.374.555.325.394.068.247.292.334-.181.735.02.375-.199.987-.046.468.013.174.443.354-.046.5-.45-.087-.781-.066-1.566.26-.538-.106h-1.027l-.732.14-.93.327-.72-.08-.39-.253h-.514l-.578-.134-.616-.247-.563-.127-.607-.454-.284-.08-.2.12-.167.154-.175.093-.33-.08-.125-.307.103-.3.034-.228-.155-.12-.371-.067h-.599l-.965-.093-.221-.066-2.161-.08-2.242-.01-1.9-.01H56.89l-1.686-.011-1.573-.01-1.215.607-1.315.661-1.768.354-2.035-.127-.65.094-.673.294-.494.214-.702.126-.906-.106-.366.067-.228-.3-.26-.488.164-.354.553-.227.83-.301.436.154h.254l.047-.194-.082-.1-.626-.26-.326-.341-.269.2-.231.421-.194.127-.283.12-.161-.287-.07-.28.13-.214-.067-1.21.077-.64-.04-.562.393-.374.373-.227h5.439l.133-1.127.42-.086.629-.114 1.172-.14 1.307-.133.278-.22.217-.375.137-.334.27-.14.366.113.48.174.496.274.57.254.379.16.91.394 1.559.555 1.281.22 1.549-.4 1.118-.261.139-.481-.174-.475-.832-.434-1.133.067-.347.114-.528.147-.317.066-.534-.1-.678-.374-.427-.374-.597-.174-.707-.18-1.134-.775-.592-.14-.56-.068-1.077.154-1.051.414-.553.94h-5.337l-1.694.067-.17-.682-.402-.548-.652-.46-.143-.435.22-.374.63-.307.144-.22h-.33l-.499.2h-.331l-.04-.595-.553-.769-.623-1.301-.705-.535-.593-1.053-.619-.407-.569-.187-.485.067-.178.48-.605-.69.827-.248 1.768-.867 2.029-2.485 1.821-2.941.237-.695.222-.528.147-1.201.261-.717.245-.134.309-.547.372-.963.423-.534.473-.107.368.067.262.2.769.12 1.274.067.985-.14.695-.334.913-.167 1.132-.004.595-.14.06-.274.148-.08.236.106.223-.066.209-.194h.207l.207.167.948.067 1.69-.067 1.56.507 1.433 1.08.738.719.047.36.238.361.429.367.391.067.355-.227h.279l.202.28.409.068.454-.174.324.067.06.167.075.087.22.067.296.213.415.575.337.799.26 1.025.345.554.429.094.247.214.047.24.124.167.206.094.362-.067.424.347.456.752.072.34-.072.181.027.134.303.127.286.247.235.367.505.327.775.288.56.427.341.575.71.48z" transform="translate(-37.738 -119.615)" id="path2" />
  </g>
</svg>
