<?xml version="1.0" encoding="UTF-8" standalone="no"?>
<svg width="20.627" height="21.203" version="1.1" id="svg6" sodipodi:docname="sierra_leone.svg" xmlns:inkscape="http://www.inkscape.org/namespaces/inkscape" xmlns:sodipodi="http://sodipodi.sourceforge.net/DTD/sodipodi-0.dtd" xmlns="http://www.w3.org/2000/svg" xmlns:svg="http://www.w3.org/2000/svg">
  <defs id="defs10" />
  <sodipodi:namedview id="namedview8" pagecolor="#ffffff" bordercolor="#666666" borderopacity="1.0" objecttolerance="10.0" gridtolerance="10.0" guidetolerance="10.0" inkscape:pageshadow="2" inkscape:pageopacity="0.0" inkscape:pagecheckerboard="0" />
  <g style="display:inline" id="g4">
    <path style="display:inline;fill:#36e79d;fill-opacity:1;fill-rule:nonzero;stroke:#505050;stroke-width:.525892;stroke-linecap:round;stroke-linejoin:round;stroke-miterlimit:4;stroke-dasharray:none;stroke-opacity:1" class="polygon" d="m71.47 181.55-.097.174-.445-.428-2.301-.641.65-.34 1.597-.1.474.2.212.167.08.314zm8.985-16.626.435.548.456.38.564.834.656.97.71.875.455.475.053.167-.033.187-.225.447-.191.481.02.18.135.094.74.154.069.534v.743l.36.693.343.508-.02.18-.838.87-.326.865-.166.24-.067.194.168.094.229-.068.324.074h.31l.41-.307.68-.794.23-.093.514.067-.013.207-.193.956-.302.821-.199.2-.85.214-.36.361-.313 1.167-.2.916-.292.153-1.247 1.324-.817.501-.569.428-.539.56-.678.549-.728.92-.52.96-.354.3-.268-.267-1.242-.946-1.307-.635-2.788-1.057-.929-.3.033-.375.321-.684-.519-.807.202-.587-.202-.001-.4.354-.85-.1-.563-.5-.461-.188-.201-.254-.296-1.326-.212-.6-.427-.375-.856-.094-.353-.81-.474-.628.077-.387h.387l.303.28.487.114.607-.68.543-.367.126-.32-.066-.18-.33.273-.901-.073-.223.247-.402.08-.312-.795.014-.468.128-.514.908-.086.077-.167-.63-.114-.787-.6-.14-.415.39-.14.373.067.324.087.351-.147.33-.227.196-.287.266-.778.853-.26.502-.474.477-.739.22-.521.197-.26.124-.228.092-.247.214-.227.224-.548.152-.5.491-.241 1.004-.214.904.36 1.467-.313.078-.468h1.343l1.59-.01 1.325-.01.454.126z" transform="translate(-66.086 -164.112)" id="path2" />
  </g>
</svg>
