<?xml version="1.0" encoding="UTF-8" standalone="no"?>
<svg width="70.165" height="91.897" version="1.1" id="svg8" sodipodi:docname="somalia.svg" xmlns:inkscape="http://www.inkscape.org/namespaces/inkscape" xmlns:sodipodi="http://sodipodi.sourceforge.net/DTD/sodipodi-0.dtd" xmlns="http://www.w3.org/2000/svg" xmlns:svg="http://www.w3.org/2000/svg">
  <defs id="defs12" />
  <sodipodi:namedview id="namedview10" pagecolor="#ffffff" bordercolor="#666666" borderopacity="1.0" objecttolerance="10.0" gridtolerance="10.0" guidetolerance="10.0" inkscape:pageshadow="2" inkscape:pageopacity="0.0" inkscape:pagecheckerboard="0" />
  <g style="display:inline" id="g6">
    <path d="M482.168 171.64v3.457l-.001 1.784v3.973l-.002 1.547v.713l-.918 1.391-1.124 1.703-1.193 1.81-.99 1.5-.927 1.405-.944 1.43h-6.351l-.372-.184-1.745-.585-2.215-.741-2.748-.921-1.955-.655-2.086-.685-2.118-.694-1.66-.546-2.07-.68-1.8-.59-.248-.147-.997-.9-1.31-1.186h-.25l-.626-.248-.56-.64-.579-.818-.538-1.023-.233-.697-.716-.292-.344-.546-.65-.815-.45-.393-.16-.343-.208-.713-.371-.776-.356-.483-.081-.203.019-.133.657-1.051.297-.375.337-.362.275-.362.105-.248.8-1.238.703-1.088.55-.852 1.24.974 1.206 1.975 1.407 1.595 1.94 1.483.77.501.68.267 3.534-.063 2.507-1.353 2.275-.979.767-.203 1.32.267 1.457.083 1.31.298.666-.076 2.593-1.14 1.63-1.107 1.11-.47h.438l1.515.4 1.949-.172 2.664-.957.85-.19h.646l1.453.432z" class="polygon" style="display:inline;fill:#e0ef5f;fill-opacity:1;fill-rule:evenodd;stroke:#505050;stroke-width:.5;stroke-linecap:round;stroke-linejoin:round;stroke-miterlimit:4;stroke-dasharray:none;stroke-opacity:1" transform="translate(-453.61 -175.42) scale(1.05178)" id="path2" />
    <path d="m435.135 253.906.032-.52-.1-.261-.603-.78-1.125-1.453-.85-1.1-.871-1.124-.003-.9-.013-2.676-.019-5.352-.02-5.352-.018-5.353-.013-2.676-.004-1.094.09-.178.993-.982 1.314-1.299 1.725-2.47.937-1.34.781-1.119.199-.343.69-.677 1.298-.406.805-.07 2.772-.508.413-.203.241-.235.23-.534.54-.75.697-.514 1.323-.672 1.298-.572.287-.095 1.56-.355.383-.121.631-.127h.25l2.168.127 1.696.095 1.747.102.183-.076L458 210.61l1.942-2.12 1.239-1.35 1.914-2.09 1.472-1.508 1.627-1.668 1.58-1.524 1.901-1.834 1.198-1.155 1.861-1.794 1.77-1.708 1.567-1.51.943-1.429.927-1.405.99-1.5 1.194-1.81 1.124-1.703.918-1.39v-3.315l.001-2.92v-3.484l.001-1.754.785-.076 2.071-.457 1.612-.687 2.972-.496 2.262-1.259.395-.61.683-.766.993-.254 2.534.9.404.07-.146.547-.087.552-.52.97-.33 1.076.241 1.643.117 2.667-.057.387-.168.381-.07.299-.273.108-.12.171.2.07.794-.292-.02-.317.045-.16.653.356.466.146.134.337-.038.229-.74-.108-.377-.178-1.098.292-.672.318-.2.52-.157 2.09-.26 1.356-.051 1.794-.888 1.187-.3.838-1.322 1.677-.69 1.433-.225.7-1.161 1.965-1.593 1.507-.576 1.925-.572 1.206-.643 1.096-1.406 1.946-.721 1.354-.904 2.347-.276 1.487-2.542 4.314-2.636 3.44-1.643 2.894-2.945 3.358-4.018 4.335-5.256 5.147-1.428 1.05-5.755 3.174-3.73 2.662-1.906 1.81-2.001 1.576-1.587 1.5-4.799 5.063-.494.476-.466.451-.604.858-.42.337-1.147 1.447-.716.75-.802.743-.34.521-.242.603-.267.337-.724 1.439-.636.943z" class="polygon" style="display:inline;fill:#e0ef5f;fill-opacity:1;fill-rule:evenodd;stroke:#505050;stroke-width:.5;stroke-linecap:round;stroke-linejoin:round;stroke-miterlimit:4;stroke-dasharray:none;stroke-opacity:1" transform="translate(-453.61 -175.42) scale(1.05178)" id="path4" />
  </g>
</svg>
