<?xml version="1.0" encoding="UTF-8" standalone="no"?>
<svg width="74.807" height="58.896" version="1.1" id="svg6" sodipodi:docname="south_sudan.svg" xmlns:inkscape="http://www.inkscape.org/namespaces/inkscape" xmlns:sodipodi="http://sodipodi.sourceforge.net/DTD/sodipodi-0.dtd" xmlns="http://www.w3.org/2000/svg" xmlns:svg="http://www.w3.org/2000/svg">
  <defs id="defs10" />
  <sodipodi:namedview id="namedview8" pagecolor="#ffffff" bordercolor="#666666" borderopacity="1.0" objecttolerance="10.0" gridtolerance="10.0" guidetolerance="10.0" inkscape:pageshadow="2" inkscape:pageopacity="0.0" inkscape:pagecheckerboard="0" />
  <g style="display:inline" id="g4">
    <path style="display:inline;fill:#c05fef;fill-opacity:1;fill-rule:evenodd;stroke:#505050;stroke-width:.525892;stroke-linecap:round;stroke-linejoin:round;stroke-miterlimit:4;stroke-dasharray:none;stroke-opacity:1" class="polygon" d="m381.973 165.46-.43.852-.14.608-.04.507.027.294.047.187.02.067h.04l.02.01h1.248v0l-.006.275.047 1.352.04 1.184.07 1.933v.508l-.046.628-.146.247-.354.354-.443.327-1.124.08h-.937l-.665-.074h-.908l-.857.068-.312.274-.461.97-.668 1.407-.352.594-.091.348.105.207.441.3.97.421 1.111.247.829.107.565.114.435.127 1.579 1.078.504.501.284.448.067.474.228.474.909.944.527.547 1.37.698.523.792.508.387.48.414.258.615.594 1.788.4.937.408.767.164 1.247.323.555.333.68.552.614.587.468.107.127-1.229 1.205-1.377 1.35-1.593 1.564-1.734 1.702-1.358 1.347-1.341 1.329-1.567 1.569-1.156 1.16-.193.166-.335.214h-1.103l-1.137-.134-1.047-.704-1.064.547-.674.174-.402.066-.95.087-1.33.294-.602.367-.326.294-.27.534-.135.067-.244-.067-.342-.214-.711-.307-.358-.678-.33-.407-.272-.214-1.13.676-.546.16h-.449l-.818-.38-.905-.321h-.465l-.696.407-.793.608-.409.601-.197.354-.145-.287-.133-.267-.266-.34-.382-.134-.349.067-.407.067-.182-.193-.04-.468-.111-.427-.191-.321-.585-.32-1.508-.655-1.16-1.308-.583-.607-.426-.394-.604-1.028-.688-.707-.833-.327-.55.16-.567.757-1.069.712h-.49l-.628-.388-.789-.274-1.418-.12-.584.34-.767.549-.65.327-.402.067-.376-.127-.426-.066h-.369l-.758-.501-.392-.367-.262-.354-.428-.24-.501-.201-.358-.314-.178-.388-.282-.5-.368-.455-1.156-.812-.346-.48-.24-.469-.474-.514-.505-.69-.162-1.01-.02-.813-.105-.374-.214-.374-.25-.32-.404-.361-.943-.521-.974-.608-.468-.354-.887-.127-.53-.347-.446-.76-.18-.608-.449-.474-.191-.34-.107-.395.355-1.202-.516-.427-.77-.555-.55-.601-.337-.554-.986-.733-2.153-1.094-1.242-.7-.68-.627-.593-.615-.06-.254.383-.614.06-.508-.314-.554-1.29-1.048-1.028-1.154-.78-.36-1.874-.321-.538-.127-.562-.22-.554-.522-.19-.614.273-.983-.174-.301-.318-.08v0l.088-.207.355-.48.578-.308 1.548-.488.086-.187.033-.614.127-.301.533-.85.075-.341.027-.723.071-.341.155-.24.425-.421.149-.254.067-.555-.047-1.097.216-.434.977-.997.261-.441.089-.401-.006-.408.06-.4.29-.388.247-.12.72-.12.49.073 3.426-.68.402.093.18.4-.013.642.06.314.185.22.543.307.377.515.2.187.552.354 2.55 2.94.717.28.698-.1 1.385-.608.692-.153 4.847.173.542-.093h.033l.738 1.475.351.334h5.315l-.101-.42.067-.468.62-.601.317-.3v0l.133-.107.82-.427.802-.288 1.541-.334.563-.534.31-.488.014-.96.204-.16.368-.22 1.783-.858.301-.18 3.15 1.994 1.769 1.578.106.074h.093l.093-.068.08-.073.127-.067h.843l1.43-.08.47-.186 2.873-2.819.73-.899.186-.18.416-.641.438-1.101.087-.127 3.147-2.64.112-.207.033-.167-.476-.888-.102-.454-.02-.696.095-1.08-.033-.684-.014-.08-.033-.107-.02-.067-1.757-1.942h4.438l.013-.16-.004-.087-.013-.08-.084-.234-.047-.307-.003-.088.006-.087.027-.16.002-.088-.004-.067-.006-.066h.022l3.189.066-.04.548-.388 1.292.006.775-.091.884-.02.074-.088.193-.076.107-.087.107-.027.067-.027.068-.002.1.662 4.952-.026.127-.027.08-.177.307-.047.1-.006.08.072.066 1.469.534.07.067.054.066.53.634 2.892 2.35.1.12.298.739.034.113.013.174-.006.14-.074.441.027.2.046.134.04.154v.066l-.005.066z" transform="translate(-316.168 -149.32)" id="path2" />
  </g>
</svg>
