<?xml version="1.0" encoding="UTF-8" standalone="no"?>
<svg width="112.684" height="90.981" version="1.1" id="svg6" sodipodi:docname="sudan.svg" xmlns:inkscape="http://www.inkscape.org/namespaces/inkscape" xmlns:sodipodi="http://sodipodi.sourceforge.net/DTD/sodipodi-0.dtd" xmlns="http://www.w3.org/2000/svg" xmlns:svg="http://www.w3.org/2000/svg">
  <defs id="defs10" />
  <sodipodi:namedview id="namedview8" pagecolor="#ffffff" bordercolor="#666666" borderopacity="1.0" objecttolerance="10.0" gridtolerance="10.0" guidetolerance="10.0" inkscape:pageshadow="2" inkscape:pageopacity="0.0" inkscape:pagecheckerboard="0" />
  <g style="display:inline" id="g4">
    <path style="display:inline;fill:#e73687;fill-opacity:1;fill-rule:evenodd;stroke:#505050;stroke-width:.525892;stroke-linecap:round;stroke-linejoin:round;stroke-miterlimit:4;stroke-dasharray:none;stroke-opacity:1" class="polygon" d="m365.322 83.705-.213.594h7.826l2.19-.002h10.959l2.192-.002h10.957l2.192-.002.075 1.523.296 1.217 1.03 1.74.872.937.313.514.034.24-.04.221-.266-.254-.446-.173-.067.814.105.581.105 1.089.367 1.17-.265 1.08.033 1.833.463 2.196-.094 1.403.755 3.272.733 1.817.403.447.453.24.87.154 1.284.925 1.016.976.361.514.492.56.337-.1.207-.146.332.454 1.61.976.237.454-.578.448-.67.765-.17.307-.077.18-.079.228-.176.227-.384.314-.151.133-.093.214-.23.14-.25.006-.22.094-.332.147-.492-.073-.502.133-.184.167-.398.147h-.399l-.14.067-.376.254-.462.347-.54.22-.19.074-.25.24-.382 1.2-.28.313h-.471l-.612.001-.53.1-.721-.133h-.35l-.093.254-.13 1.028.02.441-.286.521-.321.655.118 1.103.054 1.09-.587 1.643-.083.374-.595 1.303-.302.481-.757 2.433-.295.748-.634.789.143 1.282.151 1.36.144 1.284.214 1.92-.537 1.793.02.978-.377 1.442-.296.668-.263.394-.223.408-.409.9-.347 1.187-.155 1.217-.013.706-.068.32-.119.208-.8.134-1.116.14-.601.16-.403.247-.495.575-.978 1.58-.514.97-.804 1.326-.936.938-.197.455-.154.85-.346 1.343-.315.956.053.768-.295 1.334.04.648-.328.36-.441.341-.3.087-.644-.394-.489-.401-.2-.107-.426.247-.512.367-.584.863-.457.872.262 1.847-.026.408-.132.44-.71 1.378-.175.434-.259.827-.274 1.444-.006.347v0h-1.307l-.02-.066-.047-.187-.027-.294.04-.508.14-.607.43-.853.02-.066.005-.067v-.067l-.04-.153-.047-.134-.027-.2.074-.441.006-.14-.013-.18-.033-.114-.3-.738-.098-.114-2.893-2.35-.53-.635-.053-.067h-.07l-1.47-.535-.071-.066.006-.08.047-.1.177-.307.026-.08.027-.127-.662-4.952.002-.1.026-.067.027-.067.087-.107.077-.106.087-.194.02-.074.092-.884-.006-.775.387-1.292.04-.548-3.189-.066h-.022l.006.066.004.068-.002.086-.027.16-.006.087.003.087.047.307.084.234.014.08.004.087-.014.16h-4.438l1.757 1.942.02.067.034.107.013.08.033.683-.095 1.082.02.695.103.454.475.888-.033.167-.112.207-3.146 2.64-.088.128-.438 1.1-.416.642-.185.18-.73.898-2.873 2.819-.47.187-1.43.08h-.843l-.129.067-.079.073-.093.068h-.092l-.107-.074-1.769-1.578-3.15-1.994-.3.18-1.784.858-.368.22-.203.16-.014.96-.31.488-.563.534-1.542.334-.801.288-.82.427-.134.107v0l-.316.3-.62.602-.068.467.1.421h-5.313l-.352-.334-.737-1.475h-.034l-.541.094-4.847-.174-.693.154-1.385.608-.698.1-.717-.28-2.55-2.94-.551-.355-.2-.187-.377-.514-.544-.307-.184-.22-.06-.315.013-.64-.18-.402-.403-.093-3.425.681-.49-.073-.72.12-.247.12-.29.387-.06.401.005.408-.088.4-.262.441-.976.997-.216.434.046 1.098-.066.555-.15.253-.425.421-.154.24-.072.341-.026.723-.076.34-.533.852-.126.3-.033.615-.087.187-1.547.487-.579.308-.355.48-.087.208v0l-.663-.174-.842-.12-1.621-.154-.642-.22-.307-.334.097-.851-.16-.18-.26-.154-.175-.368.033-.44.854-.984.178-.527.134-1.826.09-.641-.067-.752-.676-1.384-.59-.963-.965-1.427-.377-.468-1.947-1.964-.225-.287-.472-.83.233-.73.286-1.09.033-.5-.134-.522-.491-.387-.439-.066-.196-.2-.378-.288-.377-.22-.333-.428-.233-.601.165-2.141-.111-.288-.498-.08-.116-.153.02-.408-.268-1.22-.301-1.009.162-.554-.415-.762-.795-.328-.75.1-.804.154-.485-.067-.334-.14-.233-.281-.12-.327.11-.495.44-.91.551-.748 1.12-.682.299-.36.17-.401.027-.46-.075-.489-.127-.447-.33-.588-.303-.694-.006-.467.146-.334.3-.401.594-.454.143-.094.374-.24.326-.18.813-.482.191-.227-.07-.274-.2-.227-.326-.314-.067-.387-.096-.661-.17-.421-.121-.307.232-.234.344-.32.43-.195.667-.167.26-.227.078-.44-.02-.421.238-.314.323-.67.26-.308.434-.347.434-.434.194-.508.054-.487-.238-1.482.503-.621.641-.514h.924l1.433-.114.975-.214.696.006 1.588.28.129-.066.04-.067.084-.394v-.988l-.003-2.98-.002-2.98-.002-2.979-.002-2.98-.002-2.98-.002-2.978-.002-2.98-.002-2.979v-3.335h1.648l1.648.001 1.648.001h1.727l.001-3.328.001-3.329.001-3.328.001-3.329h2.552l2.552.001h5.104l2.552.001h2.551l2.552.001h5.104l2.552.001h2.55l2.553.001h5.103l2.552.001 2.552.001h.778l.344-.067.654-1.245.28-.093.427.073.146.294z" transform="translate(-300.61 -82.535)" id="path2" />
  </g>
</svg>
