<?xml version="1.0" encoding="UTF-8" standalone="no"?>
<svg width="13.003" height="34.042" version="1.1" id="svg6" sodipodi:docname="togo.svg" xmlns:inkscape="http://www.inkscape.org/namespaces/inkscape" xmlns:sodipodi="http://sodipodi.sourceforge.net/DTD/sodipodi-0.dtd" xmlns="http://www.w3.org/2000/svg" xmlns:svg="http://www.w3.org/2000/svg">
  <defs id="defs10" />
  <sodipodi:namedview id="namedview8" pagecolor="#ffffff" bordercolor="#666666" borderopacity="1.0" objecttolerance="10.0" gridtolerance="10.0" guidetolerance="10.0" inkscape:pageshadow="2" inkscape:pageopacity="0.0" inkscape:pagecheckerboard="0" />
  <g style="display:inline" id="g4">
    <path style="display:inline;fill:#b2ef5f;fill-opacity:1;fill-rule:evenodd;stroke:#505050;stroke-width:.525892;stroke-linecap:round;stroke-linejoin:round;stroke-miterlimit:4;stroke-dasharray:none;stroke-opacity:1" class="polygon" d="m161.154 157.791-.172.718-.353.89-.23.28-.161 2.161.11.18.082.068 1.11.732 1.455.96 1.028.677.086.227.013 1.421.014 1.22.212.698.047.677.258.515.948.986.226.581.027 1.865.02 1.414.12 1.925v3.641l.001 2.383v2.484h-.626l.342.771.06.7.08.226-.17.341.141.514.272.194.694 1.037.232.88-1.115.294.078.227-2.084.468-.824.38-.014-.374-.303-.067-.369-.127-.23-.193-.32-.441-.115-.348-.486-.067-.6-.387-.571-.441-.199-.441.054-.207-.088-.214-.197-.08-.515-1-.319-.4-.15-.321.053-.247-.069-.334.1-.274.277-.16.087-.2.027-.422.155-.867.102-.85-.292-.233-.359-.067-.185-.24-.07-.402.005-.347.703-1.212-.144-2.79.104-.427.32-.294.274-.34-.014-.34-.468-.834-.888-.641-.454-.514-.245-.461-.04-.247.538-.368.238-.254.033-.287-.22-.528.04-.942.208-.707.212-.916-.02-.267-.521-.548-.283-.074-.23.067-.544.36-.197.068-.123-.107-.054-.147.19-.214-.068-.267.16-.234.346-.107.101-.12-.466-.114-.054-.16.034-.154h.134l.148.01.08-.113.072-.777.053-.274.06-.534.073-2.081.106-.214.013-.153-.327-.1-.774-.561-.453-.428-.394-.44-.332-.288-.65-.448-.19-.28-.027-.287.197-.568.312-.608.156-.866-.095-.234-.427-.4 1.522.306 2.17.521.047.094.014.154h.377l.627-.187z" transform="translate(-154.28 -156.747)" id="path2" />
  </g>
</svg>
