<?xml version="1.0" encoding="UTF-8" standalone="no"?>
<svg width="27.517" height="48.024" version="1.1" id="svg6" sodipodi:docname="tunisia.svg" xmlns:inkscape="http://www.inkscape.org/namespaces/inkscape" xmlns:sodipodi="http://sodipodi.sourceforge.net/DTD/sodipodi-0.dtd" xmlns="http://www.w3.org/2000/svg" xmlns:svg="http://www.w3.org/2000/svg">
  <defs id="defs10" />
  <sodipodi:namedview id="namedview8" pagecolor="#ffffff" bordercolor="#666666" borderopacity="1.0" objecttolerance="10.0" gridtolerance="10.0" guidetolerance="10.0" inkscape:pageshadow="2" inkscape:pageopacity="0.0" inkscape:pagecheckerboard="0" />
  <g style="display:inline" id="g4">
    <path style="display:inline;fill:#99e736;fill-opacity:1;fill-rule:nonzero;stroke:#505050;stroke-width:.525892;stroke-linecap:round;stroke-linejoin:round;stroke-miterlimit:4;stroke-dasharray:none;stroke-opacity:1" class="polygon" d="m228.331 5.971-.175.034-.323.181-.171.02-.486-.203h-.185l-.233-.142.078-.78.076-.22 1.18-.027.641.466.105.122.027.134-.298.261zm2.14-6.891-1.03.481.196-.42.68-.505.175.12zm-9.98-16.416.31.508.442-.31-.114-.207-.026-.276.751-.027.663.04.728.303-.053 1.15.97 1.125-.272.56.795.332.707-.397.355-.589 1.302-.34 1.237-.86.685-.089.154.707.331.618-.468.218-.597.657-1.129 1.67-1.04.49-.78.644-.252.457-.076.533.195.953.569.97.655.585.633.184 1.473.923-.026.549.206.653.078.793.514.634-1.097 1.38-.599.997-1.17 1.375-1.043.894-2.234 1.327-.548.44-.357.458-.166.476.06.562.735 1.377.977.814.995.44 1.73-.178-.06.53.123.636.704-.033.47-.099.397-.618.846.423.439 1.294.715.403.084.15-.253.1-.197.149.211.104.694.161.417-.103.695.287-.014.177-.235 1.268-.054.457-.033.772v.93l.533.785.014.345-.207.399-.982.457-1.267.59-1.09.561-1.194.615-.366.394-.592.307-.495.307-.09.294-.346.555-.454.447-1.133.207-.21.134-.525.668-.241.26-.3.548.385 1.422.473 1.462.091.608-.006.507-.264.548-.604.783-.442.574-.85 1.034-.25.254-.586.3-1.132.401-.796.354-.406-1.576-.347-1.345-.286-1.11-.504-1.954-.426-1.658-.427-1.655-.386-1.501-.39-1.511-.167-.22-1.169-.714-1.076-.657-1.12-.747-1.215-.81-.195-1.02-.623-1.539-.657-.859-.247-.225-1.325-.555-.765-.408-.21-.236-.148-.627-.545-1.244-.622-1.131-.229-.765-.033-.962.122-.695.271-.297 1.296-.865.6-1.041.743-.39.642-.294.52-.342.463-.55.352-.587.06-.634.149-1.005.235-.702.548-.797-.23-.64-.29-.69.084-1.197-.073-.486-.235-.429-.239-.551-.006-.459.231-1.205.177-.92.28-1.197-.098-.336-.208-.25-.628-.263-.006-.16.155-.175.927-.583.498-.857.418-.179.631-.31-.026-.334-.141-.356 1.65-.403 1.571-1.057.555-.26 3.647-.973.474.068.532.142-.153.363z" transform="translate(-204.936 18.466)" id="path2" />
  </g>
</svg>
