<?xml version="1.0" encoding="UTF-8" standalone="no"?>
<svg width="36.704" height="38.552" version="1.1" id="svg6" sodipodi:docname="uganda.svg" xmlns:inkscape="http://www.inkscape.org/namespaces/inkscape" xmlns:sodipodi="http://sodipodi.sourceforge.net/DTD/sodipodi-0.dtd" xmlns="http://www.w3.org/2000/svg" xmlns:svg="http://www.w3.org/2000/svg">
  <defs id="defs10" />
  <sodipodi:namedview id="namedview8" pagecolor="#ffffff" bordercolor="#666666" borderopacity="1.0" objecttolerance="10.0" gridtolerance="10.0" guidetolerance="10.0" inkscape:pageshadow="2" inkscape:pageopacity="0.0" inkscape:pagecheckerboard="0" />
  <g style="display:inline" id="g4">
    <path style="display:inline;fill:#5fefdc;fill-opacity:1;fill-rule:evenodd;stroke:#505050;stroke-width:.525892;stroke-linecap:round;stroke-linejoin:round;stroke-miterlimit:4;stroke-dasharray:none;stroke-opacity:1" class="polygon" d="M381.599 237.915h-20.667l-.45.086-.462.294-.494.12-.526-.067-.067.068-.267-.011h-.385l-.348.08-.265.26-.271.441-.487.501-.381.448-.323.32-.742.522-.404.153h-.201l-.123-.094-.232-.668-.144-.107-1.441.347-.218.01.02-.206-.106-1.573-.014-.962.188-.6.11-.695.013-.615.264-1.043-.097-.62.342-2.192.09-.354.132-1.06.214-.327.188-.127.246-.648.472-1.037.328-.535-.071-1.168.053-.794.075-.174.698-.294.906-.734.382-.864.54-.548 1.048-.354h.002l3.102-2.965 1.444-1.598.627-.818.02-.294.12-.388-.251-.3-.3-.274-.1-.254-.26-.127h-.37l-.246-.18-.278-.36-.279-.228h-.88l-.678-.367.006-.501.265-.987.515-1.129.026-.314-.072-.267-.124-.227-.233-.227-.217-.267.169-.812.324-.797.266-.4.26-.448-.075-.367-.379-.18.198-.355.409-.6.793-.609.696-.407h.465l.905.32.818.381h.45l.545-.16 1.13-.675.271.213.331.408.358.678.71.307.343.214.244.067.135-.067.27-.535.326-.287.602-.367 1.33-.294.95-.086.402-.067.674-.173 1.063-.548 1.048.704 1.137.134h1.102l.336-.214.193-.167 1.156-1.159 1.566-1.57 1.042 2.212.359.127-.047.193-.088.187.682.535.84.28.3.274.026.294-.284 1.293.054.367.271 1.297.5.287.444 1.304.896.554.128.16.207.635.274.692.215.16.13.067.265.734-.153.414.207 1.254.335 1.121.09 1.34.004.587-.013.36-.075.508-.16.294-.287.288-.316.447-.277.481-.173.234.134.723-.033.187-.073.094-.406.113-.519.194-.315.194-.446.367-.357.394-.473 1.169-.79.908-.134.3-.746.542-.328.668-.208.82-.29.587-.628.807-.145 1.274.02 2.544-.163 2.896z" transform="translate(-352.338 -202.841)" id="path2" />
  </g>
</svg>
