<?xml version="1.0" encoding="UTF-8" standalone="no"?>
<svg width="56.739" height="46.252" version="1.1" id="svg6" sodipodi:docname="western_sahara.svg" xmlns:inkscape="http://www.inkscape.org/namespaces/inkscape" xmlns:sodipodi="http://sodipodi.sourceforge.net/DTD/sodipodi-0.dtd" xmlns="http://www.w3.org/2000/svg" xmlns:svg="http://www.w3.org/2000/svg">
  <defs id="defs10" />
  <sodipodi:namedview id="namedview8" pagecolor="#ffffff" bordercolor="#666666" borderopacity="1.0" objecttolerance="10.0" gridtolerance="10.0" guidetolerance="10.0" inkscape:pageshadow="2" inkscape:pageopacity="0.0" inkscape:pagecheckerboard="0" />
  <g style="display:inline" id="g4">
    <path style="display:inline;fill:#e7e536;fill-opacity:1;fill-rule:evenodd;stroke:#505050;stroke-width:.525892;stroke-linecap:round;stroke-linejoin:round;stroke-miterlimit:4;stroke-dasharray:none;stroke-opacity:1" d="M96.24 46.523v.005l.023.24H67.148l-.462 1.271-1.025 1.923-.574 1.83-.536.92-.8.615-1.712 1.03-1.444.486-.964.793-.678.288-.378.608-.349 1.588-.53.78-.7 1.742-.588.96-.32 1.228L56 65.158l-.322 1.014-.9 1.143-1 .466-2.656 2.714-1.278.799-.812.725-.357.692-.187.475.456-.38.382-.49.358-.279.084.327-.113.288-.912 1.314-.362.849-.78 1.323-.645.865.269.441-.214.582-.684.74-.364 1.604-1.04 1.744-1.133.392-.73.766-.918 1.736-.468 3.112-.1.019-.048.294-.596 3.475.34.341-.107-.622.143-.73.245-.897.275-1.247.857-.002 1.532-.002 1.533-.002 1.53-.002h1.533l1.53-.002 1.532-.002 1.533-.002 1.53-.002 1.533-.002 1.532-.002 1.53-.002 1.533-.002h1.53l1.533-.002 1.533-.002 1.53-.002h1.01l-.059-.887-.047-.705-.068-.947-.066-.94-.061-.942-.06-.885-.06-.884-.053-.82-.053-.753-.088-.434-.325-.858-.07-.428.088-.447.218-.428.596-.776.906-.594 1.043-.69.797-.528.407-.125 1.247-.181.98-.4.953-.389.4-.214.048-.727v-16.16h22.271v-3.355l-.002-1.506-.002-1.322-.002-1.323v-3.552z" transform="translate(-40.668 -46.26)" id="path2" />
  </g>
</svg>
