<?xml version="1.0" encoding="UTF-8" standalone="no"?>
<svg height="63.857" width="390" version="1.1" id="svg44" sodipodi:docname="antarctica.svg" xmlns:inkscape="http://www.inkscape.org/namespaces/inkscape" xmlns:sodipodi="http://sodipodi.sourceforge.net/DTD/sodipodi-0.dtd" xmlns="http://www.w3.org/2000/svg" xmlns:svg="http://www.w3.org/2000/svg">
  <defs id="defs48" />
  <sodipodi:namedview id="namedview46" pagecolor="#ffffff" bordercolor="#666666" borderopacity="1.0" objecttolerance="10.0" gridtolerance="10.0" guidetolerance="10.0" inkscape:pageshadow="2" inkscape:pageopacity="0.0" inkscape:pagecheckerboard="0" />
  <g style="fill:#1bd0d2;fill-opacity:1;stroke:#128d8e;stroke-width:2.20333433;stroke-miterlimit:4;stroke-dasharray:none;stroke-opacity:1" id="g42">
    <g style="fill:#1bd0d2;fill-opacity:1;fill-rule:evenodd;stroke:#128d8e;stroke-width:2.20333433;stroke-miterlimit:4;stroke-dasharray:none;stroke-opacity:1" id="g4">
      <path style="fill:#1bd0d2;fill-opacity:1;stroke:#128d8e;stroke-width:2.20333433;stroke-miterlimit:4;stroke-dasharray:none;stroke-opacity:1" d="M1771.988 1227.963c-7.386-7.637 3.85 12.316 2.958 2.52 13.341-2.694-8.567-.082-1.37-4.25z" transform="translate(-121.482 -277.485) scale(.22693)" class="antxx tf" id="path2" />
    </g>
    <g class="antxx aq" style="fill:#1bd0d2;fill-opacity:1;fill-rule:evenodd;stroke:#128d8e;stroke-width:2.20333433;stroke-miterlimit:4;stroke-dasharray:none;stroke-opacity:1" id="g34">
      <path style="fill:#1bd0d2;fill-opacity:1;stroke:#128d8e;stroke-width:2.20333433;stroke-miterlimit:4;stroke-dasharray:none;stroke-opacity:1" d="M1042.778 1323.213c-1.61-3.602-13.715-1.244 0 0zm2.66.15c4.847-.825-3.254-.97 0 0zm1099.44 125.42c-1.84-2.116-8.142 3.112 0 0z" transform="translate(-121.482 -277.485) scale(.22693)" id="path6" />
      <path style="fill:#1bd0d2;fill-opacity:1;stroke:#128d8e;stroke-width:2.20333433;stroke-miterlimit:4;stroke-dasharray:none;stroke-opacity:1" d="M2150.788 1448.213c-10.8-.973-1.706 2.558 0 0zm-1.149-1.52c3.68-6.897 30.55-1.224 0 0zm33.549-60.4c-2.849.29 3.935-1.286 0 0zm2.16-.29c.504.12.504.12 0 0zm32.61 31.17c5.233-3.532-9.345 4.014 0 0zm32.47-51.55c1.124-2.927-3.707 4.09 0 0zm.15 2.67c-.48.214-.48.214 0 0zm1.87 6.19c2.195-3.679-6.007 4.212 0 0zm-362.73-21.39c14.313-.014-8.23-9.364 0 0zm7.77 7.63c7.856-5.152 8.86 2.5 0 0zm16.991-2.51c2.483-4.31 3.642 4.516 0 0zm-41.831 7.27c7.47-1.726-3.308-1.097 0 0zm12.741 3.74c.746-.407.746-.407 0 0zm8.719-4.25c.286-.12.286-.12 0 0zm2.16-.43c.48-.143.48-.143 0 0zm2.59-2.09c.48-.12.48-.12 0 0zm-47.02-1.22c-1.982.574 2.239 1.796 0 0zm-445.1 31.97c1.781 4.38 11.583-3.45 0 0zm-16.06.43c5.654-1.198 3.467 3.206 0 0zm-172.29 28.511c11.867 8.822-13.519 3.48 0 0zm89.42-21.451c11.68-4.697-12.466-2.28 0 0zm4.319-5.839c-.24-.047-.24-.047 0 0zm14.471 6.049c.793-1.766-2.164.702 0 0zm8.93-2.88c-.263.05-.263.05 0 0zm3.96-.36c5.346-1.618-4.38-2.63 0 0zm-60.191.36c2.735.162-2.413.482 0 0zm8.061-1.37c5.478-2.665 1.18 2.735 0 0zm16.99-.93c6.53-.73.16 2.837 0 0zm-315.14 62.2c30.683-12.163-20.707-5.85 0 0zm47.089 2.16c-49.23-2.774 7.271 12.109 5.54-1.538-.728-.435-7.404-1.924-5.54 1.538zm107.641-8.2c-11.46-1.877-30.249.08 0 0zm-61.561 8.2c11.127-23.333 45.696 1.322 39.489-2.275 11.773 6.852-76.42 11.835-39.489 2.275zm-510.625-20.95c10.505-1.31-3.574 2.33 0 0zm12.025.79c3.952-1.328-14.905.62 0 0zm-1.8-.64c-.744-.073-.744-.073 0 0zm4.319 1.94c-1.728-.096-1.728-.096 0 0zm.792-1.94c-1.416-.24-1.416-.24 0 0zm.792 4.17c-1.296-.093-1.296-.093 0 0zm-1.439-4.68c-.624-.093-.624-.093 0 0z" transform="translate(-121.482 -277.485) scale(.22693)" id="path8" />
      <path style="fill:#1bd0d2;fill-opacity:1;stroke:#128d8e;stroke-width:2.20333433;stroke-miterlimit:4;stroke-dasharray:none;stroke-opacity:1" d="M594.216 1443.963c-2.82-5.356-20.63.434 0 0zm-3.599-4.54c-1.176-.216-1.176-.216 0 0zm-1.008 4.75c-.576-.047-.576-.047 0 0z" transform="translate(-121.482 -277.485) scale(.22693)" id="path10" />
      <path style="fill:#1bd0d2;fill-opacity:1;stroke:#128d8e;stroke-width:2.20333433;stroke-miterlimit:4;stroke-dasharray:none;stroke-opacity:1" d="M590.977 1442.013c-.456-.097-.456-.097 0 0zm2.376-.93c7.082-.769-6.581-1.142 0 0zm1.368 1.8c-.648-.143-.648-.143 0 0zm-20.664-1.8c-8.078-2.946 30.699 4.514 0 0zm1.512 2.01c2.873-1.917 13.351 2.649 0 0zm10.727-6.4c-1.92-.41-1.92-.41 0 0zm-4.535-4.54c1.464.143 1.464.143 0 0zm11.736-.79c.672.07.672.07 0 0zm74.087-12.89c8.757-1.082 1.47 2.106 0 0zm50.041 4.68c-.528.167-.528.167 0 0z" transform="translate(-121.482 -277.485) scale(.22693)" id="path12" />
      <path style="fill:#1bd0d2;fill-opacity:1;stroke:#128d8e;stroke-width:2.20333433;stroke-miterlimit:4;stroke-dasharray:none;stroke-opacity:1" d="M657.937 1419.123c-.965-8.216 40.151 10.467 0 0zm21.312.36c36.739-4.783 26.298 12.011 0 0zm34.343 2.3c8.146-4.463 6.142 4.358 0 0zm-76.823 2.52c.672-.073.672-.073 0 0zm3.168-.22c3.482-3.28 14.893 5.588 0 0zm25.56.22c-10.062-4.552-4.695 3.008 0 0zm101.88-1.659c-26.496-14.234-33.494.19 0 0zm4.971-6.831c-10.218-5.782-2.85 2.34 0 0zm44.71-4.47c9.669-.982-3.651 3.043 0 0zm9.359.29c.48-.047.48-.047 0 0zm-50.33-2.739c11.992-2.482 27.722.127 23.33-.722 18.147-1.79 11.213 6.85-13.653 1.278zm74.161 4.969c-6.588-2.12-3.958 3.9 0 0zm-13.82-2.02c7.487-2.908 6.804 8.676 0 0z" transform="translate(-121.482 -277.485) scale(.22693)" id="path14" />
      <path style="fill:#1bd0d2;fill-opacity:1;stroke:#128d8e;stroke-width:2.20333433;stroke-miterlimit:4;stroke-dasharray:none;stroke-opacity:1" d="M798.188 1412.283c-12.287-3.525-12.663 3.822 0 0zm5.84-.15c-.84.12-.84.12 0 0zm22.82 1.301c-.553.07-.553.07 0 0zm74.739-3.391c8.738-2.662 10.105 4.236 0 0zm9.651 6.05c8.29-2.842 1.26 4.203 0 0zm12.95-2.949c20.762 3.456-2.612 8.19 0 0zm10.81 2.449c4.073-.3-1.023 3.925 0 0zm-29.09-22.39c1.232-5.38 19.8 4.648 0 0zm13.32 4.46c2.916 8.664-21.36 1.681 0 0zm2.66-6.26c-9.527-3.803 9.233-.03 0 0zm19.73-15.77c2.737-1.295-2.782-.094 0 0zm.86 2.301c-.263-.167-.263-.167 0 0zm10.37-38.661c3.08-1.753-2.672-.375 0 0zm12.31-3.6c3.327-1.188-5.025-.544 0 0zm16.13 12.02c5.752-1.492-7.997-.785 0 0zm-48.89 29.161c10.782-4.896-8.482-14.831 0 0z" transform="translate(-121.482 -277.485) scale(.22693)" id="path16" />
      <path style="fill:#1bd0d2;fill-opacity:1;stroke:#128d8e;stroke-width:2.20333433;stroke-miterlimit:4;stroke-dasharray:none;stroke-opacity:1" d="M936.148 1370.373c2.168-1.354-3.894-2.418 0 0zm1.149-4.32c2.337-1.793-3.466-2.281 0 0zm2.741 11.091c5.12-2.516-6.584-1.603 0 0zm-1.01-14.401c5.179-4.696-3.242-2.42 0 0zm9.36-7.92c12.684-3.845-13.08-5.046 0 0zm-2.091-13.389c.48-.553.48-.553 0 0z" transform="translate(-121.482 -277.485) scale(.22693)" id="path18" />
      <path style="fill:#1bd0d2;fill-opacity:1;stroke:#128d8e;stroke-width:2.20333433;stroke-miterlimit:4;stroke-dasharray:none;stroke-opacity:1" d="M950.688 1355.403c1.746-3.425-4.269.739 0 0zm-.65-12.1c3.768-.587-2.15-1.607 0 0zm3.39 9.07c5.43-4.343-4.942-5.538 0 0zm6.76-14.76c-12.807-3.116-1.737 2.676 0 0z" transform="translate(-121.482 -277.485) scale(.22693)" id="path20" />
      <path style="fill:#1bd0d2;fill-opacity:1;stroke:#128d8e;stroke-width:2.20333433;stroke-miterlimit:4;stroke-dasharray:none;stroke-opacity:1" d="M955.007 1349.063c.217-.263.217-.263 0 0zm3.46-8.28c.752-1.192-2.486-1.277 0 0zm2.731 6.63c-.36-.553-.36-.553 0 0zm.719-10.16c.158-2.121-3.71.918 0 0z" transform="translate(-121.482 -277.485) scale(.22693)" id="path22" />
      <path style="fill:#1bd0d2;fill-opacity:1;stroke:#128d8e;stroke-width:2.20333433;stroke-miterlimit:4;stroke-dasharray:none;stroke-opacity:1" d="M962.788 1336.533c2.939-.642-5.322-1.256 0 0zm4.46-1.65c8.205-2.753-3.38-2.681 0 0zm16.2-7.56c9.626-1.764-7.203-3.602 0 0zm1.15 14.69c2.244-3.065-6.403-.031 0 0zm-.5 10.65c5.425-1.42-3.871-1.566 0 0z" transform="translate(-121.482 -277.485) scale(.22693)" id="path24" />
      <path style="fill:#1bd0d2;fill-opacity:1;stroke:#128d8e;stroke-width:2.20333433;stroke-miterlimit:4;stroke-dasharray:none;stroke-opacity:1" d="M985.248 1344.093c17.25-.031-3.396-5.557 0 0z" transform="translate(-121.482 -277.485) scale(.22693)" id="path26" />
      <path style="fill:#1bd0d2;fill-opacity:1;stroke:#128d8e;stroke-width:2.20333433;stroke-miterlimit:4;stroke-dasharray:none;stroke-opacity:1" d="M987.908 1345.173c4.403-2.3-4.878-1.39 0 0zm2.67-17.92c-.287-.29-.287-.29 0 0z" transform="translate(-121.482 -277.485) scale(.22693)" id="path28" />
      <path style="fill:#1bd0d2;fill-opacity:1;stroke:#128d8e;stroke-width:2.20333433;stroke-miterlimit:4;stroke-dasharray:none;stroke-opacity:1" d="M545.401 1442.813c13.874-3.2 53.262-8.03 50.041-.149 21.548-.344-43.182-8.785-6.741-6.106 4.584-5.262 37.793-12.585 59.887-9.855 31.9 1.928 72.56-3.897 86.336-3.122 16.653 4.749 10.952-1.29 28.294 5.57 30.864 1.445 71.069 2.106 26.625-8.123-3.808-2.228 28.237-2.796-8.49-4.286-7.218-7.977 49.427 3.717 68.446-1.082 1.234-7.247 32.923 8.013 50.272 3.602-.913-6.676 38.192 5.547 58.679-3.758 13.182-12.613-25.773-28.121-12.878-32.964 2.227-7.496-14.184-6.929-2.955-17.294 10.19-1.89 2.274-9.948 13.245-10.137-4.301-3.901 38.734-18.12 19.065-8.287.632 4.155-28.451 15.981-6.243 17.214-1.134 4.933-18.017 11.267-14.62 5.249-8.789 2.34 4.724 21.75 9.366 11.915-4.211-2.184 29.02 21.517 22.532 17.755 17.303 6.303-6.747 7.188 12.06 10.742 14.296 6.749-4.548 5.26 8.68 9.555-9.595 10.67 1.762 9.66-26.866 17.14-20.592 7.155-80.783-8.436-22.461 7.942 21.217 7.846-73.109-4.265-6.912 7.177-41.911-3.56-26.038 4.318-5.35 3.907 44.314 3.082-19.796 5.27 26.661 6.532 55.89 9.868 110.432 17.992 165.404 5.862 46.618 1.943 84.684-17.709 27.395-11.919-28.635-10.904 31.416-20.63 48.537-21.379 22.23 1.664 46.882-19.282 23.192-14.326 20.029-6.65 20.783-14.5 29.311-19.871 21.446 8.568 21.63-5.734 45.455 3.055 23.369 2.16 53.397-15.828 71.545-5.255 42.224-9.438 93.053 6.867 131.299-15.565 14.782 8.498 14.604 14.187 28.102 3.593 25.693-13.6 49.663-7.248 57.352-15.972 7.472 1.228 43.309-14.461 49.498 1.517 13.454 8.513 58.307 25.332 61.103 11.276.106 4.965-24.299 15.295-12.643 12.808-27.43 20.11 10.324 11.674 27.168-3.114 22.117-1.167 36.011-14.497 58.36-16.547 21.278-5.8 48.367-11.382 74.885-7.682 26.26 4.12 48.178-10.555 76.824-1.422 21.72-.435 43.134-5.666 64.599 3.38 27.66-5.883 39.173 1.472 60.073-2.551 31.037.806 39.912-18.306 44.57-1.828 20.097.108 44.421 9.883 42.239 10.226 10.474 1.189 14.877 12.977 33.624 6.802-2.147 4.75 20.683.682 23.905 11.889 11.52 5.201 37.247-3.053 32.334 7.297 13.09 4.294-21.945 15.804-37.235 16.749-14.416 4.322-34.192 8.253-51.052 16.762-17.318 4.98-7.195 25.533-7.69 15.503-30.439.405-71.153 11.259-54.645 12.154-3.17 1.605-14.653 5.294 1.705 11.083-5.563 4.215 17.994 5.093 39.532 7.698 22.41 1.981 61.894-.796 16.842 10.307-51.78 18.096-107.635 6.773-161.467 9.921H647.059c-27.77-5.902-89.494-24.044-29.01-16.252 22.675 2.702 97.978.157 100.807-1.248-42.014 5.336-77.862-11.001-116.427-17.156 4.861-1.243 72.867-.46 19.116-9.462-35.137-4.755-55.824-6.68-76.144-15.474" transform="translate(-121.482 -277.485) scale(.22693)" id="path30" />
      <path style="fill:#1bd0d2;fill-opacity:1;stroke:#128d8e;stroke-width:2.20333433;stroke-miterlimit:4;stroke-dasharray:none;stroke-opacity:1" d="M920.087 1404.573c11.12-3.049 22.124-.085 6.395-13.646-7.66-22.92 64.829 36.3 7.398 19.419 26.093-3.16-6.545-.694-13.793-5.773zm53.641-47.59c3.084 1.59-4.878-.267 0 0zm2.16-7.629c5.5-6.158 11.522 6.903 0 0zm5.829 34.699c-2.385 0 1.826-1.179 0 0zm2.45 9.15c-.182-1.911 2.064 1.05 0 0zm5.901 3.38c5.562.869-4.897 1.593 0 0zm2.17 2.88c7.547 2.982-2.706.211 0 0zm-12.46-8.279c-1.411-6.355-8.988-6.051 0 0zm-25.42-15.121c.53-.144.53-.144 0 0zm-395.364 79.702c-26.496-14.234-33.494.19 0 0z" transform="translate(-121.482 -277.485) scale(.22693)" id="path32" />
    </g>
    <g style="fill:#1bd0d2;fill-opacity:1;stroke:#128d8e;stroke-width:2.20333433;stroke-miterlimit:4;stroke-dasharray:none;stroke-opacity:1" id="g40">
      <g style="fill:#1bd0d2;fill-opacity:1;fill-rule:evenodd;stroke:#128d8e;stroke-width:2.20333433;stroke-miterlimit:4;stroke-dasharray:none;stroke-opacity:1" id="g38">
        <path style="fill:#1bd0d2;fill-opacity:1;stroke:#128d8e;stroke-width:2.20333433;stroke-miterlimit:4;stroke-dasharray:none;stroke-opacity:1" d="M1082.377 1276.413c-3.21-8.505-21.762-9.636 0 0z" transform="translate(-121.482 -277.485) scale(.22693)" class="antxx gs" id="path36" />
      </g>
    </g>
  </g>
</svg>
