<?xml version="1.0" encoding="UTF-8" standalone="no"?>
<svg height="99.164" width="135.307" version="1.1" id="svg50" sodipodi:docname="oceania.svg" xmlns:inkscape="http://www.inkscape.org/namespaces/inkscape" xmlns:sodipodi="http://sodipodi.sourceforge.net/DTD/sodipodi-0.dtd" xmlns="http://www.w3.org/2000/svg" xmlns:svg="http://www.w3.org/2000/svg">
  <defs id="defs54" />
  <sodipodi:namedview id="namedview52" pagecolor="#ffffff" bordercolor="#666666" borderopacity="1.0" objecttolerance="10.0" gridtolerance="10.0" guidetolerance="10.0" inkscape:pageshadow="2" inkscape:pageopacity="0.0" inkscape:pagecheckerboard="0" />
  <g style="fill:#e7bb36;fill-opacity:1;stroke:#8f6f11;stroke-width:.375;stroke-miterlimit:4;stroke-dasharray:none;stroke-opacity:1" id="g6">
    <path style="fill:#e7bb36;fill-opacity:1;stroke:#8f6f11;stroke-width:.5;stroke-miterlimit:4;stroke-dasharray:none;stroke-opacity:1" d="M477.158 157.746c-.348.003-.698.139-1.207.41-.43.249-.906.543-1.064.656-.181.159-.316.16-.407.024-.158-.249-1.017-.318-1.017-.092 0 .385.995 1.447 1.357 1.447.634 0 1.131.25 1.131.567 0 .656.767.973 2.102.883.95-.068 1.29-.047 1.177.134-.09.159-.385.205-.68.137-.316-.09-.632 0-.79.203-.159.204-.474.295-.678.227-.452-.136-1.13.067-1.13.361 0 .113.247.317.564.43.316.113.566.36.566.564 0 .181.112.34.248.34.113 0 .158.114.09.227-.204.339.114 1.152.363.994.136-.068.384 0 .565.158.18.136.406.204.474.113.09-.09.046-.226-.09-.316-.158-.113-.204-.294-.068-.475.158-.271.316-.248 1.018.069.452.226 1.017.565 1.244.746.226.203.724.407 1.086.43.882.112 4.23 1.72 4.207 2.013-.023.113.113.429.271.678.181.249.317.61.317.836 0 .226.068.408.181.408.09 0 .157.361.18.791 0 .61-.068.791-.385.791-.43 0-1.56 1.45-1.56 1.992 0 .317 2.036.316 2.285-.023.068-.09.474-.226.904-.272.724-.09.86-.023 1.629.994.484.628.699.896 1.027 1.014.24.086.538.096 1.053.096.701-.023 1.312.045 1.402.113.068.09.317.045.543-.068.34-.181.385-.158.317.226a2.609 2.609 0 0 1-.227.678c-.068.136-.045.227.069.227.27 0 .498-.544.498-1.155 0-.226.113-.43.226-.43.136 0 .227-.157.227-.36 0-.182.09-.295.203-.227.113.068.203-.113.203-.407 0-.904 1.652-2.081 2.172-1.539.09.09.542.272.994.385.498.136.927.432 1.062.748.114.272.295.496.385.496.113 0 .182.181.182.43 0 .226.159.543.34.701.18.158.27.362.203.475-.068.113.045.205.226.205.204 0 .406.249.496.543.091.407.387.61 1.178.836.588.158 1.379.27 1.74.248.385 0 .905.137 1.176.318.588.362 2.24.43 2.444.09.09-.136.068-.226-.045-.203-.09.023-.339.023-.52 0-.271-.023-.273-.07-.047-.205.204-.136 0-.293-.633-.496-.814-.272-1.243-.68-.677-.68.52 0 .18-.428-.385-.496-.52-.045-.612-.16-.566-.611.067-.498.022-.522-.588-.409-.611.136-.679.07-.973-.812-.18-.52-.7-1.313-1.152-1.766-.475-.452-.86-1.04-.86-1.289 0-.407.135-.498.791-.498.611 0 .791-.09.791-.406 0-.475-.745-1.245-1.265-1.313-.204-.022-.521-.202-.725-.382-.226-.181-.656-.387-.973-.477-.497-.113-.565-.226-.474-.701.045-.317.182-.565.295-.565.113 0 .203-.157.203-.361 0-.317-.069-.318-.34-.092-.294.249-.43.205-.791-.18-.249-.27-.453-.588-.453-.724s-.09-.204-.203-.113c-.113.068-.362-.046-.543-.227-.204-.18-.542-.338-.791-.338s-.567-.159-.725-.34c-.136-.18-.836-.474-1.537-.677a12.624 12.624 0 0 1-2.193-.883l-.016-.008c-.493-.289-1.026-.467-1.16-.422-.158.068-.295 0-.295-.113s-.43-.271-.928-.362c-.52-.09-1.628-.52-2.465-.972-1.424-.747-1.583-.792-2.216-.498-.385.158-.746.475-.791.7-.068.25-.34.407-.702.407-.316 0-.587.091-.587.182 0 .113-.182.406-.385.677-.226.25-.565.68-.746.928-.181.272-.543.475-.815.475-.384 0-.543-.202-.77-1.084-.158-.588-.339-.928-.384-.77-.158.407-.52.091-.52-.474 0-.408.045-.453.248-.159.204.272.228.25.092-.113-.09-.249-.181-.837-.226-1.312-.113-1.04-.296-1.358-.68-1.2-.158.046-.655-.089-1.107-.337-.498-.26-.842-.392-1.19-.39z" transform="translate(-436.586 -157.496)" id="path2" />
    <path style="fill:#e7bb36;fill-opacity:1;stroke:#8f6f11;stroke-width:.375;stroke-miterlimit:4;stroke-dasharray:none;stroke-opacity:1" d="M369.55 133.749a2.58 2.58 0 0 0-.289.644 4.282 4.282 0 0 1-.475.984 3.627 3.627 0 0 0-.39 1.256c-.034.373-.136.78-.237.899-.085.118-.204.695-.255 1.289-.102 1.289-.678 3.155-1.12 3.647-.186.186-.322.424-.322.526 0 .339-.526.729-.95.729-.271 0-.661-.254-1.085-.678-.374-.374-.815-.679-.984-.679-.17 0-.424-.187-.543-.424-.119-.238-.322-.424-.441-.424-.136 0-.271-.187-.34-.424-.118-.458-.406-.577-.406-.17 0 .17-.306-.034-.832-.526l-.83-.797.338-.356c.187-.204.408-.526.492-.747.085-.22.238-.339.34-.288.101.068.135.22.084.34-.084.22.526.474.78.322.136-.085.069-.882-.101-1.052-.05-.051-.204.017-.356.136-.22.186-.255.152-.255-.238 0-.237.085-.424.187-.407.102.034.373-.288.61-.712.34-.628.357-.78.17-.933-.135-.085-.203-.272-.17-.39.051-.102 0-.204-.101-.204-.102 0-.187.068-.187.153 0 .084-.152.186-.356.237-.254.068-.322.034-.254-.153.118-.322 0-.305-.577.136-.39.288-.56.322-.713.17-.118-.119-.373-.204-.576-.204-.22 0-.492-.102-.611-.22-.119-.136-.322-.204-.441-.153-.102.034-.204-.085-.204-.254 0-.255-.034-.272-.17-.051-.152.22-.203.22-.356-.051-.101-.153-.237-.255-.339-.204-.085.068-.152-.05-.152-.237 0-.306-.051-.323-.425-.187-.237.085-.424.102-.424.051 0-.068-.084-.034-.203.085-.238.237.119.73.44.61.323-.118.493.425.238.73-.152.203-.44.237-1.102.17-.51-.051-.9-.017-.9.067 0 .085-.084.153-.203.153-.305 0-1.136 1.018-1.052 1.272.051.136-.067.306-.254.424-.204.102-.356.272-.356.374 0 .118-.17.373-.373.593-.306.323-.34.441-.153.543.39.255.034.509-.594.424-.339-.034-.73.017-.848.119-.203.17-.22.153-.136-.085.068-.17 0-.305-.17-.373-.152-.051-.27-.204-.27-.322 0-.136-.238-.407-.526-.611-.492-.34-.56-.356-.747-.102-.119.153-.237.255-.271.204-.187-.17-1.17-.255-1.17-.085 0 .085.084.17.169.17.102 0 .17.17.17.373-.017.373-.017.39-.255.068-.237-.306-.254-.306-.254-.034 0 .22-.085.271-.34.186-.288-.084-.339-.034-.339.357 0 .254-.05.424-.102.373-.186-.187-.983.746-1.017 1.187-.017.255-.051.526-.051.61-.017.069-.289.086-.628.018-.39-.068-.577-.051-.509.068.068.085.034.203-.068.271-.118.068-.118.204 0 .441.12.187.12.322.017.322-.084 0-.186.136-.237.289-.034.17-.136-.017-.204-.424-.067-.39-.186-.713-.237-.713-.068 0-.407.289-.747.645-.491.492-.627.78-.627 1.238 0 .458-.153.764-.543 1.205-.305.339-.695.797-.865 1.051-.424.611-1.238 1.001-2.188 1.035-.475.017-.933.136-1.12.305a1.31 1.31 0 0 1-.746.289c-.238 0-.526.118-.645.254-.153.187-.424.238-.865.187-.373-.034-.695 0-.763.085-.051.084-.204.152-.34.152-.135 0-.492.22-.797.492-.288.289-.814.628-1.153.78-.34.17-.713.492-.848.747l-.204.44-.102-.508c-.085-.407-.136-.458-.271-.254-.424.644-.594 1.102-.594 1.56 0 .272-.187.78-.424 1.12-.509.746-.509.899-.119 2.188.39 1.272.306 1.917-.135.967l-.306-.662-.17.424-.169.424-.187-.424c-.17-.373-.186-.322-.101.323.05.407.22.967.356 1.238.152.288.288.899.322 1.39.034.476.119 1.087.17 1.375.068.271.118.73.102 1.018 0 .271-.034 1.425-.051 2.527-.034 1.442-.12 2.053-.255 2.087-.119.05-.22.254-.22.458 0 .509-.458 1.12-.865 1.12-.204 0-.39.169-.492.44-.238.61-.22.747.152.747a.46.46 0 0 1 .424.305c.136.407.679.661 1.663.78.763.085 1.662-.135 1.662-.407 0-.136.543-.356 1.035-.424.153-.017.424-.187.61-.373.425-.424 1.646-.594 3.648-.492l1.458.085.747-.764c.39-.407.865-.746 1.018-.746.152 0 .322-.068.373-.153.05-.084.305-.203.56-.271.27-.051.61-.22.763-.373.203-.187.458-.22.848-.153.56.102 2.9-.424 3.274-.746.102-.085.882-.204 1.747-.272 1.476-.118 1.595-.101 1.985.272.22.203.509.339.627.305.12-.05.51.102.848.322.357.204.73.39.849.39.152 0 .152.051 0 .204-.289.288-.255.814.034.814.39 0 .576 1.544.22 1.764-.237.153-.203.238.271.662.543.475.543.475.594.102.068-.424 1.154-1.51 1.51-1.51.136 0 .594-.34 1.018-.763.424-.424.814-.73.882-.662.05.068 0 .153-.102.187-.119.05-.22.22-.22.39s-.204.424-.442.594c-.237.152-.542.542-.678.865-.136.322-.424.661-.628.73a1.72 1.72 0 0 0-.627.457c-.238.272-.22.289.17.187a3.24 3.24 0 0 1 .729-.119c.17 0 .458-.271.644-.594.204-.322.424-.593.51-.593.338 0 .118.848-.357 1.323-.56.56-.509.746.17.61.39-.084.491-.017.678.458.204.492.204.611-.102 1.154-.288.526-.322.695-.152 1.187.118.323.373.645.576.713.187.085.357.203.357.288 0 .085.305.153.695.153.39 0 .746.085.814.17.051.101.272.254.475.373.323.17.51.135 1.188-.221.44-.237.848-.373.899-.305.05.068.373.271.73.44.338.187.627.442.627.577 0 .204.068.204.356-.067.984-.882 2.782-1.764 3.664-1.764 1.086 0 2.07-.543 2.086-1.137 0-.119.187-.407.425-.662.237-.254.424-.542.424-.661 0-.102.339-.509.763-.9a17.13 17.13 0 0 0 1.56-1.695c1.035-1.29 1.866-2.087 2.647-2.494.339-.187.627-.424.627-.526 0-.102.204-.407.475-.695.764-.832 1.052-1.239 1.052-1.442 0-.119.17-.475.39-.797.967-1.476 1.51-2.477 1.578-2.969.05-.288.203-.814.339-1.187.271-.696.187-1.103-.085-.424-.085.22-.17.322-.17.237-.016-.187.289-1.39.442-1.781.05-.136.084-.322.068-.39-.017-.085.135-.39.322-.713.186-.305.34-.695.322-.865 0-.237-.034-.254-.102-.068-.254.696-.899.815-.899.153 0-.17-.068-.322-.152-.322-.085 0-.187-.238-.238-.51-.068-.288-.22-.508-.356-.508-.136 0-.272-.17-.305-.39-.034-.204-.153-.356-.272-.323-.186.034-.203-.17-.102-.916.102-.916.102-.966-.237-.882-.22.068-.39 0-.441-.152-.085-.22-.153-.22-.373-.034s-.255.119-.22-.475c.033-.424-.069-.865-.238-1.137-.357-.526-.357-.61-.034-.61.17 0 .237-.136.186-.39-.034-.204-.152-.357-.271-.323-.288.068-1.34-.661-1.459-1.018-.05-.17-.186-.254-.34-.186-.118.05-.237 0-.237-.119 0-.102-.067-.153-.152-.102-.255.17-.577-.39-.492-.83.05-.238.017-.476-.068-.527-.068-.05-.085-.17-.034-.271.204-.322.068-1.713-.186-2.002-.255-.271-.289-2.086-.034-2.476.068-.12-.068-.323-.34-.492-.407-.272-.424-.323-.17-.51.204-.152.238-.237.086-.39-.12-.118-.323-.203-.458-.186-.187 0-.17.051.067.153.34.152.34.152 0 .17a1.46 1.46 0 0 1-.458.016c-.084 0-.135.051-.135.153 0 .085-.12.17-.272.17-.203 0-.237-.17-.203-.848.034-.628.118-.832.271-.764.17.068.22-.085.204-.56-.017-.339-.017-.661 0-.712.118-.356.118-.679-.017-.679-.17 0-.22.34-.17 1.17.034.34-.017.527-.119.459-.102-.051-.152-.238-.118-.407.017-.153-.034-.373-.12-.475-.169-.238-.118-.594.12-.797.101-.085.05-.12-.12-.051-.288.084-.729-.424-.542-.628.05-.05.05-.322-.017-.61-.119-.543-.424-.68-.73-.323zm-40.067 22.781c0 .136-.034.255-.068.255s-.102-.12-.17-.255c-.05-.136-.017-.254.068-.254.102 0 .17.118.17.254zm32.23 17.302c-.12.153-.255.22-.289.187-.119-.119.119-.441.323-.441.101 0 .101.102-.034.254zm-2.443 3.783c-.238.356-.475.967-.509 1.357-.05.373-.17.848-.271 1.035-.102.203-.17.661-.136 1.018.034.593.085.678.526.763.526.102 1.645-.322 1.645-.61 0-.12.085-.12.22 0 .17.135.34.067.68-.306.254-.254.457-.594.457-.746 0-.153.136-.272.323-.272.203 0 .39-.152.458-.39.067-.203.288-.645.508-.984.526-.831.306-1.018-.83-.695-1.494.407-1.544.407-1.9.085a2.602 2.602 0 0 0-.51-.408c-.084-.033-.152-.17-.118-.288.085-.356-.068-.22-.543.441z" transform="translate(-436.586 -157.496) scale(1.33333)" id="path4" />
  </g>
  <g style="fill:#4045d0;fill-opacity:.56329112;stroke:none" id="g48">
    <path style="fill:#e7bb36;fill-opacity:1;stroke:#8f6f11;stroke-width:2.20717216;stroke-miterlimit:4;stroke-dasharray:none;stroke-opacity:1" d="M2379.506 1195.268c-4.807-.17-4.19 5.266 0 0zm37.01-30.959c1.572-4.544-9.352 7.085.663.894-.181-1.023-2.665.395-.663-.894zm-4.25-7.561c2.075-.524 2.163 1.814 8.868 3.931 11.524 3.376 22.553-6.91 31.688-14.814 12.442-11.495 17.87-3.176 23.042-13.934 11.092-5.018 25.29-19.214 19.88-16.966-3.369 2.525 3.133-4.731-6.374 1.385-.057-5.574 3.677-10.259-7.152-.964-12.679 9.571-25.673 19.407-41.543 23.93-6.787 3.498-18.706 9.05-20.346 12.33-6.208 1.068 1.08.994-8.063 5.103z" transform="translate(-476.705 -172.378) scale(.22653)" id="path8" />
    <path style="fill:#e7bb36;fill-opacity:1;stroke:#8f6f11;stroke-width:2.20717216;stroke-miterlimit:4;stroke-dasharray:none;stroke-opacity:1" d="M2497.806 1111.32c-3.445 1.46-1.92 3.26 0 0zm2.37 4.969c6.407 7.502 23.399-14.588 31.754-18.987 4.924 3.642 24.682-22.006 4.755-9.188-12.18-1.825.756-20.528-9.426-6.892-4.286-3.984 3.39-14.647 1.287-15.915-3.348-2.907-3.95-6.678-6.904-7.43 1.2 11.15.521 4.433 1.123 16.3 6.255-4.867-3.997 3.247 1.602 5.458-4.268 5.356-10.465 17.343-20.296 20.764 13.214 7.096-3.516 14.03-3.895 15.884" transform="translate(-476.705 -172.378) scale(.22653)" id="path10" />
    <path style="fill:#e7bb36;fill-opacity:1;stroke:#8f6f11;stroke-width:2.20717216;stroke-miterlimit:4;stroke-dasharray:none;stroke-opacity:1" d="M2528.256 1077.409c-3.244.013.014 1.423 0 0zm5.111-5.981c-2.23 2.56.373 2.791 0 0zm8 68.401c4.812-.038 2.959-4.995 0 0zm.859 2.589c.264-.24.264-.24 0 0zm-169.49-222.84c1.636-2.955-1.881-2.919 0 0zm16.85 15.921c1.422-.32-.534-3.565 0 0z" transform="translate(-476.705 -172.378) scale(.22653)" id="path12" />
    <path transform="translate(-483.479 -182.589) scale(.22653)" d="M2308.388 902.813c.483-.958.345-1.988 0-2.961-.785 1.058-.327 1.845 0 2.961m5.69 2.8.44-.431c-.41-.291-.556-.147-.44.431m20.88 3.6c.28-.319.569-.629.87-.93-.568.023-.889.36-.87.93m.29-3.45c.794-.309 1.56-.767 2.021-1.51-.554.704-1.598.664-2.021 1.51m2.66-2.02c1.214-.701 2.161-2.196 2.24-3.601-.24 1.41-1.524 2.436-2.24 3.601m-46 3.31a3.043 3.043 0 0 0 1.08-.36c-.202-.75-1.15-.846-1.15-1.664a4.306 4.306 0 0 0-.51-.926 4.907 4.907 0 0 0-.07-1.51c-1.117.416-1.3 1.139-1.404 2.23-.078.81-1.334 1.308-.896 2.161 1.064-.269 1.911-.367 2.95.069" style="fill:#4045d0;fill-opacity:.56329112;stroke:none" id="path14" />
    <path transform="translate(-483.479 -182.589) scale(.22653)" d="M2297.958 903.173c-.227-.969-1.304-.986-1.52 0-.733-.979-1.824.039-2.764-.235-.396-.115-1.618-1.633-1.909-.734-.551 1.704 1.639 5.897 3.763 5.419 1.207-.272 3.638-1.854 4.022-3.113.166-.54 1.137-2.217-.303-2.497-1.01-.198-1.955-.118-1.289 1.16m49.24 252.5c.364-.211.655-.497.87-.859-.572-.03-.893.286-.87.859m1.59-.79c.405-.069 1.674-1.169.835-1.504-.72-.287-2.604.098-2.354 1.145.591-.242 1.097-.122 1.519.359m-57.82-38.16c.766-.21 1.34-.779 1.972-1.224 1.014-.713 1.543-.235 2.619-.308.875-.06 1.599-1.097.31-1.273a.585.585 0 0 0-.368.335c-.497.398-1.412-.349-1.941-.34 1.881-1.776-5.813-.336-6.165-.237-.747.209-2.901 1.429-1.747 2.469 1.521 1.372 3.86-1.065 5.32.578m28.94 33.84c-.207.352-.397.711-.57 1.08 1.654-.098 3.578-2.301 3.58-3.985.001-1.402-1.206.099-1.39.245-.732.583-1.685 1.646-1.62 2.66m28.3 0c-.054.445-.507 2.259.331 2.285 1.703.056 1.711-1.706 2.619-2.575-.985-.162-1.02-1.3-1.65-1.87-.811.481-.954 1.368-1.3 2.16m-40.46-244.52-.29-.71c.841.082.879.17.29.71" style="fill:#4045d0;fill-opacity:.56329112;stroke:none" id="path16" />
    <path style="fill:#e7bb36;fill-opacity:1;stroke:#8f6f11;stroke-width:2.20717216;stroke-miterlimit:4;stroke-dasharray:none;stroke-opacity:1" d="M2351.856 852.769c1.941-1.515-1.29-2.226 0 0zm.221-5.04c2.114-1.304-1.414-1.06 0 0zm1.009.65c1.795-2.034-1.523-.716 0 0zm11.52-13.25c.443-2.656-7.987-3.647 0 0z" transform="translate(-476.705 -172.378) scale(.22653)" id="path18" />
    <path style="fill:#e7bb36;fill-opacity:1;stroke:#8f6f11;stroke-width:2.20717216;stroke-miterlimit:4;stroke-dasharray:none;stroke-opacity:1" d="M2364.316 833.038c1.466-1.936-4.432-.087 0 0z" transform="translate(-476.705 -172.378) scale(.22653)" id="path20" />
    <path style="fill:#e7bb36;fill-opacity:1;stroke:#8f6f11;stroke-width:2.20717216;stroke-miterlimit:4;stroke-dasharray:none;stroke-opacity:1" d="M2365.246 832.609c.487-1.076-2.372-.875 0 0zm.51-2.95c.388-1.129-1.936.252 0 0zm2.23-2.38c-.24-.24-.24-.24 0 0zm16.71-26.5c2.773-2.42-1.745-2.882 0 0zm8.631 5.98c2.655-1.582-2.668-3.303 0 0zm6.339 3.459c2.822-3.548-4.685-3.572 0 0zm-.22-30.319c1.277.645.025-2.077 0 0zm6.921 31.179c7.586 6.768 24.595-1.013 24.69-8.425 8.82-6.771-6.532-9.783-4.067-.194-4.568 6.969-12.121 4.2-11.632 1.685 2.135 7.96-22.489-1.513-8.99 6.935zm5.829-10.66c.577-1.38-1.97.332 0 0zm2.52-27c.801-2.717-3.257-1.763 0 0zm.29 68.55c1.514-4.776-4.164-2.07 0 0z" transform="translate(-476.705 -172.378) scale(.22653)" id="path22" />
    <path style="fill:#e7bb36;fill-opacity:1;stroke:#8f6f11;stroke-width:2.20717216;stroke-miterlimit:4;stroke-dasharray:none;stroke-opacity:1" d="M2418.746 843.617c1.515-6.748-7.957-.2 0 0zm-2.16-62.348c5.262 5.528 3.877-4.334 0 0zm1.51 70.49c1.353-1.897-2.213-.047 0 0z" transform="translate(-476.705 -172.378) scale(.22653)" id="path24" />
    <path style="fill:#e7bb36;fill-opacity:1;stroke:#8f6f11;stroke-width:2.20717216;stroke-miterlimit:4;stroke-dasharray:none;stroke-opacity:1" d="M2418.896 846.068c7.233 5.191-2.117-5.658 0 0zm-.44 5.9c2.507-.569-.455-1.216 0 0zm3.24-15.979c.439-6.137-1.096-2.84 0 0zm.65-50.61c3.419.15.303-1.193 0 0z" transform="translate(-476.705 -172.378) scale(.22653)" id="path26" />
    <path style="fill:#e7bb36;fill-opacity:1;stroke:#8f6f11;stroke-width:2.20717216;stroke-miterlimit:4;stroke-dasharray:none;stroke-opacity:1" d="M2436.456 792.938c-5.025-7.178-22.174-15.458-5.728-3.93 5.821 2.822 8.702 20.194 7.342 4.944l-.615-.762zm-4.25 59.321c3.098-1.258-4.826-.967 0 0zm2.02-12.812c4.074-2.292-5.872-3.256 0 0zm.94 17.782c.466-1.014-2.171-.754 0 0zm2.3 3.099c4.383-2.005-6.921-3.428 0 0zm-.94-72.799c.578-2.193-1.646-1.802 0 0zm5.33 71c4.765-.541-3.095-1.256 0 0zm8.721-51.77c2.46-4.108-1.942-5.547 0 0zm2.369 6.62c10.61 16.05 2.351-12.255-1.764-3.822l.582 2.023z" transform="translate(-476.705 -172.378) scale(.22653)" id="path28" />
    <path style="fill:#e7bb36;fill-opacity:1;stroke:#8f6f11;stroke-width:2.20717216;stroke-miterlimit:4;stroke-dasharray:none;stroke-opacity:1" d="M2458.206 821.229c2.509-.827-2.482-1.032 0 0zm2.52-1.22c0-3.008 0-.833 0 0zm-70.28-41.11c2.468-5.48 9.437.36 0 0zm74.31 49.46c2.59-3.494-3.952-3.947 0 0zm-1.01 2.229c.92-1.078-1.649-4.806 0 0zm2.661-9.429c10.438 9.27-3.339-9.536-1.747-2.065zm1.589 8.929c2.459-4.738-4.313-1.662 0 0zm1.29 5.041c.814-3.252-1.647-3.808 0 0z" transform="translate(-476.705 -172.378) scale(.22653)" id="path30" />
    <path style="fill:#e7bb36;fill-opacity:1;stroke:#8f6f11;stroke-width:2.20717216;stroke-miterlimit:4;stroke-dasharray:none;stroke-opacity:1" d="M2472.526 833.759c2.167-7.237-8.991-5.573 0 0zm-1.51 1.938c.697-1.457-2.029.203 0 0zm.8-11.588c.739-1.417-2.106.038 0 0zm1 .15c1.574.481-.815-1.893 0 0zm1.08 11.23c3.402-3.396-2.625-2.411 0 0zm4.181-10.521c.05-.77-1.862-.204 0 0zm.79.87c-.176-1.42-3.687.012 0 0z" transform="translate(-476.705 -172.378) scale(.22653)" id="path32" />
    <path style="fill:#e7bb36;fill-opacity:1;stroke:#8f6f11;stroke-width:2.20717216;stroke-miterlimit:4;stroke-dasharray:none;stroke-opacity:1" d="M2482.896 829.798c17.484 10.233-14.39-13.738 0 0zm-.86 8.64c2.242-1.21-1.248-1.137 0 0zm6.26 6.12c19.163 3.072-11.787-10.46 0 0z" transform="translate(-476.705 -172.378) scale(.22653)" id="path34" />
    <path style="fill:#e7bb36;fill-opacity:1;stroke:#8f6f11;stroke-width:2.20717216;stroke-miterlimit:4;stroke-dasharray:none;stroke-opacity:1" d="M2486.936 833.538c.988-2.971-2.598-.6 0 0zm-.51 26.14c5.639 4.378 3.698-.82 0 0zm4.47-21.1c.537-2.075-2.417-1.075 0 0z" transform="translate(-476.705 -172.378) scale(.22653)" id="path36" />
    <path style="fill:#e7bb36;fill-opacity:1;stroke:#8f6f11;stroke-width:2.20717216;stroke-miterlimit:4;stroke-dasharray:none;stroke-opacity:1" d="M2490.676 839.159c3.331-.482-.02-1.296 0 0zm4.75-.43c10.38 13.455-6.212-21.295 0 0zm5.83 13.888c11.494 1.936-11.29-9.917 0 0z" transform="translate(-476.705 -172.378) scale(.22653)" id="path38" />
    <path style="fill:#e7bb36;fill-opacity:1;stroke:#8f6f11;stroke-width:2.20717216;stroke-miterlimit:4;stroke-dasharray:none;stroke-opacity:1" d="M2500.106 844.338c.557-5.515-3.384-3.39 0 0zm31.83 9.291c5.531-1.906-1.842-2.398 0 0zm6.33 7.13c2.374-.737-2.378-1.507 0 0zm-34.06 77.829c4.224 6.384 12.315 17.488 16.483 12.363-4.05-2.229-20.58-26.026-16.483-12.363zm16.06.22c1.405-.488 2.055-5.43 0 0zm3.24 16.921c2.068-1.04-1.83-1.129 0 0zm2.31-12.891c2.736-7.045-4.853-2.791 0 0zm3.67 4.1c5.021-1.327-3.668-4.8 0 0zm-55.59-20.01c.194-.503.194-.503 0 0zm134.21-18.789c2.068-.889-.261-.845 0 0zm2.38-2.811c.48-.41.48-.41 0 0z" transform="translate(-476.705 -172.378) scale(.22653)" id="path40" />
    <path style="fill:#e7bb36;fill-opacity:1;stroke:#8f6f11;stroke-width:2.20717216;stroke-miterlimit:4;stroke-dasharray:none;stroke-opacity:1" d="M2608.536 916.629c21.605 3.66-.622-17.788 0 0zm2.16 8.709c7.814-2.94-1.554-1.973 0 0z" transform="translate(-476.705 -172.378) scale(.22653)" id="path42" />
    <path style="fill:#e7bb36;fill-opacity:1;stroke:#8f6f11;stroke-width:2.20717216;stroke-miterlimit:4;stroke-dasharray:none;stroke-opacity:1" d="M2618.766 913.178c2.432-.245-1.07-1.806 0 0zm12.38-13.679c-13.76 2.22-14.273 9.22-1.859 4.19.08-1.328-5.523 1.847 1.86-4.19zm-8.86 16.839c1.519-.991-2.335-2.897 0 0zm3.17 4.541c2.176-.892-.81-1.09 0 0zm-85.6-37.37c2.536-2.593-2.542-.946 0 0zm.14-3.24c2.493-2.072-1.241-3.363 0 0zm-4.47 10.149c-2.14-4.47-7.097-.649-1.752 4.082 1.634-.487 2.61-2.53 1.752-4.081zm.44 12.75c7.459-.95-5.114-9.952-.27-2.063zm-.87-7.269c1.456-2.434-2.23-.026 0 0zm5.26 17.919c5.317-3.306-4.75-2.753 0 0zm.14-20.23c5.203-3.71-3.239-.802 0 0zm.79 7.561c4.988-1.862-4.597-2.286 0 0zm1.59 4.179c-1.945-3.922-4.177-.132 0 0zm-.509-7.349c2.304-5.231-.715-6.502 0 0z" transform="translate(-476.705 -172.378) scale(.22653)" id="path44" />
    <path style="fill:#e7bb36;fill-opacity:1;stroke:#8f6f11;stroke-width:2.20717216;stroke-miterlimit:4;stroke-dasharray:none;stroke-opacity:1" d="M2542.806 892.798c2.222-1.328-.999-8.483 0 0zm1.87 31.17c1.916-5.662-4.614-1.492 0 0zm-.15 5.691c1.695-3.232-2.898-3.536 0 0zm1.66 5.11c2.362-.9-1.492-1.205 0 0zm145.59-58.311c-4.702 5.38 8.289.135 0 0zm7.84 4.75c-2.04-4.694-7.073.707 0 0z" transform="translate(-476.705 -172.378) scale(.22653)" id="path46" />
  </g>
</svg>
