<?xml version="1.0" encoding="UTF-8" standalone="no"?>
<svg width="133.836" height="223.052" version="1.1" id="svg6" sodipodi:docname="argentina.svg" xmlns:inkscape="http://www.inkscape.org/namespaces/inkscape" xmlns:sodipodi="http://sodipodi.sourceforge.net/DTD/sodipodi-0.dtd" xmlns="http://www.w3.org/2000/svg" xmlns:svg="http://www.w3.org/2000/svg">
  <defs id="defs10" />
  <sodipodi:namedview id="namedview8" pagecolor="#ffffff" bordercolor="#666666" borderopacity="1.0" objecttolerance="10.0" gridtolerance="10.0" guidetolerance="10.0" inkscape:pageshadow="2" inkscape:pageopacity="0.0" inkscape:pagecheckerboard="0" />
  <g style="display:inline" id="g4">
    <path class="polygon" d="m191.166 470.126.74.156 1.462-.117.772-.002.337.054.15.084 1.009-.13.445.013-.114.287-.93.286-.382-.12-1.973.026-.873.293-.371-.003-.862.42-.63-.265-.174-.244.456-.347.43-.007.293-.14zm-24.978-11.603.255.656-.622-.417-.657.239-.324.392-.277.425.002.299.215.262.639.227 1.554.077.113.085.909 1.641.457.366.53.292 1.226.836 1.175.904 1.396.856 1.506.658 1.368.5 1.307.61 1.394.853 1.516.62 1.628.437 1.645.366 2.53-.143.786.04.489.268-.491.742-.627.597-.839.246-.885.09-.8-.013-.799-.11-.748.06-.716.25-.747.125-.768.013-.75.212-.753.153-.78-.126-2.029-.592-1.317-.142-4.462-.235-1.433-.136-1.427-.207-.747-.007-1.067.134-.855-.014-.232.133.04-1.512.054-2.035.013-1.816.014-1.77.013-1.83.013-1.833.014-1.959.013-1.988.393.283 1.557 1.375zm42.886-92.52.067.423-.349-.047-.828-.406-.28-.38-.066-.16.846.174.399.157zm-26.092-114.357.569.071 1.12-.105.228.027 2.86.034.437.046 1.002.23.565.183.392.096.634.29.548.956.308.762.216.67.479 1.177.326.446.116-.216.278-1.286.384-.75.518-.841 1.043-1.965.364-.294.406-.143.284-.013.289.146.392.002.28-.156 2.733-.027 2.84-.02.06.014.128.338.472.739.531.389.096.105.17.186-.002.194.565.396 1.132.6 1.061 1.16.988 1.723.929 1.271.867.822.798.581.726.34.389.274.053.211.68.44 1.31.666.83.666.346.664 1.293.686 2.24.707 1.63.337 1.017-.033 1.46.565 1.9 1.16 1.16.806.419.448 1.244.726 3.103 1.503 1.369.377.648.343.385.436.38.133.374-.17.779.157 1.183.483.926.584 1.19 1.286.38.514.161.46-.053.405-.363.432-.668.459-.196.2-.013.194-.17.386-.555.826-.14.384-.028.283-.351.31-.933.574-.193.279-.047.3-.117.177-.128.075-.18.3-.143.496-.014.637.116.777-.02.25-.207.134-.116.18-.04.363-.175.266-.308.17-.114.193.081.22-.227.216-.535.214-.328.312-.12.408-.298.365-.475.323-.155.429.247.792 2.925-.274 2.385.29 2.82.762 1.871.265.924-.23.684.034.447.294.598.06.753-.173.622.134.491.442.446-.11.402-.66.461-.483.52-.304.648-.092.776.12.619.243.462.365.504-.013.548-.387.262-.462-.027-.54.217-.385.457-.232.308-.315.161-.396.542-.242.923-.087.483-.194.04-.302.273-.278.504-.254.345-.317.186-.38.305-.24.425-.097.471-.8.518-1.5.307-2.03.108-2.879.522.003.243.214.386.111.406-.243.345-.112.548-.007.294-.274.346-.047.237.15.229.178.487.04.385.467.426.142.18.536.275 1.412.511.831.506.947.02.423-.283.427-.047.611-.177 1.496-.06.55.175.376.067.523-.276.64-.534.956-.518.258-.132.013-.702.554-.494.207-.285-.14-.327.24-.368.62-.448.277-.811.153-.243.073-.473-.02-.405.154-.338.33-.36.124-.385-.083-.348.121-.313.326-.181.353-.047.379-.306.258-.563.138-.194.191.033.265-.251.207-.953.215-.688.382-.424.548-.449.346-.708.211-.958.557-.138.344.366.318.13.282-.102.246-.3.033-.496-.18-.354-.04-.211.106-.1.199.013.292-.177.198-.367.105-.232.241-.098.377-.46.475-.822.573-.648.772-.475.97-.554.638-.634.305-.437.435-.239.565-.676.874-1.113 1.185-1.01.814-.906.441-.509.498-.112.556-.588.632-1.062.71-.302.321-.247.263-.034.456-.414.599-.793.742-.277.641.362.81.053.983-.157.394-.35.133-.08.254.188.373.014.491-.167.61-.369.697-.57.785-.137.524.296.265.145.28-.006.297-.12.431-.238.565-.358.42-.48.273-.144.345.192.418.026.435-.138.452.081.441.303.43-.02.488-.524 1.003-.126.618.329 2.648-.2.372-.332.426-.392.034-.45-.074-.324.265-.204 1.169-.619 2.529.111.6.496.972.181.62.138.468.11.886-.288.4-.266.07-.336.222.397 1.08.317.497.908 1.017 3.482 1.414 1.445.833 1.636 1.136.89 1.165.08.961-1.307 1.436-.144 1.206.268.847.472.786 1.265 1.023.93.373 1.258-.04.215.286.13.25.199 2.068-.027.778-.369.713-2.415 3.273-2.064 1.998-.747 1.103-.265 1.181-.66.563-3.575 1.783-5.547 1.59-4.481.827-1.019.278-7.205.91-1.395.126-1.813-.08-1.471.12-1.644-.248-1.467-.286-.82-.71-.974-.087-.266.353.475.906-.231 1.088.288.621.576.125.553.321.488.43-.842.046.327.343.36.2-.04.716-.327 1.722-.82.37-.22.098-.25.371-.521 1.647-.168 1.068.224.689.986 1.446-.372.938-.624.51-2.7 1.047-1.078.419-1.7.287-2.74.047-1.012-.067-2.346-.953-1.743-.572-1.595-.455-1.55-.273.221-.137.104-.246-.436-.139-.318-.027-1.021.495-.429.505-.124.444-.02 1.063.181.892.735 2.198.075 1.194-.349 1.506.487.885.592.4 1.33.395.516.27.567-.04.174.104-.084.194-.334.38.02.403 1.009.119 1.044-.081 1.096-.178.26-.28.006-.584-1.284-.103.163-.218.974-.237 1.275-.39.652-.071.442.262.3.239.367.63.228.829.014.998-.154.94-.181.334-.322.399-2.293.509-.642-.133-.598-.709-.188-.733-.51-.494-1.096-.394-1.09.12-1.082.682-1.063.222-.376.62 2.664 1.005 1.257.28.41-.007.41.131-.379.374-.378.231-1.896.512-.835.357-.976.701-1.368 1.531-.419.334-.209.389-.141 1.055.442 1.75-.467.733.287.814-.162.543-.479.781-1.918 1.233-.34.903.665.532-.047.465-.221.42-.797-.005-2.897-.284-1.056.461-.976.563-.267.27-.346.167-1.992.3-.394.199-2.119 2.143-.907 1.328-1.096 1.303-.287.552-.06.766.153.688.152.508.38.652.803.744 4.085 3.028.847.264 4.366.324.97.422.567.67.208.591-.25 1.497-.26.467-.483.425-1.033.547-1.237.292.355.207.502-.027 1.093-.178.473.178.359.589-.684.239-.21.285-.494.435-2.52 1.729-1.359.517-1.25.693-1.676.701-.655.404-.887.846-1.36.921-1.464 1.976-.06.384.212.255-.814 3.461-.284.407-.59.434-1.552.716-.747.089-.988-.415-.557-.434-.545-.743-.659-.767-.033.274.229.466-.155.488-1.684.22-.446.23 1.52-.102 1.037.146.438.179.394.37.347.446-.292.246-.83.204-1.075.375-1.27.678-.706.782-.304.563-.343 1.135-.09.75-.538.576-.827.519.047.119.561-.266.449-.084.385.692.52 1.384.243.957-.04.285-.155.39-1.07.094-.954-.013-.703.167.378.173.643-.06.89.41.99-.175.45.274.324.251 1.514 2 1.322 1.235.668.733-.332.332-.118-.443-.863-.115-.84-.12-1.402-.317-1.887-.482h-1.89l-1.502-.407-1.659-.45-3.5-.04-3.084-.027-3.159-.027-2.022-.02-1.353-.013-.35-.17.117-.562-.502-.413-.728-.5-.884-.354-.439-.475-.49-.532.277-.472.424-1.148.007-.507-.384-.354-.118-.502.118-.236.347-.18.207-.825-.162-.808-.266-.722-.35-.318-.453-.152-.333-.027-.74.269-1.228-.067-.417.103-.6.29-.85.429-.473-.148-.145-.458-.315-.397-.201-.35-.152-.575-.25-.741-.502-.876-.768-.71-.04-.635-.143-.8.392-.78-.228-.646-.48-.771.148-.798.472-.443.149-.561 2.185-.089-.09-.755.363-.61.408-.552.347-.252.78-.22.917-.32.517-.366.247-.326.152-.423.04-.45-.15-.96.17-.294.568-.388.96-.346.414-.916-.237-.797-.533-.63-.677-.286-.06-.65.305-.617.4-.66.476-.76-.027-.532.422-.311 1.202-.694.414-.679.423-.184.492-.082.027-.383-.36-.38-.06-.48.04-.53.11-.707.562-.266.828-.574.222-.365.027-.489-.242-1.008-.206-.724-.104-.267-.379-.49-.278-.31.445-.387.836-.407.354-.59-.325-.503-.473-.266-.147-.768.177-.975.355-.295 1.24-.148.119-.502.945-.709-.027-.68-.6-.416-.589-.673-.435-.594-1.447-.325-1.537-.177-.206-.561.06-.325.715.131 1.167-.115.878-.026.612-.054.705-.082.65.237.65-.148.265-.886.414-.472.06-.444-.413-.353-.758-.11-3.311-.28-.1-.354.026-.595.125-.607-.002-.299.303-.264.342-.55.242-.368-.24-.477-.529-.705.384-.325.034-.387-.12-.38-.548-.422-.487-.582v-.62l.568-.165.378-.19.088-.384-.207-.472-.784-.144-1.046-.29-.32-.244-.294-.506.22-1.429-.11-.86-.092-.477.256-.366.348-.33-.165-.769-.312-.403.11-.311.293-.312.257-.384.22-.092.33.22.557-.129.669-.31.073-.367-.134-.524-.5-1.317-.447-.814.092-.294.177-.308-.14-1.12.047-.677.033-1.994.054-.681-.458-.695.06-.654.324-.476.304-.644.227-.572.237-.256.404-.128.091-.312-.182-.237-.522-.371-.119-.454.11-.348.257-.202.397.002.299-.496.085-.614.06-.284-.23-.358-.165-.846-.155-.48.183-.203.256-.073.451.114.32-.06.053-.257.033-.275.12-.187.285-.622.304-.771.07-.544-.108-1.476.161-.339.324-.31.452-.29.593-.242.738-.347.907-.128.367-.384.256-.513.074-.422-.348-.293-.458-.348-.218-.878-.118-.81-.067-1.023-.456-.88-.478-.988-.128-.88.16-.481.188-.764-.202-.348-.238-.623.247-.488.303-.758-.034-.384-.238-.916-.22-.513.22-.55.348-.512.275-.275-.047-.442.118-.364.52-.244.488-.451.348-.054h.421l.275-.128.11-.347.073-.385.67-.477.392-.44.714-.091.348-.476.007-.61-.081-.617.238-.714-.265-1.09.027-.577-.275-.476.054-.513-.147-.33-.415-.122-.153-.409.202-.201.391-.156.492-.313.369-1.508.174-.447.17-.54-.021-.279.236-.403.295-.612.465-.593.267-.407.258-.55.073-.329.33-.164.378-.04.445-.104.183-.201-.034-.295-.026-.649-.134-1.03-.086-1.329.079-.873.293-.88.275-.476-.073-.366-.073-.403-.513-.22-.488.19-.34-.053-.436-.467-.128-.495.073-.677.34-.423.136-.53-.201-.165-.43-.351-.407-1.215.047-1.034-.403-.275-.188-.808-.417-.29-.164-.605-.128-.623.053-.275.434-.076.244-.49-.183-.276-.33-.238-.42.02-.378-.28-.505-1.176-.4-.65.126-.948.079-.74.171-.633.067-.499.312-.238.292.11.275-.053.253-.406.278-.253-.02-.202-.165-.22-.078-.384.193-.458.335-1.05.505-1.156.217-.432-.053-.367.11-.164.343.182.975-.201.33-.513.128-.458.293-.257-.128-.366-.403-.11-.244-.172.097-.414.143-.954-.027-.703-.368-1.498-.296-1.483.209-.496.638-.678.486-.305.087-.387.48-1.752.054-.956.315-.53.207-.995.87-.857.256-.568.348-.053.183-.183.461-.633.6-.651.514-.328.128-.513.246-.7.512-1.163.286-.81.385-.294.448-1.061.193-.623.513-.257.403-.073.385.294.402-.053.367-.367.884-.249.398-.135.183-.367v-.64l-.367-.477-.749-.912-.643-1.018-.07-.321-.004-.35.11-.443.308-.503.773-.825-.083-.592-.563-2.173-.208-.6-.392-1.11.054-.44.344-1.228.298-.494.44-.091.237-.165.074-.22-.294-.274-.128-.348-.128-.494-.407-.174-.234-.412v-.604l.366-.787.403-.22.165-.348.431-.32.393-.247.33-.458 1.359-.561 1.08-.435 2.105-.833 1.444-.57.138-.396.111-.269.67-2.014.867-2.604.542-1.633-1.246-1.204.22-.32.714-.824.147-.66.284-.284 1.278-.671.22-.446.113-.494.26-.355.487-.073.885-.315.95-.299.286-.406.27-.707.23-.784.184-.187.305.02.51.197.268.298 1.329.939z" style="display:inline;fill:#e77936;fill-opacity:1;fill-rule:nonzero;stroke:#505050;stroke-width:.5;stroke-linecap:round;stroke-linejoin:round;stroke-miterlimit:4;stroke-dasharray:none;stroke-opacity:1" transform="translate(-130.472 -249.435)" id="path2" />
  </g>
</svg>
