<?xml version="1.0" encoding="UTF-8" standalone="no"?>
<svg width="81.902" height="88.801" version="1.1" id="svg6" sodipodi:docname="bolivia.svg" xmlns:inkscape="http://www.inkscape.org/namespaces/inkscape" xmlns:sodipodi="http://sodipodi.sourceforge.net/DTD/sodipodi-0.dtd" xmlns="http://www.w3.org/2000/svg" xmlns:svg="http://www.w3.org/2000/svg">
  <defs id="defs10" />
  <sodipodi:namedview id="namedview8" pagecolor="#ffffff" bordercolor="#666666" borderopacity="1.0" objecttolerance="10.0" gridtolerance="10.0" guidetolerance="10.0" inkscape:pageshadow="2" inkscape:pageopacity="0.0" inkscape:pagecheckerboard="0" />
  <g style="display:inline" id="g4">
    <path class="polygon" d="m233.965 238.685.133-1.11-.135-.965-.134-.248-1.97-1.15-1.788-1.044-2.34-1.367-3.017.04-3.125.04-2.975.612-2.929.601-1.388.285-2.785.572-1.641.26-.43 1.1-.643 1.647-.636.962-.736 1.011-1.036 1.424v1.73l-.002 1.643-.728 2.316-.62 1.966-.596 1.898-.413 1.308-.15.333-.096-.105-.532-.389-.472-.738-.128-.339-.06-.013-2.84.02-2.734.027-.278.155-.393-.002-.289-.146-.284.014-.406.143-.365.294-1.043 1.964-.517.84-.384.751-.278 1.286-.116.217-.326-.447-.48-1.176-.215-.67-.307-.762-.549-.957-.634-.29-.392-.095-.565-.183-1.002-.23-.436-.047-2.861-.034-.227-.026-1.121.105-.569-.071-.597-.535-1.329-.94-.268-.297-.51-.197-.304-.02-.184.187-.231.783-.27.708-.286.406-.95.299-.884.315-.487.073-.26.355-.113.493-.22.446-1.278.672-.284.284-.147.66-.713.824-.221.32-1.122.224-1.458.245-.853-.02-.583-.067-.175-.146-.395-.234-.067-.26-.006-.368.11-.66-.054-.92-.46-1.069.033-.345-.06-.524-.231-.984-.592-.497-.168-.819-.07-.72-.497-.901-.081-1.148.013-.984-.783-1.143-.814-1.215-.659-.165-.163-.145-.072-.35-.013-.54.053-.328.508-.532.02-.082-.104-.11-1.312-.798-.331-.23-.103-.284.007-.256.314-.262.159-.193-.308-.57.033-.514-.196-.22.02-.165.19-.142.852-.166.265-.521.007-.434-.127-.307-.79-.776-.013-.131.824-1.078.591-.708.162-.145-.047-.154-.146-.187-.375-.273-.487-.298-.402-.364-.525-.537-.663-.46-.489-.457-.25-.384-.005-.39-.067-.648-.321-1.05-.085-.71-.139-.785-.14-.512-.075-.497-.228-.536-.128-.391.183-.277.185-.214-.02-.135-1.262-.574-.208-.146-.298-1.148-.918-1.02-.107-.76v-.305l-.073-.478-.28-.375-.417-.258-.132-.307.14-.324.814-.639.435-.11.115-.323.265-.26.766-.94.451-.62.451-.371.523-.26.226-.215-.119-.666.04-.447.18-.284.523-.298.47-.23.1-.113-.04-.168-.433-.341-.889-.296-.589.026-.36-.262-.198-.226-1.168-2.761-.194-.645.013-.25.781-1.366.319-.445.548-.645-.099-.254-.961-1.07-.295-.51.006-.505.096-.617.558-.331.159-.502.117-.495.238-.164.245-.28.288-.405.448-.354.266-.27.06-.751.22-.206.612-.238.06-.195-.14-.505-.305-.534-.247-.259-.327-1.31-.342-.653.143-.26.236-.332.229-.657.075-.764-.054-2.812.013-.552.301-.389.443-.448.374-.171.353-.284-.026-.533.233-.314.287-.394-.894-1.551-.786-1.364-.738-1.28-.854-1.483-.563-.976-.698-1.213-.614-1.064-.837-1.453.777-.024 1.568.05 1.52.26 1.026.112.431.224.095.355.284.166.33-.065.372-.024.833-.364.672-.241.582-.292.298-.282.723-.992.583-.549.536-.192 1.05-.078.33.156.428-.02.369-.563.564-.623 1.109-.778.564-.214.35-.272.603-.04.529-.284 2.556-1.966 1.035-.506.646-.092.534-.12.909-.282 2.27-.273 1.46-.113.466.272.525-.078.447-.44.37-.143.272.014.39.52.191.553-.126.421.027.613.174.802-.097.712-.552.933-.277.38-.068.391.046.528.253.86.457 1.193.069.885-.32.573-.148.495.027.415.114.293.204.168.113.333.027.498.266.482.51.465.206.445-.096.423.026.264.15.105.14-.086.183-.116.167.042.357.59.046.12.195.487.06.37.524.206.566.163.31.195.626.583.525.385.658.315.22.504.403.76 1.108.293 1.296.145.824.165 1.008-.403.666.057.69.274.293.186.514.392.794.502.65.186.462-.28.428-.097.33.117.175.545.176.37.383.277.823.715.466.291.526-.02 1.082.47 1.156.456.596.075.588-.067.39.175.155.55 1.005 1.1.473.43.564.37 1.435-.005.43.11.639-.098 1.922-.188.349-.059 1.088.48 1.287.69.851.542.595.299.31.486.254.506.116.544-.155.541-.233.217-.079.35.097.525.428.468.158.575.232 1.017.263.322.17 3.15-.861.026-1.214.04.353.3 1.005 1.173.925 1.081.147 1.735.092 1.094.13 1.542.078.92 2.307.082 2.658.096 3.195.115 2.81.1.277-.013.488-.125.324-.163.2.005.033.373-.069.47.003.54-.805 1.068-.047.338.123 1.407.284 1.138.143 1.03.323.32.952.542 1.438 1.004.576.13.486-.136.292.408.06.661.794 1.846.504 1.172.23.407.378.211-.07.152-.315.06-.14.22-.436 1.31-.575 1.73-.389 1.213.35.02.014.336.079.514-.434.06-.126.184-.497.995-.65 1.304-.673 1.347-.398.799.68.59 1.133.984-.18.274-.486.136-.409.097-.311.37-.175.272z" style="display:inline;fill:#e7b836;fill-opacity:1;fill-rule:evenodd;stroke:#505050;stroke-width:.5;stroke-linecap:round;stroke-linejoin:round;stroke-miterlimit:4;stroke-dasharray:none;stroke-opacity:1" transform="translate(-156.778 -168.398)" id="path2" />
  </g>
</svg>
