<?xml version="1.0" encoding="UTF-8" standalone="no"?>
<svg width="263.071" height="261.739" version="1.1" id="svg6" sodipodi:docname="brazil.svg" xmlns:inkscape="http://www.inkscape.org/namespaces/inkscape" xmlns:sodipodi="http://sodipodi.sourceforge.net/DTD/sodipodi-0.dtd" xmlns="http://www.w3.org/2000/svg" xmlns:svg="http://www.w3.org/2000/svg">
  <defs id="defs10" />
  <sodipodi:namedview id="namedview8" pagecolor="#ffffff" bordercolor="#666666" borderopacity="1.0" objecttolerance="10.0" gridtolerance="10.0" guidetolerance="10.0" inkscape:pageshadow="2" inkscape:pageopacity="0.0" inkscape:pagecheckerboard="0" />
  <g style="display:inline" id="g4">
    <path class="polygon" d="m298.765 289.609-.46.303.083-1.59.248-.532.27-.396.335-.246.248.348-.212.769-.584.942zm-.66-9.146-.125.081-.42-.831.844-.8.282.325-.224.632-.248.446zm22.267-16.83-.004.35-.28-.179-.738.136-.259-.264.999-1.125.202.163.155.206.107.286-.115.185zm7.576-5.005.209.184-.387-.02-.434.162-.667.144-.269-.269.577-.374.209-.282.15.06.193.203zm35.004-64.763-.23.394-.266-.059-.104-.264-.194-.258.104-.201.178-.115.489.017zm1.07-2.521-.263.144-.027-.426.684-.537.113-.634.359.293.096.325-.006.135zm-38.553-68.04-.659.657.217-.762-.111-.524.086-.406.45-.394.136-.058-.04.484.034.148zm-2.57-10.863-.43.323-.138.166-.355-.124.067-.185.105.019.113-.538.605.065zm-46.55.777-.71.126.913-1.675.818-.78.013-1.548.886-1.376.814-.56 1.142-.165.625.84-.774 2.378-.227.014-1.038 1.255-1.156.876zm14.762-8.069.626.03.886-.127.594-.314.664-.061.657.032 2.214.348 1.33.108.486.111.475.159.347.17.088.372-.324.594-.24.625-.225.872-.173.177-.29-.046.18.78-.067.312-.144.304-.355.63-.54.802-.16.168-.41.278-.334.357.072.335.167.337-.197.423-.639.618-.381.15-.352.063-.324-.06-.575-.62-.06.485-.155.496-.196.271-.742-.029-.414-.265-.67-.295-.127.797-.417.548-.42.172-.658.116-.377.234-.711-.183-.66-.365-.375-.031-.292.295-1.535.054-.703.3-.43-.086-.632-.604-.102-.402-.376-.815-.338-.968-.24-.88.203-.76.41.026.485.113.103-.054.027-.243-.108-.202-.781.032-.494-.451-.086-.698.102-1.45.067-.297.345-.415.113-.368-.085-.39.148-.709.323-.613 1.232-.774 1.429-.274zm-6.861-.654-1.832 1.311-.62-.43-.128-.25.105-.25-.02-.108.206-.45 1.024-.368.515-.062.658.114.11.32zm8.098-.128-1.774.21-.812-.334.183-.282.606-.449.737-.318.661-.14.69.176.189.376-.054.38zm-1.971-2.55.274.35-.949 1.4-.523.202-.572.041-.741-.417-1.155.03-.361-.1-.04-.61.485-.652.97.035 1.667-.523zm-4.608.864-.12.984-1.205-.416.09-1.007.565-.282.5-.536.17-.657.008-.893.185-.155.162-.063.146.06.053 1.341.069.821zm1.83-1.7-.726.227-.135-.212-.001-.842.204-.462.927-.129.095-.136.266-.087.148.29-.02.482zm-.978-10.352-.669.305-.384-.118-.354-.797.12-.664.485-.22.376.047.138.085.334 1.086zm-66.6-22.235.4.128h.266l.242.298.187.337.586.41-.06.623-.109.551-.075.635-.034.484-.249.494-.372.463-.11.187-.054.244.251.148.443.044.554.02.377.143.487.03.587.396.285.238.026.185-.186.442-.074.407.145.259.172.186.476.92.226.32.193.102.047.177-.163.336-.194.427-.441.449-.06.354-.353.223-.822.53.143.839.026.426-.013.33-.28.443-.487 1.308-.179.652-.158 1.508.013.505.225.68.476 1.51.271.241.63.355.078 1.021-.054 1.067-.027.414.104.177.283.085.2.128.034.316-.02.328.47.189.407.12.377.453.682.704.27.128.136.292.575.594.876.217.884.261.347.373.363.304.272.016.232-.05.381-.26.306-.225.533.012.624-.036.109-.185.06-.238-.129-.609.222-.185.517-.103.103-.325.119-.177.147-.207.178-.03.222.118.34.074.383.104.207.206.341.018.38-.04.152-.132.112-.23.082-.496.245-.014.488-.112.521-.22.696-.032.652.005.326-.147.303-.32.588-.905.307-.209.33-.156.281.028.576-.15.474-.216.175.054.37.465.184.102.271.032.89.236.472-.074.512-.148.491-.055.355.103.255-.134.286-.1.2.066.45.056 1.063.258 1.388.29.379-.1.226-.204.053-.597.04-.421-.312-.373-.389-.422-.359-.527-.43-.149.054-.27.279-.28.286-.156.166-.19.18-.701.12-.124.121-.03.144.026.283.182 1.093.558.48-.084 1.832-.147.278-.322.388-.073.659-.32.26-.023.233.078.293-.061.432-.3.182-.03.069.33.28.341.338.315.163.072.568-.101.299.087.13.293.033.255.238.217.306.005.162.087.278.138.237.32.55.253.937.357.436.006.406.109.25.107.27-.197.96-.55.468-.306.315-.232.237-.222.177-.058.118.132.103.178.342.104.802.208.368.06.517-.177.44-.3.213-.104.327.298.223.422.15.183.333-.043.655.065.487.133.3-.012.412-.187.221-.37.583-.338.555-.311.318-.416.47-.691.158-.297.033-.499.662-1.45.25-.266.148-.458.266-.531v-.443l.193-.43.38-.37.28-.232.447-.623.311-.586.781-1.304.06-.37.31-.22.104-.281.33-.346.35-.275.148-.404.256-.42.56-.315.207-.145.634-1.155.072-.517.572-.02.9.597.719.879.962 2.826.16 2.611.39 1.369 1.119 2.851.072.528.18.638.352.677.39 1.114.013.207-.253.305.372.02.336.18.22.707.277.478.506.654 1.036.214.781.078.89.37.654.475.506 1.607-.165 1.01.046.711-.261.279-.732.465-.16.247-1.497 1.201-.326.568-.802.761-.795 1.453-1.162 1.326-.41.335-.629.077-.381.206-.903 1.082-1.213.361-.11.627-.701 1.433-.617.782-.393.266-.99 1.428-.126.624.006 1.091-.66.666-.686.422-.086.934-.31.32-.266.208-1.398-.245-2.172 1.015-.742.253 2.37.052.762.54 1.668-.358 2.018-1.289.771-.27 1.567-.874.636-.583 1.162-.699.247-.307.65-.326.352.415.027.263-.534.512.139.33.352.414.128.57.047.434.217.762.718 1.03.027.341-.099.45.344.37.356.22 1.222 1.11.956-.62.588-.18.376-.26.786-.171.644.26 1.23.373.898-.396 1.82-.908-.57 1.607-.412 1.473-.313.595-.31 1.605-.309.428-.25.49.407-.171.348-.232.445-.618.334-1.073 1.317-2.866.377-.254 1.095-.327 1.884-2.291.737.007.471.527.447.311.115-.626.643-.257-.681-.31-.111-.281-.067-.47.462-.633-.275-.56.96-.708-.075-.532.342-.438.434-.45.49-.22.09-.386.31-.16.243-.057.48.432.519-.51.507-.2.227.088.283.226.297.096.241-.04.628-.328.58.527.349.116-.096-.295-.183-.274.142-.223.275-.14.867.125.457.235.493.435.685.032.538-.045.34.244h.551l.277.38.84.535.183.363.676.176.633.222.676.061.681-.053.027.46.5.124.642-.103.485.565 1.295.425.898.65.588-.115.659.172.707 1.414.16 1.004.315-.139.291-.45.379-.82.708-.272.339.316.71.505.612.554.258.356.46.059-.384.437.385-.043.467-.312.4.643.3.7.06.713-.282.41-.25.256-.277.505-.328.091-.327.164.373.367.256.354.559-.956.393-.27.568-.148.296.68.067.642-.927.268-.004.508-.277.287-.18.33-.147.693-.189.573-.552 2.544-.013.42.672-.449 1.24-1.296.378-1.38.49-1.361.532-.428h.33l.494.148.026.446-.075.258-.53.677-.225.371.218.366 1.202-1.121.538-.393.459.08.91-.518 1.832-.108.137-.592.365-.252 1.007.067 1.963.53.7.432 1.047.402.551.478 2.304.877 1.673.095.829-.399 1.033.418.548.467 1.073.253 1.083.133.828-.336 2.137-.11 2.686-.496 1.602.117 1.813.324 1.292.833 1.088.472.658.464 1.062.48 2.266 1.293.793.747 1.405 1.018 1.41.427.762 1.065.603.48 1.494 1.797 1.696 1.258 1.134 1.258 2.176.81.85 1.336 1.472.163.627.2.763.563 1.049.314 1.366-.089 1.507.064 1.218-.264 2.884.502.453.246.597.568 1.053 2.116.627 2.347.31 1.797.72 1.396.392 2.62.333.826.026.634.282.144.19 1.768-.074.713-.276.928-.02.413.04.263-.122.387-.04.371.28.833.013.668-.374.808-.51 2.113-1.28 3.503-1.227 2.01-1.716 2.077-1.118 1.084-.443.11-.407-.214.289.573-.253.503-1.135 1.528-1.13 1-1.17 1.735-.09.04-1.5.67-.889.547-1.135.996-1.042 1.57-.215.203-.384-.11.014.796-.898 1.263-.274.187.007-.358.156-.272.072-.29-.006-.344-.251.25-.531.946.179.693-.386 1.048-1.47 2.99-1.798 2.515-.415.776-1.477 1.694-1.085.817-.306.006-.345-.07-.175-1.302-.864-.788-.248-.139-.355.835-.295.229-.427.05.457.363.133.42-.465.843-.013.765-.83.843-.48.617-.245.773-.147.721.364-.197.173.152.137.225-.084.332-.267.626.04 1.56-.089.355.266.384.28-.655.163.182-.785 4.18.31 1.882.114 2.131.355 2.08.389 1.86.033.15-.537 2.158-.686 2.13-.414 1.736-.26 1.875-.261.901-.083.923.3 2.185.11.414-.833.975-.899.473-.497.47-1.098 1.756-.596 2.595-.014 1.381.282 2.893-.212 1.18-.347.789-.411.518-1.05.622-.94 1.516-.408 1.592-.644.58-.132.892-.519.962-1.343 1.436-.874.418-.417.401-.265.84-.842 1.383-.621 1.794.161.61.014.095.225 2.072-.083.528-.819.572-3.084 1.067-.821.442-1.842 1.815-.114.429.076.61.303.352-.312.38-.368.683-.536-.04h-3.072l-1.663.217-.864-.04-.388-.164-.435-.268-.13-.351.235-.532-.139-.318-.455.014-.5.15-.087.319.033.225.187.33.101.406-.205.352-.973.047-1.094.324-1.365.135-1.087.234-.502-.296.502-.148.72.073.773-.245-.18-.29-1.094-.373-1.214.23-.673.443-1.474-.04-1.804.338-.294.345.047.668.353.147.344.305-.33.284-.323.125-1.905.31-1.767 1.3-.737.162-.655.573-.068.49-.207.295-.42.013-.922-.267-1.196-.007-.863.213-4.413 2.109-1.584.844-1.808 1.72-3.048 1.928-1.6 1.152-.304.298-.254.013-.5.24.199.199.342.02-.142.67-.636.46-1.195 1.204-.266-.089.379-.626-.586-.027-.865-.23-.375.26.207.62-.325.266-.589.027-.535-.073-.587-.455.265.823 1.24.2.517.193.192.316-.964 1.464-.808.19-.089.207h.444l.244.405-.288 1.634-.4.31-.233.007-.23.28.318.534.329.389-.047.755-.123.625-.007.606.416 1.173.15 1.205.167.438.095.487-.278.454.158.73-.473 1.24.247 1.79-.101 1.678-.185.881-.3.69-.697.888-.013.888-1.5.826-1.66 1.156-1.53 1.368-1.65 1.927-1.924 2.933-1.783 4.185-2.147 3.161-.858 1.142-1.16 1.274-1.544 1.487-2.067 1.488-2.263 1.325-.817.598-.797.84-.2-.347.174-.572-.11-.43-.027-.556.456-.103.683.353.348-.24.254-.236.822-.148 1.57-1.456 1.166-.538.655-.92.113-.488-.027-.99.372-.252.843.087.172-.282-.073-.313.164-.682 1.143-.605.542-.731-.18-1.864.208-.083.47.29.22-.12.238-.817-.114-.424-.554-.113-1.914.921-.623-.04-.103-.724-.93-.332-.365-.6-.109-.411-.323-.168.02.71.089.691.834.805-.203.32-.395.373-.276.828.034 1.074-.223-.327-.286-.189-.117 1.155-.554.441-.174.434.144.503-.285.348-1.41.933-1.407.637-.305.3-.15.711-.215.731-.623.642-.493 1.277.013.55.164.81.266.53-.42.356-.566.69-.449.776-1.117 2.918-.963 1.758-.741.862-1.058.908-3.013 2.279-.18-.034-.442-.183-.37-.219-.085-.146-.04-.218.047-.821-.007-2.207.13-.416.195-.269.587-.39.57-.558.644-.71.592-.565-.212-.379-.496-.366-.88-.296-.849-.522-.752-.671-.348-.699-.318-.753-.305-.595-.1-.272-.298-.113-.472-.305-.295-.282-.432-.162-.772-.178-.805-.311-1-.738-.722-.82-.357-.54-.38-.38-2.065-.63-.938-.752-.37.235-.551-.23-.543-.362-.163-.278-.23-.284-.216-.326-.138-.314-.559-.547-.722-.593-.306-.169-.161.047-.156.228-.099.22-.273.145-.337.271-.344.332-.442.22-.524.076-.353-.014-.073-.13-.02-.454.13-1.036-.307-.4-.408-.428-.471-.571-1.548-1.212-2.106-1.746-.744-.533-.7-.04-.64.06-.588.23-.445.807-.184.125-1.135-.02-1.128-.13-.379-.492.301-.32 1.063-.711.587-.632.113-.556.51-.498.905-.441 1.01-.814 1.113-1.185.676-.874.24-.565.435-.435.635-.305.554-.638.475-.97.648-.772.822-.573.46-.475.098-.377.232-.24.366-.106.178-.198-.013-.292.1-.199.211-.105.354.04.496.18.3-.034.102-.246-.13-.282-.366-.318.138-.344.958-.557.708-.211.448-.346.424-.548.689-.382.952-.215.252-.207-.033-.265.194-.19.563-.139.306-.258.047-.38.181-.352.312-.326.349-.121.384.083.361-.123.338-.331.405-.154.473.02.242-.073.812-.153.448-.278.368-.619.327-.24.285.14.494-.207.702-.554.132-.013.518-.258.534-.956.276-.64-.067-.523-.176-.376.06-.55.177-1.496.047-.611.284-.427-.02-.423-.506-.947-.511-.831-.275-1.412-.18-.536-.426-.142-.385-.467-.487-.04-.23-.179-.236-.149-.345.047-.295.274-.548.007-.345.112-.406.243-.386-.112-.243-.213-.522-.003.033-.96.92-1.423.248-.663-.12-.375.275-1.325.67-2.273.214-1.488-.243-.702-.007-.49.344-.417.168-.124-.864-.51-.465-.465-.599-.332-.642-.265-.31.11-.332.156-.643.243-.731.421-.377.155-.664.155-.753.133-.62-.089-.533-.089-.332-.266-.177-.576v-.487l-.11-.709-.4-.398-.133-.31-.02-.378.047-.42.11-.31-.066-.377-.178-.266.047-.465-.088-.643-.266-.399-.134-.465v-.465l-.199-.464-.02-.51.178-.465.067-.465-.2-.332-.376-.2-.288-.532-.047-.687-.31-.377-.332-.31h-.377l-.576-.177-.51.02-.82-.02-.376-.11-.199-.245-.51-.332-.288-.575-.354-.11-.509.176-.177.222-.2.31-.354.354-.465-.02-.487.2-.466.02-.62.047-.62-.178-.754-.2-.642-.132-.62.133-.42-.112-.555-.067-.62-.046-.487-.355-.532-.2-.288.068-.377.221-.399-.047-.51-.177-.2-.42.048-.267.11-.266.2-.376-.112-.4.047-.353.088-.31.089-.354-.067-.333-.02-.354-.047-.332-.067-.355.266-.51.221-.42-.132-.354.047-.244.177-.4.222-.486-.02-.909-.2-.532-.215-.144-.054-.16.105-.211-.114-.216-.047-.221.114-.194-.159-.382-.317-.111-.11-.11-.112-.422-.088-.487.047-.377-.155-.332-.222-.2-.221-.353-.222-.266-.089-.377-.147-.487.442-.09.175-.274.311-.37.41-.096.485-.136.18-.274-1.133-.984-.68-.59.399-.8.672-1.346.65-1.304.497-.995.127-.184.434-.06-.08-.514-.013-.336-.35-.02.39-1.213.574-1.73.436-1.31.14-.22.315-.06.07-.152-.378-.21-.23-.408-.504-1.172-.794-1.846-.06-.66-.292-.409-.486.136-.576-.13-1.438-1.004-.952-.542-.323-.32-.143-1.03-.284-1.138-.123-1.407.047-.338.805-1.068-.003-.54.069-.47-.034-.373-.2-.005-.323.163-.488.125-.278.014-2.809-.101-3.195-.115-2.658-.096-2.307-.083-.078-.92-.13-1.541-.092-1.094-.147-1.735-.925-1.08-1.005-1.174-.353-.3 1.214-.04.862-.027-.171-3.15-.263-.321-.232-1.017-.158-.576-.428-.467-.097-.524.079-.35.233-.218.155-.541-.116-.544-.254-.507-.31-.486-.595-.298-.85-.542-1.288-.69-1.088-.48-.35.06-1.921.187-.64.098-.43-.11-1.434.005-.564-.37-.473-.43-1.005-1.1-.156-.55-.389-.175-.588.067-.596-.075-1.156-.457-1.082-.468-.526.02-.466-.293-.823-.714-.383-.278-.176-.37-.175-.544-.33-.117-.428.098-.463.279-.649-.186-.794-.502-.514-.392-.293-.186-.69-.274-.666-.057-1.008.403-.824-.165-1.296-.146-1.108-.291-.404-.761-.22-.504-.657-.315-.525-.385-.626-.583-.31-.195-.567-.163-.524-.206-.06-.37-.194-.486-.047-.12-.356-.591-.167-.042-.184.116-.14.086-.15-.105-.026-.264.097-.424-.207-.444-.51-.466-.265-.481-.027-.498-.113-.333-.205-.169-.114-.292-.026-.415.147-.495.32-.574-.068-.884-.458-1.192-.252-.861-.047-.528.068-.391.278-.38.551-.933.098-.712-.175-.803-.026-.612.126-.421-.192-.552-.39-.522-.273-.013-.37.143-.446.44-.525.078-.467-.272-1.46.113-2.27.272-.908.282-.534.12-.646.093-1.036.506-2.555 1.966-.53.285-.602.039-.35.272-.565.214-1.108.778-.564.623-.37.563-.427.02-.33-.156-1.05.078-.536.192-.583.55-.723.99-.298.283-.582.291-.672.242-.833.364-.373.024-.329.065-.284-.166-.095-.355-.43-.225-1.028-.112-1.52-.26-1.567-.05-.778.025-.639.015-1.11-.138-.808-.024-.71.352-1.03.437-.47.111-.346.016-.337-.054-.392-.226-.552-.522-.424.2-.307.224.005-1.135.007-1.707.007-1.505.006-1.204.006-1.405.005-.992.289-.377.178-.42-.214-.564.047-.516.148-.36.194-.35-.447.175-.194.098-.239.266-.576.36-.387.36-.457.292-.578.648-.475.355-.493.226-.821.76-.68.152-1.8.117-1.871-.003-1.712-.003-.258-.01.013-.627.04-.443-.583-.467-.04-.575-.156-.397-.194-.486-.409-.312-.574-.12-.942-.269-1.399-.28-1.336-.019-1.31.027.8-.976.8-.975-.026-.85-.647-.74-.348-.46-.54-.635-.665-.437-.364-.583.034-.354-.06-.233-.254-.137-.252-.213-.35-.234-.41-.31v-.312l-.155-.331-.252-.389v-.31l-.233-.487-.253-.35-.252-.233-.37-.33.02-.274.273-.136.116-.31-.04-.312-.311-.194-.37-.098-.486-.563-.35-.292-.234-.175-.136-.195.136-.136.156-.195.04-.31-.078-.292v-.253l.234-.078.252.04.253-.156.33-.059.37-.039.195-.175-.02-.311-.234-.603-.233-.253-.078-.37.19-.712.122-.454.426-.482 1.304-1.033 1.168-.702.571-.071.421-.26.269-.399.074-.435-.06-.378-.218-.56-.26-.699-.194-.388.176-.467.311-.639.635-.963.59-1.037.068-.302.076-.633.272-1.29.151-.7-.078-.27.136-.235.37-.194.892-.178.605-.386.934-.725.778-.772.643-.249 1.167-.714.67-.454.264-.142.659-.328 1.181-.114.985-.118.557-.215.813-.09.548-.241.609-.007 1.142-.246.39-.37.331-.44.446-.377.522-.097.582.066.697-.007.844-.117.408.292.18.357.52.363.37-.02.37-.078.506.312.33-.04.214-.174.04-.437.119-.237.25-1.367.41-2.255.372-2.045.412-2.263.426-2.338.431-2.368.354-1.942.304-1.67.186-1.025.293-1.341.114-1.18.118-.34-.075-.285-.253-.406.003-.179.027-.237-.027-.206-.265-.222-.207-.133-.163-.192-.074-.266-.133-.266-.06-.28-.192-.222-.06-.28.132-.266.06-.28-.06-.267-.074-.31-.148-.295-.224-.18-.536-.2-.539-.477-.635-.428-.812-.812-.178-.384-.003-1.055.033-1.144.054-1.728.027-.88.459-.047.404-.024.422-.061.367-.06.338-.127.253-.157.302-.103.235.037.236-.14.26-.132.253-.108.367-.091.344.211.193.211.223.103.211-.024.145.018.15.169.193.012.278-.03.259-.037.12-.048.02-.109-.066-.186-.09-.176.071-.27.006-.327.014-.416-.205-.229-.205-.434-.23-.35-.355-.236-.332-.09-.277.145-.26.024-.193-.133-.313-.006-.338-.042-.357-.05-.643.095-.23-.118-.314-.012-.361.127.007-1.67.007-1.575.006-1.104.325.024.404-.199.6-.03.461-.21.257-.017.487.103.507.215.5.03h2.723l1.572-.001 1.575-.001h1.365l.422.012-.245-.367-.286-.475.11-.374.142-.377.164-.197.426.21.356.64.296.483.289.238.358.027.407-.08.404-.198.692-.885.687-.756.357-.254.377-.234.281-.089.384.03.325.206.21.36.769 1.255.58.946.195.59.013 1.44-.033 1.276.076.165.114.047 1.268-.3 1.721 1.547 1.271 1.142.55.365.305.102.74-.076.878-.148.427-.163.472-.358.768-.496.624-.273.246-.036.246.087.527.297.288.554-.265.642.046.399.554-.022.444-.665.31-.523.65-.424.631-.605.442-.575.517-.338.78-.41.617-.25.579.025.429-.272.557-.509.389-.41.27-.145.541.04.676-.057.665-.497.604-.602.32-1.013.212-.897.18-.182.219-.143.258-.094.621-.065 1.088-.478.75-.485.712-.104.21-.13.258-.45.128-.79-.096-.478-1.309-.147-.857-.001-1.417-.123-.675-.198-.145-.137-.014-.152.135-.342.132-.641-.193-.869-.708-1.362-.505-1.338-.067-.933.014-.987.04-.644-.363-.504-1.96-1.588-.677-.75-.226-.52-.772-.957.196-.294.445.011.38.25.347.532.25.12.34-.001 1.808-.002.423.09.256.179.219.222.323.62.348.303.715-.01 1.124-.013.63-.056.376.173.468.143.985-.33.275-.006.294.145 1.062 1.11.609.469.513.62.748.003.62-.533.165-1.79.186-.52.314-.146.372-.017.44-.282.479-.363.415-.122 1.725.39.479-.186 1.746-.474 1.786-.608.5-.766.75-.207.586-.561.474.058.717.023.443-.098.224-.106.244-.265.403-.75.488-.285.614-.3.42-.355.345-.439.16-.38-.005-.303-.204-.586-.248-.551-.268-.183-.202-.07.608-.128.502.192.783.03.34-.148.493.072z" style="display:inline;fill:#82e736;fill-opacity:1;fill-rule:nonzero;stroke:#505050;stroke-width:.5;stroke-linecap:round;stroke-linejoin:round;stroke-miterlimit:4;stroke-dasharray:none;stroke-opacity:1" transform="translate(-127.573 -68.144)" id="path2" />
  </g>
</svg>
