<?xml version="1.0" encoding="UTF-8" standalone="no"?>
<svg width="84.593" height="257.641" version="1.1" id="svg6" sodipodi:docname="chile.svg" xmlns:inkscape="http://www.inkscape.org/namespaces/inkscape" xmlns:sodipodi="http://sodipodi.sourceforge.net/DTD/sodipodi-0.dtd" xmlns="http://www.w3.org/2000/svg" xmlns:svg="http://www.w3.org/2000/svg">
  <defs id="defs10" />
  <sodipodi:namedview id="namedview8" pagecolor="#ffffff" bordercolor="#666666" borderopacity="1.0" objecttolerance="10.0" gridtolerance="10.0" guidetolerance="10.0" inkscape:pageshadow="2" inkscape:pageopacity="0.0" inkscape:pagecheckerboard="0" />
  <g style="display:inline" id="g4">
    <path class="polygon" d="m170.897 477.987-.243.013-.59-.125-.884-.053-.1-.054-.02-.098.104-.1.483-.076 1.455.067.184.046.047.077-.237.222zm1.918-.756-.244.054-.18-.126-.276-.09-1.115-.186-.027-.114.116-.162.223-.145.428-.143.345-.372.156.027.158.152.268.514.322.369-.034.127zm5.47-3.67-.532.294-.398-.02-.128-.106-.04-.132.08-.142.168-.13.39-.162.122-.027.586.162zm-4.07-.503-.198.256-.423.338-.569.264-.55.071-.4-.136-.202-.239-.093-.237-.135-.13-.21-.027-.27.007-.335.09-.711.342-.305.09-.206.02-2.025-.257-.198-.096-.238-.229-.263-.679-.85-.607 1.302-.343 1.56.002 3.01.263 1.201.06.924.575.146.347zm-17.571-1.573 5.374.661 1.656-.401 1.31.013.39.552-1.329.578-.102.182.186.15 1.365.092.346.187.318.24-.269.354-.027.164.142.16 1.023.538.42.278.212.265.085.466-.02.373-.23.047-.498-.114-.486-.215-.427-.537-.3-.108-.861-.108-.854-.262-.666.013-.612-.111-.55.098-.195-.177-.235-.356-.005-.156.288-.563-.007-.148-.151-.02-.64.115-.259-.076-.696-.408-.28-.077-.7-.04-.396.724-.02.178.403.46.792.707-.402.013-1.145-.217-.294-.136-.355-.355-.68-.208-.24-.127-.069-.15-.007-.466-.15-.067-.966.117-.2-.111-.08-.196-.141-.11-.623-.18-.054-.111.278-.132.172-.334.244-1.2zm-8.632-.342.312.424.115.078.825.166.371-.1.898-.047.54-.163.785-.083.9 1.052-.099.32-.712.348-.478.076-.455-.105.034-.177-.083-.155-.311-.2-.292.02-.47.148-.224-.02-.475-.163-.833-.12-.166-.15-.02-.22-.157-.11-.868-.352-.556-.3-.47-.04-.173.034-.174.144-.423.137-.122-.02-.136-.115-.069-.164.18-.334.242-.034 1.187.067.727.155zm-2.672-5.595 1.486.535.983-.005-.006.334.12.57-.154.23-.368.236-.231.335-.173.054-1.08-.405-1.13-.552-.568.097-.754-.135-.607.026-.378.313-.877.164-.16-.627-.798-.593-.796-.476.431-.73.517-.117.485-.244 1.952.258 1.011.22zm-10.267-3.692.181.544.095.104.488-.087.83-.047 1.361.202.154.072.578.594.444.254.678.55-.676.366-.4.527-.02.267-.263.154-.416.16-.619.309-.761.033-.75.162-.348.148-.205.007-.243-.08-.26-.152-.083-.175.515-.163.67-.581.12-.603-.723-.11-.432.083-.322-.002-.37-.185-.225.284-.084.272.099.416-.067.134-.263.076-.607-.158-.63-.28-.047-.163.129-.561-.013-.293-.13-.421-.07-.047-.237.007-.743.08-.741-.54-.401-.57-1.366-.165 1.064-.796 1.604-.113.544.403 1.785.28-.107-.428.027-.154.245-.19.139-.013.21.134.343.054.159.13zm-9.796-3.746.11.06.264-.013.37.109 1.398.132 1.251.314.653.294.856.092.701.375.3.096.361.027.94.692.053.079 1.066.546.054.087-.606.027-1.23-.254-.615-.014-.444-.077-.104-.047-.087-.317-.142-.155-1.181-.73-.492-.16-.851-.141-.969.098-.655-.094-.226.033-.966-.58-.964-.489-.412-.583-.614-.446-.003-.13.281-.1.66.251.65.432.35.163zm34.957-1.706.583.046 1.944-.653.216.033.659.332.196.141-.013 1.989-.014 1.958-.013 1.832-.014 1.832-.013 1.769-.013 1.816-.054 2.035-.04 1.512h-1.01l-.265.155-1.595.222-2.71-.342-.679-.309-.91-.674-.324.181-.855.286-.878.226-.72.027-.668-.28-.143-.142-.152-.033-1.443.387-1.594-.395-1.27-.243-2.04-.135-1.418-.499-2.616.047-.47-.165-.175-.488.139-.227.56-.137.155-.27.565.067.734.358.225-.013.485-.338.716-.3.256-.033 1.316.37.528-.04.76-.166.136-.144.12-.254.201-.15.676-.07.66.145.075.441-.09.474.857.126 1.04-.013.715.176.09-.288-1.144-.752-.48-.468-.644-.275-.828-.14-.692-.877.04-.768-.073-.748 1.495-.41-.342-.64.514-.485.586-.185.59 1.782.425.625-.541.127h-1.134l.633.874 1.04.298.897.648.02.47.499.212 1.198.014.825-.094.387-.312.45-.1.806.39 1.355.288.365.205.266.339.02.365.07.193.395-.095.562-.496.277-.172.339-.085.214-.11.006-.146-1.013-.351-5.309-1.643-.653-.656-.439-.824.014-.85.386-.265.947-.336 1.742-.474 2.008-.68.251-.13-.027-.426-.251-.287-.798-.21-.833-.054-.795.02-.794.089-1.448.453-.82-.026-.78-.243-.58-.489-.298-.66.002-.42.111-.388.353-.396.474-.173.426.02.402-.093.238-.136.203-.182-.06-.157-.156-.136-.645-.28-.256-.269-.555-.435.303-.122.973-.069.68.301.634.353h.389l.35-.149.802-.453.671-.57.613-.65.492-.388.565-.033zm-33.326-4.934-.2.074-.744-.156-.372-.14-.57-.353-.09-.366-.256-.434.164-.005.594.173.244.13.326.277.962.398.12.118-.026.152zm-4.56-2.015.287 1.303.205.181.684.097.74.662.034.18-.898 1.125-.191.798-1.054-.053-.441-.794-.666-.766-.225-.897-.366-.77.652-.437.622.098.033-.591zm1.77-2.366-.013.561-.212.18-.186.053-.472-.17-.27-.021-.445.297-.375.15-.558-.04-.742-.2-.662.843-.31.284-.647.393-.073-.461.413-.69.19-.47.378-.7.759.264 1.064-.26.97-.48.838-.004.275.257zm-4.979-4-.19.62-.542-.054-.183-.156-.094-.393-.166-.19.232-.392.154-.436-.054-.334.83.02.989.086.273.092-.302.294-.288.176-.596.108zm1.656-2.57-1.31.536-.385-.222-.946.002.248-.58.095-.43.142-.165.053-.37.283-.676.784.225.583.067.793.224.859.142.25.585-.836.268zm-.347-9.778-.054.533-.989 1.024-.852.605-.778.478-.498-.005-.407-.231.457-.379.571-.378-.18-.488-.172-.141-.24-.054-.414-.256.125-.379.241-.181.32-.139.3.082 1.295-.267.41-.214.787-.04zm4.223 2.086.06.982-.112.987-.258 1.213.04.245.301.06.08.152-.087.637-.162.49-.311.4-.183.48-.167.106-.728.085-.399-.054-.32-.547-.094-.336.02-.44-.392-.59-.013-.225.153-.388.317-.194.047-.597.16-.18.361-.247.054-.103-.034-.088-.134-.007-1.448.74-.142.209-.06.278-.02.978-.255.566-.231.108-.676.027-.892-.054-1.012-.519-.66.144-.137-.631.331-.505 1.23.047.21-.9-.391-.21-.434-.363-.258-.331.23-.247.713-.357.382-.04.353.2.876-.152-.053-.568-.78-.25.173-.432.986-.412.589-.415.026-.473-.238-.473.075-.185.49-.389.69-.188.313.027.637.274.57.034.137.081.103.306zm-6.927-2.575-.754.007-.188-1.194.887-1.725.06-.658-.297-.495-.121-.407.072-.168 1.134-.343.355.364.422.967.803 1.385-.02 1.323-.446.326-1.4.334zm6.317-1.149-.127.16-.826-.099-1.43.17-.602-.608-.263-.966-.18-.2-.355-.551-.178-.362-.364-.56-.14-.592-.09-.178.328-.35 1.495-.346.532-.56.456.074-.125 1.142.275.384.508.32.095.13.085.405.255.626.33.293.084.183.014.152-.121.215zm-3.65-5.052-.493.087-.054-.218-.447-.363.388-.24.759-.25.575.026.52.19.07.225-.906.293-.223.16zm5.354-14.376-.373.296-.65.144-.644-.233-.777.108-.082-.51.291-.419.59-.498.426-.668-.053-.943.35-.215.188-.333.746-.205.168.7-.2 1.252.504.74.073.246-.099.283zm-4.887-5.368-.168.11-.209-.034-.17-.213-.12-.364.232-.137h.187l.208.193.109.312zm9.447-.46-.22.076-.198-.013-.203-.23-.067-.303-.438-.453-.122-.213.013-.256.251-.367.373-.1.25.013.304.432.087.469.077.483zm4.327-.278-1.623.536-.814-.18-.316-.394-.154-.332-.167-.561.277-.301.594-.434.221-.28.107-.33-.04-.309.078-.293.35-.102 1.201.328 1.246.493.443.341.082.271-.544.6-.347.492zm-5.019-2.582-.33.288-.52.053-.81.333-.085.29-.04.354.559.427.276.497.332.744.239.71-.02.219.06.368.397.573.034.259-.047.256-.16.475-.127.067-.394.047-.034.289-.097.094-1.12.027-.555-.13.067-.87-.71-.34-.488-.575-.548-.992-.461-.306-.537-.784-.796-.671.919-.425-.143-.744.537-.255.807-.266.594.21.534-.074.238-.179-.073-.76.17-.599.588-.31.635-.033.238.339.314.332.767.262-.003.344zm-.504-3.8.14.33-.294.046-.472-.053-.229.26-.116.054-1.086-.231-.169-.103.02-.343 1.157-.033.739-.22.104.034zm-5.748-1.47-.949.118-.216-.2.005-.17.163-.14.487-.09.319.115.166.163.054.15zm5.998-1.754-.504.14-.47.033-.477-.102-.833.007-.832-.262-.78-.37-.216-.214.095-.308.561-.712.535-1.344.357-1.93-.285-.732.033-.304.131-.365.067-.375-.04-.378.068-.352.588-.74.087-.333.013-.36.255-.747-.079-.247-.217-.21.176-.181 2.048.547 1.36.127.074.567.262.444.156.795.211.18-.11.57-.626.245.053.523.36.494-.525.176-.567.105-.131.137-.41.107-.5.275.15.242.628.552.702.383.386.574.498.598-.243.38-.457.539-.729.358-.67.213.079.887zM95.68 328.992l-1.2.142-.04-.04.068-.118.276-.205.334-.249.072-.007.123.02.14.047.358.168.105.116-.04.095zm74.332-72.057.853.02 1.458-.245 1.121-.224 1.247 1.203-.543 1.633-.866 2.605-.67 2.014-.11.269-.138.395-1.444.57-2.107.834-1.079.435-1.36.56-.329.459-.392.247-.432.32-.165.348-.403.22-.367.787v.605l.235.412.406.174.129.493.128.349.293.274-.073.22-.238.164-.44.092-.298.494-.343 1.228-.054.439.391 1.111.208.6.563 2.173.083.591-.773.826-.307.502-.11.443.004.35.07.322.643 1.018.749.912.366.476v.64l-.183.367-.398.136-.884.249-.366.366-.403.054-.384-.294-.403.073-.513.256-.193.623-.448 1.062-.385.293-.287.81-.51 1.163-.247.7-.128.514-.515.327-.6.652-.46.633-.183.182-.348.054-.257.568-.87.857-.207.994-.315.53-.053.957-.48 1.752-.088.386-.485.306-.639.678-.209.495.297 1.483.368 1.499.02.702-.143.954-.097.415.244.171.403.11.128.367-.293.256-.128.458-.33.513-.975.202-.343-.183-.11.165.054.366-.218.432-.505 1.156-.334 1.05-.193.458.078.385.165.22.02.201-.278.253-.253.406-.275.054-.293-.11-.311.238-.067.498-.172.633-.078.74-.126.948.4.65.505 1.176.377.28.421-.02.33.239.183.275-.245.491-.433.076-.054.275.128.623.165.604.417.29.187.809.404.274-.047 1.035.407 1.214.43.352.2.165-.134.53-.341.422-.073.678.128.494.435.467.34.054.489-.19.513.22.073.402.073.367-.275.476-.293.88-.08.873.086 1.329.134 1.03.027.65.034.293-.183.202-.446.104-.378.04-.33.164-.073.33-.258.549-.266.407-.465.592-.295.612-.236.404.02.279-.17.54-.174.447-.368 1.507-.492.314-.392.155-.201.202.153.409.415.122.146.33-.053.513.274.476-.026.577.264 1.09-.238.714.08.616-.006.611-.348.476-.715.091-.392.44-.67.477-.073.384-.11.348-.274.128h-.422l-.348.053-.488.452-.52.244-.118.363.047.443-.275.274-.348.513-.22.55.22.513.238.916.033.384-.302.757-.247.489.238.623.201.347-.187.764-.16.482.128.88.478.988.455.88.067 1.023.119.81.218.877.457.349.349.293-.074.421-.257.513-.366.385-.908.127-.738.348-.592.24-.452.292-.324.31-.16.339.108 1.476-.071.543-.304.772-.284.622-.121.187-.034.274-.053.257-.319.06-.45-.113-.257.073-.183.202.155.48.166.846.229.359-.06.284-.085.613-.299.497-.397-.002-.256.201-.11.349.118.453.522.371.183.238-.092.312-.403.127-.238.257-.227.571-.303.645-.324.476-.06.653.457.696-.053.68-.034 1.995-.047.676.14 1.12-.177.31-.091.292.447.815.5 1.317.133.523-.073.367-.67.31-.557.13-.33-.22-.22.091-.256.385-.293.311-.11.312.311.403.166.769-.349.33-.256.366.092.476.11.86-.22 1.43.295.506.32.243 1.045.29.784.145.207.472-.088.384-.378.19-.568.164v.62l.486.583.548.422.12.38-.034.387-.383.325.527.704.24.477-.24.368-.343.55-.302.265.002.3-.125.606-.027.595.1.354 3.312.28.758.11.413.353-.06.443-.414.473-.266.886-.65.148-.65-.237-.704.082-.612.053-.878.027-1.167.115-.715-.132-.06.325.206.562 1.537.177 1.447.325.435.594.588.673.601.416.027.68-.945.708-.119.503-1.24.148-.355.295-.177.975.147.768.473.266.325.502-.355.59-.835.408-.445.387.278.31.378.49.104.267.206.723.242 1.009-.027.488-.221.365-.83.574-.56.266-.11.707-.04.53.06.48.36.38-.027.384-.493.082-.423.184-.413.679-1.203.693-.422.311.027.532-.476.76-.4.66-.305.618.06.65.678.285.533.63.236.798-.413.916-.96.346-.568.388-.17.294.15.959-.04.45-.152.423-.248.327-.517.366-.917.32-.78.22-.347.251-.408.553-.364.61.092.755-2.186.088-.148.562-.473.443-.148.797.48.772.228.646-.391.78.142.8.04.636.768.709.501.876.252.74.152.576.2.35.316.397.145.457.473.149.85-.429.6-.29.417-.103 1.228.067.74-.269.333.027.453.151.35.319.266.722.162.808-.208.825-.347.18-.118.235.118.503.384.354-.007.506-.423 1.148-.277.473.49.532.438.474.885.355.727.5.502.413-.118.561.351.17 1.354.014 2.022.02 3.159.026 3.083.027 3.5.04 1.66.45 1.501.407h1.89l1.887.482 1.403.318.84.12.862.114.118.444-3.777-.63-.848-.343-.718-.04-1.379.429-.762 1.019-.4.29-.957.273-.964.053-3.24.987-1.153.084-.786.262-.769.377-.294.81.12.492-.877 1.767-.216.983-.005.5.25.818-.322 1.399-.583.306-1.44.391-.979-.284-1.674-.254-1.193-.539-1.534-.38-.492-.225-1.356-1.08-.143-.357-.099-.453.716-.646.384-.047 1.122.02.934-.104.597.347.164.754-.262.402-.237.249.074.188.671-.262.341-1.687 2.28-.842.745-.49.729-.759.113-.217.053-.284-.483-.235-1.075-.31-3.418 1.59-1.548.42-.998.455-1.207.818-.23.242-.256.543-.121.597-1.192-.272-1.819-.867-.364-.316.365-.444.554-.37.04-1.242.14-.435.383-.35.698-.382.346-.09.294.167.034.292 1.16-.02 2.25-1.101.926-.027 1.22.246 1.38-.148.248-.113.287-.258-1.028-.304-.986-.154-2.771-.107-.601.118-.82.584-.271-.146-.175-.294-.94-.208-.452.04-.432.281.071.436-.24.468-.87.463-.593.738.027.574-.047.298-.218.158-.448.19-1.445-.13-.816-.6-.32-.411-.921-.446 2.004-.554.704-.316.643-.705.48-.448-.34-.315h-.4l.04.5-.443.41-.924-.193-1.364.607-.838-.162-1.365.179-.669-.327-.143-.416.24-.433-.25-.735-.377-.179-.383.04-.173-.437-.414-.77-.184-.207-.2-.358.206-.087.47.103.41.231.625.027 1.379.501.572-.12.31-.116.116-.416.007-.395h.237l.782.505.498-.047.879.134.444-.054.824-.188 1.297-.555.674-.574.322-.077.4.073.267.165.004.4.303.369.413.303.115.368-.085.363-.738.51-.136.177.247.187.306-.088.42-.252.24-.346.067-.18.027-.257-.033-.313-.6-.893-.075-.202.001-.405.682-.373.192-.29.027-.562-.355-.385-1.464-.89-2.449-.894-.281.094-.19.162.225.117.324.06 2.182.736.568.427.371.114.441.284-.112.414-2.2.406-1.743.876-1.304.532-.903-.194-.43-.54-.456-.698-.685-.407-.389.04-.314-.075-.247-.215-.528.18-1.16-.486-.336-.21.851-.683.936.263.227-1.919-.292-.436-1.217-.475-.598.06-.816-.067-.55-.217-.626-.087-.529-.126-.691-.296-.835-.158-1.128-1.218-.484-.64-.264-.698 1.729-.014 1.01-.113.247-.292-.356-.557-.494-.438.363-.41.517-.32.539.142 1.33.709.228.48.946 1.463.229.13.112.136 1.955.82.274-.014-.121-.687.563-.932.545-.308.274.003.027-.156-.531-.388.26-.517-.17-.014-.472.333-.946 1.626-.58.297-.795-.736-.451-.531-.222-.188.078-.834 1.575.17-.54-.273-1.839-.481-.46-.236-.341-.085-.612-.567-.758-.48 1.308-.862.674-.607 2.105.322.408-.188-.353-.443-.416.134-.657-.276-1.022-.83.034-.424.187-.777.405-.166.86-.16.98.252.43.206.37-.097-.377-.575-.64-.218-.713-.41.073-.455.23-.376.173-.412.12-.577-.068-.45.205-.207.314-.093.02-.169-.621.034-.225.568-.084.518-.441.416-.189.469-.111.562-.246.644-.537-.245-.315-.252-.12-.173.053-.329-.146-2.033-.014-1.703.276-1.326.759-.527.345-.153.314.067.485-.004.32-.191-1.087-.32-.66.183-.489.255-.88-.192-.167-.681-.522-.589-.09-.753.04-1.091 1.234.094 1.005.213 2.657-.02 2.181 1.045.963-.14-.047-.21-.737-.263-.46-.585-.269-.17-.127-.352-.04-.41-.542-1.506-.217.04-.207.518-.452.86-.63.418-.965.17-.953.096-.827-.165-.193-.356.02-.412-.359-.201-.934-.18-.266-.099-.308-.374.445-.564.366-.337.448.067.424.152.543.444.533.085.61-.353.12-.24-.382-.15-.348-.06-.54-.19-1.066-.676.532-.69 1.257-.79.384-.18-.333-.667.376-.728-.386-.6-.697-.647-.942-.143-.202.189-.034.265.15.2-.088.143-.215-.005-1.196-.142-.803-.43-1.308-.392-.171-.307-.141-.45.458-.777-.232-.014-.85.6-1.284.315-.945.103-.415.243-.166.2.251.12.547.026.4.75-.1.288-.195.194-.445.04-.928-.519-.488-.588.013-.467.332-.635 1.473-.853.408-.361.864-.4 1.153-.904 1.008-.501-.49-.416-.516-.624.054-.868 2.033-.344.888.142 1.124-.027.627-.208.456-.047.96-.24.413-.337.096-.258-.005-.225-.112-.277-.157-.718.16-.24.41-.286.54-.089.246.02.639.263-.128.372-.256.448-.522 1.782-.263.402-.412.35.275.726-.412.509-1.844.542-.243.033.138.194 1.067-.047.827-.114.818-.458.257-.698.338-1.36.444-.192.518-.04.27.32-.087.717-.002.694-.686 2.057-.832.826-.093.217.034.258.659-.04.503-.444.362-.566.363-.79-.04-.571.11-.354.149-1.157.252-.585-.014-.82-.453-.308-.633-.187-.16-.502.333-.99 1.211.026 1.148-.676.752-.246.428.054 1.502.652.297.007-.047-.234-.233-.165-.591-.22-1.089-.7-1.464-.115.269-.91.284-.831.71-.115 1.192-.273 2.274-1.247.395-.939.108-1.055-1.096-.275-1.162-.69-.938-.368-.831-.46.163-.69.11-1.124 1.042-.24.484-1.544-.7-1.181.168-.881.911-.753.164-.52.25-.573.805-.06.02-.312-.071-.568-.53-.67-.02-.931.497-1.098.797.076.155-.047-.566-.664-.462-.732.08-.292.441-.249.511-.138.554.375.791 1.193.12-.306-.32-1.216-.264-1.513-.834.2-.765-.107-.288-.235-.287-.34.269-.416.269-.31.56-.389 1.165-.136.842-.49.282-1.005-.276.1-.458.884-.768.3-.391-.048-.462-.165-.907-.77-.5-.18-.489-.02-.417.195-1.065 1.358-.454.23-1.872.108-.688-.157-.744-.208.089-.335.226-.356.422-.183.007-.205-.58-.054-.671-.376-.297-.476-.141-.85-.601-1.348-.119-.964.424-.688.913-2.7.279-1.377.489-1.21-.014-.798 1.265-.73.48-.435 1.076-2.457.157-1.326-1.704-4.022-.264-.768-.082-.955.407-1.586.046-.601-.348-.87-.972-1.42-.02-.724.41-.746-.395-.924.193-.573.214-.449 1.522.24.693-.113.369-.272.288-.76.145-1.187.09-.511.132-.747.747-.3.26-.709.625-.987.644-2.759.636-.68.643-.786-.245-1.165.415-.539.38-.39.337-.712.457-.672 1.092-.966.277-1.18.847-2.038.17-1.308.262-.885-.075-.825.509-1.003.488-.844.154-.469 1.116-1.118.188-.893-.396-.605-.007-.937-.311-1.299.72-.486.291-.355.936-2.077-.06-.815.269-1.012-.615-1.198-.085-2.693-.345-2.073-.567-2.19.054-1.225-.347-1.523-.02-.879.264-1.994 1.803-1.255.35-1.405.216-1.899-.073-1.383-.179-.622-.887-1.02-.224-1.82.171-.477.734-.513.518-.711.267-1.105.538-.87.214-2.1.456-1.673.227-.583.715-.734.134-.195.11-.56-.033-1.32.11-.807.57-1.587.068-.735.633-1.634.143-1.174.27-.618-.104-.697.18-1.559-.43-.881-.095-.515.54-1.598.368-.39.594-.743.25-.835.046-.53-.758-2.64-.104-.9.185-2.094.261-1.353-.084-1.079.084-.555.132-.696.52-.845.119-.6-.183-.251-.618-.306-.51-.767-.034-.756.164-.55.04-.78.76-.152.406-.432.385-.811.484-1.96.207-2.43.289-1.465.204-.723.17-1.512.282-.99.047-.913-.054-.694-.728-3.535.02-1.3.31-2.02-.005-2.845-.06-.665-.274-.622-.082-.844-.438-1.47-.395-2.947-.007-1.556-.171-1.321-.38-.351.274-.08.638-.054.66-.001.835-.28.889-.518.58-.754.249-.691v-.605l-.261-.769-.071-.545.308-.26.813-.102.658-.513.506-.45.107.76.917 1.02.3 1.148.207.145 1.262.574.02.136-.185.214-.184.277.128.39.229.537.075.497.14.511.139.785.084.71.322 1.05.067.648.005.391.25.383.489.457.662.46.525.538.403.364.487.297.374.273.146.188.047.153-.161.145-.592.709-.823 1.078.013.13.79.777.126.306-.007.435-.264.52-.853.166-.19.142-.026.166.196.22-.033.514.308.57-.159.193-.314.262-.007.255.103.284.33.23 1.313.798.104.11-.02.083-.508.531-.053.329.013.54.072.35.163.145.659.164.815 1.216.782 1.142-.013.985.08 1.147.499.901.07.72.167.82.592.497.231.984.06.524-.033.345.46 1.07.054.918-.11.66.006.37.067.259.395.233.175.146z" style="display:inline;fill:#36e7db;fill-opacity:1;fill-rule:nonzero;stroke:#505050;stroke-width:.5;stroke-linecap:round;stroke-linejoin:round;stroke-miterlimit:4;stroke-dasharray:none;stroke-opacity:1" transform="translate(-94.19 -220.609)" id="path2" />
  </g>
</svg>
