<?xml version="1.0" encoding="UTF-8" standalone="no"?>
<svg width="81.876" height="112.166" version="1.1" id="svg6" sodipodi:docname="colombia.svg" xmlns:inkscape="http://www.inkscape.org/namespaces/inkscape" xmlns:sodipodi="http://sodipodi.sourceforge.net/DTD/sodipodi-0.dtd" xmlns="http://www.w3.org/2000/svg" xmlns:svg="http://www.w3.org/2000/svg">
  <defs id="defs10" />
  <sodipodi:namedview id="namedview8" pagecolor="#ffffff" bordercolor="#666666" borderopacity="1.0" objecttolerance="10.0" gridtolerance="10.0" guidetolerance="10.0" inkscape:pageshadow="2" inkscape:pageopacity="0.0" inkscape:pagecheckerboard="0" />
  <g style="display:inline" id="g4">
    <path class="polygon" d="m100.305 86.588-.181.148-.347-.265-.117-.335.212-.249.273.082.124.205zM146.2 20.987l.718 1.146.118.79-.984.857-.238.378-.24.081-.299.176-.91.331-1.228.316-1.599.405-.363.432-1.582 2.716-1.324.55-.481.405-.363.514-.79.947-.328.727-.872 1.58-.476 1.98-.18 1.112-.263 1.612-.386.81-.517.76-.556.744-.478.815-.406.637-.067.22.197.175.962-.176.377-.191.525-.247.329.132.329.702.373.087.35-.087.373.175.475 1.746.402 1.479.936.923.731.722.176.635.175.9.047.439-.228.265-.364.546-.09 1.047-.06.348-.068.97.046.595.195.465.323.266.659.138.593.163.342.807.485 1.024.52.43.763.284.545-.104 1.276-.182 1.097.044 1.602.276.598-.01.773-.052 1.357-.557.492-.084.55.05.8.282.435.224.557.231.814.165.522-.027.395-.01.229.104 1.278 1.592 1.107 1.38.965 1.157 1.042 1.25.081.074.47-.161.31.07.285.253.493-.105.701-.462 1.023-.093 1.345.278 1.773.002 2.202-.275 1.367-.297.534-.321.885.032 1.065.29.577.412.07.405.215.631-.23.64-.68.649-.376.829-.073 1.008-.35.746-.628.482-.245.704.139.924-.068 1.35-.275 1.778v1.063l.275.347.127.498-.02.648.103.574.34.748.474 1.49.396.639.344.234.351.286 1.012 1.523.245.32-.074.281-.094.21-.116.134-1.08.907-2.143 1.972-.178.251.014.414.62-.266.664.222.325.044.148.163.192.531.222.089.325.221.635.561.531.591.399.283.28.264.089.384-.118.384.334.89.227.277.118.34-.118.339.281.399.306.784.373.958.047.532.156.245.183.711.312.669-.074.458.13.447-1.267.3-.114-.047-.076-.165.033-1.277-.013-1.44-.195-.59-.58-.945-.769-1.255-.21-.36-.325-.207-.383-.03-.281.09-.378.233-.356.255-.688.756-.691.884-.405.198-.407.081-.358-.027-.289-.238-.296-.483-.356-.64-.426-.21-.165.197-.14.377-.111.374.286.475.245.367-.422-.013h-1.365l-1.575.001-1.572.001h-1.414l-1.31.001-.499-.03-.508-.215-.486-.103-.257.017-.46.21-.601.03-.404.199-.326-.024-.006 1.104-.007 1.575-.007 1.67.362-.127.314.012.23.118.643-.095.357.05.338.042.313.006.193.133.26-.024.277-.145.332.09.356.235.229.35.205.435.205.229-.014.416-.006.326-.072.271.09.175.067.187-.02.109-.12.048-.26.036-.277.03-.193-.012-.15-.168-.145-.018-.211.024-.223-.103-.193-.211-.344-.211-.368.09-.253.109-.26.133-.235.138-.235-.036-.302.102-.253.157-.338.127-.367.06-.422.061-.404.024-.46.049-.026.879-.054 1.728-.033 1.144.003 1.055.177.384.813.812.635.428.54.477.535.2.224.18.148.295.074.31.06.266-.06.28-.133.266.06.28.193.223.06.28.133.266.074.266.162.192.207.133.266.221.027.207-.027.237-.003.178.253.407.075.286-.118.34-.114 1.178-.293 1.342-.186 1.024-.304 1.67-.354 1.943-.431 2.368-.426 2.338-.412 2.263-.372 2.045-.411 2.255-.25 1.367-.118.237-.343-.496-.52-.467-.487-.282-.207-.369-.28-.752-.39-.258-.275-.2-.266.03-.28.206-.435.132-.294-.02-1.182-.518-.194-.05.76-1.185 1.357-2.119.864-1.346.958-1.495.49-.763.067-.13-.002-.195-.209-.291-.461-.123-.534-.223-.336-.362-.466-.156-.362-.258-.66-.252-.397-.233-.483-.084-.384-.427-1.401-.827-.362-.079-.393.127-.577.132-.556.453-.695.146-.649-.005-.338-.27-.326-.098-.424-.368-.75-.282-.543-.197-.336.091-.432.412-.437.408-.347.254-.466-.014-.556.376-.546.133-.551.058-.636.132-.704-.227-.576-.2-.259-.09-.233.062-.361.21-.65.088-.51.02-.361-.097-.325-.363-.526-.186-.578-.226-.122-.468.083-.349.226-.504-.125-.52-.243-.824-.104-.336-.18-.285-.286-.104-.556.078-.608-.311-.376-.297-.193-.363.207-.685-.182-.582-.362-.324-.233-.57-.363-.452-.478-.232-.478.025-.375-.142-.428-.479-.4-.181-.454-.466-.846-.207-.44-.181-.25-.287-.339-.515.04-.285-.164-.28-.146-.504-.288-.741-.317-.422-.326-.319-.276-.27-.41-.4-.505-.233-.427-.246-.168-.362-.143-.298-.239.022-.343-.026-.379-.076-.4-.216-.333-.262-.56-.444-.306-.058h-.272l-.4.434-1.203-.456-1.027-.68-1.068-.176-.69-.413-.638-.648-.343-.438-.28-.218-1.357-.628-.27-.061-.518.291-.169.175-.033.502-.06.286-.451.173-.726-.037-.506-.182-.338-.027-.07.143-.19.061-.412-.04-.608-.14-.552-.185-.748-.395-.345.05-.85-.085-.695-.225-.177-.207-.3-1.418-.093-.098-.299-.062-.504-.195-.317-.229-.164-.392-.2-.372-.848.083-1.39-.491-.962-.468-.88-.52-1.336-1.023-.51-.253-.63-.313-.371-.504-.615-.51-.206-.138-.193-.46-.918-.667.455-.861 1.103-.647 1.447.502.178-1.004-.524-.888.077-1.678.17-.334.382-.449.497-.31.292-.09.495.153.313-.335 1.18.15.358-.14.244-.228.288-.173.368-.404.211-.466.176-.181.408.063.04-.2.21-.275.714-.613-.007-.271-.2-.591.047-.217.413-.075.488-.167.26-.564.323-.493.369-.723.406-.046.215-.845.546-.74 1.112-2.197-.335.048-.266.293-.304-.035-.345-.172.101-.99-.198-.117-.537.762-.463-.775-.04-.473.194-.467-.027-.315-.75.234.034-.291.466-.3.212-.312.407-.34.169-.513.098-.796.183-.857-.135-.422-.22-.36-.184-1.595.054-.928-.094-.73-.191-.617-.889-.81 1.405-.928.505-.7-.64-1.441-.835-1.215-.027-.73.221.093.28-.022.258-1.537-.06-.476-.47-.769-.584-.019-.51-.965-.293-.217-.235-.608-.822-1.185-.653-.616.487-1.43.426-.274.14-.357-.167-.878.047-.206.1-.088.1.006.172.133.32.379.268.469.214.144.323-.155 1.256-.936-.08-.289.115-.586.419-.48.449-.163.134-.267-.11-.412-.47-1.026-.422-.552-.27-.55-.144-.507-.477-.477.203-.451.37-.528.127-.091.201.144.554.958.88.624.923 1.006.378.694.301.126.262.251-.115.186-.289.196-.084.404.188.226.199.144.538-.092.296-.472-.2-2.066-.31-1.033-.36-.321-.323-.409.218-.309.574-.14.756-.361 2.763-1.972.947-1.853.725-.67.82-.437 1 .103.779-.233.239-.59-.213-.8-.299-.482.287-.7.298-1.06-.02-.893.384-.531-.133-.21-.561.431-.444.193.251-.355.785-.88.408-1.339.314-.558 1.108-.779.219-.375.836-.584 1.35-1.254.516-.35 2.614.81.83-.052-.148.148-.383.05-.554.219-.16.482.374.505.398.147.34-.325.336-.928.541-1.025.128-1.075.383-.37.562-.132 1.002.213.762.222.796.028 2.435-.162 3.963-2.79 1.84-.6 1.153-.586.735-1.145.198-.86.54-.334.57.001.26-.209.081-.265 1.37-.743.785-.096.693.014z" style="display:inline;fill:#3685e7;fill-opacity:1;fill-rule:nonzero;stroke:#505050;stroke-width:.5;stroke-linecap:round;stroke-linejoin:round;stroke-miterlimit:4;stroke-dasharray:none;stroke-opacity:1" transform="translate(-93.96 -20.073)" id="path2" />
  </g>
</svg>
