<?xml version="1.0" encoding="UTF-8" standalone="no"?>
<svg width="110.385" height="43.678" version="1.1" id="svg6" sodipodi:docname="ecuador.svg" xmlns:inkscape="http://www.inkscape.org/namespaces/inkscape" xmlns:sodipodi="http://sodipodi.sourceforge.net/DTD/sodipodi-0.dtd" xmlns="http://www.w3.org/2000/svg" xmlns:svg="http://www.w3.org/2000/svg">
  <defs id="defs10" />
  <sodipodi:namedview id="namedview8" pagecolor="#ffffff" bordercolor="#666666" borderopacity="1.0" objecttolerance="10.0" gridtolerance="10.0" guidetolerance="10.0" inkscape:pageshadow="2" inkscape:pageopacity="0.0" inkscape:pagecheckerboard="0" />
  <g style="display:inline" id="g4">
    <path class="polygon" d="m86.789 123.53-.128.257-.637-.022-.182-.083.005-.296.15-.937.175-.394.522-.38.435-.184.559.033.59.347-.697.63-.389.095-.148.08zm-68.943-10.94-.27.013-.37-.287.283-.523.303.126.223.15.131.201zm6.732-2.874-.788.277-.273-.124-.17-.136-.04-.167.437-.414.425-.224.38-.476.702-.283.205.066.137.099.054.16-.238.385-.425.269zm-6.135-.934-.35.012-1.039-.649.07-.636.415-.43 1.342-.218.564.403-.05.763-.458.557-.364.102zm-7.309-2.081-.672.116-.566-.23-.24-.355-.05-.535.05-.178 1.25-.193.406.448-.004.66zm5.707-.85-.311.203-1.263-.234-.394-.388.318-.53.268-.214.756.197.765.594zm-4.677-2.406.416.432.227 1.23 1.344 1.3.167.725-.12.337.064.132.646.513.421.537-.709 1.263-1.51.53-1.611-.018-.319-.136-.432-.483-.08-.426.25-.412.831-.624 1.27-.559.158-.427-.51-.416-.351-.826-.802-.58-.4-1.766-.266-.088-.545.244-.268-.214-.045-.113.587-.403.122-.288.868-.138.372.23zm82.813-8.223-.378.05-.175-.32.459-.374.157-.073zm4 1.385.88.519.962.468 1.39.49.848-.083.2.373.164.392.317.23.504.194.299.062.092.098.3 1.418.177.207.695.225.85.084.346-.049.748.395.551.185.608.14.413.04.19-.061.07-.143.337.027.506.182.726.037.451-.173.06-.286.034-.502.169-.175.517-.291.27.06 1.358.63.28.217.344.438.637.648.69.413 1.068.177 1.027.679 1.202.456-.375.239-.388.025-.52.075-.721-.23h-.285l-.04.233.478.284.466.324.168.492.277.583.666.654.415.327.027.233-.13.427-.033.357.228 1.64-.153.1-.246.008-.261-.009-.214-.178-.187-.106-.082.253-.193.73-.434 1.642-.38 1.44-.476.51-.689.809-.944 1.107-1.369 1.606-1.012.742-.799.586-.932.676-1.204.873-1.35.49-1.881.682-1.33.482-.981.337-1.022.352-1.35.463-.522.438-.867 1.07-.404.517-.37.444-.075.203.047.13.178.216.013.221-.244.139-.21.022-.095-.111-.07-.244-.224-.249-.26-.072-.15.061-.014.227-.34 1.096-.013.532-.144.21.013.477-.344.444-.15.395-.104.335-.277.233-.099.367-.256.775-.299.608-.21.52-.04.39.16.275.054.222-.144.398-.078.3-.382.203-.793.484-.31.331-.121.377.078.321-.034.267-.376.1-.134.232-.254.41-.288.143-.74-.217-.545-.004-.42-.2-.46-.587-.377-.495-.308-.64-.096-.88-.412-.26-.407-.305-.486.085-.578.059-.321-.204-.789-.373-.674-.42-.51-.21-.387.1-.232.254-.41.454-.604.314-.272-.015-.365-.21-.066-.244.299-.387.61-.853-.676-.023-.233-.265-.033-.31-.111-.333.133-.399.354-.21.532.166.365.011.244-.376.244-.167.244-.121.1-.189-.257-.603-.076-.327.078-.188-.013-.377-.014-.277-.155-.244-.013-.365-.133-.2-.044-.21-.011-.244-.167-.122-.176-.124.144-.088.96-.338.399-.337.493-.307.424-.472.28-.453.663-2.097.621-1.326-.104-.632-.515-.858-.116-1.264.047-.384-.067-.29-.344.525.088 1.862-.303.837-.425.202-.276-.147.157-1.36-.31.248-.497.922-.814.684-.044.228-.197.282-.629-.26-.479-.28-1.572-1.535-1.033-.32-.624-.536-.13-.225-.075-.31.637-.322.652-.432.066-.952-.017-.748-.482-1.276.225-1.668-.124-.653-.552-1.386.409-.698 1.458-.51.467-.34.328-1.1.332-.658.65.266.51-.031-.687-.245-.56-.99-.093-.455 1.079-1.356.564-.353.694-.717.584-1.081.142-1.707-.242-1.22-.182-1.29.35-.333.887-.171.721-.416.366-.385.857.057.99-.595 1.584-.299 2.206-.68.486-.601-.218-1.068.206.138.615.51.372.503.63.314.51.253z" style="display:inline;fill:#5736e7;fill-opacity:1;fill-rule:nonzero;stroke:#505050;stroke-width:.5;stroke-linecap:round;stroke-linejoin:round;stroke-miterlimit:4;stroke-dasharray:none;stroke-opacity:1" transform="translate(-9.355 -93.616)" id="path2" />
  </g>
</svg>
