<?xml version="1.0" encoding="UTF-8" standalone="no"?>
<svg width="20.353" height="25.024" version="1.1" id="svg6" sodipodi:docname="french_guiana.svg" xmlns:inkscape="http://www.inkscape.org/namespaces/inkscape" xmlns:sodipodi="http://sodipodi.sourceforge.net/DTD/sodipodi-0.dtd" xmlns="http://www.w3.org/2000/svg" xmlns:svg="http://www.w3.org/2000/svg">
  <defs id="defs10" />
  <sodipodi:namedview id="namedview8" pagecolor="#ffffff" bordercolor="#666666" borderopacity="1.0" objecttolerance="10.0" gridtolerance="10.0" guidetolerance="10.0" inkscape:pageshadow="2" inkscape:pageopacity="0.0" inkscape:pagecheckerboard="0" />
  <g style="display:inline" id="g4">
    <path class="polygon" d="m273.29 70.951-.238.705.7-.615 1.085.974.307.478.337.881-.116.567-.15.292-.007.227.322-.313.181-.248.054-.591.263-.733.353-.013.281.436.583 1.9.22.389.084.603-.034.27.04.25-.206.144-.56.315-.256.42-.149.404-.348.275-.331.346-.103.28-.31.222-.06.37-.782 1.302-.311.587-.448.623-.28.232-.379.37-.193.43v.443l-.266.531-.147.458-.25.266-.662 1.45-.034.5-.157.296-.47.69-.319.417-.554.31-.583.34-.222.369-.411.187-.3.012-.487-.134-.655-.064-.333.043-.15-.183-.223-.422-.328-.298-.212.104-.44.3-.517.176-.368-.059-.802-.208-.342-.104-.103-.178-.118-.132-.177.059-.237.221-.315.232-.468.306-.96.55-.27.197-.25-.107-.406-.109-.436-.006-.938-.357-.549-.254-.237-.319-.277-.138-.163-.087.077-.06.243-.046.218-.005.337-.488.56-.304.973-1.69.41-.697.047-.382.116-.795-.217-.968.101-.272.837-1.17.359-.637.026-.55.104-.395-.103-.207-.19-.06-.319-.513-.206-.425-.568-.435-.389-.447-.638-1.025.06-.576-.18-.207-.196-.21.014-.262-.133-.644-.165-.606-.06-.381.157-.657-.095-.73-.207-.384-.054-.584.04-.523.178-.296-.034-.366.808-1.165.613-.676.564-.473.473-.354.641-1.77.467-.623.488-.088 2.63 1.465 1.233.135 2.486.792.9 1.015 2.083 1.69 1.095.53z" style="display:inline;fill:#e736e1;fill-opacity:1;fill-rule:nonzero;stroke:#505050;stroke-width:.5;stroke-linecap:round;stroke-linejoin:round;stroke-miterlimit:4;stroke-dasharray:none;stroke-opacity:1" transform="translate(-257.453 -64.632)" id="path2" />
  </g>
</svg>
