<?xml version="1.0" encoding="UTF-8" standalone="no"?>
<svg width="33.385" height="49.722" version="1.1" id="svg6" sodipodi:docname="guyana.svg" xmlns:inkscape="http://www.inkscape.org/namespaces/inkscape" xmlns:sodipodi="http://sodipodi.sourceforge.net/DTD/sodipodi-0.dtd" xmlns="http://www.w3.org/2000/svg" xmlns:svg="http://www.w3.org/2000/svg">
  <defs id="defs10" />
  <sodipodi:namedview id="namedview8" pagecolor="#ffffff" bordercolor="#666666" borderopacity="1.0" objecttolerance="10.0" gridtolerance="10.0" guidetolerance="10.0" inkscape:pageshadow="2" inkscape:pageopacity="0.0" inkscape:pagecheckerboard="0" />
  <g style="display:inline" id="g4">
    <path class="polygon" d="m240.43 66.448-.356.423-.067.269-.23.477-.179.258.26.594.297.026.113.076.074.116-.013.126-.114.113-.284.144-.27.342.027.377-.169.197-.543.105h-1.064l-.521.026-.418.064-.274.245-.349.17-.273.04-.242.285-.24.403.08.276.249.368.146.376-.192.61-.21.47-.125.36-.168.691-.409.76-.292.433v.47l.149.669.834.973.276.465.227.745.752.587.475.475-.047.628.06.195.295.158.356.122.395-.01.353-.054.083-.088.816-.012.092.157.047.903.033.366.195.147.116.224.007.203.04.506.121.265-.02.54.084.198.225.134.285.387.107.049.054.136.244.55.123.165.088.024.033.191.177.515.12.127.228.378.091.412.302.464.308.327.139.339.393.748.38.526.517.137.432.073.27.203.266.218-.286.1-.256.134-.354-.103-.492.056-.511.148-.473.073-.89-.236-.27-.032-.185-.102-.369-.464-.175-.055-.474.217-.576.15-.28-.029-.33.157-.308.209-.588.905-.303.32-.326.147-.652-.005-.696.032-.521.22-.489.111-.244.014-.083.497-.11.23-.154.132-.38.04-.34-.018-.207-.207-.384-.103-.34-.074-.221-.118-.178.03-.147.206-.119.177-.103.325-.517.104-.222.184.129.61-.06.237-.109.185-.624.037-.533-.013-.306.225-.381.261-.232.049-.272-.016-.363-.303-.347-.373-.884-.262-.876-.217-.575-.593-.136-.292-.27-.129-.682-.703-.377-.453-.408-.12-.469-.19.02-.328-.033-.316-.201-.128-.283-.085-.104-.177.027-.414.054-1.066-.079-1.022-.629-.354-.271-.24-.476-1.51-.225-.682-.013-.505.158-1.507.179-.652.486-1.308.28-.443.014-.33-.027-.427-.142-.84.822-.529.352-.223.06-.354.441-.448.195-.428.162-.335-.047-.178-.192-.103-.226-.32-.476-.919-.172-.186-.145-.258.074-.408.186-.441-.026-.185-.285-.238-.586-.397-.487-.03-.377-.143-.554-.02-.443-.044-.251-.148.053-.243.11-.188.373-.462.249-.495.033-.483.076-.636.108-.551.06-.623-.585-.41-.187-.336-.242-.299h-.266l-.401-.128-.627.393-.493-.073-.34.148-.783-.03-.502-.191-.608.127-1.42-1.576-1.428-1.586-1.404-1.56-.093-.212.587-.742.524-.534.439-.303.206-.267-.158-1.144.007-.412-.205-.447-.148-.503.177-.419.212-.292.273-.113.655-.102.463-.041.163-.168.27-.195.35-.01.69.134.315-.252.569-.342 1.28-.592.287-.385.201-.597-.02-.281-.131-.107-.317-.098-.486-.013-.391.153-.402-.084-.335-.367-.02-.305.198-.43-.116-.285-.64-.907.005-.25.463-.406.264-.346.36-.829.287-.276.89-.096.227-.177.455-.438.675-.5.976-.399.28-.726.173-.198.775-.383.136-.204-.02-.18-1.23-1.63.247.112.966 1.064.534.23.113.005.004-.276.49.116 1.267.727 1.854 1.202 2.603 2.27.74.865.5.407.773.99.227.484-.02 1.927-.686 1.303-.167.98-.04 1.304-.4.75.53-.408.164-1.177.45-.715.585-.785.78-.188.842.334.677.059.597.233 1.271 1.254 1.241.993.452.796 1.316.398.778.628.25.543.154 1.422-.255 2.146z" style="display:inline;fill:#e73685;fill-opacity:1;fill-rule:evenodd;stroke:#505050;stroke-width:.5;stroke-linecap:round;stroke-linejoin:round;stroke-miterlimit:4;stroke-dasharray:none;stroke-opacity:1" transform="translate(-212.06 -46.094)" id="path2" />
  </g>
</svg>
