<?xml version="1.0" encoding="UTF-8" standalone="no"?>
<svg width="39.563" height="16.427" version="1.1" id="svg6" sodipodi:docname="panama.svg" xmlns:inkscape="http://www.inkscape.org/namespaces/inkscape" xmlns:sodipodi="http://sodipodi.sourceforge.net/DTD/sodipodi-0.dtd" xmlns="http://www.w3.org/2000/svg" xmlns:svg="http://www.w3.org/2000/svg">
  <defs id="defs10" />
  <sodipodi:namedview id="namedview8" pagecolor="#ffffff" bordercolor="#666666" borderopacity="1.0" objecttolerance="10.0" gridtolerance="10.0" guidetolerance="10.0" inkscape:pageshadow="2" inkscape:pageopacity="0.0" inkscape:pagecheckerboard="0" />
  <g style="display:inline" id="g4">
    <path class="polygon" d="m76.93 54.495-.366.036-.75-.287-.55-.556-.043-.18.011-.184.3-.567.401-.196.158.003.384.655-.261.253.105.406.544.3zm17-6.171-.3.297-.116-.282.21-.291.073-.003zm1.12-.135-.133.284-.314-.632.047-.163-.02-.571.299-.15.22-.014.181.08.114.673-.094.304zm-22.34-7.411-.074.312-.518-.563.308-.092.11.01zm19.278-1.263.963.25.666-.033.64.177.28.385.29.164 1.573-.042 1.29.19 2.823 1.14 1.688 1.126.895 1.196 2.164 1.549-.127.091-.37.528-.203.452.477.476.144.507.27.55.421.552.471 1.026.11.412-.134.267-.45.164-.419.48-.114.585.08.29-1.256.935-.323.155-.214-.144-.268-.47-.32-.378-.172-.132-.1-.006-.1.087-.047.206.167.878-.14.357-.426.274-.487 1.43-.192-.181-1.61-1.925-1.394-2.386-.29-1.079.361-.064.35.024.188-.166.218-.314-.176-.73.677-.554.255-.374.188.044.443.635.644.365.79.53.49.12-.62-.556-1.068-.731-.3-.48-.283-.67-.418.29-.193.244-.217.139-.188-.167-.034-.216-.63-.042-.161-.196-.167-.11.076.417.124.258-.067.31-.205.022-.176-.321-.224-.29-.298-1.216-.716-.573-.328-.191-.27-.072-.399-.39-.526-.208-.717-.605-.878-.433-1.074-.153-1.305.094-.44.24-.298.306-.14.142-.77.35-.292.507-.184.427-.385.485.44.293-2.515 1.646-.498.24-1.13.168-.26.177-.344.325-.046.495.052.421.328.325.292.205.7.98 1.245 1.237.236.45.193.668-.376.314-.29.133-1.184.052-.408.267-.166.41-.441.332-1.526.33-1.198.038-.373-.383-.09-1.074-.807-1.833-.193-1.263-.201.157-.428.147-.145.314-.107.932-.158.318-.33-.03-.678-.334-.902-.308-1.149-1.974-.124-.372-.224-.443-.888-.186-.757-.333-.827-.052-.423.187-.432-.238-.074-.54-.867.242-1.113-.084-.995-.231-.68.123-.57.383.079.984-.167.193-.027-.401-.198-.463-.239-.383-.502-.396-.026-.146.2-.201.91-.574.113-.24.014-.5-.088-.478-.41-.704.234-.435.47-.349.481-.276.082-.117-.09-.238-.28-.259-.659-.44-.395-.027-.017-1.265.02-1.341.1-.133.241-.08.193-.205.109-.397.287-.14.52.305.532.27.22-.09.165-.13.116-.13.038-.124.424.357.868.635.05.312-.081.3.238.857.451.125.453-.167.112.159-.084.158-.233.178-.058.737.742.345.372.303 1.23-.143.454.08.31-.087-.344-.592-.46-.438.038-.197.35.145.266.299.605.37 1.116 1.285 1.278.311 1.012-.041.942-.174 1.504-.5 1.086-.901.868-.403 2.812-.857.999-.896.421-.118.402-.112.884-.678.475-.529.502-.266z" style="display:inline;fill:#e73636;fill-opacity:1;fill-rule:nonzero;stroke:#505050;stroke-width:.5;stroke-linecap:round;stroke-linejoin:round;stroke-miterlimit:4;stroke-dasharray:none;stroke-opacity:1" transform="translate(-67.14 -39.073)" id="path2" />
  </g>
</svg>
