<?xml version="1.0" encoding="UTF-8" standalone="no"?>
<svg width="56.833" height="55.883" version="1.1" id="svg6" sodipodi:docname="paraguay.svg" xmlns:inkscape="http://www.inkscape.org/namespaces/inkscape" xmlns:sodipodi="http://sodipodi.sourceforge.net/DTD/sodipodi-0.dtd" xmlns="http://www.w3.org/2000/svg" xmlns:svg="http://www.w3.org/2000/svg">
  <defs id="defs10" />
  <sodipodi:namedview id="namedview8" pagecolor="#ffffff" bordercolor="#666666" borderopacity="1.0" objecttolerance="10.0" gridtolerance="10.0" guidetolerance="10.0" inkscape:pageshadow="2" inkscape:pageopacity="0.0" inkscape:pagecheckerboard="0" />
  <g style="display:inline" id="g4">
    <path class="polygon" d="m233.965 238.685.148.487.088.377.222.266.222.354.221.199.155.332-.047.377.089.487.11.422.111.11.318.11.159.383-.115.194.047.22.114.217-.105.21.054.161.216.144.2.532.02.909-.222.487-.178.399-.047.244.133.353-.222.422-.266.51.067.354.047.332.02.354.067.333-.088.353-.089.311-.047.354.111.399-.199.376-.11.266-.047.266.2.42.509.178.399.047.376-.221.288-.067.532.2.487.354.62.046.554.067.42.112.621-.133.642.133.754.2.62.177.62-.047.466-.02.487-.2.465.02.355-.354.2-.31.177-.222.509-.177.354.11.288.576.51.332.199.244.376.11.82.02.51-.02.576.178h.376l.333.31.31.377.047.687.288.532.377.2.199.332-.067.465-.178.465.02.51.2.464v.465l.133.465.265.4.089.642-.047.465.177.266.067.376-.11.31-.047.42.02.378.133.31.399.399.11.709v.487l.178.576.332.266.532.089.62.088.754-.132.664-.156.377-.155.73-.42.643-.244.333-.155.31-.111.642.265.599.333.465.464.864.51-.168.125-.345.417.007.49.244.702-.214 1.487-.67 2.273-.276 1.325.12.376-.247.662-.92 1.424-.034.96-.108 2.878-.306 2.03-.518 1.501-.472.8-.424.097-.306.239-.185.38-.345.317-.504.254-.273.278-.04.302-.484.194-.922.087-.542.242-.161.396-.309.315-.457.232-.217.386.02.54-.262.462-.547.386-.504.013-.462-.365-.62-.242-.776-.12-.647.092-.52.303-.46.482-.403.661-.446.11-.492-.442-.621-.134-.753.174-.599-.06-.446-.295-.685-.034-.923.23-1.872-.264-2.82-.763-2.385-.29-2.924.274-.247-.792.155-.429.475-.322.298-.365.12-.41.328-.31.535-.214.227-.217-.081-.22.114-.194.308-.168.175-.266.04-.363.116-.18.206-.134.02-.251-.115-.777.014-.637.144-.496.179-.3.127-.074.118-.178.047-.3.192-.279.934-.573.351-.31.027-.284.14-.384.555-.825.17-.387.014-.193.196-.2.668-.46.362-.432.054-.405-.16-.46-.38-.514-1.192-1.286-.925-.584-1.183-.483-.78-.156-.374.17-.38-.133-.384-.436-.648-.344-1.37-.377-3.102-1.503-1.244-.726-.418-.448-1.16-.805-1.902-1.16-1.46-.566-1.017.034-1.628-.338-2.24-.706-1.294-.687-.347-.664-.829-.666-1.31-.666-.68-.44-.047-.21-.388-.275-.727-.34-.797-.58-.868-.822-.928-1.272-.988-1.722-1.061-1.16-1.132-.6-.566-.397.002-.194-.17-.186.151-.333.413-1.308.597-1.898.619-1.967.729-2.315v-1.643l.002-1.73 1.036-1.424.735-1.01.636-.963.643-1.647.43-1.1 1.64-.26 2.786-.572 1.388-.285 2.928-.602 2.976-.61 3.125-.04 3.017-.04 2.34 1.366 1.788 1.044 1.97 1.15.134.248.135.964z" style="display:inline;fill:#3660e7;fill-opacity:1;fill-rule:evenodd;stroke:#505050;stroke-width:.5;stroke-linecap:round;stroke-linejoin:round;stroke-miterlimit:4;stroke-dasharray:none;stroke-opacity:1" transform="translate(-203.61 -232.552)" id="path2" />
  </g>
</svg>
