<?xml version="1.0" encoding="UTF-8" standalone="no"?>
<svg width="85.24" height="123.107" version="1.1" id="svg6" sodipodi:docname="peru.svg" xmlns:inkscape="http://www.inkscape.org/namespaces/inkscape" xmlns:sodipodi="http://sodipodi.sourceforge.net/DTD/sodipodi-0.dtd" xmlns="http://www.w3.org/2000/svg" xmlns:svg="http://www.w3.org/2000/svg">
  <defs id="defs10" />
  <sodipodi:namedview id="namedview8" pagecolor="#ffffff" bordercolor="#666666" borderopacity="1.0" objecttolerance="10.0" gridtolerance="10.0" guidetolerance="10.0" inkscape:pageshadow="2" inkscape:pageopacity="0.0" inkscape:pagecheckerboard="0" />
  <g style="display:inline" id="g4">
    <path class="polygon" d="m154.883 131.988-.04.437-.214.174-.331.04-.506-.311-.37.077-.37.02-.52-.363-.18-.357-.408-.292-.844.117-.696.007-.583-.066-.522.097-.445.377-.332.44-.39.37-1.142.246-.608.007-.548.242-.814.089-.556.215-.985.118-1.182.114-.659.328-.263.143-.67.453-1.168.714-.644.249-.778.772-.933.725-.606.386-.892.178-.369.194-.137.234.079.272-.151.699-.273 1.29-.075.633-.067.303-.591 1.036-.635.963-.312.639-.175.467.194.388.26.698.217.561.06.379-.073.435-.269.397-.421.26-.571.072-1.168.702-1.304 1.034-.426.482-.122.454-.19.712.078.37.233.252.233.603.02.311-.194.175-.37.04-.331.058-.253.156-.252-.04-.234.078v.253l.078.292-.04.31-.156.196-.136.136.136.194.234.175.35.292.486.564.37.097.311.194.04.312-.116.31-.273.137-.02.272.37.33.252.234.253.35.233.486v.312l.253.388.155.331v.312l.409.31.35.234.252.214.254.136.06.233-.034.354.364.583.665.438.54.634.349.46.646.74.027.85-.8.976-.802.976 1.31-.027 1.337.02 1.399.278.943.27.574.12.408.311.194.486.156.397.04.575.584.467-.04.443-.014.627.258.01 1.712.003 1.872.003 1.8-.117.679-.151.821-.761.493-.226.475-.355.578-.648.457-.293.387-.359.576-.36.239-.266.194-.097.448-.176-.195.35-.148.36-.047.516.214.563-.178.422-.289.376-.005.992-.006 1.405-.006 1.204-.007 1.506-.007 1.706-.005 1.135.307-.224.424-.2.552.522.392.226.337.054.346-.016.47-.111 1.03-.437.71-.352.808.024 1.11.138.64-.015.837 1.453.614 1.064.698 1.213.563.976.854 1.483.738 1.28.786 1.364.894 1.55-.288.394-.233.315.027.533-.353.283-.374.172-.443.448-.3.389-.014.552.053 2.812-.075.764-.228.657-.237.331-.142.26.342.653.327 1.311.246.26.307.533.139.505-.06.195-.613.238-.219.206-.06.751-.266.27-.448.354-.288.406-.245.278-.239.165-.116.495-.159.501-.559.331-.095.618-.007.506.294.508.962 1.07.098.255-.548.645-.319.445-.78 1.367-.014.249.194.645 1.168 2.761.198.226.36.262.59-.026.889.296.433.34.04.169-.1.113-.47.23-.524.298-.18.284-.033.447.119.666-.227.215-.522.26-.45.371-.452.62-.766.94-.265.26-.115.323-.435.11-.814.639-.14.323.133.308.416.258.28.375.074.478-.001.298v.007l-.505.45-.658.513-.813.102-.308.26.07.545.263.77-.001.604-.249.691-.58.755-.89.518-.835.28h-.66l-.637.054-.274.08-.49-.454-2.184-1.509-.832-.807-.77-.377-1.877-1.294-.188-.415-.23-1.33-.245-.375-.645-.48-1.623-.64-.629-.32-.66-.583-.967-.412-1.054-.846-.629-.678-.704-.448-2.186-.627-1.097-.627-2.05-.886-.913-.565-2.194-.687-.652-.327-2.158-1.61-1.513-.526-1.219-.904-3.68-1.923-.577-.615-.563-.951-.817-.567-.919-1.302-1.366-.765-1.315-1.014-.485-.923-.872-1.176-.259-.627-.762-.627-.054-1.237-.532-.571.382-.28.404-.124.504-1.926-.266-.965-1.364-1.75-.501-.841-.356-1.078-.549-.64-.81-1.345-.496-1.195-1.085-.868-.294-.31-.165-.442-.603-.312-.034-.917-.42-1.742-.6-.877-2.165-1.639-.034-.631-.172-1.149-.48-1.241-2.408-3.86-.604-1.148-.603-1.867-.541-1.06-.598-1.886-.9-1.433-.567-1.243-.603-1.545-.053-.827-1.093-1.423-.582-1.302-1.02-1.092-.993-.83-.432-.587-1.417-2.791-.194-.826-.966-1.535-.956-1.104-.605-.889-.772-.8-4.698-2.46-1.654-1.024-.56-.487-.257-.766.108-.449.486-.421.67.325.41-.135.32-.548.006-.83-.41-1.07-1.505-2.065.114-.437.283-.496-.58-.993-.632-.796-.316-.61.358-2.327.342-.59 2.278-2.361.626-1.01.977-.621.998-.952 1.2-.725.176.125.166.121.011.244.044.21.133.2.014.365.154.244.014.277.013.377-.078.188.076.327.257.604-.1.188-.244.122-.244.166-.243.377-.366-.012-.531-.166-.355.21-.133.4.11.331.034.311.233.266.676.022-.61.853-.299.387.067.244.364.21.272.015.604-.314.41-.454.232-.255.388-.1.51.211.673.42.79.373.32.204.577-.059.486-.085.407.306.412.258.096.88.309.641.377.495.459.588.42.2.546.003.74.218.287-.144.255-.41.133-.233.377-.1.033-.265-.078-.322.122-.376.31-.331.793-.485.381-.203.078-.3.144-.398-.053-.221-.16-.276.04-.389.21-.52.299-.609.256-.775.098-.367.277-.232.105-.336.15-.395.344-.444-.014-.476.144-.21.014-.533.34-1.096.013-.227.15-.06.26.071.225.249.07.244.094.111.21-.022.244-.139-.014-.22-.177-.217-.047-.13.076-.203.369-.444.404-.516.867-1.07.522-.438 1.35-.464 1.022-.351.98-.337 1.33-.482 1.881-.682 1.35-.491 1.205-.873.932-.676.799-.586 1.012-.742 1.369-1.605.944-1.108.69-.81.475-.509.38-1.44.434-1.641.192-.73.083-.254.187.107.213.177.262.01.246-.01.153-.1-.228-1.639.034-.356.129-.428-.027-.232-.415-.328-.667-.654-.276-.583-.168-.492-.466-.323-.478-.285.04-.233h.285l.721.23.52-.075.388-.025.375-.239.401-.434h.272l.306.058.56.444.333.262.4.217.379.075.343.026.24-.021.142.297.168.363.427.245.504.233.411.4.276.27.326.319.317.422.288.741.146.504.164.28-.04.285.338.515.251.287.44.182.846.206.453.466.401.181.428.479.375.143.478-.026.478.232.362.453.233.57.363.323.181.582-.207.685.194.363.375.297.608.311.557-.077.284.103.181.285.104.336.243.823.126.521-.226.504-.084.349.122.468.578.226.526.186.325.364.361.096.509-.02.65-.089.362-.208.233-.063.259.09.576.2.704.227.635-.131.552-.06.546-.132.556-.376.466.014.347-.254.436-.408.433-.412.336-.09.544.196.75.282.425.369.325.097.338.27.65.005.694-.146.556-.453.577-.132.393-.126.362.078 1.401.827.384.427.483.084.396.233.66.252.363.258.466.156.336.362.534.223.461.123.209.291.002.195-.067.13-.49.763-.958 1.495-.863 1.346-1.357 2.12-.76 1.184.193.05 1.183.519.293.02.434-.133.28-.207.267-.03.275.201.39.258.28.753.207.369.487.28.52.469z" style="display:inline;fill:#a836e7;fill-opacity:1;fill-rule:evenodd;stroke:#505050;stroke-width:.5;stroke-linecap:round;stroke-linejoin:round;stroke-miterlimit:4;stroke-dasharray:none;stroke-opacity:1" transform="translate(-78.476 -103.643)" id="path2" />
  </g>
</svg>
