<?xml version="1.0" encoding="UTF-8" standalone="no"?>
<svg width="400" height="480" version="1.1" id="svg40" sodipodi:docname="south_america.svg" xmlns:inkscape="http://www.inkscape.org/namespaces/inkscape" xmlns:sodipodi="http://sodipodi.sourceforge.net/DTD/sodipodi-0.dtd" xmlns="http://www.w3.org/2000/svg" xmlns:svg="http://www.w3.org/2000/svg">
  <defs id="defs44" />
  <sodipodi:namedview id="namedview42" pagecolor="#ffffff" bordercolor="#666666" borderopacity="1.0" objecttolerance="10.0" gridtolerance="10.0" guidetolerance="10.0" inkscape:pageshadow="2" inkscape:pageopacity="0.0" inkscape:pagecheckerboard="0" />
  <g style="display:inline" id="g38">
    <path style="fill:#b5ddff;fill-opacity:1;stroke:none;stroke-width:1.12638998;stroke-linejoin:bevel;stroke-miterlimit:4;stroke-dasharray:none;stroke-dashoffset:3.20000005;stroke-opacity:1" d="M0 0h400v480H0z" id="path2" />
    <path class="polygon" d="m191.166 470.126.74.156 1.462-.117.772-.002.337.054.15.084 1.009-.13.445.013-.114.287-.93.286-.382-.12-1.973.026-.873.293-.371-.003-.862.42-.63-.265-.174-.244.456-.347.43-.007.293-.14zm-24.978-11.603.255.656-.622-.417-.657.239-.324.392-.277.425.002.299.215.262.639.227 1.554.077.113.085.909 1.641.457.366.53.292 1.226.836 1.175.904 1.396.856 1.506.658 1.368.5 1.307.61 1.394.853 1.516.62 1.628.437 1.645.366 2.53-.143.786.04.489.268-.491.742-.627.597-.839.246-.885.09-.8-.013-.799-.11-.748.06-.716.25-.747.125-.768.013-.75.212-.753.153-.78-.126-2.029-.592-1.317-.142-4.462-.235-1.433-.136-1.427-.207-.747-.007-1.067.134-.855-.014-.232.133.04-1.512.054-2.035.013-1.816.014-1.77.013-1.83.013-1.833.014-1.959.013-1.988.393.283 1.557 1.375zm42.886-92.52.067.423-.349-.047-.828-.406-.28-.38-.066-.16.846.174.399.157zm-26.092-114.357.569.071 1.12-.105.228.027 2.86.034.437.046 1.002.23.565.183.392.096.634.29.548.956.308.762.216.67.479 1.177.326.446.116-.216.278-1.286.384-.75.518-.841 1.043-1.965.364-.294.406-.143.284-.013.289.146.392.002.28-.156 2.733-.027 2.84-.02.06.014.128.338.472.739.531.389.096.105.17.186-.002.194.565.396 1.132.6 1.061 1.16.988 1.723.929 1.271.867.822.798.581.726.34.389.274.053.211.68.44 1.31.666.83.666.346.664 1.293.686 2.24.707 1.63.337 1.017-.033 1.46.565 1.9 1.16 1.16.806.419.448 1.244.726 3.103 1.503 1.369.377.648.343.385.436.38.133.374-.17.779.157 1.183.483.926.584 1.19 1.286.38.514.161.46-.053.405-.363.432-.668.459-.196.2-.013.194-.17.386-.555.826-.14.384-.028.283-.351.31-.933.574-.193.279-.047.3-.117.177-.128.075-.18.3-.143.496-.014.637.116.777-.02.25-.207.134-.116.18-.04.363-.175.266-.308.17-.114.193.081.22-.227.216-.535.214-.328.312-.12.408-.298.365-.475.323-.155.429.247.792 2.925-.274 2.385.29 2.82.762 1.871.265.924-.23.684.034.447.294.598.06.753-.173.622.134.491.442.446-.11.402-.66.461-.483.52-.304.648-.092.776.12.619.243.462.365.504-.013.548-.387.262-.462-.027-.54.217-.385.457-.232.308-.315.161-.396.542-.242.923-.087.483-.194.04-.302.273-.278.504-.254.345-.317.186-.38.305-.24.425-.097.471-.8.518-1.5.307-2.03.108-2.879.522.003.243.214.386.111.406-.243.345-.112.548-.007.294-.274.346-.047.237.15.229.178.487.04.385.467.426.142.18.536.275 1.412.511.831.506.947.02.423-.283.427-.047.611-.177 1.496-.06.55.175.376.067.523-.276.64-.534.956-.518.258-.132.013-.702.554-.494.207-.285-.14-.327.24-.368.62-.448.277-.811.153-.243.073-.473-.02-.405.154-.338.33-.36.124-.385-.083-.348.121-.313.326-.181.353-.047.379-.306.258-.563.138-.194.191.033.265-.251.207-.953.215-.688.382-.424.548-.449.346-.708.211-.958.557-.138.344.366.318.13.282-.102.246-.3.033-.496-.18-.354-.04-.211.106-.1.199.013.292-.177.198-.367.105-.232.241-.098.377-.46.475-.822.573-.648.772-.475.97-.554.638-.634.305-.437.435-.239.565-.676.874-1.113 1.185-1.01.814-.906.441-.509.498-.112.556-.588.632-1.062.71-.302.321-.247.263-.034.456-.414.599-.793.742-.277.641.362.81.053.983-.157.394-.35.133-.08.254.188.373.014.491-.167.61-.369.697-.57.785-.137.524.296.265.145.28-.006.297-.12.431-.238.565-.358.42-.48.273-.144.345.192.418.026.435-.138.452.081.441.303.43-.02.488-.524 1.003-.126.618.329 2.648-.2.372-.332.426-.392.034-.45-.074-.324.265-.204 1.169-.619 2.529.111.6.496.972.181.62.138.468.11.886-.288.4-.266.07-.336.222.397 1.08.317.497.908 1.017 3.482 1.414 1.445.833 1.636 1.136.89 1.165.08.961-1.307 1.436-.144 1.206.268.847.472.786 1.265 1.023.93.373 1.258-.04.215.286.13.25.199 2.068-.027.778-.369.713-2.415 3.273-2.064 1.998-.747 1.103-.265 1.181-.66.563-3.575 1.783-5.547 1.59-4.481.827-1.019.278-7.205.91-1.395.126-1.813-.08-1.471.12-1.644-.248-1.467-.286-.82-.71-.974-.087-.266.353.475.906-.231 1.088.288.621.576.125.553.321.488.43-.842.046.327.343.36.2-.04.716-.327 1.722-.82.37-.22.098-.25.371-.521 1.647-.168 1.068.224.689.986 1.446-.372.938-.624.51-2.7 1.047-1.078.419-1.7.287-2.74.047-1.012-.067-2.346-.953-1.743-.572-1.595-.455-1.55-.273.221-.137.104-.246-.436-.139-.318-.027-1.021.495-.429.505-.124.444-.02 1.063.181.892.735 2.198.075 1.194-.349 1.506.487.885.592.4 1.33.395.516.27.567-.04.174.104-.084.194-.334.38.02.403 1.009.119 1.044-.081 1.096-.178.26-.28.006-.584-1.284-.103.163-.218.974-.237 1.275-.39.652-.071.442.262.3.239.367.63.228.829.014.998-.154.94-.181.334-.322.399-2.293.509-.642-.133-.598-.709-.188-.733-.51-.494-1.096-.394-1.09.12-1.082.682-1.063.222-.376.62 2.664 1.005 1.257.28.41-.007.41.131-.379.374-.378.231-1.896.512-.835.357-.976.701-1.368 1.531-.419.334-.209.389-.141 1.055.442 1.75-.467.733.287.814-.162.543-.479.781-1.918 1.233-.34.903.665.532-.047.465-.221.42-.797-.005-2.897-.284-1.056.461-.976.563-.267.27-.346.167-1.992.3-.394.199-2.119 2.143-.907 1.328-1.096 1.303-.287.552-.06.766.153.688.152.508.38.652.803.744 4.085 3.028.847.264 4.366.324.97.422.567.67.208.591-.25 1.497-.26.467-.483.425-1.033.547-1.237.292.355.207.502-.027 1.093-.178.473.178.359.589-.684.239-.21.285-.494.435-2.52 1.729-1.359.517-1.25.693-1.676.701-.655.404-.887.846-1.36.921-1.464 1.976-.06.384.212.255-.814 3.461-.284.407-.59.434-1.552.716-.747.089-.988-.415-.557-.434-.545-.743-.659-.767-.033.274.229.466-.155.488-1.684.22-.446.23 1.52-.102 1.037.146.438.179.394.37.347.446-.292.246-.83.204-1.075.375-1.27.678-.706.782-.304.563-.343 1.135-.09.75-.538.576-.827.519.047.119.561-.266.449-.084.385.692.52 1.384.243.957-.04.285-.155.39-1.07.094-.954-.013-.703.167.378.173.643-.06.89.41.99-.175.45.274.324.251 1.514 2 1.322 1.235.668.733-.332.332-.118-.443-.863-.115-.84-.12-1.402-.317-1.887-.482h-1.89l-1.502-.407-1.659-.45-3.5-.04-3.084-.027-3.159-.027-2.022-.02-1.353-.013-.35-.17.117-.562-.502-.413-.728-.5-.884-.354-.439-.475-.49-.532.277-.472.424-1.148.007-.507-.384-.354-.118-.502.118-.236.347-.18.207-.825-.162-.808-.266-.722-.35-.318-.453-.152-.333-.027-.74.269-1.228-.067-.417.103-.6.29-.85.429-.473-.148-.145-.458-.315-.397-.201-.35-.152-.575-.25-.741-.502-.876-.768-.71-.04-.635-.143-.8.392-.78-.228-.646-.48-.771.148-.798.472-.443.149-.561 2.185-.089-.09-.755.363-.61.408-.552.347-.252.78-.22.917-.32.517-.366.247-.326.152-.423.04-.45-.15-.96.17-.294.568-.388.96-.346.414-.916-.237-.797-.533-.63-.677-.286-.06-.65.305-.617.4-.66.476-.76-.027-.532.422-.311 1.202-.694.414-.679.423-.184.492-.082.027-.383-.36-.38-.06-.48.04-.53.11-.707.562-.266.828-.574.222-.365.027-.489-.242-1.008-.206-.724-.104-.267-.379-.49-.278-.31.445-.387.836-.407.354-.59-.325-.503-.473-.266-.147-.768.177-.975.355-.295 1.24-.148.119-.502.945-.709-.027-.68-.6-.416-.589-.673-.435-.594-1.447-.325-1.537-.177-.206-.561.06-.325.715.131 1.167-.115.878-.026.612-.054.705-.082.65.237.65-.148.265-.886.414-.472.06-.444-.413-.353-.758-.11-3.311-.28-.1-.354.026-.595.125-.607-.002-.299.303-.264.342-.55.242-.368-.24-.477-.529-.705.384-.325.034-.387-.12-.38-.548-.422-.487-.582v-.62l.568-.165.378-.19.088-.384-.207-.472-.784-.144-1.046-.29-.32-.244-.294-.506.22-1.429-.11-.86-.092-.477.256-.366.348-.33-.165-.769-.312-.403.11-.311.293-.312.257-.384.22-.092.33.22.557-.129.669-.31.073-.367-.134-.524-.5-1.317-.447-.814.092-.294.177-.308-.14-1.12.047-.677.033-1.994.054-.681-.458-.695.06-.654.324-.476.304-.644.227-.572.237-.256.404-.128.091-.312-.182-.237-.522-.371-.119-.454.11-.348.257-.202.397.002.299-.496.085-.614.06-.284-.23-.358-.165-.846-.155-.48.183-.203.256-.073.451.114.32-.06.053-.257.033-.275.12-.187.285-.622.304-.771.07-.544-.108-1.476.161-.339.324-.31.452-.29.593-.242.738-.347.907-.128.367-.384.256-.513.074-.422-.348-.293-.458-.348-.218-.878-.118-.81-.067-1.023-.456-.88-.478-.988-.128-.88.16-.481.188-.764-.202-.348-.238-.623.247-.488.303-.758-.034-.384-.238-.916-.22-.513.22-.55.348-.512.275-.275-.047-.442.118-.364.52-.244.488-.451.348-.054h.421l.275-.128.11-.347.073-.385.67-.477.392-.44.714-.091.348-.476.007-.61-.081-.617.238-.714-.265-1.09.027-.577-.275-.476.054-.513-.147-.33-.415-.122-.153-.409.202-.201.391-.156.492-.313.369-1.508.174-.447.17-.54-.021-.279.236-.403.295-.612.465-.593.267-.407.258-.55.073-.329.33-.164.378-.04.445-.104.183-.201-.034-.295-.026-.649-.134-1.03-.086-1.329.079-.873.293-.88.275-.476-.073-.366-.073-.403-.513-.22-.488.19-.34-.053-.436-.467-.128-.495.073-.677.34-.423.136-.53-.201-.165-.43-.351-.407-1.215.047-1.034-.403-.275-.188-.808-.417-.29-.164-.605-.128-.623.053-.275.434-.076.244-.49-.183-.276-.33-.238-.42.02-.378-.28-.505-1.176-.4-.65.126-.948.079-.74.171-.633.067-.499.312-.238.292.11.275-.053.253-.406.278-.253-.02-.202-.165-.22-.078-.384.193-.458.335-1.05.505-1.156.217-.432-.053-.367.11-.164.343.182.975-.201.33-.513.128-.458.293-.257-.128-.366-.403-.11-.244-.172.097-.414.143-.954-.027-.703-.368-1.498-.296-1.483.209-.496.638-.678.486-.305.087-.387.48-1.752.054-.956.315-.53.207-.995.87-.857.256-.568.348-.053.183-.183.461-.633.6-.651.514-.328.128-.513.246-.7.512-1.163.286-.81.385-.294.448-1.061.193-.623.513-.257.403-.073.385.294.402-.053.367-.367.884-.249.398-.135.183-.367v-.64l-.367-.477-.749-.912-.643-1.018-.07-.321-.004-.35.11-.443.308-.503.773-.825-.083-.592-.563-2.173-.208-.6-.392-1.11.054-.44.344-1.228.298-.494.44-.091.237-.165.074-.22-.294-.274-.128-.348-.128-.494-.407-.174-.234-.412v-.604l.366-.787.403-.22.165-.348.431-.32.393-.247.33-.458 1.359-.561 1.08-.435 2.105-.833 1.444-.57.138-.396.111-.269.67-2.014.867-2.604.542-1.633-1.246-1.204.22-.32.714-.824.147-.66.284-.284 1.278-.671.22-.446.113-.494.26-.355.487-.073.885-.315.95-.299.286-.406.27-.707.23-.784.184-.187.305.02.51.197.268.298 1.329.939z" style="fill:#fff;fill-opacity:1;fill-rule:nonzero;stroke:#505050;stroke-width:.5;stroke-linecap:round;stroke-linejoin:round;stroke-miterlimit:4;stroke-dasharray:none;stroke-opacity:1" id="path4" />
    <path class="polygon" d="m233.965 238.685.133-1.11-.135-.965-.134-.248-1.97-1.15-1.788-1.044-2.34-1.367-3.017.04-3.125.04-2.975.612-2.929.601-1.388.285-2.785.572-1.641.26-.43 1.1-.643 1.647-.636.962-.736 1.011-1.036 1.424v1.73l-.002 1.643-.728 2.316-.62 1.966-.596 1.898-.413 1.308-.15.333-.096-.105-.532-.389-.472-.738-.128-.339-.06-.013-2.84.02-2.734.027-.278.155-.393-.002-.289-.146-.284.014-.406.143-.365.294-1.043 1.964-.517.84-.384.751-.278 1.286-.116.217-.326-.447-.48-1.176-.215-.67-.307-.762-.549-.957-.634-.29-.392-.095-.565-.183-1.002-.23-.436-.047-2.861-.034-.227-.026-1.121.105-.569-.071-.597-.535-1.329-.94-.268-.297-.51-.197-.304-.02-.184.187-.231.783-.27.708-.286.406-.95.299-.884.315-.487.073-.26.355-.113.493-.22.446-1.278.672-.284.284-.147.66-.713.824-.221.32-1.122.224-1.458.245-.853-.02-.583-.067-.175-.146-.395-.234-.067-.26-.006-.368.11-.66-.054-.92-.46-1.069.033-.345-.06-.524-.231-.984-.592-.497-.168-.819-.07-.72-.497-.901-.081-1.148.013-.984-.783-1.143-.814-1.215-.659-.165-.163-.145-.072-.35-.013-.54.053-.328.508-.532.02-.082-.104-.11-1.312-.798-.331-.23-.103-.284.007-.256.314-.262.159-.193-.308-.57.033-.514-.196-.22.02-.165.19-.142.852-.166.265-.521.007-.434-.127-.307-.79-.776-.013-.131.824-1.078.591-.708.162-.145-.047-.154-.146-.187-.375-.273-.487-.298-.402-.364-.525-.537-.663-.46-.489-.457-.25-.384-.005-.39-.067-.648-.321-1.05-.085-.71-.139-.785-.14-.512-.075-.497-.228-.536-.128-.391.183-.277.185-.214-.02-.135-1.262-.574-.208-.146-.298-1.148-.918-1.02-.107-.76v-.305l-.073-.478-.28-.375-.417-.258-.132-.307.14-.324.814-.639.435-.11.115-.323.265-.26.766-.94.451-.62.451-.371.523-.26.226-.215-.119-.666.04-.447.18-.284.523-.298.47-.23.1-.113-.04-.168-.433-.341-.889-.296-.589.026-.36-.262-.198-.226-1.168-2.761-.194-.645.013-.25.781-1.366.319-.445.548-.645-.099-.254-.961-1.07-.295-.51.006-.505.096-.617.558-.331.159-.502.117-.495.238-.164.245-.28.288-.405.448-.354.266-.27.06-.751.22-.206.612-.238.06-.195-.14-.505-.305-.534-.247-.259-.327-1.31-.342-.653.143-.26.236-.332.229-.657.075-.764-.054-2.812.013-.552.301-.389.443-.448.374-.171.353-.284-.026-.533.233-.314.287-.394-.894-1.551-.786-1.364-.738-1.28-.854-1.483-.563-.976-.698-1.213-.614-1.064-.837-1.453.777-.024 1.568.05 1.52.26 1.026.112.431.224.095.355.284.166.33-.065.372-.024.833-.364.672-.241.582-.292.298-.282.723-.992.583-.549.536-.192 1.05-.078.33.156.428-.02.369-.563.564-.623 1.109-.778.564-.214.35-.272.603-.04.529-.284 2.556-1.966 1.035-.506.646-.092.534-.12.909-.282 2.27-.273 1.46-.113.466.272.525-.078.447-.44.37-.143.272.014.39.52.191.553-.126.421.027.613.174.802-.097.712-.552.933-.277.38-.068.391.046.528.253.86.457 1.193.069.885-.32.573-.148.495.027.415.114.293.204.168.113.333.027.498.266.482.51.465.206.445-.096.423.026.264.15.105.14-.086.183-.116.167.042.357.59.046.12.195.487.06.37.524.206.566.163.31.195.626.583.525.385.658.315.22.504.403.76 1.108.293 1.296.145.824.165 1.008-.403.666.057.69.274.293.186.514.392.794.502.65.186.462-.28.428-.097.33.117.175.545.176.37.383.277.823.715.466.291.526-.02 1.082.47 1.156.456.596.075.588-.067.39.175.155.55 1.005 1.1.473.43.564.37 1.435-.005.43.11.639-.098 1.922-.188.349-.059 1.088.48 1.287.69.851.542.595.299.31.486.254.506.116.544-.155.541-.233.217-.079.35.097.525.428.468.158.575.232 1.017.263.322.17 3.15-.861.026-1.214.04.353.3 1.005 1.173.925 1.081.147 1.735.092 1.094.13 1.542.078.92 2.307.082 2.658.096 3.195.115 2.81.1.277-.013.488-.125.324-.163.2.005.033.373-.069.47.003.54-.805 1.068-.047.338.123 1.407.284 1.138.143 1.03.323.32.952.542 1.438 1.004.576.13.486-.136.292.408.06.661.794 1.846.504 1.172.23.407.378.211-.07.152-.315.06-.14.22-.436 1.31-.575 1.73-.389 1.213.35.02.014.336.079.514-.434.06-.126.184-.497.995-.65 1.304-.673 1.347-.398.799.68.59 1.133.984-.18.274-.486.136-.409.097-.311.37-.175.272z" style="fill:#fff;fill-opacity:1;fill-rule:evenodd;stroke:#505050;stroke-width:.5;stroke-linecap:round;stroke-linejoin:round;stroke-miterlimit:4;stroke-dasharray:none;stroke-opacity:1" id="path6" />
    <path class="polygon" d="m298.765 289.609-.46.303.083-1.59.248-.532.27-.396.335-.246.248.348-.212.769-.584.942zm-.66-9.146-.125.081-.42-.831.844-.8.282.325-.224.632-.248.446zm22.267-16.83-.004.35-.28-.179-.738.136-.259-.264.999-1.125.202.163.155.206.107.286-.115.185zm7.576-5.005.209.184-.387-.02-.434.162-.667.144-.269-.269.577-.374.209-.282.15.06.193.203zm35.004-64.763-.23.394-.266-.059-.104-.264-.194-.258.104-.201.178-.115.489.017zm1.07-2.521-.263.144-.027-.426.684-.537.113-.634.359.293.096.325-.006.135zm-38.553-68.04-.659.657.217-.762-.111-.524.086-.406.45-.394.136-.058-.04.484.034.148zm-2.57-10.863-.43.323-.138.166-.355-.124.067-.185.105.019.113-.538.605.065zm-46.55.777-.71.126.913-1.675.818-.78.013-1.548.886-1.376.814-.56 1.142-.165.625.84-.774 2.378-.227.014-1.038 1.255-1.156.876zm14.762-8.069.626.03.886-.127.594-.314.664-.061.657.032 2.214.348 1.33.108.486.111.475.159.347.17.088.372-.324.594-.24.625-.225.872-.173.177-.29-.046.18.78-.067.312-.144.304-.355.63-.54.802-.16.168-.41.278-.334.357.072.335.167.337-.197.423-.639.618-.381.15-.352.063-.324-.06-.575-.62-.06.485-.155.496-.196.271-.742-.029-.414-.265-.67-.295-.127.797-.417.548-.42.172-.658.116-.377.234-.711-.183-.66-.365-.375-.031-.292.295-1.535.054-.703.3-.43-.086-.632-.604-.102-.402-.376-.815-.338-.968-.24-.88.203-.76.41.026.485.113.103-.054.027-.243-.108-.202-.781.032-.494-.451-.086-.698.102-1.45.067-.297.345-.415.113-.368-.085-.39.148-.709.323-.613 1.232-.774 1.429-.274zm-6.861-.654-1.832 1.311-.62-.43-.128-.25.105-.25-.02-.108.206-.45 1.024-.368.515-.062.658.114.11.32zm8.098-.128-1.774.21-.812-.334.183-.282.606-.449.737-.318.661-.14.69.176.189.376-.054.38zm-1.971-2.55.274.35-.949 1.4-.523.202-.572.041-.741-.417-1.155.03-.361-.1-.04-.61.485-.652.97.035 1.667-.523zm-4.608.864-.12.984-1.205-.416.09-1.007.565-.282.5-.536.17-.657.008-.893.185-.155.162-.063.146.06.053 1.341.069.821zm1.83-1.7-.726.227-.135-.212-.001-.842.204-.462.927-.129.095-.136.266-.087.148.29-.02.482zm-.978-10.352-.669.305-.384-.118-.354-.797.12-.664.485-.22.376.047.138.085.334 1.086zm-66.6-22.235.4.128h.266l.242.298.187.337.586.41-.06.623-.109.551-.075.635-.034.484-.249.494-.372.463-.11.187-.054.244.251.148.443.044.554.02.377.143.487.03.587.396.285.238.026.185-.186.442-.074.407.145.259.172.186.476.92.226.32.193.102.047.177-.163.336-.194.427-.441.449-.06.354-.353.223-.822.53.143.839.026.426-.013.33-.28.443-.487 1.308-.179.652-.158 1.508.013.505.225.68.476 1.51.271.241.63.355.078 1.021-.054 1.067-.027.414.104.177.283.085.2.128.034.316-.02.328.47.189.407.12.377.453.682.704.27.128.136.292.575.594.876.217.884.261.347.373.363.304.272.016.232-.05.381-.26.306-.225.533.012.624-.036.109-.185.06-.238-.129-.609.222-.185.517-.103.103-.325.119-.177.147-.207.178-.03.222.118.34.074.383.104.207.206.341.018.38-.04.152-.132.112-.23.082-.496.245-.014.488-.112.521-.22.696-.032.652.005.326-.147.303-.32.588-.905.307-.209.33-.156.281.028.576-.15.474-.216.175.054.37.465.184.102.271.032.89.236.472-.074.512-.148.491-.055.355.103.255-.134.286-.1.2.066.45.056 1.063.258 1.388.29.379-.1.226-.204.053-.597.04-.421-.312-.373-.389-.422-.359-.527-.43-.149.054-.27.279-.28.286-.156.166-.19.18-.701.12-.124.121-.03.144.026.283.182 1.093.558.48-.084 1.832-.147.278-.322.388-.073.659-.32.26-.023.233.078.293-.061.432-.3.182-.03.069.33.28.341.338.315.163.072.568-.101.299.087.13.293.033.255.238.217.306.005.162.087.278.138.237.32.55.253.937.357.436.006.406.109.25.107.27-.197.96-.55.468-.306.315-.232.237-.222.177-.058.118.132.103.178.342.104.802.208.368.06.517-.177.44-.3.213-.104.327.298.223.422.15.183.333-.043.655.065.487.133.3-.012.412-.187.221-.37.583-.338.555-.311.318-.416.47-.691.158-.297.033-.499.662-1.45.25-.266.148-.458.266-.531v-.443l.193-.43.38-.37.28-.232.447-.623.311-.586.781-1.304.06-.37.31-.22.104-.281.33-.346.35-.275.148-.404.256-.42.56-.315.207-.145.634-1.155.072-.517.572-.02.9.597.719.879.962 2.826.16 2.611.39 1.369 1.119 2.851.072.528.18.638.352.677.39 1.114.013.207-.253.305.372.02.336.18.22.707.277.478.506.654 1.036.214.781.078.89.37.654.475.506 1.607-.165 1.01.046.711-.261.279-.732.465-.16.247-1.497 1.201-.326.568-.802.761-.795 1.453-1.162 1.326-.41.335-.629.077-.381.206-.903 1.082-1.213.361-.11.627-.701 1.433-.617.782-.393.266-.99 1.428-.126.624.006 1.091-.66.666-.686.422-.086.934-.31.32-.266.208-1.398-.245-2.172 1.015-.742.253 2.37.052.762.54 1.668-.358 2.018-1.289.771-.27 1.567-.874.636-.583 1.162-.699.247-.307.65-.326.352.415.027.263-.534.512.139.33.352.414.128.57.047.434.217.762.718 1.03.027.341-.099.45.344.37.356.22 1.222 1.11.956-.62.588-.18.376-.26.786-.171.644.26 1.23.373.898-.396 1.82-.908-.57 1.607-.412 1.473-.313.595-.31 1.605-.309.428-.25.49.407-.171.348-.232.445-.618.334-1.073 1.317-2.866.377-.254 1.095-.327 1.884-2.291.737.007.471.527.447.311.115-.626.643-.257-.681-.31-.111-.281-.067-.47.462-.633-.275-.56.96-.708-.075-.532.342-.438.434-.45.49-.22.09-.386.31-.16.243-.057.48.432.519-.51.507-.2.227.088.283.226.297.096.241-.04.628-.328.58.527.349.116-.096-.295-.183-.274.142-.223.275-.14.867.125.457.235.493.435.685.032.538-.045.34.244h.551l.277.38.84.535.183.363.676.176.633.222.676.061.681-.053.027.46.5.124.642-.103.485.565 1.295.425.898.65.588-.115.659.172.707 1.414.16 1.004.315-.139.291-.45.379-.82.708-.272.339.316.71.505.612.554.258.356.46.059-.384.437.385-.043.467-.312.4.643.3.7.06.713-.282.41-.25.256-.277.505-.328.091-.327.164.373.367.256.354.559-.956.393-.27.568-.148.296.68.067.642-.927.268-.004.508-.277.287-.18.33-.147.693-.189.573-.552 2.544-.013.42.672-.449 1.24-1.296.378-1.38.49-1.361.532-.428h.33l.494.148.026.446-.075.258-.53.677-.225.371.218.366 1.202-1.121.538-.393.459.08.91-.518 1.832-.108.137-.592.365-.252 1.007.067 1.963.53.7.432 1.047.402.551.478 2.304.877 1.673.095.829-.399 1.033.418.548.467 1.073.253 1.083.133.828-.336 2.137-.11 2.686-.496 1.602.117 1.813.324 1.292.833 1.088.472.658.464 1.062.48 2.266 1.293.793.747 1.405 1.018 1.41.427.762 1.065.603.48 1.494 1.797 1.696 1.258 1.134 1.258 2.176.81.85 1.336 1.472.163.627.2.763.563 1.049.314 1.366-.089 1.507.064 1.218-.264 2.884.502.453.246.597.568 1.053 2.116.627 2.347.31 1.797.72 1.396.392 2.62.333.826.026.634.282.144.19 1.768-.074.713-.276.928-.02.413.04.263-.122.387-.04.371.28.833.013.668-.374.808-.51 2.113-1.28 3.503-1.227 2.01-1.716 2.077-1.118 1.084-.443.11-.407-.214.289.573-.253.503-1.135 1.528-1.13 1-1.17 1.735-.09.04-1.5.67-.889.547-1.135.996-1.042 1.57-.215.203-.384-.11.014.796-.898 1.263-.274.187.007-.358.156-.272.072-.29-.006-.344-.251.25-.531.946.179.693-.386 1.048-1.47 2.99-1.798 2.515-.415.776-1.477 1.694-1.085.817-.306.006-.345-.07-.175-1.302-.864-.788-.248-.139-.355.835-.295.229-.427.05.457.363.133.42-.465.843-.013.765-.83.843-.48.617-.245.773-.147.721.364-.197.173.152.137.225-.084.332-.267.626.04 1.56-.089.355.266.384.28-.655.163.182-.785 4.18.31 1.882.114 2.131.355 2.08.389 1.86.033.15-.537 2.158-.686 2.13-.414 1.736-.26 1.875-.261.901-.083.923.3 2.185.11.414-.833.975-.899.473-.497.47-1.098 1.756-.596 2.595-.014 1.381.282 2.893-.212 1.18-.347.789-.411.518-1.05.622-.94 1.516-.408 1.592-.644.58-.132.892-.519.962-1.343 1.436-.874.418-.417.401-.265.84-.842 1.383-.621 1.794.161.61.014.095.225 2.072-.083.528-.819.572-3.084 1.067-.821.442-1.842 1.815-.114.429.076.61.303.352-.312.38-.368.683-.536-.04h-3.072l-1.663.217-.864-.04-.388-.164-.435-.268-.13-.351.235-.532-.139-.318-.455.014-.5.15-.087.319.033.225.187.33.101.406-.205.352-.973.047-1.094.324-1.365.135-1.087.234-.502-.296.502-.148.72.073.773-.245-.18-.29-1.094-.373-1.214.23-.673.443-1.474-.04-1.804.338-.294.345.047.668.353.147.344.305-.33.284-.323.125-1.905.31-1.767 1.3-.737.162-.655.573-.068.49-.207.295-.42.013-.922-.267-1.196-.007-.863.213-4.413 2.109-1.584.844-1.808 1.72-3.048 1.928-1.6 1.152-.304.298-.254.013-.5.24.199.199.342.02-.142.67-.636.46-1.195 1.204-.266-.089.379-.626-.586-.027-.865-.23-.375.26.207.62-.325.266-.589.027-.535-.073-.587-.455.265.823 1.24.2.517.193.192.316-.964 1.464-.808.19-.089.207h.444l.244.405-.288 1.634-.4.31-.233.007-.23.28.318.534.329.389-.047.755-.123.625-.007.606.416 1.173.15 1.205.167.438.095.487-.278.454.158.73-.473 1.24.247 1.79-.101 1.678-.185.881-.3.69-.697.888-.013.888-1.5.826-1.66 1.156-1.53 1.368-1.65 1.927-1.924 2.933-1.783 4.185-2.147 3.161-.858 1.142-1.16 1.274-1.544 1.487-2.067 1.488-2.263 1.325-.817.598-.797.84-.2-.347.174-.572-.11-.43-.027-.556.456-.103.683.353.348-.24.254-.236.822-.148 1.57-1.456 1.166-.538.655-.92.113-.488-.027-.99.372-.252.843.087.172-.282-.073-.313.164-.682 1.143-.605.542-.731-.18-1.864.208-.083.47.29.22-.12.238-.817-.114-.424-.554-.113-1.914.921-.623-.04-.103-.724-.93-.332-.365-.6-.109-.411-.323-.168.02.71.089.691.834.805-.203.32-.395.373-.276.828.034 1.074-.223-.327-.286-.189-.117 1.155-.554.441-.174.434.144.503-.285.348-1.41.933-1.407.637-.305.3-.15.711-.215.731-.623.642-.493 1.277.013.55.164.81.266.53-.42.356-.566.69-.449.776-1.117 2.918-.963 1.758-.741.862-1.058.908-3.013 2.279-.18-.034-.442-.183-.37-.219-.085-.146-.04-.218.047-.821-.007-2.207.13-.416.195-.269.587-.39.57-.558.644-.71.592-.565-.212-.379-.496-.366-.88-.296-.849-.522-.752-.671-.348-.699-.318-.753-.305-.595-.1-.272-.298-.113-.472-.305-.295-.282-.432-.162-.772-.178-.805-.311-1-.738-.722-.82-.357-.54-.38-.38-2.065-.63-.938-.752-.37.235-.551-.23-.543-.362-.163-.278-.23-.284-.216-.326-.138-.314-.559-.547-.722-.593-.306-.169-.161.047-.156.228-.099.22-.273.145-.337.271-.344.332-.442.22-.524.076-.353-.014-.073-.13-.02-.454.13-1.036-.307-.4-.408-.428-.471-.571-1.548-1.212-2.106-1.746-.744-.533-.7-.04-.64.06-.588.23-.445.807-.184.125-1.135-.02-1.128-.13-.379-.492.301-.32 1.063-.711.587-.632.113-.556.51-.498.905-.441 1.01-.814 1.113-1.185.676-.874.24-.565.435-.435.635-.305.554-.638.475-.97.648-.772.822-.573.46-.475.098-.377.232-.24.366-.106.178-.198-.013-.292.1-.199.211-.105.354.04.496.18.3-.034.102-.246-.13-.282-.366-.318.138-.344.958-.557.708-.211.448-.346.424-.548.689-.382.952-.215.252-.207-.033-.265.194-.19.563-.139.306-.258.047-.38.181-.352.312-.326.349-.121.384.083.361-.123.338-.331.405-.154.473.02.242-.073.812-.153.448-.278.368-.619.327-.24.285.14.494-.207.702-.554.132-.013.518-.258.534-.956.276-.64-.067-.523-.176-.376.06-.55.177-1.496.047-.611.284-.427-.02-.423-.506-.947-.511-.831-.275-1.412-.18-.536-.426-.142-.385-.467-.487-.04-.23-.179-.236-.149-.345.047-.295.274-.548.007-.345.112-.406.243-.386-.112-.243-.213-.522-.003.033-.96.92-1.423.248-.663-.12-.375.275-1.325.67-2.273.214-1.488-.243-.702-.007-.49.344-.417.168-.124-.864-.51-.465-.465-.599-.332-.642-.265-.31.11-.332.156-.643.243-.731.421-.377.155-.664.155-.753.133-.62-.089-.533-.089-.332-.266-.177-.576v-.487l-.11-.709-.4-.398-.133-.31-.02-.378.047-.42.11-.31-.066-.377-.178-.266.047-.465-.088-.643-.266-.399-.134-.465v-.465l-.199-.464-.02-.51.178-.465.067-.465-.2-.332-.376-.2-.288-.532-.047-.687-.31-.377-.332-.31h-.377l-.576-.177-.51.02-.82-.02-.376-.11-.199-.245-.51-.332-.288-.575-.354-.11-.509.176-.177.222-.2.31-.354.354-.465-.02-.487.2-.466.02-.62.047-.62-.178-.754-.2-.642-.132-.62.133-.42-.112-.555-.067-.62-.046-.487-.355-.532-.2-.288.068-.377.221-.399-.047-.51-.177-.2-.42.048-.267.11-.266.2-.376-.112-.4.047-.353.088-.31.089-.354-.067-.333-.02-.354-.047-.332-.067-.355.266-.51.221-.42-.132-.354.047-.244.177-.4.222-.486-.02-.909-.2-.532-.215-.144-.054-.16.105-.211-.114-.216-.047-.221.114-.194-.159-.382-.317-.111-.11-.11-.112-.422-.088-.487.047-.377-.155-.332-.222-.2-.221-.353-.222-.266-.089-.377-.147-.487.442-.09.175-.274.311-.37.41-.096.485-.136.18-.274-1.133-.984-.68-.59.399-.8.672-1.346.65-1.304.497-.995.127-.184.434-.06-.08-.514-.013-.336-.35-.02.39-1.213.574-1.73.436-1.31.14-.22.315-.06.07-.152-.378-.21-.23-.408-.504-1.172-.794-1.846-.06-.66-.292-.409-.486.136-.576-.13-1.438-1.004-.952-.542-.323-.32-.143-1.03-.284-1.138-.123-1.407.047-.338.805-1.068-.003-.54.069-.47-.034-.373-.2-.005-.323.163-.488.125-.278.014-2.809-.101-3.195-.115-2.658-.096-2.307-.083-.078-.92-.13-1.541-.092-1.094-.147-1.735-.925-1.08-1.005-1.174-.353-.3 1.214-.04.862-.027-.171-3.15-.263-.321-.232-1.017-.158-.576-.428-.467-.097-.524.079-.35.233-.218.155-.541-.116-.544-.254-.507-.31-.486-.595-.298-.85-.542-1.288-.69-1.088-.48-.35.06-1.921.187-.64.098-.43-.11-1.434.005-.564-.37-.473-.43-1.005-1.1-.156-.55-.389-.175-.588.067-.596-.075-1.156-.457-1.082-.468-.526.02-.466-.293-.823-.714-.383-.278-.176-.37-.175-.544-.33-.117-.428.098-.463.279-.649-.186-.794-.502-.514-.392-.293-.186-.69-.274-.666-.057-1.008.403-.824-.165-1.296-.146-1.108-.291-.404-.761-.22-.504-.657-.315-.525-.385-.626-.583-.31-.195-.567-.163-.524-.206-.06-.37-.194-.486-.047-.12-.356-.591-.167-.042-.184.116-.14.086-.15-.105-.026-.264.097-.424-.207-.444-.51-.466-.265-.481-.027-.498-.113-.333-.205-.169-.114-.292-.026-.415.147-.495.32-.574-.068-.884-.458-1.192-.252-.861-.047-.528.068-.391.278-.38.551-.933.098-.712-.175-.803-.026-.612.126-.421-.192-.552-.39-.522-.273-.013-.37.143-.446.44-.525.078-.467-.272-1.46.113-2.27.272-.908.282-.534.12-.646.093-1.036.506-2.555 1.966-.53.285-.602.039-.35.272-.565.214-1.108.778-.564.623-.37.563-.427.02-.33-.156-1.05.078-.536.192-.583.55-.723.99-.298.283-.582.291-.672.242-.833.364-.373.024-.329.065-.284-.166-.095-.355-.43-.225-1.028-.112-1.52-.26-1.567-.05-.778.025-.639.015-1.11-.138-.808-.024-.71.352-1.03.437-.47.111-.346.016-.337-.054-.392-.226-.552-.522-.424.2-.307.224.005-1.135.007-1.707.007-1.505.006-1.204.006-1.405.005-.992.289-.377.178-.42-.214-.564.047-.516.148-.36.194-.35-.447.175-.194.098-.239.266-.576.36-.387.36-.457.292-.578.648-.475.355-.493.226-.821.76-.68.152-1.8.117-1.871-.003-1.712-.003-.258-.01.013-.627.04-.443-.583-.467-.04-.575-.156-.397-.194-.486-.409-.312-.574-.12-.942-.269-1.399-.28-1.336-.019-1.31.027.8-.976.8-.975-.026-.85-.647-.74-.348-.46-.54-.635-.665-.437-.364-.583.034-.354-.06-.233-.254-.137-.252-.213-.35-.234-.41-.31v-.312l-.155-.331-.252-.389v-.31l-.233-.487-.253-.35-.252-.233-.37-.33.02-.274.273-.136.116-.31-.04-.312-.311-.194-.37-.098-.486-.563-.35-.292-.234-.175-.136-.195.136-.136.156-.195.04-.31-.078-.292v-.253l.234-.078.252.04.253-.156.33-.059.37-.039.195-.175-.02-.311-.234-.603-.233-.253-.078-.37.19-.712.122-.454.426-.482 1.304-1.033 1.168-.702.571-.071.421-.26.269-.399.074-.435-.06-.378-.218-.56-.26-.699-.194-.388.176-.467.311-.639.635-.963.59-1.037.068-.302.076-.633.272-1.29.151-.7-.078-.27.136-.235.37-.194.892-.178.605-.386.934-.725.778-.772.643-.249 1.167-.714.67-.454.264-.142.659-.328 1.181-.114.985-.118.557-.215.813-.09.548-.241.609-.007 1.142-.246.39-.37.331-.44.446-.377.522-.097.582.066.697-.007.844-.117.408.292.18.357.52.363.37-.02.37-.078.506.312.33-.04.214-.174.04-.437.119-.237.25-1.367.41-2.255.372-2.045.412-2.263.426-2.338.431-2.368.354-1.942.304-1.67.186-1.025.293-1.341.114-1.18.118-.34-.075-.285-.253-.406.003-.179.027-.237-.027-.206-.265-.222-.207-.133-.163-.192-.074-.266-.133-.266-.06-.28-.192-.222-.06-.28.132-.266.06-.28-.06-.267-.074-.31-.148-.295-.224-.18-.536-.2-.539-.477-.635-.428-.812-.812-.178-.384-.003-1.055.033-1.144.054-1.728.027-.88.459-.047.404-.024.422-.061.367-.06.338-.127.253-.157.302-.103.235.037.236-.14.26-.132.253-.108.367-.091.344.211.193.211.223.103.211-.024.145.018.15.169.193.012.278-.03.259-.037.12-.048.02-.109-.066-.186-.09-.176.071-.27.006-.327.014-.416-.205-.229-.205-.434-.23-.35-.355-.236-.332-.09-.277.145-.26.024-.193-.133-.313-.006-.338-.042-.357-.05-.643.095-.23-.118-.314-.012-.361.127.007-1.67.007-1.575.006-1.104.325.024.404-.199.6-.03.461-.21.257-.017.487.103.507.215.5.03h2.723l1.572-.001 1.575-.001h1.365l.422.012-.245-.367-.286-.475.11-.374.142-.377.164-.197.426.21.356.64.296.483.289.238.358.027.407-.08.404-.198.692-.885.687-.756.357-.254.377-.234.281-.089.384.03.325.206.21.36.769 1.255.58.946.195.59.013 1.44-.033 1.276.076.165.114.047 1.268-.3 1.721 1.547 1.271 1.142.55.365.305.102.74-.076.878-.148.427-.163.472-.358.768-.496.624-.273.246-.036.246.087.527.297.288.554-.265.642.046.399.554-.022.444-.665.31-.523.65-.424.631-.605.442-.575.517-.338.78-.41.617-.25.579.025.429-.272.557-.509.389-.41.27-.145.541.04.676-.057.665-.497.604-.602.32-1.013.212-.897.18-.182.219-.143.258-.094.621-.065 1.088-.478.75-.485.712-.104.21-.13.258-.45.128-.79-.096-.478-1.309-.147-.857-.001-1.417-.123-.675-.198-.145-.137-.014-.152.135-.342.132-.641-.193-.869-.708-1.362-.505-1.338-.067-.933.014-.987.04-.644-.363-.504-1.96-1.588-.677-.75-.226-.52-.772-.957.196-.294.445.011.38.25.347.532.25.12.34-.001 1.808-.002.423.09.256.179.219.222.323.62.348.303.715-.01 1.124-.013.63-.056.376.173.468.143.985-.33.275-.006.294.145 1.062 1.11.609.469.513.62.748.003.62-.533.165-1.79.186-.52.314-.146.372-.017.44-.282.479-.363.415-.122 1.725.39.479-.186 1.746-.474 1.786-.608.5-.766.75-.207.586-.561.474.058.717.023.443-.098.224-.106.244-.265.403-.75.488-.285.614-.3.42-.355.345-.439.16-.38-.005-.303-.204-.586-.248-.551-.268-.183-.202-.07.608-.128.502.192.783.03.34-.148.493.072zm-49.124 409.593-.243.013-.59-.125-.884-.053-.1-.054-.02-.098.104-.1.483-.076 1.455.067.184.046.047.077-.237.222zm1.918-.756-.244.054-.18-.126-.276-.09-1.115-.186-.027-.114.116-.162.223-.145.428-.143.345-.372.156.027.158.152.268.514.322.369-.034.127zm5.47-3.67-.532.294-.398-.02-.128-.106-.04-.132.08-.142.168-.13.39-.162.122-.027.586.162zm-4.07-.503-.198.256-.423.338-.569.264-.55.071-.4-.136-.202-.239-.093-.237-.135-.13-.21-.027-.27.007-.335.09-.711.342-.305.09-.206.02-2.025-.257-.198-.096-.238-.229-.263-.679-.85-.607 1.302-.343 1.56.002 3.01.263 1.201.06.924.575.146.347zm-17.571-1.573 5.374.661 1.656-.401 1.31.013.39.552-1.329.578-.102.182.186.15 1.365.092.346.187.318.24-.269.354-.027.164.142.16 1.023.538.42.278.212.265.085.466-.02.373-.23.047-.498-.114-.486-.215-.427-.537-.3-.108-.861-.108-.854-.262-.666.013-.612-.111-.55.098-.195-.177-.235-.356-.005-.156.288-.563-.007-.148-.151-.02-.64.115-.259-.076-.696-.408-.28-.077-.7-.04-.396.724-.02.178.403.46.792.707-.402.013-1.145-.217-.294-.136-.355-.355-.68-.208-.24-.127-.069-.15-.007-.466-.15-.067-.966.117-.2-.111-.08-.196-.141-.11-.623-.18-.054-.111.278-.132.172-.334.244-1.2zm-8.632-.342.312.424.115.078.825.166.371-.1.898-.047.54-.163.785-.083.9 1.052-.099.32-.712.348-.478.076-.455-.105.034-.177-.083-.155-.311-.2-.292.02-.47.148-.224-.02-.475-.163-.833-.12-.166-.15-.02-.22-.157-.11-.868-.352-.556-.3-.47-.04-.173.034-.174.144-.423.137-.122-.02-.136-.115-.069-.164.18-.334.242-.034 1.187.067.727.155zm-2.672-5.595 1.486.535.983-.005-.006.334.12.57-.154.23-.368.236-.231.335-.173.054-1.08-.405-1.13-.552-.568.097-.754-.135-.607.026-.378.313-.877.164-.16-.627-.798-.593-.796-.476.431-.73.517-.117.485-.244 1.952.258 1.011.22zm-10.267-3.692.181.544.095.104.488-.087.83-.047 1.361.202.154.072.578.594.444.254.678.55-.676.366-.4.527-.02.267-.263.154-.416.16-.619.309-.761.033-.75.162-.348.148-.205.007-.243-.08-.26-.152-.083-.175.515-.163.67-.581.12-.603-.723-.11-.432.083-.322-.002-.37-.185-.225.284-.084.272.099.416-.067.134-.263.076-.607-.158-.63-.28-.047-.163.129-.561-.013-.293-.13-.421-.07-.047-.237.007-.743.08-.741-.54-.401-.57-1.366-.165 1.064-.796 1.604-.113.544.403 1.785.28-.107-.428.027-.154.245-.19.139-.013.21.134.343.054.159.13zm-9.796-3.746.11.06.264-.013.37.109 1.398.132 1.251.314.653.294.856.092.701.375.3.096.361.027.94.692.053.079 1.066.546.054.087-.606.027-1.23-.254-.615-.014-.444-.077-.104-.047-.087-.317-.142-.155-1.181-.73-.492-.16-.851-.141-.969.098-.655-.094-.226.033-.966-.58-.964-.489-.412-.583-.614-.446-.003-.13.281-.1.66.251.65.432.35.163zm34.957-1.706.583.046 1.944-.653.216.033.659.332.196.141-.013 1.989-.014 1.958-.013 1.832-.014 1.832-.013 1.769-.013 1.816-.054 2.035-.04 1.512h-1.01l-.265.155-1.595.222-2.71-.342-.679-.309-.91-.674-.324.181-.855.286-.878.226-.72.027-.668-.28-.143-.142-.152-.033-1.443.387-1.594-.395-1.27-.243-2.04-.135-1.418-.499-2.616.047-.47-.165-.175-.488.139-.227.56-.137.155-.27.565.067.734.358.225-.013.485-.338.716-.3.256-.033 1.316.37.528-.04.76-.166.136-.144.12-.254.201-.15.676-.07.66.145.075.441-.09.474.857.126 1.04-.013.715.176.09-.288-1.144-.752-.48-.468-.644-.275-.828-.14-.692-.877.04-.768-.073-.748 1.495-.41-.342-.64.514-.485.586-.185.59 1.782.425.625-.541.127h-1.134l.633.874 1.04.298.897.648.02.47.499.212 1.198.014.825-.094.387-.312.45-.1.806.39 1.355.288.365.205.266.339.02.365.07.193.395-.095.562-.496.277-.172.339-.085.214-.11.006-.146-1.013-.351-5.309-1.643-.653-.656-.439-.824.014-.85.386-.265.947-.336 1.742-.474 2.008-.68.251-.13-.027-.426-.251-.287-.798-.21-.833-.054-.795.02-.794.089-1.448.453-.82-.026-.78-.243-.58-.489-.298-.66.002-.42.111-.388.353-.396.474-.173.426.02.402-.093.238-.136.203-.182-.06-.157-.156-.136-.645-.28-.256-.269-.555-.435.303-.122.973-.069.68.301.634.353h.389l.35-.149.802-.453.671-.57.613-.65.492-.388.565-.033zm-33.326-4.934-.2.074-.744-.156-.372-.14-.57-.353-.09-.366-.256-.434.164-.005.594.173.244.13.326.277.962.398.12.118-.026.152zm-4.56-2.015.287 1.303.205.181.684.097.74.662.034.18-.898 1.125-.191.798-1.054-.053-.441-.794-.666-.766-.225-.897-.366-.77.652-.437.622.098.033-.591zm1.77-2.366-.013.561-.212.18-.186.053-.472-.17-.27-.021-.445.297-.375.15-.558-.04-.742-.2-.662.843-.31.284-.647.393-.073-.461.413-.69.19-.47.378-.7.759.264 1.064-.26.97-.48.838-.004.275.257zm-4.979-4-.19.62-.542-.054-.183-.156-.094-.393-.166-.19.232-.392.154-.436-.054-.334.83.02.989.086.273.092-.302.294-.288.176-.596.108zm1.656-2.57-1.31.536-.385-.222-.946.002.248-.58.095-.43.142-.165.053-.37.283-.676.784.225.583.067.793.224.859.142.25.585-.836.268zm-.347-9.778-.054.533-.989 1.024-.852.605-.778.478-.498-.005-.407-.231.457-.379.571-.378-.18-.488-.172-.141-.24-.054-.414-.256.125-.379.241-.181.32-.139.3.082 1.295-.267.41-.214.787-.04zm4.223 2.086.06.982-.112.987-.258 1.213.04.245.301.06.08.152-.087.637-.162.49-.311.4-.183.48-.167.106-.728.085-.399-.054-.32-.547-.094-.336.02-.44-.392-.59-.013-.225.153-.388.317-.194.047-.597.16-.18.361-.247.054-.103-.034-.088-.134-.007-1.448.74-.142.209-.06.278-.02.978-.255.566-.231.108-.676.027-.892-.054-1.012-.519-.66.144-.137-.631.331-.505 1.23.047.21-.9-.391-.21-.434-.363-.258-.331.23-.247.713-.357.382-.04.353.2.876-.152-.053-.568-.78-.25.173-.432.986-.412.589-.415.026-.473-.238-.473.075-.185.49-.389.69-.188.313.027.637.274.57.034.137.081.103.306zm-6.927-2.575-.754.007-.188-1.194.887-1.725.06-.658-.297-.495-.121-.407.072-.168 1.134-.343.355.364.422.967.803 1.385-.02 1.323-.446.326-1.4.334zm6.317-1.149-.127.16-.826-.099-1.43.17-.602-.608-.263-.966-.18-.2-.355-.551-.178-.362-.364-.56-.14-.592-.09-.178.328-.35 1.495-.346.532-.56.456.074-.125 1.142.275.384.508.32.095.13.085.405.255.626.33.293.084.183.014.152-.121.215zm-3.65-5.052-.493.087-.054-.218-.447-.363.388-.24.759-.25.575.026.52.19.07.225-.906.293-.223.16zm5.354-14.376-.373.296-.65.144-.644-.233-.777.108-.082-.51.291-.419.59-.498.426-.668-.053-.943.35-.215.188-.333.746-.205.168.7-.2 1.252.504.74.073.246-.099.283zm-4.887-5.368-.168.11-.209-.034-.17-.213-.12-.364.232-.137h.187l.208.193.109.312zm9.447-.46-.22.076-.198-.013-.203-.23-.067-.303-.438-.453-.122-.213.013-.256.251-.367.373-.1.25.013.304.432.087.469.077.483zm4.327-.278-1.623.536-.814-.18-.316-.394-.154-.332-.167-.561.277-.301.594-.434.221-.28.107-.33-.04-.309.078-.293.35-.102 1.201.328 1.246.493.443.341.082.271-.544.6-.347.492zm-5.019-2.582-.33.288-.52.053-.81.333-.085.29-.04.354.559.427.276.497.332.744.239.71-.02.219.06.368.397.573.034.259-.047.256-.16.475-.127.067-.394.047-.034.289-.097.094-1.12.027-.555-.13.067-.87-.71-.34-.488-.575-.548-.992-.461-.306-.537-.784-.796-.671.919-.425-.143-.744.537-.255.807-.266.594.21.534-.074.238-.179-.073-.76.17-.599.588-.31.635-.033.238.339.314.332.767.262-.003.344zm-.504-3.8.14.33-.294.046-.472-.053-.229.26-.116.054-1.086-.231-.169-.103.02-.343 1.157-.033.739-.22.104.034zm-5.748-1.47-.949.118-.216-.2.005-.17.163-.14.487-.09.319.115.166.163.054.15zm5.998-1.754-.504.14-.47.033-.477-.102-.833.007-.832-.262-.78-.37-.216-.214.095-.308.561-.712.535-1.344.357-1.93-.285-.732.033-.304.131-.365.067-.375-.04-.378.068-.352.588-.74.087-.333.013-.36.255-.747-.079-.247-.217-.21.176-.181 2.048.547 1.36.127.074.567.262.444.156.795.211.18-.11.57-.626.245.053.523.36.494-.525.176-.567.105-.131.137-.41.107-.5.275.15.242.628.552.702.383.386.574.498.598-.243.38-.457.539-.729.358-.67.213.079.887zM95.68 328.992l-1.2.142-.04-.04.068-.118.276-.205.334-.249.072-.007.123.02.14.047.358.168.105.116-.04.095zm74.332-72.057.853.02 1.458-.245 1.121-.224 1.247 1.203-.543 1.633-.866 2.605-.67 2.014-.11.269-.138.395-1.444.57-2.107.834-1.079.435-1.36.56-.329.459-.392.247-.432.32-.165.348-.403.22-.367.787v.605l.235.412.406.174.129.493.128.349.293.274-.073.22-.238.164-.44.092-.298.494-.343 1.228-.054.439.391 1.111.208.6.563 2.173.083.591-.773.826-.307.502-.11.443.004.35.07.322.643 1.018.749.912.366.476v.64l-.183.367-.398.136-.884.249-.366.366-.403.054-.384-.294-.403.073-.513.256-.193.623-.448 1.062-.385.293-.287.81-.51 1.163-.247.7-.128.514-.515.327-.6.652-.46.633-.183.182-.348.054-.257.568-.87.857-.207.994-.315.53-.053.957-.48 1.752-.088.386-.485.306-.639.678-.209.495.297 1.483.368 1.499.02.702-.143.954-.097.415.244.171.403.11.128.367-.293.256-.128.458-.33.513-.975.202-.343-.183-.11.165.054.366-.218.432-.505 1.156-.334 1.05-.193.458.078.385.165.22.02.201-.278.253-.253.406-.275.054-.293-.11-.311.238-.067.498-.172.633-.078.74-.126.948.4.65.505 1.176.377.28.421-.02.33.239.183.275-.245.491-.433.076-.054.275.128.623.165.604.417.29.187.809.404.274-.047 1.035.407 1.214.43.352.2.165-.134.53-.341.422-.073.678.128.494.435.467.34.054.489-.19.513.22.073.402.073.367-.275.476-.293.88-.08.873.086 1.329.134 1.03.027.65.034.293-.183.202-.446.104-.378.04-.33.164-.073.33-.258.549-.266.407-.465.592-.295.612-.236.404.02.279-.17.54-.174.447-.368 1.507-.492.314-.392.155-.201.202.153.409.415.122.146.33-.053.513.274.476-.026.577.264 1.09-.238.714.08.616-.006.611-.348.476-.715.091-.392.44-.67.477-.073.384-.11.348-.274.128h-.422l-.348.053-.488.452-.52.244-.118.363.047.443-.275.274-.348.513-.22.55.22.513.238.916.033.384-.302.757-.247.489.238.623.201.347-.187.764-.16.482.128.88.478.988.455.88.067 1.023.119.81.218.877.457.349.349.293-.074.421-.257.513-.366.385-.908.127-.738.348-.592.24-.452.292-.324.31-.16.339.108 1.476-.071.543-.304.772-.284.622-.121.187-.034.274-.053.257-.319.06-.45-.113-.257.073-.183.202.155.48.166.846.229.359-.06.284-.085.613-.299.497-.397-.002-.256.201-.11.349.118.453.522.371.183.238-.092.312-.403.127-.238.257-.227.571-.303.645-.324.476-.06.653.457.696-.053.68-.034 1.995-.047.676.14 1.12-.177.31-.091.292.447.815.5 1.317.133.523-.073.367-.67.31-.557.13-.33-.22-.22.091-.256.385-.293.311-.11.312.311.403.166.769-.349.33-.256.366.092.476.11.86-.22 1.43.295.506.32.243 1.045.29.784.145.207.472-.088.384-.378.19-.568.164v.62l.486.583.548.422.12.38-.034.387-.383.325.527.704.24.477-.24.368-.343.55-.302.265.002.3-.125.606-.027.595.1.354 3.312.28.758.11.413.353-.06.443-.414.473-.266.886-.65.148-.65-.237-.704.082-.612.053-.878.027-1.167.115-.715-.132-.06.325.206.562 1.537.177 1.447.325.435.594.588.673.601.416.027.68-.945.708-.119.503-1.24.148-.355.295-.177.975.147.768.473.266.325.502-.355.59-.835.408-.445.387.278.31.378.49.104.267.206.723.242 1.009-.027.488-.221.365-.83.574-.56.266-.11.707-.04.53.06.48.36.38-.027.384-.493.082-.423.184-.413.679-1.203.693-.422.311.027.532-.476.76-.4.66-.305.618.06.65.678.285.533.63.236.798-.413.916-.96.346-.568.388-.17.294.15.959-.04.45-.152.423-.248.327-.517.366-.917.32-.78.22-.347.251-.408.553-.364.61.092.755-2.186.088-.148.562-.473.443-.148.797.48.772.228.646-.391.78.142.8.04.636.768.709.501.876.252.74.152.576.2.35.316.397.145.457.473.149.85-.429.6-.29.417-.103 1.228.067.74-.269.333.027.453.151.35.319.266.722.162.808-.208.825-.347.18-.118.235.118.503.384.354-.007.506-.423 1.148-.277.473.49.532.438.474.885.355.727.5.502.413-.118.561.351.17 1.354.014 2.022.02 3.159.026 3.083.027 3.5.04 1.66.45 1.501.407h1.89l1.887.482 1.403.318.84.12.862.114.118.444-3.777-.63-.848-.343-.718-.04-1.379.429-.762 1.019-.4.29-.957.273-.964.053-3.24.987-1.153.084-.786.262-.769.377-.294.81.12.492-.877 1.767-.216.983-.005.5.25.818-.322 1.399-.583.306-1.44.391-.979-.284-1.674-.254-1.193-.539-1.534-.38-.492-.225-1.356-1.08-.143-.357-.099-.453.716-.646.384-.047 1.122.02.934-.104.597.347.164.754-.262.402-.237.249.074.188.671-.262.341-1.687 2.28-.842.745-.49.729-.759.113-.217.053-.284-.483-.235-1.075-.31-3.418 1.59-1.548.42-.998.455-1.207.818-.23.242-.256.543-.121.597-1.192-.272-1.819-.867-.364-.316.365-.444.554-.37.04-1.242.14-.435.383-.35.698-.382.346-.09.294.167.034.292 1.16-.02 2.25-1.101.926-.027 1.22.246 1.38-.148.248-.113.287-.258-1.028-.304-.986-.154-2.771-.107-.601.118-.82.584-.271-.146-.175-.294-.94-.208-.452.04-.432.281.071.436-.24.468-.87.463-.593.738.027.574-.047.298-.218.158-.448.19-1.445-.13-.816-.6-.32-.411-.921-.446 2.004-.554.704-.316.643-.705.48-.448-.34-.315h-.4l.04.5-.443.41-.924-.193-1.364.607-.838-.162-1.365.179-.669-.327-.143-.416.24-.433-.25-.735-.377-.179-.383.04-.173-.437-.414-.77-.184-.207-.2-.358.206-.087.47.103.41.231.625.027 1.379.501.572-.12.31-.116.116-.416.007-.395h.237l.782.505.498-.047.879.134.444-.054.824-.188 1.297-.555.674-.574.322-.077.4.073.267.165.004.4.303.369.413.303.115.368-.085.363-.738.51-.136.177.247.187.306-.088.42-.252.24-.346.067-.18.027-.257-.033-.313-.6-.893-.075-.202.001-.405.682-.373.192-.29.027-.562-.355-.385-1.464-.89-2.449-.894-.281.094-.19.162.225.117.324.06 2.182.736.568.427.371.114.441.284-.112.414-2.2.406-1.743.876-1.304.532-.903-.194-.43-.54-.456-.698-.685-.407-.389.04-.314-.075-.247-.215-.528.18-1.16-.486-.336-.21.851-.683.936.263.227-1.919-.292-.436-1.217-.475-.598.06-.816-.067-.55-.217-.626-.087-.529-.126-.691-.296-.835-.158-1.128-1.218-.484-.64-.264-.698 1.729-.014 1.01-.113.247-.292-.356-.557-.494-.438.363-.41.517-.32.539.142 1.33.709.228.48.946 1.463.229.13.112.136 1.955.82.274-.014-.121-.687.563-.932.545-.308.274.003.027-.156-.531-.388.26-.517-.17-.014-.472.333-.946 1.626-.58.297-.795-.736-.451-.531-.222-.188.078-.834 1.575.17-.54-.273-1.839-.481-.46-.236-.341-.085-.612-.567-.758-.48 1.308-.862.674-.607 2.105.322.408-.188-.353-.443-.416.134-.657-.276-1.022-.83.034-.424.187-.777.405-.166.86-.16.98.252.43.206.37-.097-.377-.575-.64-.218-.713-.41.073-.455.23-.376.173-.412.12-.577-.068-.45.205-.207.314-.093.02-.169-.621.034-.225.568-.084.518-.441.416-.189.469-.111.562-.246.644-.537-.245-.315-.252-.12-.173.053-.329-.146-2.033-.014-1.703.276-1.326.759-.527.345-.153.314.067.485-.004.32-.191-1.087-.32-.66.183-.489.255-.88-.192-.167-.681-.522-.589-.09-.753.04-1.091 1.234.094 1.005.213 2.657-.02 2.181 1.045.963-.14-.047-.21-.737-.263-.46-.585-.269-.17-.127-.352-.04-.41-.542-1.506-.217.04-.207.518-.452.86-.63.418-.965.17-.953.096-.827-.165-.193-.356.02-.412-.359-.201-.934-.18-.266-.099-.308-.374.445-.564.366-.337.448.067.424.152.543.444.533.085.61-.353.12-.24-.382-.15-.348-.06-.54-.19-1.066-.676.532-.69 1.257-.79.384-.18-.333-.667.376-.728-.386-.6-.697-.647-.942-.143-.202.189-.034.265.15.2-.088.143-.215-.005-1.196-.142-.803-.43-1.308-.392-.171-.307-.141-.45.458-.777-.232-.014-.85.6-1.284.315-.945.103-.415.243-.166.2.251.12.547.026.4.75-.1.288-.195.194-.445.04-.928-.519-.488-.588.013-.467.332-.635 1.473-.853.408-.361.864-.4 1.153-.904 1.008-.501-.49-.416-.516-.624.054-.868 2.033-.344.888.142 1.124-.027.627-.208.456-.047.96-.24.413-.337.096-.258-.005-.225-.112-.277-.157-.718.16-.24.41-.286.54-.089.246.02.639.263-.128.372-.256.448-.522 1.782-.263.402-.412.35.275.726-.412.509-1.844.542-.243.033.138.194 1.067-.047.827-.114.818-.458.257-.698.338-1.36.444-.192.518-.04.27.32-.087.717-.002.694-.686 2.057-.832.826-.093.217.034.258.659-.04.503-.444.362-.566.363-.79-.04-.571.11-.354.149-1.157.252-.585-.014-.82-.453-.308-.633-.187-.16-.502.333-.99 1.211.026 1.148-.676.752-.246.428.054 1.502.652.297.007-.047-.234-.233-.165-.591-.22-1.089-.7-1.464-.115.269-.91.284-.831.71-.115 1.192-.273 2.274-1.247.395-.939.108-1.055-1.096-.275-1.162-.69-.938-.368-.831-.46.163-.69.11-1.124 1.042-.24.484-1.544-.7-1.181.168-.881.911-.753.164-.52.25-.573.805-.06.02-.312-.071-.568-.53-.67-.02-.931.497-1.098.797.076.155-.047-.566-.664-.462-.732.08-.292.441-.249.511-.138.554.375.791 1.193.12-.306-.32-1.216-.264-1.513-.834.2-.765-.107-.288-.235-.287-.34.269-.416.269-.31.56-.389 1.165-.136.842-.49.282-1.005-.276.1-.458.884-.768.3-.391-.048-.462-.165-.907-.77-.5-.18-.489-.02-.417.195-1.065 1.358-.454.23-1.872.108-.688-.157-.744-.208.089-.335.226-.356.422-.183.007-.205-.58-.054-.671-.376-.297-.476-.141-.85-.601-1.348-.119-.964.424-.688.913-2.7.279-1.377.489-1.21-.014-.798 1.265-.73.48-.435 1.076-2.457.157-1.326-1.704-4.022-.264-.768-.082-.955.407-1.586.046-.601-.348-.87-.972-1.42-.02-.724.41-.746-.395-.924.193-.573.214-.449 1.522.24.693-.113.369-.272.288-.76.145-1.187.09-.511.132-.747.747-.3.26-.709.625-.987.644-2.759.636-.68.643-.786-.245-1.165.415-.539.38-.39.337-.712.457-.672 1.092-.966.277-1.18.847-2.038.17-1.308.262-.885-.075-.825.509-1.003.488-.844.154-.469 1.116-1.118.188-.893-.396-.605-.007-.937-.311-1.299.72-.486.291-.355.936-2.077-.06-.815.269-1.012-.615-1.198-.085-2.693-.345-2.073-.567-2.19.054-1.225-.347-1.523-.02-.879.264-1.994 1.803-1.255.35-1.405.216-1.899-.073-1.383-.179-.622-.887-1.02-.224-1.82.171-.477.734-.513.518-.711.267-1.105.538-.87.214-2.1.456-1.673.227-.583.715-.734.134-.195.11-.56-.033-1.32.11-.807.57-1.587.068-.735.633-1.634.143-1.174.27-.618-.104-.697.18-1.559-.43-.881-.095-.515.54-1.598.368-.39.594-.743.25-.835.046-.53-.758-2.64-.104-.9.185-2.094.261-1.353-.084-1.079.084-.555.132-.696.52-.845.119-.6-.183-.251-.618-.306-.51-.767-.034-.756.164-.55.04-.78.76-.152.406-.432.385-.811.484-1.96.207-2.43.289-1.465.204-.723.17-1.512.282-.99.047-.913-.054-.694-.728-3.535.02-1.3.31-2.02-.005-2.845-.06-.665-.274-.622-.082-.844-.438-1.47-.395-2.947-.007-1.556-.171-1.321-.38-.351.274-.08.638-.054.66-.001.835-.28.889-.518.58-.754.249-.691v-.605l-.261-.769-.071-.545.308-.26.813-.102.658-.513.506-.45.107.76.917 1.02.3 1.148.207.145 1.262.574.02.136-.185.214-.184.277.128.39.229.537.075.497.14.511.139.785.084.71.322 1.05.067.648.005.391.25.383.489.457.662.46.525.538.403.364.487.297.374.273.146.188.047.153-.161.145-.592.709-.823 1.078.013.13.79.777.126.306-.007.435-.264.52-.853.166-.19.142-.026.166.196.22-.033.514.308.57-.159.193-.314.262-.007.255.103.284.33.23 1.313.798.104.11-.02.083-.508.531-.053.329.013.54.072.35.163.145.659.164.815 1.216.782 1.142-.013.985.08 1.147.499.901.07.72.167.82.592.497.231.984.06.524-.033.345.46 1.07.054.918-.11.66.006.37.067.259.395.233.175.146z" style="fill:#fff;fill-opacity:1;fill-rule:nonzero;stroke:#505050;stroke-width:.5;stroke-linecap:round;stroke-linejoin:round;stroke-miterlimit:4;stroke-dasharray:none;stroke-opacity:1" id="path8" />
    <path class="polygon" d="m100.305 86.588-.181.148-.347-.265-.117-.335.212-.249.273.082.124.205zM146.2 20.987l.718 1.146.118.79-.984.857-.238.378-.24.081-.299.176-.91.331-1.228.316-1.599.405-.363.432-1.582 2.716-1.324.55-.481.405-.363.514-.79.947-.328.727-.872 1.58-.476 1.98-.18 1.112-.263 1.612-.386.81-.517.76-.556.744-.478.815-.406.637-.067.22.197.175.962-.176.377-.191.525-.247.329.132.329.702.373.087.35-.087.373.175.475 1.746.402 1.479.936.923.731.722.176.635.175.9.047.439-.228.265-.364.546-.09 1.047-.06.348-.068.97.046.595.195.465.323.266.659.138.593.163.342.807.485 1.024.52.43.763.284.545-.104 1.276-.182 1.097.044 1.602.276.598-.01.773-.052 1.357-.557.492-.084.55.05.8.282.435.224.557.231.814.165.522-.027.395-.01.229.104 1.278 1.592 1.107 1.38.965 1.157 1.042 1.25.081.074.47-.161.31.07.285.253.493-.105.701-.462 1.023-.093 1.345.278 1.773.002 2.202-.275 1.367-.297.534-.321.885.032 1.065.29.577.412.07.405.215.631-.23.64-.68.649-.376.829-.073 1.008-.35.746-.628.482-.245.704.139.924-.068 1.35-.275 1.778v1.063l.275.347.127.498-.02.648.103.574.34.748.474 1.49.396.639.344.234.351.286 1.012 1.523.245.32-.074.281-.094.21-.116.134-1.08.907-2.143 1.972-.178.251.014.414.62-.266.664.222.325.044.148.163.192.531.222.089.325.221.635.561.531.591.399.283.28.264.089.384-.118.384.334.89.227.277.118.34-.118.339.281.399.306.784.373.958.047.532.156.245.183.711.312.669-.074.458.13.447-1.267.3-.114-.047-.076-.165.033-1.277-.013-1.44-.195-.59-.58-.945-.769-1.255-.21-.36-.325-.207-.383-.03-.281.09-.378.233-.356.255-.688.756-.691.884-.405.198-.407.081-.358-.027-.289-.238-.296-.483-.356-.64-.426-.21-.165.197-.14.377-.111.374.286.475.245.367-.422-.013h-1.365l-1.575.001-1.572.001h-1.414l-1.31.001-.499-.03-.508-.215-.486-.103-.257.017-.46.21-.601.03-.404.199-.326-.024-.006 1.104-.007 1.575-.007 1.67.362-.127.314.012.23.118.643-.095.357.05.338.042.313.006.193.133.26-.024.277-.145.332.09.356.235.229.35.205.435.205.229-.014.416-.006.326-.072.271.09.175.067.187-.02.109-.12.048-.26.036-.277.03-.193-.012-.15-.168-.145-.018-.211.024-.223-.103-.193-.211-.344-.211-.368.09-.253.109-.26.133-.235.138-.235-.036-.302.102-.253.157-.338.127-.367.06-.422.061-.404.024-.46.049-.026.879-.054 1.728-.033 1.144.003 1.055.177.384.813.812.635.428.54.477.535.2.224.18.148.295.074.31.06.266-.06.28-.133.266.06.28.193.223.06.28.133.266.074.266.162.192.207.133.266.221.027.207-.027.237-.003.178.253.407.075.286-.118.34-.114 1.178-.293 1.342-.186 1.024-.304 1.67-.354 1.943-.431 2.368-.426 2.338-.412 2.263-.372 2.045-.411 2.255-.25 1.367-.118.237-.343-.496-.52-.467-.487-.282-.207-.369-.28-.752-.39-.258-.275-.2-.266.03-.28.206-.435.132-.294-.02-1.182-.518-.194-.05.76-1.185 1.357-2.119.864-1.346.958-1.495.49-.763.067-.13-.002-.195-.209-.291-.461-.123-.534-.223-.336-.362-.466-.156-.362-.258-.66-.252-.397-.233-.483-.084-.384-.427-1.401-.827-.362-.079-.393.127-.577.132-.556.453-.695.146-.649-.005-.338-.27-.326-.098-.424-.368-.75-.282-.543-.197-.336.091-.432.412-.437.408-.347.254-.466-.014-.556.376-.546.133-.551.058-.636.132-.704-.227-.576-.2-.259-.09-.233.062-.361.21-.65.088-.51.02-.361-.097-.325-.363-.526-.186-.578-.226-.122-.468.083-.349.226-.504-.125-.52-.243-.824-.104-.336-.18-.285-.286-.104-.556.078-.608-.311-.376-.297-.193-.363.207-.685-.182-.582-.362-.324-.233-.57-.363-.452-.478-.232-.478.025-.375-.142-.428-.479-.4-.181-.454-.466-.846-.207-.44-.181-.25-.287-.339-.515.04-.285-.164-.28-.146-.504-.288-.741-.317-.422-.326-.319-.276-.27-.41-.4-.505-.233-.427-.246-.168-.362-.143-.298-.239.022-.343-.026-.379-.076-.4-.216-.333-.262-.56-.444-.306-.058h-.272l-.4.434-1.203-.456-1.027-.68-1.068-.176-.69-.413-.638-.648-.343-.438-.28-.218-1.357-.628-.27-.061-.518.291-.169.175-.033.502-.06.286-.451.173-.726-.037-.506-.182-.338-.027-.07.143-.19.061-.412-.04-.608-.14-.552-.185-.748-.395-.345.05-.85-.085-.695-.225-.177-.207-.3-1.418-.093-.098-.299-.062-.504-.195-.317-.229-.164-.392-.2-.372-.848.083-1.39-.491-.962-.468-.88-.52-1.336-1.023-.51-.253-.63-.313-.371-.504-.615-.51-.206-.138-.193-.46-.918-.667.455-.861 1.103-.647 1.447.502.178-1.004-.524-.888.077-1.678.17-.334.382-.449.497-.31.292-.09.495.153.313-.335 1.18.15.358-.14.244-.228.288-.173.368-.404.211-.466.176-.181.408.063.04-.2.21-.275.714-.613-.007-.271-.2-.591.047-.217.413-.075.488-.167.26-.564.323-.493.369-.723.406-.046.215-.845.546-.74 1.112-2.197-.335.048-.266.293-.304-.035-.345-.172.101-.99-.198-.117-.537.762-.463-.775-.04-.473.194-.467-.027-.315-.75.234.034-.291.466-.3.212-.312.407-.34.169-.513.098-.796.183-.857-.135-.422-.22-.36-.184-1.595.054-.928-.094-.73-.191-.617-.889-.81 1.405-.928.505-.7-.64-1.441-.835-1.215-.027-.73.221.093.28-.022.258-1.537-.06-.476-.47-.769-.584-.019-.51-.965-.293-.217-.235-.608-.822-1.185-.653-.616.487-1.43.426-.274.14-.357-.167-.878.047-.206.1-.088.1.006.172.133.32.379.268.469.214.144.323-.155 1.256-.936-.08-.289.115-.586.419-.48.449-.163.134-.267-.11-.412-.47-1.026-.422-.552-.27-.55-.144-.507-.477-.477.203-.451.37-.528.127-.091.201.144.554.958.88.624.923 1.006.378.694.301.126.262.251-.115.186-.289.196-.084.404.188.226.199.144.538-.092.296-.472-.2-2.066-.31-1.033-.36-.321-.323-.409.218-.309.574-.14.756-.361 2.763-1.972.947-1.853.725-.67.82-.437 1 .103.779-.233.239-.59-.213-.8-.299-.482.287-.7.298-1.06-.02-.893.384-.531-.133-.21-.561.431-.444.193.251-.355.785-.88.408-1.339.314-.558 1.108-.779.219-.375.836-.584 1.35-1.254.516-.35 2.614.81.83-.052-.148.148-.383.05-.554.219-.16.482.374.505.398.147.34-.325.336-.928.541-1.025.128-1.075.383-.37.562-.132 1.002.213.762.222.796.028 2.435-.162 3.963-2.79 1.84-.6 1.153-.586.735-1.145.198-.86.54-.334.57.001.26-.209.081-.265 1.37-.743.785-.096.693.014z" style="fill:#fff;fill-opacity:1;fill-rule:nonzero;stroke:#505050;stroke-width:.5;stroke-linecap:round;stroke-linejoin:round;stroke-miterlimit:4;stroke-dasharray:none;stroke-opacity:1" id="path10" />
    <path class="polygon" d="m86.789 123.53-.128.257-.637-.022-.182-.083.005-.296.15-.937.175-.394.522-.38.435-.184.559.033.59.347-.697.63-.389.095-.148.08zm-68.943-10.94-.27.013-.37-.287.283-.523.303.126.223.15.131.201zm6.732-2.874-.788.277-.273-.124-.17-.136-.04-.167.437-.414.425-.224.38-.476.702-.283.205.066.137.099.054.16-.238.385-.425.269zm-6.135-.934-.35.012-1.039-.649.07-.636.415-.43 1.342-.218.564.403-.05.763-.458.557-.364.102zm-7.309-2.081-.672.116-.566-.23-.24-.355-.05-.535.05-.178 1.25-.193.406.448-.004.66zm5.707-.85-.311.203-1.263-.234-.394-.388.318-.53.268-.214.756.197.765.594zm-4.677-2.406.416.432.227 1.23 1.344 1.3.167.725-.12.337.064.132.646.513.421.537-.709 1.263-1.51.53-1.611-.018-.319-.136-.432-.483-.08-.426.25-.412.831-.624 1.27-.559.158-.427-.51-.416-.351-.826-.802-.58-.4-1.766-.266-.088-.545.244-.268-.214-.045-.113.587-.403.122-.288.868-.138.372.23zm82.813-8.223-.378.05-.175-.32.459-.374.157-.073zm4 1.385.88.519.962.468 1.39.49.848-.083.2.373.164.392.317.23.504.194.299.062.092.098.3 1.418.177.207.695.225.85.084.346-.049.748.395.551.185.608.14.413.04.19-.061.07-.143.337.027.506.182.726.037.451-.173.06-.286.034-.502.169-.175.517-.291.27.06 1.358.63.28.217.344.438.637.648.69.413 1.068.177 1.027.679 1.202.456-.375.239-.388.025-.52.075-.721-.23h-.285l-.04.233.478.284.466.324.168.492.277.583.666.654.415.327.027.233-.13.427-.033.357.228 1.64-.153.1-.246.008-.261-.009-.214-.178-.187-.106-.082.253-.193.73-.434 1.642-.38 1.44-.476.51-.689.809-.944 1.107-1.369 1.606-1.012.742-.799.586-.932.676-1.204.873-1.35.49-1.881.682-1.33.482-.981.337-1.022.352-1.35.463-.522.438-.867 1.07-.404.517-.37.444-.075.203.047.13.178.216.013.221-.244.139-.21.022-.095-.111-.07-.244-.224-.249-.26-.072-.15.061-.014.227-.34 1.096-.013.532-.144.21.013.477-.344.444-.15.395-.104.335-.277.233-.099.367-.256.775-.299.608-.21.52-.04.39.16.275.054.222-.144.398-.078.3-.382.203-.793.484-.31.331-.121.377.078.321-.034.267-.376.1-.134.232-.254.41-.288.143-.74-.217-.545-.004-.42-.2-.46-.587-.377-.495-.308-.64-.096-.88-.412-.26-.407-.305-.486.085-.578.059-.321-.204-.789-.373-.674-.42-.51-.21-.387.1-.232.254-.41.454-.604.314-.272-.015-.365-.21-.066-.244.299-.387.61-.853-.676-.023-.233-.265-.033-.31-.111-.333.133-.399.354-.21.532.166.365.011.244-.376.244-.167.244-.121.1-.189-.257-.603-.076-.327.078-.188-.013-.377-.014-.277-.155-.244-.013-.365-.133-.2-.044-.21-.011-.244-.167-.122-.176-.124.144-.088.96-.338.399-.337.493-.307.424-.472.28-.453.663-2.097.621-1.326-.104-.632-.515-.858-.116-1.264.047-.384-.067-.29-.344.525.088 1.862-.303.837-.425.202-.276-.147.157-1.36-.31.248-.497.922-.814.684-.044.228-.197.282-.629-.26-.479-.28-1.572-1.535-1.033-.32-.624-.536-.13-.225-.075-.31.637-.322.652-.432.066-.952-.017-.748-.482-1.276.225-1.668-.124-.653-.552-1.386.409-.698 1.458-.51.467-.34.328-1.1.332-.658.65.266.51-.031-.687-.245-.56-.99-.093-.455 1.079-1.356.564-.353.694-.717.584-1.081.142-1.707-.242-1.22-.182-1.29.35-.333.887-.171.721-.416.366-.385.857.057.99-.595 1.584-.299 2.206-.68.486-.601-.218-1.068.206.138.615.51.372.503.63.314.51.253z" style="fill:#fff;fill-opacity:1;fill-rule:nonzero;stroke:#505050;stroke-width:.5;stroke-linecap:round;stroke-linejoin:round;stroke-miterlimit:4;stroke-dasharray:none;stroke-opacity:1" id="path12" />
    <path class="polygon" d="m240.43 66.448-.356.423-.067.269-.23.477-.179.258.26.594.297.026.113.076.074.116-.013.126-.114.113-.284.144-.27.342.027.377-.169.197-.543.105h-1.064l-.521.026-.418.064-.274.245-.349.17-.273.04-.242.285-.24.403.08.276.249.368.146.376-.192.61-.21.47-.125.36-.168.691-.409.76-.292.433v.47l.149.669.834.973.276.465.227.745.752.587.475.475-.047.628.06.195.295.158.356.122.395-.01.353-.054.083-.088.816-.012.092.157.047.903.033.366.195.147.116.224.007.203.04.506.121.265-.02.54.084.198.225.134.285.387.107.049.054.136.244.55.123.165.088.024.033.191.177.515.12.127.228.378.091.412.302.464.308.327.139.339.393.748.38.526.517.137.432.073.27.203.266.218-.286.1-.256.134-.354-.103-.492.056-.511.148-.473.073-.89-.236-.27-.032-.185-.102-.369-.464-.175-.055-.474.217-.576.15-.28-.029-.33.157-.308.209-.588.905-.303.32-.326.147-.652-.005-.696.032-.521.22-.489.111-.244.014-.083.497-.11.23-.154.132-.38.04-.34-.018-.207-.207-.384-.103-.34-.074-.221-.118-.178.03-.147.206-.119.177-.103.325-.517.104-.222.184.129.61-.06.237-.109.185-.624.037-.533-.013-.306.225-.381.261-.232.049-.272-.016-.363-.303-.347-.373-.884-.262-.876-.217-.575-.593-.136-.292-.27-.129-.682-.703-.377-.453-.408-.12-.469-.19.02-.328-.033-.316-.201-.128-.283-.085-.104-.177.027-.414.054-1.066-.079-1.022-.629-.354-.271-.24-.476-1.51-.225-.682-.013-.505.158-1.507.179-.652.486-1.308.28-.443.014-.33-.027-.427-.142-.84.822-.529.352-.223.06-.354.441-.448.195-.428.162-.335-.047-.178-.192-.103-.226-.32-.476-.919-.172-.186-.145-.258.074-.408.186-.441-.026-.185-.285-.238-.586-.397-.487-.03-.377-.143-.554-.02-.443-.044-.251-.148.053-.243.11-.188.373-.462.249-.495.033-.483.076-.636.108-.551.06-.623-.585-.41-.187-.336-.242-.299h-.266l-.401-.128-.627.393-.493-.073-.34.148-.783-.03-.502-.191-.608.127-1.42-1.576-1.428-1.586-1.404-1.56-.093-.212.587-.742.524-.534.439-.303.206-.267-.158-1.144.007-.412-.205-.447-.148-.503.177-.419.212-.292.273-.113.655-.102.463-.041.163-.168.27-.195.35-.01.69.134.315-.252.569-.342 1.28-.592.287-.385.201-.597-.02-.281-.131-.107-.317-.098-.486-.013-.391.153-.402-.084-.335-.367-.02-.305.198-.43-.116-.285-.64-.907.005-.25.463-.406.264-.346.36-.829.287-.276.89-.096.227-.177.455-.438.675-.5.976-.399.28-.726.173-.198.775-.383.136-.204-.02-.18-1.23-1.63.247.112.966 1.064.534.23.113.005.004-.276.49.116 1.267.727 1.854 1.202 2.603 2.27.74.865.5.407.773.99.227.484-.02 1.927-.686 1.303-.167.98-.04 1.304-.4.75.53-.408.164-1.177.45-.715.585-.785.78-.188.842.334.677.059.597.233 1.271 1.254 1.241.993.452.796 1.316.398.778.628.25.543.154 1.422-.255 2.146zm-85.547 65.54-.04.437-.214.174-.331.04-.506-.311-.37.077-.37.02-.52-.363-.18-.357-.408-.292-.844.117-.696.007-.583-.066-.522.097-.445.377-.332.44-.39.37-1.142.246-.608.007-.548.242-.814.089-.556.215-.985.118-1.182.114-.659.328-.263.143-.67.453-1.168.714-.644.249-.778.772-.933.725-.606.386-.892.178-.369.194-.137.234.079.272-.151.699-.273 1.29-.075.633-.067.303-.591 1.036-.635.963-.312.639-.175.467.194.388.26.698.217.561.06.379-.073.435-.269.397-.421.26-.571.072-1.168.702-1.304 1.034-.426.482-.122.454-.19.712.078.37.233.252.233.603.02.311-.194.175-.37.04-.331.058-.253.156-.252-.04-.234.078v.253l.078.292-.04.31-.156.196-.136.136.136.194.234.175.35.292.486.564.37.097.311.194.04.312-.116.31-.273.137-.02.272.37.33.252.234.253.35.233.486v.312l.253.388.155.331v.312l.409.31.35.234.252.214.254.136.06.233-.034.354.364.583.665.438.54.634.349.46.646.74.027.85-.8.976-.802.976 1.31-.027 1.337.02 1.399.278.943.27.574.12.408.311.194.486.156.397.04.575.584.467-.04.443-.014.627.258.01 1.712.003 1.872.003 1.8-.117.679-.151.821-.761.493-.226.475-.355.578-.648.457-.293.387-.359.576-.36.239-.266.194-.097.448-.176-.195.35-.148.36-.047.516.214.563-.178.422-.289.376-.005.992-.006 1.405-.006 1.204-.007 1.506-.007 1.706-.005 1.135.307-.224.424-.2.552.522.392.226.337.054.346-.016.47-.111 1.03-.437.71-.352.808.024 1.11.138.64-.015.837 1.453.614 1.064.698 1.213.563.976.854 1.483.738 1.28.786 1.364.894 1.55-.288.394-.233.315.027.533-.353.283-.374.172-.443.448-.3.389-.014.552.053 2.812-.075.764-.228.657-.237.331-.142.26.342.653.327 1.311.246.26.307.533.139.505-.06.195-.613.238-.219.206-.06.751-.266.27-.448.354-.288.406-.245.278-.239.165-.116.495-.159.501-.559.331-.095.618-.007.506.294.508.962 1.07.098.255-.548.645-.319.445-.78 1.367-.014.249.194.645 1.168 2.761.198.226.36.262.59-.026.889.296.433.34.04.169-.1.113-.47.23-.524.298-.18.284-.033.447.119.666-.227.215-.522.26-.45.371-.452.62-.766.94-.265.26-.115.323-.435.11-.814.639-.14.323.133.308.416.258.28.375.074.478-.001.298v.007l-.505.45-.658.513-.813.102-.308.26.07.545.263.77-.001.604-.249.691-.58.755-.89.518-.835.28h-.66l-.637.054-.274.08-.49-.454-2.184-1.509-.832-.807-.77-.377-1.877-1.294-.188-.415-.23-1.33-.245-.375-.645-.48-1.623-.64-.629-.32-.66-.583-.967-.412-1.054-.846-.629-.678-.704-.448-2.186-.627-1.097-.627-2.05-.886-.913-.565-2.194-.687-.652-.327-2.158-1.61-1.513-.526-1.219-.904-3.68-1.923-.577-.615-.563-.951-.817-.567-.919-1.302-1.366-.765-1.315-1.014-.485-.923-.872-1.176-.259-.627-.762-.627-.054-1.237-.532-.571.382-.28.404-.124.504-1.926-.266-.965-1.364-1.75-.501-.841-.356-1.078-.549-.64-.81-1.345-.496-1.195-1.085-.868-.294-.31-.165-.442-.603-.312-.034-.917-.42-1.742-.6-.877-2.165-1.639-.034-.631-.172-1.149-.48-1.241-2.408-3.86-.604-1.148-.603-1.867-.541-1.06-.598-1.886-.9-1.433-.567-1.243-.603-1.545-.053-.827-1.093-1.423-.582-1.302-1.02-1.092-.993-.83-.432-.587-1.417-2.791-.194-.826-.966-1.535-.956-1.104-.605-.889-.772-.8-4.698-2.46-1.654-1.024-.56-.487-.257-.766.108-.449.486-.421.67.325.41-.135.32-.548.006-.83-.41-1.07-1.505-2.065.114-.437.283-.496-.58-.993-.632-.796-.316-.61.358-2.327.342-.59 2.278-2.361.626-1.01.977-.621.998-.952 1.2-.725.176.125.166.121.011.244.044.21.133.2.014.365.154.244.014.277.013.377-.078.188.076.327.257.604-.1.188-.244.122-.244.166-.243.377-.366-.012-.531-.166-.355.21-.133.4.11.331.034.311.233.266.676.022-.61.853-.299.387.067.244.364.21.272.015.604-.314.41-.454.232-.255.388-.1.51.211.673.42.79.373.32.204.577-.059.486-.085.407.306.412.258.096.88.309.641.377.495.459.588.42.2.546.003.74.218.287-.144.255-.41.133-.233.377-.1.033-.265-.078-.322.122-.376.31-.331.793-.485.381-.203.078-.3.144-.398-.053-.221-.16-.276.04-.389.21-.52.299-.609.256-.775.098-.367.277-.232.105-.336.15-.395.344-.444-.014-.476.144-.21.014-.533.34-1.096.013-.227.15-.06.26.071.225.249.07.244.094.111.21-.022.244-.139-.014-.22-.177-.217-.047-.13.076-.203.369-.444.404-.516.867-1.07.522-.438 1.35-.464 1.022-.351.98-.337 1.33-.482 1.881-.682 1.35-.491 1.205-.873.932-.676.799-.586 1.012-.742 1.369-1.605.944-1.108.69-.81.475-.509.38-1.44.434-1.641.192-.73.083-.254.187.107.213.177.262.01.246-.01.153-.1-.228-1.639.034-.356.129-.428-.027-.232-.415-.328-.667-.654-.276-.583-.168-.492-.466-.323-.478-.285.04-.233h.285l.721.23.52-.075.388-.025.375-.239.401-.434h.272l.306.058.56.444.333.262.4.217.379.075.343.026.24-.021.142.297.168.363.427.245.504.233.411.4.276.27.326.319.317.422.288.741.146.504.164.28-.04.285.338.515.251.287.44.182.846.206.453.466.401.181.428.479.375.143.478-.026.478.232.362.453.233.57.363.323.181.582-.207.685.194.363.375.297.608.311.557-.077.284.103.181.285.104.336.243.823.126.521-.226.504-.084.349.122.468.578.226.526.186.325.364.361.096.509-.02.65-.089.362-.208.233-.063.259.09.576.2.704.227.635-.131.552-.06.546-.132.556-.376.466.014.347-.254.436-.408.433-.412.336-.09.544.196.75.282.425.369.325.097.338.27.65.005.694-.146.556-.453.577-.132.393-.126.362.078 1.401.827.384.427.483.084.396.233.66.252.363.258.466.156.336.362.534.223.461.123.209.291.002.195-.067.13-.49.763-.958 1.495-.863 1.346-1.357 2.12-.76 1.184.193.05 1.183.519.293.02.434-.133.28-.207.267-.03.275.201.39.258.28.753.207.369.487.28.52.469zm79.082 106.697.148.487.088.377.222.266.222.354.221.199.155.332-.047.377.089.487.11.422.111.11.318.11.159.383-.115.194.047.22.114.217-.105.21.054.161.216.144.2.532.02.909-.222.487-.178.399-.047.244.133.353-.222.422-.266.51.067.354.047.332.02.354.067.333-.088.353-.089.311-.047.354.111.399-.199.376-.11.266-.047.266.2.42.509.178.399.047.376-.221.288-.067.532.2.487.354.62.046.554.067.42.112.621-.133.642.133.754.2.62.177.62-.047.466-.02.487-.2.465.02.355-.354.2-.31.177-.222.509-.177.354.11.288.576.51.332.199.244.376.11.82.02.51-.02.576.178h.376l.333.31.31.377.047.687.288.532.377.2.199.332-.067.465-.178.465.02.51.2.464v.465l.133.465.265.4.089.642-.047.465.177.266.067.376-.11.31-.047.42.02.378.133.31.399.399.11.709v.487l.178.576.332.266.532.089.62.088.754-.132.664-.156.377-.155.73-.42.643-.244.333-.155.31-.111.642.265.599.333.465.464.864.51-.168.125-.345.417.007.49.244.702-.214 1.487-.67 2.273-.276 1.325.12.376-.247.662-.92 1.424-.034.96-.108 2.878-.306 2.03-.518 1.501-.472.8-.424.097-.306.239-.185.38-.345.317-.504.254-.273.278-.04.302-.484.194-.922.087-.542.242-.161.396-.309.315-.457.232-.217.386.02.54-.262.462-.547.386-.504.013-.462-.365-.62-.242-.776-.12-.647.092-.52.303-.46.482-.403.661-.446.11-.492-.442-.621-.134-.753.174-.599-.06-.446-.295-.685-.034-.923.23-1.872-.264-2.82-.763-2.385-.29-2.924.274-.247-.792.155-.429.475-.322.298-.365.12-.41.328-.31.535-.214.227-.217-.081-.22.114-.194.308-.168.175-.266.04-.363.116-.18.206-.134.02-.251-.115-.777.014-.637.144-.496.179-.3.127-.074.118-.178.047-.3.192-.279.934-.573.351-.31.027-.284.14-.384.555-.825.17-.387.014-.193.196-.2.668-.46.362-.432.054-.405-.16-.46-.38-.514-1.192-1.286-.925-.584-1.183-.483-.78-.156-.374.17-.38-.133-.384-.436-.648-.344-1.37-.377-3.102-1.503-1.244-.726-.418-.448-1.16-.805-1.902-1.16-1.46-.566-1.017.034-1.628-.338-2.24-.706-1.294-.687-.347-.664-.829-.666-1.31-.666-.68-.44-.047-.21-.388-.275-.727-.34-.797-.58-.868-.822-.928-1.272-.988-1.722-1.061-1.16-1.132-.6-.566-.397.002-.194-.17-.186.151-.333.413-1.308.597-1.898.619-1.967.729-2.315v-1.643l.002-1.73 1.036-1.424.735-1.01.636-.963.643-1.647.43-1.1 1.64-.26 2.786-.572 1.388-.285 2.928-.602 2.976-.61 3.125-.04 3.017-.04 2.34 1.366 1.788 1.044 1.97 1.15.134.248.135.964zm32.08 90.948-.328.248-.354.47-.416 1.126-1.396 1.554-.284.877-1.507.915-1.06 1.03-.694-.027-.624.44-3.597 1.341-1.292-.252-.956.005-.89-.591-2.026-.214-1.271.237-1.708.65-.514-.008-.37-.033-.924-.27-.503-.574-2.627-.66-2.113-1.503-2.497-.027-1.914.196-.295-.199-.194-.385-.396-.557-1.646-1.326-1.294-1.317-.254-1.295.18-1.408.388-1.667-.068-.52.478-.297.472-.06.456-.432.408-.651.069-.494-.317-.914-.218-1.277-.262-.635.524-1.004.02-.488-.302-.43-.082-.44.138-.452-.027-.436-.191-.417.144-.346.48-.273.358-.42.236-.564.121-.431.006-.298-.145-.28-.296-.264.137-.525.57-.785.369-.697.167-.609-.013-.491-.19-.374.081-.253.35-.133.158-.395-.054-.982-.361-.81.276-.642.794-.742.414-.598.033-.457.248-.262.379.491 1.128.13 1.135.02.184-.124.445-.807.588-.23.64-.061.7.04.744.534 2.106 1.745 1.548 1.212.47.572.41.428.307.4-.131 1.035.02.454.072.131.353.013.525-.075.441-.22.345-.332.337-.272.273-.145.098-.22.156-.227.162-.047.306.169.722.592.56.548.137.313.216.326.23.285.162.277.544.362.552.23.369-.234.938.752 2.065.629.38.38.356.541.722.82 1 .737.805.311.773.178.432.162.295.283.472.304.297.113.101.272.305.596.318.753.348.698.752.671.848.522.881.296.496.367.212.379-.593.565-.643.71-.57.558-.587.39-.194.268-.131.417.007 2.206-.047.821.04.219.084.146.37.218.443.184z" style="fill:#fff;fill-opacity:1;fill-rule:evenodd;stroke:#505050;stroke-width:.5;stroke-linecap:round;stroke-linejoin:round;stroke-miterlimit:4;stroke-dasharray:none;stroke-opacity:1" id="path14" />
    <path class="polygon" d="m214.954 44.217-.416.136-.06-.672.125-.181.708-.54.195-.103.142.113-.034.144.34.243-.083.308-.368.338zm1.184-1.816-.805.22.013-.18.216-.31.418-.088.157-.106.267-.072.152.013.155.088-.365.175zm-29.415-11.843-.36.15-.663-.15-.33-.211.21-.24h.542l.507.291zm9.131-1.505.215.876-.067.164-.606.591-.509.042-.409-.02-.311-.115-.4-.384-.39.115-.961-.133-.267-.135.36-.47.663-.191.241-.039.194.29.482.249.566.026.141-.447.765-.661zm-39.608-3.65.338.749.538.564.414-.037.296-.094 1.963-.127 1.192.385 1.518.196 1.419.82 1.457.994.372.724.123.694.353.464-.352.477.19.8.417.805.63.512 1.797.138 1.945-.346 3.001-.312.966-.27 4.97-.144.946.386.092.385.014.296 1.599 1.441 1.312.196 1.115.463 1.152.248 1.261.35.71-.044.53-.123.627-.02 4.436-2.41 2.375.062.366-.157.316-.21-.876-.367-1.978-.141-.6.245-.34-.62.645.017 2.2-.209 2.523.138 2.056-.442 1.034-.073.595.087 1.637-.286 3.082.337 2.43-.278-.28.4-.798.24-1.29.077-.985.584-2.1-.108-1.474.21.473.163v.598l.201.121.213.005.502.443.137.29.163.611-.222.66-.308.294.6-.097.339-.31-.047-.311.047-.361.336.113.236.163.765 1.726.54.907.137-.035.128-.032.16-.174.239-.426.205.27.124.104.125.033-.113-.387.153-.495-.054-.173.24-.037.284.065.406.137.723.567.478.589.04.328.173.185.312.194.152.303.027-.477-.183-.348-.047-.398.941-.017.245-.523.513.315 1.36 1.436.501.238 1.481.275.933.691.547.62-.325.65-.871.325-.35.406-.2.398-.003.401-.264.466-.04.164-.157.656-.359.79-.478.838-2.488.02.615.343.565.25.928.66.738-.518 1.057-.037 1.144-.574.43-.09 2.14.301.517-.422.43-.124 1.157.08 1.005.453 1.245 1.63.02.18-.135.203-.776.383-.173.198-.28.726-.976.4-.675.499-.454.438-.227.177-.89.097-.287.275-.36.829-.264.346-.464.407-.004.25.64.906.115.284-.198.43.02.306.336.367.402.084.39-.153.487.013.316.098.132.107.02.281-.201.597-.288.386-1.28.591-.569.342-.314.253-.69-.135-.351.01-.27.195-.163.168-.463.041-.654.102-.273.113-.212.292-.177.42.147.502.205.448-.007.411.158 1.144-.206.267-.439.303-.523.534-.588.742.094.213 1.404 1.559 1.428 1.586 1.42 1.577.202.07.267.182.248.552.205.585.004.303-.16.38-.345.44-.42.354-.613.3-.488.285-.403.75-.244.265-.224.107-.444.098-.717-.023-.473-.059-.586.562-.75.206-.501.767-1.786.608-1.747.473-.479.187-1.725-.39-.414.121-.478.363-.441.282-.373.017-.313.146-.186.52-.166 1.79-.619.533-.748-.003-.514-.62-.608-.468-1.062-1.111-.295-.145-.275.007-.985.33-.468-.143-.377-.173-.63.055-1.122.013-.716.01-.348-.303-.323-.62-.219-.222-.256-.179-.423-.09-1.808.002h-.34l-.25-.119-.347-.532-.38-.25-.445-.01-.196.293.773.958.225.519.677.75 1.96 1.588.363.505-.04.644-.014.986.067.933.505 1.338.708 1.363.193.868-.132.642-.134.341.013.152.145.138.675.197 1.418.123.857.001 1.308.148.097.478-.128.79-.259.449-.21.13-.713.104-.749.485-1.087.479-.621.065-.259.093-.219.144-.18.182-.212.897-.32 1.013-.604.601-.665.497-.676.057-.542-.04-.269.146-.39.41-.556.509-.43.271-.578-.025-.617.25-.78.41-.517.338-.441.575-.632.605-.65.424-.31.524-.443.664-.554.022-.047-.398.266-.643-.288-.554-.527-.296-.247-.088-.246.036-.624.273-.767.497-.473.357-.426.164-.879.148-.74.076-.304-.102-.55-.365-1.272-1.142-1.721-1.547-.13-.448.073-.458-.312-.668-.182-.711-.156-.245-.047-.532-.373-.958-.307-.785-.28-.398.118-.34-.118-.34-.228-.276-.334-.89.118-.384-.088-.385-.28-.263-.4-.283-.531-.591-.635-.56-.325-.223-.222-.088-.192-.532-.147-.162-.325-.045-.665-.221-.62.266-.013-.414.177-.251 2.143-1.972 1.08-.907.116-.134.094-.21.074-.28-.245-.321-1.011-1.523-.351-.287-.345-.234-.396-.64-.473-1.488-.341-.748-.103-.574.02-.649-.127-.498-.274-.347v-1.062l.274-1.777.068-1.352-.139-.924.245-.703.628-.482.35-.746.073-1.009.377-.828.679-.65.23-.64-.215-.63-.07-.406-.576-.412-1.066-.289-.885-.033-.533.321-1.368.298-2.202.274-1.773-.002-1.345-.277-1.023.093-.7.462-.493.105-.286-.254-.31-.07-.47.161-.08-.073-1.043-1.25-.965-1.158-1.107-1.379-1.278-1.592-.23-.105-.394.01-.522.028-.813-.165-.558-.231-.434-.224-.801-.283-.55-.049-.492.083-1.357.557-.773.052-.597.01-1.603-.276-1.097-.043-1.276.181-.545.104-.763-.283-.52-.43-.485-1.024-.342-.808-.593-.162-.658-.138-.324-.267-.194-.465-.047-.595.068-.97.06-.347.09-1.047.364-.547.228-.265-.047-.439-.175-.899-.176-.636-.73-.721-.937-.924-.402-1.478-.474-1.747-.374-.175-.35.088-.373-.088-.329-.702-.329-.131-.524.246-.378.192-.962.176-.197-.176.067-.22.406-.637.479-.814.556-.744.517-.76.385-.81.262-1.612.181-1.112.476-1.98.872-1.58.329-.728.789-.946.364-.514.481-.405 1.324-.55 1.582-2.717.363-.431 1.598-.405 1.229-.316.91-.332.299-.175.24-.082-.2.315-.435.4-.495.244-2.547.612-.26.13-.331.255-.002.583.068.458.75 1.502.291.37 1.004.814-.228.112-.37.015.271 1.066.617.732.026.461-.472 1.43-.862.857-.611.996-.476.397-1.052 1.959.8 1.166.114.591.692.841.451.276.301.34-.138.574.276.778.358.411.45.165.555-.002 1.599-.518.378-.234.242-.415.8-.843.047-1.088.172-1.307-.194-.853-.84-1.215-.369-.864-.833-.805-.51-1.376-.211-.429-.158-.594-.18-1.05.56-.382-.054-.86 1.374-.237 2.973-1.4 1.842-.354 2.097-.748.486-.37.421-.613.326-.071 1.093.576.54-.2.213-.45-.297-.875h-.627l-1.887.317-.184-.376v-.33l-.445-1.045.278-.787.283-.635.541-.256.791-.277.6.424.364.405.198.392.134 1.064zM273.29 70.951l-.238.705.7-.615 1.085.974.307.478.337.881-.116.567-.15.292-.007.227.322-.313.181-.248.054-.591.263-.733.353-.013.281.436.583 1.9.22.389.084.603-.034.27.04.25-.206.144-.56.315-.256.42-.149.404-.348.275-.331.346-.103.28-.31.222-.06.37-.782 1.302-.311.587-.448.623-.28.232-.379.37-.193.43v.443l-.266.531-.147.458-.25.266-.662 1.45-.034.5-.157.296-.47.69-.319.417-.554.31-.583.34-.222.369-.411.187-.3.012-.487-.134-.655-.064-.333.043-.15-.183-.223-.422-.328-.298-.212.104-.44.3-.517.176-.368-.059-.802-.208-.342-.104-.103-.178-.118-.132-.177.059-.237.221-.315.232-.468.306-.96.55-.27.197-.25-.107-.406-.109-.436-.006-.938-.357-.549-.254-.237-.319-.277-.138-.163-.087.077-.06.243-.046.218-.005.337-.488.56-.304.973-1.69.41-.697.047-.382.116-.795-.217-.968.101-.272.837-1.17.359-.637.026-.55.104-.395-.103-.207-.19-.06-.319-.513-.206-.425-.568-.435-.389-.447-.638-1.025.06-.576-.18-.207-.196-.21.014-.262-.133-.644-.165-.606-.06-.381.157-.657-.095-.73-.207-.384-.054-.584.04-.523.178-.296-.034-.366.808-1.165.613-.676.564-.473.473-.354.641-1.77.467-.623.488-.088 2.63 1.465 1.233.135 2.486.792.9 1.015 2.083 1.69 1.095.53z" style="fill:#fff;fill-opacity:1;fill-rule:nonzero;stroke:#505050;stroke-width:.5;stroke-linecap:round;stroke-linejoin:round;stroke-miterlimit:4;stroke-dasharray:none;stroke-opacity:1" id="path16" />
    <path class="polygon" d="m260.785 67.717-.564.474-.613.675-.807 1.165.033.367-.177.295-.04.524.053.584.207.384.095.73-.157.656.06.382.166.605.132.645-.013.26.196.212.181.207-.06.576.637 1.025.39.446.567.435.206.426.32.512.19.06.103.207-.104.396-.026.549-.36.638-.836 1.17-.101.27.217.97-.116.795-.047.382-.41.697-.973 1.69-.56.304-.337.487-.218.005-.243.046-.077.06-.306-.005-.238-.216-.034-.255-.129-.293-.299-.088-.568.102-.163-.073-.338-.314-.28-.342-.07-.33-.18.031-.433.3-.293.06-.233-.077-.26.022-.659.32-.388.073-.278.323-1.832.146-.48.085-1.093-.558-.282-.182-.145-.026-.12.03-.12.124-.18.701-.167.19-.286.155-.279.28-.053.271.43.15.358.526.39.422.311.372-.04.422-.053.597-.226.204-.38.099-1.387-.289-1.063-.258-.45-.056-.2-.066-.265-.219-.27-.203-.432-.073-.517-.137-.38-.525-.393-.749-.139-.338-.308-.327-.302-.465-.091-.412-.229-.377-.12-.127-.176-.515-.033-.19-.087-.025-.124-.165-.244-.55-.054-.137-.107-.049-.285-.386-.225-.134-.084-.198.02-.54-.121-.266-.04-.506-.007-.203-.116-.223-.194-.148-.033-.365-.047-.903-.092-.157-.817.011-.082.088-.353.054-.395.01-.356-.121-.295-.158-.06-.196.047-.627-.475-.475-.752-.587-.228-.746-.275-.465-.835-.973-.148-.668v-.47l.293-.433.408-.76.168-.691.124-.36.21-.47.193-.61-.147-.377-.247-.368-.082-.275.24-.403.243-.285.273-.04.35-.17.273-.245.417-.065.522-.025h1.063l.544-.105.17-.197-.028-.377.27-.343.284-.144.114-.113.014-.126-.075-.116-.112-.076-.297-.026-.26-.593.178-.259.23-.477.068-.268.355-.423.085.13.277-.77.034-.625.21-.617.321-.732.582-.364 3.375.37 1.543.35 1.983.603.28.644.014-.644-.096-.651.547-.463 1.204-.162 1.803.223 1.547-.273 2.107.034 3.2.525 1.431.359.59.324.113.586-.054.747-.23.715z" style="fill:#fff;fill-opacity:1;fill-rule:evenodd;stroke:#505050;stroke-width:.5;stroke-linecap:round;stroke-linejoin:round;stroke-miterlimit:4;stroke-dasharray:none;stroke-opacity:1" id="path18" />
    <path class="polygon" d="m63.275 30.485.165.267.195.418.086.538.851 1.8.68 1.009 1.488 1.834.644.337 1.086 1.476.376.243.213.436 1.127.359.312.263-.038.124-.116.13-.166.13-.22.09-.53-.269-.52-.306-.288.14-.109.398-.193.204-.241.08-.1.133-.02 1.342.017 1.264.395.028.659.44.28.258.09.239-.082.117-.482.276-.469.349-.235.435.411.703.088.478-.014.5-.113.24-.91.574-.2.202.026.145.502.397.239.383.198.462.027.402-.455-.744-.631-.71-.549-.438-.041-1.02-.22-.555-.827-.51-.707-.358-.525.073.322.587.83.753.055.288-.013.387-.572-.06-.504-.157-.614-.05-.408-.23-.867-.9.616-.766.19-.503-.016-1.043-.14-.506-.668-.77-1.063-.845-1.49-.69-.7-.557-1.743-.426-.662-.283-.518-.524-.078-.377.184-.58-.482-.736-2.077-1.45-1.161-.532-.25-.314-.184-.097.179 1 .507.602 1.326.563.365.327.147.426-.77.815-.391.208-.116.444-.251.135-.265-.256-1.075-1.279-2.079-.613-.376-.376-.773-1.167-.356-1.066.127-.711.854-1.107.267-.483-.055-.297.028-.437-.319-.305-.79-.398-.503-.318.138-.16.905-.428.057-.386-.004-.129.148-.028.131-.102.081-.107.247-.372.216-.21.25-.034.304.155 1.141.4 1.269.446 1.807.634.75-.406.643-.31.45.044.97.362.585.115.36-.036.62.53.34.398.055.265.19.143.483.032 1.185.27.724-.053.658-.286.362-.341zm146.872-7.337-.446.028.177-.248.04-.422.234-.514.365-.347.358.092-.135 1.134z" style="fill:#686868;fill-opacity:1;fill-rule:evenodd;stroke:#505050;stroke-width:.5;stroke-linecap:round;stroke-linejoin:round;stroke-miterlimit:4;stroke-dasharray:none;stroke-opacity:1" id="path20" />
    <path class="polygon" d="m66.52 3.184-.187.245-.204.161-.429.801-.148.072-.029-.592-.255-.078-.299.21-.165.304.26.397.229.006.278.108.747 2.74-.161.488-.463.76-.44.648-.44.405-.546 1.726-.493 2.804.354 2.52-.18 2.33.157.55.046.685-.363.123-.206-.02-.21-.421.024-.37.218-.434.088-.588-.103-.308-.214.671-.377.3-.246.104-.24.34.254.637.328.467.107.335-.12.398-.075 1.362-.116-.039-.12-.183-.345-.013-.042.548.027.307-.294.236-.105.237.24.166.266.1.327-.022.27.674.084.548-.625.506-.212.42-.353.507-.199.5-.059.358.241 1.136.429.805.36.512.483.111-.113.539-.362.341-.658.286-.724.053-1.185-.27-.484-.032-.189-.143-.056-.265-.339-.398-.621-.53-.359.036-.585-.115-.971-.362-.449-.044-.644.31-.75.406-1.806-.634-1.269-.445-1.141-.401-.305-.155-.249.033-.216.21-.247.373-.081.107-.132.102-.147.028-.006-.177-.558-.738-.889-.888-3.4-2.726-1.25-1.63-.671-1.172-.64-.61-1.836-1.249-.424-.497-1.82-1.67-1.389-.977-.017-.417.57-.52.28.025.303.371.493.423.233.003.342-.197.009-.196 1.863-.082.334-.11.337-.307.173-.427.029-.415.07-.296.3-.287.545-.09.421-.03.125-.194-.127-.629-.227-1.527-.048-.425.078-.318.17-.116.826-.076 1.563.128.303-.096.626-.867.583-.637.415-.286.327-.086.38.565 1.32.813.223-.051.13-.045.042-.116-.024-.373.33-.34.684-.306.689-.54.691-.77.6-.455.508-.135.194-.21-.121-.287.04-.406.203-.526.295-.304.388-.083.153-.166-.081-.248.075-.273.35-.448.835-.384.478.13.398.515.561.35.726.186.563-.069.401-.322.36-.097.321.127.17-.073.018-.27.166-.062.313.146.28.037.243-.07.094-.132.05-.136.181-.102.627.1.703-.156.78-.414.517-.182.255.047.307-.208.356-.466.814-.207z" style="fill:#686868;fill-opacity:1;fill-rule:evenodd;stroke:#505050;stroke-width:.5;stroke-linecap:round;stroke-linejoin:round;stroke-miterlimit:4;stroke-dasharray:none;stroke-opacity:1" id="path22" />
    <path class="polygon" d="m76.93 54.495-.366.036-.75-.287-.55-.556-.043-.18.011-.184.3-.567.401-.196.158.003.384.655-.261.253.105.406.544.3zm17-6.171-.3.297-.116-.282.21-.291.073-.003zm1.12-.135-.133.284-.314-.632.047-.163-.02-.571.299-.15.22-.014.181.08.114.673-.094.304zm-22.34-7.411-.074.312-.518-.563.308-.092.11.01zm19.278-1.263.963.25.666-.033.64.177.28.385.29.164 1.573-.042 1.29.19 2.823 1.14 1.688 1.126.895 1.196 2.164 1.549-.127.091-.37.528-.203.452.477.476.144.507.27.55.421.552.471 1.026.11.412-.134.267-.45.164-.419.48-.114.585.08.29-1.256.935-.323.155-.214-.144-.268-.47-.32-.378-.172-.132-.1-.006-.1.087-.047.206.167.878-.14.357-.426.274-.487 1.43-.192-.181-1.61-1.925-1.394-2.386-.29-1.079.361-.064.35.024.188-.166.218-.314-.176-.73.677-.554.255-.374.188.044.443.635.644.365.79.53.49.12-.62-.556-1.068-.731-.3-.48-.283-.67-.418.29-.193.244-.217.139-.188-.167-.034-.216-.63-.042-.161-.196-.167-.11.076.417.124.258-.067.31-.205.022-.176-.321-.224-.29-.298-1.216-.716-.573-.328-.191-.27-.072-.399-.39-.526-.208-.717-.605-.878-.433-1.074-.153-1.305.094-.44.24-.298.306-.14.142-.77.35-.292.507-.184.427-.385.485.44.293-2.515 1.646-.498.24-1.13.168-.26.177-.344.325-.046.495.052.421.328.325.292.205.7.98 1.245 1.237.236.45.193.668-.376.314-.29.133-1.184.052-.408.267-.166.41-.441.332-1.526.33-1.198.038-.373-.383-.09-1.074-.807-1.833-.193-1.263-.201.157-.428.147-.145.314-.107.932-.158.318-.33-.03-.678-.334-.902-.308-1.149-1.974-.124-.372-.224-.443-.888-.186-.757-.333-.827-.052-.423.187-.432-.238-.074-.54-.867.242-1.113-.084-.995-.231-.68.123-.57.383.079.984-.167.193-.027-.401-.198-.463-.239-.383-.502-.396-.026-.146.2-.201.91-.574.113-.24.014-.5-.088-.478-.41-.704.234-.435.47-.349.481-.276.082-.117-.09-.238-.28-.259-.659-.44-.395-.027-.017-1.265.02-1.341.1-.133.241-.08.193-.205.109-.397.287-.14.52.305.532.27.22-.09.165-.13.116-.13.038-.124.424.357.868.635.05.312-.081.3.238.857.451.125.453-.167.112.159-.084.158-.233.178-.058.737.742.345.372.303 1.23-.143.454.08.31-.087-.344-.592-.46-.438.038-.197.35.145.266.299.605.37 1.116 1.285 1.278.311 1.012-.041.942-.174 1.504-.5 1.086-.901.868-.403 2.812-.857.999-.896.421-.118.402-.112.884-.678.475-.529.502-.266z" style="fill:#fff;fill-opacity:1;fill-rule:nonzero;stroke:#505050;stroke-width:.5;stroke-linecap:round;stroke-linejoin:round;stroke-miterlimit:4;stroke-dasharray:none;stroke-opacity:1" id="path24" />
    <path class="polygon" d="m212.7 18.576-.068.003-.06-.023.013-.02.077-.016.033-.044-.013-.06.003-.065.06-.04.047-.004.02.025.014.061-.034.047-.04.038-.02.059zm.725-2.006-.107.073h.053l-.053.05-.034-.05-.053-.03-.068-.013-.078.002v-.05l.1.03.152-.03.001-.054-.047-.049-.02-.034.054-.053.186-.117.078-.063.007.026.003.024.007.023.027.023-.096.09zm.346-1.095-.197.106-.491-.45.06-.524.297-.288.281-.17.29-.018.1.433-.071.611z" style="fill:#686868;fill-opacity:1;fill-rule:nonzero;stroke:#505050;stroke-width:.5;stroke-linecap:round;stroke-linejoin:round;stroke-miterlimit:4;stroke-dasharray:none;stroke-opacity:1" id="path26" />
    <path class="polygon" d="m155.33 20.235.023.195-.312-.104-.415-.415-.415-.312.102-.335.106-.115.415.312.41.584zm69.705-4.22-.191.133-.6-.267-.21-.323-.026-1.024.369-.097.694.81.404.294zm-62.015 6.848-.35.096-1.285-.646-1.063-1.049-.034-.548.271.047.28.209.426.741 1.244.488zm50.035-21.364-.627.146-.27-1.156-.439-.84.075-.524.08-.199.924.322.287.39.175 1.03zm-2.905 21.679-.447.029.177-.248.04-.422.233-.514.365-.347.358.091-.135 1.135z" style="fill:#686868;fill-opacity:1;fill-rule:evenodd;stroke:#505050;stroke-width:.5;stroke-linecap:round;stroke-linejoin:round;stroke-miterlimit:4;stroke-dasharray:none;stroke-opacity:1" id="path28" />
    <path class="polygon" d="m48.922-3.55 2.012.692 2.143-.125.774-.374.499-.107 2.195.712.579.547.45.054.35-.125.095-.113-.431-.119-.196-.17 1.73.335L62.376.241l.068.21-1.39-.764-.737.058-.191.124.041.417.068.196.316.022.233-.113.574.137.38.276.463.425.276.462.298.007.293-.278.553-.033.36.31.254-.017-.356-.482-.838-.478.2-.02 1.857.86.524 1.079.438.245.455.33-1.725-.1-.813.207-.357.465-.306.21-.256-.048-.518.182-.779.414-.703.157-.627-.1-.182.101-.049.136-.094.131-.244.071-.279-.037-.313-.146-.166.062-.018.27-.17.073-.32-.127-.36.097-.402.322-.563.07-.726-.186-.562-.35-.397-.516-.478-.13-.835.384-.35.448-.075.273.08.248-.152.166-.388.083-.295.304-.202.526-.041.406.12.286-.193.211-.508.135-.6.454-.692.772-.688.54-.684.305-.33.34.023.373-.041.117-.13.044-.224.05-1.32-.811-.379-.566-.327.086-.415.286-.583.637-.627.867-.302.096-1.563-.128-.827.076-.17.116-.077.318.047.425.228 1.527.126.63-.124.193-.421.031-.546.09-.299.287-.071.296-.029.414-.172.428-.338.307-.334.11-1.863.082.032-.707-.538-.286-.306-.59-.267-.398.088-.239-.026-.284-.758-.218-.711.17-.409-.11-.3-.151.517-.35.036-.213-.166-.153-.17-.103.051-.395.105-.466.29-1.09-.108-.19-.475-.328-.6-.034-.664.103-.32-.167-.28-.375-.472-.18-.839.3-.886.45-.272.164-.225-.022-.1-.337-.045-.4-.055-.099-.473-.141-.552-.103-.281-.111-.267-.27-.66-.351-.15-.26-.883-.597-.179-.297-.203-.215-.424-.276-.332.067-1.12-.342-.17-.031.156-.3.352-.464.77-.515.065-.417-.201-.8-.202-.519.109-.231.24-.933.185-.217 1.113-.472.104-.065.877-.66.975-.734 1.012-.809 1.13-.903.625-.528.288-.229.652.188.512-.428.296-.143.693-.512.215-.112 1.16-.21.56.006.49.519.389.283.733-.244.614-.053 2.536.483 1.006-.214 1.85-.045.832.12 1.175-.684.755-.137.886-.32-.118-.327-.213-.147zm-4.26-2.516-1.074.523-.336-.01.492-.404.795-.347.673-.17.552.074zm3.678-.557-.511.388-.092-.175.246-.359.308-.205.298.02-.072.155z" style="fill:#686868;fill-opacity:1;fill-rule:nonzero;stroke:#505050;stroke-width:.5;stroke-linecap:round;stroke-linejoin:round;stroke-miterlimit:4;stroke-dasharray:none;stroke-opacity:1" id="path30" />
    <path class="polygon" d="m215.644 11.058-.376.7-.732-.44-.084-.552.065-.335.448-.638.349-.415.244-.138.143.551zM24.95 7.08l.17.03 1.12.342.332-.066.424.275.203.215.179.297.883.596.15.261.66.352.267.269.281.11.552.104.473.142.055.098.045.4.1.337.225.022.272-.163.886-.451.84-.3.472.18.28.375.319.167.663-.103.601.034.475.328.108.19-.29 1.09-.105.466-.051.395.17.103.166.154-.036.212-.517.35-.162.09.118.674-.384.406-.353.294-.62.08-1.054.03-1.584-.33-1.168-.453-.63-.003.2.15.497.095.654.32-.188.088-2.379-.665-2.75-1.305-1.645-.208-1.882-.342-1.114-.824-.836-.357-.071-.312.008-.346.379-.465.706-.625.469-.323.22-.063.31.033.296-.18.256-.43.267-.278.677-.281.155-.111-.053-.241-.147-.468.022-.288.222-.133.265-.026.55-.116.238.023z" style="fill:#686868;fill-opacity:1;fill-rule:evenodd;stroke:#505050;stroke-width:.5;stroke-linecap:round;stroke-linejoin:round;stroke-miterlimit:4;stroke-dasharray:none;stroke-opacity:1" id="path32" />
    <path class="polygon" d="m212.702 18.606-.068.003-.06-.022.016-.02.076-.016.036-.045-.013-.059.003-.065.06-.04.047-.005.02.026.014.06-.036.048-.039.038-.019.058zm.725-2.006-.107.074h.05l-.05.05-.034-.05-.054-.03-.067-.014-.078.002v-.05l.1.03.152-.03v-.054l-.044-.048-.021-.035.056-.053.186-.117.078-.062.01.025.002.024.01.023.027.023-.096.09zm.346-1.095-.197.106-.491-.45.059-.524.297-.288.28-.169.29-.019.1.434-.07.61z" style="fill:#686868;fill-opacity:1;fill-rule:nonzero;stroke:#505050;stroke-width:.5;stroke-linecap:round;stroke-linejoin:round;stroke-miterlimit:4;stroke-dasharray:none;stroke-opacity:1" id="path34" />
    <path class="polygon" d="m26.337-15.658-.065 1.625-.074 1.883-.055 1.383-.073 1.847-.075 1.887-.101 2.575-.067 1.663.032.04.798-.081 1.182.072.289-.005.362.145.279.044.6.374.706.284.45-.572-.237-.345-.177-.176.027-.153 2.45 1.482-.29.228-.623.529-1.13.903-1.013.808-.974.733-.878.66-.104.066-1.113.472-.185.217-.24.933-.109.231.202.518.201.8-.064.418-.77.515-.353.464-.155.3-.139-.078-.238-.024-.55.116-.265.026-.222.133-.022.288.147.468.053.241-.155.111-.677.281-.267.277-.256.431-.297.18-.31-.033-.219.064-.468.323-.707.625-.379.464-.008.346.072.312-2.572-1.101-.856-.188-3.61.022-1.55-.432-1.765-.836-1.194-.759L5.75 6.242l.175-.172.147-.395.182-.409-.11-.47-.067-.383.206-.555-.02-.417.096-.257.305-.167.16-.317-.867-1.095v-.25l.115-.308.703-1.17.837-1.39.923-1.535.555-.923 2.027-.002 1.34-.002h1.703l1.851-.002 1.214-.001.501-.01-.085-.6.065-.664.222-.602v-.266l-.362-.325-.701-.19-.39-.287-.003-.365-.171-.44-.34-.517-.705-.53-1.07-.54-.912-.726-.752-.911-.637-.587-.49-.245-.116-.13 1.435.012 1.356.011.01-1.306.008-1.16.008-1.311 2.46.002 2.936.003 3.046.002 2.393.002z" style="fill:#686868;fill-opacity:1;fill-rule:evenodd;stroke:#505050;stroke-width:.5;stroke-linecap:round;stroke-linejoin:round;stroke-miterlimit:4;stroke-dasharray:none;stroke-opacity:1" id="path36" />
  </g>
</svg>
