<?xml version="1.0" encoding="UTF-8" standalone="no"?>
<svg width="27.707" height="28.305" version="1.1" id="svg6" sodipodi:docname="suriname.svg" xmlns:inkscape="http://www.inkscape.org/namespaces/inkscape" xmlns:sodipodi="http://sodipodi.sourceforge.net/DTD/sodipodi-0.dtd" xmlns="http://www.w3.org/2000/svg" xmlns:svg="http://www.w3.org/2000/svg">
  <defs id="defs10" />
  <sodipodi:namedview id="namedview8" pagecolor="#ffffff" bordercolor="#666666" borderopacity="1.0" objecttolerance="10.0" gridtolerance="10.0" guidetolerance="10.0" inkscape:pageshadow="2" inkscape:pageopacity="0.0" inkscape:pagecheckerboard="0" />
  <g style="display:inline" id="g4">
    <path class="polygon" d="m260.785 67.717-.564.474-.613.675-.807 1.165.033.367-.177.295-.04.524.053.584.207.384.095.73-.157.656.06.382.166.605.132.645-.013.26.196.212.181.207-.06.576.637 1.025.39.446.567.435.206.426.32.512.19.06.103.207-.104.396-.026.549-.36.638-.836 1.17-.101.27.217.97-.116.795-.047.382-.41.697-.973 1.69-.56.304-.337.487-.218.005-.243.046-.077.06-.306-.005-.238-.216-.034-.255-.129-.293-.299-.088-.568.102-.163-.073-.338-.314-.28-.342-.07-.33-.18.031-.433.3-.293.06-.233-.077-.26.022-.659.32-.388.073-.278.323-1.832.146-.48.085-1.093-.558-.282-.182-.145-.026-.12.03-.12.124-.18.701-.167.19-.286.155-.279.28-.053.271.43.15.358.526.39.422.311.372-.04.422-.053.597-.226.204-.38.099-1.387-.289-1.063-.258-.45-.056-.2-.066-.265-.219-.27-.203-.432-.073-.517-.137-.38-.525-.393-.749-.139-.338-.308-.327-.302-.465-.091-.412-.229-.377-.12-.127-.176-.515-.033-.19-.087-.025-.124-.165-.244-.55-.054-.137-.107-.049-.285-.386-.225-.134-.084-.198.02-.54-.121-.266-.04-.506-.007-.203-.116-.223-.194-.148-.033-.365-.047-.903-.092-.157-.817.011-.082.088-.353.054-.395.01-.356-.121-.295-.158-.06-.196.047-.627-.475-.475-.752-.587-.228-.746-.275-.465-.835-.973-.148-.668v-.47l.293-.433.408-.76.168-.691.124-.36.21-.47.193-.61-.147-.377-.247-.368-.082-.275.24-.403.243-.285.273-.04.35-.17.273-.245.417-.065.522-.025h1.063l.544-.105.17-.197-.028-.377.27-.343.284-.144.114-.113.014-.126-.075-.116-.112-.076-.297-.026-.26-.593.178-.259.23-.477.068-.268.355-.423.085.13.277-.77.034-.625.21-.617.321-.732.582-.364 3.375.37 1.543.35 1.983.603.28.644.014-.644-.096-.651.547-.463 1.204-.162 1.803.223 1.547-.273 2.107.034 3.2.525 1.431.359.59.324.113.586-.054.747-.23.715z" style="display:inline;fill:#e76036;fill-opacity:1;fill-rule:evenodd;stroke:#505050;stroke-width:.5;stroke-linecap:round;stroke-linejoin:round;stroke-miterlimit:4;stroke-dasharray:none;stroke-opacity:1" transform="translate(-234.433 -63.219)" id="path2" />
  </g>
</svg>
