<?xml version="1.0" encoding="UTF-8" standalone="no"?>
<svg width="36.078" height="32.857" version="1.1" id="svg6" sodipodi:docname="uruguay.svg" xmlns:inkscape="http://www.inkscape.org/namespaces/inkscape" xmlns:sodipodi="http://sodipodi.sourceforge.net/DTD/sodipodi-0.dtd" xmlns="http://www.w3.org/2000/svg" xmlns:svg="http://www.w3.org/2000/svg">
  <defs id="defs10" />
  <sodipodi:namedview id="namedview8" pagecolor="#ffffff" bordercolor="#666666" borderopacity="1.0" objecttolerance="10.0" gridtolerance="10.0" guidetolerance="10.0" inkscape:pageshadow="2" inkscape:pageopacity="0.0" inkscape:pagecheckerboard="0" />
  <g style="display:inline" id="g4">
    <path class="polygon" d="m266.045 329.633-.328.248-.354.47-.416 1.126-1.396 1.554-.284.877-1.507.915-1.06 1.03-.694-.027-.624.44-3.597 1.341-1.292-.252-.956.005-.89-.591-2.026-.214-1.271.237-1.708.65-.514-.008-.37-.033-.924-.27-.503-.574-2.627-.66-2.113-1.503-2.497-.027-1.914.196-.295-.199-.194-.385-.396-.557-1.646-1.326-1.294-1.317-.254-1.295.18-1.408.388-1.667-.068-.52.478-.297.472-.06.456-.432.408-.651.069-.494-.317-.914-.218-1.277-.262-.635.524-1.004.02-.488-.302-.43-.082-.44.138-.452-.027-.436-.191-.417.144-.346.48-.273.358-.42.236-.564.121-.431.006-.298-.145-.28-.296-.264.137-.525.57-.785.369-.697.167-.609-.013-.491-.19-.374.081-.253.35-.133.158-.395-.054-.982-.361-.81.276-.642.794-.742.414-.598.033-.457.248-.262.379.491 1.128.13 1.135.02.184-.124.445-.807.588-.23.64-.061.7.04.744.534 2.106 1.745 1.548 1.212.47.572.41.428.307.4-.131 1.035.02.454.072.131.353.013.525-.075.441-.22.345-.332.337-.272.273-.145.098-.22.156-.227.162-.047.306.169.722.592.56.548.137.313.216.326.23.285.162.277.544.362.552.23.369-.234.938.752 2.065.629.38.38.356.541.722.82 1 .737.805.311.773.178.432.162.295.283.472.304.297.113.101.272.305.596.318.753.348.698.752.671.848.522.881.296.496.367.212.379-.593.565-.643.71-.57.558-.587.39-.194.268-.131.417.007 2.206-.047.821.04.219.084.146.37.218.443.184z" style="display:inline;fill:#36b9e7;fill-opacity:1;fill-rule:evenodd;stroke:#505050;stroke-width:.5;stroke-linecap:round;stroke-linejoin:round;stroke-miterlimit:4;stroke-dasharray:none;stroke-opacity:1" transform="translate(-231.851 -305)" id="path2" />
  </g>
</svg>
