<?xml version="1.0" encoding="UTF-8" standalone="no"?>
<svg width="91.194" height="77.464" version="1.1" id="svg6" sodipodi:docname="venezuela.svg" xmlns:inkscape="http://www.inkscape.org/namespaces/inkscape" xmlns:sodipodi="http://sodipodi.sourceforge.net/DTD/sodipodi-0.dtd" xmlns="http://www.w3.org/2000/svg" xmlns:svg="http://www.w3.org/2000/svg">
  <defs id="defs10" />
  <sodipodi:namedview id="namedview8" pagecolor="#ffffff" bordercolor="#666666" borderopacity="1.0" objecttolerance="10.0" gridtolerance="10.0" guidetolerance="10.0" inkscape:pageshadow="2" inkscape:pageopacity="0.0" inkscape:pagecheckerboard="0" />
  <g style="display:inline" id="g4">
    <path class="polygon" d="m214.954 44.217-.416.136-.06-.672.125-.181.708-.54.195-.103.142.113-.034.144.34.243-.083.308-.368.338zm1.184-1.816-.805.22.013-.18.216-.31.418-.088.157-.106.267-.072.152.013.155.088-.365.175zm-29.415-11.843-.36.15-.663-.15-.33-.211.21-.24h.542l.507.291zm9.131-1.505.215.876-.067.164-.606.591-.509.042-.409-.02-.311-.115-.4-.384-.39.115-.961-.133-.267-.135.36-.47.663-.191.241-.039.194.29.482.249.566.026.141-.447.765-.661zm-39.608-3.65.338.749.538.564.414-.037.296-.094 1.963-.127 1.192.385 1.518.196 1.419.82 1.457.994.372.724.123.694.353.464-.352.477.19.8.417.805.63.512 1.797.138 1.945-.346 3.001-.312.966-.27 4.97-.144.946.386.092.385.014.296 1.599 1.441 1.312.196 1.115.463 1.152.248 1.261.35.71-.044.53-.123.627-.02 4.436-2.41 2.375.062.366-.157.316-.21-.876-.367-1.978-.141-.6.245-.34-.62.645.017 2.2-.209 2.523.138 2.056-.442 1.034-.073.595.087 1.637-.286 3.082.337 2.43-.278-.28.4-.798.24-1.29.077-.985.584-2.1-.108-1.474.21.473.163v.598l.201.121.213.005.502.443.137.29.163.611-.222.66-.308.294.6-.097.339-.31-.047-.311.047-.361.336.113.236.163.765 1.726.54.907.137-.035.128-.032.16-.174.239-.426.205.27.124.104.125.033-.113-.387.153-.495-.054-.173.24-.037.284.065.406.137.723.567.478.589.04.328.173.185.312.194.152.303.027-.477-.183-.348-.047-.398.941-.017.245-.523.513.315 1.36 1.436.501.238 1.481.275.933.691.547.62-.325.65-.871.325-.35.406-.2.398-.003.401-.264.466-.04.164-.157.656-.359.79-.478.838-2.488.02.615.343.565.25.928.66.738-.518 1.057-.037 1.144-.574.43-.09 2.14.301.517-.422.43-.124 1.157.08 1.005.453 1.245 1.63.02.18-.135.203-.776.383-.173.198-.28.726-.976.4-.675.499-.454.438-.227.177-.89.097-.287.275-.36.829-.264.346-.464.407-.004.25.64.906.115.284-.198.43.02.306.336.367.402.084.39-.153.487.013.316.098.132.107.02.281-.201.597-.288.386-1.28.591-.569.342-.314.253-.69-.135-.351.01-.27.195-.163.168-.463.041-.654.102-.273.113-.212.292-.177.42.147.502.205.448-.007.411.158 1.144-.206.267-.439.303-.523.534-.588.742.094.213 1.404 1.559 1.428 1.586 1.42 1.577.202.07.267.182.248.552.205.585.004.303-.16.38-.345.44-.42.354-.613.3-.488.285-.403.75-.244.265-.224.107-.444.098-.717-.023-.473-.059-.586.562-.75.206-.501.767-1.786.608-1.747.473-.479.187-1.725-.39-.414.121-.478.363-.441.282-.373.017-.313.146-.186.52-.166 1.79-.619.533-.748-.003-.514-.62-.608-.468-1.062-1.111-.295-.145-.275.007-.985.33-.468-.143-.377-.173-.63.055-1.122.013-.716.01-.348-.303-.323-.62-.219-.222-.256-.179-.423-.09-1.808.002h-.34l-.25-.119-.347-.532-.38-.25-.445-.01-.196.293.773.958.225.519.677.75 1.96 1.588.363.505-.04.644-.014.986.067.933.505 1.338.708 1.363.193.868-.132.642-.134.341.013.152.145.138.675.197 1.418.123.857.001 1.308.148.097.478-.128.79-.259.449-.21.13-.713.104-.749.485-1.087.479-.621.065-.259.093-.219.144-.18.182-.212.897-.32 1.013-.604.601-.665.497-.676.057-.542-.04-.269.146-.39.41-.556.509-.43.271-.578-.025-.617.25-.78.41-.517.338-.441.575-.632.605-.65.424-.31.524-.443.664-.554.022-.047-.398.266-.643-.288-.554-.527-.296-.247-.088-.246.036-.624.273-.767.497-.473.357-.426.164-.879.148-.74.076-.304-.102-.55-.365-1.272-1.142-1.721-1.547-.13-.448.073-.458-.312-.668-.182-.711-.156-.245-.047-.532-.373-.958-.307-.785-.28-.398.118-.34-.118-.34-.228-.276-.334-.89.118-.384-.088-.385-.28-.263-.4-.283-.531-.591-.635-.56-.325-.223-.222-.088-.192-.532-.147-.162-.325-.045-.665-.221-.62.266-.013-.414.177-.251 2.143-1.972 1.08-.907.116-.134.094-.21.074-.28-.245-.321-1.011-1.523-.351-.287-.345-.234-.396-.64-.473-1.488-.341-.748-.103-.574.02-.649-.127-.498-.274-.347v-1.062l.274-1.777.068-1.352-.139-.924.245-.703.628-.482.35-.746.073-1.009.377-.828.679-.65.23-.64-.215-.63-.07-.406-.576-.412-1.066-.289-.885-.033-.533.321-1.368.298-2.202.274-1.773-.002-1.345-.277-1.023.093-.7.462-.493.105-.286-.254-.31-.07-.47.161-.08-.073-1.043-1.25-.965-1.158-1.107-1.379-1.278-1.592-.23-.105-.394.01-.522.028-.813-.165-.558-.231-.434-.224-.801-.283-.55-.049-.492.083-1.357.557-.773.052-.597.01-1.603-.276-1.097-.043-1.276.181-.545.104-.763-.283-.52-.43-.485-1.024-.342-.808-.593-.162-.658-.138-.324-.267-.194-.465-.047-.595.068-.97.06-.347.09-1.047.364-.547.228-.265-.047-.439-.175-.899-.176-.636-.73-.721-.937-.924-.402-1.478-.474-1.747-.374-.175-.35.088-.373-.088-.329-.702-.329-.131-.524.246-.378.192-.962.176-.197-.176.067-.22.406-.637.479-.814.556-.744.517-.76.385-.81.262-1.612.181-1.112.476-1.98.872-1.58.329-.728.789-.946.364-.514.481-.405 1.324-.55 1.582-2.717.363-.431 1.598-.405 1.229-.316.91-.332.299-.175.24-.082-.2.315-.435.4-.495.244-2.547.612-.26.13-.331.255-.002.583.068.458.75 1.502.291.37 1.004.814-.228.112-.37.015.271 1.066.617.732.026.461-.472 1.43-.862.857-.611.996-.476.397-1.052 1.959.8 1.166.114.591.692.841.451.276.301.34-.138.574.276.778.358.411.45.165.555-.002 1.599-.518.378-.234.242-.415.8-.843.047-1.088.172-1.307-.194-.853-.84-1.215-.369-.864-.833-.805-.51-1.376-.211-.429-.158-.594-.18-1.05.56-.382-.054-.86 1.374-.237 2.973-1.4 1.842-.354 2.097-.748.486-.37.421-.613.326-.071 1.093.576.54-.2.213-.45-.297-.875h-.627l-1.887.317-.184-.376v-.33l-.445-1.045.278-.787.283-.635.541-.256.791-.277.6.424.364.405.198.392.134 1.064z" style="display:inline;fill:#dae736;fill-opacity:1;fill-rule:nonzero;stroke:#505050;stroke-width:.5;stroke-linecap:round;stroke-linejoin:round;stroke-miterlimit:4;stroke-dasharray:none;stroke-opacity:1" transform="translate(-131.842 -21.793)" id="path2" />
  </g>
</svg>
