<?xml version="1.0" encoding="UTF-8" standalone="no"?>
<svg width="40.726" height="31.468" version="1.1" id="svg6" sodipodi:docname="armenia.svg" xmlns:inkscape="http://www.inkscape.org/namespaces/inkscape" xmlns:sodipodi="http://sodipodi.sourceforge.net/DTD/sodipodi-0.dtd" xmlns="http://www.w3.org/2000/svg" xmlns:svg="http://www.w3.org/2000/svg">
  <defs id="defs10" />
  <sodipodi:namedview id="namedview8" pagecolor="#ffffff" bordercolor="#666666" borderopacity="1.0" objecttolerance="10.0" gridtolerance="10.0" guidetolerance="10.0" inkscape:pageshadow="2" inkscape:pageopacity="0.0" inkscape:pagecheckerboard="0" />
  <g style="display:inline" id="g4">
    <path style="display:inline;fill:#36b4e7;fill-opacity:1;fill-rule:nonzero;stroke:#505050;stroke-width:.5;stroke-linecap:round;stroke-linejoin:round;stroke-miterlimit:4;stroke-dasharray:none;stroke-opacity:1" class="polygon" d="m270.828 43.097-.486.21-.456-.089v-.53l.329-.21.38.01.36.19zm-5.981-7.411.865.26.463.354.025.268-1.529.326-.102.163.102.16.456.076 2.14.807 1.222.013.642.246.321.482 1.021.656.812.637.051.22-.153.323-2.277 1.245-.288.429-.038.454 1 1.352 1.473 1.478 2.126 1.122 2.927 1.219.039.754-.464.897-.398.609-.182.412-.355.173-2.916-.038-.437.146-.192.176-.013.148 1.049.272 1.635.96.94.93.983.407 1.098.742.882.692 1.371.895 1.53-.294 2.044.797.09.541-.129.482-1.285.527-.16.22.001.182.169.258.753.431.887.64.999.957-.445.285-.932.038-.726-.115-.256.195.013.313.945.727.184.53-.038.92.051 1.161-2.211-.076-1.889.557-.712-.115-.473-.986-.403-.8-1.203-2.055.328-.841-.67-.486-1.617-.874-.413-.362.23-.496.156-.907-.153-.736-.435-.22-.807-.014-.981.183-1.969.708-1.367-.453-.788-.457-.457-.382-1.023.318-.252-.155-.051-.945-.307-.509-.616-.595-.573-.285-2.103.588-1.265.2-.441-.55-2.218-1.805-2.057-1.383-1.411-.57-1.423.063-2.209.276-.81-.115-1.923-.602-1.605-.718.219-.298.34-.215-.406-.93-.891-1.501.09-.47-.283-.648-.312-.49 1.26-1.173.575-.943.128-.918-.335-.954-.829-1.725-.51-.502-.95-.468-.795-.766-.202-.542.671-.103 1.958-.012 1.895-.184 1.484-.357 2.15-.3.884-.267 1.035-.128 3.143.285 1.174-.22 3.538-.038.09-.115-.482-.363.005-.139 2.105-.231.326-.173.276.58zm-1.48 2.151.422.146.276-.146.064-.34-.102-.308-.343-.103-.421.077-.026.34z" transform="translate(-243.569 -34.21)" id="path2" />
  </g>
</svg>
