<?xml version="1.0" encoding="UTF-8" standalone="no"?>
<svg width="72.101" height="45.141" version="1.1" id="svg6" sodipodi:docname="azerbaijan.svg" xmlns:inkscape="http://www.inkscape.org/namespaces/inkscape" xmlns:sodipodi="http://sodipodi.sourceforge.net/DTD/sodipodi-0.dtd" xmlns="http://www.w3.org/2000/svg" xmlns:svg="http://www.w3.org/2000/svg">
  <defs id="defs10" />
  <sodipodi:namedview id="namedview8" pagecolor="#ffffff" bordercolor="#666666" borderopacity="1.0" objecttolerance="10.0" gridtolerance="10.0" guidetolerance="10.0" inkscape:pageshadow="2" inkscape:pageopacity="0.0" inkscape:pagecheckerboard="0" />
  <g style="display:inline" id="g4">
    <path class="polygon" d="m265.718 56.315.252.154 1.023-.318.456.382.788.457 1.368.453 1.969-.707.98-.183.808.012.435.222.153.735-.157.907-.229.496.413.362 1.617.874.67.486-.328.842 1.203 2.054.403.8.473.987-2.463-.385-4.437-.83-1.22-.429-1.155-1.147-.687-.554-1.019-.71-.835-.269-.632-.495-.36-.733-.529-.656-.914-.775-2.072-2.63-.269-.272-.432-.437-.193-.24 1.265-.2 2.103-.589.573.286.615.594.307.51zm-1.653-18.478-.276.146-.422-.146-.13-.325.025-.34.42-.077.343.103.103.308zm19.551-10.041.244.156.572-.09.95-.312.755.24.976.886 1.347.933.727.627.287.434.688.42 1.005.493.802.774.715 1.797.723.419 2.596.683.91.139 2.549.242.896-.173 1.312-1.55 1.182-1.596 1.102-.334 1.994-.77 1.193-.727.503-.786 1.126-1.484.693-.832 1.174.74 2.037 2.009 2.903 3.27.714.924.468 1.073.402 1.3.662 1.15 2.946 2.896 1.271 1.068 2.075 1.384.737.308.97.09 1.776.005 1.643.54.811.38.838.55.752.635.756 1.698-2.849-.56-2.87.089-1.622.364-1.572.498-1.508.702-.944 1.367-.796 3.165-1.16 2.96.039 1.371.509 1.316-.064.624-.532.265-.664.559-.89 2.718-.44.542-.567.338-.157-.321.038-.713-1.252-.63-.663.706-.455 1.496-.917 1.573-.051.3.228 4.859-.363-.026-2.62.492-.548-.157-2.242-2.24-.462-.248-.968-.103-.565-.368-.462-.6-.262-.446-2.321-1.214-.343-.444-.051-.39.341-.352.394-.297 1.132-.301 1.323-.26.423-.187.218-.322-.013-.517-.216-.509-1.901-.927-.209-.4-.064-.49.103-.51.295-.4 1.55-.545.83-.564-.516-.63-1.672-1.436-1.985-1.578-1.325-.013-1.528.467-2.443 1.346-1.351.575-1.762.953-1.92 1.06-1.572 1.128-.98.93-1.744.405-.886.78-2.922 2.341-.82-.026-.052-1.16.038-.922-.185-.53-.945-.726-.013-.313.256-.195.726.115.931-.038.445-.285-.998-.958-.887-.64-.753-.43-.17-.26v-.182l.16-.219 1.285-.527.128-.482-.09-.541-2.043-.797-1.53.294-1.372-.895-.881-.692-1.099-.742-.982-.407-.94-.93-1.635-.96-1.05-.273.014-.147.191-.176.438-.146 2.915.038.356-.174.182-.412.397-.608.465-.897-.039-.755-2.928-1.219-2.126-1.121-1.472-1.478-1-1.352.038-.454.288-.429 2.277-1.246.153-.322-.05-.22-.813-.637-1.02-.656-.322-.482-.642-.246-1.222-.013-2.14-.807-.456-.077-.102-.16.102-.162 1.529-.326-.026-.269-.463-.354-.864-.26-.79-.642-.277-.58 2.76-1.69.817-.338 1.807.31 3.752 1.122-.254.622.38.35.862.476 1.652.483 1.398.248.707-.213 1.077-.179 1.398.555 1.29.705.641.285.344.09.979-.235 1.177-.91.46-1.097.13-.529-.685-.727-1.409-.79-1.584-.695-1.017-.613-.65-1.208-.654-.133-.167-.157-.102-.412.026-.577.225-.443.64-.191.648-.064.584-.423.732-.83.312-.46 1.38.264zm-13.729 15.417.455.09.487-.212.127-.423-.359-.19-.38-.01-.329.21z" style="display:inline;fill:#36e744;fill-opacity:1;fill-rule:nonzero;stroke:#505050;stroke-width:.5;stroke-linecap:round;stroke-linejoin:round;stroke-miterlimit:4;stroke-dasharray:none;stroke-opacity:1" transform="translate(-260.548 -26.568)" id="path2" />
  </g>
</svg>
