<?xml version="1.0" encoding="UTF-8" standalone="no"?>
<svg width="29.36" height="14.534" version="1.1" id="svg10" sodipodi:docname="cyprus.svg" xmlns:inkscape="http://www.inkscape.org/namespaces/inkscape" xmlns:sodipodi="http://sodipodi.sourceforge.net/DTD/sodipodi-0.dtd" xmlns="http://www.w3.org/2000/svg" xmlns:svg="http://www.w3.org/2000/svg">
  <defs id="defs14" />
  <sodipodi:namedview id="namedview12" pagecolor="#ffffff" bordercolor="#666666" borderopacity="1.0" objecttolerance="10.0" gridtolerance="10.0" guidetolerance="10.0" inkscape:pageshadow="2" inkscape:pageopacity="0.0" inkscape:pagecheckerboard="0" />
  <g style="display:inline" id="g8">
    <g style="display:inline;fill:#9bec4b;fill-opacity:1" id="g6">
      <path d="m123.12 826.616-.496.103-.798-.367-.472-.103-.44.338-.508.243-.453.102-.398.026-.644.248-.78-.064-1.135-.203-.638.49-.153-.064-.102-1.235-.405-.505-.517-.279-.744.115-.99-.038-.732-.207-1.452.345-1.171.381-.85.366-.64-.026-1.093-.337-.817-.379-.09-.329.764.148 1.375-.27.595-1.246.195-1.437 2.325.412 2.359.213 1.93.077 1.904-.234 5.831-1.533 1.65-.917 1.022-.31 1.775-.76 1.854-.419-1.188.878-6.667 3.856-.436 1.147.298.793z" class="polygon" style="fill:#9bec4b;fill-opacity:1;fill-rule:evenodd;stroke:#505050;stroke-width:.5;stroke-linecap:round;stroke-linejoin:round;stroke-miterlimit:4;stroke-dasharray:none;stroke-opacity:1" transform="translate(-101.071 -818.711)" id="path2" />
      <path d="m106.597 825.263.09.329.817.378 1.091.338.64.026.85-.366 1.172-.381 1.451-.345.733.208.988.038.744-.115.517.279.405.505.103 1.234.152.064.638-.49 1.136.204.779.064.644-.248.398-.026.452-.102.508-.243.44-.338.472.102.798.367.496-.102.244.252.34.732-1.453.216-1.46.076-.812-.089-.762.038-2.366 2.09-1.272.712-1.514.423-1.542.252-.775.039-.68.266-.479.485-.012.472-.205.388-.845-.076-.352-.763-.603-.327-1.497.17-.73-.026-2.398-.727-.722-.297-.452-.622-1.235-2.242-.208-1.658 1.15.424 1.076-.514 1.036-.841 1.233-.344z" class="polygon" style="fill:#9bec4b;fill-opacity:1;fill-rule:evenodd;stroke:#505050;stroke-width:.5;stroke-linecap:round;stroke-linejoin:round;stroke-miterlimit:4;stroke-dasharray:none;stroke-opacity:1" transform="translate(-101.071 -818.711)" id="path4" />
    </g>
  </g>
</svg>
