<?xml version="1.0" encoding="UTF-8" standalone="no"?>
<svg width="156.142" height="124.063" version="1.1" id="svg6" sodipodi:docname="egypt.svg" xmlns:inkscape="http://www.inkscape.org/namespaces/inkscape" xmlns:sodipodi="http://sodipodi.sourceforge.net/DTD/sodipodi-0.dtd" xmlns="http://www.w3.org/2000/svg" xmlns:svg="http://www.w3.org/2000/svg">
  <defs id="defs10" />
  <sodipodi:namedview id="namedview8" pagecolor="#ffffff" bordercolor="#666666" borderopacity="1.0" objecttolerance="10.0" gridtolerance="10.0" guidetolerance="10.0" inkscape:pageshadow="2" inkscape:pageopacity="0.0" inkscape:pagecheckerboard="0" />
  <g style="display:inline" id="g4">
    <path style="display:inline;fill:#ecce4b;fill-opacity:1;fill-rule:evenodd;stroke:#505050;stroke-width:.5;stroke-linecap:round;stroke-linejoin:round;stroke-miterlimit:4;stroke-dasharray:none;stroke-opacity:1" class="polygon" d="m125.597 161.968.185.383.42 1.075 1.063 2.728.928 2.139 1.138 2.962.356 1.138.152.78 1.649 3.256.978 2.68.716 2.173 1.007 3.175.441 1.112-.713.576-1.434 2.066-1.526 6.558-2.183 5.124-.247 3.208-.35 1.164-1.038 1.625-1.258 1.594-2.239-.819-3.643-2.798-2.125-2.66-2.277-1.717-2.154-2.274-.586-1.638.026-1.049-.94-2.564-.696-1.215-2.624-2.727-.754-1.456-.575-.64-.578-.92-.95-3.538-1.042-2.246-1.186.614.21.946-1.035 1.307-.624 1.519.48 1.24 2.146 1.887.435.819.5 1.786-.077 2.43.347.818 1.606 1.806.576 1.075.346.92.534.832 1.593 1.572 2.294 2.993 2.176 2.017 1.569.972.667.972.15 2.519-.115 1.202 1.376 2.262.51 1.138 1.335.934.61 1.061.56 1.734.844 5.121 1.157 1.254 3.578 6.733 3.017 4.262 1.46 3.18 2.225 3.872 4.36 8.501 2.596 2.625 1.034 1.474 1.878 1.138 2.036 1.64-1.942-.167-.489.128-.678.282-.327.997-.138.819.235 4.308.532 2.192 1.708 4.156 1.273 1.24.619.807.864.588 4.046 1.417 2.365 3.002 5.31 3.793.52 1.049.013.243h-8.393l-4.198.002h-20.984l-4.196.002h-12.591l-4.196.002H90.26l.408-1.138.252-.806-.28-.562-.819-.141-.535.179-1.25 2.383-.66.128h-1.49L81 281.3l-4.887-.001H66.34l-4.886-.001h-9.772l-4.888-.001-4.885-.001h-4.886l-4.887-.001H27.25l-4.886-.001H12.59l-4.887-.001v-91.915l-.115-.538-.71-1.95-.643-2.482-.705-3.05-.09-.984-1.177-3.14-.103-.896.297-.626 1.932-2.648.582-1.285.492-1.542.16-1.253-.568-1.918-.666-1.723-.225-1.765-.09-1.734.988-1.19 1.186-1.113.443-.677.7-.768.493-.358.96 1.55 2.004.269 6.537-1.383 7.215 1.392 3.982.537 6.132 1.177 3.734 2.112 1.025.268h2.684l1.76 1.254 7 .6 3.736 1.38 2.121 1.1 1.27.332h1.125l1.521-.409 1.914-.767 2.086-1.075 4.326-2.763 1.53-.486.999.128h1.216l.507-.742.64-.511.402-.589.658-.703 2.25-.192 4.508-1.203-.503.563-4.109 1.348 1.759.167 1.802-.46 2.051-.295.373-.576.27-1.074.396-.153 1.42.204 4.227 1.655h1.05l2.977-.908.636-.192.963.5 2.197 2.059h-.767l-2.352-1.766-.209.883-1.34 1.549 1.675.665 1.361.256.73.857.463.767 1.34-.332.963-1.05-.5-.587-.34-.602.44-.012.933.498 2.677 1.988.902.41h1.039l2.173-.563.602.128 2.92-.73.344.538.48.537 2.349-.589 3.691.006 3.02-.64 3.5-1.571z" transform="translate(-3.91 -157.488)" id="path2" />
  </g>
</svg>
