<?xml version="1.0" encoding="UTF-8" standalone="no"?>
<svg width="86.126" height="32.485" version="1.1" id="svg6" sodipodi:docname="georgia.svg" xmlns:inkscape="http://www.inkscape.org/namespaces/inkscape" xmlns:sodipodi="http://sodipodi.sourceforge.net/DTD/sodipodi-0.dtd" xmlns="http://www.w3.org/2000/svg" xmlns:svg="http://www.w3.org/2000/svg">
  <defs id="defs10" />
  <sodipodi:namedview id="namedview8" pagecolor="#ffffff" bordercolor="#666666" borderopacity="1.0" objecttolerance="10.0" gridtolerance="10.0" guidetolerance="10.0" inkscape:pageshadow="2" inkscape:pageopacity="0.0" inkscape:pagecheckerboard="0" />
  <g style="display:inline" id="g4">
    <path style="display:inline;fill:#a6e736;fill-opacity:1;fill-rule:evenodd;stroke:#505050;stroke-width:.5;stroke-linecap:round;stroke-linejoin:round;stroke-miterlimit:4;stroke-dasharray:none;stroke-opacity:1" class="polygon" d="m282.052 26.79-.312.459-.732.83-.584.423-.649.064-.64.19-.224.445-.026.576.102.412.167.158.655.133.65 1.207 1.016.613 1.584.694 1.41.79.685.729-.13.528-.461 1.097-1.177.91-.978.235-.344-.09-.643-.285-1.289-.704-1.397-.556-1.077.18-.708.21-1.398-.248-1.652-.482-.861-.476-.381-.35.254-.622-3.752-1.121-1.807-.311-.816.337-2.761 1.692-.326.172-2.105.232-.005.138.481.363-.09.115-3.537.039-1.174.22-3.143-.286-1.035.128-.885.266-2.15.301-1.484.357-1.894.184-1.958.013-.671.102.025-.24-.102-.378-.397-.27-.555-.173-1.02.063-.943-.179-.673-.477-.15-.363.387-.295-.285-.246-1.176-.585-1.924-1.458-1.088-.326-.432-.912-.433-.194-.917-.09-.967.09-.21.102-.295.146-.761 1.14-.531.387-1.305-.182-1.08-.268-.88-.15-1.706-.09-1.944-.025-1.308.81-.564-.103-.992-.398-1.602-.328-.85-.259 2.452-2.404.729-1.429.026-.866.025-1.09-1.275-2.261-1.094-3.21-1.138-3.345-.887-1.002-3.718-1.157-.858-1.314-2.878-1.697-3.999-.736-.791-.316-3.473-2.133-2.716-1.374.581-.831.778-.874.839-.213 2.457.346 2.26.393 1.65-.28 1.966.69 1.795.792 1.805.558 3.518.526 1.312.73 1.533.73 6.004.373.484-.115.44-.103 2.014-.266 1.783.052 1.88.883 1.205-.05 1.284-.135 1.655.473 1.299.526.115.536 1.138.775 3.31 1.182 2.685.667.834.471 2.04.777.207.245-.039.317-.582.582-.147.518.275.296.846.285 1.681.064.605-.37 1.255-.267 1.24-.477 1.66-.638 2.257-.577.903.002.868.176.608.321 1.014 1.187 1.016-1.663.262-.128.926.334 1.64.462 1.135.244.612.343 1.734 1.515 2.803-.077 1.186.232.635.25.286.296-.502 1.505-.692 1.57.051.378 1.126.59 1.528.626.823.503.558.451 1.208.342 1.424.214.676.025.705.377 1.839.713z" transform="translate(-199.277 -5.048)" id="path2" />
  </g>
</svg>
