<?xml version="1.0" encoding="UTF-8" standalone="no"?>
<svg width="247.106" height="188.106" version="1.1" id="svg6" sodipodi:docname="iran.svg" xmlns:inkscape="http://www.inkscape.org/namespaces/inkscape" xmlns:sodipodi="http://sodipodi.sourceforge.net/DTD/sodipodi-0.dtd" xmlns="http://www.w3.org/2000/svg" xmlns:svg="http://www.w3.org/2000/svg">
  <defs id="defs10" />
  <sodipodi:namedview id="namedview8" pagecolor="#ffffff" bordercolor="#666666" borderopacity="1.0" objecttolerance="10.0" gridtolerance="10.0" guidetolerance="10.0" inkscape:pageshadow="2" inkscape:pageopacity="0.0" inkscape:pagecheckerboard="0" />
  <g style="display:inline" id="g4">
    <path style="display:inline;fill:#365be7;fill-opacity:1;fill-rule:nonzero;stroke:#505050;stroke-width:.5;stroke-linecap:round;stroke-linejoin:round;stroke-miterlimit:4;stroke-dasharray:none;stroke-opacity:1" class="polygon" d="m406.867 218.267-1.19 1.535-1.8 1.279-.77-.397-.594.013-1.284.486-.93.128-1.681.87-1.528.435h-1.066l-.37-.128-.21-.601.025-.23.646.127 2.363-.793 2.953-1.303.282-.576-.475-.946.13-.218 1.913.486 2.136-.933 1.789-.256.836.652zM263.765 58.35l.915.775.53.656.359.733.632.495.835.268 1.018.71.687.553 1.156 1.148 1.22.428 4.436.83 2.463.385.713.115 1.888-.557 2.211.077.821.025 2.922-2.34.886-.781 1.744-.405.98-.93 1.573-1.127 1.92-1.06 1.76-.954 1.352-.575 2.444-1.346 1.527-.467 1.326.013 1.984 1.578 1.672 1.435.516.631-.83.564-1.55.545-.295.399-.103.512.064.49.209.399 1.901.927.216.509.013.517-.217.322-.424.188-1.323.26-1.132.302-.394.296-.341.352.051.39.343.444 2.32 1.214.263.446.462.6.565.369.968.102.462.248 2.242 2.24.549.158 2.62-.493.363.026.025.55.393 3.183.303 1.644.446 1.599.71 1.459.838 1.388 1.154.857 2.574 1.03 1.25.299 3.285.207 3.245.455 1.916.482.586.34.484.524 1.584 2.436 2.498 1.733 5.043 2.602 2.444.865 8.23 1.638 5.476-.09 15.145-3.159 5.034-.788h1.89l-1.126.628-1.892.36 1.142.443 1.759.077.817-.077.59-.4.102-.661-.09-.655-.834-2.932-.483-2.07 3.549.142 1.384-.27 2.032-.69 1.538-.418.776-.064.765-.325.586-.405 1.323-2.824.658-.707 2.245-1.593 1.907-1.01 1.998-.892 2.527-.622 3.362.064 2.673.219 1.547-.011.736.064.554-.09.319-.184.346-1.231.548-.402.943-.344 1.322-.002 1.61-.09 1.34.09 1.688.473 2.205.038 1.465-.076.852.47.613.63.298.526.064.72-.013.55.23.213.897.328 1.243.245 2.425.297 2.272.568 1.182.389 1.64.606 1.955 1.5.723.237.876.153.627-.039 1.467-.635 1.276.468.647-.064 1.466-.35 1.558.433 3.883 1.649.426-.039.353.168.323.377.227.466.29 1.42 1.121 1.034 1.372.946 1.598.516 3.344 1.24 1.46 1.006 1.478 1.707 1.822 2.25.263.203 4.69-.064 5.265.005.644.9-.128 1.785.188 1.829.472 1.269.005 1.169-.381.592-.296.677-.076.295.676.423.592.974.09 1.353-.296.72.039.593.295.507.254.847-.039.507-.422.507-.253.635-.34.803-.127.635-.634.295-.507.211.09.803.253.677.295.803-.339.55-.21.635-.466 1.015.128.846-.507.719-.634.634-.422.508-.09.719-.466.254-.887.592-.55.424-.805.128-.169.339.128.339.34.21.527.732 1.094 1.262-3.156.157-.928 1.12-1.08 1.596.528 3.233-.526 1.664.318.934.806.647 1.034.357 1.942.026 1.286.252.129.43-.738.628-1.182 1.181-.624.516-2.015 2.375.013 1.01.186.818.87 2.564.843 2.487 1.52 4.484-.025 1.049-.478 2.313-.025 1.406.215 1.825-.163.947.372 2.116.428.153 3.282.41 3.016.383 4.012.499 1.214 1.24.757 2.723-.038 2.037-.342 1.036-2.874 2.974-2.914 3.015-2.91 3.01-3.019 3.12-.317.333 2.44 2.498 1.51 1.544 2.126 2.176.27.524-.026.857 2.184 3.312.77 1.73.694 1.01 1.726 1.584 1.687 1.55 1.831.704 1.248.154 2.846.818 1.035.653 1.67 1.646 1.958-.23.407-.002.115.128.064.538-.292 2.558.545 2.577.38 3.882-.142.678-.468 1.126-.025.729-.128.447.13.192.622.269 1.328.14 3.215-.434.374.128.77.46.58.716.051.346-.807.601-.136 1.023.242 1.521-.115.18-.71.344-.231 2.2-.132.205-.829.218-3.918-.154h-.45l-1.472.576-2.522.422-.693.23-.93.665-.673.806-.13.742-.13.153-1.451-.153-.472.652-2.804.972-.35.218-.415.78-.374 2.168-.337 1.95-.214.282-.883.665-.09.23.129.755-.4 1.378-.315 3.818-.352 1.074-.701.128-.547.537-1 .665-2.164-.511-1.719-.537-5.688-1.254-.623-.614-.353-1.074-.985-.307-1.412 1.605-4.803-.934-1.632.282-1.007-.5h-2.588l-2.046-.997-2.927.69-2.317.129-3.175-1.756-3.415-.487-2.77.154-1.424-.14-2.31-.627-1.096-.653-1.798.499-.813-.92-5.09-.858-.942-1.628-.708-1.515-.052-1.555-1.242-2.72-.413-3.947-.459-1.542-.688-1.34-.919-1.14-1.248-1.214-1.085-.486-4.757-.934-.919.128-2.127.614-2.263 1.35-3.72.767-.751.575-.935 1.308-1.209.754-1.661-.192-1.785.78-3.31 2.158-1.747.666h-1.462l-1.572-1.024-3.517-1.375-2.274-.46-3.156.32-1.494-.23-2.54-1.615-.668-1.164-1.45-.78-4.593-1.758-3.722-2.321-.683-.883-.455-1.295-1.621-1.576-3.633-1.288-2.06-1.371-2.415-.307h-2.247l-.988-.243-.902-.589-3.065-2.83-.038-1.113-1.89-2.767-.442-.985-.406-2.737-.522-.716-1.973-1.126-.307-.742.42-.985v-.742l-1.027-.703-1.54-.371-.371-.844.28-1.634-.236-1.023-1.356-1.636-2.004-1.677-2.004-2.479-.783-.614-.512-1.623-.733-1.924-1.132-.14-5.477 2.307-1.598-1.298-4.805-2.258-.335-.332-.335-.525.602-.294.604-.128 1.203.397.728-.473-.291-.768-1.204-.473h-1.643l.45.716-1.538.678-.328.895.224 1.1.133 1.543-.627.755-.482.345-2.066.128-.964.678-.627.166-.87-.524-.561-.435-.46-.921-.14-.64.176-.37-.24-.538-.66-.703-.668-.384h-.674l-.559-.435-.446-.793-1.041-.524-.655-.128-.013-2.44-.013-2.14-.013-2.125-2.23-.128-2.006-.128v-5.093l.952-2.568.973-2.47-1.476-1.816-1.574-1.939-1.018-.806-1.198-2.42-.6-1.07-.531-.406-.57-.237-2.095.09-1.955-1.302-2.296-1.53-2.803-1.867-2.467-1.219-1.008-.268-2.372-.09-.252-.233-.161-.669.004-.745.771-1.125.064-.706-1.611-2.38-.498-.696-1.379-.28.275-.687v-.459l-.196-.36-.318-.175-.404-.012-1.082.281-.825-1.072-2.565-3.055-.822-.37-.153-.21.627-.937 1.055-1.387.182-.806-.203-.884-1.143-1.669.28-.706.49-.812.039-.61.769.09.98.008.308-.497-.026-1.74.232-.637 3.105-2.942 1.546-.662 1.177-.607.267-.884-.241-.454-.23-.665-.077-.479-1.298-1.319-.45-.665-.052-.606.306-1.073.542-.832 1.837-.488 1.042-.42.14-.372-1.356-.605-2.892-.19-2.11.174-.677-.189-1.003-1.173-1.067-.624-.995-.402-.973.077-.59-.161-.137-.503-1.404-3.854-.442-.527-.656-.13-.55-.026-.365-.266-.393-.532-.282-.696-.026-.914.064-.784-.188-.506-.484-.502-.685-.361-.601-.427-1.054-3.384-.422-.91-.004-.09.025-.177-.102-.776.492-.674-.038-.264-1.01-.854-1.42-.852-.386-.15-.011-.908.051-.688-.128-.62-.27-.354-.01-.278.57-.668-.366-.439-2.091-1.082-.787-.544-1.449-.102-.148-.357.225-.756.5-.915.785-.902.25-.476.304-.808.103-.575.88-.808.004-.211-.243-.29-.705-.163-.72-.064-.269-.148-.102-.433.09-1.76-.227-1.061-.296-.768.188-1.731-.502-.348-.788-.91-.337-.767.183-.287.168-.505.115-.663-.026-.47-.725-.458-.54-.482-.064-.534-.215-.65-.303-.515-.134-.338.265-.198 1.024-.157 1.49.102 1.214.009.69-.334.852-3.129.776-.825.9-.477 1.764 1.11.73.393.45.008.268.272z" transform="translate(-251.076 -53.711)" id="path2" />
  </g>
</svg>
