<?xml version="1.0" encoding="UTF-8" standalone="no"?>
<svg width="125.507" height="106.812" version="1.1" id="svg6" sodipodi:docname="iraq.svg" xmlns:inkscape="http://www.inkscape.org/namespaces/inkscape" xmlns:sodipodi="http://sodipodi.sourceforge.net/DTD/sodipodi-0.dtd" xmlns="http://www.w3.org/2000/svg" xmlns:svg="http://www.w3.org/2000/svg">
  <defs id="defs10" />
  <sodipodi:namedview id="namedview8" pagecolor="#ffffff" bordercolor="#666666" borderopacity="1.0" objecttolerance="10.0" gridtolerance="10.0" guidetolerance="10.0" inkscape:pageshadow="2" inkscape:pageopacity="0.0" inkscape:pagecheckerboard="0" />
  <g style="display:inline" id="g4">
    <path style="display:inline;fill:#7c36e7;fill-opacity:1;fill-rule:evenodd;stroke:#505050;stroke-width:.5;stroke-linecap:round;stroke-linejoin:round;stroke-miterlimit:4;stroke-dasharray:none;stroke-opacity:1" class="polygon" d="m260.759 87.527.004.09.422.91 1.054 3.383.6.427.686.361.484.503.19.505-.065.784.026.915.283.695.392.533.366.266.549.025.656.13.443.528 1.404 3.854.137.503.59.16.973-.077.995.401 1.066.625 1.003 1.172.677.19 2.11-.174 2.893.19 1.355.604-.14.372-1.042.42-1.836.489-.543.83-.305 1.074.05.606.451.665 1.298 1.32.077.478.23.665.243.455-.267.884-1.177.608-1.546.661-3.106 2.943-.231.636.013 1.74-.307.498-.982-.009-.768-.09-.039.61-.49.813-.28.706 1.143 1.669.203.884-.182.805-1.055 1.388-.627.936.152.21.823.371 2.564 3.055.825 1.072 1.083-.282.404.013.318.174.196.36v.46l-.275.687 1.379.28.497.696 1.612 2.38-.064.706-.771 1.124-.004.746.16.669.253.233 2.372.09 1.008.268 2.467 1.219 2.803 1.867 2.296 1.53 1.954 1.301 2.095-.09.57.238.531.406.6 1.07 1.199 2.42 1.018.806 1.574 1.939 1.476 1.816-.973 2.47-.952 2.567v5.094l2.006.127 2.23.128.013 2.126.025 2.139.013 2.44.655.128 1.043.525.446.793.56.434h.674l.668.384.66.704.24.537-.177.37.14.64.46.921.561.435.87.525-1.18.307-1.275-.23-2.723-1.075h-.881l-1.154.41-.051.37-2.876-1.202-1.038-.243h-.371l-1.649.01-2.347.217-1.383.487-.959.524-.434.512-.157.268-.747 1.497-.866 1.92-.896 1.732-1.747 2.431-.967 1.126-2.076 2.09-2.238.422-5.203-.41-5.766-.46-5.738-.46-4.27-.346-.328-.128-4.222-2.979-3.34-2.355-4.169-2.94-4.258-3.002-4.32-3.048-3.138-2.213-3.811-2.846-3.47-2.593-2.738-2.045-3.514-1.79-2.746-1.4-3.998-2.038-3.198-1.628-2.738-1.395-4.214-2.148-1.402-.588-4.368-.717-4.14-.614-4.292-.626-2.855-.422 1.885-1.528-.58-1.37-1.374.254-1.26.326-.766-2.135.975-.263-.9-2.783-.929-2.864-.893-2.766-.914-2.831 3.622-1.814 2.707-1.356 3.787-1.897 3.652-1.83 3.48-1.742 3.83-1.92 3.428-1.718 3.141-.697.666-.544 1.432-2.344 1.224-2.004.064-.464.005-2.84.215-3.336.408-1.782.704-1.575.65-1.149.063-1.077-.09-1.092-.67-1.65-.698-1.72.077-1.658.13-.888.437-1.418.744-1.037.8-.642 2.986-.663 1.77-.394 2.372-1.837 1.407-1.09 1.96-1.728 1.444-1.273.115-.44-.001-.174 1.24-.257 2.296-1.542 1.352-1.441.428-.128 1.209.473.863.13 1.994-.544 1.186.288.996.363.558.026 2.674.896.668.115 1.379.116 2.055.05 1.325-.584.935-.565.659.013.637.135.534.242.456.423.212.604-.09 1.93.202.51.361.365.462.064.559-.418.977-.61 1.202-.666.896-.61.51-.228.811.025.788.103z" transform="translate(-183.857 -84.418)" id="path2" />
  </g>
</svg>
