<?xml version="1.0" encoding="UTF-8" standalone="no"?>
<svg width="21.841" height="51.114" version="1.1" id="svg6" sodipodi:docname="israel.svg" xmlns:inkscape="http://www.inkscape.org/namespaces/inkscape" xmlns:sodipodi="http://sodipodi.sourceforge.net/DTD/sodipodi-0.dtd" xmlns="http://www.w3.org/2000/svg" xmlns:svg="http://www.w3.org/2000/svg">
  <defs id="defs10" />
  <sodipodi:namedview id="namedview8" pagecolor="#ffffff" bordercolor="#666666" borderopacity="1.0" objecttolerance="10.0" gridtolerance="10.0" guidetolerance="10.0" inkscape:pageshadow="2" inkscape:pageopacity="0.0" inkscape:pagecheckerboard="0" />
  <g style="display:inline" id="g4">
    <path style="display:inline;fill:#e73665;fill-opacity:1;fill-rule:evenodd;stroke:#505050;stroke-width:.5;stroke-linecap:round;stroke-linejoin:round;stroke-miterlimit:4;stroke-dasharray:none;stroke-opacity:1" class="polygon" d="m145.924 143.904-.675.076-1.577.599-.213.18-.278.348-.051.269-.225 2.87-.858-.077-1.046-.627-.203-.542-.315-.186-.745-.064-1.414-.275-1.64.947-.697 1.564-.141.73-.558 1.537.197.946.09 1.215.14.998-.147.601-.313.32.09.23.28.128.897-.268.946.268.907.512.076.332-.643.192-1.519.78-1.07.909-.28.844-.72 1.787.101.37.35.218 2.473-.192 2.245-.729 1.688-.767h.536l-.354 1.968.009.006-.293 1.203.115.204.379 1.05-.72 1.92-.805 1.56-.285.743-.783 1.647-.8 1.914-.428 1.317.102.473-.198 2.418.115.69-.939 2.096-.188 1.036-.377 1.405-.646 2.968-.884.998-.44-1.113-1.008-3.175-.716-2.173-.978-2.678-1.65-3.257-.151-.78-.356-1.139-1.138-2.962-.928-2.137-1.064-2.729 1.318-1.087.026-.895 2.243-2.084-.026-.205-.598-.55.09-.127 2.486-3.881 1.604-3.846 1.51-5.343 1.075-2.719.91-1.798.403-1.49 1.468-.102 1.095.16 1.309.05 1.048-.56.504-1.675.598-.269.302.395.31-.44 1.372-.736.678-.476.68-.587.364-.206-.225.784-.186.51v.67l.278.366.38.73.233.727-.494.603.051.629.132.528.403.62-.724 1.117-.709 1.023z" transform="translate(-125.953 -134.699)" id="path2" />
  </g>
</svg>
