<?xml version="1.0" encoding="UTF-8" standalone="no"?>
<svg width="56.039" height="54.008" version="1.1" id="svg6" sodipodi:docname="jordan.svg" xmlns:inkscape="http://www.inkscape.org/namespaces/inkscape" xmlns:sodipodi="http://sodipodi.sourceforge.net/DTD/sodipodi-0.dtd" xmlns="http://www.w3.org/2000/svg" xmlns:svg="http://www.w3.org/2000/svg">
  <defs id="defs10" />
  <sodipodi:namedview id="namedview8" pagecolor="#ffffff" bordercolor="#666666" borderopacity="1.0" objecttolerance="10.0" gridtolerance="10.0" guidetolerance="10.0" inkscape:pageshadow="2" inkscape:pageopacity="0.0" inkscape:pagecheckerboard="0" />
  <g style="display:inline" id="g4">
    <path style="display:inline;fill:#e736bd;fill-opacity:1;fill-rule:evenodd;stroke:#505050;stroke-width:.5;stroke-linecap:round;stroke-linejoin:round;stroke-miterlimit:4;stroke-dasharray:none;stroke-opacity:1" class="polygon" d="m188.877 151.71-1.897 1.498-.445.167-2.465.614-5.041 1.266-3.378.844-4.318 1.087-3.587.909-3.553.895-3.288.831 1.877 1.744 2.868 2.665 1.912 1.778 2.257 2.287 2.015 2.043 2.137 2.165-1.499.73-2.47 1.202-.254.217-.208.23-1.024 2.158-.804 1.7-.275.217-3.451.626-3.484.627-2.197.397-.658.434-1.434 2.119-1.48 2.187-2.472 1.787-2.742 1.98-.678.128-1.983-.307-3.39-.525-3.277-.499-2.243-.345-2.724-.422.402-1.674-.115-.909.646-2.967.378-1.406.188-1.036.938-2.095-.115-.69.199-2.418-.09-.473.427-1.32.801-1.911.783-1.648.285-.742.805-1.561.718-1.92-.378-1.05-.115-.204.293-1.202-.01-.006.355-1.969.19-1.061.434-1.409.763-1.19-.352-2.804.038-1.512.477-1.724-.263-2.017.225-2.87.051-.268.278-.348.213-.18 1.577-.599.675-.077 1.374.27.79.603 1.317 1.7 2.05.495.825.482 1.123.903 1.37.328 4.338.562 3.462-1.896 2.924-1.602 3.324-1.82 2.26-1.238 3.858-2.111 2.54-1.335 3.342-1.757 3.299-1.735.914 2.832.893 2.765.929 2.865.9 2.782-.974.264.764 2.135 1.262-.327 1.374-.253.579 1.37z" transform="translate(-134.974 -135.483)" id="path2" />
  </g>
</svg>
