<?xml version="1.0" encoding="UTF-8" standalone="no"?>
<svg width="24.944" height="20.51" version="1.1" id="svg6" sodipodi:docname="kuwait.svg" xmlns:inkscape="http://www.inkscape.org/namespaces/inkscape" xmlns:sodipodi="http://sodipodi.sourceforge.net/DTD/sodipodi-0.dtd" xmlns="http://www.w3.org/2000/svg" xmlns:svg="http://www.w3.org/2000/svg">
  <defs id="defs10" />
  <sodipodi:namedview id="namedview8" pagecolor="#ffffff" bordercolor="#666666" borderopacity="1.0" objecttolerance="10.0" gridtolerance="10.0" guidetolerance="10.0" inkscape:pageshadow="2" inkscape:pageopacity="0.0" inkscape:pagecheckerboard="0" />
  <g style="display:inline" id="g4">
    <path style="display:inline;fill:#36e7bd;fill-opacity:1;fill-rule:nonzero;stroke:#505050;stroke-width:.5;stroke-linecap:round;stroke-linejoin:round;stroke-miterlimit:4;stroke-dasharray:none;stroke-opacity:1" class="polygon" d="m305.658 183.69-.73.282-.494-.128-.475-.69-.781-1.71.426-.64-.013-.268.09-.204.24-.128.252-.806.335-.243.55.55 1.541 1.966-.01.806-.09.32zm-1.781.128.09.589-.692-.128-.525-.23-1.007-.243-1.946 1.653-1.18.909-.038.307 1.57.345 1.15-.012.804-.243.681.384.447 1.023.18.832 1.067 2.96.884.997 1.104 1.765.409.909.235.767.676 1.138h-9.865l-1.128-1.215-.382-1.325-.408-1.36-1.127-1.94-3.766-.473-2.003-.243-3.292-.371-2.473-.282 2.076-2.09.967-1.125 1.746-2.432.896-1.73.866-1.922.747-1.495.158-.268.433-.512.96-.512 1.382-.486 2.347-.217 1.65-.012h.37l1.039.243 2.875 1.203-.064.473.41 1.408.917 1.538z" transform="translate(-283.092 -177.28)" id="path2" />
  </g>
</svg>
