<?xml version="1.0" encoding="UTF-8" standalone="no"?>
<svg width="19.385" height="21.008" version="1.1" id="svg6" sodipodi:docname="lebanon.svg" xmlns:inkscape="http://www.inkscape.org/namespaces/inkscape" xmlns:sodipodi="http://sodipodi.sourceforge.net/DTD/sodipodi-0.dtd" xmlns="http://www.w3.org/2000/svg" xmlns:svg="http://www.w3.org/2000/svg">
  <defs id="defs10" />
  <sodipodi:namedview id="namedview8" pagecolor="#ffffff" bordercolor="#666666" borderopacity="1.0" objecttolerance="10.0" gridtolerance="10.0" guidetolerance="10.0" inkscape:pageshadow="2" inkscape:pageopacity="0.0" inkscape:pagecheckerboard="0" />
  <g style="display:inline" id="g4">
    <path style="display:inline;fill:#d9e736;fill-opacity:1;fill-rule:evenodd;stroke:#505050;stroke-width:.5;stroke-linecap:round;stroke-linejoin:round;stroke-miterlimit:4;stroke-dasharray:none;stroke-opacity:1" class="polygon" d="m146.97 134.99-.362.206-.68.588-.679.475-1.371.737-.311.44-.302-.395-.599.268-.504 1.676-1.047.56-1.31-.05-1.093-.16-1.468.102.595-.976.62-1.267.612-1.709 1.08-1.418 2.24-4.813 1.29-1.95.461-2.763 2.001-2.42 1.498-.715.723-.692-.026-1.046 2.236.008 1.439-.051.418-.587 1.12.266.629.568-.567.596-.798.685.051.176.596.05 1.012.372.624.432 1.031 2.7-.637 1.112-.992.991-.444.09-.87.492-.73.675-.255.427.051.398 1.031.5.026.202-.211.157-.833-.115-1.074-.051h-.635l-.737.103-.937.61-.418.4-.227.259-.334.828.375.57.704.32.102.166-.156.289-.7.357-.524.438-.151.447z" transform="translate(-136.994 -118.788)" id="path2" />
  </g>
</svg>
