<?xml version="1.0" encoding="UTF-8" standalone="no"?>
<svg width="101.028" height="124.811" version="1.1" id="svg6" sodipodi:docname="oman.svg" xmlns:inkscape="http://www.inkscape.org/namespaces/inkscape" xmlns:sodipodi="http://sodipodi.sourceforge.net/DTD/sodipodi-0.dtd" xmlns="http://www.w3.org/2000/svg" xmlns:svg="http://www.w3.org/2000/svg">
  <defs id="defs10" />
  <sodipodi:namedview id="namedview8" pagecolor="#ffffff" bordercolor="#666666" borderopacity="1.0" objecttolerance="10.0" gridtolerance="10.0" guidetolerance="10.0" inkscape:pageshadow="2" inkscape:pageopacity="0.0" inkscape:pagecheckerboard="0" />
  <g style="display:inline" id="g4">
    <path style="display:inline;fill:#4bec82;fill-opacity:1;fill-rule:nonzero;stroke:#505050;stroke-width:.5;stroke-linecap:round;stroke-linejoin:round;stroke-miterlimit:4;stroke-dasharray:none;stroke-opacity:1" class="polygon" d="m439.28 303.996-.806.192-.232-.128.004-1.62 1.877-2.036 1.233-2.354.85 2.103-1.48 1.177-.804 2.009zm-29.855-60.89 1.303 3.362 1.929 3.147 1.707 1.737 1.77 2.358 2.693 2.167 1.239.742 5.007 1.523 2.734.563 3.778.55 2.61 1.19.878.128 1.366-.346h.998l2.495 1.616.733 1.53 1.038.807.92 1.279.595 1.333 2.108 2.03 1.487 2.283 1.515 1.694 1.352 1.05 2.053.409 1.632.473.183 1.125-.167 1.477-.312 1.087-1.524 2.124-.362 1.31-1.727 2.163-1.868 3.626-.857.806-3.016 1.871-2.213 2.254-2.626 3.91-1.998 3.879-.768 1.24-1.605.256-1.058-.128-.729-.37.29-1.062.172-1.177-.967.128-.85.243-1.993 2.9-1.092 1.28-.233 1.617-.53 2.086-.78 1.92-.346 1.613.012.92.585 2.235.038 2.288.338 1.374.272 1.648-.935.511-.802.243-3.17.18-3.215.524-2.806.96-1.679.946-2.186 2.126-1.334 5.39-2.14 2.276-1.447.474-3.488.204-4.909.627-1.723.55-2.862 3.295-.22 1.036.554.742.181.831-.26.78-1.298 2.09-1.402 1.518-3.738.946-1.372-.563-1.255-.281h-2.424l-3.95.358-1.455 1.126-2.29.793-2.117 1.228-3.992.473-2.713.96-.777-1.688-.776-1.686-.775-1.686-.777-1.685-.542-1.177-.913-.422-.554-1.254-.565-1.279-.567-1.279-.565-1.28-.566-1.278-.566-1.28-.566-1.278-.565-1.28-.567-1.278-.565-1.28-.566-1.279-.565-1.279-.567-1.279-.565-1.279-.565-1.28-.567-1.278-.565-1.28 1.802-.6 2.201-.73 2.201-.729 2.2-.729 2.2-.729 2.2-.729 2.201-.729 2.201-.729 2.2-.73 2.2-.728 2.2-.73 2.201-.728 2.201-.73 2.2-.728 2.201-.73 2.2-.729 2.2-.729 1.36-.447.564-1.705.47-1.416.466-1.416.47-1.416.468-1.416.467-1.416.468-1.416.47-1.416.466-1.416.468-1.416.468-1.416.468-1.416.469-1.416.468-1.416.468-1.416.468-1.416.468-1.416.43-1.297-.81-1.253-1.087-1.678-1.138-1.754-1.07-1.651-.779-1.203-.938-1.447.102-1.867-.026-.933.103-1.43.899-1.986 1.061-2.526.776-1.68.67-1.46.54-1.177.295-1.202-.157-.857-.352-.307-.298-.397 1.016-.64 1.902-.421 1.055.128 1.472-.307 1.164-.282.09-.383-.332-.64-.482-.92-1.65-.129-.497-.256.573-1.37-.025-.434-.22-.512-.238-.857.115-1.113.337-.755.004-.6-.16-1.254.05-1.113.347-.55.613-.512.577-.255h.605l.48.217.205.588-.133.397h-.341l-.115.166.487.78.71.768.546-.128.614-.601.642-.486.808-.422.585-.832.504-.537zm-1.357-3.279-.533.345h-.38l.077-.677.228-.474h.551l.133.282zm1.892-13.962-.154 1.522-.012 1.266-.548 3.89-.566.678-.283.55-.115.754-.247.294h-.371l-.843-.243-.499-.588.09-.716.025-1.309.237-1.24-.064-1.309-.652-.269h-.46l1.074-1.847.42-.281.397.128.986-.192.523-.998.412-.55h.44z" transform="translate(-352.77 -225.155)" id="path2" />
  </g>
</svg>
