<?xml version="1.0" encoding="UTF-8" standalone="no"?>
<svg width="18.076" height="17.47" version="1.1" id="svg6" sodipodi:docname="palestine.svg" xmlns:inkscape="http://www.inkscape.org/namespaces/inkscape" xmlns:sodipodi="http://sodipodi.sourceforge.net/DTD/sodipodi-0.dtd" xmlns="http://www.w3.org/2000/svg" xmlns:svg="http://www.w3.org/2000/svg">
  <defs id="defs10" />
  <sodipodi:namedview id="namedview8" pagecolor="#ffffff" bordercolor="#666666" borderopacity="1.0" objecttolerance="10.0" gridtolerance="10.0" guidetolerance="10.0" inkscape:pageshadow="2" inkscape:pageopacity="0.0" inkscape:pagecheckerboard="0" />
  <g style="display:inline" id="g4">
    <path class="polygon" d="m127.518 162.348-1.317 1.087-.42-1.075-.184-.383 2.42-2.062 1.15-1.292.6.55.012.204-2.243 2.084zm15.133-8.852.352 2.807-.762 1.19-.435 1.406-.19 1.062h-.535l-1.69.767-2.244.73-2.473.191-.35-.217-.101-.371.72-1.787.28-.844 1.07-.908 1.52-.78.643-.205-.077-.333-.907-.512-.945-.268-.898.268-.28-.127-.09-.23.314-.32.145-.602-.139-.997-.09-1.228-.196-.947.557-1.536.141-.73.697-1.564 1.64-.946 1.414.275.746.063.315.186.203.542 1.045.627.858.077.264 2.016-.477 1.724z" style="display:inline;fill:#e7af36;fill-opacity:1;fill-rule:nonzero;stroke:#505050;stroke-width:.5;stroke-linecap:round;stroke-linejoin:round;stroke-miterlimit:4;stroke-dasharray:none;stroke-opacity:1" transform="translate(-125.347 -146.215)" id="path2" />
  </g>
</svg>
