<?xml version="1.0" encoding="UTF-8" standalone="no"?>
<svg width="11.42" height="20.829" version="1.1" id="svg6" sodipodi:docname="qatar.svg" xmlns:inkscape="http://www.inkscape.org/namespaces/inkscape" xmlns:sodipodi="http://sodipodi.sourceforge.net/DTD/sodipodi-0.dtd" xmlns="http://www.w3.org/2000/svg" xmlns:svg="http://www.w3.org/2000/svg">
  <defs id="defs10" />
  <sodipodi:namedview id="namedview8" pagecolor="#ffffff" bordercolor="#666666" borderopacity="1.0" objecttolerance="10.0" gridtolerance="10.0" guidetolerance="10.0" inkscape:pageshadow="2" inkscape:pageopacity="0.0" inkscape:pagecheckerboard="0" />
  <g style="display:inline" id="g4">
    <path style="display:inline;fill:#36dee7;fill-opacity:1;fill-rule:evenodd;stroke:#505050;stroke-width:.5;stroke-linecap:round;stroke-linejoin:round;stroke-miterlimit:4;stroke-dasharray:none;stroke-opacity:1" class="polygon" d="m343.936 247.864-1.15.255-1.084.282-.903-.008-.725-.128-.482-.269-.93-1.087-.656-1.402.403-.78.138-.486-.888-3.695-.291-2.837.102-.576.508-.665.844-1.479.45-1.425 1.27-3.292 1.343-1.266 1.972-.934 1.622 1.819 1.97 1.39.373 1.553-.58 1.266-.531 2.014.318.92.115.806.536 1.347.518 1.746.09 1.215-.282 1.126-.684.946-1.35 2.848-.402.294z" transform="translate(-337.118 -227.822)" id="path2" />
  </g>
</svg>
