<?xml version="1.0" encoding="UTF-8" standalone="no"?>
<svg width="269.451" height="201.895" version="1.1" id="svg6" sodipodi:docname="saudi_arabia.svg" xmlns:inkscape="http://www.inkscape.org/namespaces/inkscape" xmlns:sodipodi="http://sodipodi.sourceforge.net/DTD/sodipodi-0.dtd" xmlns="http://www.w3.org/2000/svg" xmlns:svg="http://www.w3.org/2000/svg">
  <defs id="defs10" />
  <sodipodi:namedview id="namedview8" pagecolor="#ffffff" bordercolor="#666666" borderopacity="1.0" objecttolerance="10.0" gridtolerance="10.0" guidetolerance="10.0" inkscape:pageshadow="2" inkscape:pageopacity="0.0" inkscape:pagecheckerboard="0" />
  <g style="display:inline" id="g4">
    <path style="display:inline;fill:#aae736;fill-opacity:1;fill-rule:nonzero;stroke:#505050;stroke-width:.5;stroke-linecap:round;stroke-linejoin:round;stroke-miterlimit:4;stroke-dasharray:none;stroke-opacity:1" class="polygon" d="m225.233 348.804.988.128-.406-.41-.09-.204.43-.588 1.413 1.215-.039 1.436-.115.333-.385-.307-.247-.307-.077-.32-.391-.358-1.376.23-.856-.396-1.224-1.215-.326-.87.511-.166.539-.423.343-.69-.314-.717.727.128.392.73.077 1.665.115.358-.202.384zM160.178 237.94h-.34l-.896-.87-.527-.639-.535-.422-2.453-.87-.332-.55.374-.563.263.55.443.32 2.031.78 2.263 1.704.389.14zm-3.916-4.217-.115.18-.54-.448.025-.985.463-.563-.038.767.2.78zM260.136 189.2l4.27.346 5.738.46 5.766.46 5.203.41 2.238-.422 2.474.281 3.292.371 2.002.243 3.767.474 1.126 1.941.408 1.36.383 1.324 1.128 1.215h9.864l.718 1.202.313 1.203 1.322 2.846 1.885 2.219.45.806.304 1.215-.327.447-.13.525 1.398 1.215 2.309 1.023.903.256 1.023.448-.798.703 1.362 1.626 1.582 1.658 1.694.37 2.287 2.506 3.449 1.624 2.093 2.127h-.193l-.614-.218-.77-.294-.234.269.039.895.204 1.049 1.067.908.95.652.369 1.228-.747 2.66-.259-.002-.502-.23h-.539l-.285.154.632 1.913.63 1.467.759 1.164.63 1.702.542.729 2.224 1.807.682 1.51.632 2.815 1.394 1.572.75 1.202 1.009 1.023.656 1.402.93 1.075.482.268.725.128.903.008 1.084-.281 1.15-.269.901.55.931-.128.09.512-.62.69-.768 1.746 1.092.282 1.043.14.742.282.43.003v.358l.05 1.656.262.627.47.563.704.831.703.845.704.844.705.831.703.844.705.845.703.831.704.844.705.832.703.844.705.844.703.831.704.845.705.844.703.831.704.844.582.691 1.075.128h.343l.969.128 1.505.18 1.952.242 2.308.282 2.58.32 2.757.332 2.846.345 2.846.346 2.757.332 2.578.32 2.31.281 1.952.243 1.504.18.97.127h.342l1.014.128h.193l.85-1.023.939 1.448.777 1.202 1.07 1.652 1.14 1.754 1.087 1.677.81 1.254-.43 1.298-.469 1.416-.468 1.416-.468 1.416-.468 1.416-.468 1.416-.468 1.416-.469 1.416-.468 1.416-.467 1.416-.469 1.416-.468 1.416-.467 1.416-.468 1.415-.47 1.416-.466 1.416-.47 1.416-.564 1.705-1.359.448-2.201.73-2.2.728-2.2.73-2.2.728-2.201.73-2.201.729-2.2.729-2.2.729-2.2.729-2.201.729-2.201.729-2.2.73-2.201.728-2.2.73-2.2.728-2.201.73-1.803.6-3.001.41-2.917.396-3.282.435-3.944.537-3.093.423-4.514.614-4.046.55-3.798.511-3.798.512-3.233.435-1.923.499-2.266 1.112-3.478 1.699-3.545 1.73-1.837.896-1.925 2.302-.975 1.164-1.761 2.107-1.332 1.59-1.587 1.9-.694 1.69-1.069 2.613-.923.666-1.514.844-1.378.6-2.147-.127-1.224-1.607-1.298-1.702-.651-.678h-.583l-2.156.218-2.599.255-3.064-.281-3.535-.32-3.314-.307-1.647-.23-2.174-1.1-.561-.218h-5.704l-2.562.346-2.454-.128-2.542.205-.895.422h-.994l-.62.37-.546.18-.648-.32h-.794l-1.168-.269-.762-.716-.719-.64-.742-.345-.831-.217h-.719l-.92.383-.561.371-1.423 1.241-.064.448.647.742-.198.345-.836.435-.256 1.177-.128.652-.128 1.54.372 1.215.498.448.025.524-.272 1.05-.77.319-.563.985-.347.46-.605.525-2.392 1.757-.128-1.023-.757-1.513-.051-1.062-.352-1.074-.657-.819-1.209-.857-.115-1.164-.884-1.151-1.173-.934-.65-1.716-.493-2.281-3.092-2.998-3.866-2.768-1.177-1.56-1.923-3.178-.971-2.51-2.587-2.891-.115-1.113-.384-1.355-.597-1.508-.36-1.19-2.593-5.218-.836-.832-.72-1.164-.187-.895-.23-.499-1.832-.857-1.71-2.187-5.136-3.485-2.514-.346-1.993-1.24-1.466-1.63-1.567-2.805-2.751-3.032-2.335-4.301.73-1.566-.05-1.1-.717-1.854-.783-1.433-.536-1.353.426-1.94.164-2.174.46-1.151.332-1.266-.434-2.55-.776-1.367.076-.908-.878-.448-.715-.985.744.003-1.35-1.372-.495-.768-.51-1.863-.652-1.423-2.094-3.228-1-1.969-2.242-2.547-2.433-1.88-1.545-.858-.743-.78h-1.263l-1.376-1.113h-.962l-1.216-.179-1.434-2.141-1.183-2.004-2.017-2.612.506-.678.587-1.113-.293-1.45-.321-.985-.89-1.798-2.917-4.476-.774-.653-1.247-.754-.77-1.94-.35-1.738-2-.844-3.443-6.266-1.993-2.189-.79-1.473-2.307-2.423-1.134-2.41-2.324-2.22-2.014-3.855-3.113-3.85-1.307-.665-3.208-.282-1.349-.281-1.242.844-.115-1.075.859-1.48 1.235-3.111.246-2.727 1.94-8.097 2.724.422 2.243.345 3.277.5 3.39.524 1.983.307.678-.128 2.742-1.98 2.472-1.788 1.48-2.188 1.434-2.117.658-.435 2.197-.396 3.484-.627 3.451-.627.275-.217.805-1.7 1.023-2.158.208-.23.254-.217 2.47-1.203 1.5-.729-2.138-2.165-2.015-2.042-2.257-2.287-1.912-1.779-2.868-2.664-1.876-1.745 3.287-.831 3.553-.896 3.587-.908 4.318-1.087 3.378-.844 5.041-1.267 2.465-.614.445-.153 1.897-1.497 2.856.422 4.29.627 4.141.614 4.369.716 1.401.589 4.214 2.147 2.738 1.396 3.198 1.628 3.999 2.038 2.745 1.4 3.514 1.79 2.74 2.045 3.468 2.593 3.811 2.846 3.139 2.213 4.32 3.048 4.258 3.002 4.168 2.94 3.34 2.355 4.222 2.98z" transform="translate(-130.672 -151.637)" id="path2" />
  </g>
</svg>
