<?xml version="1.0" encoding="UTF-8" standalone="no"?>
<svg width="84.857" height="64.212" version="1.1" id="svg6" sodipodi:docname="syria.svg" xmlns:inkscape="http://www.inkscape.org/namespaces/inkscape" xmlns:sodipodi="http://sodipodi.sourceforge.net/DTD/sodipodi-0.dtd" xmlns="http://www.w3.org/2000/svg" xmlns:svg="http://www.w3.org/2000/svg">
  <defs id="defs10" />
  <sodipodi:namedview id="namedview8" pagecolor="#ffffff" bordercolor="#666666" borderopacity="1.0" objecttolerance="10.0" gridtolerance="10.0" guidetolerance="10.0" inkscape:pageshadow="2" inkscape:pageopacity="0.0" inkscape:pagecheckerboard="0" />
  <g style="display:inline" id="g4">
    <path style="display:inline;fill:#c236e7;fill-opacity:1;fill-rule:evenodd;stroke:#505050;stroke-width:.5;stroke-linecap:round;stroke-linejoin:round;stroke-miterlimit:4;stroke-dasharray:none;stroke-opacity:1" class="polygon" d="M229.982 87.96v.174l-.114.44-1.443 1.273-1.961 1.728-1.407 1.09-2.372 1.837-1.77.394-2.985.663-.8.642-.745 1.037-.438 1.419-.129.887-.077 1.659.699 1.719.67 1.65.09 1.091-.065 1.077-.65 1.149-.703 1.575-.408 1.782-.215 3.335-.005 2.84-.064.465-1.224 2.004-1.433 2.344-.665.544-3.141.697-3.428 1.718-3.83 1.92-3.48 1.743-3.652 1.829-3.787 1.897-2.707 1.356-3.622 1.814-3.3 1.734-3.342 1.758-2.54 1.335-3.858 2.11-2.26 1.239-3.323 1.82-2.925 1.602-3.46 1.896-4.34-.563-1.37-.327-1.122-.903-.825-.481-2.05-.495-1.318-1.7-.79-.603-1.373-.27.181-.606.709-1.023.724-1.117-.403-.62-.132-.529-.05-.629.493-.602-.233-.727-.38-.73-.279-.367.001-.67.186-.51.225-.784.583-.43.151-.446.525-.439.7-.357.155-.289-.102-.165-.704-.32-.374-.57.333-.829.227-.258.418-.4.938-.61.736-.103h.635l1.074.05.833.103.211-.157-.026-.202-1.03-.5-.052-.398.256-.428.73-.674.869-.492.444-.09.992-.99.637-1.112-1.03-2.701-.625-.432-1.011-.371-.597-.052-.05-.175.797-.685.567-.596-.628-.568-1.12-.266-.419.585-1.439.052-2.236-.007-.984-2.851-.146-1.235.025-1.428.68-2.092-.32-.968-.026-.652-.174-.898-1.765-1.93.962-3.551.678-.861.958.077 2.044 1.005.336-.026.618-1.326.6-.45 1.262-.394.356-2.145.59-.412.71-.22 1.093-.038.95-.13.064-.377-1.329-2.48.115-.626.642-2.494.403-.976.387-.319 1.509.128 2.113.44.558.715 1.035.637 1.55-.038 1.786.115 1.398.038 1.115-.447 2.517-.837 1.25-.28 1.134-.37 3.646-1.369 1.46.103 1 .18.764.218 1.718.936 1.418.946.993.282 1.79-.026 2.582.18 3.176-.012 1.852-.265 2.367-.466 4.22-1.117 5.55-2.339 3.266-1.136 1.406-.133 1.833-.012 1.832.298 2.079.21.958-.012 2.25-.236 2.917-.473 1.833-.387 2.213-.636 1.382-1.057.446-.115.573.192.269.077.566.601z" transform="translate(-145.375 -85.284)" id="path2" />
  </g>
</svg>
