<?xml version="1.0" encoding="UTF-8" standalone="no"?>
<svg width="245.422" height="80.576" version="1.1" id="svg6" sodipodi:docname="turkey.svg" xmlns:inkscape="http://www.inkscape.org/namespaces/inkscape" xmlns:sodipodi="http://sodipodi.sourceforge.net/DTD/sodipodi-0.dtd" xmlns="http://www.w3.org/2000/svg" xmlns:svg="http://www.w3.org/2000/svg">
  <defs id="defs10" />
  <sodipodi:namedview id="namedview8" pagecolor="#ffffff" bordercolor="#666666" borderopacity="1.0" objecttolerance="10.0" gridtolerance="10.0" guidetolerance="10.0" inkscape:pageshadow="2" inkscape:pageopacity="0.0" inkscape:pagecheckerboard="0" />
  <g style="display:inline" id="g4">
    <path style="display:inline;fill:#e77936;fill-opacity:1;fill-rule:nonzero;stroke:#505050;stroke-width:.5;stroke-linecap:round;stroke-linejoin:round;stroke-miterlimit:4;stroke-dasharray:none;stroke-opacity:1" class="polygon" d="m20.352 49.233-2.939.395-.912-.389.92-.772 1.713-.479.558-.051.751.77zm116.96-23.288.103.843 1.114 1.237 1.133.843 3.33 1.208 4.627-1.019.746.115.941.285 1.63 3.275 1.27 1.156 1.623.787 1.334.155.99-.821.768-.332 1.671-.14 2.74 1.128.95 1.164 4.665.899 4.28.45 1.848.985 6.025.99 2.25-.153 3.775-1.038 7.345-1.136 4.88 1.585 1.32.206 1.14-.137 1.64.437 1.75-.234 5.402-1.87 1.688-1.058 1.79-.274 1.588-.634 4.23-2.078 1.225-1.2.85.258 1.602.33.992.397.564.102 1.308-.81 1.944.026 1.706.09.88.15 1.08.268 1.305.182.53-.387.762-1.14.294-.146.21-.103.967-.09.917.09.432.195.433.912 1.088.326 1.924 1.458 1.175.585.285.245-.387.296.15.363.674.477.944.18 1.019-.065.555.174.397.27.102.377-.026.24.203.543.795.766.95.469.51.5.828 1.726.336.954-.128.918-.576.943-1.26 1.173.312.49.283.648-.09.47.892 1.5.405.931-.34.215-.219.298 1.606.718 1.922.602.81.115 2.21-.276 1.422-.064 1.412.57 2.057 1.384 2.217 1.805.441.55.193.242.433.437-.45-.008-.73-.392-1.763-1.11-.9.476-.777.825-.852 3.13-.69.333-1.215-.009-1.489-.102-1.024.157-.265.199.134.337.304.514.214.652.064.533.54.482.725.458.026.47-.115.663-.168.506-.183.286.337.768.788.909.502.348-.188 1.732.296.767.226 1.06-.09 1.762.103.432.27.148.719.064.705.164.243.29-.004.21-.88.809-.103.574-.304.808-.25.476-.785.902-.5.916-.225.756.148.357 1.45.102.786.544 2.09 1.082.368.438-.57.668.01.279.27.354.127.62-.051.687.011.909.385.15 1.42.851 1.011.855.038.263-.492.674.102.777-.025.177-.438-.293-.788-.102-.81-.026-.511.228-.895.61-1.203.667-.977.61-.559.418-.462-.064-.36-.366-.202-.51.089-1.93-.212-.603-.456-.423-.534-.242-.637-.136-.659-.012-.935.565-1.325.584-2.055-.05-1.38-.116-.667-.115-2.674-.897-.56-.025-.996-.364-1.185-.287-1.994.545-.863-.13-1.209-.474-.428.128-1.352 1.44-2.297 1.543-1.24.257-.59-1.548-.566-.601-.268-.077-.573-.192-.447.116-1.381 1.056-2.214.636-1.832.387-2.917.474-2.25.235-.959.026-2.078-.213-1.833-.298-1.832.013-1.407.133-3.265 1.136-5.551 2.338-4.22 1.118-2.367.466-1.852.263-3.175.013-2.583-.18-1.79.025-.993-.281-1.418-.947-1.717-.936-.765-.217-1-.18-1.46-.103-3.645 1.368-1.135.372-1.25.28-2.517.837-1.115.447-1.398-.038-1.786-.115-1.55.038-1.035-.637-.556-.716-2.114-.439-1.509-.128-.386.317-.403.976-.642 2.495-.115.625 1.329 2.48-.064.378-.95.129-1.093.038-.71.22-.59.412-.356 2.146-1.263.394-.6.45-.617 1.326-.337.025-2.043-1.005-.958-.09.822-1.043-.893-2.059-.974-1.929.92-1.234 1.904-1.488 2.005-1.743-.004-1.076-.102-.821-.575-.568-1.102-.755-1.847.806-1.317.889-.861.18-.935.508-.455.915-1.129.713-1.845.28-2.775-.764-2.98-1.162-1.688-.941-1.377-.224-1.307.413-3.86 2.306-3.533 3.37-.876.583-3.327 1.448-2.2.486-1.036-.115-4.378.637-2.175.09-1.723.764-3.338-.828-1.996-1.06-1.202-1.078-1.96-2.318-1.388-1.103-3.122-.991-5.441-2.408-1.431-.264-3.714-.345-3.917-.218-.793.877-.3 3.47-.671.956-.288 1.8-.48.518-.752.34-1.175-.568-.816-.25-1.899.741-3.76 1.04-1.281.146-4.359-1.307-1.595-.839-1.028-.93-.348-1.572-.647-.895-.09-.615-.253-.708-.877-.28-.943.534-1.01-.026-1.27-.327-2.993-1.317-2.301-.102-1.383 1.607-1.076.51-1.178.152-.064-.456.893-1.039-3.584.192-1.892.792-1.477-.128-1.106-.357.166-.437 1.123-.16.975-.356 3.883-.289.907-.29.993-1.13 1.809-.973.23-.418-1.39-.006-5.952.282-4.086-.156-.485.482-.614.064-.17-1.312.646-.61.87.051 2.134-.53-.19-1.09-1.53-.737-.31-.435-1.109-.102-.9-.518-.195-1.308-.716-1.435-1.023-.695.127-.381 1.875-.482.39-2.007-.287-1.232-.943-.102-2.748-.972-.834.102-.91-1.068-1.595-.768-.789.282-.495.347-.738-.167-1.238-.666-1.215-.36-.54-.443.677-1.189.931.026.17-.931-.734-1.552.077-.797.812-.217.925.15.933.927.305.897-.196.873.592.847.421.214.284-.89.397-.17.544.39 1.17.194 3.035-.548.583-.463-2.223.052-.814-.434-.882-.97-.544-.88-.102-.432-.307-.632.339-.339 1.522-.508 1.337-1.42-.558-.412-.637-.195-.692.145-.656-.486-.09-.677.525-.547.051-.754-1.717-1.855-.48-.404.37-.606 1.311-1.016 1.25-1.257-.15-.413-.923-.17-4.387.54-1.705.469-3.04.213-.22-.683.065-.615.682-1.122-.064-2.765.402-1.5 1.69-.446 2.071-2.204 3.36-2.596 3.506.051 1.401-.716 2.084-.038.378.52.237.5 1.829.715 3.229-.115.784-.282.757-.396-1.493-1.276.477-.36 1.353-.038 1.466.3.064.293-.39.4-.454.703.431.136 4.176-.424 4.365.34 1.389-.184 3.43.013.615-.44-1.038-.552-1.015-.192-.683-.269-.682-.391 2.176-1.235 1.23-.238 5.8-.758 4.315-.38.05-.281-.62-.001-5.576-.628-1.342-.486-1.867-1.158-.404-.327-.47-.564.28-1.204.345-.967.688-.56 2.227-.09 7.637.984 5.444-.59 5.95 1.434 5.69-.29 1.173-.644 1.424-2.074 8.038-3.443 2.815-1.795 3.015-.983 5.174-1.092 4.324-1.443 1.236-.167 10.381.69 7.131.09 3.274-1.362 1.899.457-.178.486zm-99.144-.871 1.432 1 .769.334.575-.155 1.039-.363.994-.002.803.064.387-.317.605-.064 1.73.225-.348 1.46.806 1.608 1.888 2.234 1.9 1.127 7.68 2.788 1.412.238-.321 1.142-.462 1.015-.508.676-2.25.435-6.209-1.244-1.57-.115-1.108.248-2.05.904-2.275-.29-3.172.513-.885 1.703-2.202 1.952-3.625 1.578-2.59.844-3.89 3.026-1.765 1.766-.745.343-.882.271.296-.848.438-.776-.102-.585.012-.85 1.298-.966 1.18-.701 3.49-1.269.918-1.054-2.737.026-2.778.234-1.749-.15-1.519.09-.482-.923-.368-.555.394-.172.504-.116.891-.983.797-.725 1.149-.912.295-.545v-.508l-.275-.352-.05-.418-.04-.591.065-1.222 2.632-1.334.842-.14.29-.61-.194-1.412-.363-1.14-.47-.076-.634-.333-.415-.385-.666-.422-1.147-.258-.038-.36.115-.36.423-.368 1.932-.317.23-.26.26-.639.384-.655.455-.216.818.026 1.55-.151 1.08-.214 1.074-.448.55-.406 2.323-.237.653-.207.647.175z" transform="translate(-16.251 -23.975)" id="path2" />
  </g>
</svg>
