<?xml version="1.0" encoding="UTF-8" standalone="no"?>
<svg width="62.149" height="44.453" version="1.1" id="svg6" sodipodi:docname="united_arab_emirates.svg" xmlns:inkscape="http://www.inkscape.org/namespaces/inkscape" xmlns:sodipodi="http://sodipodi.sourceforge.net/DTD/sodipodi-0.dtd" xmlns="http://www.w3.org/2000/svg" xmlns:svg="http://www.w3.org/2000/svg">
  <defs id="defs10" />
  <sodipodi:namedview id="namedview8" pagecolor="#ffffff" bordercolor="#666666" borderopacity="1.0" objecttolerance="10.0" gridtolerance="10.0" guidetolerance="10.0" inkscape:pageshadow="2" inkscape:pageopacity="0.0" inkscape:pagecheckerboard="0" />
  <g style="display:inline" id="g4">
    <path style="display:inline;fill:#3698e7;fill-opacity:1;fill-rule:nonzero;stroke:#505050;stroke-width:.5;stroke-linecap:round;stroke-linejoin:round;stroke-miterlimit:4;stroke-dasharray:none;stroke-opacity:1" class="polygon" d="m377.958 253.365.004.435-1.302-.128-.35.23-1.065-.128-1.04-.307.705-.524 1.844-.614.767.563zm-16.768-1.425-.216.128-.228-.69.013-.218.585-.307.361.563zm9.15.384-.946.128-.862-.486 1.811-.653.491-.294.531-.601.421.512-.464.805-.338.346zm14.494-2.356-.115.243h-.36l-.905-.23-.294-.359.564-.435h.248l.36.448zm21.977-15.377.843.243h.37l.248-.295.839 1.036.115 7.05.193.498-.449.128-.504.537-.585.832-.808.422-.642.486-.613.601-.546.128-.71-.755-.487-.78.115-.166h.342l.131-.397-.206-.575-.48-.218h-.604l-.577.256-.613.512-.348.55-.051 1.113.161 1.253-.004.601-.338.755-.115 1.113.24.857.22.511.025.435-.573 1.37.498.256 1.649.128.482.92.331.64-.09.384-1.163.282-1.472.307-1.055-.128-1.903.422-1.015.64.298.396.352.307.157.857-.295 1.202-.54 1.177-.67 1.46-.776 1.68-1.061 2.526-.9 1.985-.102 1.43.026.934-.103 1.866-.849 1.024h-.193l-1.014-.128h-.343l-.97-.128-1.504-.18-1.952-.242-2.31-.282-2.578-.32-2.756-.332-2.846-.345-2.847-.346-2.757-.332-2.579-.32-2.308-.282-1.953-.243-1.505-.179-.968-.128h-.343l-1.076-.127-.582-.691-.703-.844-.704-.845-.704-.831-.704-.844-.703-.832-.705-.844-.704-.844-.704-.831-.704-.845-.703-.844-.705-.831-.704-.844-.704-.832-.704-.844-.703-.844-.705-.832-.47-.562-.26-.64-.052-1.658v-.358l.475-.665.226.473.53.653.898-.154.42.128.307 2.299.66.818.804.32 2.718.18 1.692-.308 3.333-1.5 1.75-.537 4.836.127 3.879.627 6.04.371 1.171-.128 3.256-1.202 2-1.062 1.187-.307.784-1.023.517-1.337.458-.87.586-.422.558-.741.446-1.203 1.123-1.215 4.494-2.956 2.627-2.497.233-.805 1.429-1.216 1.144-1.326 5.35-3.785 1.075-1.56.632-1.749.077-.128h.46l.653.269.063 1.308-.236 1.241-.026 1.309-.09.716zm.344 5.521h.38l.532-.345.077-.55-.135-.281h-.551l-.228.473z" transform="translate(-347.52 -229.183)" id="path2" />
  </g>
</svg>
