<?xml version="1.0" encoding="UTF-8" standalone="no"?>
<svg width="500" height="410" version="1.1" id="svg38" sodipodi:docname="western_asia.svg" xmlns:inkscape="http://www.inkscape.org/namespaces/inkscape" xmlns:sodipodi="http://sodipodi.sourceforge.net/DTD/sodipodi-0.dtd" xmlns="http://www.w3.org/2000/svg" xmlns:svg="http://www.w3.org/2000/svg">
  <defs id="defs42" />
  <sodipodi:namedview id="namedview40" pagecolor="#ffffff" bordercolor="#666666" borderopacity="1.0" objecttolerance="10.0" gridtolerance="10.0" guidetolerance="10.0" inkscape:pageshadow="2" inkscape:pageopacity="0.0" inkscape:pagecheckerboard="0" />
  <g style="display:inline" id="g36">
    <path style="fill:#b5ddff;fill-opacity:1;stroke:none;stroke-width:.55587536;stroke-linejoin:bevel;stroke-miterlimit:4;stroke-dasharray:none;stroke-dashoffset:3.20000005;stroke-opacity:1" d="M0 712.52h500v410H0z" transform="translate(0 -712.52)" id="path2" />
    <path style="display:inline;fill:#686868;fill-opacity:1;fill-rule:evenodd;stroke:#505050;stroke-width:.5;stroke-linecap:round;stroke-linejoin:round;stroke-miterlimit:4;stroke-dasharray:none;stroke-opacity:1" d="M0 712.077v41.87l.875-.75.077-.025-.375.475a1.599 1.599 0 0 0-.424.999v.524a1.599 1.599 0 0 0 .849 1.449l1.674.875c.364.182.784.219 1.174.102l1.649-.45a1.599 1.599 0 0 0 1.148-1.749l-.025-.15.102-.175a1.599 1.599 0 0 0-.077-1.274l-.076-.15 2.023-1.048.574-.15 1.35.575a1.6 1.6 0 0 0 .849.102l.6-.077 1.848.6c.098.027.198.044.3.051l4.322.525 1.349.674.128.175a1.599 1.599 0 0 0 1.973.574l.25-.128.349-.076c.316-.071.603-.237.823-.475l.85-.925.7-.65 1.098-.874c.175-.136.32-.306.425-.5l.3-.55c.118-.232.178-.49.174-.75v-.5a1.599 1.599 0 0 0-.325-1l-.025-.374v-.2l1.599-.825.624-.102a1.6 1.6 0 0 0 1.148-.899l.3-.6a1.61 1.61 0 0 0 .152-.893l-.2-1.424a1.599 1.599 0 0 0-.077-.249l-.35-1.149a1.599 1.599 0 0 0-1.274-1.098l-.175-.026.025-.026a1.55 1.55 0 0 0 .226-.225l.225-.225a1.62 1.62 0 0 0 .275-.474l.2-.5h.174c.075.004.15.004.226 0l1.548-.15c.05-.006.1-.015.15-.026l1.075-.225c.102-.016.202-.041.299-.077l1.074-.45c.125-.051.242-.118.35-.2l.199-.149 1.874-.175c.11-.014.22-.04.325-.077l.15-.051.55.424c.024.027.05.052.076.077l1.424 1c.086.058.179.108.275.149l.775.349c.331.143.7.17 1.049.077l.574-.176c.043-.007.086-.015.128-.025l.774-.275h.674l.724.051c.414.037.826-.089 1.149-.35l1.499.2a1.599 1.599 0 0 0 1.698-2.2l-.424-.998a1.6 1.6 0 0 0-.35-.525l-1.998-1.998-1.4-1.75a1.6 1.6 0 0 0-.274-.274l-.9-.65-.025-.026 1.25-1.098.374-.052c.147-.022.29-.065.425-.127l.9-.425c.547-.254.905-.795.924-1.399l.102-3.348.275-1.449.176-.15.624-.424a1.56 1.56 0 0 0 .375-.35l.875-1.123 1.424-.25 1.523.4a1.6 1.6 0 0 0 1.624-.5l1.224-1.425c.216-.253.347-.568.375-.9l.3-3.072a1.6 1.6 0 0 0 0-.325l.025-.128.8-2.173a1.6 1.6 0 0 0 .102-.625l-.026-.424zm185.493 0 4.797 3.073 2.298 2.073c.04.045.083.088.128.128l4.572 3.248c.063.048.13.09.2.128l1.349.674a1.599 1.599 0 0 0 2.023-.5l.55-.75.375-.45h.051l2.124.3 2.248.374c.174.03.35.03.524 0l1.249-.2 1.524.525 1.724.774c.057.02.116.038.175.051l1.824.575c.073.022.149.04.225.05l3.222.475 1.075.6c.025.018.05.035.077.051l1.549.724c.18.086.375.136.574.15l6.02.375c.16.007.32-.01.475-.051l.5-.103.325-.102 1.849-.225 1.274.025 1.599.75a1.6 1.6 0 0 0 .774.15l1.174-.052c.05.002.1.002.15 0l.974-.102 1.274.35.425.174c.008.01.017.018.025.026.125.274.324.508.575.674l1.148.774c.101.07.21.13.325.175l3.323 1.199c.049.02.099.036.15.05l2.473.6.65.376c.063.038.13.073.199.102l.6.225-.077.275a1.599 1.599 0 0 0 .375 1.524l.275.3a1.6 1.6 0 0 0 .65.424l.849.3c.145.046.296.072.449.076l1.674.051c.315.016.628-.063.899-.225l.375-.225.974-.2c.085-.018.169-.044.25-.076l1.25-.475 1.573-.624 1.949-.5h.55l.5.102.15.077.825.949c.704.821 2.004.72 2.573-.2l.449-.724 1.599.45a.868.868 0 0 0 .102 0l.9.2.249.15 1.599 1.399c.302.267.695.41 1.098.399l2.623-.077.275.051-.025.051-.65 1.5a1.599 1.599 0 0 0-.15.874l.077.375a1.6 1.6 0 0 0 .85 1.199l1.124.6c.042.018.084.035.128.05l1.424.575.624.4.474.374a1.6 1.6 0 0 0 .55.3l1.225.324c.065.021.132.038.2.051l1.423.225c.058.003.117.003.175 0l.3.026.374.2c.057.029.116.054.176.076l1.648.65.052.026c.198.15.429.253.674.299l.374.077c.134.29.351.534.625.7l.225.175a1.6 1.6 0 0 0 1.124.225l.574-.103c.085-.01.168-.027.25-.05l.424-.15.675.624c.055.046.114.089.175.128l1.274.899.5.424.15.25c.13.193.3.355.5.474l.7.425c.04.028.083.053.127.077l.774.375.375.35.6 1.499c.133.325.37.597.674.774l.724.424c.124.077.258.136.399.176l2.598.674c.05.01.1.02.15.025l.924.15h.077l2.548.25c.159.014.319.006.475-.026l.875-.175c.359-.065.685-.25.925-.525l1.324-1.549c.018-.033.035-.067.05-.102l.876-1.15.6-.2a.947.947 0 0 0 .102-.025l1.999-.774a1.6 1.6 0 0 0 .249-.128l1.199-.724a1.6 1.6 0 0 0 .524-.5l.45-.75 1.075-1.398.674-.8a1.599 1.599 0 0 0-.375-2.373l-1.224-.774a1.601 1.601 0 0 0-.3-.15l-.45-.175-.128-.077-.849-1.349a1.565 1.565 0 0 0-.077-.102l-.949-1.274a1.603 1.603 0 0 0-.076-.102l-1.9-2.199a1.603 1.603 0 0 0-.076-.102l-3.298-3.323a1.601 1.601 0 0 0-.325-.249l-.524-.3-.15-1.074a1.599 1.599 0 0 0-.349-.775l-.949-1.174a1.599 1.599 0 0 0-.425-.375l-1.25-.75.425-1.498a1.6 1.6 0 0 0 .052-.45l-.026-.673c0-.093-.01-.185-.026-.275l-.225-1.149.2-1.224.674-1.999.7-1.449c.056-.11.098-.228.127-.349l.25-.999c.332-1.377-1.157-2.474-2.374-1.749l-.974.575-.325-1.075a1.573 1.573 0 0 0-.051-.076zm152.167 0 .674 1.424c.031.052.066.102.102.15l1.6 2.673c.031.044.065.087.102.128l.949 1.299a1.6 1.6 0 0 0 .35.349l1.099.8.225.274.175.3.077.399v.524l-.25 1.474c-.02.115-.03.232-.025.35l.026.723a1.6 1.6 0 0 0 1.399 1.5l.674.102c.074.013.15.022.225.025l2.023-.051.825.102.575.375.823.95.25.474c.036.078.08.153.128.225l.424.574c.094.114.204.215.325.3l.7.524a1.6 1.6 0 0 0 .475.25l.799.249c.242.076.5.094.75.051l.749-.128c.077-.02.152-.046.225-.077l.4-.128.6.052.773.6a1.6 1.6 0 0 0 1.45.274l.474-.15 1.124-.102.5.052.128.05.35 1.775-.175 1.124-.45.975-.674 1.124a1.59 1.59 0 0 0-.102.225l-.7 1.749a1.6 1.6 0 0 0-.128.474l-.051.675a1.66 1.66 0 0 0 0 .199l.128 2.074c-.001.1.008.2.025.299l.266 1.351c.052.208.145.404.275.575l1.324 2.873c.057.134.133.26.225.375l1.674 1.998.949 1.599c.037.07.08.136.128.2l.325.374c.231.294.558.497.924.575l-.025.025-.7 2.249a1.59 1.59 0 0 0-.026.127l-.474 2.099-.75 1.624a1.59 1.59 0 0 0-.076.15l-.65 1.898a1.6 1.6 0 0 0-.077.624l.128 2.274c.012.154.047.305.102.449l.774 2.123c.044.123.103.24.176.35l1.174 1.798c.04.053.082.103.128.15l.849.999c.06.072.127.139.2.2l.899.749c1.421 1.183 3.383-.59 2.348-2.124l-.051-.102 1.749.25c.083.006.166.006.249 0h.55l-.102.949c-.018.193 0 .387.05.574l.103.325-.349-.25a1.599 1.599 0 0 0-2.323.45l-1.4 2.249a1.599 1.599 0 0 0-.249.825l-.025 1.099c.004.206.047.41.127.6l.425 1.048c-.45.03-.867.247-1.149.6l-.424.575a1.599 1.599 0 0 0-.325 1.274l.35 1.973c.023.103.058.203.101.3l.7 1.798c.593 1.466 2.727 1.273 3.048-.275l.15-.6a1.597 1.597 0 0 0-.026-.65l-.524-2.348.102-.15c.31-.48.339-1.09.077-1.598.248-.086.471-.232.65-.425l.349-.375.15-.076.374.025 1.449.35.55.274.875.65a1.6 1.6 0 0 0 .6.275l-.051-.45c.015.043.032.086.05.128l.103.35.077.298a1.6 1.6 0 0 0 .45.724l1.075 1 .374.474.077.5-.102 1.25-.275 1.474c-.01.042-.02.085-.026.128l-.15 1.374a1.603 1.603 0 0 0 0 .324l.15 1.325.026 1.349-.35 2.948c-.011.057-.02.116-.025.175l-.026 1.524a1.707 1.707 0 0 0 0 .175l.325 3.298c.006.05.015.1.026.15l.624 3.297.026.051.2.9a1.599 1.599 0 0 0 1.498 1.223l3.548.15c.125.006.25-.002.374-.025l1.374-.275c.068-.013.134-.03.2-.052l1.998-.674 1.35-.375.624-.05a1.6 1.6 0 0 0 .5-.129l.774-.325a1.5 1.5 0 0 0 .275-.15l.574-.424a1.6 1.6 0 0 0 .55-.624l1.224-2.598.375-.4 2.023-1.448 1.774-.925 1.799-.825 2.198-.525 3.098.052 2.623.225c.05.002.1.002.15 0h1.474l.65.051c.133.008.267 0 .399-.026l.55-.076a1.6 1.6 0 0 0 .55-.2l.325-.175c.354-.211.614-.551.724-.95l.175-.673.399-.15h1.151l1.499-.077 1.074.051 1.524.45a1.6 1.6 0 0 0 .425.052l2.198.025h.103l1.024-.05.225.149.325.3.026.05.025.275-.025.475a1.6 1.6 0 0 0 .524 1.198l.225.226c.153.14.33.251.525.324l.9.325c.08.033.163.058.248.077l1.249.25h.102l2.324.299 2.123.524 1.099.35 1.399.525 1.748 1.35a1.6 1.6 0 0 0 .475.249l.724.249c.074.023.149.04.225.051l.875.15c.123.023.25.032.375.025l.624-.05c.19-.01.376-.054.55-.129l.875-.374.674.249c.232.08.48.107.724.077l.624-.051c.076-.012.151-.03.225-.052l1.075-.25 1.048.3 3.798 1.6c.142.063.294.107.449.127l.225 1.124c.066.326.232.623.474.85l1.125 1.048c.055.047.114.09.175.128l1.374.95a1.6 1.6 0 0 0 .425.199l1.549.524 3.122 1.149 1.125.775 1.349 1.524 1.798 2.248a1.6 1.6 0 0 0 .25.25l.275.2c.287.217.639.332.999.324l4.671-.05h4.247l-.076.974c0 .092.009.184.025.275l.176 1.824c.016.136.05.27.102.399l.375.999v.424l-.128.175a1.6 1.6 0 0 0-.128.226l-.3.7c-.02.057-.037.115-.05.174l-.103.275a1.6 1.6 0 0 0 .674 1.824l.35.225.199.325.051.6-.15.375a1.6 1.6 0 0 0-.128.7l.026.6a1.6 1.6 0 0 0 .225.699l.103.15v.076l.127.375-.025.026a1.599 1.599 0 0 0-.25.424l-.249.625-.325.773c-.02.05-.037.1-.051.15a1.599 1.599 0 0 0-.051.128l.025-.128-.35.15a1.599 1.599 0 0 0-.975 1.649l.102.799c.02.129.054.254.103.375l.25.674.025.077c-.04.072-.074.147-.103.225l-.175.55-.424.949a1.599 1.599 0 0 0-.15.899l.051.2-.077.102-.55.524c-.035.033-.07.067-.102.103l-.425.524a1.599 1.599 0 0 0-.324.7l.127-.052-.127.077c-.01.008-.018.017-.026.026l-.75.5a1.614 1.614 0 0 0-.076.102l-.225.176-.425.076a1.6 1.6 0 0 0-1.174.875l-.176.325a1.6 1.6 0 0 0-.05 1.3l.127.324c.028.078.063.153.103.225a1.6 1.6 0 0 0-1.025.55l-.925 1.125c-.036.04-.07.083-.102.128l-1.075 1.598a1.599 1.599 0 0 0-.249 1.149l.45 2.848-.399 1.324a1.599 1.599 0 0 0 0 .975l.325.949c.096.283.269.534.5.724l.825.65c.141.118.302.211.475.275l1.024.35c.162.052.33.078.5.077h.077l-.25.2c-.072.06-.138.127-.199.199l-2.024 2.373c-.252.3-.385.683-.374 1.075l.05.999c-.003.117.005.235.027.35l.2.8c.004.058.013.117.025.175l.875 2.548.849 2.498 1.424 4.197v.624l-.45 2.174a1.545 1.545 0 0 0-.077.299l-.026 1.4c.003.075.012.15.026.224l.2 1.6-.15.699a1.597 1.597 0 0 0 0 .55l.375 2.123a1.599 1.599 0 0 0 1.048 1.224l.425.15c.105.037.214.063.325.077l3.298.424 3.022.375 3.448.425.524.55.6 2.098-.025 1.574-.15.475-2.623 2.698-2.923 3.023-2.898 2.998-3.347 3.447c-.01.008-.018.017-.026.026-.036.04-.07.083-.102.128-.01.008-.018.017-.026.025-.018.025-.035.05-.051.077v.025a1.59 1.59 0 0 0-.128.25c-.01.008-.017.017-.026.026-.01.042-.019.084-.025.127-.02.05-.037.1-.052.15a1.56 1.56 0 0 0 0 .051c-.024.21-.007.422.052.624.007.043.015.086.025.128.008.01.017.018.026.026.047.142.115.276.2.4l.025.025c.024.035.05.069.077.102l.025.026c.06.072.128.139.2.2l2.223 2.298 1.524 1.548 1.924 1.974v.4a1.6 1.6 0 0 0 .25.948l2.123 3.198.7 1.599a1.6 1.6 0 0 0 .15.25l.699 1.024c.064.1.14.192.225.275l1.724 1.574 1.699 1.549a1.6 1.6 0 0 0 .5.324l1.823.7c.127.06.261.103.4.128l1.124.15 2.498.724.7.424 1.548 1.524c.344.338.821.503 1.3.45l.624-.103-.15 1.299c-.018.167-.009.336.026.5l.524 2.498.35 3.548-.05.275-.425.999a1.6 1.6 0 0 0-.128.55v.524l-.077.25c-.137.445-.073.929.175 1.323l.15.2c.17.264.413.473.7.6l.624.25c.15.074.31.124.474.149l1.324.15a1.59 1.59 0 0 0 .375-.026l2.448-.325a1.604 1.604 0 0 0-.076.325l-.15 1.025a1.6 1.6 0 0 0 0 .448l.077.5a1.6 1.6 0 0 0-.65 1.15l-.128 1.173-3.348-.15a1.579 1.579 0 0 0-.275 0l-.45.103a1.596 1.596 0 0 0-.375.102l-1.324.525-2.348.375a1.598 1.598 0 0 0-.25.076l-.699.226a1.6 1.6 0 0 0-.399.225l-.925.65a1.6 1.6 0 0 0-.325.274l-.65.825c-.054.063-.104.13-.15.2l-.174-.026a1.599 1.599 0 0 0-1.45.65l-.175.25-2.348.799c-.105.04-.205.09-.3.15l-.348.2a1.599 1.599 0 0 0-.575.623l-.424.774a1.6 1.6 0 0 0-.176.475l-.349 2.173-.25 1.45-.574.448a1.6 1.6 0 0 0-.524.674l-.102.225a1.6 1.6 0 0 0-.077.875l.051.375-.3 1.025a1.601 1.601 0 0 0-.05.325l-.3 3.622-.15.425c-.93.855-.547 2.4.675 2.723l2.273.6c.114.038.231.064.35.076l2.1.077c.09.008.183.008.274 0l2.323-.325a1.6 1.6 0 0 0 .8-.325l.325-.275.474.45c.387.366.93.516 1.45.4l.974-.226c.239-.057.46-.168.65-.324l.524-.45 1.199-.524.75-.102 4.296.5c.167.018.336.009.5-.026l1.65-.299 1.148.25c.073.022.149.04.225.05l2.498.2V712.12zm36.524 25.632 1.35.077.224.05 1.125 2.374.5 1.125.55 1.598c.015.044.032.086.05.128l.7 1.6c.08.176.19.336.325.474l1.1 1.124c.084.076.176.143.274.2l1.324.874c.034.019.068.036.103.052l3.772 2.098.724.65.15.25.076.35.026.275-.624.15-1.849-.425a1.6 1.6 0 0 0-1.25.225l-.7.474a1.599 1.599 0 0 0-.699 1.199 1.55 1.55 0 0 0-.225.026l-1.35.15c-.067.012-.133.03-.199.05l-2.473.65-.45-.051-.5-.6a1.593 1.593 0 0 0-.15-.128l-.999-.925a1.599 1.599 0 0 0-.875-.424l-1.198-.15a1.6 1.6 0 0 0-.8.102l-1.049.4-.7.076-1.473-.275-.25-.077-.75-.574-.624-.7-.624-.924a1.6 1.6 0 0 0-.899-.625 1.59 1.59 0 0 0 .102-1.048l-.324-1.35.6-3.147c.014-.082.023-.166.025-.25v-.5a1.599 1.599 0 0 0-.475-1.198l.525-1.075.574-.724 1.424-.974.2-.077 1.148.102c.141.02.284.02.425 0l2.673-.5zM15.214 755.27a1.586 1.586 0 0 0-.424.077l-1.549.425c-1.318.37-1.592 2.117-.45 2.873l1.599 1.049c.367.244.82.325 1.25.225l1.423-.35a1.599 1.599 0 0 0 1.05-2.349l-.276-.474c-.12-.2-.282-.37-.474-.5l-.5-.375a1.6 1.6 0 0 0-.3-.15l-.724-.3a1.598 1.598 0 0 0-.624-.149zM0 759.22v3.872a1.599 1.599 0 0 0 .95-2.274L.3 759.62a1.599 1.599 0 0 0-.225-.325zm13.54 2.223c-.084.01-.167.027-.249.051l-.949.225a1.6 1.6 0 0 0-.6.325 1.599 1.599 0 0 0-.849-.225l-2.248.077a1.6 1.6 0 0 0-1.5 1.198l-.076.3c-.06.228-.069.467-.026.7l.128.65-.025.55a1.599 1.599 0 0 0 .999 1.548l.8.35c.227.099.475.143.723.128l.75-.05c.084-.011.167-.028.249-.052l.4.2a1.6 1.6 0 0 0 .749.15l.75-.026a1.599 1.599 0 0 0 1.523-1.325l.15-.849.128-.25.25-.224a1.61 1.61 0 0 0 .474-.825l.175-.675a1.599 1.599 0 0 0-1.724-1.948zm-1.648 4.822-.026.127h-.076c.036-.04.07-.083.102-.127zm13.216 3.497-2.349.128a1.6 1.6 0 0 0-1.399.975 1.6 1.6 0 0 0-.102.45v-.425l-.425.128-1.224-.025a1.599 1.599 0 0 0-1.324.65l-.825 1.124a1.599 1.599 0 0 0-.128 1.698l.128.275c.113.197.266.368.45.5l.65.525c.171.13.366.223.574.275l2.024.524.474.5c.217.226.495.382.8.45l2.948.65c.106.029.215.046.325.052h.999a1.61 1.61 0 0 0 .449-.051l.999-.275a1.6 1.6 0 0 0 .924-.674c.18-.119.332-.272.45-.45l.15-.226a1.6 1.6 0 0 0 .2-1.324l-.2-.775a1.599 1.599 0 0 0-.275-.524l-.6-.8a1.599 1.599 0 0 0-.349-.35l-.85-.6-.05.15a1.599 1.599 0 0 0-.525-1.45l-.8-.7a1.599 1.599 0 0 0-1.124-.398zm2.623 3.922.375.25a1.613 1.613 0 0 0-.2-.052l-.275-.05zM1.3 774.907a1.524 1.524 0 0 0-.176.026 1.599 1.599 0 0 0-1.098.7l-.026.05v3.223c.092.078.192.145.3.2l.199.102a1.599 1.599 0 0 0 1.349 1.35l.349.05c.2.03.403.021.6-.025l1.349-.3c1.346-.294 1.714-2.04.601-2.852l-.75-.575-.076-.275a1.599 1.599 0 0 0-.85-1.024l-.999-.475a1.599 1.599 0 0 0-.775-.175zm19.486 4.847c-.05.006-.1.015-.15.026l-2.124.349a1.599 1.599 0 0 0-1.349 1.699l.077.849c.03.425.228.82.55 1.099l.525.45a1.599 1.599 0 0 0-.525 2.273l.225.35a1.6 1.6 0 0 0 .375.374l1.35 1.05c.52.4 1.234.44 1.798.101l1.224-.724c.26-.162.469-.396.6-.674l.128-.2c.03-.064.055-.13.076-.199l-.102.051c.035-.024.07-.05.102-.076l.026-.026a1.6 1.6 0 0 0 .75-1.399l-.103-2.123a1.594 1.594 0 0 0-.025-.325l.05.102.052-.102a1.599 1.599 0 0 0-1.399-2.124l-.275-.025-.925-.55a1.6 1.6 0 0 0-.774-.225c-.05-.002-.1-.002-.15 0zM0 785.2v5.246h.077l.051.052a1.6 1.6 0 0 0 .525.324l.399.128c.314.11.655.12.975.026l.424-.128a1.6 1.6 0 0 0 .275-.128c.103.448.395.83.8 1.049l.325.175.2.275c.125.181.286.335.474.45l.949.575.624.65c-.484.214-.83.654-.925 1.174l-.15.8a1.599 1.599 0 0 0-.025.298l.026.525c.01.402.17.786.45 1.074l.175.2c.293.31.698.49 1.124.5h.325a1.599 1.599 0 0 0 1.65-1.524l.05-.9.275.176c.188.127.401.212.624.25l.575.102a1.599 1.599 0 0 0 1.699 1.599l1.224-.077a1.6 1.6 0 0 0 .624-.175l.7-.35c.414-.212.716-.595.825-1.048l.076-.3a1.599 1.599 0 0 0-1.049-1.898l-1.449-.5a1.61 1.61 0 0 0-.15-.052 1.599 1.599 0 0 0-.398-.7l-.4-.398a1.599 1.599 0 0 0-.924-.475l-1.374-.175-.25-.15a1.6 1.6 0 0 0-.05-.2l-.15-.474a1.6 1.6 0 0 0-.103-.275l-.175-.3.026-.076a1.6 1.6 0 0 0-1.45-1.874l-.624-.05-.399-.475a1.599 1.599 0 0 0-1.399-.55l-.349.025c-.147.023-.29.066-.425.128l-.076.026.025-.15a1.599 1.599 0 0 0-.5-1.324l-.325-.3a1.599 1.599 0 0 0-1.124-.424l-1.124.026-.825-.15zm31.253 4.672-1.049.025c-.126.002-.252.02-.374.051l-1.35.375a1.599 1.599 0 0 0-.7.4l-.749.749c-.247.25-.406.575-.45.925a1.599 1.599 0 0 0-1.424-.75h-.325a1.62 1.62 0 0 0-.399.077l-1.25.375-1.374.05a1.601 1.601 0 0 0-.949.326l-1.15.899a1.6 1.6 0 0 0-.524.7l-.175.524a1.599 1.599 0 0 0 1.624 2.124l.6-.052c.075-.003.15-.011.225-.025l2.248-.5c.148-.03.29-.08.425-.15l1.174-.65a1.6 1.6 0 0 0 .35-.275l.7-.7c.257-.246.424-.572.475-.924.172.277.424.495.724.624l.399.175a1.6 1.6 0 0 0 .55.128l.899.026.474.349a1.6 1.6 0 0 0 .6.275l.724.15c.32.063.65.027.95-.103l1.498-.624.774-.077a1.599 1.599 0 0 0 1.35-1.998l-.2-.774a1.599 1.599 0 0 0-1.224-1.174l-.724-.15a1.599 1.599 0 0 0-.525-.026l-.128.026-1.274-.35a1.6 1.6 0 0 0-.449-.05zM0 791.52v10.217c.017.01.034.018.052.026l.8.3c.365.127.764.118 1.123-.026l.176-.077a1.6 1.6 0 0 0 0 .2l.076.5c.027.23.104.452.226.65l.076.149a1.599 1.599 0 0 0-.849-.051l-.975.2a1.597 1.597 0 0 0-.349.127 1.6 1.6 0 0 0-.35-.102v4.247l2.174-.3a1.599 1.599 0 0 0 1.274-1.074l.103-.275c.069-.183.103-.378.102-.574l-.051-.75a1.599 1.599 0 0 0-.077-.424 1.6 1.6 0 0 0 .95.077l.249-.052a1.6 1.6 0 0 0 .524-.225l.55-.35a1.6 1.6 0 0 0 .475-2.199l-.6-.949a1.599 1.599 0 0 0-1.45-.75l-.448.026a1.54 1.54 0 0 0-.2.026c.047-.24.038-.488-.026-.724l-.102-.3a1.599 1.599 0 0 0-.949-1.048l-.102-.051.2-.3a1.6 1.6 0 0 0-.026-1.923l-.4-.475-.175-.3a1.599 1.599 0 0 0-.399-.398l.051-.077a1.599 1.599 0 0 0-.025-1.699l-.278-.548A1.599 1.599 0 0 0 0 791.52zm5.621 3.697 1.9.077.474.5-.825.45.05-.7-.474-.2-.15.8.026.4-.25.127-.749-1.198zm-3.947.999.25.3-.103.149a1.599 1.599 0 0 0-.15-.45zm11.542.225.175.175-.823.45-.6-.2.076-.298 1.05-.077zm1.274 1.3a1.6 1.6 0 0 0-.8.324l-1.124.875a1.599 1.599 0 0 0-.7-.4l-.5-.127a1.599 1.599 0 0 0-1.098.102l-1.125.525a1.599 1.599 0 0 0-.724.65l-.524.924a1.599 1.599 0 0 0 .15 1.774l.349.475c.268.325.654.532 1.074.574l.825.128c.043.002.086.002.128 0l-.2.175a1.599 1.599 0 0 0-.199 2.198l.35.45c.073.093.157.176.249.25l.974.825a1.6 1.6 0 0 0 .25.175 1.599 1.599 0 0 0-.375 1.374v.026c-.727.882-.32 2.22.775 2.548l.85.25a1.599 1.599 0 0 0 1.623-.475l.6-.674a1.599 1.599 0 0 0 .3-1.599l-.176-.524a1.599 1.599 0 0 0-.624-.8l-.75-.5a1.61 1.61 0 0 0-.149-.077 1.6 1.6 0 0 0 .3-.35l.324-.574a1.599 1.599 0 0 0-.325-1.974c.068-.013.135-.03.2-.051l1.148-.5c.334-.146.607-.402.776-.724l.474-.925c.116-.207.184-.437.2-.674l.05-1.45a1.599 1.599 0 0 0-.298-.998l-.3-.425a1.599 1.599 0 0 0-.849-.6l-.5-.127a1.6 1.6 0 0 0-.475-.077c-.05-.002-.1-.002-.15 0zm-12.94 1.074.998.35-.399 1.374-.7.4-.849-.351-.225-.85.5-.574.6-.3a1.58 1.58 0 0 0 .077-.05zm30.428.324c-1.262.11-1.9 1.573-1.125 2.574l.15.225-.051.275c-.147.638.11 1.301.65 1.674l-.375.5c-.817 1.063-.042 2.6 1.299 2.573l.399-.026c.243-.004.483-.064.7-.175l.775-.4 1.148-.076a1.6 1.6 0 0 0 .875-.325l.35-.25 1.823-.699c1.356-.51 1.389-2.416.051-2.973l-1.098-.449a1.599 1.599 0 0 0-.85-.128l-.65.103c-.12.02-.238.054-.35.102l-.077.026a1.599 1.599 0 0 0-1.074-1.374h-.026l-.375-.35a1.6 1.6 0 0 0-.399-.225l-.999-.45a1.599 1.599 0 0 0-.774-.15zm-30.629.026-.55.3-.2.699.776.275.475-.175.15-.55-.078-.325zm19.237 1.874a1.6 1.6 0 0 0-.875.399l-.575.474-.924.425a1.6 1.6 0 0 0-.6.45h-.026l-.051.051-.574.176c-1.48.496-1.444 2.6.05 3.047l.351.128a1.6 1.6 0 0 0 .6.052l1.125-.103c.28-.03.546-.133.773-.3l1.4-.998.749-.2c1.385-.389 1.592-2.266.325-2.948l-.824-.45a1.6 1.6 0 0 0-.775-.2h-.15zm-15.69.076.451.7.051.3-.45.998-1.474.077-.75-1.174.774-.5.525-.225zm6.171.325.026.077-.077.128-.15-.051zm-6.745.103-.45.025-.128.3.051.5.35.55.225-.051.55-.375zm27.905.999.475.399.051.05-.102.052-.5-.15zm-19.66 1.573.224.176.675.875-.325.299h-.026l-1.198-.774zm32.002.724c-.127.002-.253.02-.375.052l-.325.076c-.14.032-.273.083-.4.15l-.649.35a1.599 1.599 0 0 0-.824 1.548l.026.3c.03.4.208.774.5 1.048l.65.575c.172.159.377.278.6.349l-.724.5c-.17.12-.314.274-.425.45l-.375.55-.5.375a1.599 1.599 0 0 0-.65 1.399l.026.375a1.6 1.6 0 0 0 .2.674l.15.275-.3.75a1.599 1.599 0 0 0 .175 1.423l.375.6c.256.4.677.665 1.149.724l.324.026c.21.024.422.007.625-.051l.924-.275c.252-.068.484-.197.674-.375l1.199-1.149 1.049-.175a1.599 1.599 0 0 0 1.324-1.999l.325-.325a1.6 1.6 0 0 0 .25-.349l1.098-2.048c.12-.215.188-.455.2-.7l.025-.8a1.599 1.599 0 0 0-1.799-1.648l-.75.102a1.64 1.64 0 0 0-.299.051l-2.123.674a1.6 1.6 0 0 0 .128-.299l.128-.375c.044-.137.07-.28.077-.424v-.525a1.6 1.6 0 0 0-.103-.6l-.076-.225a1.599 1.599 0 0 0-1.5-1.049zm-19.312.052a1.6 1.6 0 0 0-1.024.55 1.6 1.6 0 0 0-1.65 1.598v.625c.005.567.309 1.09.8 1.374l.8.45c.624.36 1.412.257 1.923-.25l.35-.349.625-.2a1.599 1.599 0 0 0 .674-2.672l-.5-.5a1.6 1.6 0 0 0-.7-.4l-.65-.175a1.6 1.6 0 0 0-.65-.051zm-13.79.299.175.225.775.65-.55.474-.874-.55.45-.775zm32.902.524.774.7.128 1.374-.475.25-1.224.299-.5-1.35.524-.723zm-20.436.3a1.6 1.6 0 0 0 0 .949l-.349-.75zm.775.102.026.026a1.608 1.608 0 0 0-.128.102zm-22.484.128-.025.102h-.026a1.6 1.6 0 0 0 .051-.102zm42.345.2-.325.127-.674.35.026.299.65.574.275-.2.128-.374v-.5zm-44.493.6a1.6 1.6 0 0 0 .35.102l-.052.102zm12.916 1.448.128.051.025.103-.128.077.176.249.05.2-.025.324-.2.35-.324.25.75.199.025.076-.3.176-.55-.35.3-1.6zm-1.374.95c.023.05.048.1.076.149l-.076-.102zm24.807 5.895a1.605 1.605 0 0 0-.75.175l-.823.4a1.599 1.599 0 0 0-.9 1.398v.325l-.849 1.274a1.599 1.599 0 0 0-.102 1.624l.275.525v.102a1.599 1.599 0 0 0 .275 1.474l.5.624a1.599 1.599 0 0 0 2.573-.15l.128-.2.128-.025a1.599 1.599 0 0 0 1.174-2.023l-.325-1.025a1.599 1.599 0 0 0-.225-.474l-.051-.077.102-.175c.103-.177.17-.372.2-.575l.225-1.349a1.599 1.599 0 0 0-1.55-1.848zM4.323 820.46a1.54 1.54 0 0 0-.2.025l-1.198.175c-.077.02-.152.046-.225.077l-1.075.325-.974.15-.65.05v5.597l.7.102 1.349.525c.08.032.164.058.249.076l.774.176.025.399a1.6 1.6 0 0 0 1.125 1.499l.7.2c.175.065.362.1.55.102l5.196-.325h.102l5.146-.625 2.674-.2 2.673.129c.042.002.085.002.128 0l1.524-.051a1.61 1.61 0 0 0 .45-.077l.999-.325a1.6 1.6 0 0 0 1.074-1.174l.102-.525.275-.7a1.58 1.58 0 0 0 .103-.35l.2-1.174.175-.4c.524-1.146-.425-2.42-1.674-2.247l-.425.076a1.6 1.6 0 0 0-.8.325l-1.024.85h-1.224a1.6 1.6 0 0 0-.425.05l-1.499.425v-.05a1.599 1.599 0 0 0-.524-1.45l-.325-.275a1.599 1.599 0 0 0-1.274-.375l-2.073.25c-.05.006-.1.014-.15.025l-.875.2-1.949-.35a1.591 1.591 0 0 0-.225-.025l-2.048-.077-.95-.6a1.6 1.6 0 0 0-.749-.25l-3.597-.174c-.05-.002-.1-.002-.15 0zm-.624 43.569-2.498.249-1.199-.051v258.74h242.997l.55-.5c.095-.088.18-.19.25-.299l.574-.8c.09-.138.157-.29.2-.45l.374-1.273a1.599 1.599 0 0 0 0-.925l-.724-2.274a1.596 1.596 0 0 0-.127-.299l-.7-1.25a1.576 1.576 0 0 0-.175-.249l-1.924-2.248-.102-.3a1.587 1.587 0 0 0-.077-.225l-.35-1.174a1.599 1.599 0 0 0-.474-.75l-1.074-.974c-.76-.695-1.97-.5-2.473.399v-.051l-.5-1.249a1.599 1.599 0 0 0-.375-.574l-2.698-2.598a1.6 1.6 0 0 0-1.224-.425h-.275l-.325-1.098a1.6 1.6 0 0 0-.128-.325l-1.3-2.423a1.6 1.6 0 0 0-.524-.575l-7.244-4.896-2.124-3.073a1.75 1.75 0 0 0-.077-.102l-3.872-4.822a1.599 1.599 0 0 0-.75-.524l-4.521-1.474-1.874-1.574a1.613 1.613 0 0 0-.25-.175l-1.124-.65a1.619 1.619 0 0 0-.374-.15l-1.4-.374a1.578 1.578 0 0 0-.324-.077l-1.424-.128-.7-.275-1.124-1.274-.15-.4-.2-1.324a1.6 1.6 0 0 0-.474-.924l-.55-.525c.092.01.184.01.275 0l1.075-.077 1.174.225c.115.021.232.03.349.026l1.198-.026a1.599 1.599 0 0 0 1.524-1.324l.15-.624a1.6 1.6 0 0 0-.9-1.724l-2.023-.949a1.61 1.61 0 0 0-.624-.15 1.6 1.6 0 0 0-.325-.6l-.3-.374a1.599 1.599 0 0 0 .3-1.574l-.425-1.248a1.59 1.59 0 0 0-.55-.724l-.349-.3a1.599 1.599 0 0 0-2.473.674l-.25.2a1.599 1.599 0 0 0-.374 1.874 1.599 1.599 0 0 0-.575 1.773 1.62 1.62 0 0 0-.225.625l-.05.55c-.031.244-.005.491.076.723-.01.195.016.39.077.575l.275.8a1.598 1.598 0 0 0-1.025.55l-.399.474a1.556 1.556 0 0 0-.102-.15l-.65-.9a1.6 1.6 0 0 0-1-.623l-.773-2.299a1.599 1.599 0 0 0-.35-.6l-1.3-1.424-.849-3.022-1.024-6.746a1.597 1.597 0 0 0-.051-.225l-1.374-4.571a1.51 1.51 0 0 0-.026-.077l-1.574-4.372a1.569 1.569 0 0 0-.128-.2l-3.697-7.12a1.602 1.602 0 0 0-.128-.3l-.449-.848a1.599 1.599 0 0 0-.574-.625l-2.823-1.723-.45-.6a1.599 1.599 0 0 0-1.898-.525l-.102-.15-.65-.899a1.607 1.607 0 0 0-.2-.225l-1.948-1.873a1.599 1.599 0 0 0-.175-.15l-2.449-1.774a1.599 1.599 0 0 0-.65-.275l-1.423-.25-.4-.199-.398-.449-1.25-3.098-1.374-5.895.175-2.474c.01-.142.002-.285-.026-.424l-.849-4.048-.077-3.147.475-1.874a1.6 1.6 0 0 0-.051-.875l-.65-2.073-.175-1.924a1.456 1.456 0 0 0-.026-.102v-.026a1.6 1.6 0 0 0 1.3-1.274l.076-.425a1.601 1.601 0 0 0 0-.5l-.051-.475a1.599 1.599 0 0 0-.225-.6l-.6-.998a1.58 1.58 0 0 0-.2-.25l-1.549-1.674-1.749-2.973-.474-1.948-.15-2.773a1.599 1.599 0 0 0-1.599-1.524h-41.97l-4.197.025h-21.26l.026-.102c.06-.34.007-.69-.15-.999l-.275-.574a1.599 1.599 0 0 0-1.174-.85l-.8-.15a1.6 1.6 0 0 0-.474 0l-.051.026a1.601 1.601 0 0 0-.3.077l-.55.175c-.387.133-.71.41-.899.774l-.849 1.624H75.944l-4.871-.025H9.242v-90.286a1.599 1.599 0 0 0-.051-.325l-.128-.524a1.601 1.601 0 0 0-.077-.226l-.674-1.873-.624-2.399-.674-2.922-.077-.875a1.599 1.599 0 0 0-.103-.425l-1.098-2.948-.026-.25.026-.076 1.848-2.523a1.5 1.5 0 0 0 .15-.275l.6-1.3a1.6 1.6 0 0 0 .051-.174l.5-1.524a1.6 1.6 0 0 0 .077-.3l.15-1.25c.027-.217.01-.438-.052-.65l-.574-1.92a1.6 1.6 0 0 0-.026-.129l-.6-1.549-.199-1.498-.051-1.05.524-.624 1.099-1.048c.095-.09.179-.19.25-.3l.374-.55.5-.55.375-.275a1.6 1.6 0 0 0 .4-2.148l-.425-.674-1.125-2.124a1.6 1.6 0 0 0-.3-.424l-.948-.899c-.14-.127-.3-.228-.475-.3l-.924-.398a1.599 1.599 0 0 0-.375-.103l-2.498-.399a1.599 1.599 0 0 0-.4-.025zm197.759 205.453.225.3-.7.2-.025-.027zm.375.475.128.15-.35.299c.085-.123.152-.257.2-.4zm-4.072 2.548c.023.051.048.101.076.15l-.102-.128zm140 47.741a1.78 1.78 0 0 0-.3.051l-1.998.5c-.31.083-.59.257-.8.5l-1.373 1.55c-.037.04-.07.082-.103.127h11.967a1.599 1.599 0 0 0-1.074-.75l-.675-.127-4.996-1.75c-.2-.074-.411-.11-.624-.101z" transform="translate(0 -712.52)" id="path4" />
    <path style="fill:#fff;fill-opacity:1;fill-rule:nonzero;stroke:#505050;stroke-width:.5;stroke-linecap:round;stroke-linejoin:round;stroke-miterlimit:4;stroke-dasharray:none;stroke-opacity:1" class="polygon" d="m377.958 965.885.004.435-1.302-.128-.35.23-1.065-.128-1.04-.307.705-.524 1.844-.614.767.562zm-16.768-1.425-.216.128-.228-.691.013-.218.585-.306.361.562zm9.15.383-.946.128-.862-.486 1.811-.652.491-.294.531-.601.421.511-.464.806-.338.345zm14.494-2.356-.115.243h-.36l-.905-.23-.294-.358.564-.435h.248l.36.448zm21.977-15.377.843.243h.37l.248-.294.839 1.036.115 7.05.193.498-.449.128-.504.537-.585.832-.808.422-.642.486-.613.6-.546.129-.71-.755-.487-.78.115-.166h.342l.131-.397-.206-.576-.48-.217h-.604l-.577.256-.613.511-.348.55-.051 1.113.161 1.254-.004.6-.338.756-.115 1.112.24.857.22.512.025.435-.573 1.37.498.256 1.649.128.482.92.331.64-.09.384-1.163.281-1.472.307-1.055-.128-1.903.422-1.015.64.298.396.352.307.157.857-.295 1.203-.54 1.176-.67 1.461-.776 1.68-1.061 2.526-.9 1.985-.102 1.43.026.934-.103 1.866-.849 1.023h-.193l-1.014-.128h-.343l-.97-.128-1.504-.179-1.952-.243-2.31-.281-2.578-.32-2.756-.332-2.846-.346-2.847-.345-2.757-.333-2.579-.32-2.308-.28-1.953-.244-1.505-.179-.968-.128h-.343l-1.076-.128-.582-.69-.703-.845-.704-.844-.704-.831-.704-.844-.703-.832-.705-.844-.704-.844-.704-.832-.704-.844-.703-.844-.705-.832-.704-.844-.704-.831-.704-.844-.703-.845-.705-.83-.47-.564-.26-.64-.052-1.657v-.358l.475-.665.226.473.53.652.898-.153.42.128.307 2.298.66.819.804.32 2.718.179 1.692-.307 3.333-1.5 1.75-.538 4.836.128 3.879.627 6.04.37 1.171-.127 3.256-1.202 2-1.062 1.187-.307.784-1.023.517-1.337.458-.87.586-.422.558-.742.446-1.202 1.123-1.215 4.494-2.956 2.627-2.497.233-.806 1.429-1.215 1.144-1.326 5.35-3.785 1.075-1.56.632-1.75.077-.127h.46l.653.268.063 1.309-.236 1.24-.026 1.31-.09.715zm.344 5.522h.38l.532-.345.077-.55-.135-.282h-.551l-.228.473zM270.828 755.616l-.486.211-.456-.09v-.529l.329-.21.38.01.36.19zm-5.981-7.41.865.259.463.354.025.269-1.529.326-.102.162.102.16.456.077 2.14.807 1.222.013.642.245.321.483 1.021.656.812.637.051.22-.153.322-2.277 1.246-.288.428-.038.455 1 1.352 1.473 1.477 2.126 1.122 2.927 1.22.039.754-.464.896-.398.61-.182.411-.355.174-2.916-.038-.437.146-.192.176-.013.147 1.049.273 1.635.96.94.93.983.407 1.098.742.882.692 1.371.895 1.53-.294 2.044.797.09.54-.129.483-1.285.527-.16.219.001.183.169.258.753.431.887.64.999.956-.445.286-.932.038-.726-.115-.256.194.013.314.945.726.184.53-.038.92.051 1.162-2.211-.077-1.889.558-.712-.115-.473-.986-.403-.8-1.203-2.055.328-.842-.67-.486-1.617-.873-.413-.362.23-.497.156-.906-.153-.736-.435-.221-.807-.013-.981.183-1.969.707-1.367-.453-.788-.456-.457-.383-1.023.319-.252-.155-.051-.945-.307-.51-.616-.594-.573-.285-2.103.588-1.265.2-.441-.55-2.218-1.805-2.057-1.384-1.411-.57-1.423.064-2.209.276-.81-.115-1.923-.603-1.605-.717.219-.298.34-.215-.406-.931-.891-1.5.09-.47-.283-.648-.312-.49 1.26-1.173.575-.943.128-.918-.335-.954-.829-1.725-.51-.502-.95-.468-.795-.766-.202-.543.671-.102 1.958-.013 1.895-.184 1.484-.357 2.15-.3.884-.266 1.035-.128 3.143.285 1.174-.22 3.538-.038.09-.116-.482-.363.005-.138 2.105-.231.326-.173.276.58zm-1.48 2.15.422.147.276-.146.064-.34-.102-.309-.343-.102-.421.077-.026.34z" transform="translate(0 -712.52)" id="path6" />
    <path class="polygon" d="m265.718 768.834.252.155 1.023-.318.456.382.788.457 1.368.452 1.969-.707.98-.183.808.013.435.221.153.736-.157.907-.229.496.413.362 1.617.874.67.486-.328.841 1.203 2.054.403.801.473.986-2.463-.385-4.437-.83-1.22-.428-1.155-1.148-.687-.554-1.019-.71-.835-.268-.632-.495-.36-.733-.529-.656-.914-.775-2.072-2.63-.269-.272-.432-.437-.193-.241 1.265-.2 2.103-.588.573.285.615.595.307.51zm-1.653-18.477-.276.146-.422-.146-.13-.325.025-.34.42-.077.343.102.103.309zm19.551-10.042.244.156.572-.09.95-.311.755.24.976.885 1.347.934.727.627.287.433.688.42 1.005.494.802.774.715 1.797.723.418 2.596.683.91.14 2.549.241.896-.172 1.312-1.551 1.182-1.595 1.102-.334 1.994-.77 1.193-.728.503-.785 1.126-1.484.693-.833 1.174.74 2.037 2.01 2.903 3.269.714.925.468 1.073.402 1.3.662 1.15 2.946 2.895 1.271 1.069 2.075 1.384.737.308.97.09 1.776.004 1.643.541.811.38.838.55.752.635.756 1.697-2.849-.56-2.87.09-1.622.364-1.572.498-1.508.702-.944 1.367-.796 3.165-1.16 2.96.039 1.37.509 1.316-.064.624-.532.265-.664.56-.89 2.717-.44.543-.567.337-.157-.32.038-.713-1.252-.63-.663.705-.455 1.497-.917 1.572-.051.3.228 4.86-.363-.026-2.62.492-.548-.157-2.242-2.24-.462-.249-.968-.102-.565-.368-.462-.6-.262-.447-2.321-1.213-.343-.444-.051-.39.341-.352.394-.297 1.132-.302 1.323-.26.423-.186.218-.322-.013-.517-.216-.51-1.901-.927-.209-.399-.064-.49.103-.511.295-.4 1.55-.544.83-.564-.516-.63-1.672-1.436-1.985-1.578-1.325-.013-1.528.467-2.443 1.346-1.351.575-1.762.953-1.92 1.06-1.572 1.127-.98.93-1.744.406-.886.78-2.922 2.34-.82-.025-.052-1.161.038-.921-.185-.53-.945-.726-.013-.314.256-.194.726.115.931-.038.445-.286-.998-.958-.887-.64-.753-.43-.17-.259v-.183l.16-.218 1.285-.527.128-.482-.09-.542-2.043-.796-1.53.294-1.372-.896-.881-.692-1.099-.741-.982-.407-.94-.93-1.635-.96-1.05-.273.014-.147.191-.177.438-.146 2.915.039.356-.174.182-.412.397-.609.465-.896-.039-.755-2.928-1.22-2.126-1.12-1.472-1.479-1-1.352.038-.454.288-.428 2.277-1.246.153-.322-.05-.22-.813-.637-1.02-.657-.322-.482-.642-.245-1.222-.013-2.14-.807-.456-.077-.102-.16.102-.162 1.529-.327-.026-.268-.463-.354-.864-.26-.79-.642-.277-.58 2.76-1.69.817-.339 1.807.311 3.752 1.122-.254.622.38.35.862.476 1.652.482 1.398.248.707-.212 1.077-.179 1.398.555 1.29.705.641.285.344.09.979-.236 1.177-.91.46-1.097.13-.528-.685-.728-1.409-.79-1.584-.695-1.017-.612-.65-1.208-.654-.133-.167-.157-.102-.412.026-.577.225-.444.64-.19.648-.064.584-.424.732-.83.312-.459 1.38.263zm-13.729 15.417.455.09.487-.211.127-.424-.359-.189-.38-.01-.329.21z" style="fill:#fff;fill-opacity:1;fill-rule:nonzero;stroke:#505050;stroke-width:.5;stroke-linecap:round;stroke-linejoin:round;stroke-miterlimit:4;stroke-dasharray:none;stroke-opacity:1" transform="translate(0 -712.52)" id="path8" />
    <path d="m123.12 826.616-.496.103-.798-.367-.472-.103-.44.338-.508.243-.453.102-.398.026-.644.248-.78-.064-1.135-.203-.638.49-.153-.064-.102-1.235-.405-.505-.517-.279-.744.115-.99-.038-.732-.207-1.452.345-1.171.381-.85.366-.64-.026-1.093-.337-.817-.379-.09-.329.764.148 1.375-.27.595-1.246.195-1.437 2.325.412 2.359.213 1.93.077 1.904-.234 5.831-1.533 1.65-.917 1.022-.31 1.775-.76 1.854-.419-1.188.878-6.667 3.856-.436 1.147.298.793z" class="polygon" style="fill:#fff;fill-opacity:1;fill-rule:evenodd;stroke:#505050;stroke-width:.5;stroke-linecap:round;stroke-linejoin:round;stroke-miterlimit:4;stroke-dasharray:none;stroke-opacity:1" transform="translate(0 -712.52)" id="path10" />
    <path d="m106.597 825.263.09.329.817.378 1.091.338.64.026.85-.366 1.172-.381 1.451-.345.733.208.988.038.744-.115.517.279.405.505.103 1.234.152.064.638-.49 1.136.204.779.064.644-.248.398-.026.452-.102.508-.243.44-.338.472.102.798.367.496-.102.244.252.34.732-1.453.216-1.46.076-.812-.089-.762.038-2.366 2.09-1.272.712-1.514.423-1.542.252-.775.039-.68.266-.479.485-.012.472-.205.388-.845-.076-.352-.763-.603-.327-1.497.17-.73-.026-2.398-.727-.722-.297-.452-.622-1.235-2.242-.208-1.658 1.15.424 1.076-.514 1.036-.841 1.233-.344zm19 49.224.185.384.42 1.074 1.063 2.729.928 2.138 1.138 2.963.356 1.138.152.78 1.649 3.256.978 2.68.716 2.173 1.007 3.174.441 1.113-.713.576-1.434 2.065-1.526 6.558-2.183 5.124-.247 3.208-.35 1.164-1.038 1.626-1.258 1.594-2.239-.819-3.643-2.799-2.125-2.659-2.277-1.718-2.154-2.274-.586-1.637.026-1.049-.94-2.565-.696-1.215-2.624-2.727-.754-1.455-.575-.64-.578-.92-.95-3.539-1.042-2.246-1.186.614.21.947-1.035 1.307-.624 1.518.48 1.24 2.146 1.888.435.818.5 1.787-.077 2.43.347.818 1.606 1.806.576 1.074.346.921.534.832 1.593 1.572 2.294 2.993 2.176 2.017 1.569.972.667.972.15 2.518-.115 1.203 1.376 2.261.51 1.139 1.335.933.61 1.062.56 1.733.844 5.122 1.157 1.253 3.578 6.733 3.017 4.262 1.46 3.18 2.225 3.873 4.36 8.501 2.596 2.625 1.034 1.473 1.878 1.139 2.036 1.64-1.942-.167-.489.128-.678.281-.327.998-.138.819.235 4.308.532 2.192 1.708 4.156 1.273 1.24.619.806.864.589 4.046 1.417 2.365 3.002 5.31 3.792.52 1.05.013.242-4.197.001h-4.196l-4.198.001h-12.59l-4.197.001h-4.197l-4.196.001h-4.197l-4.197.001h-4.197l-4.196.001h-8.394l-4.197.001H90.26l.408-1.138.252-.806-.28-.563-.819-.14-.535.179-1.25 2.383-.66.128h-1.49L81 993.82l-4.887-.001H66.34l-4.886-.001h-9.772l-4.888-.001-4.885-.001h-4.886l-4.887-.001H27.25l-4.886-.001H12.59l-4.887-.001v-91.916l-.115-.537-.71-1.95-.643-2.482-.705-3.05-.09-.984-1.177-3.14-.103-.896.297-.627 1.932-2.647.582-1.286.492-1.541.16-1.254-.568-1.917-.666-1.723-.225-1.765-.09-1.735.988-1.19 1.186-1.112.443-.678.7-.767.493-.358.96 1.55 2.004.268 6.537-1.382 7.215 1.391 3.982.538 6.132 1.176 3.734 2.112 1.025.269h2.684l1.76 1.253 7 .601 3.736 1.38 2.121 1.1 1.27.332h1.125l1.521-.41 1.914-.767 2.086-1.074 4.326-2.763 1.53-.486.999.128h1.216l.507-.742.64-.512.402-.588.658-.704 2.25-.192 4.508-1.202-.503.563-4.109 1.348 1.759.166 1.802-.46 2.051-.294.373-.576.27-1.074.396-.154 1.42.205 4.227 1.655h1.05l2.977-.908.636-.192.963.499 2.197 2.06h-.767l-2.352-1.766-.209.883-1.34 1.549 1.675.665 1.361.256.73.857.463.767 1.34-.333.963-1.048-.5-.589-.34-.601.44-.013.933.499 2.677 1.988.902.409h1.039l2.173-.563.602.128 2.92-.729.344.537.48.538 2.349-.589 3.691.006 3.02-.64 3.5-1.571zM282.052 739.31l-.312.458-.732.83-.584.424-.649.064-.64.19-.224.444-.026.577.102.412.167.157.655.133.65 1.208 1.016.612 1.584.695 1.41.79.685.728-.13.528-.461 1.098-1.177.91-.978.235-.344-.09-.643-.285-1.289-.705-1.397-.555-1.077.18-.708.21-1.398-.248-1.652-.482-.861-.476-.381-.35.254-.622-3.752-1.122-1.807-.31-.816.337-2.761 1.691-.326.173-2.105.231-.005.139.481.363-.09.115-3.537.038-1.174.22-3.143-.285-1.035.128-.885.266-2.15.3-1.484.358-1.894.184-1.958.013-.671.102.025-.24-.102-.378-.397-.27-.555-.174-1.02.064-.943-.179-.673-.477-.15-.363.387-.296-.285-.245-1.176-.585-1.924-1.458-1.088-.326-.432-.912-.433-.195-.917-.09-.967.09-.21.103-.295.145-.761 1.141-.531.387-1.305-.182-1.08-.269-.88-.15-1.706-.089-1.944-.025-1.308.81-.564-.103-.992-.398-1.602-.329-.85-.258 2.452-2.404.729-1.429.026-.866.025-1.09-1.275-2.262-1.094-3.21-1.138-3.345-.887-1.001-3.718-1.158-.858-1.314-2.878-1.696-3.999-.737-.791-.316-3.473-2.132-2.716-1.374.581-.831.778-.874.839-.214 2.457.347 2.26.393 1.65-.28 1.966.69 1.795.792 1.805.558 3.518.526 1.312.73 1.533.73 6.004.372.484-.115.44-.102 2.014-.266 1.783.051 1.88.884 1.205-.051 1.284-.134 1.655.473 1.299.525.115.536 1.138.776 3.31 1.181 2.685.668.834.47 2.04.777.207.246-.039.317-.582.582-.147.518.275.296.846.285 1.681.064.605-.371 1.255-.266 1.24-.477 1.66-.639 2.257-.577.903.002.868.177.608.321 1.014 1.187 1.016-1.663.262-.128.926.334 1.64.461 1.135.245.612.343 1.734 1.515 2.803-.077 1.186.231.635.251.286.296-.502 1.505-.692 1.569.051.378 1.126.591 1.528.626.823.503.558.451 1.208.342 1.424.213.676.026.705.377 1.839.713z" class="polygon" style="fill:#fff;fill-opacity:1;fill-rule:evenodd;stroke:#505050;stroke-width:.5;stroke-linecap:round;stroke-linejoin:round;stroke-miterlimit:4;stroke-dasharray:none;stroke-opacity:1" transform="translate(0 -712.52)" id="path12" />
    <path style="fill:#fff;fill-opacity:1;fill-rule:nonzero;stroke:#505050;stroke-width:.5;stroke-linecap:round;stroke-linejoin:round;stroke-miterlimit:4;stroke-dasharray:none;stroke-opacity:1" class="polygon" d="m406.867 930.786-1.19 1.535-1.8 1.28-.77-.397-.594.013-1.284.486-.93.128-1.681.87-1.528.434h-1.066l-.37-.128-.21-.6.025-.231.646.128 2.363-.793 2.953-1.304.282-.575-.475-.947.13-.217 1.913.486 2.136-.934 1.789-.256.836.653zM263.765 770.87l.915.775.53.656.359.733.632.495.835.267 1.018.71.687.554 1.156 1.147 1.22.429 4.436.83 2.463.385.713.115 1.888-.558 2.211.077.821.026 2.922-2.341.886-.78 1.744-.406.98-.93 1.573-1.127 1.92-1.06 1.76-.953 1.352-.575 2.444-1.346 1.527-.467 1.326.013 1.984 1.578 1.672 1.435.516.63-.83.565-1.55.545-.295.399-.103.511.064.49.209.4 1.901.927.216.509.013.516-.217.323-.424.188-1.323.26-1.132.301-.394.297-.341.352.051.39.343.444 2.32 1.214.263.446.462.6.565.368.968.103.462.248 2.242 2.24.549.157 2.62-.492.363.026.025.55.393 3.183.303 1.644.446 1.599.71 1.459.838 1.387 1.154.857 2.574 1.031 1.25.298 3.285.208 3.245.455 1.916.482.586.34.484.523 1.584 2.436 2.498 1.733 5.043 2.603 2.444.865 8.23 1.638 5.476-.09 15.145-3.16 5.034-.787h1.89l-1.126.628-1.892.36 1.142.443 1.759.077.817-.077.59-.4.102-.662-.09-.654-.834-2.933-.483-2.07 3.549.142 1.384-.27 2.032-.689 1.538-.418.776-.064.765-.325.586-.406 1.323-2.823.658-.708 2.245-1.593 1.907-1.009 1.998-.893 2.527-.621 3.362.064 2.673.218 1.547-.01.736.064.554-.09.319-.184.346-1.232.548-.401.943-.345 1.322-.002 1.61-.089 1.34.09 1.688.473 2.205.038 1.465-.077.852.471.613.63.298.525.064.722-.013.55.23.212.897.327 1.243.246 2.425.297 2.272.568 1.182.388 1.64.607 1.955 1.5.723.237.876.152.627-.038 1.467-.636 1.276.468.647-.064 1.466-.349 1.558.433 3.883 1.648.426-.038.353.168.323.377.227.465.29 1.42 1.121 1.035 1.372.945 1.598.517 3.344 1.24 1.46 1.006 1.478 1.707 1.822 2.25.263.203 4.69-.064 5.265.005.644.9-.128 1.784.188 1.83.472 1.268.005 1.17-.381.592-.296.676-.076.296.676.423.592.974.09 1.353-.296.72.039.592.295.508.254.847-.039.506-.422.508-.253.635-.34.803-.127.634-.634.296-.507.21.09.804.253.677.295.803-.339.55-.21.634-.466 1.016.128.845-.507.72-.634.634-.422.508-.09.718-.466.255-.887.592-.55.424-.805.127-.169.34.128.338.34.211.527.732 1.094 1.261-3.156.158-.928 1.119-1.08 1.597.528 3.233-.526 1.664.318.934.806.647 1.034.357 1.942.025 1.286.252.129.431-.738.627-1.182 1.182-.624.516-2.015 2.375.013 1.01.186.817.87 2.565.843 2.486 1.52 4.484-.025 1.05-.478 2.313-.025 1.406.215 1.825-.163.947.372 2.115.428.154 3.282.409 3.016.384 4.012.499 1.214 1.24.757 2.722-.038 2.038-.342 1.036-2.874 2.974-2.914 3.015-2.91 3.01-3.019 3.12-.317.333 2.44 2.498 1.51 1.544 2.126 2.175.27.525-.026.857 2.184 3.311.77 1.73.694 1.01 1.726 1.585 1.687 1.55 1.831.704 1.248.153 2.846.819 1.035.652 1.67 1.646 1.958-.23h.407l.115.127.064.537-.292 2.558.545 2.578.38 3.882-.142.678-.468 1.125-.025.73-.128.447.13.192.622.269 1.328.14 3.215-.435.374.128.77.46.58.717.051.345-.807.602-.136 1.023.242 1.52-.115.18-.71.345-.231 2.2-.132.205-.829.217-3.918-.153h-.45l-1.472.575-2.522.422-.693.23-.93.666-.673.806-.13.742-.13.153-1.451-.153-.472.652-2.804.972-.35.217-.415.78-.374 2.169-.337 1.95-.214.282-.883.665-.09.23.129.755-.4 1.377-.315 3.818-.352 1.075-.701.128-.547.537-1 .665-2.164-.512-1.719-.537-5.688-1.253-.623-.614-.353-1.075-.985-.307-1.412 1.606-4.803-.934-1.632.281-1.007-.499h-2.588l-2.046-.997-2.927.69-2.317.128-3.175-1.756-3.415-.486-2.77.154-1.424-.141-2.31-.627-1.096-.652-1.798.499-.813-.921-5.09-.857-.942-1.629-.708-1.514-.052-1.555-1.242-2.72-.413-3.947-.459-1.543-.688-1.34-.919-1.138-1.248-1.216-1.085-.486-4.757-.933-.919.128-2.127.614-2.263 1.349-3.72.767-.751.576-.935 1.307-1.209.755-1.661-.192-1.785.78-3.31 2.158-1.747.665h-1.462l-1.572-1.023-3.517-1.375-2.274-.46-3.156.32-1.494-.231-2.54-1.614-.668-1.164-1.45-.78-4.593-1.758-3.722-2.321-.683-.883-.455-1.296-1.621-1.576-3.633-1.288-2.06-1.37-2.415-.308h-2.247l-.988-.243-.902-.588-3.065-2.83-.038-1.114-1.89-2.766-.442-.985-.406-2.737-.522-.717-1.973-1.125-.307-.742.42-.985v-.742l-1.027-.703-1.54-.371-.371-.845.28-1.633-.236-1.023-1.356-1.636-2.004-1.677-2.004-2.479-.783-.614-.512-1.623-.733-1.924-1.132-.14-5.477 2.307-1.598-1.298-4.805-2.258-.335-.333-.335-.524.602-.294.604-.128 1.203.396.728-.473-.291-.767-1.204-.474h-1.643l.45.717-1.538.678-.328.895.224 1.1.133 1.543-.627.754-.482.346-2.066.128-.964.678-.627.166-.87-.525-.561-.435-.46-.92-.14-.64.176-.371-.24-.537-.66-.704-.668-.383h-.674l-.559-.435-.446-.793-1.041-.525-.655-.128-.013-2.44-.013-2.139-.013-2.126-2.23-.128-2.006-.127v-5.094l.952-2.567.973-2.47-1.476-1.816-1.574-1.94-1.018-.805-1.198-2.42-.6-1.07-.531-.406-.57-.237-2.095.09-1.955-1.303-2.296-1.53-2.803-1.866-2.467-1.22-1.008-.268-2.372-.09-.252-.232-.161-.669.004-.746.771-1.124.064-.706-1.611-2.38-.498-.696-1.379-.28.275-.687v-.46l-.196-.36-.318-.174-.404-.013-1.082.282-.825-1.072-2.565-3.055-.822-.37-.153-.21.627-.937 1.055-1.388.182-.805-.203-.884-1.143-1.67.28-.705.49-.812.039-.61.769.089.98.009.308-.498-.026-1.74.232-.636 3.105-2.943 1.546-.661 1.177-.608.267-.884-.241-.454-.23-.665-.077-.478-1.298-1.32-.45-.664-.052-.607.306-1.073.542-.831 1.837-.489 1.042-.42.14-.372-1.356-.605-2.892-.189-2.11.174-.677-.19-1.003-1.172-1.067-.624-.995-.402-.973.077-.59-.161-.137-.503-1.404-3.854-.442-.527-.656-.13-.55-.026-.365-.266-.393-.532-.282-.696-.026-.915.064-.784-.188-.505-.484-.503-.685-.36-.601-.428-1.054-3.384-.422-.909-.004-.09.025-.177-.102-.777.492-.674-.038-.263-1.01-.855-1.42-.852-.386-.15-.011-.907.051-.688-.128-.62-.27-.354-.01-.279.57-.667-.366-.44-2.091-1.081-.787-.544-1.449-.102-.148-.357.225-.756.5-.916.785-.902.25-.475.304-.809.103-.574.88-.808.004-.212-.243-.289-.705-.163-.72-.064-.269-.149-.102-.432.09-1.761-.227-1.06-.296-.768.188-1.732-.502-.348-.788-.91-.337-.767.183-.286.168-.505.115-.663-.026-.47-.725-.459-.54-.482-.064-.533-.215-.651-.303-.514-.134-.338.265-.198 1.024-.158 1.49.103 1.214.009.69-.334.852-3.13.776-.824.9-.477 1.764 1.11.73.393.45.008.268.272z" transform="translate(0 -712.52)" id="path14" />
    <path style="fill:#fff;fill-opacity:1;fill-rule:evenodd;stroke:#505050;stroke-width:.5;stroke-linecap:round;stroke-linejoin:round;stroke-miterlimit:4;stroke-dasharray:none;stroke-opacity:1" class="polygon" d="m260.759 800.047.004.09.422.909 1.054 3.384.6.427.686.36.484.503.19.506-.065.784.026.914.283.696.392.532.366.266.549.026.656.13.443.527 1.404 3.855.137.502.59.16.973-.077.995.402 1.066.624 1.003 1.173.677.19 2.11-.175 2.893.19 1.355.605-.14.372-1.042.42-1.836.488-.543.832-.305 1.073.05.606.451.665 1.298 1.32.077.478.23.665.243.455-.267.884-1.177.607-1.546.662-3.106 2.943-.231.635.012 1.741-.306.498-.982-.01-.768-.089-.039.61-.49.812-.28.707 1.143 1.668.203.884-.182.806-1.055 1.388-.627.936.152.21.823.37 2.564 3.056.825 1.071 1.083-.281.404.013.318.174.196.36v.46l-.275.687 1.379.28.497.696 1.612 2.38-.064.706-.771 1.124-.004.746.16.669.253.232 2.372.09 1.008.269 2.467 1.219 2.803 1.866 2.296 1.53 1.954 1.302 2.095-.09.57.237.531.407.6 1.07 1.199 2.42 1.018.805 1.574 1.94 1.476 1.816-.973 2.47-.952 2.567v5.093l2.006.128 2.23.128.013 2.126.025 2.138.013 2.44.655.129 1.043.524.446.793.56.435h.674l.668.384.66.703.24.538-.177.37.14.64.46.921.561.435.87.524-1.18.307-1.275-.23-2.723-1.074h-.881l-1.154.409-.051.37-2.876-1.202-1.038-.243h-.371l-1.649.01-2.347.218-1.383.486-.959.525-.434.511-.157.269-.747 1.496-.866 1.922-.896 1.73-1.747 2.432-.967 1.125-2.076 2.09-2.238.422-5.203-.409-5.766-.46-5.738-.46-4.27-.346-.328-.128-4.222-2.98-3.34-2.354-4.169-2.94-4.258-3.003-4.32-3.048-3.138-2.212-3.811-2.846-3.47-2.593-2.738-2.045-3.514-1.791-2.746-1.4-3.998-2.037-3.198-1.628-2.738-1.396-4.214-2.147-1.402-.589-4.368-.716-4.14-.614-4.292-.627-2.855-.422 1.885-1.527-.58-1.37-1.374.254-1.26.326-.766-2.135.975-.263-.9-2.783-.929-2.865-.893-2.765-.914-2.831 3.622-1.814 2.707-1.356 3.787-1.897 3.652-1.83 3.48-1.743 3.83-1.92 3.428-1.717 3.141-.697.666-.544 1.432-2.344 1.224-2.004.064-.464.005-2.84.215-3.337.408-1.782.704-1.575.65-1.148.063-1.077-.09-1.093-.67-1.65-.698-1.72.077-1.657.13-.888.437-1.418.744-1.038.8-.642 2.986-.662 1.77-.394 2.372-1.838 1.407-1.09 1.96-1.728 1.443-1.272.116-.44-.001-.174 1.239-.257 2.297-1.542 1.352-1.441.428-.128 1.209.473.863.13 1.994-.544 1.186.287.996.364.558.025 2.674.897.668.115 1.379.115 2.055.051 1.325-.584.935-.566.659.013.637.136.534.242.456.423.212.604-.09 1.929.202.51.361.366.462.064.559-.418.977-.61 1.202-.667.896-.61.51-.227.811.025.788.102zm-114.835 56.376-.675.077-1.577.599-.213.18-.278.348-.051.268-.225 2.87-.858-.076-1.045-.627-.204-.542-.315-.186-.745-.064-1.414-.275-1.64.947-.697 1.563-.141.73-.558 1.537.197.947.09 1.215.14.998-.147.6-.313.32.09.23.28.129.897-.269.946.269.907.511.076.333-.643.192-1.519.78-1.07.908-.28.845-.72 1.786.101.371.35.218 2.473-.192 2.245-.73 1.688-.767h.536l-.354 1.969.009.006-.293 1.202.115.205.379 1.049-.72 1.92-.805 1.561-.285.742-.783 1.648-.8 1.913-.428 1.318.102.473-.198 2.417.115.691-.939 2.095-.188 1.036-.377 1.406-.646 2.968-.884.997-.44-1.112-1.008-3.175-.716-2.173-.978-2.679-1.65-3.256-.151-.78-.356-1.139-1.138-2.962-.928-2.138-1.064-2.728 1.318-1.087.026-.896 2.243-2.083-.026-.205-.598-.55.09-.128 2.486-3.88 1.604-3.847 1.51-5.342 1.075-2.72.91-1.797.403-1.49 1.468-.103 1.095.16 1.309.051 1.048-.56.504-1.676.598-.268.302.395.31-.44 1.372-.737.678-.476.68-.587.364-.206-.225.784-.186.51v.67l.278.367.38.73.233.727-.494.602.051.63.132.528.403.62-.724 1.117-.709 1.023z" transform="translate(0 -712.52)" id="path16" />
    <path style="fill:#fff;fill-opacity:1;fill-rule:evenodd;stroke:#505050;stroke-width:.5;stroke-linecap:round;stroke-linejoin:round;stroke-miterlimit:4;stroke-dasharray:none;stroke-opacity:1" class="polygon" d="m188.877 864.23-1.897 1.498-.445.166-2.465.614-5.041 1.267-3.378.844-4.318 1.087-3.587.908-3.553.896-3.288.831 1.877 1.743 2.868 2.666 1.912 1.778 2.257 2.287 2.015 2.043 2.137 2.165-1.499.73-2.47 1.202-.254.217-.208.23-1.024 2.158-.804 1.699-.275.217-3.451.627-3.484.627-2.197.396-.658.435-1.434 2.118-1.48 2.187-2.472 1.787-2.742 1.98-.678.128-1.983-.307-3.39-.524-3.277-.499-2.243-.345-2.724-.422.402-1.675-.115-.908.646-2.967.378-1.406.188-1.036.938-2.095-.115-.691.199-2.417-.09-.474.427-1.318.801-1.913.783-1.647.285-.742.805-1.562.718-1.92-.378-1.049-.115-.204.293-1.203-.01-.006.355-1.968.19-1.062.434-1.408.763-1.19-.352-2.805.038-1.512.477-1.724-.263-2.016.225-2.87.051-.268.278-.348.213-.18 1.577-.6.675-.076 1.374.27.79.602 1.317 1.7 2.05.495.825.483 1.123.903 1.37.327 4.338.563 3.462-1.896 2.924-1.602 3.324-1.82 2.26-1.238 3.858-2.111 2.54-1.335 3.342-1.757 3.299-1.735.914 2.831.893 2.766.929 2.865.9 2.782-.974.263.764 2.135 1.262-.326 1.374-.253.579 1.37z" transform="translate(0 -712.52)" id="path18" />
    <path style="fill:#fff;fill-opacity:1;fill-rule:nonzero;stroke:#505050;stroke-width:.5;stroke-linecap:round;stroke-linejoin:round;stroke-miterlimit:4;stroke-dasharray:none;stroke-opacity:1" class="polygon" d="m305.658 896.21-.73.281-.494-.127-.475-.691-.781-1.709.426-.64-.013-.268.09-.205.24-.128.252-.806.335-.243.55.55 1.541 1.966-.01.806-.09.32zm-1.781.128.09.588-.692-.128-.525-.23-1.007-.243-1.946 1.654-1.18.908-.038.307 1.57.346 1.15-.012.804-.243.681.384.447 1.023.18.831 1.067 2.96.884.998 1.104 1.765.409.908.235.768.676 1.138h-9.865l-1.128-1.215-.382-1.325-.408-1.36-1.127-1.94-3.766-.474-2.003-.243-3.292-.37-2.473-.282 2.076-2.09.967-1.126 1.746-2.431.896-1.73.866-1.922.747-1.495.158-.269.433-.511.96-.512 1.382-.486 2.347-.218 1.65-.011h.37l1.039.243 2.875 1.202-.064.474.41 1.408.917 1.537z" transform="translate(0 -712.52)" id="path20" />
    <path style="fill:#fff;fill-opacity:1;fill-rule:evenodd;stroke:#505050;stroke-width:.5;stroke-linecap:round;stroke-linejoin:round;stroke-miterlimit:4;stroke-dasharray:none;stroke-opacity:1" class="polygon" d="m146.97 847.51-.362.206-.68.587-.679.476-1.371.737-.311.44-.302-.395-.599.268-.504 1.676-1.047.56-1.31-.051-1.093-.16-1.468.102.595-.976.62-1.266.612-1.71 1.08-1.417 2.24-4.813 1.29-1.95.461-2.763 2.001-2.42 1.498-.715.723-.692-.026-1.046 2.236.008 1.439-.051.418-.588 1.12.267.629.567-.567.596-.798.686.051.175.596.052 1.012.37.624.433 1.031 2.7-.637 1.112-.992.991-.444.09-.87.492-.73.674-.255.427.051.398 1.031.5.026.202-.211.158-.833-.115-1.074-.052-.635.001-.737.102-.937.61-.418.4-.227.26-.334.828.375.57.704.32.102.165-.156.29-.7.356-.524.439-.151.446z" transform="translate(0 -712.52)" id="path22" />
    <path style="fill:#fff;fill-opacity:1;fill-rule:nonzero;stroke:#505050;stroke-width:.5;stroke-linecap:round;stroke-linejoin:round;stroke-miterlimit:4;stroke-dasharray:none;stroke-opacity:1" class="polygon" d="m439.28 1016.516-.806.192-.232-.128.004-1.62 1.877-2.037 1.233-2.353.85 2.103-1.48 1.176-.804 2.01zm-29.855-60.89 1.303 3.362 1.929 3.146 1.707 1.737 1.77 2.359 2.693 2.167 1.239.742 5.007 1.523 2.734.563 3.778.55 2.61 1.19.878.127 1.366-.345h.998l2.495 1.615.733 1.532 1.038.805.92 1.28.595 1.332 2.108 2.03 1.487 2.283 1.515 1.695 1.352 1.049 2.053.41 1.632.473.183 1.125-.167 1.476-.312 1.087-1.524 2.125-.362 1.31-1.727 2.163-1.868 3.626-.857.806-3.016 1.871-2.213 2.254-2.626 3.91-1.998 3.878-.768 1.241-1.605.256-1.058-.128-.729-.371.29-1.062.172-1.176-.967.127-.85.244-1.993 2.9-1.092 1.28-.233 1.616-.53 2.087-.78 1.92-.346 1.612.012.921.585 2.235.038 2.288.338 1.374.272 1.647-.935.512-.802.243-3.17.18-3.215.524-2.806.959-1.679.946-2.186 2.126-1.334 5.39-2.14 2.277-1.447.473-3.488.205-4.909.627-1.723.55-2.862 3.295-.22 1.036.554.742.181.831-.26.78-1.298 2.089-1.402 1.518-3.738.947-1.372-.563-1.255-.281h-2.424l-3.95.358-1.455 1.125-2.29.793-2.117 1.228-3.992.474-2.713.959-.777-1.687-.776-1.686-.775-1.686-.777-1.686-.542-1.176-.913-.423-.554-1.253-.565-1.28-.567-1.278-.565-1.28-.566-1.278-.566-1.28-.566-1.279-.565-1.279-.567-1.279-.565-1.279-.566-1.279-.565-1.28-.567-1.278-.565-1.28-.565-1.278-.567-1.28-.565-1.278 1.802-.602 2.201-.729 2.201-.729 2.2-.729 2.2-.729 2.2-.73 2.201-.728 2.201-.73 2.2-.728 2.2-.73 2.2-.728 2.201-.73 2.201-.729 2.2-.729 2.201-.729 2.2-.729 2.2-.729 1.36-.448.564-1.705.47-1.416.466-1.416.47-1.416.468-1.415.467-1.416.468-1.416.47-1.416.466-1.416.468-1.416.468-1.416.468-1.416.469-1.416.468-1.416.468-1.416.468-1.416.468-1.416.43-1.297-.81-1.253-1.087-1.679-1.138-1.753-1.07-1.652-.779-1.202-.938-1.448.102-1.866-.026-.934.103-1.43.899-1.985 1.061-2.526.776-1.68.67-1.46.54-1.177.295-1.202-.157-.857-.352-.307-.298-.397 1.016-.64 1.902-.422 1.055.128 1.472-.307 1.164-.281.09-.384-.332-.64-.482-.92-1.65-.128-.497-.256.573-1.37-.025-.435-.22-.511-.238-.857.115-1.113.337-.755.004-.601-.16-1.254.05-1.112.347-.55.613-.512.577-.256h.605l.48.218.205.588-.133.397h-.341l-.115.166.487.78.71.768.546-.128.614-.602.642-.486.808-.422.585-.831.504-.537zm-1.357-3.28-.533.346h-.38l.077-.678.228-.473h.551l.133.281zm1.892-13.962-.154 1.522-.012 1.267-.548 3.89-.566.677-.283.55-.115.755-.247.294h-.371l-.843-.243-.499-.588.09-.717.025-1.308.237-1.24-.064-1.31-.652-.268h-.46l1.074-1.847.42-.281.397.128.986-.192.523-.998.412-.55h.44zm-282.442-63.517-1.317 1.087-.42-1.074-.184-.384 2.42-2.062 1.15-1.292.6.55.012.205-2.243 2.084zm15.133-8.851.352 2.806-.762 1.19-.435 1.407-.19 1.061h-.535l-1.69.768-2.244.729-2.473.192-.35-.218-.101-.37.72-1.787.28-.845 1.07-.908 1.52-.78.643-.205-.077-.332-.907-.512-.945-.269-.898.27-.28-.129-.09-.23.314-.32.145-.601-.139-.998-.09-1.228-.196-.946.557-1.536.141-.73.697-1.564 1.64-.947 1.414.275.746.064.315.186.203.542 1.045.627.858.076.264 2.017-.477 1.724z" transform="translate(0 -712.52)" id="path24" />
    <path style="fill:#fff;fill-opacity:1;fill-rule:evenodd;stroke:#505050;stroke-width:.5;stroke-linecap:round;stroke-linejoin:round;stroke-miterlimit:4;stroke-dasharray:none;stroke-opacity:1" class="polygon" d="m343.936 960.383-1.15.256-1.084.281-.903-.008-.725-.127-.482-.269-.93-1.087-.656-1.402.403-.78.138-.486-.888-3.696-.291-2.837.102-.575.508-.665.844-1.48.45-1.424 1.27-3.292 1.343-1.267 1.972-.933 1.622 1.818 1.97 1.39.373 1.554-.58 1.266-.531 2.013.318.921.115.806.536 1.347.518 1.746.09 1.215-.282 1.126-.684.946-1.35 2.847-.402.295z" transform="translate(0 -712.52)" id="path26" />
    <path style="fill:#fff;fill-opacity:1;fill-rule:nonzero;stroke:#505050;stroke-width:.5;stroke-linecap:round;stroke-linejoin:round;stroke-miterlimit:4;stroke-dasharray:none;stroke-opacity:1" class="polygon" d="m225.233 1061.324.988.128-.406-.41-.09-.204.43-.589 1.413 1.216-.039 1.436-.115.333-.385-.307-.247-.307-.077-.32-.391-.358-1.376.23-.856-.397-1.224-1.215-.326-.87.511-.166.539-.422.343-.69-.314-.717.727.128.392.73.077 1.664.115.359-.202.383zM160.178 950.46h-.34l-.896-.87-.527-.64-.535-.421-2.453-.87-.332-.55.374-.563.263.55.443.32 2.031.78 2.263 1.704.389.14zm-3.916-4.217-.115.179-.54-.448.025-.985.463-.562-.038.767.2.78zm103.874-44.524 4.27.345 5.738.46 5.766.461 5.203.41 2.238-.422 2.474.281 3.292.371 2.002.243 3.767.473 1.126 1.942.408 1.36.383 1.323 1.128 1.216h9.864l.718 1.202.313 1.202 1.322 2.846 1.885 2.22.45.805.304 1.215-.327.448-.13.525 1.398 1.215 2.309 1.023.903.256 1.023.447-.798.704 1.362 1.626 1.582 1.657 1.694.371 2.287 2.506 3.449 1.623 2.093 2.127h-.193l-.614-.217-.77-.294-.234.268.039.896.204 1.048 1.067.909.95.652.369 1.228-.747 2.66-.259-.002-.502-.23h-.539l-.285.153.632 1.914.63 1.467.759 1.164.63 1.701.542.73 2.224 1.807.682 1.51.632 2.814 1.394 1.572.75 1.203 1.009 1.023.656 1.402.93 1.074.482.269.725.128.903.008 1.084-.282 1.15-.268.901.55.931-.128.09.511-.62.691-.768 1.746 1.092.281 1.043.141.742.282.43.003v.358l.05 1.656.262.627.47.563.704.831.703.844.704.845.705.83.703.845.705.844.703.832.704.844.705.831.703.845.705.844.703.831.704.844.705.845.703.831.704.844.582.69 1.075.129h.343l.969.128 1.505.179 1.952.243 2.308.281 2.58.32 2.757.333 2.846.345 2.846.345 2.757.333 2.578.32 2.31.281 1.952.243 1.504.18.97.127h.342l1.014.128h.193l.85-1.023.939 1.448.777 1.202 1.07 1.651 1.14 1.755 1.087 1.677.81 1.253-.43 1.299-.469 1.416-.468 1.416-.468 1.416-.468 1.416-.468 1.415-.468 1.416-.469 1.416-.468 1.416-.467 1.416-.469 1.416-.468 1.416-.467 1.416-.468 1.416-.47 1.416-.466 1.416-.47 1.416-.564 1.705-1.359.448-2.201.729-2.2.729-2.2.729-2.2.729-2.201.73-2.201.728-2.2.73-2.2.728-2.2.73-2.201.729-2.201.729-2.2.729-2.201.729-2.2.729-2.2.729-2.201.729-1.803.601-3.001.41-2.917.396-3.282.435-3.944.537-3.093.422-4.514.614-4.046.55-3.798.512-3.798.512-3.233.434-1.923.5-2.266 1.112-3.478 1.699-3.545 1.73-1.837.896-1.925 2.302-.975 1.164-1.761 2.107-1.332 1.59-1.587 1.899-.694 1.69-1.069 2.614-.923.665-1.514.844-1.378.602-2.147-.128-1.224-1.607-1.298-1.702-.651-.678h-.583l-2.156.217-2.599.256-3.064-.281-3.535-.32-3.314-.307-1.647-.23-2.174-1.1-.561-.218h-5.704l-2.562.346-2.454-.128-2.542.204-.895.422h-.994l-.62.371-.546.18-.648-.32h-.794l-1.168-.269-.762-.716-.719-.64-.742-.345-.831-.218h-.719l-.92.384-.561.371-1.423 1.24-.064.448.647.742-.198.346-.836.435-.256 1.176-.128.653-.128 1.54.372 1.215.498.447.025.525-.272 1.049-.77.32-.563.984-.347.46-.605.525-2.392 1.758-.128-1.023-.757-1.514-.051-1.061-.352-1.075-.657-.818-1.209-.857-.115-1.164-.884-1.151-1.173-.934-.65-1.717-.493-2.28-3.092-2.999-3.866-2.767-1.177-1.56-1.923-3.178-.971-2.511-2.587-2.89-.115-1.114-.384-1.354-.597-1.508-.36-1.19-2.593-5.218-.836-.832-.72-1.164-.187-.895-.23-.5-1.832-.856-1.71-2.187-5.136-3.486-2.514-.345-1.993-1.24-1.466-1.63-1.567-2.805-2.751-3.032-2.335-4.301.73-1.566-.05-1.1-.717-1.855-.783-1.432-.536-1.354.426-1.94.164-2.173.46-1.151.332-1.267-.434-2.55-.776-1.366.076-.908-.878-.448-.715-.985.744.003-1.35-1.373-.495-.767-.51-1.864-.652-1.422-2.094-3.228-1-1.969-2.242-2.548-2.433-1.88-1.545-.857-.743-.78h-1.263l-1.376-1.113h-.962l-1.216-.18-1.434-2.14-1.183-2.005-2.017-2.612.506-.678.587-1.112-.293-1.45-.321-.986-.89-1.797-2.917-4.477-.774-.652-1.247-.755-.77-1.939-.35-1.738-2-.844-3.443-6.267-1.993-2.188-.79-1.474-2.307-2.422-1.134-2.41-2.324-2.22-2.014-3.856-3.113-3.85-1.307-.665-3.208-.281-1.349-.282-1.242.845-.115-1.075.859-1.481 1.235-3.11.246-2.728 1.94-8.096 2.724.422 2.243.345 3.277.499 3.39.524 1.983.307.678-.128 2.742-1.98 2.472-1.788 1.48-2.187 1.434-2.117.658-.435 2.197-.396 3.484-.627 3.451-.627.275-.217.805-1.7 1.023-2.158.208-.23.254-.218 2.47-1.202 1.5-.73-2.138-2.165-2.015-2.041-2.257-2.287-1.912-1.78-2.868-2.664-1.876-1.744 3.287-.832 3.553-.895 3.587-.908 4.318-1.088 3.378-.844 5.041-1.266 2.465-.614.445-.153 1.897-1.497 2.856.422 4.29.627 4.141.614 4.369.716 1.401.588 4.214 2.148 2.738 1.396 3.198 1.628 3.999 2.037 2.745 1.4 3.514 1.79 2.74 2.046 3.468 2.592 3.811 2.846 3.139 2.213 4.32 3.048 4.258 3.002 4.168 2.941 3.34 2.355 4.222 2.979z" transform="translate(0 -712.52)" id="path28" />
    <path style="fill:#fff;fill-opacity:1;fill-rule:evenodd;stroke:#505050;stroke-width:.5;stroke-linecap:round;stroke-linejoin:round;stroke-miterlimit:4;stroke-dasharray:none;stroke-opacity:1" class="polygon" d="M229.982 800.48v.174l-.114.44-1.443 1.273-1.961 1.728-1.407 1.09-2.372 1.837-1.77.394-2.985.662-.8.643-.745 1.037-.438 1.418-.129.888-.077 1.658.699 1.72.67 1.65.09 1.09-.065 1.078-.65 1.148-.703 1.575-.408 1.782-.215 3.336-.005 2.84-.064.465-1.224 2.004-1.433 2.344-.665.544-3.141.697-3.428 1.717-3.83 1.92-3.48 1.743-3.652 1.83-3.787 1.897-2.707 1.356-3.622 1.814-3.3 1.734-3.342 1.757-2.54 1.335-3.858 2.111-2.26 1.238-3.323 1.82-2.925 1.602-3.46 1.896-4.34-.562-1.37-.328-1.122-.903-.825-.48-2.05-.496-1.318-1.7-.79-.602-1.373-.27.181-.606.709-1.024.724-1.116-.403-.62-.132-.529-.05-.63.493-.602-.233-.726-.38-.73-.279-.368.001-.669.186-.51.225-.784.583-.43.151-.446.525-.439.7-.357.155-.289-.102-.165-.704-.321-.374-.57.333-.828.227-.258.418-.4.938-.61.736-.103h.635l1.074.05.833.103.211-.158-.026-.202-1.03-.5-.052-.398.256-.427.73-.674.869-.492.444-.09.992-.991.637-1.112-1.03-2.7-.625-.433-1.011-.37-.597-.052-.05-.175.797-.686.567-.596-.628-.568-1.12-.266-.419.586-1.439.051-2.236-.007-.984-2.85-.146-1.235.025-1.429.68-2.091-.32-.968-.026-.653-.174-.898-1.765-1.93.962-3.55.678-.862.958.077 2.044 1.006.336-.026.618-1.326.6-.45 1.262-.394.356-2.146.59-.411.71-.22 1.093-.039.95-.129.064-.377-1.329-2.48.115-.626.642-2.494.403-.976.387-.319 1.509.128 2.113.439.558.716 1.035.637 1.55-.038 1.786.115 1.398.038 1.115-.448 2.517-.836 1.25-.28 1.134-.371 3.646-1.368 1.46.102 1 .18.764.218 1.718.937 1.418.946.993.281 1.79-.025 2.582.18 3.176-.013 1.852-.264 2.367-.466 4.22-1.118 5.55-2.338 3.266-1.136 1.406-.133 1.833-.013 1.832.298 2.079.211.958-.013 2.25-.235 2.917-.473 1.833-.388 2.213-.635 1.382-1.057.446-.115.573.192.269.077.566.6z" transform="translate(0 -712.52)" id="path30" />
    <path style="fill:#fff;fill-opacity:1;fill-rule:nonzero;stroke:#505050;stroke-width:.5;stroke-linecap:round;stroke-linejoin:round;stroke-miterlimit:4;stroke-dasharray:none;stroke-opacity:1" class="polygon" d="m20.352 761.752-2.939.396-.912-.39.92-.772 1.713-.478.558-.051.751.77zm116.96-23.287.103.843 1.114 1.236 1.133.843 3.33 1.21 4.627-1.02.746.115.941.285 1.63 3.275 1.27 1.156 1.623.787 1.334.154.99-.82.768-.332 1.671-.14 2.74 1.127.95 1.164 4.665.9 4.28.45 1.848.985 6.025.99 2.25-.154 3.775-1.037 7.345-1.136 4.88 1.585 1.32.206 1.14-.137 1.64.436 1.75-.234 5.402-1.868 1.688-1.06 1.79-.273 1.588-.635 4.23-2.078 1.225-1.2.85.26 1.602.328.992.398.564.102 1.308-.81 1.944.026 1.706.09.88.149 1.08.269 1.305.181.53-.386.762-1.141.294-.146.21-.102.967-.09.917.09.432.194.433.912 1.088.326 1.924 1.459 1.175.584.285.246-.387.295.15.364.674.477.944.179 1.019-.064.555.174.397.27.102.377-.026.24.203.543.795.766.95.468.51.502.828 1.725.336.954-.128.918-.576.943-1.26 1.173.312.49.283.648-.09.47.892 1.5.405.931-.34.215-.219.298 1.606.717 1.922.603.81.115 2.21-.276 1.422-.064 1.412.57 2.057 1.384 2.217 1.805.441.55.193.241.433.438-.45-.008-.73-.393-1.763-1.11-.9.477-.777.825-.852 3.13-.69.333-1.215-.009-1.489-.102-1.024.157-.265.198.134.338.304.514.214.651.064.534.54.482.725.458.026.47-.115.663-.168.505-.183.287.337.767.788.91.502.348-.188 1.731.296.768.226 1.06-.09 1.761.103.433.27.148.719.064.705.164.243.289-.004.211-.88.808-.103.575-.304.808-.25.476-.785.902-.5.915-.225.756.148.357 1.45.103.786.543 2.09 1.082.368.439-.57.668.01.279.27.354.127.619-.051.688.011.908.385.15 1.42.852 1.011.854.038.264-.492.674.102.776-.025.178-.438-.293-.788-.102-.81-.026-.511.228-.895.61-1.203.666-.977.61-.559.419-.462-.064-.36-.366-.202-.51.089-1.93-.212-.603-.456-.424-.534-.241-.637-.136-.659-.013-.935.566-1.325.584-2.055-.051-1.38-.115-.667-.115-2.674-.897-.56-.026-.996-.363-1.185-.288-1.994.545-.863-.13-1.209-.473-.428.127-1.352 1.441-2.297 1.542-1.24.257-.59-1.547-.566-.601-.268-.077-.573-.192-.447.115-1.381 1.057-2.214.635-1.832.388-2.917.473-2.25.236-.959.025-2.078-.212-1.833-.298-1.832.013-1.407.133-3.265 1.135-5.551 2.339-4.22 1.118-2.367.465-1.852.264-3.175.013-2.583-.18-1.79.025-.993-.282-1.418-.946-1.717-.936-.765-.218-1-.18-1.46-.102-3.645 1.367-1.135.373-1.25.28-2.517.836-1.115.448-1.398-.038-1.786-.116-1.55.039-1.035-.637-.556-.716-2.114-.44-1.509-.127-.386.317-.403.976-.642 2.495-.115.625 1.329 2.48-.064.377-.95.13-1.093.038-.71.22-.59.412-.356 2.145-1.263.394-.6.45-.617 1.326-.337.026-2.043-1.005-.958-.09.822-1.044-.893-2.058-.974-1.929.92-1.234 1.904-1.489 2.005-1.743-.004-1.075-.102-.822-.575-.567-1.102-.755-1.847.806-1.317.889-.861.18-.935.508-.455.914-1.129.714-1.845.279-2.775-.764-2.98-1.161-1.688-.942-1.377-.223-1.307.413-3.86 2.306-3.533 3.37-.876.583-3.327 1.448-2.2.486-1.036-.115-4.378.637-2.175.09-1.723.764-3.338-.829-1.996-1.06-1.202-1.077-1.96-2.318-1.388-1.103-3.122-.991-5.441-2.409-1.431-.263-3.714-.345-3.917-.218-.793.876-.3 3.471-.671.955-.288 1.8-.48.518-.752.34-1.175-.567-.816-.25-1.899.74-3.76 1.04-1.281.147-4.359-1.307-1.595-.839-1.028-.93-.348-1.572-.647-.895-.09-.616-.253-.707-.877-.28-.943.533-1.01-.025-1.27-.328-2.993-1.316-2.301-.103-1.383 1.607-1.076.51-1.178.153-.064-.457.893-1.038-3.584.192-1.892.791-1.477-.127-1.106-.357.166-.438 1.123-.16.975-.355 3.883-.29.907-.29.993-1.13 1.809-.973.23-.418-1.39-.006-5.952.283-4.086-.156-.485.482-.614.064-.17-1.312.646-.61.87.05 2.134-.53-.19-1.09-1.53-.737-.31-.434-1.109-.103-.9-.518-.195-1.308-.716-1.435-1.023-.694.127-.382 1.875-.482.39-2.006-.287-1.232-.943-.103-2.748-.972-.834.103-.91-1.068-1.595-.768-.789.282-.495.346-.738-.166-1.238-.667-1.215-.359-.54-.444.677-1.188.931.026.17-.932-.734-1.551.077-.797.812-.217.925.15.933.927.305.896-.196.874.592.847.421.213.284-.89.397-.169.544.389 1.17.194 3.035-.547.583-.463-2.223.051-.814-.433-.882-.97-.544-.88-.102-.432-.307-.632.339-.34 1.522-.507 1.337-1.42-.558-.413-.637-.194-.692.144-.656-.486-.09-.676.525-.548.051-.753-1.717-1.855-.48-.404.37-.607 1.311-1.015 1.25-1.258-.15-.413-.923-.169-4.387.54-1.705.468-3.04.214-.22-.683.065-.615.682-1.122-.064-2.766.402-1.499 1.69-.446 2.071-2.204 3.36-2.596 3.506.051 1.401-.716 2.084-.039.378.52.237.5 1.829.716 3.229-.115.784-.283.757-.395-1.493-1.277.477-.359 1.353-.038 1.466.3.064.293-.39.4-.454.703.431.135 4.176-.423 4.365.34 1.389-.184 3.43.013.615-.44-1.038-.553-1.015-.192-.683-.268-.682-.392 2.176-1.234 1.23-.238 5.8-.758 4.315-.38.05-.282h-.62l-5.576-.628-1.342-.486-1.867-1.158-.404-.327-.47-.565.28-1.203.345-.967.688-.56 2.227-.09 7.637.984 5.444-.59 5.95 1.433 5.69-.29 1.173-.643 1.424-2.074 8.038-3.443 2.815-1.796 3.015-.982 5.174-1.092 4.324-1.444 1.236-.166 10.381.69 7.131.089 3.274-1.361 1.899.456-.178.486zm-99.144-.871 1.432 1 .769.334.575-.155 1.039-.363.994-.002.803.064.387-.318.605-.063 1.73.225-.348 1.46.806 1.608 1.888 2.234 1.9 1.127 7.68 2.788 1.412.238-.321 1.142-.462 1.014-.508.677-2.25.435-6.209-1.245-1.57-.115-1.108.248-2.05.905-2.275-.29-3.172.512-.885 1.704-2.202 1.952-3.625 1.578-2.59.844-3.89 3.026-1.765 1.766-.745.343-.882.27.296-.847.438-.777-.102-.584.012-.85 1.298-.967 1.18-.7 3.49-1.27.918-1.053-2.737.025-2.778.234-1.749-.15-1.519.09-.482-.922-.368-.555.394-.173.504-.115.891-.984.797-.725 1.149-.912.295-.545v-.507l-.275-.352-.05-.418-.04-.591.065-1.222 2.632-1.335.842-.14.29-.61-.194-1.411-.363-1.14-.47-.077-.634-.332-.415-.385-.666-.422-1.147-.259-.038-.36.115-.359.423-.368 1.932-.317.23-.26.26-.64.384-.654.455-.216.818.025 1.55-.15 1.08-.214 1.074-.448.55-.407 2.323-.236.653-.208.647.176zm337.684 375.901.788.154 1.198-.448h3.439l4.14 1.424-.78.37-.464.512-1.822.474-1.814 1.1-5.253.537-1.54-.294-1.266-1.062-2.348-1.379.93-.882.197-.397.346-.384 1.33-.665 1.325.128zm-140.794-13.653-.845.397.578-1.01.592-.205h.165zm.403-3.417-.169.268-.233-.128-.793-.678.871-.767.463.704zm-2.522-17.038-.403.282-.128-.5.265-1.112.417-.32.284.832-.18.46zm131.919-22.261.775 1.686.776 1.686.775 1.687-6.449 2.277-1.701 1.01-1.544 1.254-1.156 1.563-.81 2.743.615 2.51-.064 1.344-1.665.895-1.554.64-1.727.972-1.05.243-.858.78-.996.538-3.597 1.414-3.93 1.1-6.244 1.313-2.41 1.418-2.197.972-3.332.294-4.576 1.354-2.542 1.087-3.159 1.761-.702.563-.555 1.297-.972 1.113-1.903 1.837-1.427.946h-.955l-1.85.512-2.19.128-3.683-.64-.945.448-.78.716-2.835 1.266-2.886 2.518-2.112.665-3.414.793-2.39 1.049-1.604.422-2.066.217-3.822-.128-3.625.371-3.356.716-1.578 1.347-1.796 2.129-2.938.882-.692.768-.91 1.57-1.903.409-1.721.255-1.76-.678-3.316 1.895-1.254.307-1.904.128-1.352.396-.973-.128-1.207-.742-2.571-.895-1.878.588-.157-1.793-3.113-5.474.649-4.769-.002-.678-.618-2.128-1.855-1.944.051-2.465-.62-1.764-.494-1.811.16-.486.026-.435-.948-2.791-.317-.563-.115-.588.31-.448-.01-.512-.505-.857-.53-1.63-2.53-1.278.512-1.19.493.422.667.359.134-.768.011-.576-1.057-3.62 1.566-4.827-.516-4.346 2.392-1.756.605-.525.348-.46.563-.985.771-.32.273-1.049-.026-.524-.497-.448-.372-1.215.127-1.54.128-.652.256-1.177.837-.435.198-.345-.647-.742.064-.448 1.422-1.24.562-.371.92-.384h.72l.831.217.742.346.719.64.762.715 1.168.27h.794l.648.319.546-.18.62-.37h.994l.895-.422 2.542-.205 2.454.128 2.561-.345h5.705l.561.217 2.174 1.1 1.647.23 3.314.307 3.535.32 3.064.282 2.599-.256 2.155-.218h.584l.65.678 1.299 1.703 1.224 1.606 2.147.128 1.378-.601 1.514-.857.923-.652 1.07-2.614.693-1.69 1.587-1.9 1.332-1.59 1.761-2.107.975-1.164 1.925-2.302 1.837-.895 3.545-1.732 3.478-1.699 2.265-1.113 1.924-.498 3.233-.435 3.798-.512 3.798-.512 4.045-.55 4.515-.614 3.093-.422 3.944-.524 3.282-.435 2.916-.396 3.002-.41.565 1.28.567 1.278.565 1.28.566 1.279.566 1.279.566 1.279.565 1.279.565 1.279.567 1.279.565 1.28.566 1.278.566 1.28.566 1.278.565 1.28.567 1.278.565 1.28.554 1.253.913.422.543 1.177z" transform="translate(0 -712.52)" id="path32" />
    <path style="fill:#fff;fill-opacity:1;fill-rule:evenodd;stroke:#505050;stroke-width:.5;stroke-linecap:round;stroke-linejoin:round;stroke-miterlimit:4;stroke-dasharray:none;stroke-opacity:1" class="polygon" d="m335.436 942.747-.412.974-.394-.341-.997-1.685.3-1.186-.473-1.69.224-.486 1.2-.223.28.076-.358.541.662.942.102 1.56z" transform="translate(0 -712.52)" id="path34" />
  </g>
</svg>
