<?xml version="1.0" encoding="UTF-8" standalone="no"?>
<svg width="153.509" height="86.001" version="1.1" id="svg6" sodipodi:docname="yemen.svg" xmlns:inkscape="http://www.inkscape.org/namespaces/inkscape" xmlns:sodipodi="http://sodipodi.sourceforge.net/DTD/sodipodi-0.dtd" xmlns="http://www.w3.org/2000/svg" xmlns:svg="http://www.w3.org/2000/svg">
  <defs id="defs10" />
  <sodipodi:namedview id="namedview8" pagecolor="#ffffff" bordercolor="#666666" borderopacity="1.0" objecttolerance="10.0" gridtolerance="10.0" guidetolerance="10.0" inkscape:pageshadow="2" inkscape:pageopacity="0.0" inkscape:pagecheckerboard="0" />
  <g style="display:inline" id="g4">
    <path style="display:inline;fill:#ec8f4b;fill-opacity:1;fill-rule:nonzero;stroke:#505050;stroke-width:.5;stroke-linecap:round;stroke-linejoin:round;stroke-miterlimit:4;stroke-dasharray:none;stroke-opacity:1" class="polygon" d="m375.852 400.976.788.153 1.198-.447h3.439l4.14 1.423-.78.371-.464.512-1.822.473-1.814 1.1-5.253.537-1.54-.294-1.266-1.062-2.348-1.378.93-.883.197-.397.346-.383 1.33-.665 1.325.127zm-140.794-13.653-.845.396.578-1.01.592-.205h.165zm.403-3.418-.169.269-.233-.128-.793-.678.871-.768.463.704zm-2.522-17.037-.403.28-.128-.498.265-1.113.417-.32.284.832-.18.46zm131.919-22.262.775 1.686.776 1.686.775 1.687-6.449 2.277-1.701 1.01-1.544 1.254-1.156 1.563-.81 2.744.615 2.509-.064 1.344-1.665.896-1.554.64-1.727.971-1.05.243-.858.78-.996.538-3.597 1.415-3.93 1.1-6.244 1.312-2.41 1.418-2.197.973-3.332.294-4.576 1.353-2.542 1.087-3.159 1.762-.702.562-.555 1.297-.972 1.113-1.903 1.837-1.427.946h-.955l-1.85.512-2.19.128-3.683-.64-.945.448-.78.716-2.835 1.267-2.886 2.517-2.112.665-3.414.793-2.39 1.049-1.604.422-2.066.218-3.822-.128-3.625.37-3.356.717-1.578 1.347-1.796 2.128-2.938.883-.692.767-.91 1.57-1.903.409-1.721.256-1.76-.678-3.316 1.894-1.254.307-1.904.128-1.352.397-.973-.128-1.207-.742-2.571-.896-1.878.589-.157-1.793-3.113-5.475.649-4.768-.002-.678-.618-2.129-1.855-1.944.051-2.465-.62-1.764-.494-1.81.16-.487.026-.435-.948-2.79-.317-.564-.115-.588.31-.448-.01-.511-.505-.857-.53-1.63-2.53-1.279.512-1.19.493.423.667.358.134-.768.011-.575-1.057-3.62 1.566-4.827-.516-4.347 2.392-1.756.605-.524.348-.46.563-.986.771-.32.273-1.048-.026-.525-.497-.447-.372-1.216.127-1.54.128-.652.256-1.177.837-.435.198-.345-.647-.742.064-.447 1.422-1.241.562-.371.92-.384h.72l.831.218.742.345.719.64.762.716 1.168.268h.794l.648.32.546-.179.62-.37h.994l.895-.423 2.542-.205 2.454.128 2.561-.345h5.705l.561.217 2.174 1.1 1.647.23 3.314.308 3.535.32 3.064.28 2.599-.255 2.155-.217h.584l.65.677 1.299 1.703 1.224 1.606 2.147.128 1.378-.6 1.514-.858.923-.652 1.07-2.613.693-1.691 1.587-1.9 1.332-1.59 1.761-2.106.975-1.164 1.925-2.303 1.837-.895 3.545-1.732 3.478-1.698 2.265-1.113 1.924-.5 3.233-.434 3.798-.512 3.798-.511 4.045-.55 4.515-.614 3.093-.422 3.944-.525 3.282-.435 2.916-.396 3.002-.41.565 1.28.567 1.279.565 1.279.566 1.279.566 1.279.566 1.279.565 1.28.565 1.278.567 1.28.565 1.278.566 1.28.566 1.279.566 1.279.565 1.279.567 1.279.565 1.279.554 1.253.913.423.543 1.176z" transform="translate(-232.158 -319.348)" id="path2" />
  </g>
</svg>
