<?xml version="1.0" encoding="UTF-8" standalone="no"?>
<svg width="251.394" height="118.201" version="1.1" id="svg6" sodipodi:docname="canada.svg" xmlns:inkscape="http://www.inkscape.org/namespaces/inkscape" xmlns:sodipodi="http://sodipodi.sourceforge.net/DTD/sodipodi-0.dtd" xmlns="http://www.w3.org/2000/svg" xmlns:svg="http://www.w3.org/2000/svg">
  <defs id="defs10" />
  <sodipodi:namedview id="namedview8" pagecolor="#ffffff" bordercolor="#666666" borderopacity="1.0" objecttolerance="10.0" gridtolerance="10.0" guidetolerance="10.0" inkscape:pageshadow="2" inkscape:pageopacity="0.0" inkscape:pagecheckerboard="0" />
  <g style="display:inline" id="g4">
    <path style="fill:#3661e7;fill-opacity:1;fill-rule:nonzero;stroke:#505050;stroke-width:.5;stroke-linecap:round;stroke-linejoin:round;stroke-miterlimit:4;stroke-dasharray:none;stroke-opacity:1" d="m362.668 115.164-.382.102-.328-.01-.217-.092-.01-.041.516.039.198-.023.395-.159zm-18.418-1.001-.143.099.035-.097.174-.248.114-.037zm-1.388-1.106-.382.15.148-.383.121-.118.161.04-.022.232zm16.472-2.295-.117.023-.028-.041-.181-.117-.017-.058.158-.055.323.029-.116.147zm-36.158-.272-.343.06-.119-.027.378-.278.433-.065zm.365.331-.218.057-.374-.053-.412.073h-.114l.305-.211.47-.13.469-.397.131-.01-.178.449-.036.16zm7.215-3.986-.258.023.062-.098.352-.176.26-.1h.152l-.249.216zm28.17 2.635.097.023.382-.137.203.01-.01.099-.328.107-.152.081.19.075-.003.051-.228.123-.114.132.094.128.366-.126.15-.001.203.028.193-.038.11-.062.644-.492.034-.063-.694.102-.08-.067.454-.298-.036-.157.23-.247.21-.147.154-.082.224-.076.153.116.05.212.38-.03.372.043.274.09.042.05.003.081-.09.146-.152.12.302.154-.04.067-.494.173-.28.175-.257.216-.514.25-.815.182h-.257l-.307-.056-.304.011-.298.068-.292-.01-.142.035h-.134l-.113-.07-.24-.2-.118-.134-.13-.64.042-.336.204-.314.303-.209.175-.166.733-.988.143-.225.175-.19.314-.19.406-.319.13-.066.233-.031.23.017-.066.115.017.113.266.441-.003.087-.145.351-.28.568-.071.313.037.094-.113.158-.12.12-.478.226-.243.053-.232.084zm-7.684-1.488.077.04.134-.073.158-.23.418.06.221.104.123-.023.127.011.234.137.445.108.47-.017.715-.064.086-.026.735-.053.737-.026.253.06.095.058.049.068-.42.188-.421.218-.586.214-.073.105.036.194-.011.196.115.017.07.066-.151.064-.602.03-.175-.017-.209-.08-.071-.19-.259.028-.078-.023.363-.161-.165-.204-.178.014-.117-.097.01-.13.163-.063.047-.07-.222.06-.17.122-.222.046-.216.104.336.033-.173.08-.179.02-.83-.158-.205-.06-.258-.167-.195-.222.106-.01.036-.04-.022-.038-.29-.03-.452.01-.258-.059.01-.388-.083-.107-.283-.09-.432-.026-.043-.144.137-.22.212-.189.161-.186.188-.152.464-.303-.011.226.045.196-.302.39.525.388.067.086.044.103-.034.096-.084.085.204.042zm5.388-2.316.1.054.18-.01.121.023-.173.105-.333.011-.163-.043.237-.542.277-.124.566-.354.227-.108.21-.043.223.026-.227.21-.303.01-.29.174-.189.193-.228.11-.157.135zm21.828-.446-.14.1-.141-.01.017-.087.174-.167.09-.12.002-.073.032-.056.133-.062.114-.113-.055.21zm-29.196-1.264-.072.207-.248.176-.123.01-.056-.016.068-.114-.01-.197.206-.026.075.017zm.093-.205-.328.147.144-.221.06-.057.055-.026.054.02zm-167.422-2.26-.119.074-.063-.01-.051-.051-.184-.5.078.012.247.155-.056.062.184.149.045.106zm.179-.373-.035.03-.444-.2-.297-.263-.124-.16.588.398.296.132zm138.185 11.024.405-.107.844-.417.623-.15.81-.438.586-.084.112-.096.098-.363.054-.13.273-.356.33-.3.265-.416.481-.266.729-.222.674-.485.369-.148.358-.106.15-.197.221-.113.592-.229.652-.062.659-.19.505-.1.31-.179.451-.094 1.345-.512.374-.24.483-.49.421-.25.149-.266.61-.432.628-.569.313-.407.467-.227.907-.647.487-.259.197-.029.551-.23.342-.239.55-.24.99-.297.933-.355 1.259-.307 1.474-.461 1.193-.247.839-.036 1.02-.115.362.011 1.59.2.762.247.869.52.13.136.019.192-.46-.093-.406-.01.282.106.478.32-.023.4-.27.36-.807.179-.206.141-.167.234-.163.09-.392.104-.216.153-.634.241-.286.029-.329-.058-.792-.228-.488-.219-.244.12-.2.125-.47-.042-.215.055-.354-.062-.725.276.207.032.575-.159.197.017.424.205 1.025.22.266.146.253.464.168.074.352-.048.396-.23.329-.123.643-.1-.127.152.49-.01.484.205-.179.146-.243.294-.171.571-.494.383-.66.377.166.09.193.057.425-.112.284.01.316.072-.098.293-.114.198.066.185.187.353.258.077.103.451.137.247-.02.197.259.127.043.201.936.057.19.078.65.077.123.056.116.111-.637.244.516.176.487.288.384-.056.166.01.43.18.12.089.065.079.216-.017.31-.07.559.017.596.101-.05.155-.09.107.467-.035.291.11.102-.052.072-.068.58-.188.744-.39.091.048.034.148.098.241.286.166.34.038.467-.127.184.11.219.212.208.277-.014.1-.267.086-.241.125 1.006.051.102.053.111.11-.102.11-.095.055-.183-.064-.336.059-.294.143-.314.079-.201.01-.224.066-.203.102-.213.029-.66.255-.677.165-.707.263-.722.166-.749.2-.163.017-.189-.01-.427.195-.212-.026-.216.034-.248-.043-.17-.08.13.206.038.19-.065.083-.12.098-.43-.017-.168-.069-.2-.101-.093-.163-.216-.117-.128.162v.12l-.159.165-.188-.282-.338.104-.148.3.074.085.104.23-.167.119-.124-.033-.257.336-.312.122-.32.343-.381.261-.105.175-.637.4-.242-.012-.179.014-.269.167-.041.336-.119-.045-.12.011-.063.106-.088.017-.235-.1-.277.054-.216-.076-.276-.493-.147-.173-.26-.056-.067.105-.1.101-.251-.203-.19-.755-.002-.182.266-.635.657-.572-.21-.02-.58.397.06-.096.098-.1.196-.162.297-.151.396-.088.272-.014.187-.084.272-.149.05-.079-.24.091-.401.09.103-.118.1-.062 2.14-1.023.431-.17.86-.214.118-.142-.117-.09.333.08-.028.117-.053.085-.02.145.033.14.339.067.282.26-.134-.353.255-.199.979-.266.818-.029.262-.124-.7-.083-.83.045-.512-.093-.708.06-.75-.057-.229.077-.186.166-.242-.073-.117-.01-.113-.058.243-.286.759-.426.463-.37.13-.078.104-.149-.254.026-.222.058-.154-.17-.273-.228-.026.095.137.283-.525.498-.339.035-.452.232-.64.202-.745.385-.964.325-.202.001-.438-.267.123-.122.114-.165-.11.048-.07.072-.264.115.214.222-.103.083-.306.11-.285.158-.25.106-.202-.135-.557.17-.47.047-.1-.086-.03-.137-.165-.033-.305.038-.116-.072-.131-.035-.12-.03-.103-.023-.06.04-.057.053-.07.04-.147-.057-.093-.103-.15-.107-.057-.08.03-.093.067-.09.03-.106-.074-.123-.066-.07-.047-.08.017-.077.094-.037.086-.047.03-.1-.053-.107-.153-.043-.127.017-.184-.023-.176-.066-.117-.077-.09-.043h-.07l-.083-.043-.05-.073.006-.12.022-.073.047-.063.003-.07-.02-.05-.003-.04.014-.05.03-.1-.05-.073-.006-.253-.009-.475-.009-.364-.009-.457-.006-.333-.009-.466-.006-.443-.011-.418-.364-.24-.46-.305-.394-.202-.214-.026-.133.028-.054.081-.294.086-.534.092-.455.143h-.167l-.141-.022-.187-.072-.13-.106-.044-.183.04-.252-.273-.052-.274-.052-.169.174-.16.146-.32.318-.45.446-.249.246-.438.431-.386.38-.087.391-.082.37-.32.282-.194.259-.087.286-.073.263-.006.22.055.116-.025.094-.106.108-.211.188-.038.18-.13.09-.368.178-.3.263-.014.148.043.124.006.077-.06.053h-.12l-.13.017-.11.11.003.157-.08.114-.094.023-.08-.08-.096-.12-.113-.012-.171.08-.212.132-.19.01-.356-.084-.261.255-.28.547h-8.932zM174.39 99.789l.08.257-.349-.041-.121-.05-.006-.123.065-.116.264.042zm203.14-.667-.439.166-.1.065-.121.033-.091-.052-.128-.175.023-.058.12-.01.069.023.017.054.052.028h.088l.325-.17.17-.026.06.033zm1.307-.441.21.184.112.05-.732.2-.088.013-.048-.023-.01-.186.032-.143.054-.023.169.087.175-.178zm-198.943.605.04.06-.632-.222-.27-.13-.104-.094-.068-.054-.32-.14-.054-.065.075-.048.216.03.357.105.32.172zm-7.063-.212-.112.011-.178-.034-.202-.081-.353-.217-.036-.049.032-.042.1-.035.023-.057-.083-.156.284-.098.25.082.113.1.137.179.061.2.006.137zm184.12 1.454-1.188.042-.946-.176-.701-.085-.687-.154-1.489-.495-.17-.172-.143-.211-.285-.193-.308-.158-1.576-.483-.128-.168.318-.11.367-.054.32.01 1.053.19 1.33.165.577.125.654.191.639.231 1.42.616.256.05.642.3.23.227.113.184-.14.094zM177.553 97.87l-.067.026-.07-.322.086-.117.026-.059-.011-.06.15.146.061.098.026.135-.003.036zm-.586-.192-.03.15-.184-.243-.28-.516.037-.12.125-.17.114-.012.184.08.16.142.038.055.099.15.05.133-.111.162zM374.74 95.91l-.095.031h-.088l-.081-.035-.012-.055.084-.115.22-.058.164.014-.012.058-.088.096zm-203.49.225 1.41.355 1.412.175 1.035.207.636.063.23.046.148.073.175.177.303.42.23.268.473.466.374.331.085.132-.079.042.006.077.284.32.533.289.418.137.88.226.54.218.166.151.235.147.098.101.192.376.357.36.368.688.069-.057.042-.205.042-.046.079-.023.073.079.067.181.234.43-.077.125-.067.014-.317-.059-.11.077-.147.156-.104.063-.061-.03-.915-.15-.564-.141-.74-.224-.89-.233-.508-.16-.423-.165-.294-.14-.055-.119.014-.056.57-.38.242-.204.093-.156.047-.166-.035-.201-.023.014-.05.193-.085.172-.102.135-.065.048-.684.066-.553-.02-.277.162-.083.02-.152-.054-.334-.217-.477-.178.047-.044.312-.09.165-.133-.03-.02-.11.01-.098-.028-.194-.171-.111-.047-.236.077-.094.01-.092-.113.131-.261.006-.062-.24.095-.08-.031-.076-.085-.07-.036-.197.017-.212-.078-.074.03-.028.114-.071.029-.324-.19-.074-.01-.157.145-.055.01-.083-.063-.043-.353.017-.1.044-.035.282-.082.809-.088.067-.063-.606.033-.158-.048-.17-.12h-.177l-.093-.04-.099-.086-.256-.32-.174-.08-.298-.051-.153-.06-.065.026-.062.09-.083.058-.203.032-.186-.023-.146-.087-.086-.11-.033-.123.08-.165-.001-.065-.036-.076-.066-.06-.097-.048-.053.026-.009.096-.053.07-.168.054-.138-.094-.09-.13-.107-.093h-.59l-.271.12-.13.01-.136-.028-.025-.064.127-.174-.031-.232-.033-.058-.272-.035-.047-.056.162-.282.09-.053.121-.02.54-.023.18.04.26.171-.009-.065-.098-.194-.014-.116.179-.132-.172-.039-.64-.03.007.084.053.12-.38.104-.28.017-.27-.017-.22-.063-.373-.252-.235-.247.012-.136.128-.142.168-.096.399-.084.52-.01.582.113zm203.71-2.544-.21.282-.144.138-.134.045-.284.04-.598.045-.255.042-.037.189.038.099.088.078.11.023.248-.047.092.01.074.039.056.07.029.099.002.126-.043.153-.203.357-.257.198-.33.161-.08.062-.042.072-.041.235-.171.188-.53.477-.204.105-.001.084-.083.226-.157.182-.44.417-.108.148-.05.117.007.165-.02.073-.1.14-.14.13-.03.064.056.116.057.04.006.105-.044.17.186-.108.415-.386.311-.233.209-.079.145-.103.155-.227.212-.217.193-.071.088.041.074.106-.014.136-.104.164.009.048.245-.12.42-.1.152.014.309.15.256-.018.41-.087.077.04-.068.132-.161.126-.38.18-.916.353-.284.243.054-.01.197-.104.208-.056.218-.01.09.03-.035.07-.028.186-.555.364.131-.014.642-.166.39.23.534-.08.323-.077-.009.048.07.1-.002.162.033.023.153-.054.028-.06-.009-.286.047-.03.105.046.064.074.02.208-.07.21-.098.192-.236.281.03.12-.06.132.052.01.234-.123.014-.05-.017-.116.026-.057.194-.127.32-.15.106-.023.044.035-.014.093.095-.023.205-.137.19-.083.175-.029.183-.094.189-.159.204-.131.218-.104.094-.01-.032.172.043.195.006.167.043.035.168-.178.094-.065.111-.026.13.014.89-.064.27.044.306.117.384.18.142.164.029.206-.038.143-.278.181-.247.12-.145.119-.045.12-.057.072-.165.103-.733.288.176.01.422-.062.278-.014.014.042-.11.082-.213.082-.023.04.012.052.227.062.29-.03.244.044-.023.07-.194.224-.057.142-.258.118-.517.187-.133.072.03.014.474-.137.24-.035h.151l.172-.132.268-.044.262.084.4-.228.142-.03.243.027.157-.041.264-.156.2-.075.04.01.043.062.02.18-.047.158-.065.101-.214.223-.132.078-.122.029-.216-.011-.094.035-.202.175-.357.177-.223.07.14.095.053.186-.078.058-.383.057-.017.032-.137.041-.316.064.216.028.399-.045.042.031-.056.13-.106.135-.473.347-.006.035.074.17.092.128.114.09.263.01.195-.04.284-.23.628-.722.56-.2.467-.224.107.045.049.052-.017.054-.236.184-.123.151-.32.466-.122.22-.061.231.017.4.034.07.1.092.187-.08.317-.198.204-.189.16-.308.098-.118h.107l.095.067.022.149.089.202.052.206-.042.226-.043.123-.65.918.07.163.017.099-.02.105-.206.439-.2.275-.107.117-.128.072-.148.026-.133-.04-.117-.105-.103-.055h-.09l-.167.02-.438.224-.09.01-.062-.03-.076-.117.06-.59.04-.196-.088-.151.092-.253.003-.096-.053-.036-.111.023-.168.127-.224.23-.243.206-.425.284-.189.056-.075-.014-.086-.04-.116-.118v-.105l.052-.142.178-.338.347-.499.288-.355.055-.151-.08-.066-.065-.13-.11-.384-.14-.317-.166-.14-.41-.154-.076.037-.044.213-.485.613-.085.266-.06.098-.092.067-.211.082.057-.142.225-.316-.03-.03-.286.253-.218.14-.266.037-.16-.01-.157.039-.664.6-.026.2-.115.163-.327.296-.173.102-.242.017-.222-.051-.146.01-.345.093-.387.04-.16-.02-.101-.038-.197-.115-.023-.082.011-.048.1-.124.23-.155.19-.058.459-.078.337-.117.256-.172.114-.106.483-.54.611-.191.302-.155.21-.198.03-.069-.301.1-.156.027-.253-.037-.112-.067-.347.02-.482-.031-.07.052-.062.262-.062.14-.074.047-.108.028-.22.028-.564-.094-.104-.051-.144-.04-.623.087-.13-.01.124-.062.615-.193.064-.555-.038-.089-.172.077-.288.08-.198-.023-.09-.049-.083.042-.2.293-.12.037-.177.011-.38.107-.746.07-.148.077-.506-.028-1.48-.161-.529.017-.636-.098-.118-.042-.891.017-.267-.023.017-.122-.028-.031-.259.135-.23.087-.296.075-.931.13-.5.028-.29-.09-.115-.09-.173-.292-.118-.366v-.066l.06-.127.196-.176.884-.465.71-.47.3-.245.291-.087.475-.204.014-.023-.46.026-.324-.056-.33-.023-.629.054h-.633l-.002-.104.296-.196.63-.337.064-.001-.193.157-.055.117.083.078.096.05.36.02.083-.069.13-.361.273-.42.147-.301.256-.23.128-.035.113.043.377.055.387.21.126.018.042-.02-.142-.062-.117-.1-.049-.092.142-.291.166-.084.03-.057-.332-.001-.267-.082-.08-.132.015-.232.087-.138.214-.182.26-.122.155.031.299.164.184-.046-.023-.053-.28-.261-.09-.193.01-.092.606-.92.297-.494.405-.752.093-.12.205-.222.085-.06h.264l.165-.028-.24-.098-.087-.068-.01-.072.065-.075.093-.056.314-.12.222-.2.135-.233-.02-.08-.07-.079.004-.043.169-.049.43-.278.055-.053.157-.37.193-.165.18-.084.287-.104.882-.254.516-.226.35.01.104.159.498.105.087-.113-.116-.137.097-.055.41-.05.072.017.123.078zm-205.775.177-.047.047h-.113l-.18-.048-.134-.105-.162-.328.017-.057.055-.057.259-.118.094.014.033.086.155.193.046.057v.225zm206.052-1.18h-.135l-.03-.032.055-.11.152-.125.205-.035-.055.185zm-68.216-.177-.117.02-.27-.023-.217-.071-.133-.091.877-.25.18.032.004.045-.132.134-.035.09-.064.068zm-146.652-.028-.05.01-.095-.06-.065-.094-.04-.248.03-.1.025-.04.248.157zm7.555-1.247-.218.038.073-.153.02-.09-.04-.085-.028-.163-.011-.386.212-.243.334-.01-.003.122-.14.548-.073.254-.057.093zm-1.613-.31-.09.13-.38-.313-.138-.088-.283-.332-.049-.143.012-.08.05-.03.087.02.082.036.546.368.153.173zm-1.07-1.37-.043.023-.117-.038-.113-.074-.193-.21-.064-.088-.041-.143.039-.026.084.014.059.023.304.346zm137.954.696-.2.038-.59-.076-.246-.054-.726-.205-1.383-.3-.47-.15-.098-.112.25-.233.141-.095.154-.06 1.454-.107.567.053.668.479.383.323.156.26.003.126zM158.312 88.88l.288.263.086.235-.036.278-.456.106-.24-.084-.104.014-.157.083.192.037.267.136.235.177.332.032.441.123-.334.223-.05.128.416.355.04.089.133.017.31-.03.04.029v.073l-.191.206.02.04.172.033h.331l.075.204-.299.186-.569-.24-.253-.238-.145-.222-.175-.125-.528-.277-.802-.6-.207-.086-.209-.237-.06-.115.006-.076.08-.04.241-.026.003-.118-.923-.206-.102-.042-.12-.145.065-.02.507.026.544-.069.335-.053.132-.065.274-.084.112.01zm9.09.726.13.906-.008.29-.19.19-.134.318-.156.142-.148-.19-.014-.315-.04-.251-.048-.12.057-.469-.066.035-.175.206-.194.014-.35-.233-.176-.19-.028-.196-.23-.208-.023-.073.02-.077.189-.206.076-.14.068-.286.077-.112.179.017.32.13.332.142.306.188zm-1.747-.505-.017.02-.294-.001-.082-.029-.052-.06-.02-.09.049-.109.174-.208.006-.089.036-.038.123.105.051.097zm139.793-.53-.003.086-.184-.017-.1-.05-.081-.075-.017-.057.069-.057.213.035zm-141.726.387-.057.01-.187-.035-.616-.48-.438-.175-.298-.237-.304-.151.187-.247.162.03.567.2.454.195.257.127.54.544-.04.078zm-1.1-2.245-.089.102-.2.16-.132.063-.065-.033-.18-.017-.19-.159-.149-.064h-.098l-.05.058-.01.077.022.096-.017.044-.056-.01-.057-.045-.056-.082-.011-.083.033-.085.138-.113.433-.236.132-.042.144.01.231.11.05.032zm-6.87-.48.26.168.623-.107.117.02.118.064.13.136.142.208.03.227-.056.082-.112.09-.995.361-.026.035.02.032.093.035.2-.01.787-.089.044-.062.055-.284.108-.151.01-.114-.073-.271.003-.11.55-.022.344-.1.351-.188.08.01-.05.337-.048.103-.337.412-.193.362-.094.358-.017.593-.084.2-.153.123-.954.216-.491-.014-.439-.196-.206-.134.156-.163.107-.01.308.032.238.06h.107l-.017-.037-.679-.307-.496-.14-.15-.156-.007-.121-.039-.068-.394-.423-.077-.167-.052-.237v-.243l.096-.393.044-.042h.162l.279.048zm4.907-.998h-.065l-.026-.059.017-.122.09-.208.042-.048.369.037.054.014.014.04-.028.065-.119.093zm1.64-.952-.528.187-.113-.06.234-.184.513-.317.28-.227.028.224zm196.942-3.478.033.069-.438-.05-.154-.042-.011-.046.022-.071.087-.084.201-.064.109.033.233.086.031.052zm-50.636-.301-.144.039h-.104l.02-.095.142-.187.081-.164.02-.141.063-.124.107-.106.106-.053h.158l.033.344-.044.162-.106.135-.146.109zm-3.269-.175-.145.023-.17-.041.089-.21.148-.086.371-.087.064-.053.118-.026h.174l.194-.078.213-.156.074-.02-.15.227-.157.17zm2.96-.168-.235.287-.187.276-.26.519-.149.017-.13-.125.373-.607.017-.068-.017-.058-.113-.09-.112.104-.527.684-.136.11-.114.061-.09.011-.223-.014-.452.196.76-.814.008-.062-.142-.038-.056.02-.615.513-.35.197-.236-.06-.06-.054.024-.06.598-.517.55-.37.23-.233.094-.22.04-.16-.002-.177.028-.049.032.01.035.067.009.187-.125.382-.102.188-.12.155.05.034.222-.088.187-.186.151-.283.097-.246.093-.39.032.014.044.078.1.055.157.032.09.05.066.13.064.058.235.05.09.041.065.143-.006.075.032.048.07.023zm-1.655-1.11-.1.037h-.068l.075-.252-.088-.089-.006-.046.039-.042.048-.01.119.077.057.082.026.08-.006.08-.034.053zm-.99-.334-.079.05-.14-.057-.006-.142.136-.11.106.01.097.059-.023.077zm51.463-2.215.238.084.063.31-.448-.018-.512-.207-.101-.15.011-.026.068-.026.13.036.126-.054.127-.017zm-51.036.111-.045.023-.122-.02-.048.187-.047.017-.084-.115.063-.099-.009-.068.023-.05.122-.112.072-.026.045.01.037.141zm29.976-4.33-.173.207-.23-.026-.082.043-.063.002.104-.194.014-.13-.052-.131.076-.067.307-.003.003.151.037.057.072.026zm-31.591-1.657-.091.009-.021-.035.073-.116.12-.015.132-.129.122.045-.045.072-.163.11zm.627-.417-.292.02.128-.168.11-.082.12-.052.242-.02.163.068-.145.122zm44.46-1.693-.099.196-.33-.072-.51-.149-.202-.098-.07-.108-.01-.15.154-.025.387-.014.323.208.093.031zm-10.866.358-.256.023-.117-.06-.01-.172.085-.13.294-.27.264-.302.154-.074.311.05.181.087.19.144.08.112-.071.164-.222.147-.256.1zm-29.242-1.385-.39.034v-.041l.162-.117.603-.101.449-.03-.106.099-.266.078zm38.9-1.81-.069.033-.065-.009-.211-.151-.285-.062-.105-.06-.859-.311-.093-.137-.014-.11.285-.053.573-.05.498.003.468.065.095.07.246.126-.06.153-.015.193-.102.094-.157.071zm-80.11-1.357-.115.006-.26-.145-.058-.073.344-.047.235.129-.02.063zm79.548-.1.064.026.077-.03.058.026.04.08.065.056.166.073.055.052-.006.052-.14.08-.089.002-.676-.185-.183-.189-.014-.095.07-.087.104-.042.138.003.162.046zm-41.216-1.512.224.077.37.258.14.13.042.176-.098.234-.05.22-.137.165-.255.21-.226.244-.198.28-.163.185-.129.09-.14.047-.15.003-.227-.1-.306-.206-.25-.126-.32-.086-.171-.117-.031-.114-.011-.372.013-.185.043-.154.072-.124.16-.17.445-.37.27-.142.166-.033.442.026.179-.01.147-.042zm41.803-.418.545.03.331-.01.143.045.133.137-.17.198-.194.075-.315.023-.511-.065-.182-.042-.157-.106.073-.076.253-.025.042-.03-.065-.06.003-.05zm-26.058-.17-.15.026-.569-.034-.698-.133-.36-.125.016-.039.159-.02.18.02.301.088.812.044.261.05.081.075zm10.403.199-.197.011-.384-.023-.412-.059-.226-.067-.203-.145-.039-.16-.383-.237-.428-.08-.236-.165.242-.01.344.035.509.071.455.094.658.208.215.193.214.142.064.107-.055.047zm-33.12-1.152.113.08.034.12-.044.16-.074.146-.1.13-.25.222-.78.378-.292.206-.22.123-1.27.549-.158.028-.165-.011-.349-.082-.353-.014-.915.22-.044-.037-.04-.237-.092-.132-.404-.281-.026-.066.005-.08.032-.064.455-.262 1.03-.955.246-.047.507.106.24.035.173-.006.736-.2.7.022.64-.117.299-.001.232.02zm11.71-1.466.24.121.251-.009.139.1.33.309.032.051-.014.1-.174.129-.181.067-.38.1-.429.043-.233-.07-.657-.286-.604-.336-.193-.186.083-.078.256-.054.518-.056.854.03zm3.405.218-.3.028-.394-.063-.384-.124-.873-.393.656-.266 1.05.308.316.199zm-2.739-1.698-.204.13-.61-.045-.083-.04-.022-.048.098-.062.626-.06.266-.006.136.02.017.023zm-20.665-3.604.098.034.122-.02.201-.14.45-.403.127-.038.19.006.667.259.245.144.132.201.138.079.525.104.504.035.658.105.238.08.525.385.06.023.598.158.917.351.232.053.892.116.32.086.31.132.343.241.403.379.315.606.025.12-.039.07-.113.076-.516.249.044.042.485-.014 1.08-.154.658.11.229.017.053-.006.238-.19.262.03.382.185.246.15.11.113-.03.065-.252.022.618.11.537.173-.115.113-.574.25-.59.22-.686.33-.171.05-.093.004-.378-.062-.546-.156-1.68-.358-.518-.076-.66-.045-.095-.084-.157-.54-.296-.096-1.018-.113-.296-.065-.013-.108.064-.187-.14-.09-.341.002-.336.04-.541.126-.254.117-.095.127-.059.271-.067.128-.19.168-.834.436-.339.131-.337.038-.134.041-.227.161-.337.395-.138.114-.222.116-.462.177-.471.14-.786.165-.438.056-.293-.055-.2-.374-.42-1.1-.07-.074-.086-.046-.101-.017-1.411.142-.779-.015-.77.247-.194.017-.39-.009-.282-.04-.072-.028-.047-.107.014-.111.098-.121.348-.328.283-.203.13-.062 1.32-.363.32-.12.161-.123v-.126l-.063-.161-.228-.393-.058-.36.002-.178.087-.274.33-.664.111-.324.21-1.155.113-.331.164-.303.157-.181.42-.363.326-.145.41-.101.09.011.078.042.15.154.572.142.184.138.13.153.071.2-.07.086-.273.132-.047.055.008.045.522.207zm.695-.892-.148.032-.159-.017-.134-.082-.11-.146-.177-.11-.4-.137-.069-.053-.113-.184-.023-.183-.085-.166-.004-.081.074-.122.336-.03.263.049.053.032.087.071.056.087.319.235.186.186.253.386.001.074-.068.077zm2.694-.63.365.112.364.064.585.033.084.023v.053l-.085.081-.195.105-.14.003-.323-.074-.118-.037-.131-.084-.067-.009-.084.028-.023.037.039.046-.054.015-.392-.032-.061-.025.031-.09.274-.132-.24-.04-.077-.049-.357.083-.197.02-.312-.058-.033-.3-.037-.11-.142-.074-.085-.078-.136-.06-.282-.06-.228-.149-.048-.068.031-.05.14-.071.809.15.488.144.464.175.243.13.022.084-.06.084-.143.084zm1.711-1.38.283.035.215-.003.048.042-.226.138-.14.026-.25-.1-.187-.12-.053-.075-.015-.08.045-.015zm-70.903-2.05.359.022.457-.003-.08.22-.175.14-.138.04-.06-.077-.269-.176zm128.95-.146-.351.078-.188-.096.132-.028.193-.115.263-.101.11-.082.443-.037.15.006.058.029-.25.125zm-128.402-.981-.143.237-.055-.022-.098-.114-.197-.054-.224-.126.003-.27.086-.124-.02-.172.223-.103.165.122.046.206-.041.102.163.105.076.026.04.084zm-3.597-1.649.32.03.237-.023.173.115.067.116-.023.04-.075.017-.5-.129-.185-.078-.063-.066zm100.933.564-1.383.003-.753-.02-.303-.043-.263-.068-.299-.218-.191-.225-.01-.096.051-.086.071-.052.929-.075.761.094.655.11.843.02.256.041.098.03.068.057.096.26.009.138-.026.105zm-101.378-.588-.107.01-.39-.17.083-.144.362.148.051.092zm64.538.724-.121.003-.193-.043-.44-.172-.09-.074-.044-.087v-.099l.039-.102.135-.205-.258-.163-.063-.093.03-.052.144-.126.04-.078.144-.111.374-.216.376.05.335.177.087.12-.026.127.03.184.083.241.023.175-.04.109-.143.204-.122.095-.16.09zm31.007-1.666 1.483.252.144.09.07.083.042.09.003.187-.03.075-.144.181-.012.057.117.607-.012.332-.104.276-.212.222-.32.167-.243.096-1.079.236-.763.06-.806.012-1.026.064-.468-.015-.242-.028-.173-.047-.201-.15-.23-.252-.191-.284-.228-.502-.006-.06.22-.408.29-.276.515-.409.581-.398.148-.065.262-.07.657-.113.544.028.24-.014.3-.053.33-.014zm-9.39.369-.23.031-.313-.151-.002-.084.06-.201.57-.05.24.12.113.12zm-72.574-.605-.157.011-.294-.046-.43-.101-.325-.107-.217-.113-.028-.078.163-.044.246-.022.587.014.28.043.368.165.079.093.011.06-.047.052zm84.222.162-.223.017-.321-.176-.675-.2-.256-.144-.009-.07.02-.11.074-.134.235-.147.249-.023.355.032.258.106.281.292.187.143.059.103-.093.05.009.047.043.03-.017.054-.075.08zm-76.57-.675-.117.003-.163-.05-.914-.173-.119-.052.107-.073.333-.093.224-.095.173-.146.525.075.196.069.075.06.032.083-.03.205-.176.043zm4.625-.625-.09.09-.111.025-.221.106-.09.014-.128-.067-.109-.11-.046-.017-.068.006-.15.07-.065-.001-.055-.047-.025-.094.002-.14.07-.216.006-.079-.038-.06.031-.054.1-.05.129-.022.302.02.238.086.117.114.233.09.08.062zm.632-.588-.067.17-.35-.046-.154-.061-.132-.139-.014-.035.03-.053.142-.12.096-.045.228.051.106.07.084.113zm26.982-.59-.233.034-.145-.118-.119-.025-.052-.08-.243-.013.016-.124.066-.06.226-.048.18.017.17.123.082.097.072.124zm32.036 1.067-.196.02-.232-.053-.082-.093-.044-.093.042-.048.103-.045.14-.104.178-.161.278-.109.609-.1.086-.036.273-.283.091-.049.312-.029.034-.036-.11-.07v-.072l.11-.074.152-.055.394-.054.356.01.09.02.08.049.11.132.014.03-.165.118-.432.18-.267.15-.053.05-.023.064-.1.077-.312.186-.21.18-.208.098-.57.093zm-31.205-1.628.064.176-.256.239-.08.043-.098.017-.096-.03-.286-.188-.078-.117.105-.058.221-.073.157-.036.197.031.068-.051zm37.496.781-.359.033-.265-.017-.172-.067-.132-.09-.163-.229.06-.106.018-.19.03-.072.063-.036.372-.067.223.009.326.072.706.023.175.067.043.04-.003.05-.05.06-.348.173-.168.119-.119.142zm-68.652-.719-.232.026-.043-.006.02-.078-.017-.039-.062-.028.204-.062.03-.048-.065-.037-.28-.07-.079-.063.014-.055.11-.048.192.01.416.092.191.129.087.095-.138.015-.107.038-.114.082zm16.067-.501.377.19-.003.092-.05.154-.107.118-.167.08-.234.04-.3.001-.13-.033.097-.12.073-.035.012-.105-.048-.174-.06-.107-.17-.061-.12-.002-.034.056.056.116-.039.15-.131.184-.1.086-.178-.043-.085-.07.023-.116-.048-.106.045-.11.121-.166.172-.11.221-.057.259.003.296.064zm-123.607-.01-.234.107-.373-.111-.098-.055.431-.147.19.006.401.087.15.077zm201.977.103-.073.017-.744-.13-.054-.103.364-.114.296-.062.228-.009.226.02.212.124-.257.112zm-28.72-.494.145.142.025.073-.2.087-.76.16-.462.14-.234.032-.311-.031-.378.065-.15-.01.167-.114.598-.328.502-.034.164-.069.138.023.08-.057.014-.084.176-.064h.157zm-3.98-.207.114.163.072.051-.106.077-.427.155-.934.063-.471-.073.217.221.047.094-.066.039-.196-.011-.326-.063-.187-.075-.048-.088-.069-.02-.088.049-.085-.012-.194-.13-.142-.048-.938-.078-.047-.035.049-.06.145-.085.21-.029.53.038.043-.022.035-.108.04-.042.367.011.231-.023.127.056.126.128.178-.023.258.017.288-.046.44-.115.343-.042zm-51.139.412.088.034.164-.03.128-.092.078-.017.12.017.397.166.304.175.324.124.513.11 1.12.36.33.243.349.379.31.288.275.2.294.159.47.177.421-.13.18-.032.155.054.147.134-.078.06-.182.075-.302.088-.422.006-.203.026-.33.14-.263.168-.367.057-.692.282-.38.106-.56.029-1.164-.221-.725.03-.591-.045-.661-.233-.513-.132-.993-.19-.065-.029-.043-.064-.02-.1-.045-.067-.07-.034-.156.003-.16.066-.306.057-.466-.014-.203-.04-.154-.062-.084-.073-.013-.084-.043-.064-.073-.046h-.169l-.265.043-.103.053.058.063-.05.038h-.463l-.182-.037-.349-.117-.153-.12-.197-.211.02-.058.125-.128.163-.09 1.051-.053.492-.05.536-.147.625-.253.135-.075.016-.055-.046-.06-.195-.146-.066-.1.062-.046.25-.003-.131-.057-.113-.08-.039-.049.006-.08.2-.016.245.04.474.228.19.045.324.034-.345-.158-.358-.331-.044-.115.009-.063.094-.178.083-.073.109-.048.34-.102.544-.072.28-.01.282.059.247.11.548.182.081.074-.009.034-.211.05-.026.045zm29.891-1.336.325.022.305-.028.223.026.14.08.092.085.045.086-.12.062-.502.054-.343-.026-.366-.072-.17.032-.418-.053-.207-.072-.169-.103v-.062l.44-.071.174-.056zm-38.037-1.087-.037.023-.613-.106-.237-.062-.077-.046-.055-.094-.032-.142.122-.069.277.006.295.055.448.156-.128.046-.006.102.05.096zm72.692 72.387-.152.014-.267-.014-.397.096-.52.201-.63.361-1.11.782-.077.082-.16.144-.41.155-.372.166-.099.175-.178.08-.613.445-.345.378-.314.397-.35.443-.72.01h-3.932l-.745.02-.355.118-.446.16-.48.171.251.384.068.151-.02.489.051.053.054.072.01.126.04.058.088.047.1.055.07.074.017.074-.068.129-.277.174-.39.153-.773.276-.897.32-.777.276-.601.214-1.236.188-.981.15-.708.108-.653.3-.72.331-.605.279-.68.312-.64.295-.713-.001-.5-.221-.465-.227-.318-.406-.022-.471.114-.31.103-.14.197-.089.386-.152.351-.307.281-.184.284-.19.162-.325.201-.79.026-.156.294-.541.325-.599.149-.275-.167-.714-.125-.548-.115-.502-.13-.566-.117-.515-.112-.486-.11-.487-.11-.478-.086-.342-.102-.406-.594-.285-.451-.2-.739-.326-.619-.273-.554-.25.35-.505-.03-.082-.127-.099-.26-.165-.15-.017-.268.039-.425.103-.184-.034-.146-.176-.168-.226-.055-.177-.021-.233-.1-.21.063-.11.014-.055-.006-.07-.069-.043-.121-.02-.41.088-.185.01-.11.05-.174.103-.17.014-.296-.244-.322-.267-.136-.368-.139-.378-.55-.227-.552-.227-.551-.227-.551-.227-.551-.228-.551-.227-.551-.227-.551-.227-.19-.075-.502-.198-.71-.28-.812-.322-.813-.322-.709-.28-.501-.199-.19-.075-.492-.194-.618-.221-.663.11-.815.308-.465.176-.35.132-.248.078-.518.067-.27-.011-.638-.044-.357.057-.263-.057-.131-.178-.148-.114-.648.054-.815-.038-.39.023-.15-.075-.122-.197-.215-.025-.362.044-.503.253-.473.13-.372.001-.367-.131-.6-.264-.416-.296-.473-.104-.36.028-.142.148h-.188l-.131-.253-.113-.197-.234-.084-.425-.19-.295-.102-.453-.125-.158-.023-.294-.014-.291-.01-.34.034-.244.157-.286.07-.407.032-.273-.067-.136-.166-.578-.147-1.02-.128-.587-.109-.154-.09-.085-.097-.021-.155h0l-.258-.397-.111-.33-.05-.396.017-.13-.059-.042-.183-.086-.613-.058-.009.474-.01.6H183.77l-.109-.1-.276-.132h-.11l-.112.04-.071.064-.063.129-.04.043-.04-.01-.025-.036-.089-.18.023-.08.091-.096-.006-.035-.2.028-.09-.023-.042-.052.015-.204-.11-.116.13-.05.33-.038.34-.01.1-.085.095-.215-.242.197-.145.02-.45-.074-.292.011-.04-.044.012-.044.063-.044.047-.149.07-.418.092-.153.031-.083-.023-.02-.39.291-.033.093.04.08-.037.164-.18.05-.108-.027-.202.14-.064.013-.932-.243-.093-.034-.16-.113-.229-.194-.071-.167.084-.141.09-.071h.094l.104.053.215.23.085.142.222-.02.358-.182.086-.067-.357.07-.155-.01-.157-.077-.16-.146-.083-.167-.001-.527.055-.102.173-.076.111-.126-.009-.053-.107-.106-.155-.083-.152-.042-.035.01.236.232-.01.087-.26.225-.04.066-.002.22-.036.047-.21.062-.235.173-.396.058-.373-.017-.201-.086-.622-.424-.228-.178-.006-.15-.425-.525.002-.113-.149-.164-.164-.023-.038-.156.34-.337.211-.284.023-.09-.009-.137-.05-.308.044-.133-.21.176-.044.13.052.132-.033.15-.122.208-.208.222-.43.107-.756-.059-.088-.029-.053-.076-.038-.326-.046.04-.086.174-.07.248-.088.056-.16.01-.123-.04-.089-.084-.19-.01-.357.066-.168-.026h-.199l-.404-.073-.477-.02-.129-.056.006-.108.09-.055.503-.048.487-.115.482-.057-.017-.058-.218-.017-1.106.127-.348-.014-.061-.02-.01-.128.129-.122.213-.113.064-.086-.124-.036-.199.023-.095-.069.106-.268-.093-.273-.13.26-.195.142-.934.061-.152.076h-.124l-.596-.137-.253-.084-.24-.125-.425-.279-.333-.18-.017-.334.072-.213.16-.237.605-.514.207-.097.187-.033.888-.045.66-.064.125-.03-.973-.039-.865.025-.295.081-.378.33-.096.139-.1.1h-.067l-.13-.035-.041-.043-.053-.108-.203-.172-.09-.196-.053-.29.017-.13.095-.165.29-.324-.372.01.044-.273.136-.297.347-.176.35-.127.318-.166.556-.11.189.227.476.07.138.102.169.188.209.18.249.17.07.011-.11-.147-.405-.32-.017-.114-.105-.123-.536-.177-.095-.068-.095-.178-.04-.115.06-.113.544-.34.125-.18v-.086l-.043-.095-.119-.164h-.031l.037.25-.02.098-.062.108-.089.082-.116.057-1.17.777-.117.046-.435.07-.223.083-.12.11-.193.283-.265.57-.303.46-.26-.596-.465-.456.909-.453.023-.069-.089-.241.026-.073.086-.106.23-.155-.01-.017-.269.056-.413.35-.162.113-.087.014-.012-.206.223-.533.183-.519.067-.148.158-.15-.15.012-.736.23-.247-.144-.206-.75-.363-.293-.614-.24-.603-.11-.138-.214-.119-.259.162-.305.264-.145.244-.066.23.03.011.112-.156.3.206.028.826.366.18.029.342-.14.19.01.45.113.152.137.43.27-.063-.157-.469-.33-.261-.106-.46-.02-.285.055-.12-.017-.251-.084-.214-.137-.214-.302-.048-.14.011-.105.05-.095.09-.085.175-.06.262-.039.08-.037-.336-.172h-.154l-.526.253-.107.02-.046-.05h-.043l-.155.126-.12.056-.432.386-.067.186-.025.276-.05.174-.075.07-.506.132-.287.27-.35-.233-.383-.225-.256-.394-.462-.069-.536-.223-.204-.198.29-.407.417-.308.064-.369.057-.079.718-.09.467-.184-.48-.017-.293.028-.528.128-.585-.253-.302-.23-.095-.197.104-.167.014-.17.053-.229.056-.1.123-.128.25-.085.222-.262.091-.183.455-.55.166-.238.31-.329.626-.517-.198.03-.103.043-.099-.01-.093-.055-.09-.114-.084-.174-.047.077-.011.326-.063.28-.112.195-.307.395-.18.154-.122-.144.094-.247.178-.197.03-.269-.167-.32-.102-.26-.037-.195-.006-.178.029-.162.07-.176.114-.19-.014-.023.03-.177-.025-.182-.094-.144-.119-.125-.332.075-.563-.113-.182-.307-.488-.094-.263-.218-.535-.108-.434-.074-.33-.126-.388-.148-.386-.157-.294-.12-.217.01-.49.017-.026-.269-.15-.163.056-.144-.273-.073-.403-.108.118-.274.089-.208-.356-.06-.514-.09.166-.187.134-.151-.197-.221-.4-.37-.307-.265-.4-.412-.352-.363-.288-.296-.24-.204-.338-.366-.44-.412-.418-.324.06-.21-.412-.263-.362-.266-.417-.306-.412-.15-.294-.107-.424-.154-.222-.138-.093-.117-.097-.083-.083-.114-.049-.134-.087-.083-.514-.198-.157-.125-.356-.144-.297-.06-.104-.049-.362-.435.058-.155.04-.155-.04-.08-.596-.33-.304-.137-.307-.142-.644.183-.659.188-.461.07-.638.094.212.204-.088.15-.198.069-.337-.01v.51l-.319.362-.666.006-.358.125-.53.185-.43.15-.457.241-.234-.035.104-.215-.169-.364-.14-.303-.294-.156-.494-.263-.37-.196-.53-.282-.37-.196-.386-.205-.507-.27-.208-.35-.463-.125-.497-.135-.402-.257.137-.253.164-.303v-.182l-.442.011-.662.017-.592.014-.438.214-.405.198-.635-.154-.727-.177-.206.232-.674-.116-.68-.117V42.175l.404.045 1.292.093 1.217-.055 2.257.302 1.396.564 1.133.277.462.191.735.168 1.73.365.54.038 1.002.175.62-.023 1.07.043.725.141 1.433.387.293.034.079-.028-.5-.383-.078-.037-.577-.142-.677-.07-.052-.029-.126-.135.04-.052.148-.023.504.001.299-.023.041-.053-.215-.011-.26-.052-.303-.09-.172-.086.621-.567.217.057.328-.13.587.083.107-.046.072-.288.087-.069.166-.052.817-.051 1.02.051.105-.028-.098-.193-.011-.075.061-.173.063-.093.121-.046.474.036.148.086.159.146.16.084.505.084.057.058-.192.222-.202.116-.416.307-.026.078.643-.137.721-.19.62-.106.517-.02.37-.061.224-.105.16-.107.32-.344.214-.06.89.02.211-.012.138-.033-.026-.044-.188-.053-.254-.014-.006-.026.094-.056.14-.033.438-.04.289.125.196.009.65-.138 1.001-.365.4-.102.347-.017.293.067.225-.017.297-.207.117-.11.183-.094.74-.214.475-.046.29.04.344.088.284.034.374-.025.28.011.132-.043.477-.244.155-.002.15.072.24.177v.089l-.313.216-2.301.619-.71.267-.35.098-.364.055-.704.046-.279.054-.473.049-1.107.085-.213.042-.145.049-.397.327-.194.107-.38.16-.427.1-.584.037-.371.154-.427.296-.345.207-.394.175-.428.228-.112.12.127.159.071.053.43.085.168-.02-.154-.085-.362-.122-.048-.044.092-.035 1.699.092.364-.093.128-.079-.029-.04-.46-.018-.099-.075-.072-.142-.015-.113.042-.083.103-.107.494-.174.531-.075.41-.099.225-.093.61-.16.245-.128.132-.1.017-.05-.111-.037.09-.086.445-.077.195-.006.625.074.113.058-.061.153.087-.006.241-.195.135-.065.139-.014.14.026.142.062.077.187.011.311.033.126.16-.215.111-.1.609-.458.41-.251.462-.245.67-.183 1.549-.302.872-.082.442-.075.217-.066.138-.08.242-.094.044.01-.094.194-.062.057-.567.12-.056.092.062.142.098.094.134.046.236-.033.336-.11.419-.167.905-.426.078-.078.229-.342.519-.151.94-.172.23-.11-.824-.092-.171-.064-.026-.038.156-.097-.377-.097-.138-.06.006-.174.116-.125.246-.121.141-.02.367.07.31.09 1.067.422.428.206.249.162.601.504.265.291.212.3.21.217.206.133 1.027.526.53.222.444.137.51.11.577.08.392.007.61-.224.014-.147-.269-.245-.27-.17.032-.104.358-.198-.023-.07.076-.204.248.039.098-.01.138-.074.178-.143.224-.117.271-.093.073-.061-.269-.044h-.163l-.12-.02-.08-.04.108-.043.589-.11.11-.104.189-.07.24-.028.15.03.165.086.009.138-.073.225-.015.182.185.43.163.093.639.126-.04.104-.738.453-.157.11-.078.085.025.071.13.059.25.041.644.017.176-.04 1.25-.014.23-.034.193-.087.281-.217.32-.067.1-.06.197-.26.096-.3.096-.125.145-.078.196-.026.486.03.229-.026.901.026.901-.023.932.053.599.061.553.097 1.062.23.42.124 1.482.558.433.113.815.109 2.795.242.352.065.736.254.507.148.601.141.753.122 1.473.185.24.061.27.017.301-.026 1.351.106.356-.006.257.02.317.076.463.028-.017-.052-.53-.29.024-.047.217-.003.655.049.15-.083.219.002.497.04.536.09.575.14.7.118 1.06.295.586.246.555.305.305.212.054.119.116.06.178-.002.068.045-.16.263-.092.066-.121.047-.508.054-1.393-.064-.247.213-.78.18-.14.078-.03.057.056.187-.099.057-.639.212-.022.06.414.088.441.149.347.036.438-.02.55.053.664.124.46.058.26-.012.354.023.448.057.6.02 1.326-.006.398.043.555.02 1.069-.007.193-.009.342-.098.221-.033.384-.002 1.11-.073.383.001.355-.054.454-.111.28-.02.106.069.192.03.276-.01.526-.117 1.23-.346h.441l.325-.108.08-.002.089.045.3.253.092.041.207.023.203.13.21.194.158.054 1.153.009.407.054.122.055.124.154.076.297.05.11.168.158.11.046.105-.044.284-.413.1-.067.19.023.057.02.288.306.41.226 1.018.418.165.153.06.113-.057.102-.176.09-.275.071-.376.055-.351-.02-.326-.093-.105-.006.116.083.673.346.172.138.16.091.147.046.136.074.124.105.56.277.159.132.637.413.303.162.234.093.09.01-.052-.076-.813-.55-.415-.345-.058-.082-.026-.127-.017-.42.06-.064.28-.054.361.19.136.026.092-.012.048-.049.207.046.366.14.124.002-.276-.269-.197-.13-.07-.092.184-.138-.1-.07-.466-.202-.242-.21-.217-.317-.02-.124.036-.13-.033-.106-.293-.214-.318-.149-.253-.173-.051-.09.039-.246.191-.107.363-.144.098-.147-.167-.153-.03-.07.106.015.714-.076.18.028.27-.033.36-.092.282-.042.373.006.202-.022.246-.042.128-.046.226-.176.121-.025.38.02.214.038.1-.014-.015-.25.072-.087.378-.182.395-.02.263-.05.302-.1.216-.092.215-.146.088-.186-.068-.054-.449-.072-.27.038-.596.133-.627.17-.242.16-.066.202-.12.09-.487-.085-.209.001-.261.036-.277.078-.292.12-.432.023-.57-.077-.342-.022-.347.128.02.096.161.14-.16.082-.832.031-.22-.017-.444.055-.176-.011-.128-.067-.905-.283-.09-.057.22-.23.838-.623.092-.037 1.553-.108.939-.113 1.718-.343.333-.028 1.105-.227.454-.058.423.039.618.117.319.104.226.13.188.181.235.4.08.34.146.125.518.237.266.092.164.029.141-.055.097-.01.065.02.07.15.093.014.312-.02.33.061.048.046-.07.185.094.078.401.165.387.063.446.028.83-.028.693-.08.52-.13.428.145.856.351.512.249.425.117.86.14.195.076.314.009.433-.059.493.023.553.104.38.044 1.303-.196.199-.01.485-.094.312-.029.368.002.274-.029.18-.06.69.003 1.25.067.854.087.507.11.417.062.325.014.318-.02.309-.052.325-.1.694-.052.115-.026-.014-.055-.144-.083-.394-.158-.275-.154-.053-.098.006-.119.085-.068.166-.017.26.073.356.165 1 .622.24.088.134.079.918.226.433.04.513-.14.227-.087.11-.084-.004-.08.049-.118-.052-.073-.138-.094-.368-.132-.597-.168-.547-.05-.495.07-.56.143-.232-.056-.699-.403-.175-.15v-.042l.324.048.015-.048-.194-.194-.12-.065-.402-.306-.05-.092.25-.02.114-.035.153.003.71.183.363-.082.842-.117-.332-.176-.08-.173.04-.037.274-.026.537.145.26.02.19-.058.2-.003.212.05.199.074.369.213.182.128.205.193.065.028.99.014.56-.17-.012.057-.128.135-.696.515.01.064.368-.028.173-.042.107-.062.092-.144.062-.043 1.033-.243.3-.036-.187.26-.385.926-.078.323-.084.11-.406.356.006.125.444.3.079.08.045.247.079.048.366.003.379-.078.452-.052.07.051-.248.298.014.026.43-.077.196-.011.08.017.32.152.033.113-.007.17-.034.121-.108.068-.128.028-.163.02-.145-.009-.449.026-.265-.033-.261-.093-.186-.023-.216.072-.341-.011-.383-.206-.153.02-.052.033.007.044.173.133 1.346.705.205.145.045.209h.028l.126-.21-.082-.1-.693-.41-.083-.15.024-.041.183-.042.986.102.383-.023.257-.072.13-.088.093-.488.177-.313-.104-.28-.267-.445-.21-.262-.483-.266-.048-.095.539-.807.097-.068.12-.029.425-.011.309-.067.484.093.268.026.33-.083.737-.338.288-.105.366-.198.445-.292.484-.21.784-.198.479-.158.097-.057-.446-.014-.108-.026-.092-.15.047-.278-.008-.154-.053-.14-.098-.124-.142-.11-.13-.065-.116-.023-.08.01-.044.041-.12.265-.151.194-.208.102-.432.068-.742.05-.308-.092-.04-.079.109-.308.246-.132.679-.26.434-.208.007-.036-.399-.002-.095-.043-.084-.256.023-.095.062-.11.28-.08.857-.097.667-.116.02.04-.535.347-.055.08.204.075.514-.2.332-.166.056-.056-.302-.02-.016-.069.058-.125-.028-.086-.334-.108-.41.06-.343.114-.285.031-.42.002-.305-.025-.192-.055-.23-.121-.269-.189-.34-.188-.12-.02-.104.023-.218.182-.094.023-1.333-.255-.566-.142-.274-.109-.34-.064-.407-.02-.324-.05-.242-.08-.196-.116-.15-.15-.277-.19-.633-.379-.167-.242-.024-.093.04-.24.594-.405.11-.117.202-.086.295-.055.212-.017.481.051-.288-.125-.023-.067.29-.22-.058-.012-.795.17-.203-.012-.287-.103-.54-.37-.005-.23.17-.32.059-.19-.155-.164.058-.045.167-.046.07-.049-.073-.18.117-.095.381-.186.374-.163.22-.05.192.01.2.05.208.09.356.093.264.026.194-.051.331-.35.118-.09-.112-.039-.65.003-.281-.029-.162-.033-.119-.134.098-.071.63-.248.296-.26.882-.36.892-.17.432-.055.351-.012.154.023.187.18.035.19.484.238.39.017.242-.036.783.014.181.066-.013.075-.087.12.053.103.531.197.478.136.43.17.638.356.139.1.096.108.166.397.021.15-.06.436-.051.082-.169.1.058.04.506.113.4.225.212.073.508.121.093.046.114.076.287.326.47.293.033.063-.1.138.072.044.18.05.164-.025.143-.103.157-.03.17.044.128.077.174.188.256.155-.022.048-.126.038-.689.044-.387-.03-.358-.076-.249-.078-.232-.12-.085.014-.122.098-.26.143-.162.132.188.059.905-.003.197.037.23.093-.262.156-.613.26-1.323.506-.39.13.095.038.148.009.454-.023.424-.068.516.03.23.055-.079.054.14.088.844.205.533-.041.545-.197.42-.098.518.014.145.023-.055.048-.383.11-.346.124-.037.034.431-.05.96.08.467.02.338-.02.317.03.297.083.099.052-.277.034h-.263l-.222.05-.183.1-.131.13-.078.16-.2.065-.32-.028-.125-.045.069-.063-.094-.01-.255.045-.2.001-.054.048 1.398.51.447.451.308.187.03.05-.2.125-.01.095.091.276-.043.22-.137.388.129.12.299.107.179.136.121.047.09.11.107.069.122.028.087-.036.05-.1.114-.094.316-.17.305-.262.052-.088-.048-.207.035-.089.287-.313.091-.217.088-.338.152-.236.325-.2.568-.403.206-.081.23-.04.402.01.294.129.394.24.502.219.915.296.261.112.518.293.218.291.15.41.13.248.108.084.05.125-.01.166-.04.13-.072.093-.112.054-.279.017-.341-.026-.099-.042-.18-.195-.074-.012-.317.145-.039.08.117.267-.016.503.032.109.335.524.564.398 1.414.768.08.087.151.313.074.066.092.04.111.01.154-.03.52-.239.452-.251.315-.131.18-.011.192-.046.206-.081.138-.09.07-.096.093-.378.08-.181.22-.247.08-.07 1.094-.626.09-.077.465-.726.164-.332.024-.2-.063-.179.031-.147.125-.116.133-.082.229-.082.127-.117.076-.011.187-.001.247.08.179.014 1.157-.091v-.049l-.679-.152.007-.077.06-.105.213-.117.262-.037.059-.074.007-.093.086-.15-.079-.054-.634-.207-.367.009-.093-.029-.316-.169-.116-.245-.012-.101.044-.162.04-.045-.02-.073-.08-.101-.006-.09.067-.08-.04-.093-.148-.108-.058-.093.155-.274.005-.084-.146-.118-.106-.045.078-.03.262-.01.313.037.364.088.445.001.528-.086.536-.041.927.017.22.025.92.255.716.13.322-.012 1.592.052.697-.026.362.011.693.14-.046.116-.299.196-.39.04-.346.067.32.102.944.138.221.22.067.1-.11.091.055.046h.22l.563-.077.624.05.908.171.098.035.16.133-.02.054-.803.332-.417.131-.55.136-.017.072.77.014.598.038.27.044.141.063.193.135.031.106-.019.144-.063.1-.697.287-.32.09-.544.107-.237.08-.26-.012-.284-.102-.295-.023-.531.082-.288-.003-.142.028-.012.063.252.182.145.072.057.053-.107.09.022.029.086.032.483.397.102.031.1-.014.21-.114.124-.046.06.006-.002.058-.223.346-.029.093.005.082.108.176.244.187.305.17.456.227.613.243.228.118.335.278.07.106-.089.293-.244.478-.158.272-.07.065-.462.193-.262.045-.432-.006-.145.037-.226.155-.307.27-.242.172-.176.072-.325.085-.508.25-.25.096-.872.104-.71.339-.282.112-.307.06-.332.008-.19-.054-.108-.207-.065-.068-.25-.141-.514-.411-.221-.14-.148-.032-.296.023-.152-.015-.33-.129-.12-.083.015-.033.251-.047-.107-.067-.442-.183-.184-.097-.022-.032-.437-.125-.435-.034-.552.206-.21.14.008.045.264.053.114-.025.225-.129.118-.04.34.02.281.089.103.077.037.053.768.41.272.084.114.098.086.164.166.182.37.3.392.37.08.147-.203.07-.102.006-.303-.055-.799-.172-.088.003-.21.09-.174.207-.054.02-.425-.081-.796-.18-.533-.154-.27-.126-.328-.2-.385-.276-.459-.088-.533.1-.771.036-1.619-.03-.213.022-.082.034.138.152-.033.042-.108.028-.025.045.176.161.285.11.806.147.533.127.319.109.104.092.015.1-.152.201-.086.073-1.872 1-.713.404-.364.248-.32.164-.277.08-.458.046-.64.011-.829-.039-.428-.13-.778-.345-.545-.202-.243-.068-.203-.191-.184-.037-.39-.032-.403-.102-.944-.346-.49-.138-.445-.076-.4-.014-.152.02.273.174-.119.012-.324-.04h-.32l-.567-.124-.56.017-.403-.026-.484-.07-.522-.033-.84.003-.301.014-.045.033.404.152.693.183-.093-.158.025-.041.231-.055 1.098.098 1.244.205.316.02.35.071.387.124.533.252 1.018.572.327.145.433.134 2.205.194h.761l1.527.055.806.102.229.075.07.255-.073.127-.439.389-.277.286-1.716 1.209-.223.278-.097.166-.307.172-.776.267-.778.227-.468.048-.416-.054-.27-.066-.401-.225-.025.022.289.353-.068.036-.236-.044-.536-.159-.174.03-.103.043-.143-.001-.183-.045-.332-.132-.088-.064-.08-.195-.055-.035-.654.113-.11.037.269.078.09.056.265.289.014.062-.188.038-.625-.11-.074.01.308.287.118.137.013.071-.401.326-.258.135-.35.05-.22-.034-.248-.083-.179.011-.11.107-.203.076-.299.046-.38-.02-.46-.085-1.224-.306-.385-.048-.714-.042-.085-.043.006-.041.097-.04-.027-.033-.151-.029-.157.026-.163.081-.285.023-.407-.033-.6-.12-1.194-.306-1.304-.26-.758-.335.283.302-.023.103-.145.09-.023.089.296.216.41.078.412-.01.012-.035-.172-.053-.152-.08-.073-.116.078-.02.364.061.24.071 1.807.4.54.074.405.077.113.046-.137.099-.727.248-.011.041.498-.023.605-.218.34-.101.326-.063.443.108.558.277.453.157.644.088.378.094.634.259.1.135.06.55-.023.132-.083.132-.143.13-.264.073-.388.014-.304.053-.667.292-.282.042-1.195-.087-.467-.082-.215.006-.12.065-.125.029-.469.025-.076.053.03.08.092.11.114.063.176.08.267.052.548.058.057.15-.024.047-.18.1-.208-.012-.358-.117-.177-.006-.155.064-.216.02-.276-.023-.154.051-.03.125-.093.093-.32.147-.172.108.006.086.184.061.21.14.237.218.045.096-.145-.025-.196-.087-.246-.147-.372-.132-.82-.172-.144.006.074.043.543.18.209.117.025.085-.455.186-.013.062.121.054.033.046-.163.091-.267.076-.517.012-.048.043.198.094.066.058-.169.08-.11.011-.596-.037.156.2.092.07.183.099.328.092.007.035-.115.079-.193.096-.821.293-.577.344-.08.107.147.226v.057l-.15.102-.337-.028-.065.04.08.106.015.156-.05.206-.245.322-.44.439-.336.398-.233.358-.17.178-.311.011-.236.112.16.059.099.068.068.105-.068.328-.202.55-.125.437.026 1.35-.033.597-.09.33-.143.18-.247.055.314.052.2.084.092.129.086.204.114.095.14-.017.127.02.113.057.342.292.375.084.018.162-.148.908.001.118.171-.229.18-.705.243-.313.191-.066.783-.036.835.08.315.011.276-.044.282.088.068.088.08.37.075.212.497.753.237.422.29.659.107.188.603.878.114.237.047.184-.02.128-.11.199-.199.267-.186.205-.174.14-.178.105-.183.069.012.017.207-.033.211-.07.4-.182.153-.04.434-.027.015.066-.21.135.047.014.303-.109.656-.155 2.574-.504.608-.045.866.092.703.214.765.276.808.2 1.274.188.37.09.748.092.346.105.417.253.66.33.5.208.557.194.56.357.9.81.223.1.555.132 1.044.171 1.54.401.677.158.438.062.437.11.437.16.333.172.23.187.202.123.353.136.184.097.017.146-.426.573-.009.046.43-.411.241-.12.193-.054.4.01.609.068h.533l.459-.067.39-.03.323.01.234-.02.145-.047h.174l.69.142.278.01 1.009.134.647-.048.112.025.225.174.19.014.322-.028.312.048.523.23.242.198.232.404.02.12-.43.937-.134.363-.017.316.085.182.37.305.068.08.22.452.06.193-.025.222-.115.365.029.279.097.42-.037.286-.17.15-.116.146-.09.266v.101l.089.198.164.112.269.125.25.187.456.455.332.25.406.371.079.186-.114.123-.14.086-.328.114-.146.084.038.02.473-.062.28.01.236.092.193.177.321.15.449.125.45.208.747.493.135.114.199.259.261.403.137.264.013.124-.149.125-.503.227-.507.397.16-.02.334-.168.565-.33.314-.065.29.038.46.095.407.136.353.175.524.47.555.376.307.32-.093-.204-.204-.235-.521-.374-.223-.195-.048-.093-.017-.101.04-.186.098-.27.13-.19.163-.11.109-.118.055-.124.087-.091.45-.166.12.014.092.202.108.042.209.03.175.07.143.108.101.11.059.11.134.361.096.167.017-.203.112-.318.087-.131.273-.192-.014-.083-.113-.11-.572-.478-.012-.116.153-.069.105-.131.056-.194.122-.141.359-.198.308-.304.16-.209.129-.11.124-.026-.185-.084-.037-.056-.009-.251-.08-.264-.123-.122-.35-.263-.058-.078-.061-.297.035-.149.09-.125-.051-.12-.325-.22-.125-.19-.139-.463-.128-.58-.145-.426-.162-.273-.036-.172.09-.071.116-.215.106-.053.163.014.003-.026-.248-.116-.123-.146.006-.054.22-.145-.04-.06-.162-.08-.496-.134.179-.05.113-.115-.022-.034-.197-.047-.226-.09-.172-.131-.211-.208-.13-.165-.126-.275-.22-.313-.096-.078-.11-.05-.123-.023.006-.048.132-.073 2.148-.522.179-.075 1.054-.293.487-.163.496-.235.675-.242.329-.155.208-.15 1.07-.6.455-.307.262-.264.382-.315.5-.367.317-.314.132-.263.163-.452.047-.4.03-.588-.018-.525-.134-.822-.081-.259-.154-.307-.371-.62-.067-.168-.23-.284-.755-.74-.944-.502-.18-.126-.373-.147-.568-.168-.368-.138-.96-.515-.316-.062-.122-.133-.026-.094.037-.246.056-.17.067-.126.08-.081.529-.379.296-.303.206-.165.227-.129.411-.169.234-.213-.054-.086-.185-.094-.04-.092.312-.234.044-.065-.04-.22.06-.05.386-.013.55.316.136-.029-.176-.087-.211-.213.03-.088.406-.23.011-.105-.116-.145-.01-.115.237-.275-.064-.058-.669-.054-.11-.076.04-.037.314-.092.023-.035-.556-.615-.093-.184.236-.226.269-.102-.034-.058-.352-.011-.215-.031-.215-.177.084-.11.077-.052.209-.262.202-.055-.038-.047-.763.112-.36-.092-.352.026-.168-.029.062-.094.64-.427.296-.231.185-.209.097-.139.012-.069-.065-.46.038-.126.248-.118.382-.22-.523-.199-.327-.194-.216-.097-.164-.094-.21-.199-.16-.26-.169-.522-.028-.287.038-.21.07-.1.116-.107.478-.202.84-.297.657-.117.475.064.925.07.747.17 2.27.425.402.188-.38.16.055.039.855-.304.226-.058.193-.015.645.118.26.017.327.098.78.324.057-.028-.22-.166.126-.078.615-.173.635-.14.452-.138.479-.183.323-.098.167-.011.214.054.572.242.368.124.294.13.414.23.162.051.314.156.417-.017.137.017.046.03.07.107.037.067.003.073-.097.204-.3.326.126.006.19-.07.246-.125.194-.044.41.1.383.16.136.084.148.138.127.07.118.137-.01.044-.11.066-.47.112.09.042.547-.07.167-.069.12-.116.159-.032.647.202.095.07-.042.056-.104.062-.283.069-.243.172-.038.075.173.053.421.022-.003.041-.243.076-.032.099.545.352.365.154.211.028.492.006.399.06.885.2.518.036.446-.061.296-.014.262.08.083.056.04.112-.007.169.144.118.292.067.236-.011.31-.132.26-.023.088-.1.077-.183.076-.1.19-.029.152.055.09.083.163.252.045.112-.017.103-.081.092-.16.098-.24.105-.188.15-.23.348-.085.227-.023.134.012.147.043.16.091.131.214.186.012.062.017.151-.02.066-.125.131-.346.131-.475.034-1.552.01-.413-.032.1.119.435.038.397-.002 1.48.075.203.076.172.135.123.139.121.282.023.134-.066.149-.153.164-.102.217-.053.273.083.144.8.011.159.099-.017.073-.284.276-.026.079.13.186-.017.053-.08.054-.075.14-.072.225-.09.146-.217.113-.114.025-.082-.03-.215-.307-.088-.046-.084.03-.042.047v.066l-.037.07-.074.07-.317.113-.513.077.017.082.344.043.439.137.252.023.395-.11.763-.349.315-.094.277-.036.312-.006.347.026.69-.045.174.034.21.076.25.12.173.117.094.11.155.421.21.11.05.081.017.124-.012.243-.23.49-.118.18-.317.247-.365.112-.65.105-.34.088-.256.121-.014.067.738-.208.812-.102.231-.114.176-.11.178-.248.322-.638.183-.201.256-.034.113.068.265.374v.096l-.066.08-.433.365.156-.037.435-.343.092-.106.051-.157.14-.111.054.054.135.402.003.294.022.095-.048.279.055.05.13-.242.043-.182.059-.13.076-.077.533-.246.622-.2.407-.177.338-.085.506-.08.325-.165.142-.249.122-.172.1-.096.333-.17.182-.01.173.064.197.128.22.193.13.152.043.11.036.386h.042l.202-.296.022-.104-.014-.111-.062-.11-.203-.242-.08-.15.017-.093.216-.053.319-.02.053-.04-.234-.1-.006-.053.225-.177.133-.01.259.029-.052-.091.003-.06.073-.023.43.058.05-.07.369-.006.036-.062-.32-.088-.312-.055-.096-.048-.073-.072-.098-.171.023-.046.088-.001.152.047.083-.09.093-.213.092-.087.287.1.011-.042-.233-.334.04-.064.357-.023.215.041.567.245.102-.029-.087-.067-.29-.144-.261-.094-.234-.044-.176-.08-.192-.22-.032-.091.017-.118.134-.245.078-.053.137-.04.196-.026.217.026.448.161.075-.05-.242-.089-.13-.08-.063-.104.028-.118.19-.242.09-.196.403-.538.118-.098.127-.062.079-.065.316-.014.586.193.18.114.047.16-.307.219-.527.163-.157.071.102.041.493-.13.43-.06.353.001.285.259.04.359-.163.299.215-.149.268-.082.22.195.025.16.116.15.248.2.26.175-.285.184-.342.11.072.082.467.088.063.087-.049.117h.068l.325-.182.277.025.355.394-.259.225-.396.103-.314.043-.438-.006-.172.034.085.075h.419l.64-.056.48-.093.209-.006.219.038.073.032-.23.064-.017.023.086.066.179.214-.014.048-.171.123.275.029.383-.058.12.064.233.257.148.263-.649.36-.33.074-.486.19-.137.153-.281.196.18-.002.503-.314.246-.073.183.02.073.053-.035.087.16-.01.676-.184.285-.037.367-.011.04.064-.229.44-.39.337-.713.208-.252.122-.312.197.118.036.679-.26.464-.101.651-.082.29.011.512.516.296.05.239-.028.45.148.17.144-.043.103-.152.062-.077.096.18.286-.104.16-.33.143-.235.072-.246.023-.241.125-.11.02-.336-.032.115.077.166.04.265.022.31-.039.301.01.474.091.2.112.002.031-.102.064-.15.21-.11.074.093.056.238.087.177.032.233-.028.25.037.837.49-.034.253-.127.195.05.219.003.27-.455.074-1.507-.127-.862-.193-.044-.059.244-.128-.217-.01-.25.05-.106.048.29.204.792.18.354.215.388.017.119.04.214.126-.063.043-.396.014-.313.146.197.086.704.075.505.02.253.084-.208.094-.592.11-.017.165.439.066.39-.04.16.017.115.397.066.083-.42.07-.002.076.28.062.463.052.153.07.031.12.096.062.266.011.292-.147.173-.124.252.047.02.155.3.176.109.029.086.25.245-.223.18.047.203.011-.07.215-.121.169.16.106.124.157.329.216-.09.104-.389.221-.205.351-.048.122-.2.201-.274.196.172-.02.612-.36.365-.12.801-.065.194-.1.293-.043.18.115.017.207.237.065.25-.068.226.06-.136.13-.727.533-.212.214-.06.152.249-.208.912-.478.098-.072.199-.205.183-.134.492.047.254.096.117.268.199.292.3.324.795.157.29.026.497-.11.079-.151.388-.046.272.02.095.291.29.155.29.128.28.066.407.029.223.14v.058l-.23.15-.22.219-.387.153-.54.01-.744.095-.03.087-.164.095-.396.094-.216.072-.35.355-.212.152-.245.029-.344-.014-.226.032-.165.065-.098.096-.074.036-.462.098-.838.27-.443.01-.275-.032-.209.023-.143.076-.4.131-.12.08-.07.092-.055.19-.047.068-.079.04-.336-.04-.375-.123.073.13.595.22.17.122-.161.106-.378.166-.044.089.155.047-.061.075-.208.08.023.033.023.032.514-.115.458-.245.3-.248.149-.07.59-.092.35-.107.499-.196.548-.285.595-.373.76-.291.924-.21.678-.107.431-.01.023-.035-.388-.066-.32-.014-.397.048-.123-.114.014-.049.131-.084.335-.075 1.639.106.565.08.616.678.142.217.04.16-.063.098-.247.117-.697.235-.098.062-.01.033.305.047.097.064.154.26.313-.17.595-.408.486-.19.41-.052.489-.026h.168l.059.132.256.267.238.069.455.035.409.33.156.228.147.133-.011.09.025.075.108.114.054.096-.03.22-.238.381.177.347-.08.156-.04.249.152.166.045.096-.13.056-.904.138h-.356l-.092.083.274.026h.499l.603.085.266.094.115.131-.03.105-.172.077-.34-.014-.326-.071.02.068.485.17.143.087.262.109.052.146-.063.149-.915.592-.753.375-.756.33-1.213.634-.12.031-.22.011-.578-.101-.461.026-.875.122-.239.075-.48.22-.189.032-.514.045-.488-.03-.193.031-.236.108-.06.057-.066.185-1.185.831-.313.282-.604.296-.664.52-.578.21-.201.29-.55.175-1.017.045-.483.05-.565-.08-.424.126-.637.039-.31-.03-1.235.279-.314-.264-.239-.102-.698-.017-.557-.11-.51-.02-.495-.048h-.326l-.34.03-.527-.01-.293.145-.988-.044-.417-.132-.342-.028-.46.03-.439.097-.96-.112-1.02.095-.889-.064-.25-.063-1.401.172-.548-.099-.483.265-.332-.055-.36.039-.12-.05-.239.035-.155.144-.203.017-.339.255-.568.204-.833 1.113-.078.427-.313.292-.276.039-.227.01-1.44.214-.64.17.174.134-.21.1-.34.043-.368.123-.239.139-.117.192-.738.314-.857.726-.41.531-.496.385-.352.147-.25.023-.255-.046-.424-.18-.311-.02-.775-.252-1.802-.253.271.095.238.156.476.04h.484l1.01.315.494.107.3.095.257.211-.184.413-.187.342-.252.262-.868.672-.42.227-.732.805-.758.378-.406.232-.432.366-1.014.277-.376.07-.347-.038-.423.226-.5.137-.148.21-1.203.561-.461.071-.393.15-.116.254-.35.154-.098.117-.295.355-.548.46-.668.076-.245.16-.282.258-.4.176-.786-.083.191.109.704.169.074.25-.353.06-.74.334zm-62.68-79.318-.458.029-.423-.2-.014-.186.028-.102.053-.09.154-.077.433-.09.197.067.072.08.066.031.28.07.134.08-.014.09-.09.14-.1.09-.11.04zm-50.372.976.18.036.328-.03.477-.094.616-.078.753-.06.2.074.125-.015.222-.12.039-.079-.028-.089.011-.194.118-.117.447-.246.24-.089.382-.04.908.025.852.14 1.152.139 1.683.346.527.149.055.128-.299.274-.725.387-.582.14-.225.086.38.06.245.099.373-.144.274-.162.386-.133.132-.012.032.029-.067.068-.029.068.012.065.044.04.237.02.127-.025.514-.19.504-.29.763-.186.208-.095.665-.08-.009-.056.031-.22-.233-.095-.78-.197-.385-.236.082-.18.43.025 1.177.02.245.025 1.132.307.4.19.318.096.668.138.224.112.157.045.055.048-.049.049-.025.116.123.037.435.043.121.047.161.147.2.248.175.27.275.506.549.677.187.424.063.078.124.053.352.078.27.11.32.036.078-.012.08-.094.199-.15.966-.294.05-.045-.114-.067-.035-.046.014-.031.201-.026-.671-.371-.435-.352-.28-.435-.042-.128-.042-.27-.09-.071-.154-.065-.065-.085.026-.102-.03-.089-.179-.184-.684-1.287.002-.125.094-.094.244-.054.393-.014.124-.03-.145-.045-.256-.137-.034-.063.171-.128.878.056.635.115 1.087.273.111-.014.119-.136.232-.087.348.029.983.198 1.137.353.764.174.535.236.364.223.23.172.009.067-.053.069.054.09.16.11.09.1.073.21.143.276.037.138 1.01 1.235.193.218.123.101.706.478.376.348.036.232.05.066.018.107-.017.148-.083.126-.147.106-.143.149-.216.328-.017.08.156.113.988.39.606.467.284.082.763.292.824.166.277.072.261.105.08.003.158-.02.046-.029.011-.042-.232-.222-.017-.087.111-.014.85.378.457.15.626.159 1.076.364.15.03.582-.034.158.023.1.036.041.048.023.216.16.106.917-.045.257.009.164.034.137.07.197.231.182.455.01.164-.084.273-.135.1-.174.033-.49-.031-.343-.087-.179-.11-.16-.241-.077-.046-.07.048-.161.22-.106.098-.129.064-.244-.017-.36-.096-.674-.246-.24-.06-.148.011-.323.083-.498.156-.205.114.087.073.058.092.028.111-.017.082-.063.052-.164.063-.348.011-.5-.048-.396-.085-.693-.226-.16-.031-.214.05-.086.066.134.094.352.122.43.202.115.04.111-.006.04.037.048.109-.022.187-.208.374-.022.089.085-.02.585-.367.303-.103.656-.162.283-.119.839-.032.3.065.192.113.009.051-.22.132-.04.067-.011.083.02.076.05.066.151.062.267-.029.075.017.143.065.094.1.003.141-.197.308-.35.1-1.074.187-.369.096-.71.068-.273.09-.171.028-.759-.014-.869.058-1-.112-.7-.05-.811-.178-.305.045-.316.114-1.518-.137-.18-.1.06-.064.36-.211.022-.044-.017-.038-.69-.036-.768-.112-.772-.056-.578.017-.376-.04-.367-.093-.202-.085-.036-.076-.006-.084.032-.167-.048-.118-.166-.093-.34-.083-.34.01-.286.091-.272.17-.504.473-.253.081-.656.342-.246.084-1.202.136-1.425.056-.532.106-.505.198-.612.192-1.494.236-1.382.132-1.445.058-1.08.09-.31-.046-.484.017-.52.132-.589.025-2.234.048-1.026.088-.563.023-.44-.012-.308-.036-.294-.117-.303-.18-.616-.48-.176-.2.07-.345-.046-.2-.205-.431-.038-.037-1.077-.16-.709-.05-1.068-.012-1.306.023-1.303-.052-.69-.058-.683-.096-1.17-.248-.066-.026-.091-.082-.116-.14-.29-.182-.798-.407-.316-.241-.051-.061-.076-.177-.1-.293-.033-.178.093-.11.078-.022 1.651-.213 2.91-.233 2.66-.157 1.208.014.711.074.713.033 1.291.017 1.627.11.327-.009.73-.074.216-.06 1.153.01.223-.037.206-.065-.265-.123-1.103-.27-2.929-.48-.714-.103-1.023-.108-.593-.015-.755.063-.282-.003-.742.093-.704.06-1.336.057-1.93.042-.27-.011-.398-.073-.288-.02-1.889.057-1.688-.073-1.922-.735-.32-.226.068-.091.237-.099.952-.284.34-.067 1.42-.153 1.417-.184 1.118-.173.549-.06.528-.006.427-.057-.087-.055-.349-.063.003-.088.18-.043.7-.045.745.055.371-.02.107-.06-.099-.05-.705-.1-3.39.29-1.581.028-1.097.125-.603-.003-.717-.125-.095-.037-.015-.05.222-.167.767-.1.386-.28-.412-.006-1.375.06-.6-.025-.81-.107-.238-.128-.101-.092-.017-.11.028-.313.07-.168.043-.038 1.007-.516.628-.108.44-.163.018-.068-.11-.069-.41-.166-.165-.084-.093-.081.07-.127.234-.175.685-.28 1.651-.564.839-.236.808-.128 1.132-.271 2.899-.45 2.595-.452.955.119.271.093.12.08.106.11.09.144.124.31.017.16-.023.16-.06.146-.097.13-.195.159-.291.187-.618.322zm26.217-.928-.143.014-.27-.066-.394-.145-.645-.296-.769-.292-.118-.176-.191-.13-.982-.31-.638-.126-.486-.063-.08-.087.337-.251.387-.202.23-.073.715-.065 2.413-.134.552-.003.578.064.794.276.33.032.198.062.174.103.092.105.01.214-.087.317-.11.122-.482.407-.504.225-.096.145-.205.115-.358.141zm73.125-2.086.484.037 3.067-.07.635.052 1.933.315.499.106.246.14.223.219.103.048.7.13.288.16.101.081.147.188.316.106.362.06.118.056-.057.236.154.11.342.133.128.088-.265.109-.617.063-1.74-.066-2.336-.15-1.358.043-.681.068-1.647.245-.526.04-.515.005-.909-.2-.33-.106-.109-.082-.216-.24-.179-.287-.09-.236-.105-.18-.311-.06-.924-.07-.309-.1-.14-.08-.136-.133.003-.137.07-.12.06-.03.117-.003-.259-.147-.09-.161-.005-.225.034-.144.074-.063.17-.04.402-.029.593.006.83.166.655.017zm-20.026 7.507.113.062.649-.08.55-.09.86-.219.513-.075h1.56l.264.042-.117.13-.065.037.051.056.168.077.336.085.132-.076.097-.184.23-.754.097-.227.046-.215-.005-.203-.112-.129-.4-.077-.545.014-.28-.02-.34-.04-.251-.062-.164-.085-.326-.254-.24-.142-.617-.255-.279-.086.14-.1.561-.116.338-.11.397-.322.239-.052.86.042 1.165.252.73.219.193.022.004-.04-.185-.102-.84-.27-.382-.196-.183-.14.088-.061.473-.062.061-.072-.643-.084-.326.002-.263.06-.282.006-.525-.11-.143-.063-.302-.19-.159-.164-.175-.102-.064-.082-.034-.252.015-.149.072-.127.127-.105.34-.195.191-.057.356-.025.774.096 2.082.35-.05-.113-2.328-.472-.823-.121-.202-.17 1.24-.654 1.142-.153.568-.19.929-.01.872.121.015-.033-.393-.227.03-.056.496-.135.907-.159 1.107-.125.22-.066.283-.046.522-.04 1.297-.02.729.02.967.095.566.175.176.104.3.336.246.47.36.196.577.107.4.118.22.127.059.16-.103.192.077.197.258.202.2.114.436.131.007.07-.137.08-.288.11-.712.341-.92.376-.654.325-.032.096 1.362-.509.424.017.02.071-.278.249-.338.221-.34.143.062.053.647.25-.119.04-.312-.02-.128.024-.093.045-.058.068-.004.097.05.124-.005.092-.06.061.065.026.19-.012.16-.05.274-.167.907-.457.58-.17.186-.014.534.11.124-.005-.586-.351-.051-.09.119-.13.071-.045.327-.097.271-.051.152.023.24.178.112.124.2.05.443-.064.296-.152.366.1.551.237-.05.238v.238l.029.175.658.32.459.14h.083l-.011-.047-.096-.107-.251-.106-.227-.165-.204-.2.121-.467.343-.245.332.063.436.141.345.014.543-.014 1.108.285.595.006-.055-.117-.45-.055-.658-.158-1.025-.187-.471-.214-.09-.1.015-.109.059-.095.103-.083.205-.082.992-.248.704-.106.529-.034.884.003 1.028.043.555.073.638.175.808.174.288.03.337-.002.385-.04.366.015 1.164.257.308.133.187.16.138.156.09.151-.037.123-.97.53-.422.09-.278.201-.416.38-.352.205-.033.04.074.011.212-.091.366-.264.266-.226.487-.188.797-.223.694-.106.591.011.498.032.404.054.24.046.075.036.162.168-.009.114-.101.127-.192.145-.868.16-.476.126-.295.047-.885.046.039.05.657.069.735-.023-.02.081-.345.216-.112.188.096.154-.017.125-.257.263-.296.237.111.035.674-.34.18-.374.273-.327.316-.18.239-.07.752-.028.418-.19.356-.062h.15l.303.07-.017.076-.44.342-.934.554.38-.063.258-.132.346-.131.392-.195.259.177.397.131.238.3.385.145.232.113-.033-.19-.336-.382.092-.153.26-.076.808-.32.565.106.348.095.174-.026.44.015.704.051.685.09.666.127.513.15.36.17.219.119.076.065.122.171-.094.113-.503.261-.28.12-.278.052-.747-.052-.232.03-.244.082-.778.36-.43.155-.423.099-.098.052.909-.006.251-.106.21-.2.4-.207.757-.095 1.056.203.524-.009.4-.204.447-.14.176-.028.095.014.34.145.103.13-.009.296-.045.09-.303.223-.738.335-.483.126-.536.067-.583.114-.206.092-.201.13-.201.087-.256.073.335.106.128-.003.123-.064.337-.25.25-.109.143-.023.146.012.143.049.14.088-.012.213-.426.844.07-.002.26-.229.761-.88.186-.175.367-.178.822-.269.636-.14.717-.12.383-.043.437.03.285.138.384.025.468-.034.302.017.342.055.292.102.497.117 1.122.218.14.046.13.083.12.12-.014.118-.15.117-.188.071-.223.026-.232.064-.428.167-.14.028-.672.072-.622.035-.39.067-.747.181-1.03.336.012.08.41.04.334-.052.458-.232.43-.089.673-.071.93-.062.398.009.072.011.052.055.032.097-.152.127-.177.06-.48.286.316.075.434.032.248-.077.224-.176.251-.098.279-.02.245-.044.211-.07.057-.047-.307-.091-.025-.056.125-.137.226-.15.235-.095.175-.009.579.1.395.177 1.001.526.129.103.347.39.066.175-.057.12-.082.075-.107.025-.22.001-1.333-.16-.608.02-.265.045-.215.067-.166.085-.119.102-.233.058-.846.002-.475.057-.816.139-.293.077-.065.1.499-.016.822-.131.773-.037 1.292.288.426.045.237-.042.285-.014 1.032.02.352.035.523.11.8.24.154.07.09.075.025.077-.009.192-.08.065-.27.044-1.151-.051-.351-.04-.432.05-.35-.017-.449-.077-.492-.136-.738.13-.59-.084-.605.074-1.197.307.134.052 1.641-.263.317.017.518.096.82.19.23.077.002.298-.125.2-.25.225-.376-.03-.877-.14-.358-.02-.262.022-.352.09-.167.002-1.401-.177-.315-.01-.037.018.067.035 1.271.275.94.03.589.048.348.084.165.062.011.185.314.185.282.076.18.003.31-.068.312-.012.253.048.317.102.382.03.336.061.26.012.729-.03.317.04.081.034-.137.06-.667.144-.102.136.377.178.197.136-.01.101-.2.231-.051.093.066.01.485-.188.076.023.05.26.062-.015.163-.215-.073-.285.285-.113.904-.086-.153.448-.023.233-.395.387-.33.125.012.026.234.049.147.006.14-.06.334-.3.68-.312.123-.006-.006.113-.087.21.314.098.299-.097.162-.084.376.011.171.04.051.093-.173.387.032.096.396.257.04-.014-.074-.124-.082-.307.076-.134.327-.17.67-.247.248-.049.155.034.247.118-.077.07-.266.075-.198.133-.129.194.143.103.543.009.545-.159.313.078.373.207.682.332.388-.091.48.252-.645.2.198.421-.839-.017-.471.033-.316-.037-.34.014.315.1.606.04.055.128.476-.003.357-.026.644.006.035-.146.42-.084.24-.092.2.055.583.062.783.288-.345.172-.094.163-.116.137-.065.125-.137.086-1.121.488.185.006.475-.118.924-.176.515-.07.366.047.185.002.164-.063.306.072.633.066.728-.401.44.078.41.248.879.436.458.253.152.115-.02.113-.414.12-.212.026-.558-.226-.512-.115-.312.012-.31.087.097.048 1.24.349.216.257.017.113-.828.17-.266.01-.574-.082-.337-.152-.277-.055-.384-.017-.123.03.419.258-.04.077-.217.05-.107.125.828.225.62.228.091.091-.417.068-.3.017-.635-.033-.348-.048-.096.052.36.12.14.08.108.114.062.106.017.1-.294.081-.354.23-.138.238-.32.022-.13-.044-.43.071-.568-.099-.204-.108-.62-.448-.016.05.155.226-.032.135-.656.097.002.038.403.07.488.055-.076.209.002.89-.11.316-.238.276-.343.265-.37-.173-.149-.177-.124-.091-.178-.074-.229-.034-.242-.001-.256.158-.28-.137-.271-.164.102-.433.114-.216-.046.002-.154.102-.369.317-.242.386-.313-.148-.282-.185-.233-.186-.377-.214-.366-.252-.19-.297-.09-.06-.213-.248-.083-.07-.074-.023-.182-.155.067-.164.287-.195.261-.14.434-.138.507-.078.23-.178.283-.324.31-.225.336-.128-.167-.023-.429.11-.3.159-.359.265-.332.17-.855.196-.313.04-.364.02-.8-.029-.186-.066.096-.188.57-.336-.09-.022-.2.119-.276.082-.239.042-.351-.014-.411-.21-.196-.064-.403-.072-.164-.072-.668-.513-.135-.136-.078-.134-.215-.113-.35-.091-.081.014.126.114.003.099-.306.061-.32-.022-.335-.105-.03.14.358.25.006.315-.1.032-.244.02-.164-.039-.542-.235-.514-.165-.363-.09-.042.064.235.285.273.28.447.231.711.275.322.159-.253.224-.221.073-.138.023h-.431l-.787-.123-.37-.138-.537-.33-.888-.339-.193.002-.628.138.099.023.405.011.297.044.71.268.053.113-.177.126.011.16.2.191.203.123.417.087.21.011.079.056-.25.427-.02.117.071.049.087.003.537-.176.224-.043.195-.009.225.05.257.106.152.111.045.114.077.075.526.12-.048.057-.543.182-.03.028.11.015.342.108.316.17.192.201.04.1-.003.094.044.056.167.012.068-.036.076.006.084.05.09.154.189.453.1.128.058.006.03-.455.089-.075.334.08.49.178.345.157.04.074-.261.143.055.064.192.093.176-.035.128-.16.22-.157.26-.112.484.092.401.235.061.08.262.102.23-.057.447.27-.212.122-.464.178-.047.06.112-.014h.884l.239.07.056.137-.393.378-.36-.033-.476-.01-.245.02.038.05.66.175.187.143.253.148.123.12-.003.057-.104.083.05.029.452.055.28-.05.352-.02.31.015.026.052-.047.138-.317.128.085.03.373-.037.171.06.221.303.249.239-.203.055-.225.02.032.304.147.312.002.298-.046.266-.206.06-.221-.007-.088-.066-.541-.795-.134-.144-.16-.125-.574-.343.023.055.142.158.126.236.165.471.075.303-.033.116-.118.028-.03.055.055.082.439.31.212.186.15.194.14.13.13.068-.033.056-.193.043-.332.02-.155-.026-.596-.18-.084.056.33.657-.011.157-.166.056-.204-.065-.243-.187-.37-.207-.5-.23-.477-.179-.112.006-.074.053-.08.01-.085-.036-.16-.135-.166-.091-.697-.303-.071-.003.065.09.071.2-.078.043-.182-.017-.346-.086-.232-.2-.296-.345-.155-.13-.014.085.083.329-.017.11-.174.03-.073-.03-.072-.088-.07-.145-.165-.11-.261-.076-.146-.08-.072-.14-.05-.033-.46.033-.23-.101-.665-.4-.609-.433-.383-.229-.139-.054.204.28.224.414.057.189-.103.009-.225-.084-1.152-.534-.71-.25-.395-.045-.642-.03-.148.138.346.307.337.23.328.156.514.303.471.39.19.121.642.166.334.045.345.014.032.06-.168.11-.037.068.763.174.289.097.278.161.159.04.662.405.164.065.59.131.196.084.325.262.203.133.288.316.216.14.53.16.225.045.1.06-.069.144-.064.06-.301.1.047.137.17.245-.005.152-.185.06-.377.07-.19-.006-.286-.058-.36-.1-.716-.246-1.073-.171-.4-.092-.133-.082-.202-.049-2.665-.238-.447-.058-.278-.073-.257-.107-1.017-.245-.123-.054-.682-.42-.509-.49-.17-.066-.552-.064-.462.04-.31.054-.468-.017-.307-.08-.645-.22-.653-.118-.57-.192-.295-.068.029-.05.426-.286-.132.003-.741.218-.266-.067-.437-.172-.33-.172-.676-.478-.389-.172.055-.04.437-.016.348.014.234-.04.45-.193.194-.122.02-.072-.377-.017-.08-.035-.068-.079-.173-.101-.28-.124-.319-.053-1.094.045-.19-.054.002-.082.214-.232.116-.094.038-.052-.043-.011-.148.006-.635.208-.137-.014-.25-.22-.15-.25-.11-.089-.147-.03-.52-.245-.742-.468-.273-.146-.303-.131-.22-.056.03-.069.47-.388.02-.064-.402.023-.607-.08-.288.097-.183.006-.213-.054-.12.02-.115.318-.087.08-.126.043-.111-.006-.097-.054.002-.074-.092-.392-.212-.057-.599-.015-.129-.031-.145-.073-.124-.134-.103-.195-.119-.107-.134-.02-.107.014-.081.05-.187.032-.292.012-.009.075.274.138.265.197.255.257-.156.171-.565.088-.493.026-.42-.036-.321-.06-.453-.143-.645.047-.147.376-.137.02-.616-.01-.244.034-.82.208-.25.029-.19-.026-.184.05-.276.12-.376.01-.476-.094-.403-.04-.332.014-.342-.055-.351-.124-.287-.056-.377.009-.087-.02-.55-.267-.172-.109-.367-.336-.065-.133-.01-.142.033-.106.128-.159.139-.373.114-.124.173-.113.336-.142 1.217-.252.246-.1-.009-.065-.277-.308.003-.079.093-.046.198-.18.089-.05.214-.028.446.09.385.037.51.011.844.126 1.178.239.677.166.512.245.364.24.052.122-.168.188-.085.055.006.064.094.073.295.107.07-.04-.022-.128.06-.107.145-.087.017-.112-.112-.139-.14-.12-.166-.1-.762-.346-.073-.115.256-.052 1.113.116.427-.025.161-.135.175-.092.187-.05.375-.023.524.063.257.01.227-.024.296-.073.437-.245.279-.056.423-.038.317-.006.575.098.354-.003-.029-.164-.234-.313-.292-.323-.227-.109-.588-.204-.69-.385-.355-.24-.093-.119.05-.08.117-.116 1.253-.426.992-.423.436-.216.209-.15.217-.11.226-.07.477-.082.136-.105.03-.18.08-.155.448-.418.344-.113.519-.079.341-.1.411-.343-.04-.086-.19-.064-.147-.099-.634-.9-.423-.434-.507-.378-.453-.46-.752-.454-.01-.12.134-.136-.063-.03-.776.198-.183.01-.298-.087-.202-.108-.167-.189.017-.099.11-.093.148-.23.006-.117-.05-.112-.068-.078-.083-.043-.237-.029-.392-.011-.128.04.432.347-.066.085-.55.038-.248-.017-.227-.042-.205-.068-.64-.363-.136-.136.043-.099-.055-.051-.131.033-.177.002-.24-.035-.05-.043.45-.195.025-.06-.207-.066-.31-.014-.082-.058.104-.062.42-.107.15-.07-.252-.054-.14-.006-.283.117-.426.239-.31.088-.424-.11-.267-.037-.187.026-.285.184-.622.135-1.115.319-.479.101-.516-.017-.097-.064.009-.11.035-.09.063-.07.02-.086-.038-.363.087-.1.176-.059.325-.062.828.074.385-.014.27-.084.27-.12.271-.16.057-.152-.287-.247-.108-.054-.737-.192-.407-.07-.359-.03-.26-.056-.162-.08-.157-.134-.015-.091.026-.12.15-.083.66-.095-.01-.025-.539-.07-.253.009-.218.078-.274.185-.159.052-.492-.109-.295-.017-.2-.052-.11-.05.067-.05.245-.053.426-.159.029-.086-.295-.14-.152-.032-.615-.053-.743.052-.277-.025-.124-.156-.078-.185-.034-.216-.134-.367-.148-.192-.194-.025-.893.079h-.212l-.146-.029-.59-.245-.239-.087-.132-.02-.43-.26-.165-.052-.196-.129-.227-.206-.246-.063-.265.08-.265.115-.266.15-.144.127-.022.103.164.08.937.135.237.09.202.146.15.18.1.213-.01.159-.116.105-.201.094-.577.148-.598.086-.602.02-.285-.02-1.551-.287-.28-.002-.358-.039-.805-.118-.442-.015-.774-.098-1.31-.057-.262.047.349.133.305.066.262.001.377.118.491.235.281.14.233.167.007.058-.232.115-1.825-.601-1.116.21-.514.078-.44.011-.552-.082-1.242-.29-.471-.102-.167-.014-1.081.126-.933.006-1.882-.12-.69-.082-.182-.084-.227-.042h-.415l-1.078-.094-.987.212-1.188-.195-.351-.114-.112-.078-.346-.328-.047-.176.098-.159.097-.108.097-.06-.646.182-.226.03-.299.006-.89-.067-.14.034.046.064.232.093.031.055-.496.044-.751-.045-.328.02-.148.025-.34.147-.137.033-.178-.014-.788-.332-.636-.21-.74-.08-.34-.067-.187-.08-1.022-.673-.14-.145-.324-.527-.108-.112-.131-.073.256-.017.967.064.936-.003.508.042.59.132.768.093.55.02.881-.034 1.002-.088.118-.069-.649-.117-.578-.155-.534-.202-.319-.085-.534-.053-1.502-.037-1.39-.135-.962-.183-.782-.203-.318-.11-.115-.085-.122-.265-.128-.446-.124-.3-.12-.152-.016-.133.266-.285.76-.31.019-.048-.151-.014-.32-.079-.101-.115-.041-.183-.003-.154.036-.127.126-.159.328-.285.469-.345.507-.325.087-.106.045-.288.067-.21.07-.148.107-.111.314-.21.392-.2.613-.17.052-.063.008-.088.035-.065.063-.043 1.52-.545.691-.221.587-.141.702-.104 1.998-.212 1.03-.059 1.293.014 2.386.12.287.084.074.042.104.12-.079.076-.652.259-.822.215-.534.188-.905.423-.244.149-1.122.852-.265.14-.155.114-.109.307.033.11.175.178.608.388.164.18-.004.167-.068.398-.008.201.027.194.126.276.223.36.518.364.812.368.605.244.596.18.706.266.157.128-.324.142-.76.218-1 .093-.534.089-.665.19-.834.15zm-38.086-8.335 2.396.609.336-.05.725-.032.753-.09 1.043-.074.637-.135.271-.039.46-.023.251.001.724.073.29.051.154.054.167.098.285.24.042.088-.014.023-.264.147-.176.064-.363.06-.314.018-.27.107-.304-.029-.082.098.032.059.082.029.153-.006.175-.042.34.02.18.064.161.106-.12.098-.6.135-.886.153-1.079.481-.567.202-.117.063-.057.064.017.12.026.048.157.02.527-.168.34-.077.346-.043.61-.003.25.025.457.1.417.155.093.056-.04.057-.173.057-.02.037.399.078.439.212.028.129-.192.127-.052.085.088.043.216-.025.52-.143.56-.074.226.009.142.032.15.196.124.22.015.184-.093.15-.133.118-.336.145-.305.055h-.159l.016.026.361.12.151.097.065.094-.022.09-.05.076-.42.284.022.04.116.017.264.164.031.38-.946.118-.221.09-.262.14-.3.107-.678.111-.344.015-1.701-.094-.172-.054-.12-.096-.065-.14-.018-.109.03-.08-.009-.046-.048-.014-.189.08-.197.144.108.161.538.448.102.192.015.082-.024.061-.607.261-.351.09-.36.043-.344-.033-.326-.11-.249-.048-.513.006-.16-.057-.15-.105-.362-.378-.505-.268-.435-.3-1.106-.438-.572-.262-.763-.422-.32-.095-.265-.038-.52-.03-.122-.053-.19-.143-.327-.108-.12-.014-.193.025-.51.1-.64-.105-.144-.074-.085-.125-.081-.069-.217-.062-.183-.156-1.217-.309-.724-.354-.146-.128-.015-.052.075-.17.167-.193.22-.192.135-.078.476-.166.375-.037.523.02.276.036.248.111.106.128.123.086.389.094.21.075.31.176.239.213.22.07.526.022.544-.036 1.168-.133.048-.017.072-.08.133-.483.08-.002.397.224.112.025.171-.046.101-.109-.011-.052-.25-.261-.146-.114-.132-.071-.147-.023-.317.023-.242-.05-.054-.072.04-.097.133-.103.144-.058.278-.03.326.03.452.123.285.029.401-.036-.513-.072-.716-.286-.307-.054-.374.123-.253.046-.478.06-.38.01-1.595-.443-.089-.042-.116-.115.014-.053.157-.082.397-.108.592-.068.395-.011.345.08.504.22.44.127.036-.046-.077-.125-.202-.187-.144-.05-.354-.057-.328-.128-.154-.094-.082-.102-.012-.108.063-.074.136-.04 1.225-.108.856.12.543.017.225-.147-.079-.03-.285.039-.323-.001-.202-.08-.006-.048.252-.113zm4.917.22-.817.06-.378-.026-.2.079-.156.033-.447.014-.92-.141-.248-.05-.09-.045.037-.044.166-.042.706-.064.262-.048.108-.066.176-.053.245-.04.663-.038 1.487-.2.74-.028.29.017.088.053.024.052-.04.053-.232.135-.302.105-.812.226zm14.48-.83 1.116.134.543.088.267.059.508.198.259.056.99-.114.692-.043 1.54.053 1.308.163.48.123.295.113-.076.125-.241.201-.282.192-.566.3-.48.15-.118.072-.076.1-.186.147-.516.317-.138.054-.726.138.249.062.113.055-.095.14-.459.34-.475.314-.332.188-.604.27-.332.077-.446.023-2.694-.237-.676.003-1.796.124.17.06.657.092.425.1.563.312.073.077.035.09-.021.178-.039.045-.896.479-.29.348-.184.287-.301.08-1.004-.122-.324.003-1.126.084-.526-.042.075-.433-.074-.468-.166-.446-.842-.794-.093-.141-.062-.151-.031-.163.003-.163.058-.33.007-.167-.042-.436-.114-.652-.01-.23.008-.092.035-.07.18-.093.346-.067.175-.01 1.107.198.509.066.339-.003.018-.023-.301-.041-.283-.085-.462-.253-.212-.217-.042-.071-.01-.075.022-.078.067-.07.23-.11.189-.05.694-.127.7-.078 1.544-.052.438.037.668-.138.395-.033zm-75.435.137.023.011.73-.263.444-.015.31.023.098.034.062.052.03.114.02.283.04.035.1-.017.161-.067.8-.418.337-.115.231-.034.978-.063.664.002.734.039.547.059.897.172.705.198.648.21 2.171.793.919.234.35.133.157.097.136.122.042.113-.053.105-.1.074-.22.063-1.33.265-.699.082-.692.117-1.655.415-1.133.197-1.473.385-2.779.62-.33.124-.152.089-.785.705-.298.164-.723.167-.915.042-.256.047-.041.244-.329.405-.16.273-.218.73-.05.073-.167.135-.283.147-.883.17-.652.088-.887.074-.212-.05-.214-.117-.222-.011-.139.017-1.156.508-1.116.205-.483.186-.341.087-.275.029-.452-.017-.326-.084-.296-.13-.223-.141-.573-.58-.246-.2-.21-.098-.56-.354-.156-.07-2.136-.448-1.04-.252-.25-.088-.234-.052-1.335.034-.176-.014-.046-.037.158-.131.062-.083.02-.082-.023-.13.017-.023.508-.13-.082-.028-.06-.05-.037-.075.056-.052.147-.03.179-.12.21-.211.158-.12.218-.076.39-.204.28-.082.235-.103.006-.047-.096-.036-.033-.079.044-.246-.002-.127.043-.105.087-.086.11-.056.989-.178.05-.052.011-.06-.025-.066-.052-.048-.156-.038-.264-.012-.23-.102-.054-.05.092-.14.446-.224.15-.11.482-.498.88-.309.24-.332.66-.352-.001-.048-.214-.12-.61-.084-.294-.128-.197-.145-.893-.838-.153-.062-.045-.097-.183-.065.037-.06 3.487-.25 2.4-.079 2.485-.217.693-.014.536.042.53.113.701.198.93.192 1.734.282 1.082.06-.434.224-.061.068zm63.553-1.175-.854.172-.186-.066-.08-.061.663-.261.284-.068.279.08.076.062-.036.048zm5.818.06-.13.014-.253-.017-.953-.127-.163-.052-.046-.038.216-.046.082-.05.242-.058h.427l.447.145.211.131.011.058zM236.78 26.86l-.536.014-.924-.086-.55-.166-.169-.08.017-.035.095-.036.133-.108.315-.311.118-.083.496-.18.364-.047.77.014.448.093.187.06.134.071.131.16.033.105.224.118.068.068.003.067-.063.068-.13.069-.295.1zm30.036.023.183.215.033.087.009.184-.078.24-.052.044-.075.02-.036.062.003.104-.074.063-.15.022-1.018.048-.63-.01-.932.031-.462-.014-.303-.05-.44-.114-.929-.267-.469-.01-1.176-.093-.65-.29-.248-.052-.251.087-.069-.02-.069-.058-.07-.098-.122-.05-.493.026-.09-.032-.023-.085.008-.074.089-.117.519-.32.257-.022.318-.06.176-.172-.019-.163.484-.243.288-.071.518-.17 1.764-.264.487-.023.651.02.63.084.483.14.987.346.45.208.238.215.215.123.266.265-.097.104-.057.14zm-7.201-1.37-.221.094-.228.006-.306-.089-.333.034-.455.178-.162.106-.125.038-.381.033-.165-.03-.154-.094-.145-.157.107-.119.36-.08.946-.13.27-.064.03-.07.057-.045.083-.022.632.116.3.079.227.09-.025.035zm-70.984-.667-.222.014-.246-.032.057-.073.553-.198.03-.057-.008-.047-.069-.054.14-.07.225-.028.074.028.026.06-.052.177-.07.086-.095.073-.147.066zm75.39-.012-.277.001-.36-.059-.103-.062-.077-.084-.054-.107-.075-.086-.097-.065-.02-.053.056-.044.118-.025.27-.01.588-.11.111.01.078.06.08.154.083.092.232.167.102.107-.022.034-.073.03zm-67.586.482-.812.182-.577-.02-.765-.133-.623-.046-.22-.044-.032-.047.212-.128.265-.103.634-.201 1.072-.388.701-.147.689-.103.702-.232.388-.104.338-.009.344.045.038.063-.361.316-.255.127-.496.329-.954.551zm111.497-.983.032.167-.206-.009-.657.11-.536.016-.268-.049-.17-.114.419-.213.48-.15.579-.23.48-.153.236.032.23.08-.288.23-.313.115zm-65.777-.253.594.174.029.04-.112.034-.769.092-.299.074-.25.173-.193.08-1.034.048-1.054-.002.199-.167.577-.272-.454-.113-1.614.188-.612-.116.524-.295-.522-.028-.732-.001-.465-.175.158-.21.961-.115 1.251-.1 1.344-.151 1.051.011.409.072.136.242.131.288.183.025zm-5.099-1.613.14.014.433-.057.28-.011.31.107.081.07 1.12.174.395.079.05.052-.14.075-.33.097-.319.066-.456.053-2.268.009-.246-.023-.143-.087-.28-.323-.2-.174-.075-.12.05-.068.242-.068.838-.101h.37l.234.025.095.052-.03.07zm17.952.33.032.128-.035.097-.1.07-.005.079.09.089.38.226.121.12.018.122-.02.084-.233.161-.104.209-.006.11.14.173.004.08-.263.138-.558.12.08.063 1.201.152.09.035-.005.342.209.375-.078.01-.29-.118-.533-.14-.639.26.073.443.42.197.127.113-.04.068-.356.03-.123-.014-.364-.09-.211-.134-.067.006-.065.065.042.066.247.12.104.143-.11.04-.366.038-.495.002-.776.065-.383.011-.373-.035-.498-.009-.414.014-.253-.028-.23-.067-.269.017-.585.17-.908-.054-.817-.014-.165-.057-.183-.11-.36-.346.068-.087.873-.047.017-.03-.62-.123-.712-.091-.33-.071.076-.136-.023-.034 1.228-.155.893-.306.554-.124.04-.06.468-.062 1.084-.038.042-.084-2.046.048-2.802.173-.866.085-.723-.05-3.067.268h-.13l-.321-.085-.276-.16.198-.11.9-.21.451-.185-.053-.1.358-.177.573-.025.975.145.506.144.454.068.403-.015.417-.1-.106-.012-.707.054-.082-.017-.361-.161-.157-.103-.101-.102-.006-.073.217-.137-.81-.045-.303-.096-.138-.118.03-.052.256-.138.688-.191-.08-.053-1.002.006-.22-.025-.427-.12.094-.13.399-.193.3-.114.202-.035.313.001.744.074.214.041.57.186.145.105-.017.102.11.075.442.11 1.9.566.355.134.243.06.44.043.257-.01.209-.04.035-.051-.822-.198-.206-.106-.176-.144.077-.046.239-.017.6.02.708-.039-.784-.06-.513-.08-.525-.004-.658-.128v-.04l.16-.042.895-.057.17-.026.015-.035-.296-.086-.264-.047L246.63 23l-.48-.117-.153-.056-.05-.053.174-.138.727-.172.528-.082.906-.06.723.008.412.023.964.292.454.192.793-.034-.229-.201-.15-.222.236-.081.653-.144.52.075.679.195.149.067.763.12.452.04.234.065zm-10.01-.32-.736.012-.34-.034-.023-.05.294-.066.978-.107.577-.195.215-.026.752-.028.438.006.563.046-1.356.24zm-20.066 1.483.358.01.42-.032.472.02.214.064.152.113.006.06-.03.053-.067.044-.61.285-.144.1.198.025.095-.017.61-.214.46-.067.348-.014.574.042.228.037.157.044.085.05.226.206.163.265.025-.028.003-.15.032-.115.564-.078.014-.026-.202-.064-.173-.087-.12-.164.048-.061.118-.066.36-.14.422-.082.375-.02 1.396.145.55.12.223.06.08.044.117.14.234.384-.002.123-.108.198-.451.372-.069.253-.454.627-.31.17-.343.12-1.407.21-1.06.214-.268.034-.277.003-.876-.071-1.017-.136-.578.038-.577.099-.363.025-.341-.014-.34-.035-.446-.092.23-.042.106-.047-.093-.049-.47-.07-.486.156-1.421.362-1.91.121-.6.074-.444.095-.232.08-.353.184-.544.139-.985.152-1.252.236-2.245.242-1.413.042-1.412-.08-.447-.065-.47-.102-.96-.24-.265-.087-.308-.19.182-.125.512-.145.765-.131 1.53-.178 1.386-.285.491-.054 1.336-.043.673.025.487-.014.321-.04.477-.102.696-.205.509-.191.129-.09-.17-.084-.25-.011-.831.197-.417.066-.455.006-.623.067-.607.029-.118-.002-.632-.189-.337-.033-.157.02-.144.05-.274.139-.159.05-.272.036-1.103.041-1.056.07-.236-.043-.143-.08-.03-.05-.016-.165-.071-.066.092-.137.12-.105.149-.072.726-.213.102-.055-.346.01-.822.105-.108-.036-.192-.119-.092-.011-.105.049-.061.07-.141.287-.125.147-.33-.03-.41-.088-.152-.012-.088.029.028.05.415.245.006.086-.272.151-1.157.25-.457.067-.161-.025-.146-.069-.129-.112-.3-.15-.18-.033-.2-.006-.184.031-.168.066-.104.07-.1.132-.21.1-.13.018-1.175-.209-.947-.37-1.036.058-.465-.014-1.412-.136-.18-.083-.099-.11.01-.058.058-.061.179-.122.356-.183.148-.06.221-.048.294-.039.748-.022 1.925-.006.385-.029 2.107-.355.24-.058.31-.113.069-.047-.014-.031-2.591.281-1.111.06-1.703-.045-.32-.044-.073-.08.355-.208.187-.077.484-.074 1.172-.104 1.566-.092 1.026-.002.86-.073.518-.083-1.734.006-2.09.04-.301-.03-.597-.11-.029-.08.239-.096.088-.072-.171-.161.052-.063.39-.135.694-.145.428-.02.826.05 2.353.051.457-.017-.289-.063-.41-.047-1.817-.081-.376-.036-.072-.05-.028-.073.017-.097.132-.099.564-.207 1.653-.17.658-.023.659.012.67.076.297.066.15.082.072.076.01.132.031.052.121.087.385.203.284.063 1.307-.118.545-.025.547.037.798.122 1.033.369 1.33.376-.006.081-.51.126-.095.054.069.037.509.026.477-.017.455.028.102.033.167.138.232.243.276.182.319.12.314.061.463.006.466-.035.756.011 3.898.139.231-.026.165-.076.098-.128.037-.106-.053-.144-.075-.068-2.417-.466-.212-.188 1.18-.262.086-.06.023-.083-.04-.106-.16-.101-.634-.193-.561-.029-.832-.19-.131-.048-.108-.075-.084-.103.014-.08.113-.056.819-.192.331-.107 1.022-.48.473-.194.338-.091.344-.057.757-.025.789.179.174.011.072.047-.03.084-.099.08-.282.143-.066.06.022.062.194.143.06.094.042.159.031.023.475.134.43.175.2.274-.154.095-.364.13-.216.11-.069.086.055.053zm52.72-1.278-.133.038-.428-.02-.142.038-.228-.023-.313-.08-.366-.16-.419-.236-.327-.204-.018-.056.107-.095.328-.063.776-.076.532.002.495.154.14.053.085.063.003.06-.04.053-.225.118-.098.083v.08l.05.117.09.077.132.037zm-67.68-.67-.43.093-2.951-.138-.161-.043-.077-.058.535-.16.645-.07 1.5-.055.523.062.346.073.196.063.082.12zm54.707-.48.532.025.454-.038.389.01.575.114.533.175.41.079.131.04.052.044.064.133-.002.061-.03.05-.179.12-.15.15-.312.132-.165.1-.142.125.32-.075 1.21-.415.793.05 1.19-.037 1.442-.17.685-.026.69.012.514.053 1.096.23.38.108.142.077.034.057-.225.088-.688-.053-1.133-.047-.207-.03-.176.002-.129.032.08.121.23.026 1.361.025 4.46.386.185.123-.05.054-.157.061-.325.081-2.572.089-1.463-.079-1.23-.126-.417.029.363.17.738.053.617.101.256.085 1.309.064.214.066.407.169.34.014.34.117.278.202.128.029.394-.036.664.175.206.094.001.07-.148.111-.297.15-.75.176-.058.053.876-.02.162.023 1.033.313.136.006.085-.033.098-.11-.044-.103-.126-.142.034-.103.194-.065.196-.031h.198l.216.038 1.044.378 1.34-.18.244.08.202.152.095.026.495-.302.306-.075 1.256.358.766.08.308.077.568.085.809.032.133-.133-.466-.172.272-.075 1.112-.145.593.02 1.095-.205.672-.029.413.003 1.355-.31.322-.049.233-.11.533.016 1.44.177.409-.017 1.533-.176.567-.043.568.006 1.438.103 1.076.11.334.058-.119.146.054.043.14.031.35.043 1.344.003.584.037.465.136.111.054-.017.057-.457.147.075.03.457.035 1.027.017.22.034.212.184.221.254-.003.1-.356.172-.973.23-1.08.19-.07.05.345.09.356.04.28-.009.862-.087.196.002.395.09.183.087.168.117-.303.106-1.24.132-.732-.173-.246-.039-.166.014.094.077.354.137.116.091-.123.044-.058.087.006.13-.03.133-.12.206-.042.009-2.693.042-.324.037-.758.146-.572.073-.373.011-.365-.025-.983-.151-.655.028-.257-.014-.554-.1-.135-.051-.224-.132-.17-.18.014-.11.071-.16-.043-.08h-.158l-.176-.033-.53-.16-.327-.048-.061.026.096.125.064.04.35.091.064.106-.149.268-.052.044-.34.196-.256.057-.699.003-1.07.14-.513.02-.686-.033-.429-.064-.278-.073-.27-.104-.142-.009-.072.225-.133.03-.23-.003-.354-.07-.293-.163h-.091l-.04.095-.066.063-.09.03-.751.1-.42.001-.438-.116-.287.011-.368.063-.894-.119-.214-.006.184.193-.296.03-.637-.006-1.048-.063-.65.09-1.173-.053-1.185-.014-.22-.045-.157-.09-.006-.08.058-.111.173-.165.29-.22.1-.115-.262-.054-.16-.072-.134-.009-.417.085-.272.246-.208.072-.092-.06-.07-.15-.091-.073-.114.003-.112.04-.108.076-.164.029-.217-.02-.077.037.063.095.022.09-.019.083-.187.08-.535.117-.308.038-.812.017-.485-.035-.983-.14-.544-.007-.656-.236-.519-.055.027-.085.226-.159-.007-.047-.708.231-.097.074.083.172-.094.011-.488-.062-.48.047-.115-.014-.331-.124-.583-.125-.257-.141-.4-.441-.204-.292.025-.059.298-.082-.045-.065-.37-.163-.4-.138-.119-.095-.054-.097-.053-.139-.002-.103.048-.067.228-.208.626-.372.084-.068.034-.066-.086-.197-.121-.198-.123-.14-.345-.196-.475-.202-.668-.363-.495-.283-.592-.398-.285-.034-.33.017-.714.137-.24.065-.06.044-.53.009-1.506-.036-.576-.042-.43.011-.738.101-.787-.02-.493-.28-1.12-.15-.333-.085-.229-.116.076-.075.636-.068.265-.074.127-.06-.631.051-.279-.009-1.898-.378-.584-.067-.1-.034-.05-.044.002-.056.055-.083.564.105.253.01.395-.032.141-.066-.09-.038-.646-.126-.313-.096-.12-.07.124-.098.032-.067.208-.038.384-.009.49-.047.898-.13.601-.045.6.006 1.453.131 1.45.168zm-60.36-1.28.216.11.014.045-.103.046-.333.075-1.675.249-.328.117.123.1.604.204.614.172.133.086-.292.087-.559-.028-.209.009-.197.04.053.077.619.255.203.137-.006.07-.11.07-.259.095-.41.12-.701.097-1.51.129-.05.1.011.077-.036.187-.052.086-.18.145-.13.068-.227.047-.322.026h-.413l-.682-.125-.309-.08-.43-.173-.078-.116.042-.143.114-.22.187-.224.261-.23.077-.142-.106-.056-.179-.003-.555.092-.36.034-.277.068-.197.101-.111.11-.062.211-.106.115-.3.063h-.448l-.17.035-.083.077.06.063.442.131.055.147-.053.089-.478.163-.112.055-.296.256-.11.065-.246.059-.249-.006-.23-.094-.337-.177-.227-.152-.116-.128-.1-.056-.16.039-.195.132-.006.103.043.153-.012.094-.284.11.041.051.498.136.065.061.003.095-.033.043-.2-.006-.168.11-.192.086-.506.16-.703.02-.582.078-.123-.003-.14-.126-.158-.25-.14-.143-.21-.073-.26-.284-.122-.091-.119-.037-.1-.01-.146.055-.338.407-.552.104-.303.02-.306-.012-.757-.111-.606-.041-.424.047-.697.166-.278.044-.376-.02-.165-.063-.14-.102-.014-.062.11-.023.173-.119-.006-.047-.172-.069-.002-.054.062-.036-.014-.025-.089-.014-.172.014-.62.078.07-.085.296-.179.723-.356.273-.105.164-.031 2.135-.114.149-.035 1.014-.479.29-.11.296-.086 1.455-.29.135-.065.227-.2.133-.05.314-.077 1.048-.405.955-.292.485-.181.664-.183.767-.079 2.314-.137 1.666.18.396.012.194-.051.175-.084.25.035.618.026.137-.02.26-.095-.178-.052-.748-.095-.046-.049.017-.046.263-.11.318-.07.92-.054.422.015.437.076.57.157zm73.03.271-.742.162-.38-.006-2.172-.332-.437-.164-.084-.11-.023-.158.007-.215.094-.144.114-.05.256-.052.501-.032.477.017.715.058.713.096.945.293.34.14.071.182v.111l-.05.081-.099.05zm-41.813.357-.435.051-.864-.115-.566-.05-.468-.205-.501-.28-.395-.308-.147-.182-.287-.108-.1-.179-.519-.28.087-.042.49-.041.781.052.374.1.473.167.613.266.189.118.036.162.111.088.526.014.647.215.118.082.134.17-.01.08-.103.165zm25.766-1.846.714.108.775-.057.833-.006 1.851.046 1.227-.03.317.016.483.07.256.084.233.142-.597.087-.513.44-.069.023-.557.006-.273.035-1.626-.062-4.481-.029-.196-.055-.59-.258-.037-.102.107-.12.126-.08.147-.038 1.303-.193zm-17.632.27-.39.026-.706-.014-.847-.102-.228-.12-.048-.188.012-.105.067-.02.524-.025.98-.03.792.023.9.108.367.07.186.048.231.099.076.044.05.077-1.124.017-.53.03zm-34.47-.164-.776.096-.515-.002-.912-.136-1.056-.414-.139-.148.394-.026.287-.045.179-.064.34-.07.785-.106.095.04-.017.087.065.08.281.018.266.057.538.177.368.034.133.04.07.059.224.103-.003.054-.303.107zm9.583-.99 2.275.068.098.014.009.051-.171.164-.263.118-1.214.15-1.567.135-.325.066.026.039.127.049.262.061 1.213-.014.293.026.103.04.062.058.038.076.002.258-.064.15-.167.135-.492.096-.884.127-.6.057-.472-.02-.47.014-2.062.24h-.637l-.557-.058-.77-.226-.8-.088-.342-.102-.336-.055-.093-.082-.033-.06.057-.056.145-.05.048-.043-.134-.125-.062-.119-.232-.17-.034-.099v-.064l.04-.07.153-.123.08-.025.47-.02.616-.064 1.42-.185 3.117-.231.947.02.414-.046zm21.168-.123-.326.057-.38-.033-.054-.036-.009-.042.038-.05.425-.178.39-.06.231-.012.189.06.105.09zm-19.345-1.43.497.165.17-.003.218.03.105.044.298.211.058.105.017.135-.046.113-.11.09-.266.058-.637.037-.889-.054-.771.07-.355.008-.956-.044-.241-.033-.53-.129-.405-.053-.17.029-.203.113-.382.14-.234.035-.688-.022-1.055-.236-1.211.07-1.255.138-.49.025-.144-.04-.197-.103.03-.053.375-.157.835-.166.61-.094 1.213-.136 1.434-.077.537-.08.34-.116.933-.183.55-.076.737-.064.597.003.76.148.566.074zm38.651.338.67.074 1.157-.033.42.054 1.085.191.329.113.078.086.002.043-.36.093-.72.141-.175.107.643.134.326.118.147.085.005.088-.433.235-.319.07-.486-.01-.23.024-.623.11-.968.105-1.32.043-.36.065-.655.107-.442.017-.144-.061-.067-.09.034-.062.093-.077-.21-.072-.947-.139-.551-.193-.079-.06-.027-.055 1.225-.036.527-.038.235-.063.039-.037-.235-.017-.84-.13-1.408-.077-.067-.09-.588-.181-.056-.172-.128-.047-.399-.074-.059-.026-.118-.11-.018-.061.023-.055.724-.116-.1-.08-.551-.3-.145-.168.023-.063.343-.088.48-.002 1.27.026.606.036.605.072.663.106.99.094.317.062.597.198.064.063-.04.063zm-20.506-2.228.665.058.788.182.744.387.038.05.003.063-.03.08-.099.102-.135.061.383.075.042.037-.034.082.047.062.231-.06.199-.093.05-.06.04-.16.58-.079.611-.116.287-.025.48.028 1.149.275.438.025.16.033.145.063.01.07-.234.16-.09.097.055.063.6.054 1.367-.107 1.195.26.661.31.49.104.077.056-.139.053-.14.146-.391.108-.084.048.209.13.016.08-.028.112.077.062.536.067 1.224.46.222.128.138.16.014.055-.174.088-.191.251-.108.058-.497.049-.902.044-.843.086-.905-.11-.884-.168-.268-.11-.22-.134-.058-.052-.089-.215-.047-.045-.373-.121-.331-.18-.636-.015-1.509-.184-.646-.044-.646.015-.916.074-.172-.02-.156-.055-.14-.09-.035-.066.15-.116-2.686.146-.765.17-1.072-.029-.535-.072-.713-.161-.328-.141-.302-.19-.029-.143.244-.097.254-.058.265-.017 1.457.113 1.277.057.55-.058.25-.153-.3-.083-1.229-.033.262-.081 1.039-.084.543-.123-.105-.044-.312-.05-1.393.015-.5-.05-.028-.04.112-.052.793-.252-.032-.046-.341-.082-.3-.107-.111-.012-.69.096-.969.37-.231.053-.222-.003-.212-.06.002-.077.216-.096.45-.286-.033-.102-.44-.069-1.156.051-.645.002-.1-.08-.025-.152.026-.142.16-.222.224-.17.137-.06 1.534.035 2.507-.105.733-.012zm13.16-1.89.064.37-.06.186-.143.138-.127.032-.17.006-.776-.107-.237-.063-.013-.054-.076-.104-.518-.135-.971.023-.404-.015-.162-.04-.101-.058-.096-.234.017-.083.12-.144.07-.035.712-.133.203-.011.87.05.772.006.388.037.346.084.203.126zm19.61-3.27.371.237 1.37.566.62.205 1.054.256.131.092.012.039-.03.136.3.05.908.08 1.01.14.182-.008.352-.084.424-.023.556.02.265.06.195.088.081.063.012.049-.2.094.023.037.119.044.02.052-.2.201.056.075.508.183.46.092.908.1.592-.01.367.064.009-.04-.166-.116-.356-.167-.659-.086-.095-.098-.05-.166.057-.11.338-.088.285-.029.85-.003.468.04.81.123.083.068.044.133.033.267-.02.057-.692.152-.15.102.174.03.595.022.917.094.359.009.357.216.281.207-.205.252-.27.405-.215.093-.213.142.149.025.902-.056.182-.02.603-.138.885.032.298.036.147.049.27.153.222.204.165-.017.412-.247.15-.061.206-.06.087.012.416.23.925.407.318.168.06.123-.394.145-.308.072-2.277.308-1.02.174-.507.134-.26.045-.547-.02-.124.023-.168.216-.182.093-.471.15-.66.27-.394.119-.693-.087-.173-.126-.096-.285-.013-.118.022-.062.087-.101.3-.244-.036-.025-.139.02-.46.122-.18.063-.17.112-.075.188.067.346-.066.14-.182.069.074.053.542.075.096.032.06.059.024.085-.026.079-.163.12-.305.05-.39-.055-.84-.3-.365.018-.092.034.078.107.259.24.047.198-.12.166-.24.26-.164.14-.09.02-.418.004-.358-.07-1.063-.458-.526-.195-.769-.38-.196-.08-.119-.016-.111.164.214.151.692.357.413.26.298.214.048.09-.102.034-.152-.02-.204-.075-.63-.126-.262-.071-.17-.082-.315-.062-.457-.042-.46-.01-.461.026-.088.04.52.111.181.063.135.079.089.096-.171.061-.646.038-.862-.022-1.396-.084-1.39-.14-1.284-.215-.929-.216-.367-.116-.115-.086.348-.076 1.218-.096 1.22-.063-.193-.053-2.216-.123-.73-.023-.389.032-.446-.02-.35-.097-.46-.185-.235-.123.032-.048.176-.028 1.002.023.138-.017-.502-.092-1.606-.183-.603-.16-.111-.063-.046-.062.02-.061.604-.123 1.863-.29.64-.045.645-.003.448-.083.388-.275 1.93-.099 1.487-.123.124-.034-1.115.023-1.577-.026-.672-.187-.454-.031-.503.002-.586.058-1.002.174-.481.04-1.087.18-.303-.015-.152-.023-.045-.035.196-.118.285-.082-.058-.028-.426-.017-.494.003-.343.028-1.252.158-.562.117-.168.012-.606-.184-.967-.101-.216-.08.2-.309.282-.064.741-.052 2.223-.281.125-.054.21-.142-.51.03-1.113.138-.92.068h-.725l-.53-.02-.336-.039-.404-.088-1.315-.405-.359-.196-.05-.174-.092-.132-.38-.317 2.814.197 1.102.038 2.124.014.1-.02.031-.051-.037-.084.017-.064.069-.045.79-.114.118-.038-.93-.02-1.71.191-.604-.002-.685-.273-.731.048-.346-.022-.538-.069-.265-.06-.17-.074-.073-.063.025-.05.144-.057.631-.078.285-.009.751.05.563-.002-.185-.084-.814-.212-.712-.235.054-.392.584-.083.606-.014.592.1.793.013.568.112.379.215.449-.003.707.04 1.583-.003-.286-.076-.493-.067-1.12-.088-.545-.314-1.157-.162-.905-.084.015-.072.68-.39.822-.14 1.31.053.86-.074 1.108-.137 1.086.064.28-.006.166-.043.145-.08v-.076l-.143-.068-.343-.085-1.385-.011-.613-.033-.239-.045-.069-.068-.036-.07-.004-.073.036-.044.116-.023.34-.029 1.291-.003.773-.039.846.052 1.767.193.57.098.608.165zm63.598-5.35 2.316.052.75-.017.858.125.518.014.852-.023.622.03 2.311.028.48.05-.006.058-.498.128-.67.123-4.32.4-.317.067.841.02 1.241-.02.962-.045 1.134-.136.375-.01.721-.065 1.395-.185 1.117-.1.504.044.425.07.287.009.149-.054.239-.146.14-.054.367-.038.224.003.364.07.403.164.371.114.2.002.85-.13.428-.016.973.047.404.056.073.061-.258.064-.16.055-.063.046.142.054.588.115.852.25-.006.093-.465.187.012.048 2.19-.198 2.21.088.625.06.24.073.256.12.27.166-.188.174-.97.271-1.004.21-.59.19-.909.105-3.111.458-1.521.147-.875.145-.392.025-1.852-.028-.491.08-.273.134-.584.064-.863.046-1.763.037-.396.151-.1.103-.173.08-.15.038-5.039.545-.093.091.508.038.638-.038 7.332-.661 1.408-.044 1.306.048-.15.153-1.85.437-2.353.394-1.176.299-2.974.515-2.431.513-.934.261-1.252.466-.427.112-.52.047-.612-.02-.552-.068-.735-.174-.67-.195-.21-.034.127.096 1.292.647-.148.125-2.372.132-1.05.117-.542.029-.384-.02-.374.011-.364.045-.02.05.325.056.944.043 2.099-.146.336.011.54.071.026.065-.564.206-1.699.247.222.014.487.088-.012.079-.535.185-.253.059-1.638.172-.713.04-.627-.022-2.873-.377-1.013-.054-.963-.095-.711.017-.754.11.339.056 1.39.106 1.162.02.481.04.19.07.5.25.08.135-.11.125-.152.088-.193.05-.297.025-1.135-.017-.424.031-.493.074-.617.031-1.113-.014-1.31.107-.693.02-.768-.048-.832-.12-.878-.06-1.484-.05.124.068.523.029 1.065.183.51.248.48.042.978.204.707.032.739.07 1.04-.09.699.017-.145.502-.309.049h-1.681l-.8-.073-.353-.075-.774-.086-.698.05-.633-.012-.429.05-.68-.002-1.78.085-.941.001-.695-.055-.806-.017-.92.02.065.058.39.017.567.095.526.145.437.061.524-.034.533-.068 1.947-.112.854-.017.762.05.507.061.354.074.447.197 1.123.023.855.065 1.364.285.375.023.15.074-.289.184-.032.11-.943.215-1.471.063-1.617-.02-1.157.025-.121.029.794.056 1.84.25.714.136.124.08-1.015.302-.895.6-.294.048-.307.017-.789-.012-1.001.151-.755.03-1.369-.056-1.58.003-.125.097-.078.186.009.28.096.375-.082.274-.261.173-.329.128-.595.124-.611.077-.457.028-.761.003-2.184.09-1.065-.007-.828-.037-.856-.125-1.426-.35-.405-.078-.397-.046.016.076.426.196.356.127.285.056-.067.06-.629.095-.694.042-.822-.002-.026.036.279.102.362.096.239.029.63-.03.73-.121.454-.036.906.03.357.042 1.131.266.158.011.837-.133 1.211-.006.445.107.17.208.02.168-.129.13.28.125.685.123.532.025.378-.07.576-.167.244-.04.23.009.352.122.472.236.044.275-.385.316-.47.206-1.846.341-.557.134-.441.14-.64.126-1.256.168-.662.031-1.43.181-.31.01-.464-.03-.096-.089.118-.156.153-.146.189-.135.007-.113-.404-.174-.283-.08-.274-.041-.55.023-.312.047-.334.01-.356-.03-.3-.074-.6-.308-.226-.04-.295.01-.265-.045-.234-.098-.387-.095.103.073.388.175.27.174.152.173-.07.137-3.283.075-1.41-.04-.286-.118-.674-.513-.147.906-2.459.147-.574-.025-.957-.102-1.236-.244-.512-.161-.2-.161-.15-.088-.097-.015-.308.195-.336.397-.844-.103-1.07-.1-.385-.391-.022.567-1.723-.076-.828.02-.243-.496-.04-.548-.336.347.146.294.048.359-.733-.102-1.607-.05-.569-.05.073-.476.127-.475 2.07-.473.61-.224.448-.09.71-.057.908-.035.619.028.706-.025.844-.084.603-.026.113-.03-.174-.043-.645-.305-.232-.07-.235-.03-.467-.015-.453-.133-.262-.118-.28-.16-.448-.304-.445-.34.22-.185.738-.147.74-.1.74-.057.62-.001.746.08 1.05.157.603.177.756.376.498.299.405.135 1.81.244.603.04.715-.02 1.458-.064.716-.067.322-.08.165-.114.206-.088.645-.203.987-.42.546-.331.13-.112.109-.135.088-.158-.308.084-1.704.82-.353.149-.998.252-.422.04-.68-.011-.904-.112-1.064.178-.645-.046-.572-.124-.008-.581-.726-.465.802-.236.664-.146 1.181-.38.26-.002.855.06-.47-.087-.46-.128-1.022.034.36-.818-.684.611-.698.32-.423.163-.474.093-1.794.08.44-.3.405-.442-.428.165-1.011.25-.757.13-.624.068-1.21-.017-.603-.125.172-.306v-.377l.369-.174.56-.224.6-.302.411-.314 1.607-.14 1.565-.057 1.31-.165.641-.03.615.079 2.497.129 1.025.098.45.072.332.025.353-.106.447-.103 1.556.01.43-.019.396-.048.482-.098.57-.147.086-.072-.394.003-.396.036-.593.108-.572.058-.583-.012-1.177-.09-2.045-.018-1.042-.04-.484-.045-.272-.06-.238-.091-.205-.121.107-.086.416-.049.36-.011.579.067.649.113.706.014-.245-.104-.897-.207-.623-.176-.521-.217-.402-.213-.892-.336-.719-.333-.507-.148-.536-.073-1.631-.091-.327-.06-.778-.29-.21-.491-.34-.3.329-.382.543-.173 3.259.135 1.375-.02 1.757.048.945.093 1.08.233.963.263.928.175.853.24.932.356.549.171.475.105.64.09 1.206.113 1.052.037.545-.014.583-.082.414-.097-.462-.029-1.211.012-.841-.052-.48-.115-.51-.154-.81-.29-.614-.19-1.341-.31-.99-.309-.795-.292-.074-.127.574-.089.706-.062 4.42-.198 2.637-.236 1.07-.275.127-.064 3.53-.388 2.496-.143.96-.023.87-.062.035-.038-.761-.052-.77-.025-1.744.002-1.554-.047-.469-.086.097-.14.15-.12.47-.202.502-.152 2.132-.435 1.435-.184.414-.126-3.088.282-1.078.204-1.084.307-.561.09-.4-.023-.358.029-.315.08-.264.15-.213.215-.194.146-.174.079-.439.113-1.057.221-2.48.31-.835.078-.714.012-2.316.174-.695.006-.77-.052.329-.151 1.225-.278.325-.125-.784.029-.8.076-1.764.063-.698.113-.676.205-.542.13-.408.052-.562.031-2.067.017-.46-.014-1.189-.157-1.053.054-.435-.011-.798-.11-.239-.073.036-.096.461-.182.535-.175 1.74-.383 1.116-.18 1.609-.155 3.778-.172.172-.127-3.824.141-3.253.18-.528.065-.757.175-2.404.636-.71.16-1.083.039-.83-.055-.648-.08-1.116-.188-.842-.102-.398-.067-.235-.069-.191-.08-.146-.092.273-.077 2.14-.166 2.91.033 1.305-.035 1.284-.1 1.895-.25 2.062-.35.404-.111-.753-.026-.557.029-1.342.125-2.123.336-1.853.12-4.576.063-1.453.094-.638-.02-.48-.092-.536-.17.095-.136 1.09-.153.855-.036.153-.031-1.213-.148-.108-.075.7-.167 1.52-.246.767-.078 1.407-.05 1.447.03.056-.048-1.432-.093-1.072-.017-1.418.066-3.763.398-.32-.011-.548-.069.157-.098 2.012-.419.067-.066-1.446.01-.424-.02-.415-.05-.589.044-.764.137-.538.06-.314-.02-.799-.164.104-.136.635-.172.58-.123.789-.113 1.283-.142.929-.047 1.504-.001.716-.063.638-.11.798-.178.876-.122 1.43-.1 1.205.032.666.087.529.154.568.117.054-.094.469-.117.588-.05.708.016.622.056.805.141.651.064.306-.003.383-.078 1.017-.002-.02-.034-.333-.082-.401-.058-3.607-.407-.1-.089 1.216-.083.76-.1.357-.023.89-.212.582-.11 1.077-.126.432.035.543.11.526.07 1.546.066.662.068 1.178.396.47.129.67.133.4.05.788.032.08-.075-.935-.187-.257-.108.11-.092.2-.048.288-.006.74.081 1.964.278 2.938.33 1.126.076.695.118.633.143.625.099.116-.01-.581-.22-1.421-.273-3.8-.466-1.504-.244-.727-.165-.55-.166-.011-.092.518-.106.698-.085.867-.034.104-.035-.788-.126-.465-.11.016-.076.941-.059.584.017 1.11.138.927.065.15-.042-.957-.366-.09-.083.142-.048.335-.05 1.003.029 1.65.179 2.956.089.813-.014-.122-.041-1.18-.11-1.235-.15-.544-.089-.4-.12-.473-.1-.04-.048.763-.078 2.004.014 1.862.12 1.58-.044.995.03.394.036.72.13 2.286.473.242.075.26.115.277.154.39.041.752-.106.507-.102-.22-.1-1.26-.227-.286-.097-.631-.165-1.416-.294-.377-.137-.237-.116 3.918-.11 3.779.097.614.068.403.096.396.145.606.149 1.224.228 1.742.141-.333-.096-1.303-.252-.588-.172.003-.116.105-.09.206-.06 1.475-.234 2.108-.071.245.014 1.639.36.778.146.544.06.02-.026-.754-.166-.58-.09-.06-.056.963-.175.608-.044 2.558-.05.29.02.243.048.604.192z" class="polygon" transform="translate(-131.788 -3.662)" id="path2" />
  </g>
</svg>
