<?xml version="1.0" encoding="UTF-8" standalone="no"?>
<svg width="174.828" height="68.018" version="1.1" id="svg6" sodipodi:docname="greenland.svg" xmlns:inkscape="http://www.inkscape.org/namespaces/inkscape" xmlns:sodipodi="http://sodipodi.sourceforge.net/DTD/sodipodi-0.dtd" xmlns="http://www.w3.org/2000/svg" xmlns:svg="http://www.w3.org/2000/svg">
  <defs id="defs10" />
  <sodipodi:namedview id="namedview8" pagecolor="#ffffff" bordercolor="#666666" borderopacity="1.0" objecttolerance="10.0" gridtolerance="10.0" guidetolerance="10.0" inkscape:pageshadow="2" inkscape:pageopacity="0.0" inkscape:pagecheckerboard="0" />
  <g style="display:inline" id="g4">
    <path style="fill:#41e736;fill-opacity:1;fill-rule:nonzero;stroke:#505050;stroke-width:.5;stroke-linecap:round;stroke-linejoin:round;stroke-miterlimit:4;stroke-dasharray:none;stroke-opacity:1" d="m401.062 67.301-.326.344-.326-.075-.161-.154-.321-.07-.346.019-.006-.06 1.124-.367.536-.098-.038.154-.102.135zm26.225-13.49-.441.002-.147-.223.044-.243.498-.076.268.168-.096.249zm-39.704-11.416-.445.1-.09-.023-.09-.076-.23-.347-.069-.165.057-.204-.09-.144.402-.168.325-.029.438.044.742.171-.054.055-.16.09-.447.116-.158.262-.03.132.02.099zm-4.877-1.114.945.23 1.002.16.098.073.078.11.017.058-.023.054-.063.049.073.063.21.078.023.09-.25.156-.353.173-1.869.355-.66.06-1.634.245-.5-.009-.11-.011-.309-.108-.423-.1-.199-.077-.175-.111.07-.07.314-.028.448.002.657-.08-.182-.073-.172-.045-.12-.096-.273.02-.205-.056-.396-.034-1.033-.034-.674-.095-.199-.057-.175-.098-.151-.138.22-.534.152-.137.35-.044.857.118.115-.051-.937-.197-.344-.117-.101-.093-.061-.136v-.08l.043-.08.083-.08.228-.11.95-.173 1.034.059 1.795.213.223.046.55.183zm2.998-2.586-.379.01-.882-.052-.07-.033-.012-.063.117-.18.39-.023.462.099.498.14.07.067zm74.52-.187.1.167.01.079-.022.066-.055.048-.133.042.249.111.08.075.015.06-.16.115-1.13.152-.315.074-.393.181-.477.157-.16-.001-.185-.162-.754-.12-1.42.063-1.662.15-.59.07-.298-.037-.092-.056-.006-.078.197-.229.08-.058.38-.076.26-.2-.085-.22.1-.304.26-.048.652.108.422.023.748.014 1.005-.036.807-.124 1.473-.353.261.006.188.125.137.061.438.096zm-79.802-.34-.265.017-.763-.144-.124-.054-.048-.067.03-.079.243-.146.457-.216.33-.04.205.135.202.181.025.092-.014.109-.052.092-.092.075zm-4.207-4.97-.401.193-.328.11-.71.33-.122.011-.192-.043-.148-.087-.269-.02-.093-.054-.038-.045-.119-.028-.19-.017-.303.034-.279-.034-.21-.144.389-.097.24-.082.928-.032.262.037h.165l.25-.023.55-.103.082-.048.49.06zm105.112-7.429.226.3.1.276.35.176.752-.026.3.325-.55.126-2.18-.05-.901.025-.626-.2.025-.35.075-.352.627-.2.525.175.626-.125zm-1.653-1.803-.325.075-1.102-1.177v-.425l.075-.326.5-.026.426.176.2.676zm-150.74-3.643-1.011.026-.997-.111-.342-.086.014-.13.151-.046.539-.045.448-.012.301.02.71.08.513.081.337.026-.095.116zm152.526-.9h-.552l-.204-.074.13-.13.768-.422.256-.034.375.046.114.216-.25.216zm-2.963-.942-.376.1-.25-.3-.225-.4-.05-.451.575-.226.301-.05.2.05-.05.2v.401l.201.276zm3.932-5.259-1.202.326-1.778-.026-1.052-.15-.3-.225.4-.25 1.277-.201 1.603-.125 1.453.075.2.25zm-2.988-5.738-.292.092-.75-.037-.959-.256-.64-.21-.045-.246.33-.11.51-.02.704.21.722.283zm-74.397-.673-.576.05-1.202-.3-1.904-.301-1.678-.2-1.577-.526-.124-.187.224-.164 1.377-.025 1.102-.075 2.805.325 1.403.276.475.225-.075.45zm42.343-4.206 2.729.17 1.443.2.303-.007 1.955.076 1.857.095 3.087.248.433.082-.334.066-.767.046-3.945.082-7.156.1-4.095.194-1.302.012-.114.29.557.016.912-.039 3.207-.29 1.2-.047 2.24.025 2.905.109 1.173-.038 2.091.028 2.446-.083 2.889-.18.79.4 1.065.402.842-.045.722.023.244.132.394.055.817-.03 2.505.116 1.718.206.647.096.31.137.177.11-.27.136-1.074.241-1.36.222-1.832.17-2.113.107-16.235.358-.55.085-.325.217.217.282.759.044 1.773-.16 3.066-.15 2.254.01 5.387.128 1.59.336.84.516 1.864-.116.399-.089.293-.153.234-.165.175-.176.196-.12.216-.064.465-.053 1.07-.064 2.805-.062.674.017.485.241.105.141.035.183-.014.227-.066.269-.238.266-.777.466-.624.253-.673.183-1.29.417-.448.111-1.419.486-.352.225-.02.165.244.032.412-.155.153-.111.265-.116 2.09-.305.45-.086 1.367-.363.873-.136.717-.143.38-.1 2.102-.717 1.096-.215h1.15l.204.363 1.379.056.599-.014.961.088.422.073.718.037.74.087.652-.093.191-.058.63-.265.852-.233.79-.292.262-.07.415-.065.43-.026 1.174-.137.298-.009.634.044 2.798.022 1.527.07 2.125.196 1.481.107.686.095.999.203.805.213.375.062-.014.068-.28.093-1.994.326-.653.218-1.888.41-.923.142-1.003.055-1.116.015-.724.059-.107.056.516.17.227.122-.033.108-.543.16-.205.036-1.961.12-.99.201-1.291.026-.913-.023-1.254.217.49.177.45.076 1.398.16.014.093-.668.187-.911.22-1.078.152-.406.023-.51-.039-.472.01-1.039.07-.988.011-1.765-.1-.956-.114-.502-.04-.634.011-.244.047-.999.274-.49.188-.314.191-.134.21.045.226.122.155.198.084.237.05.414.026.913-.025.359.014.11.046.196.145-.035.137-.165.192-.128.224-.09.256.048.14.37.031.172-.011.201.046.229.102.171.107.115.114-.06.094-.236.074-.531.083-1.309.165-.133.05-.103.1-.072.15-.158.138-.243.123-.22.073-.425.033-.556.003-.624.07-1.472.413-.022.045.55.133-.022.116-.68.497-.185.247-.147.338-.242.285-.337.232-.332.268-.326.303.051.234.428.162.566-.131.704-.425.764-.184.826.058.719.084.919.166.768.103.665.137.273.115.276.162.002.102-.487.055-.16-.017-1.219-.268-.593-.066-.787.08-.686.12.616.488.659.224 1.202.102.627.108.458.137.358.067.48-.03.647-.135.902-.009.407.068.294.125.132.234-.03.343-.097.258-.167.173-.325.233-.271.042-.382-.011-.355-.048-.329-.083-.497-.065-1.001-.07-1.012-.15-.566-.038-1.2.02-1.292.096-.05.126-1.86.44-.381-.007-.517-.15-.722-.145h-.424l-.625.184-.155.07.009.067.46.158.187.037.238.03.826.038.36.041.338.492.537.303.23.062.202.023.657-.012.846-.102.296.082.623.1.365.026.443-.003.5.038.683.28-.27.351.429.282.684.291.162.106.066.193.014.127.051.116.088.105.09.206.094.307-.025.25-.144.195-.285.14-.426.088-.347-.022-.269-.134-.379-.143-.489-.151-.813-.017-1.195.447-.534.022-.433.045-.463.195-.68.117-.602-.046-1.056-.227.384.151.549.178.342.092.252.02.277-.023.398-.073.9-.201.238-.03.201.013.165.06.19.173.214.286-.029.244-.269.2-.23.13-.19.056-.001.045.502.051.711-.262.226-.325.325-.376.576-.125.651.125.526.35.744.646.314.067.398.154.176.19-.047.225-.085.164-.123.102-.154.064-.277.042-.51.032-1.14-.069-.593-.002.074.222-1.2.191-1.353.076-1.28-.15-1.064-.23.35-.32.198-.356-.513-.236-.113-.006.177.364-.15.14-.58.17-.41.078-.036.046.201.04.131.077.062.113-.07.114-.2.115-.109.096-.017.078.184.095.385.112.418.056 1.958.025.784.06 1.86.265.083.08-.315.474-.173.455-.36.083-1.957.02-.631.07-.923.21-.886.25-.46.002-1.819-.219-.697-.146-1.498-.413-1.128-.628-.517.261-.316.125-.327.064-.315.012-.304-.045-.344-.1-.578-.229-.689-.227-.482-.108-.017.031.285.133.417.154 1.056.453.37.115-.036.08-.667.073-.808.156-.396.114-.612.278-.212.043-.915.07-.301-.017-.677-.153-1.018-.1-.6-.09-.834-.16.287.176 1.606.269.176.087-.33.16-.2.06-.383.011-.564-.033-.577.006-.589.047-.253.06.082.074.14.067.199.06h.185l.45-.183.34-.015.9.046.909-.144.655-.061.492-.017 1.789-.219.37-.245.6-.098 1.335-.075 1.29.039.664.031.538.232.72.164.602.186.704.062.408.249 1.142.278.727.06.448.132.037.56.047.243-.193.671-.583.154.116.354-.153.286-.58-.108-.595-.188-1.423-.292-1.324-.187-.515-.17-.606-.132-.822-.535-.536-.666-.235-.33-.45-.016-.58.088-.505.093-.242.16-1.718.22-.624.15-.356-.006-1.283.226.514.108.24.015.519-.062.311-.078 1.17-.214.938-.037.341-.092.718-.132.487-.035.067.034.053.06.343.812-.144.217-.386.093-.827.154-.215.075.244.13.777-.123.503-.133.269.048.44.205.497.105 1.262.314.598.172.841.167.952.232.248.082.87.12.185.042.36.408.3.046.866.025-.153.16-.845.352-.437.113-.109.07.042.123.026.208.176.383.198-.355.138-.167.186-.05.182-.009.591-.158.594.085.154.4.076.374-.052.322.065.501-.023.17.14.146.146.608.146.183-.292.164-.903.071-.358-.08-.894.028v-.144l-.044-.165-.003-.115-.06-.105-.042-.6-.253.148-.014.122-.067.123-.155.648-.23.16-.716-.04-.704.024-.39-.026-1.317-.296-.51-.268-.452-.402-.278-.375-.106-.35-.316-.284-.526-.219-.621-.177-.717-.136-.629-.176-.542-.214-.596-.167-.651-.12-.927-.05-1.355.02-.914-.134-.218.01-.213.07.157.197 1.05.091.81.02 1.073-.014.657.05.241.115.166.203.09.292-.212.232-.772.258-.407.121-1.188.232-.403.051-.993.017-.762-.022-1.002-.116-.569-.023-1.176-.014-.27.04.303.125.499.07.351.083.037.158-.127.235-.13.164-.216.124-.772.233-.32.074-1.438.244-.1.047.337-.006.91-.087.261.003 1.493.212 1.19-.011 2.41-.196.199.003.158.031.16.073.162.116-.194.113-.55.108-.858.107-.371.073-.355.11-.66.262-.194.274.695.103.312-.131.369-.292.331-.172.783-.116.955.059.738-.069 1.508-.288.27-.017 2.217.165 2.01.323 1.061.12 1.404.07 2.523-.032.221.05-.082.115-.146.097-.42.136-.511.09-.316.025-.27.064-.603.062-.155.05.209.223-.1.034-.532.003-.896.145-.735-.012-.154.023.14.054.148.103.157.154-.086.11-.33.065-.25.022-.863-.091-.14.014.127.066.071.1.017.136-.212.113-.442.092-.822.252-.358.071-.755.06-.159.033.307.193-.034.078-.51.209-.772.13-.106.07-.071.19-.056.075-.204.108-.733.206-.519.102-.257.084-.318.14-.402.075-.485.01-.46.052-.754.149-.526.05-1.66.257-.782.041-.676.093-1.391.246-.663.08-.46.093-.501.029-.816-.061-.44-.002-.27.037-.249.075-.41.207-.348.017-1.141-.164.023.074.301.178-.014.126-.679.128-.365.033-.54-.053-.712-.138-.916-.288-1.123-.44-.54-.149.04.141.124.138.212.135.043.098-.126.06-.165.03h-.205l-.035.035.335.21.264.216-.025.204-.314.194-.268.114-.225.034-1.333.483-.371.061-.169.06-.138.09-.388.4-.157.122-.312.159-.13.028-.037.065.056.102-.086.17-.228.239-.775.658-.626.615-.274.2-.2.086-.128-.03-.31.017-.15.107-.137.196-.148.149-.16.102-1.255.442-.324.082-.29-.052-.343.02-.711-.233-.123-.086-.46-.192.014.1.077.056.065.08.16.1.356.52-.281.108-.252.122-.642.206-.695.346-.257.097-.056-.282.029-.084-.393-.137.011.099-.04.091-.285.365-.08.063-.14-.014-.305.067-.313-.031-.266-.166-.104-.086-.484.236-.235-.006-.04.2-.227.18-.301.079-.42-.006-.256.107-.57-.115-.132-.216.451-.296.128-.122-.083-.15.11-.194.862-.615.584-.312-.034-.055-.793-.068-.693-.107-.675-.037-.298.037.475.178.673.174-.331.165-.286.177-.295.478-.189.196-.733-.225-.347-.076.22.25.643.236.042.078-.003.282-1.231.248-1.284.037-.921.071-1.555.086h-.604l-.051.095 1.52.436.222.08-.212.15-.314.094-.494.322-.258.11-.639.153-1.177-.17-.605.076-.579-.053-.011.186.173.135.175.337.388-.025.494-.106.382.255.25.432.439.22.195.17.078.16-.273.159-.566.225-.627.042.034.178-.27.128-.576-.037-.27-.09-.279-.042-1.145-.048 1.153.344.41.16.183-.095.4-.023.59.088-.099.58.259.469.031.105-.628.282-.011.262-.374.074-.403-.017-.02.288-.273.18.048.112.078.1-.249.184-.225.223-.321.196-.17-.02-.512.011-.615-.017-.497-.253-.207-.085-.233-.055.09.163.139.099.459.183.845.226-.025.161-.226.07-.528.438-.187.009-.236.113-.731-.038-.307-.045-.901.029-.307-.039-.263.017.245.124.516.111.587.112.892.084-.033.16-.223.13.128.196-.1.14-.043.167-.208.387.242.266.265.13-.03.17.123.273-.396.244-.329-.01-.468.056-.156.107.743.101-.067.183-.203.228-.213.495-.432.848-.202.843-.929.692-.329.02-.082.028-.453-.035-.71-.16-.55-.053-.37-.002-.049.08.308.128.47.054.377.085.674.08.235.154.16.164-.023.09v.107l.12.575-.318.198-.242.18-.843-.026-.147-.063-.813-.189.05.089.588.257.205.128-.137.025-.237.01-.332.086-.597-.047.033-.13.113-.134-.273.023-.305.068-.176-.025-.149.009-.083-.067-.115-.261.138-.131.492-.34.157-.182-.137-.082-.352.195-.363.31-.162.188-.227.036-.565-.094-1.61-.435.048-.264-.014-.219.47-.028.34-.095.306-.117.344-.212.315-.35-.04-.026-.926.447-.57.15-.275.028-.138-.066-.458-.144-.298-.065-.679-.107-.12-.057-.199-.046-.27-.456.35-.555.24-.16.154-.187.086-.247-.059-.106-.204.036-.095.085.014.132-.117.092-.81.212-.81.171-.385.162-.25.127-.195.125-.299-.012-.412.026-.283.08-.413-.05-.27-.12-.324-.013-.365.058-.252-.006.02.081.167.2-.278.015-.528.009-.266-.058-.208-.076-.174-.107.105-.14.85-.255.385-.147-.252-.051-.815.046-.136-.038-.547.022.023-.38-.133-.094-.009-.044-.19-.106-.178-.026-.112-.038-.922-.085-.12-.212-.065-.218-.176-.27-.442-.07-.24-.118.19-.12.083-.151-.205-.07-.13-.107.02-.07-.166-.187-.05-.147.19-.138.521-.155.169-.063.087-.068.6-.114-.51-.081-.32-.012-.231.038-.215.152-.2.101-.782.033-.115-.052-.054-.215.044-.165.325-.233-.375-.115-.343-.037-.39-.108-.36-.114-.309-.132-.301-.156-.097-.02.109-.164.061-.134.01-.289-.122-.12.27-.246.363-.27.803-.4-.85.193-.698.42-.147.02-.052-.076-.265-.273-.2-.074-.09-.083-.397-.145-.173-.112-.245-.216-.348-.258-.495-.508-.799-.584-.197-.329.248-.417-.274-.287.76-.133 1.086-.15.562-.124.325-.037.69-.023.231-.124-.384.031-.258-.017-.017-.058.096-.104.061-.133-.131.022-.675.23-.998.183-.779.102-.126-.006-.272.062-.157.017-.121-.017-.276-.175-.073-.115.494-.31.37-.423.488-.276.346-.035.577.014.204.026-.065-.164.022-.08.469-.095.546-.042.388.03.245.192.315.356.423.12-.017-.17-.22-.22-.08-.338-.28-.143-.224-.07-.62.035-.372-.247-.084-.09-.01-.12-.371-.354-.12-.176-.197-.235-.105-.011.134.295.174.208.248.458.123.184-.166.147-.315.144-.278.086-.658.104.141-.225.091-.222-.33.079-.308.16-.106.223-.197.202-.586.497-.23.275-.22.137-.248.037-.216-.108-.183-.253-.086-.199-.011-.514.022-.24-.1-.323-.316-.753-.067-.268-.536-.143-.009-.046-.14-.152-.108-.153.09-.056.127-.04.8-.225.593-.253.709-.395.29-.123 1.04-.094.46-.015-.002-.07-.155-.028-.702.017-.937.158-.16.057-.41.246-.315.134-.889.307h-.576l-.595-.367-.665.07-.449-.023-.13-.055-.099-.502.362-.586-.39-.006-.081-.023-.206-.133-.135-.04.1-.07.963-.278 1.44-.544.62-.213.382-.092.289-.106.352-.229.116-.1.197-.08.413-.092.453-.137.734-.31.095-.115-.16-.025-.342.105-.698.284-.498.16-1.699.713-.723.26-.393.165-.306.158-.323.113-.341.067-.73.051-.357.058-.216-.042-.095-.338.073-.2-.035-.198.182-.283.27-.2.113-.11.048-.074.557-.207.307-.092.217-.208 1.236-.073.318.009.17-.029.126-.06-.122-.046-.37-.033-.984.006-.91-.036-.415-.035-.2.02-.33-.061-.362-.115-.56-.423.225-.544.02-.259.711-.227.38-.075.541-.171.722-.29.86-.178.439-.033.364.025 1.348.252.693.05.609-.061.764.088 1.352.363.26-.054-.075-.088-1.507-.383.009-.114.385-.03.412-.111-.232-.066-1.001.057-.29.091-.97.047-.508-.077-.455-.038-.683-.166-.572.054-.36.066-.64.061-.23.044-1.248.52-.524.109-.374-.036.262-.339.076-.133v-.146l.108-.2.64-.379.401-.416.17-.258.314-.029.43.038 1.288.168 1.072.199.79.053.52.006.224-.063.176-.11.067-.077.051-.157.06-.055.174-.069.355-.238.108-.17-.116-.098-.236.012-.462.065-.063.028.01.053-.447.262-.488.06-1.12.088-.511.006-.908-.122-.138-.047-.094-.09-1.115.02-.333.029-.265-.012.13-.155.353-.173.493-.562.414-.144.821-.134.857.023 1.483.434.447.038.41-.035.98-.146.18-.059.354-.18.412-.308-.02-.073-.632.172-.337.047h-.286l.266-.564.103-.432.099-.107.83.032 1.135-.058.271-.094-.003-.042-.456-.058-.219-.12-.382.038-.51.08-.642-.009.054-.185.47-.39.048-.177.184-.354.017-.182.238-.177.741-.126.312-.075.017-.082-.445-.314.113-.087.348-.079.13-.057-.088-.036-.321-.035-.494.07-.546.033-.484-.105-.378-.05-.239.015-.65.178-.228.006-.28-.05-1.865-.154-.231-.055-.668-.266-.55-.177-.733-.192-.95-.146-1.167-.1-.698-.094-.344-.133-.59-.292-.448-.243-.084-.12.263-.15.268-.106.505-.088.87.03.468.039.515.083.39.017.808-.022.822.053.487.059.64.122 1.764.521.736.182.32.022 1.32.194.212-.003.54-.09.054-.06-.183-.058-.582-.045-.684-.213-.424-.17-.049-.28.056-.157.106-.072.075-.24-.396-.143-.277-.046-.736-.208-.061-.051.352-.026.346.014.742.106.39.014.282-.041.033-.043-.451-.12-.565-.214-1.179-.032-.765.026-.49-.074-.52-.12-.334-.03-.683.076-.345.009-.315-.026-.31-.378.082-.113.244-.048.184-.122.129-.127.404-.125 2.221-.277.56-.206-.025-.032-.378.038-.483.093-.324.02-1.307-.12-.204.028-.53.173-.718.187-.331-.011-.443-.111-.07-.08-.032-.094.486-.13.156-.069.315-.185-.017-.09-.537.05-.07-.086.009-.145-.052-.184-.132-.182-.441-.28-.183-.07-.151-.104-.332-.377.096-.095.295-.072.057-.032-.706.059-.077.065.133.096.095.128.057.16.098.14.256.154.204.08.333.214.145.235-.042.124-.26.126-.416.136-.126.113-.056.112-.325.103-.2-.039-.158-.006.187.186.12.189-.145.19-.386.115-.21.003-.411.093-1.055.049-.367-.023-.673-.094-.798-.052-.317-.128-.415-.232-.21-.208-.005-.184.112-.133.23-.084.274-.538.389-.435.978-.448.28-.162.092-.087-.001-.066-.158-.042-1.204.553-.742.058-.221-.124.067-.22.132-.052.6.02.233-.123-.375-.186-.4-.049-.094-.047.412-.141.95.011.216-.098.344-.107.382-.198.143-.166.032-.143-.082-.115-.01-.116.066-.116-.1-.128-.265-.14-.587-.137-.173.155-.183.064-.257.014-.237-.066-.248-.022-.243-.058-.252-.017-.098-.047-.064-.131-.006-.167.286-.078.397-.061.266-.117.174-.168.026-.184-.124-.2-.323-.18-.598.175-.235.043-.053-.125-.083-.092-.252-.125-.33-.092-.318-.06-.015-.093.076-.104.14-.122.184-.253.202.022.168-.022-.097-.21-.162-.176-.19-.1-.007-.043-.044-.05-.147-.124-.164-.09-.288-.256-.207-.097-.266-.05-.287-.004-.46.067-.85.078-.672.037-.112-.02.336-.097.496-.101.656-.069.192-.168-.071-.145.028-.138-.18-.145.175-.08.598-.081.27-.012.27-.103-.757-.248-.793-.163-.198-.067-.175-.109-.15-.151-.245-.152-.338-.152-.494-.147-1.273-.268-.437-.185-.403-.284-.201-.12-.21-.09-.886-.21-.107-.092.915-.247.09-.098-.375-.299-.383-.219-.417-.077-.62-.04-.568-.097-.517-.154-.516-.113-.773-.107-1.293-.276-1.993-.294-.89-.173-.53-.063-.699-.017-1.35-.16-1.135-.052-.7.023-.23-.026-.518-.163-.81-.094-.42.036-.52.175-.627.172-.333.023-.497-.158-.25-.11-.238-.038-.228.036-.443.144-.422.105-.624.124-.5.06-.64.014-.16.045-.248.002-.332-.041-.31-.081-.29-.121-.257-.065-.223-.01-.51.063-.647.184-.296.045-.248-.02-.303-.058-.608-.146-.336.014-.245.051.068.122.57.29.509.206-.43.025-3.755-.279-.479-.067-.691-.169-.575-.103-.978-.267-.754-.145-.25-.113-.065-.078.24-.105 1.518-.356.58-.071 1.179-.086.279-.053.093-.043-.31-.077-1.544.028-1.376-.051-1.198-.141-.209-.047-.202-.087-.197-.125.045-.141.287-.156.169-.107.05-.058-1.506.383-.616.134-.488-.04-.342-.064-.168-.071.006-.078.055-.057.104-.035-.796-.159-.36-.124-.037-.129.282-.132.277-.096.27-.06.736-.052 2.69-.1 1.925.096.656-.317.443-.101 1.295-.106 1.992-.014 1.408.058.66.075.898.164.052-.05-.217-.148-.015-.122.363-.214.167-.134-.113-.14-.395-.145-.698-.186-.376-.014-.417.045-.502.103-1.043.26-.493.054-.821.014-.454-.032-.44-.04-.685-.137-.25-.026-.303.06-.356.147-.344.103-.33.059-.309.026-.43-.012-1.777-.228-.401-.102-.023-.154-.545-.15-.616-.025-.076-.05.782-.23.583-.094-.094-.029-.846-.006-.571.123-.327.02-.753.002-.789-.06-.336-.055-.348-.123-.39-.07-1.179-.104-.265-.057-.252-.095-.963-.27-.583-.197-.075-.112.672-.241.03-.056-.289-.104-.12-.077.1-.105.588-.235.219-.063 1.056-.137 1.057-.2.385-.045.344-.012 1.388.012.43-.05.366-.097.6-.099 1.251-.15 2.783-.226.182-.025.017-.043-.25-.117-.053-.056.57-.105 1.286-.165.878-.08.566-.005.456-.036.64-.103.363-.02 2.189-.041.968.056h.475l.306-.041.404-.118.754-.291.398-.182.375-.275.485-.431.363-.42.24-.41.186-.25.133-.089.454-.113.473-.089.814-.078-.074-.036-.345-.061-.321-.023-.298.014-.541.092-.701.063-.682-.011-.49.022-.45.085-.73.067-.487-.014-.88-.121-.443-.023-1.124.011-.329-.044-.287-.089-.23-.123-.17-.158.022-.164.405-.297.155-.08 1.096-.332.675-.155.672-.116.49-.068.46-.03.443-.072.815-.231.84-.199 1.046-.368.506-.094 1.772-.16.481-.003.41.04.386.084 1.088.364.085-.011-.19-.138-.396-.412.064-.17.623-.182.255-.032.657.011 1.06.056.708.062.537.1.638.062.33-.003.237-.048.338-.156.44-.264.176-.325-.088-.387-.128-.283-.17-.178.094-.149.533-.178.489-.13 1.166-.184.945-.048.561.01.737.087 1.023.053.924.167 1.496.384.994.192.822.087.81.147 1.199.313.627.134.373.048.328.01-.122-.09-.572-.187-.877-.205-1.944-.368-1.07-.26-.96-.297-.707-.177-1.281-.175.017-.07 1.546-.245 2.841-.214 3.202-.167 1.071.017 1.884-.07.177-.105.405-.047 1.754-.147.503.002.772.07.822.132.381.12.517.207.253.291-.038.92.014.173.1.067.356-.1.427-.185.383-.13.295-.203.206-.273.122-.202-.5-.229-.026-.376.25-.2h.701l2.901.692 1.142.15 1.3.37 1.517-.04 1.4.046.62-.015.305-.057-.435-.154-1.99-.422-.903-.331-.632-.413-.154-.22.484-.039 2.222.006 3.339.19 4.27.658 2.101.218 3.766.762 1.137.115.458.022.346-.094.214-.102.014-.136-.182-.17-.104-.196-.026-.224.256-.441.607-.144.268-.163-.25-.295-.711-.2-2.77-.52-.01-.061.558-.068.83-.04 6.863.123 1.186.046.506.044.222.06.284.025 1.475-.07-.035-.128-.184-.081-7.965-.222-1.484-.076-.755-.006-.781.058-1.62.029-.748-.012-.97-.264.878-.318.739.01 1.404.123.831-.173 1.32-.143 1.305-.05 2.848-.308.526-.029.664.017 1.465.076.582.076.667.163.386.05.46.01.63.073.91-.238.823-.257.945-.162 1.336.095.846.123.773.147 1.093.08 1.854.502h.346l.164-.042.175-.092.063-.138.227-.187-.164-.07-1.553-.207-.293-.08-.298-.131-.006-.109.288-.086.303-.039 1.004.036.331-.029.313-.072.378-.136.297-.035.671-.003 1.034.087.904.01.326-.04.05-.086.079-.054.107-.022 3.279-.006.813-.02.636-.065.778-.009.68.039.841.082.837-.003 1.246-.134 1.176-.064 6.478.017z" class="polygon" transform="translate(-325.422 -2.287)" id="path2" />
  </g>
</svg>
