<?xml version="1.0" encoding="UTF-8" standalone="no"?>
<svg width="90.529" height="52.036" version="1.1" id="svg6" sodipodi:docname="mexico.svg" xmlns:inkscape="http://www.inkscape.org/namespaces/inkscape" xmlns:sodipodi="http://sodipodi.sourceforge.net/DTD/sodipodi-0.dtd" xmlns="http://www.w3.org/2000/svg" xmlns:svg="http://www.w3.org/2000/svg">
  <defs id="defs10" />
  <sodipodi:namedview id="namedview8" pagecolor="#ffffff" bordercolor="#666666" borderopacity="1.0" objecttolerance="10.0" gridtolerance="10.0" guidetolerance="10.0" inkscape:pageshadow="2" inkscape:pageopacity="0.0" inkscape:pagecheckerboard="0" />
  <g style="display:inline" id="g4">
    <path style="fill:#e7363d;fill-opacity:1;fill-rule:nonzero;stroke:#505050;stroke-width:.5;stroke-linecap:round;stroke-linejoin:round;stroke-miterlimit:4;stroke-dasharray:none;stroke-opacity:1" d="m272.096 186.895-.32.065-.056-.062.644-.29h.11l.039.04-.334.136zm-54.608-.182-.171.06-.253-.173.067-.136.144-.094.134.173zm68.079-4.435-.147.088-.08-.313.118-.305.142-.176.282-.028.186-.057.023.077-.152.236zm.64-2.658.05.136-.048-.028-.065-.102-.047-.13h.04l.034.045zm-56.19-1.055-.083.233-.215-.094-.077-.148-.014-.241.119-.04.173.102.036.068zm-9.379-7.213h-.062l-.145-.15-.064-.37.029-.04.274.458-.006.057zm-5.378-.689-.038.134-.854-.531.205-.051.239.037zm3.213-1.732.081.318-.145-.048-.191-.173-.13-.221.01-.1.026-.027.27.13zm-4.23 1.3-.058.031-.242-.328-.036-.225-.1-.096-.245-.074.212-.458.179-.95.078.173-.19.962.01.125.089.117.095.199.011.215.167.2zm2.717-4.188.036.102-.02.031-.116-.07-.196.424-.058.04.119-.582.124-.082.137-.028zm-11.558-5.818-.039.091-.479-.19.263-.331-.039-.347.115-.074.104.114.137.442zm-8.724-2.477-.121.108-.325-.593-.003-.142.095-.07h.158v.147l.132.125.052.122zm17.15-.18-.213.67h-.219l-.45-.212-.049-.13.174-.778.132-.102.393-.105.061.097.042.23zm-2.704-.133-.02.051-.29-.176-.657-.599-.24-.3-.039-.141.02-.314.225.037.261.21.114.193.006.225.488.105.069.482zm-4.37-7.534h-.093l-.176-.13.014-.12h.038l.176.105.06.094zm4.985-.598 1.347.42 1.346.42 1.347.42 1.347.42h8.029l.002-.319.002-.32.002-.318.002-.32h5.042l.253.244.259.382.306.267.352.15.6.445.848.74.676.492.505.247.339.213.173.179.233.385.438.89v.408l.168.387.336.501.294.296.25.088.275.176.298.267.343.179.389.09.536.24.685.386.469.199h.254l.222-.125.19-.256.188-.164.184-.074.075-.12-.035-.162.125-.365.283-.568.339-.307.394-.048.257-.108.12-.165.211-.028.3.13.49.083.677.037h.4l.122-.062h.063l.006.068.1.028h.196l.17.096.218.308.752.493h0l.064.17.262.244.481.376.272.324.064.272.246.43.428.588.19.317-.046.045.034.165.114.285.212.242.31.199.315.355.317.513.385.39.45.266.256.25.06.23-.005.196-.069.165.03.156.126.148.043.182-.05.25.003.07h0l.037.058.4.431.206.349.164.556h0l.183.333.263.136.404.051.306.117.21.182.264.11.32.037.305.12.293.201.546.134.799.062.608.164.417.264.184.054h.05l.023-.04.032-.074.162-.085.384-.057-.051.587-.172.481-.566 1-.235.622-.456 1.773-.14 1.162-.033.548-.04.077.043.08-.109 1.21.059 1.032-.038.16-.165.31-.117.432.046.19-.002.134.17.656.055.492.507.844.284.295.353.256.13.144-.063.359-.144.182-.062.288-.07-.239.027-.309.112-.165.004-.122-.207-.13-.38-.425-.464-.752.33 1.201.113.194.088.079.148.085.038.13.001.096.408.835.46.863.025.236.184.29 1.172 1.211.717.905.25.859.15.267.073.366.47.411.144.264.252.148.203.444.383.262h-.091l-.335-.13.023.084.281.185.552.181.138.001-.218-.094-.184-.128.065-.028.385.16 1.078.05.474.37.615.159.331.471.385.493.245.028h.192l.577-.082.897-.31.309-.15.602-.208.921-.037.286.057.689-.127.328-.16.114-.141.053-.106.639-.15.126-.031.647-.028.312-.054.367-.031.266.221v.108l-.177.103.082.099.314.164.578.065.186-.028.266-.241.469-.236-.01-.272-.084-.15h-.136l-.033-.083.095-.201-.025-.068-.29.193h-.068l.032-.092.06-.07.855-.42.218-.174.295-.15.613-.57.13-1.072.123-.187.406-.33.044-.098.026-.225-.011-.563.023-.443-.017-.5.073-.447.066-.125.233-.716.484-.316.838-.374.193-.062 2.672-.396.375-.097.46-.259.335-.088h.613l.188-.034.037-.034v-.034l.113-.034.355.034.662.154.24.04.593.178.652.071.093-.03.086-.055.066-.105-.068-.09h-.063l-.11.047h-.132l-.258-.074.051-.062h.264l.168-.03.25-.111.266.082.35.367.248.116.02.533.038.097.091.139-.124.413-.14.34-.175.282-.378.44-.46.353-.568.783-.13.367.004.294.097.284-.028.105-.07.106h-.115l-.224.136-.29.404-.007.122.127.114.165-.054h.215l.12-.034h.127l-.029.233-.136.164-.086.051-.153.028-.172.094-.089.085.008.267.096.028.203-.201h.117l.024.085-.263.685-.169.704-.228.408-.08.593-.12.252-.14.25h-.082l-.22-.474-.226-.122-.05-.116.13-.575-.06-.318h-.119l-.15.173-.199.15.004.219-.228.364-.057.119-.218-.028-.252.028-.175.088-.18.441-.447.622-.178.3-.145.106-.115.04-.127-.071-.306-.17-.236.082-.082.195.002.248h-.596l-1.015-.002h-3.579l-.004.555-.003.492-.004.554h-1.183l.05.054.207.105.27.247.319.386.386.308.454.23.299.225.144.218.072.188.001.153.166.122.297.08.154.14v.113l-.094.255-.028.281.036.256h-.727l-.785.001h-1.29l-.86.002-.235.391-.39.65-.355.59-.299.497-.048.13v.105l.367.465-.068.136-.129.07-.04.109.007.176-.087.235.028.162.047.199-.077.173-.062.168-.074.074-.084-.062-.756-.772-.79-.85-.31-.278-.301-.21-.405-.39-1.063-.86-.548-.392-.516-.468-.463-.262-.457-.17-.203-.096-.178-.128h-.1l-.049.173.16.088.191.074h.152l.159.062.469.236.077.122-1.334-.476-.541-.043-.06-.074.271-.25-.084-.09h-.097l-.29.173h-.107l-.02-.114.014-.108-.187-.156h-.119l-.097.108-.252.207.008.082.496.088.171.051-.038.054h-.426l-.525.093-.938.574-.872.248-1.255.552-.554.028-.29.088-.844-.21-1.07-.519-1.618-.165-1.091-.68-1.083-.278-.687-.653-.414-.028-.266-.105-.984-.235-.973-.157-.948-.57-.62-.182-.536-.227-1.181-.387-.438-.216-.414-.332-.675-.344-.289-.287-.321-.103-.46-.54-.241-.227-.203-.108-.218-.037-.628.043-.938-.239-.434-.06-.905-.352-1.202-.393-.394-.452-.336-.422-.607-.555-.378-.236-.657-.28-.364-.228-.562-.176-.952-.444-.303-.38-.178-.338-.507-.41-.556-.766-.143-.28-.108-.434-.129-.25-.152-.195.078-.142.282-.176.47-.04.332-.19.044-.157-.022-.096-.213-.238-.264-.062h-.205l-.053-.091.155-.1.177-.232.261-.285.185-.264.034-.371-.023-.371.07-.314-.632-.362-.074-.153-.199-.415-.345-.481.011-.962-.415-.854-.43-.425-.223-.147-.605-.658-.476-.383-.466-.721-.461-.458-.587-.768-.424-.383-1.931-1.294h.108l.566.317.095-.028.015-.156-.066-.184-.105-.045-.15.043-.204-.037-.102-.062-.304-.04-.382-.216-.163-.225-.017-.255-.547-.544-.208-.303.107.028.145.122.148.034.172.001.124-.048-.045-.09-.117-.078-.798-.286-.263-.202-.653-.334-.155-.116-.103-.324h-.16l-.14.091-.386.088-.099-.102-.014-.099.272-.105.25-.305-.006-.105-.138.122-.208.136-.215.077-.32.065-.163-.045-.143-.068-.229-.267-.115-.867.203-.301.237-.297.201-.176.116.133.12.028-.084-.15-.198-.142-.07-.14-.009-.127-.094-.238-.586-.502-.549.037-.223-.028-.21-.19-.177-.322-.087-.27-.012-.141-.052-.145-.946-.236-.284-.202-.286-.252-.118-.208-.117-.153-.091-.267-.065-.31.106-.403.137-.196-.65-.145h-.255l-.205.082-.185-.105-.384-.117-.458-.42-.537-.764-.592-.247-.19-.264-.242-.238-.212-.297-.033-.127-.063-.071-.296-.208-.332-.349-.086-.281-.089-.43-.22-.15-.219-.072-.043-.204.015-.114-.074-.216-.45-.52-.227-.427-.125-.134-.117-.196-.06-.398-.186-.495-.36-.596-.3-.4-.15-.404.066-.412-.051-.252-.04-.06.031-.082.1.045.085-.074-.011-.262-.105-.08-.291-.082-.13-.057-.707-.107-.405-.148-.029-.346-.19-.159-.169-.097-.534-.204-.085.105-.071.193-.222.043h-.195l-.325-.133-.809-.51-.17-.081-.252-.043-.125-.082-.546-.267.11.142.158.148.14.43-.165.31-.096 1.083.106.216.237.345.164.55.05.409.149.325-.047.763.056.232.226.381.417.357.088.188.549.272.333.355.662.483.208.204.597.753.02.225.11.275.335-.057.15.21-.017.096.04.074.176-.028.151.057.318.815.17.111.22.048.243.091.017.21-.009.168.207.241-.035.326.166.276-.025.267.068.213.516.478.634.38.132.5.26.457.264.116.268.19-.033.197.02.122.357.36.059.46.308.3.087.028.068-.045-.224-.302-.11-.196-.013-.31.075-.042.64.488.068.365.215.207.017.279.13.167.04.241.206.397.006.551.11.402.403.617.327.13.06.303.34.784.392.425.196.36.028.225-.147.332-.017.233.214.705.319.362.356.088.062.05-.028.098.12.085.134-.111.066-.156-.068-.182-.012-.133.06-.097h.117l.682.482.114.185.254.216.232.267.1.21.186.173.097.404.474.181.252.335.017.213-.123.542-.106.156-.383.23-.278.275-.269.17-.285.103-.235-.028-.226-.316-.269-.955-.18-.201-.127-.3-.21-.247-.76-.376-.382-.396-.371-.264-.4-.384-1.088-.635-.45-.324-.298-.32h-.192l-.148.034-.056-.088-.009-.165-.065-.108-.637-.482-.132-.267-.026-.31.144-.798.063-.466-.04-.241-.067-.031-.06-.131-.014-.384-.154-.417-.577-.856-.423-.17-.376-.122-1.029-.757-.28-.379-.068-.216-.035-.437-.142.253-.189.187h-.436l-.49.213-.292-.198-.157-.225-.24-.272-.27-.054h-.171l-.323-.336-.26-.108-.374-.04-.318-.17-.097-.185-.053-.264-.118-.156-.5-.308-.406-.34-.382-.219-.113-.179-.01-.122.605.034.72.13.345-.036.216-.125.204-.091.033.097-.037.179.197.164.271.134h.193l-.186-.145-.115-.295.052-.105-.003-.148-.268.034-.037-.077.229-.224.262-.591.126-.581-.276-.51-.465-.353-1.007-1.035-.602-.532-.174-.2-.16-.093-.49-.122-.412-.298-.721-.42-.309-.216-.212-.51-.17-.07.054-.352-.074-.623-.121-.16-.391-.156-.093-.423-.02-.403-.076-.281-.665-.472-.038-.23v-.216l-.067-.213-.356-.45-.429-.391-.149-.188-.017-.38-.152-.102.058-.028h.14l.08-.051.01-.264-.645-.416-.187-.57-.344-.303-.08-.11-.185-.538.812-.061.813-.061.812-.061.813-.061.812-.061.813-.061.813-.061.812-.061.325-.03-.18.427-.136.16 1.347.42 1.346.421 1.347.42z" class="polygon" transform="translate(-195.979 -146.795)" id="path2" />
  </g>
</svg>
