<?xml version="1.0" encoding="UTF-8" standalone="no"?>
<svg width="342.729" height="149.415" version="1.1" id="svg6" sodipodi:docname="usa.svg" xmlns:inkscape="http://www.inkscape.org/namespaces/inkscape" xmlns:sodipodi="http://sodipodi.sourceforge.net/DTD/sodipodi-0.dtd" xmlns="http://www.w3.org/2000/svg" xmlns:svg="http://www.w3.org/2000/svg">
  <defs id="defs10" />
  <sodipodi:namedview id="namedview8" pagecolor="#ffffff" bordercolor="#666666" borderopacity="1.0" objecttolerance="10.0" gridtolerance="10.0" guidetolerance="10.0" inkscape:pageshadow="2" inkscape:pageopacity="0.0" inkscape:pagecheckerboard="0" />
  <g style="display:inline" id="g4">
    <path style="fill:#e77936;fill-opacity:1;fill-rule:nonzero;stroke:#505050;stroke-width:.5;stroke-linecap:round;stroke-linejoin:round;stroke-miterlimit:4;stroke-dasharray:none;stroke-opacity:1" d="m90.651 185.934-.126.136h-.156l-.57-.292-.069-.156.043-.729-.213-.591-.236-.452.171-.233.226-.179.251-.339-.205-.435.052-.261.121-.045.595.319 1.202.48.32.337.058.362.218.045.103.247.316.219.106.124-.131.2-.577.383-.728.167-.64.429zm-3.601-5-.169.08-.183-.036-.042-.194-.177-.247.309-.05.174.07.092.077.11.134zm1.03-.453.074.05.302-.076.218-.028.367.187.128.128.24.136.082.1-.067.118-.266.199-.362.045-.214.085-.28-.028-.084-.037-.03-.25-.088-.27-.182.031-.203-.09-.21-.228-.024-.136.117-.213.203-.028.15.12zm-2.064-.804.6.077.142-.034.1.062.497.04.085.028-.102.148-.318.133-.457-.116-.765-.043.03-.114.074-.08.011-.139zm-1.663-.685.098.028.125-.028.044.227.145.125.054.074-.158.08-.306.031-.144-.062-.149-.142-.16.04-.029-.113-.029-.034-.11.03.103.149h-.279l-.089-.028-.078-.168-.287-.319.001-.125-.098-.147.426-.043.292-.259.164-.028.315.42-.008.12.07.116zm-6.76-1.091-.058.125-.098-.028-.025-.111.064-.153.162-.134.18-.201.147.03-.08.134-.008.145-.209.082zm2.292-.259-.25.16-.145-.069-.275-.028-.107-.119-.289-.108-.117-.147.178-.279.419-.235h.645l.134.187.011.14-.083.155-.039.219zm220.322-7.417h-.072l-.006-.043.125-.054h.082l-.003.06zm.617-.156-.184.028.148-.111.048-.17.088.133-.002.079zm.658-.145-.085.06-.04-.028v-.085l-.121-.188.005-.048.277.185.007.048zm.826-.188-.13.068-.135-.048.148-.068.44-.07-.166.09zm.61-.247h-.054l.027-.04.112-.08.04.031-.005.04zm.542-.284h-.076l.112-.122h.032zm.729-.679-.565.534.063-.133.22-.286.07-.133.15-.085.138-.154.01-.179.201-.125.067-.028zm-4.701-3.724-.101.074-.205-.054-.112-.097-.048-.19.178.202.064.045zm-.132-.28-.004.167-.143-.278-.096-.31.137.1zm-42.841 1.115-.04.13-.235-.615-.382-1.393-.015-.795.06-.272.099 1.122.423 1.424zm-.52-3.239-.088.165.024-.244.23-.553.47-.728.196-.122-.54.798zm48.747.062.047.21-.261-.485-.323-.76-.173-.588.117.159.114.329zm-47.783-1.77h-.062l.137-.232.026-.094.225-.294.12-.043.05.124-.232.208zm.71-.712h-.105l.13-.154.21-.077.46-.294.188-.028.098-.102h.043l-.028.125-.37.176zm4.897-2.82-.142.027.619-.437.13-.144h.165l-.276.244zm9.217-1.008-.105.04-.47-.247-.03-.105.232-.097h.142l.223.125.082.034.038.05-.021.08zm19.553-.403-.285.102-.308-.074h.192l.138.031.351-.148.184-.11.213-.043zm-11.305-.199-.155.148.007-.057.114-.148.08-.057zm.175-.27-.08.091.079-.433-.11-.364.116.159.037.19zm-1.126-.785.01.134-.139-.065h-.206l.09-.045.065-.043.031-.048.26-.165-.073.12zm1.891-.374-.035.031-.252-.06-.153-.054-.028-.054.423.1zm1.382-.102-.25.06h-.37l-.075-.028.148-.04.44-.054zm18.89-2.042-.126.692-.055-.245-.005-.238.096-.142zm-104.87-5.27-.166.025-.183-.058-.158-.274-.174-.215.094-.061.14.207.353.313zm-3.089-1.107-.126.01-.174-.026-.09-.153.143-.01.131.02.105.12zm3.096-.479.143.21-.206-.027-.217.011-.065-.113-.064-.159-.044-.04-.148-.014-.011-.014-.017-.077.041-.037.464.177zm-4.815-1.514-.2.04-.151-.038-.241-.272.511-.036.22.119.03.033zm-.747-.3-.151.01-.232-.03.08-.067.13-.048.04.036zm1.204-.156.578.145.312-.07.056.07-.036.061-.703.11-.215-.077-.02-.106-.073-.1zm123.058-1.634-.063.01-.112-.03-.154-.06-.034-.045.147.017zm.121.034-.07.033.26-.354.513-.45.139-.069-.427.384zm2.05-1.553-.517.202-.058-.011.339-.145zm.675-.142-.381.077-.034-.025.437-.162.138-.57.02-.263-.066-.464.002-.096.07.15.064.432-.023.328-.127.478zm-.26-1.749-.043.058-.189-.314.194.102.035.084zm.86-5.77-.13.045.433-.569.252-.476.112-.165-.109.334-.19.307zm3.406-5.09-.333.429-.009-.083.416-.534zm-.155-2.392-.136.01.135-.271.25-.125.09.026.002.096-.035.082-.167.127zm4.765-1.315-.201.183.182.017.157-.054.149-.109.345-.147.294-.065.092-.014.14.103.279-.083.286-.047-1.237.473-.253.053-.362.141-.343.1-.246.036-1.225.351-.097.01-.105-.034-1.01.181-.414.02-.377.063.28-.146.005-.054-.067-.043-.149.011-.152.15-.244.05-.049-.163.082-.126.11-.12.242-.188.346-.12.177-.103.122.091.025-.122.094-.071.102-.038.246-.001.132-.02.095-.041.098-.01.268.056.262-.017.212-.077.22-.026.582-.017.579-.056.231-.1.486-.28.28-.078-.436.325zm7.19-.794-.22.046-.505-.105.416-.089.068-.03.054-.131.006-.066.158.28zm-1.51-.315-.783.14-.124-.09.195-.042.246-.213.164-.026.258.12zm-2.43-.309-.079.053-.029-.137.055-.158h.056l.028.084zm.352-.02-.14.077-.158-.014.08-.105.03-.154.078-.169.045-.052.092-.046zm7.435-7.679-.108.056-.115-.017-.003-.14.035-.048.04-.023.059.04zm1.238-.387-.166.055-.18-.026.002.15-.02.054-.2-.077-.074-.05.006-.199.177-.187.135-.074.175.05.133.211zm-155.23-8.156-.028.056h-.04l-.09-.114-.01-.08.075-.058.102.166zm1.303-.541-.014.065-.109.05-.056-.014-.003-.076-.03-.011-.117.091.009-.18.058-.192h.05l.076.125zm-.293-.566-.014.054-.157-.065-.05-.06.005-.135.039-.088.029-.017.092.038.026.023zm-.214-1.596.139.372.06-.155.386.27v.131l-.047.044-.08.014-.074-.039-.069-.093-.087-.049-.185-.032-.096-.105-.033-.072-.01-.209-.046-.065-.098-.014-.094-.049-.145-.146-.02-.039.068-.119.158-.199.115-.094.071.011.088.06.105.11-.02.076-.425.15-.014.035.206.042.076.038zm-.705-.78-.044.028-.152-.037-.09-.063-.03-.08.057-.15.076-.04.047.01.02.134.134.14zm-.545-.198.075.093-.306-.06-.13-.054-.038-.052-.046-.171.02-.056.136-.02.256.212zm.655-.487.038.062-.114.06-.08.01-.13-.097-.057-.011.046.148-.017.05-.264-.09-.05-.073.075-.076.167-.079.057-.01zm79.449-.938.257.396.001.001.021.155.085.097.154.09.588.11 1.019.127.578.147.136.166.273.067.407-.033.286-.069.243-.157.34-.035.292.011.294.014.158.023.453.125.295.102.425.19.234.084.113.197.132.254h.187l.142-.149.36-.028.473.104.417.296.6.264.366.131h.372l.473-.13.503-.254.362-.044.215.026.122.197.15.075.39-.023.815.038.648-.054.148.114.131.178.263.056.357-.056.638.044.27.011.518-.067.249-.078.349-.132.465-.176.815-.307.663-.111.618.22.492.195.19.075.502.198.708.28.813.323.813.321.709.28.501.199.19.075.552.227.55.227.552.227.551.228.551.227.551.227.551.227.551.227.14.378.135.368.322.267.296.244.17-.014.174-.103.11-.05.185-.01.41-.088.121.02.07.044.005.069-.014.055-.063.11.1.21.021.233.055.177.168.226.146.176.184.034.426-.103.266-.039.152.017.259.165.126.1.03.081-.35.504.555.25.62.274.738.326.451.2.594.284.102.406.086.343.11.478.11.487.112.485.117.516.13.565.115.503.125.548.167.714-.15.275-.324.598-.294.542-.025.157-.202.789-.162.326-.284.189-.28.183-.352.308-.386.152-.197.089-.103.14-.114.31.022.47.318.407.465.226.5.221.713.001.64-.295.68-.312.605-.279.72-.33.653-.3.708-.109.981-.15 1.236-.187.601-.215.777-.276.897-.32.774-.276.389-.152.277-.175.068-.129-.017-.074-.07-.074-.1-.055-.087-.047-.042-.058-.009-.126-.054-.072-.05-.053.019-.488-.068-.151-.252-.384.481-.172.446-.16.355-.118.745-.017h3.933l.719-.01.35-.443.314-.396.345-.379.613-.444.178-.08.099-.175.372-.167.41-.154.16-.145.078-.082 1.11-.781.63-.361.52-.201.396-.096.267.014.152-.014h.13l.661-.001 1.182-.001h7.09l.28-.547.26-.255.357.084.19-.01.21-.132.172-.08.113.011.096.12.08.08.094-.022.08-.114-.003-.157.11-.11.13-.017h.12l.06-.053-.006-.077-.043-.124.014-.148.3-.263.37-.179.128-.089.038-.18.211-.188.106-.108.025-.094-.054-.116.006-.22.072-.263.087-.286.195-.259.32-.282.082-.37.087-.39.386-.38.438-.432.249-.246.45-.447.319-.317.16-.146.17-.174.274.052.272.052-.04.252.045.183.13.106.186.072.142.023.166-.001.455-.143.535-.092.293-.086.054-.08.134-.029.214.026.394.202.46.305.363.24.012.418.006.443.009.466.006.333.009.457.009.364.011.475.006.253.05.073-.03.1-.014.05.003.04.02.05-.003.07-.047.063-.023.073-.006.12.05.073.084.043h.07l.09.043.116.077.177.066.183.023.127-.017.153.043.054.107-.03.1-.087.047-.093.037-.017.077.046.08.067.07.073.123-.03.106-.066.09-.03.093.057.08.15.107.093.103.147.057.07-.04.056-.053.06-.04.104.023.12.03.13.035-.014.086.08.146.062.28-.095.127.02.169.263.049.064.052.012.062-.58.431-.491-.06-.266.114-.279.034-.122.193-.153.04-.21-.01-.18-.054-.139.026-.193.348-.158-.03-.063.126-.083.055-.121.047-.105-.155-.067-.147-.1-.032-.13-.038h-.135l-.09.02-.112.095-.162.082-.122-.068-.096-.11-.082.176-.12.186.02.217-.05.128-.114-.035-.112-.112-.316-.09-.252.01.051-.12.238-.173-.073-.034-.117.023-.05-.023.083-.157.01-.174-.107.061-.134.183-.324.145.014.244-.305.499-.015.212-.195.17-.252.146-.337-.041-.256.126-.13.146-.114.023-.06-.185-.042-.057-.095.273-.096.017-.036-.194-.046-.128-.131.11-.087.293-.092-.026-.029-.109-.065-.033-.023.124.033.175-.048.093-.09-.05-.092-.084-.15.064-.139.026v-.086l.025-.105-.276.058-.33.194-.257.268.09.045.1.086-.447.415-.457.373-.345.609-.139.07-.119.112-.126.368-.146.327.082.146.054.15.13.147.11.014.119-.026.087.01.056.063-.025.075-.138.02-.257.132-.225.05-.113.16-.169.183-.328.287.14.088.508.1.226.102.343.536-.079.053-.03.098.304.137.097.384.25.13.373.08.455-.115.38-.16-.015-.131-.238-.305-.057-.143-.177-.093-.068.079-.114-.102-.014-.057.106-.028.124.01.145.054.372.332.103.436.023.276-.042.095-.109-.02-.206.02-.98.144-.218.126-.5.137-.03-.068.036-.142-.032-.29-.098-.013-.776.472-.3.03-.251.138-.057-.077-.045-.354.158-.297-.084.01-.264.178-.113-.11-.056-.12-.081-.068-.088-.026.075.263-.179.198-.049.51-.224.212-.7.136-.456-.029-.409.042-.543.098-.3-.058-.308.104-1.044.028-.22-.055-.282.195-.45.115-1.138.437-.25.16-.306.248-.206.133-.168.043-.104.111-.113.073.11-.248.118-.21.099-.404-.03-.328-.122-.135-.127-.09.149.323.023.397-.052.232-.279.449-.118.104-.14.092-.104.04-.097.072-.112.114-.106.225.064.206.544.075.146-.063.075.147.041.204-.04.221-.092.225-.069.28-.058.425-.088.383-.011-.116.055-.466-.09.05-.06.106-.167.601-.228.32-.21.222-.218-.037.05.176-.06.092-.051.19-.13.127-.122-.01-.174.087-.07.067-.005.129-.117.112-.422.585-.366.172-.088-.026.097-.276.066-.279-.222-.121-.213-.064-.244.01-.27-.217-.347-.158-.485-.427.014-.118-.011-.2.147-.313.142-.22.195-.113.566-.116.142-.174.084-.147-.28.252-.42.085-.227.094-.181.144-.107.18-.243.218.017.145.04.104-.02.216.154.21.305.345.058.536.232.358.356.418.274.119.014.155-.126.257-.167.117.217-.023.108.06.105.213-.01.22-.035.122-.065.05.003-.126-.047-.044-.076.054-.05.062-.02.244-.053.123-.185.036-.189.32-.175.183-.69 1.232.026.206-.126.066-.191.054-.194.123-.128.136-.119.365-.228.411-.143-.171-.036-.147.063-.382.247-.627.272-.39.207-.184.17-.376-.215-.056-.328.01.061-.174.096-.153-.171-.153-.101-.02-.105-.062.122-.127.06-.134-.036-.163.051-.123-.085.02-.138.13-.085.052-.052-.115-.06.026-.038.079-.088.043-.185-.109-.27-.123-.151-.214-.086-.165.087-.299.187-.053.243.049h.318l-.046-.066-.113.01-.335-.242-.108-.147-.186-.04-.084.141-.094.037.115-.308.152-.011.224-.085-.065-.178-.142-.078-.255.098.003-.126.048-.16h.193l.168.053.144-.26.006-.116-.239.169-.053-.364.234-.35.224-.153.28.01.283-.026-.178-.064-.183-.035.138-.138.117-.026.115-.121-.277.017.033-.229-.135.047-.16.023-.064.097.012.161-.047.106-.125.085-.212.066-.02-.115-.07-.052-.025.246-.056.083-.154-.23-.047.047.006.066-.04.113-.132.059.01.145-.052.079-.425-.126-.009.043.24.271.176.093.02.148-.15.123-.208-.106-.035.01.113.182.071.16-.073.132.011.164-.017.149-.045.13.101.597.122.162.12.156.063.145-.127.023-.202-.12-.178-.09-.211-.292-.035-.117-.052-.092.026.212.075.236.662.529.123.202.093.16-.023.153-.172-.108-.15-.138-.395-.156-.498-.098-.281-.361v.15l-.062.129-.171-.156-.109-.134-.036-.146-.214.011-.225.127-.218-.03-.025-.247.058-.131.245-.31.23-.158.101-.204-.035-.317-.043.322-.131.16-.207.122-.272.217-.066.201-.085.377.115.127.117.033.346-.085.18.038.398.454.743.179.27.112.221.236.332.137.258.197.006.13-.09.152-.035.207-.109.13-.263.014-.158-.034-.853-.726-.102-.067-.316-.38-.371-.204h-.115l.528.377.216.263.38.37.271.156.2.244.186.114.507.163-.177.117.282.1.04.184-.026.209-.39-.083-.014.154.035.09-.173.076-.24-.102-.622-.557.006.074.05.086.361.359.323.215.273.097.21.18.075.109.05.165-.157.112-.177.062-.174-.112-.127-.117-.271-.2-.081-.225-.207.011-.861-.284-.693-.033.068.057.087.038.552.07.218.13.454.117.265.032.108.356.367.246.048.181.25.02.442-.178.284.062.41.051.095.144.07.274.145.308.377 1.215.565.993.07.171-.131-.15-.42-.658-.231-.475-.238-.84-.07-.187-.08-.075-.054.06-.023.108.039.082-.094.276.04.126.153.131.166.327.132.44-.179-.178-.19-.095-.298-.072-.264-.127.02.182-.026.197-.204-.06-.138-.065.122.21-.266-.063-.177.014-.116.186-.154.113-.23.036-.339-.17-.11-.207-.045-.23-.017.272.06.284-.022.215.327.04.305-.035.413.01.268-.04.162-.068.389.06.028.26-.044.258-.023.276h.108l.126-.088.063-.494.355-.182.12.01.112.16.038.16.04.221-.083.337-.545.393-.39.364-.2.074-.288-.042-.327-.09-.16-.018-.122.03-.074-.112-.048-.205-.127-.068-.096.01-.065.218-.305.062-.414-.09-.434-.183.186.196 1.077.366.12.068.114.1-.15.156-.119.177-.017.138-.042.087-.429.236-.232-.04-.594-.426.27.368.217.156.436.083.819-.138.268.15-.22.266-.22.186-.286.02-.253.051-.074.129-.18.01-.282.01-.437.01-.24-.03-.334.263-.126.036-.177-.049-.074-.21-.08-.104-.001.394.03.106.064.08-.391.214-.375.266-.134.072-.153.134-.313.385-.077.281-.113.314-.014-.141.02-.238-.078-.272-.049.498-.121.232-1.115-.017-.488.126-.75.424-.223.185-.619.718-.158.46-.126-.194.03-.144.003-.119-.156.254.148.37-.133.141-.409.264-.223.043-.251.075-.08.26-.34.24-.199.106-.364-.064.112.232-.133.174-.23.134-.287.088-.164-.01-.14.046-.11.112-.268.104-.279-.06-.316-.034-.176.062.296.103.158.15-.032.2-.08.078-.186.106-.082-.014-.05-.095-.06-.198-.088.042-.015.092-.074.033-.265-.315.013.24.092.185.09.093.09.054.022.085-.18.207-.094.045-.166.034-.093.128.027.11-.145.242-.346.15h-.106l-.087.043.05.108.087.077-.003.071-.091.1-.181.027-.102.111.032.105.06.06-.012.102-.206.103-.048.099.102.028.078-.028.058.028-.124.167-.11.102-.106.185-.244.051.01.06.137.054.116.142-.217.261-.136-.028-.083-.057-.052.207.02.111-.052.225-.083.27-.056.11.012.207.035.2.133.257.202 1.054.139.365.248.987.412.956.58 1.156.954 1.401.114.2-.124.17-.038.176-.01.264.034.258.113.315.216.48-.121-.096-.314-.69-.036-.406.045-.575h-.074l-.06.187-.032.219-.08.085-.108-.335.008-.15.115-.176-.034-.062-.186-.091-.04-.142.026-.14-.107-.076h-.084l.056.346.089.213.11.51.176.31.103.258 1.204 2.765.285.352.105.253.11.529.026.679-.197 1.24-.045.847-.029-.028-.02-.088h-.045l-.17.388-.233.35-.076.544-.112.272-.334.288h-.207l-.508.216-.357-.057-.425.122h-.28l-.162-.258.025-.114.064-.116.11-.028.375.27.07-.114-.113-.137-.217-.074-.16-.082-.323-.613-.335-.422-.057-.281-.577-.17-.418-.262-.273-.462-.156-.82-.184-.095-.078-.065.18-.304.19-.256-.15.062-.111.094-.141.225-.103.034-.094-.034-.109-.433.031-.532.152-.198h-.234l-.242.077.035.176-.034.097-.176-.028-.134-.062-.182-.185-.248-.352-.509-.97-.099-.135-.168-.142.08-.045.144-.028.326-.437.257-.264.085-.182-.015-.08-.113-.113-.15.099-.063-.028-.168-.23-.16-.065-.111.048.118.187.105.068-.04.273-.043.088-.1.079-.154-.043-.078.068-.092-.071-.092-.12-.102-.195.27-1.11.25-.708.028-.806.018-.12-.02-.215-.335-.466-1.48-1.137-1.147-1.346-.993-.505-.754.11-.13.103-.057.134.048.15-.069.062h-.202l-.273.034-.711.354h-.251l-.228.091-.17.068-.446.037-.377.08-.163-.043-.107-.204v-.213l.087.162.133.128.061-.051.023-.114-.133-.221-.427-.285-.487-.415h.148l.038-.088-.151-.116.064-.136.106-.142-.206.028-.184.099-.006.122-.037.097h-.099l-.184-.12-.907-.335-.793-.19.608-.085.33.065-.039-.102-.08-.065-.26-.082-.331.03-.21-.04-.214.083-.235.119-.209.062-.818.085-.663.094.106-.1.114-.064.392-.096.058-.202-.092-.193-.103.045-.108.15-.133-.107h-.147l-.04.242-.189.161-.085.162-.553.128-.07-.043.161-.153-.013-.085-.184.074-.31.293-1.09.097.06-.068h.23l.323-.094-.065-.156-.124-.173-.115-.028-.076-.099.004-.318-.074-.184-.177-.19-.06.036-.13.327-.109.429-.054.139h-.323l-.286-.028-.971.05-.363-.144-.15-.028h-.092l-.423.134-.482.102-.113-.031h-.162l-.349.346-.412.162-1.038-.291-.259-.236-.229-.05-.282-.029-.303.289-.23.39.364.212.31.103.515-.085.285-.19h.232l.11-.04.102-.1.199.077.007.08-.141.111-.178.094-.108.108.203.219.319.074.12-.031.074-.247.195-.16.266.035-.037.099.037.094.122.161-.014.23.024.057-.287.103-.214.034-.17.133.09.077-.175.068-.118-.028-.059.028-.018.082-.09.077.131.23.268.15.19.188.76.247h.185l.181.247.147.085.14.043-.016.17-.25.125-.068.151-.063.082-.112-.105-.116-.077-.269.233-.129.048.064-.253-.101-.099-.153-.253-.224-.156-.157-.05-.122-.1-.148-.04h-.127l-.214-.057-.014-.133-.06-.1-.167-.119-.8-.224-.005.094.055.071.115.045.138.091-.001.27-.06.113-.026.162-.053.165-.097.13-.219.089-.096-.074-.156-.355-.22-.11h-.35l-.238.078-.26.344-.208.057-.715-.18-.816-.269.02-.09.13-.029.245.037-.013-.094-.251-.303-.047-.136.033-.167h-.082l-.151.139-.52-.12-.144-.142-.306-.4h-.431l-.196-.24-.352.102-.179.11-.157.173.061.091.157.142-.072.068-.502.103-1.165-.114-.341-.108-.457-.227-.635-.185-.305-.028-.299.037-.87.028-.202.048-.172.08-.111-.088-.052-.153.101-.028.113-.09.101-.18.012-.108-.071-.07h-.135l-.298.467.17.261-.011.094-.594.054-1.348.528-.526.285.027-.096.635-.37-.224-.056-.361.094-.13-.037.153-.305-.05-.27h-.257l-.163.216h-.114l-.148-.091-.116.028.086.487.161.198.136.256-.37.315-.343.262-.037.252-.344.328-.324.185-.762.436-.217.094-.344.202-.474.15-.455.242-.153.037.29-.205.344-.201-.295.028-.455-.094h-.279l-.002.074-.212.105-.22-.153-.095-.103-.045-.088-.093-.028-.09.04.328.625.14.028.154.062-.193.145-.207.11-.325.075-.276-.227-.06.286-.035.286-.092.074-.148.105-.08-.08-.039-.111-.094.099-.14.074h-.228l-.172.04.004.12.04.118.303-.094-.11.306-.279.303-.228.07-.348-.044-.085.03-.077.063.405.473-.26.713-.167.259-.116.034h-.125l-.45-.23-.244-.18.216.485.588.142.03.181-.003.157-.116.184-.108.244.08.17.093.42.08.194.087.584.093.253.535.933h.18l.03.103-.018.193-.385.057-.162.085-.031.074-.024.04h-.05l-.183-.054-.418-.264-.608-.165-.799-.062-.546-.134-.292-.201-.306-.12-.32-.036-.264-.111-.21-.182-.306-.116-.404-.051-.262-.137-.183-.332h0l-.164-.557-.206-.349-.4-.431-.037-.057h0l-.004-.071.05-.25-.042-.182-.127-.148-.03-.156.07-.165.005-.195-.06-.23-.256-.248-.451-.266-.385-.39-.317-.513-.314-.355-.31-.2-.213-.24-.114-.286-.034-.165.047-.045-.19-.317-.43-.588-.245-.43-.063-.272-.273-.324-.481-.376-.262-.244-.063-.17h-.001l-.751-.493-.218-.308-.17-.097h-.196l-.1-.028-.007-.068h-.063l-.122.062h-.4l-.677-.037-.489-.082-.3-.131-.21.028-.122.165-.257.108-.394.048-.338.307-.284.568-.124.365.034.162-.075.12-.184.074-.187.164-.19.256-.223.125h-.254l-.469-.199-.684-.387-.537-.238-.388-.091-.344-.18-.298-.266-.274-.176-.251-.088-.294-.295-.335-.502-.168-.387v-.408l-.439-.89-.233-.385-.173-.179-.339-.213-.504-.247-.677-.493-.848-.739-.6-.445-.352-.15-.306-.267-.259-.381-.253-.242h-5.042l-.002.32-.002.319-.002.32-.002.319h-8.029l-1.347-.42-1.346-.42-1.347-.421-1.347-.42-1.346-.42-1.347-.421-1.347-.425-1.346-.42.136-.16.18-.428-.325.03-.813.061-.812.061-.813.061-.813.061-.812.061-.813.061-.812.061-.813.061-.006-.017-.02-.31-.131-.11-.17.068-.077-.404.042-.19-.02-.187-.158-.457-.422-.555-.912-.69-.464-.23-.365-.292-.231-.08-.291-.024-.085.132-.33-.09.05-.325-.322-.452-.263-.05-.662.03-.885-.249-.262-.148-.09-.264-.414-.23-.547-.226-.304.052-.398-.035-.567-.163-.33-.02-.645.048-.24-.034-.224-.205-.241-.103.051-.252-.03-.229.035-.178-.108-.39.084-.36-.073-.131-.136-.1-.427-.148-.078-.186.07-.257-.112-.169-.35-.158-.327-.359-.414-.197-.17-.329-.256-.203-.088-.18-.566-.644-.605-.503-.093-.289-.023-.396.237-.241.128-.213-.014-.195-.036-.143-.208-.249-.805-.147-.655-.615-.039-.47-.258-.482-.003-.313-.039-.338.195-.074.175.028-.017.135.058.242.205.181.196.08.178.176.133.054.138.014-.074-.113-.078-.073-.097-.235-.182-.3-.21-.165-.106-.302-.09-.07-.058-.112.203-.132.276-.095.37-.026 1.05.044.224-.077.185.026.135-.01-.285-.08-.16.026-.189-.017-.375.014-.152-.034-.167-.095-.11-.01-.346.164-.155-.02-.366-.18-.16-.025-.257.102-.03.44.079.328-.155.034-.178-.135-.274-.08-.227-.123-.32-.228-.167-.083-.19.19-.008-.087.094-.221-.025-.37.286.295-.09-.208-.222-.228-.17-.08-.212-.41-.479-.246-.383-.397-.785-.657-.052-.579-.286-.73.12-.417-.017-.295-.14-.445-.147-.242-.636-.664-.612-.447-.092-.338-.043-.341.134-.304.116-.319.085-.084.032.035-.022.068.087.02.033-.14.051-.074-.091-.01.009-.045.054-.089.19-.42-.02-.528.203-.648-.009-.214-.13-.46-.13-.277-.23-.195.101-.286-.009-.273-.407-.392-.156-.516-.03-.217.041-.576-.106-.246-.272-.405.116-.352.126-.214.306-.935.074-.075h.128l.223-.16-.103-.036-.156.076.14-.37.155-.317.101-.114.051-1.034.09-.79.147-.26-.051-.268.059-.364-.042-.368.314-1.77-.041-.213.096-.286-.09-.756.04-.845-.08-.107-.04-.117.074-.017.146.123h.676l.432-.113.157.037.182.154.229.031.286-.028-.087-.039-.134-.01-.301-.143-.171-.142-.527.01-.108-.091-.589.09-.182-.093-.32.06.078-.265-.014-.334.017-.325.079.238.2.252.095-.286.066-.36-.195-.138-.323-.103-.116-.335.765-.285-.406-.061-.16-.128-.197-.014-.014.099-.064.13-.07-.173-.019-.202-.08-.347-.314-.556-.19-.722-.238-.356-.457-.34-.12-.2-.11-.504.063-.38-.086-.27.22.015.578.21.72.167.218.12.349.09 1.935.138.126-.014.25-.086.106.01.285.198.143.023.184-.011.137-.037.233-.136.032.05-.006.125.083.178.171.232.065.144-.346.405-.066.01-.011-.137-.045-.028-.651.685-.229.324-.022.147.009.086.09.02.209-.034.309-.135.014-.029-.288.048h-.138l.02-.153.033-.073.188-.228.197-.136.281-.145.162-.12.111-.174.312-.209.057-.058-.014-.171.02-.033.15.023.063.295-.037.132-.269.16-.033.057.047.22-.042.02-.102-.027-.032.014.255.239.08.185.012.165-.07.317-.073.053-.127-.02-.168-.099-.038.032-.133.247-.044-.023-.083-.293-.045-.023-.259.134-.104.128-.09.204-.113.095.322.02.29-.04.234.096h.079l.213-.095.065-.065.176-.308.088-.055h.131l.127-.046.188-.17.01-.066-.069-.378.02-.215-.035-.068-.085-.07.012-.068.066-.112.006-.102-.057-.091.026-.103.178-.222.034-.098.217-.22-.055-.09-.16-.108-.1-.095-.102-.15-.077-.05-.025.024.108.244-.023.017-.282-.131-.065-.083-.035-.113.026-.085.151-.084.181-.03-.014-.07-.227-.228-.15-.104-.117-.05-.157-.014-.07-.037-.017-.054.033-.07.083-.023.243.028.13-.05-.011-.091-.04-.05.007-.325-.092-.264-.048-.045-.052-.01-.054.035-.153.01-.093-.086-.104-.166-.188-.398h78.449l.01-.6.01-.473.613.058.183.086.058.04-.017.131.05.396zm-243.483-6.73-.492.002-1-.463-.508-.146-.282-.163.126-.034.613.115.5.25.277.164.32.14.344.056zm12.102-1.19-.179.167-.131-.076-.05-.229.1-.058.279.166zm.789-.057-.24.062-.315-.126.03-.146.347.122zm-5.31.462-.064.095h-.068l-.38-.157-.055-.053.223-.074.064-.058-.025-.075-.167-.105-.308-.134-.116-.096.074-.059.147-.036.463-.01.25.165.187.058.44.04-.228.07-.13.067-.16.261zm2.075-.19-.082.036-.15.03-.433-.033-.262.011-.293.02-.22.05-.043-.07.009-.057.945-.156.22-.082.135-.103.123-.194.1-.058h.06l.133.076-.046.1-.12.088-.038.082zm1.575-.427.015.095.325-.01.102.048v.187l-.042.053-.05.014-.117-.04-.132.094-.606.233-.188-.13-.354.205.248-.53.286-.08.106-.06-.026-.156.133-.26.288.012.134.107-.006.07zm-13.718-.14-.181.049-.097-.124-.009-.072.098-.076.174.05.104.07zm3.272.03-.235.073-.271-.04-.148-.11.017-.132.35-.145.434.18zm12.07-.275-.067.084-.277-.089-.099-.072-.02-.074.082-.123h.223l.13.05.123.093.037.058zm-18.636.34-.247.119-.193-.121-.03-.054.37-.207.279-.045.12-.076.122-.263.207-.01.094.031-.048.123-.161.188-.006.131zm25.645-.72.557.115.692-.014.253.028.003.032-.443.047-.152-.014-.386.064-.263.011-.601-.06-.464.041-.122-.014-.146-.053-.169-.089-.008-.056.152-.023.411.077.043-.04.347-.072zm3.09-.386-.21.042-.23-.044.107-.15.11-.08.208-.097.247.043.198.123zm-6.282.674-1.524.116-.232-.08.232-.046.274-.026.573-.133.704-.116.55-.14.477-.09.134-.15-.419-.078-.083-.06.2-.07.166-.102.391-.12.35.15.078.1-.033.12-.07.124-.308.064-.046.065.166.185-.632.163zm-32.94-.922-.184.01-.118-.098-.607-.038.063-.093.261-.039.401-.15.336.026-.088.138zm44.14-.63-.182.09-.054-.034-.03-.111.101-.087.31-.189.21.035.066.05-.005.072-.078.093-.1.047h-.122zm2.957-.755-.046.114-.042.042-.439-.061-.293.023-.032-.068.025-.06.46-.092h.187l.125.047zM.9 89.386l.489.093.336-.043.424.15.524.257-.118.049-.132.028h-.13l-.408.043-.223-.011-.412.177-.453-.127-.152-.252-.36-.062L0 89.601l.52-.197zm54.588-.944-.87.305-.282.222-.215.214-.17.117-.123.02-.137.057-.288.15-.12.02-.923.349-.065.01.045-.091.281-.13.184-.117.208-.195.114-.072.036-.098.014-.197.052-.075.198-.148.145-.081.19-.028.384.026.16-.076.05-.057-.098-.052-.023-.091.026-.157.111-.138.197-.121.269-.094.34-.067h.249l.447.142.067.065-.11.144-.062.134zm4.983-1.073-.04.01-.073-.07-.003-.064.047-.047.132-.11.094-.038.116-.02.031.029-.102.129-.128.087zm-1.152-.505.123.135.212-.086.155-.117.121-.152.079-.059.104.08.298.11-.25.166-.483.25-.16.168-.012.072.467-.055.13.01.083.057-.128.068-.254.062-.221.12-.512.207-.194.173-.228.066-.312.014-.548.112-.333.106-.084.057-.104.028h-.125l-.135.046-.145.096-.12.045-.199.01-.103.039-.116-.001-.316-.115-.08-.067.28-.133.204-.045.308-.02.303-.124.623-.164.193-.09.124-.31.142-.053.075-.124h.346l.158.139.056.02.028-.014.014-.112.178-.078-.103-.057-.319-.072-.236-.034h-.154l-.126-.04-.097-.086-.044-.084.009-.084.078-.094.15-.103.17-.06.367-.041.326-.07.172-.01.13.029zm2.197-.482-.107.05-.087.011-.065-.028-.294.034-.057-.02-.132-.169-.008-.088.051-.069.132-.063.213-.056.208.011.365.156.171.09.032.058-.127.053zm.796-.187-.124.023-.03-.03-.014-.125-.095-.199.181-.072.113-.017.048.03.13.148.13.039.097.032-.17.045zm8.538-.752-.246.062-.261-.065-.223-.12-.026-.142.498.092.106.044zm.728-1.265-.067.014-.196-.087-.07-.065-.052-.102.398-.145h.083l.074.082.014.065-.11.184zm-3.345-.38.276.469.12.092.177.05.248.05.148.07.13.107.017.048-.78-.19-.491.277-.149.036-1.392.014-.278.05-.18.09-.318.253-.161.098-.17.058-.362.065-.435-.01-.226-.033-.12-.12-.108-.237v-.066l.046-.113.387-.156.129-.083.5-.536.146-.074.154-.017.428.037.365-.157.787-.238.173-.028.566-.01.155.037.12.067zm11.683.023-.093.014-.076-.031-.106-.161-.008-.068.203.05.077.118zm-.435-.51-.014.227-.042.036-.075-.061-.16.067-.087-.05.037-.078-.011-.061.118-.01.028-.113-.02-.047.059-.101.084-.023zm80.007.205.29.37.015.13-.277.045-.218-.017-.112-.043-.03-.06.07-.187-.143-.11-.165-.039-.149.065-.009-.184.111-.133-.061-.18-.002-.136.036-.043h.15l.307.14zm-81.023-.14-.173.063-.055.079-.131.034-.11.064-.373.292-.164.054.18-.25.03-.078.002-.053-.056-.188.109.01.09-.04.18-.166.161-.014.174-.198.094-.017.046.026-.077.12.167.11-.042.108zm76.7.666.07.038.07-.028.115-.1.203.02.147.033.09.042-.048.148-.036.239-.085.085-.083.12-.288-.072-.233-.152-.34-.261-.188-.19-.014-.08-.12-.057-.232-.326-.132-.257-.21-.03-.264-.071-.102-.141.07-.124.377-.062.565.318.086.135.203.158.038.22.103.086zm-77.996-1.258-.04.224-.39-.143-.104-.07.07-.054.37-.014zm-1.01.065h.043l.088-.023.184-.16.06-.01.001.049-.087.158.147.211.138.102-.014.036-.345.073-.263-.053-.139.017-.126.074-.086-.082-.06-.39.02-.068.143-.136.185-.06.08.016.068.054.017.057zm77.748-.65.062.08.006.05-.41.188-.01.04-.096.116-.087.043-.153.126-.292.136.043-.409-.29-.237.293-.12.191.034.318.014.31-.105zm-63.212-.788-.11.09-.216-.01-.12-.03-.041-.077.331-.237.076-.032.06.01.025.098zm69.817.943-.099.312-.195.319-.299.172-.21-.038-.154-.139-.144.01-.153-.029-.086-.114.081-.148-.071-.115-.077.1-.134.092-.34.12-.233.229-.11.149-.138-.163-.088-.385-.011-.163.246-.247.317-.234.064-.7 1.01-.35.095.017.328.262.348.366.09.165.004.288zm-7.346-2.414.538.06.493-.01.168.118.112.124.065.116.017.108-.015.077-.06.082.015.028.962.27.455.284.18.15.105.125.19.316.401.366.21.111.12.109-.067.01-.283-.08-.611-.246-.05.011-.056.133-.095.117-.14.083.112.026.494-.053.414.24.16.042.157.172.006.066-.091.128-.07.052.023.035.116.017.457-.036.081.062-.068.496.065.183-.001.083-.053.11-.002.093.04.096.007.086-.116.223-.123.038h-.197l-.156-.063-.219-.192-.213-.298-.082-.043-.28-.045-.05-.035-.179-.01-.126-.122.014-.161-.109-.164.014-.073-.123-.031-.103.046.054.16-.06.125-.223-.052-.37-.397-.42-.32-.165-.075.044-.093.208-.05h.168l.034-.054-.351-.309.011-.087.128-.155-.16-.065-.438.049-.154-.033-.127-.125-.074-.108-.38-.02-.144.014-.247-.164-.113-.103.045-.053.228-.093.133.014.256.099h.1l.255-.132.038-.118.19-.097-.03-.103-.105-.175-.233-.05-.475.105-.414.16-.165-.063-.036-.098.443-.267.194-.148-.038-.088-.142-.113-.012-.284zm2.232.26-.145.01-.171-.042-.408-.232-.01-.068.06-.077.231-.141.095-.034.556.014.179.038.04.066-.009.067-.058.068-.014.07.03.075-.064.074zm1.896.392-.059.472-.112-.026-.107-.001-.219.067-.23-.03-.108-.052-.04-.061.041-.14-.128-.078-.43-.03-.162-.033-.09-.147-.022-.194.067-.072.217-.05.17-.235.094-.032.358-.464.18.032.315.282.394.409zm-64.091-.927-.195.067-.064-.023-.009-.056.046-.089.09-.088.3-.168.302-.111.153.01.053.07-.188.148zm1.346-.224-.14.01-.21-.075.028-.09.3-.108.301.017.023.06-.014.069-.026.04-.096.04zM50.403 79.1l.373.057.208-.037.184.03.033.067-.32.146-.13-.01-.379-.177zm105.09.31-.032.041h-.36l-.131-.034-.05-.121.034-.113.085-.087.102-.167.08-.28.53.313.162.139.087.17-.188.064-.228.03zm-3.53-.907.184.197.267-.017.15.149.112.223-.082.143-.118-.032-.131.083-.08.274.036.275-.04.274-.153.28-.032.187-.06.056-.066.02-.085-.05-.123-.04-.156.157h-.19l-.159-.359.141-.597.316-.121-.188-.162-.397-.19.034-.105-.301-.304-.017-.072.048-.253.282-.226.372-.04.26.096.146.083zm1.77-.45.19.09.102-.094.192.01.355.083.212.125.12.142.011.085-.036.193.026.198-.015.102-.047.085-.08.067-.088.01-.277-.178-.317-.32-.24-.096-.01.033.066.092.197.172.036.103.138.126.062.096.036.126-.001.11-.038.094-.065.06-.09.026-.483-.026-.288.063-.337-.035-.081-.057-.051-.093-.026-.226-.085-.323.02-.249-.217-.224-.186-.136-.268-.121-.176-.12.048-.097.274-.072.45.017zm-55.772-.344-.361.092h-.064l-.223.185-.17.08-.226-.146.058-.227.196-.151.993.05.077.042.002.036-.073.03zm-48.71-.168-.293.134-.267-.05-.079-.097-.002-.041.768-.11zm99.929-.476.241.312.175.242.156.29.26.602.121.228.038.124.03.327-.04.07-.078.064-.014.093.072.248.006.379-.068.212-.08.032-.193-.07-.16-.115-.118-.12-.29-.378-.086-.177-.006-.127.044-.092.095-.057.165-.153-.022-.026-.126.034-.256.02-.225-.121-.176-.064.036-.22-.047-.061-.346.068-.13-.061-.028-.082.006-.123.066-.107.328-.271-.033-.05-.16-.011-.21-.093-.096-.304-.226-.173-.134.017-.304.49-.15.107-.427.069.087-.137.04-.121-.152-.37-.006-.142.101-.104.302-.043.16-.062.125-.101.03-.1.234-.26.11-.051h.29l.613.288.186.042zM97.298 75.65l-.08.08-.074-.02-.159-.093-.324-.134-.148-.093-.009-.04.111-.043.38.109.162.099zm.973.074.02.156.115-.02.437-.16.228-.048.297-.01.235.073.048.056-.02.067-.189.136.009.088.202.163.497.089.06.049-.003.059-.342.269-.126.063-.089.014-.62-.048-.57-.088-.23-.014-.08.029-.161.083.115.026.498.02.176.121.076.089.039.098-.1.04-.213.029h-.255l-.316.11-.174.126-.633.032-.48.168-.17.083-.06.099-.181.072-.41.072.244.064.039.054.005.076-.033.065-.324.29-.612.24-.155-.012-.066-.03-.055-.046-.002-.046.788-.48-.031-.022-.214-.017-.34-.132-.24.085h-.054l.064-.113.156-.135-.029-.038-.086-.034-.197-.02-.31-.01-.228.032-.15.07-.01.03.316-.01.086.036.086.067.052.077.017.087-.067.118-.15.148-.222-.026-.454-.329-.2-.48-.389-.368-.017-.088.111-.227.392-.321.42-.088.3-.136.29-.04h.18l.245.057.099.124-.06.058.024.03.172.074.186.258.217.23.144.093.19.057-.196-.175-.117-.217-.058-.433-.056-.114.11-.031.31.017-.009-.065-.327-.146-.201-.12-.076-.095.006-.083.178-.122.102-.035.104-.014.208.026.094.038.267.274.126.085h.103l.096-.046.09-.09.091-.055.095-.017.297.04.1-.014.048-.069-.002-.122.073-.044.017-.09-.162-.134.186-.041.617.102.264.111zm48.75-1.193.405.277.003.063-.083.19-.22.054.062.076.165.057.117-.048.428-.266.132-.056.08-.006.522.08.456.128.135.101.075.178-.12.384-.375.067-.177-.01-.189-.056-.305.135.253.102.769.023.233.217.067.167-.166.307-.436-.085-.384-.178-.788-.252-.189-.01-.126.044-.034.153.009.331-.21.172-.622-.076-.244-.25-.227-.398-.856-.47-.232-.093-.309-.282.124-.222.036-.13.164-.033.241-.1.136-.215.216.174.29.168.003-.158.136-.125.284.006.133-.026.187-.117.269-.06zm4.025.043-.02.07-.387-.005-.392-.104-.192-.136.04-.061.363-.057.343.128zm-1.044.191.722.065.528-.014.483.424.297.343.174.24.099.232.132.224-.012.032-.278-.15-.2-.306-.103-.12-.101-.054-.107-.113-.206-.292-.01-.082-.091-.076-.106-.032-.12.012-.042.029.017.201.094.224.521.49.348.278.069.093.046.255-.15.115.184.235-.006.046-.04.045-.497.104-.455.435-.497.255-.229.041-.11-.043-.104-.098-.062-.13-.017-.164.124-.102.246-.535.006-.176-.307-.244-.184-.2-.1-.278-.168-.735-.078-.235-.11-.196-.14-.157-.108-.172-.072-.188.029-.073.245.098.295.27zM99.637 74.2l.103.023.107-.169.076-.006.336.143.206-.032.133.176.119.017.11-.023.067.012-.023.186-.245.188-.115.048-.16-.049-.06-.017-.105-.083-.08-.105-.047-.002-.187.123.006.061.078.093-.012.057-.204.029-.2-.015-.244.08-.058-.05-.038-.14-.076.017-.115.173-.126.109-.23.09-.05.045-.168.006-.249.057-.153-.01-.917-.187-.216-.068.754-.43.397-.166.23.009.229.052.12-.01.01-.19-.214-.142.008-.059.473-.097.177.014.195.05.185.081zm-.196-.354-.084.017-.208-.087-.136-.092.09-.07.402-.148.193-.002.078.022.032.046-.015.068-.087.086zm-23.947-.262-.208.046-.221-.023-.174-.281.133-.01.28-.184.617-.15.152-.017zm46.438-3.524-.137.017.205-.187.274-.206.259-.129.335-.054-.037.094-.438.173zm-9.814-.702-.15.087-.56-.053.116-.17.43-.109.469.169zm.811.716-.313.041-.074-.084.165-.209.131-.118.098-.029.36-.235.4-.172.367-.25.373-.358.07-.134.172-.014.285.088.176.123-.082.098-.942.509-.08.066-.085.173-.078.06-.124.028-.09.076-.057.123-.116.065-.176.006-.122.034-.067.063zm-52.247-1.62.26.142.139.009.437-.043.16.03.156.06.096.094.017.162-.07.146.02.205-.015.09.232.116.073.157.037.17-.504.056-.504.01-.434.114-.09.085.07.126-.12.032-.11-.029-.21-.116-.231-.056-.808-.086-1.015-.338-.437-.07-.444-.248-.401-.315.262-.05.262-.026 1.18.047.148-.226.151-.056.375-.064.35-.125.157.003.16.048.333-.075.176-.017zm59.68.133-.091.07-.248-.026-.132-.044.443-.183.073.037zm-3.622-.32.063.078.546-.02.157.014.062.036-.073.054-.21.07-.617.121-.5.161-.065-.014-.091-.176-.093-.071-.056-.1v-.036l.092-.068.183-.1.13-.037zm-3.59-.002-.001.075-.09.072.086.131-.148.227-.057.144-.079.09-.079.035-.08-.02-.016-.05.046-.08-.187.004-.057-.198.103-.062.038-.085.011-.057.123-.251.043-.017.015.06.04.016.064-.025.098-.112.04-.014zm-12.388.252-.137.011.183-.14.127-.273.171.038.035.05-.283.28zm-58.841-.271.614.186.393-.02.313.156.129.126-.469-.09-.677.005-.917-.38-.328-.087.075-.213.351-.11.181.288zm70.455-1.048-.36.023-.164-.036-.023-.039.068-.143-.006-.06.182-.024.208.069.06.07zm-66.823-7.99.044.07.296-.012.416.03.46.067.455-.023.574-.213.343-.055.345-.03.372.052.364.113.14.066.112.116.074.141.11.1.682.125.435.05.105.068.093.094.36.07.377-.025.21.026.639.003.795.104-.129.275-.258.12-.729-.038-.726.039-.301.141-.251.18-.035.174-.146.08-.152.035-.124-.096-.164-.294-.116-.082-.127-.05-.355-.094-.36-.059-.211-.006-.152-.102-.084-.147-.145-.077-.285-.108-.293-.085-.912-.185-.3-.026-.304.02-.326.085-.316.125-.324.093-.335.02-.32-.055-.3-.122-.151-.086-.081-.15.003-.149.04-.144.163-.348.283-.068zm15.201-7.347-.11.017.006-.044.324-.115.597-.143-.023.031-.32.111zm28.784-13.104.287.02.466-.064.366-.105.755-.343.238-.19.178-.05.634.047.358.098.409.174-.15.169-.167.095.53.131.586.029.56.105.786-.216.616-.046.578.009.752-.118 1.272.16.324-.041.51.028.542.097.192.104-.58.219-.095.226.203.094.367.017.047.132.228.032 1.147-.01-.088.062-.056.076-.355.168 2.044.094.275-.093.423-.037.899-.129.338.057.398.13.368.03.344-.026.802-.188.926-.009.38.061.4-.025 1.206.214.444.026.594.28.307.008.347-.118.301.003.295.113.481.035.224.18.242.064 1.824.133.904-.06 1.316.017.635.085.666-.012 1.088.31.577.048.112.072 1.642.076.574-.162 1.002-.043.902-.136.511.001.595.034.229-.017.165-.06 1.45.235.81.268.356.197 1.697.283.491.158.337.174.196.02.14-.05.592.013.224.026v26.552l.68.117.674.115.206-.23.726.176.635.154.405-.198.439-.214.591-.014.663-.017.441-.011v.182l-.164.303-.137.253.403.257.496.135.464.126.207.35.508.269.386.205.37.196.529.282.37.196.494.263.294.156.14.303.17.364-.105.215.234.035.457-.241.43-.15.53-.185.359-.125.666-.006.318-.362v-.51l.337.01.199-.07.087-.148-.212-.205.638-.095.462-.069.659-.187.643-.184.307.142.304.138.596.33.04.08-.04.155-.058.155.362.434.104.05.298.06.355.143.157.125.515.199.087.082.048.134.084.115.096.082.093.117.223.138.424.155.294.106.411.15.417.306.363.267.412.263-.06.21.417.323.44.412.338.366.24.205.288.296.352.362.4.412.307.265.4.37.198.221-.134.151-.167.187.514.09.356.06-.089.208-.117.275.402.108.274.073-.057.144.15.163.026.269.49-.017.218-.01.293.12.386.157.388.148.33.126.434.074.535.107.263.22.489.093.181.307.564.113.332-.075.119.125.094.144.025.181-.031.177-.14.149-.107.159-.071.172-.026.184.017.197.057.172.173.319.057.195.01.13-.385.456-.132.218.011.098-.28.227-.513.318-.233.183-.115-.06-.664-.047-.241-.406-.128-.314-.194-.274.006-.062.176-.183.663-.15.006-.06-.246-.04-.06-.066-.067-.297.017-.26-.017-.172-.11-.353-.167-.216-.427-.42-.037-.107.189-.133.117-.124-.723.216-.988.227-.422.158-.09.064-.03.054.077.15-.011.047-.086.088-.102.25-.215.263-.109.054-.385-.099-.103-.085-.193-.345.045-.092.141-.077.191-.167.241-.257.46-.653h.3l.53-.13-.831-.065-.124-.034-.112-.089-.1-.144-.168-.16-.316-.056-.139-.059-.209-.194-.14-.087-.077-.108-.014-.129-.06-.065-.218-.023-.117-.044-.032-.331-.433-.085-.177-.073-.285-.207-.079-.1-.025-.085.07-.228-.03-.043-.252.023-1.569-.354.083-.468-.29-.617-.312-.25.062-.097.067-.052.14-.001.601.182.567.215.073-.032-.905-.456-.226-.137-.056-.164-.003-.088.071-.046.85.04.05-.033-.86-.134-.177.001-.188.192-.09.045-.184-.01-.062-.03-.22-.233-.207-.161-.388-.224-.073-.16-.02-.235.052-.222.317-.507.128-.088.033-.055-.097.01-.093.047-.262.236-.27.386-.22.132-.14-.032-.209-.157-.437-.192-.506-.05-.32-.196-.472-.547-.064-.272-.06-.066-.256-.09-.158-.13-.243-.664-.32-.461-.08-.244.028-.242-.041-.025-.11.188-.03.099-.202.028.19.19.048.096-.095-.009-.195.023.33.326.148.505.219.375.141.303.064.23.093.22.255.487.035.097-.03.08-.085.093-.145.035-.458-.064-.172-.12-.246-.22-.346-.103-.857.05-.068-.016.003-.18.098-.322-.079-.13-.442-.473.006-.092.615-.217-.3-.017-.24.085-.093-.055-.146-.302-.094-.113-.047-.026-.025.288.102.151.014.088-.017.122-.064.088-.113.052-.112.015-.208-.061-.23-.115-.202-.054-.075-.046-.095-.126-.156-.096-.752-.122-.449-.144-.037.038.14.154.014.09-.113.029-.202.146.06.02.213-.048.238.006.395.089.358.116.13.065.054.097.045.034.35.113.017.059-.226.176.466-.02.27.063.346.273.117.152.017.195-.071.056-.138.04-.945.063-.341.235-.07.003-.26-.064-.472-.187-.588-.178-1.34-.529-.037-.025-.022-.102-.093-.052-.181-.045-.253-.134-.323-.223-.2-.174-.076-.125-.187-.143-.607-.3-.318-.115-.28-.064-.244-.015-.065-.04.112-.065.017-.039-.538-.061-.511-.14-1.297-.394-.67-.247-.39-.118-.167-.066-.074-.054.094-.056.261-.06.178-.066.28-.25.02-.08-.15-.18-.068-.166.003-.091.034-.09.043-.06.119-.057.083-.03.102.02.33.227.046.083-.014.31.094.363.03-.026.03-.12.02-.229.037-.11.07-.107.12-.057.37.033.171-.02-.722-.164-.455-.308-.082-.032-.249-.014-.263.124-.677.406-.19.07-.851.225-.577.045-.649-.035-.553-.073-1.388-.355-.217-.082.323-.22.014-.068-.112-.224-.093-.063-.132-.036-.037.026v.066l.035.123-.106.065-.236.07-.398.07-1.232-.18-1.262-.15-1.128-.03-1.591.118-.85.12-.494.011-.477-.022-.039-.084.218-.049-.011-.06-.276-.189-.417-.114-.56-.04-.322-.055-.08-.07-.199-.067-.315-.064-.14-.113.111-.353.108-.211.108-.145.27-.24-.094.017-.394.176-.343.182-.318.237-.19.108-.243.1-.379-.022-.515-.148-.44-.076-.368-.006-.145-.026.25-.132.145-.106.197-.17.044-.083-1.346-.028-.05-.09-.002-.066-.043-.054-.195-.041-.273.031-.442.106-.192-.08.068-.046.145-.033.294-.154-.398-.08-.203-.09-.099-.075.006-.27.105-.174.892-.168-.283-.065-.563.022-.378.143-.449.206-.301.077-.154-.052-.204-.017-.253.017-.17.053-.087.09-.1.06-.115.031-.083-.009-.122-.092-.255-.056-.125-.07-.072.044-.087.132-.092.066-.431.069-.237-.015-.284-.165-.04-.058.096-.143.623-.568-.063.003-.201.09-.402.226-.18.068-.307.009-.144-.026-.174.02-.205.06-.133.067-.062.073.042.011.308-.082.175-.023.048.04-.24.256-.145.244-.14.062-.22-.011-.241.025-.003.069.45.195.163.029.209.07.031.069-.078.187-.059.074-.095.038-.367-.006-.119.02-.247.118-.123.097.045.01.213-.081.31-.044.408-.006.304-.042.2-.08.194.023.19.125.056.109-.077.094-.156.066-.236.04-.15.06-.062.08-.034.119-.01.157.06.284-.046.038-.088.02-.132.003-.119.067-.277.377-.097.041-.117-.04-.103.005-.09.05-.197.037-.305.026-.26-.012-.46-.082-.186-.057-.147-.094-.411.1-.11-.044-.256-.262-.055.015-.05.281-.078.099-.254.204-.139.352-.042.011-.047-.05-.156-.314-.083-.07-.23.182-.026.065.06.234-.053.036-.465-.126-.114-.006-.03.02.158.181-.017.065-.657.351-.172-.011-.108-.035-.118.006-.418.13-.116-.006-.158-.077-.073.003-.04.08-.005.158-.155.15-.498.241-.132.111-.1.152-.074.015-.292-.098-.339-.064-.047.032.103.093-.023.056-.146.023-.185-.009-.224-.038-.314.043-.405.123-.337-.003-.47-.202-.13-.014-.041-.057.092-.164.134-.124.098-.056.447-.16.51-.057.322-.096.39-.197.207-.147.406-.381-.031-.03-.091-.02-.892.361-.132.034-.178-.003-.713-.138-.15-.06-.104-.173.198-.395.14-.191.347-.295.456-.314.158-.203.236-.546-.014-.247-.107-.302-.003-.179.099-.057 1.045-.279.495-.209.96-.309.262.003.192.107.223.085.255.063.328-.006.401-.077.635.03 1.306.203.277.011.012-.025-.202-.143-.9-.082-.378-.083-1.066-.363-.242-.14.098-.066.26-.054.09-.052.038-.091.15-.125.262-.158.4-.153.758-.228-.296-.009-.545.042-.199.044-.364.163-.142.114-.203.224-.087.042-.378.033-1.03.022-.175-.114-.096-.017-.128.017-.946.292-.34.15-.242.17-.374.124-.506.079-.379.098-.398.195-.136.15-.009.07.096.223-.098.042-.23.017-.37.147-.779.437-.102.16.006.054.127.123-.088.08-.22.128-.488.201-.321.077-.208.003-.2-.029-.357-.13-.289-.008-.017.017.393.138.4.179.248.148.098.118.006.121-.09.125-.282.217-.277.064-.707.066-.228.052-.07.04.485.091.044.047-.067.182-.129.06-.405.108-.363.031-.055-.02.068-.142-.02-.036-.136-.029-.194.055-.482.21-.052.034.174.056-.037.047-.261.151-.109.1-.174.103-.779.314.06.076-.203.273-.112.24.137.102.654.119.317.028.374.084.676.223.225.146.034.069-.02.075-.08.101-.213.192-.51.284-.23.08-.35.064-.115.046-.448.27-.121.145.02.126-.086.09-.577.174.02.031.21.014-.078.154-.033.214-.1.036-.361-.001-.458.083-.033.022-.008.154-1.198.112-.263.292-.136.09-.47.212-.287.086-.329.052-.172.072-.017.092-.093.079-.285.131-.14.166-.1.026-.53.04-.106.053-.05.225-.099.01-.187-.052-.245.04-.55.253-.12.091.013.05.086.047.13.15-.008.102-.212.283-.075.044-.257.07-.105.157-.238-.017-.19.029-.126.104-.136.06-.147.017-.184.083-.223.15-.205.095-.19.041-.184.011-.178-.02-.161.017-.143.055-.14.087-.11.246-.142.11-.09.02-.181-.017-.275-.052-.28.017-.45.15-.143.114.284.026.14.033-.002.032-.148.031h-.253l-.151.026-.185.065-.463.07-.176.05-.349.286-.042.064.045.014.196-.03.23.047.12.06.077.074.073.143.044.02-.443.24-.126.103-.081.038-.053-.03-.055-.267-.033-.045-.105-.01-.1.085-.222.317-.242.16-1.816.409-.266.093-.052.174-.074.152-.12.12-.142.076-.03-.054.014-.425-.037-.085-.183-.054-.08.01-.112.023-.181.092-.112.023-.138-.01-.237.09-.562.291-.368.072-.097.061-.157.16-.104.057-.154.01-.203-.048-.164.034-.124.116-.126.046-.357-.086-.158.058-.204.15-.214.098-.223.048-.579.05-.233-.032-.047-.043.011-.191.094-.137.086-.065.116-.057.168-.01.316.043-.036-.046-.114-.055-.291-.094-.288-.048-.165.03-.232.073-.158.083-.083.095-.104.31-.06.084-.679.546-.265.169-.263-.011-.128.064-.18.136-.165.065-.151-.01-.119-.026-.083-.046.014-.043.113-.04-.04-.109-.195-.179-.133-.097-.25-.01-.04.081.085.416-.015.094-.157.12-.413.132-.129-.014-.371-.261-.352-.052-.022.085.078.173-.088.162-.254.151-.193.073-.133-.01-.008-.105.118-.207.03-.173-.058-.138.006-.106.07-.074.467-.204.196-.031.106.05.131.01.157-.032.1-.066.04-.098.202-.125.361-.153.414-.281.466-.411.545-.354.627-.298.68-.236 1.367-.324.105.02-.125.105.086.066.134.01.501-.052.2-.068.058.066-.07.083-.3.084.008.07.437.327.138.05.114-.01.049-.043-.037-.236.148-.045.303-.01.197.03.092.073.173.06.255.048.158-.014.06-.077-.108-.092-.487-.201-.135-.084-.033-.118.07-.15.152-.222.237-.295.214-.207.434-.233.292-.116.742-.354 1.425-.36.353-.232.479-.255.205-.063v.099l.066.088.32.059.208.02.096-.017.026-.094-.043-.17-.012-.16.023-.151.047-.12.213-.212.318-.24.434-.281.274-.128.258-.067.25-.122.43-.29.137-.046.308-.057.113.026.067.072.08.045.314.04.208-.063-.034-.034-.169-.023-.108-.042-.102-.173-.208-.104-.047-.118.038-.182.178-.43.03-.442.158-.253.319-.091.707-.063-.414-.114-.154-.001-.269-.054-.102-.275.002-.2.178-.233.659-.391.722-.271-.098-.023-.09-.08.334-.543.324-.485-.438.413-.508.316-1.487.367-1.011.307-.48.074-.317-.078-.248-.295-.14-.105-.182-.192.076-.25.144-.173.316-.029.355.084.309.009-.398-.17-.574-.15-.26.049-.2.242-.265.165-.234-.058-.14-.068.097.202-.176.309-.067.213.253.564-.047.225-.46.103-.375-.185-.782-.714-.273-.203-.613-.336-.202.048-.258.165-.25.046-.66-.244-.307-.186-.29-.226-.446.124-.388.148-.456.237-.304-.002-.828.203-.088.003-.117.11-.114.048-.094.21-1.12.164-1.105-.091.386-.116.433-.091.375-.22-.16-.292-.028-.15.006-.188.41-.265h-.427l-.273.095-.257-.199-.12-.391.293-.232.136-.178.115-.245.009-.21-.227-.357-.652-.755-.296-.563-.508-.3.38-.49.422-.448.546-.2-.044-.03-.301.001-.198.026-.176.145-.185.111-.578.57-.372.277-.243.08.39.107.06.09.074.207-.1.25-.099.138-.46-.011-.412.201-.97.22-1.309.125-.643-.015-.67-.255.006-.148.028-.13-.962-.44-.545-.438-.39-.01-.341-.116-.402-.182.036-.147.063-.103-.247-.072-.316.006-.367-.05.96-.565.33-.378.268-.054.349.059.48.149.407.065.146.07.15.132-.158.222-.145.155.178-.042.505-.24.376-.213.18.023.117.037.208.219.26.222.571-.212.306-.264-.258-.115-.315-.069-.805-.09.196-.075.517.01.194-.073-.204-.1-.256-.09-.698.298-1.269-.014-.887-.174-.885.03-.14-.034-.172-.094.499-.221.353-.123.02-.07-.205-.01-.386.06-.172-.103.028-.177-.063.017-.153.097-.216-.048-.184-.08.096-.085.19-.116-.084-.017-.17.025-.167.153.036.124-.003.177-.283.033-.242-.023-.175-.178-.181-.383-.49-.102-.12-.193.31-.248-.138-.128-.329-.042-.377.126-.166-.112-.031-.122-.014-.176.105-.017.087.035.755-.097.073-.048-.6-.148-.167-.155.249-.089.447-.009.628-.092-.264-.165-.055-.09-.054-.15.105-.251.737-.578.719-.481.224-.112.329-.06.306.046.32.104.06-.045-.108-.042-.137-.197.444-.077.26-.223.02-.064-.282.092-.295.153-.074-.153-.076-.352.13-.333.101-.149.246-.141.708-.057.125.028.025-.066-.426-.21.176-.163.154-.085.856-.132.467.041.587.154.34.193-.049.098-.084.057-.177.064-.066.05.032.04.251-.115.412-.14.23.06.183.11.202-.001.64-.095.326-.1.397-.26.529-.168.743-.53.219-.218.254-.033.23.02.16.178.233.052 1.33-.043.68-.082.472-.173.492-.291.284-.196.137-.254-.176-.33-.18-.273-.238-.625-.66-.413-.47-.123-.299.017.216-.263.63.029.41-.052.33-.126.11-.096.163-.196-.056-.21-.088-.113-.229-.125-.272-.183-.19-.06-.16.002-.794.367-.476.006-.356-.068-.31.21-.863.183-.46.185-.856.46-.214.208-.272.01-.197-.405-.93-.385-.281.131.155.121.21.086.348.038-.15.116-.113.156-.349-.146-.622-.212-.644-.109-1.678.012-1.102.217-.1-.045-.107-.017-.184.052-.078.088-.12.056-.225.02-.453-.033-.875-.135-1.978-.199-.517-.122-.444-.29.008-.198.197-.083-.02-.283-.385-.075-.784-.407-.288-.173.063-.02.14.047.268.035.658-.056.225-.263.488-.075.45.037-.101-.072-.115-.056-1.17-.134-.159.042-2.097-.238-1.657-.414-.135-.079-.152-.177.224-.174.224-.082.011.096.036.094.95-.219.496-.287.94-.05.219-.08.291-.154.417-.263.59-.138.401-.125.523-.073.446.122.138.017.81.026.266-.053.113-.04.085-.062-.795-.222.08-.123.102-.087.928-.258.713-.085.381.006 1.107-.333.607-.095 1.142-.063.939-.017.254.119-.504-.026-.222.023.158.04.178.087-.052.11-.31.324.026.26-.202.084-.195.118.961.374 1.488.023.809-.067.468.111.383.026 1.058-.057.797.08.333-.031.737-.56.288-.087.313.097.409.08.26-.058.214.144-.1-.3-.145-.113-1.204-.207-.806.103-.252-.116.084-.23-.862-.569-.36-.115-.425-.006-.216-.197-.181-.254.366-.103.332-.047.306.081.347.333.323.05-.094.33.401.307.905.284.724-.105.512.003.305.06.749.255.38.032 1.19-.134.011-.25-.1-.182-.279-.113-.803.022-.626-.187-.532.052-.984.286-.493-.113-.31-.153-.5-.156-.062-.294.418-.337.31-.16-.277-.118-.697-.082-1.21.084-.057-.115.006-.123-.494.242-.506-.05-.682.025-1.506-.214-.536-.264-.224-.214-.406-.586-.518-.367-3.58-1.246-1.63-.314-.784-.346-.492-.085-.47-.035-.6-.112.403-.138.279-.046-.29.143.22.036.35-.083.19-.099.276-.42.287-.636-.077-.25 1.987.05 1.321-.042.438-.057 1.668-.096.432-.07.802-.215.943-.379.81-.498.129-.134.051.035.073-.02.087-.189.106-.444.402-.418 1.708-.954.793-.378.265-.172.276-.125.194.119.093.036.053.056-.162.025-.266.122-.37.082-.09.042.217-.01.651-.088.367-.108 1.825-.2.99-.329.039-.073 1.468-.411.203.017.234.05-.407.27.286.072-.254.324.533.006.119.15.03-.129-.006-.185.042-.181.078-.125.374.057.842-.135-1.02-.017-.613-.294-.34-.002 1.138-.432 1.04-.26.236.006.113.048.026.079-.225.051-.22.093.101.081.15.012.5-.067.224-.084 1.066.009.313-.06.075-.06 1.38-.01.253-.043.862-.23.798-.28.368-.152.63-.389.54-.252.889-.252.213.031-.288.05-.2.107.275.142 1.871.293.47.017.188.175-.156.17-.482.187-.972.192.297.073z" class="polygon" transform="translate(.25 -36.905)" id="path2" />
  </g>
</svg>
