<?xml version="1.0" encoding="UTF-8" standalone="no"?>
<svg viewBox="-180.25 1.15 12.751 21.461" version="1.2" width="12.751" height="21.461" id="svg6" sodipodi:docname="albania.svg" xmlns:inkscape="http://www.inkscape.org/namespaces/inkscape" xmlns:sodipodi="http://sodipodi.sourceforge.net/DTD/sodipodi-0.dtd" xmlns="http://www.w3.org/2000/svg" xmlns:svg="http://www.w3.org/2000/svg">
  <defs id="defs10" />
  <sodipodi:namedview id="namedview8" pagecolor="#ffffff" bordercolor="#666666" borderopacity="1.0" objecttolerance="10.0" gridtolerance="10.0" guidetolerance="10.0" inkscape:pageshadow="2" inkscape:pageopacity="0.0" inkscape:pagecheckerboard="0" />
  <g style="display:inline" id="g4">
    <path class="polygon" d="m135.327 114.804.276.158.576.691.383.609.754.211.42.237.541.36.262.364.367 1.109.042.67-.106.306-.092.08-.335 1.09.08.556-.003.366-.284.145-.189.23.307.909-.035.387.014.444.552 1.014.326.313.292.15.372.933.22.162.906-.089.443.104.176.22.042.152-.056.522.225.403.302.414v.253l-.203.414-.363.483-.48.185-.528.157-.252.375-.13.399-.236.296-.146.324-.224.662-.049.24-.358.244-.555.099-.497.02-.337.113-.17.226-.316.183-.191.081v.2l.231.422.262.342.005.274-.129.076-.405-.034-.086.1-.042.306-.109.262-.166.16-.29.174-.53-.057-.5-.262-.26-.081-.15.009-.041-.642-.216-.498-.79-1.2-2.572-1.164-.605-.525-.266-.44-.265-.415.254-.012.251.105.322.126.131-.207-.139-.455-.662-1.062-.05-.292.326-.889.54-.998-.034-1.21.168-.911-.187-.593-.09-.726.397-.966.339-.239.21-.305.013-1.03-.765-.48-.88-.09.02-.349.11-.552-.064-.184.063-.315-.214-.422-.351-.303.338-.537.494-.648.459-.514.555-.536.37-.515.4-.442.342-.135.17.094.091.193-.02.572.116.198.237.145.5-.071.555-.143.747-.302z" style="opacity:1;fill:#f158d9;fill-opacity:1;fill-rule:evenodd;stroke:#505050;stroke-width:.5;stroke-linecap:round;stroke-linejoin:round;stroke-miterlimit:4;stroke-dasharray:none;stroke-opacity:1" transform="translate(-309.854 -112.698)" id="path2" />
  </g>
</svg>
