<?xml version="1.0" encoding="UTF-8" standalone="no"?>
<svg viewBox="-180.25 1.15 53.854 18.709" version="1.2" width="53.854" height="18.709" id="svg6" sodipodi:docname="austria.svg" xmlns:inkscape="http://www.inkscape.org/namespaces/inkscape" xmlns:sodipodi="http://sodipodi.sourceforge.net/DTD/sodipodi-0.dtd" xmlns="http://www.w3.org/2000/svg" xmlns:svg="http://www.w3.org/2000/svg">
  <defs id="defs10" />
  <sodipodi:namedview id="namedview8" pagecolor="#ffffff" bordercolor="#666666" borderopacity="1.0" objecttolerance="10.0" gridtolerance="10.0" guidetolerance="10.0" inkscape:pageshadow="2" inkscape:pageopacity="0.0" inkscape:pagecheckerboard="0" />
  <g style="display:inline" id="g4">
    <path class="polygon" d="m113.546 72.443-.028.072-.035.263-.272.332-.293.435.02.381.752 1.322.666.804.127.306.43.235-.409.296-.079.44-.264.195-.07.25.11.229-.002.285.147.394-.652.085-.775-.014-.278.024-.26.107-.268-.053-.7-.37-.396-.08-.28.022-.209.16-.36.206-.338.145.075.127 1.453.332.258.51-.28.416-.094.203-.34.16-.419.141-.503.035-.056.225.198.66-.16.142-.161.206.15.542.311.039.07.124-.056.22-.056.233-.11.248-.056.11-.206.069-.645-.037-.555.212-1.116.76-.391.13-.423.304.028.669-.056.06-.102.137-1.335-.236-.049.004-.893.087-.611.306-.743.175-1.556-.093-1.514.119-.359.089-.393.051-.368.178-.211.251-.377.319-.536.25-.582.19-.139.163-.191.092-.324-.12-.263.006-.322-.083-1.069-.09-1.174-.147-.56-.142-.635-.112-.683-.092-.611-.021-.308-.042-1.47-.248-.969-.016-1.28-.103-2.542-.372-.74-.151-.708-.047-.836-.129-.637-.21-.407-.4-.435-.533-.797-.696-.163-.346.244-.304.25-.23-.028-.098-.194-.05-1.4.297-1.356.376-.535.01-.517-.084-.685-.006-.66.1-1.322.052-.773.277-.493.54-.269.434-.223.14-.46.053-.69-.041-.483-.126-.494-.372-.766-.051-.703-.01-.186-.069.014-.241-.278-.455-.459-.142-1.187.856-.324.076-.956-.237-.834-.366-.092-.268-.135-.22-.702-.208-.876-.142h-.277l.108-.129.103-.219-.063-.175-.205-.18-.113-.194-.035-.187-.063-.153-.035-.144-.063-.112.571-.848.118-.526-.5-.31-.214-.09.175-.07.711.058.452-.174.236-.173.632.162.927.329.437.222.18.172.102.144-.056.246.21.096.437.037.29.076-.102.324-.02.269.402-.038.506-.205.394-.368.244-.357.185-.868.063-.074.304.069 1.231-.038.58.162.92.027-.014.136.164.212.407.307.2.2.429.035.658-.11.386-.115.145.081.602-.079.533-.247.133-.189.538-.132.728-.306 1-.236 3.283-.252.127-.19-.05-.437.088-.065.413.11.664.1.508.155.33.202.307.008.473-.141.642-.091.598.21.174.226-.105.116.014.184.186.154.486.25.625.215.324-.017.12-.21.115-.497.042-.532-.143-.305-.336-.075-.402-.024-.214-.063.074-.167.322-.434-.005-.58-.725-.66-.63-.638.003-.217.377-.377.583-.3 1.292-.5.408-.103.524-.084.753-.206.363-.21.244-.23.353-1.193.083-.05.104-.07 1.32.41.119-.067.222-.067.43-.316.094-.24-.007-.453.042-.427.083-.136.199.05.568.222.45.25.423.63.985.167 1.244.016.445-.28.403-.066.456.086.962.099.107-.51.555-.527.251-.187.705.018.174-.394.173-1.094.15-.12.513.023.51.2.154.161.265-.013.372-.11.407-.071.644.116 1.376.497.71.182.45-.035.42.007 1.625.767 1.135.108 1.035.003.333-.232.442-.196.46.027.401.1.782.335.363.085.48.054.354.074.312.58z" style="opacity:1;fill:#50cfe1;fill-opacity:1;fill-rule:evenodd;stroke:#505050;stroke-width:.5;stroke-linecap:round;stroke-linejoin:round;stroke-miterlimit:4;stroke-dasharray:none;stroke-opacity:1" transform="translate(-241.558 -68.227)" id="path2" />
  </g>
</svg>
