<?xml version="1.0" encoding="UTF-8" standalone="no"?>
<svg viewBox="-180.25 1.15 67.247 34.666" version="1.2" width="67.247" height="34.666" id="svg6" sodipodi:docname="belarus.svg" xmlns:inkscape="http://www.inkscape.org/namespaces/inkscape" xmlns:sodipodi="http://sodipodi.sourceforge.net/DTD/sodipodi-0.dtd" xmlns="http://www.w3.org/2000/svg" xmlns:svg="http://www.w3.org/2000/svg">
  <defs id="defs10" />
  <sodipodi:namedview id="namedview8" pagecolor="#ffffff" bordercolor="#666666" borderopacity="1.0" objecttolerance="10.0" gridtolerance="10.0" guidetolerance="10.0" inkscape:pageshadow="2" inkscape:pageopacity="0.0" inkscape:pagecheckerboard="0" />
  <g style="display:inline" id="g4">
    <path class="polygon" d="m191.916 19.635.955.609.224.023.53-.239.105-.016 1.098-.02.51.21.378.415.35.33.377.09 1.07-.417.59-.137.39.004 1.368.372.644.204.148.186.014.218-.174.324-.137.353.417.416.484.282 1.035-.466.382-.13.417-.005.558-.173.404-.26.388-.09.74.061 1.336-.062 1.559.41.133.125.78.48.272.238.257.076.416.233.553.147.387-.045.184.078.172.185.014.312-.056.896-.272.259-.285.21-.073.164.028.198.441.387.57.6.132.35v.26l-.776.769-.259.18-.177.378-.095.385.056.159 1.298.611.96.332.216.162.02.101-.51.657-.049.177.77.272.425.43.375.699.732.67 1.573.593 1.145.387.238.177.083.21-.088.46-.296.56-.201.311.466.13 1.2-.034 1.457.11 1.748.617.006.278-.18.252.12.266.19.226 1.513.692.145.2.028.337-.042.246-.419.051-.465.116-.76.295-.302.418-1.23.575-.76.26-.606.013-1.44-.118-.506-.284-.21-.261-.555-.118-.736-.01-1.016.044-.207.078-.166.321-.432.547-.308.31.254.188.405.394.629.501.647.445.207.274-.007.194-.308.229.05.46.628.608-.213.096-.063.745.005.796.17.192.338.159.285.29.476.664.035.174-1.328-.05-1.594.02-.896.385-.347-.089-.624-.098-.69.216-.945.651-.633.406-.616.567-.194.309-.39.567-.356.649.194.454.291.421.063.454.146.357-.39.26-.226.373-.665-.065-.813-.359-.17-.518-.627-.362-.411-.186-.68-.03-1.084.168-1.42.13-1.07.035-.584.183-.862.18-.334-.213-.479-.588-.393-.585-.27-.256-.236-.072-.289.015-.334.185-.247.19-.351.067-.546.154-.394.209-.434.539-.287-.039-.298-.124-.34-.602-.47-.139-.752-.008-.93-.127-.755-.183-.276.044-.45.256-.486.037-1.065-.228-.209.105-.279.338-.333.326-.29.032-.162-.084.091-.577-.619-.205-1.043-.031-.732.084-.36-.023-.184-.114-.897-.969-.475-.062-.849.048-1.256-.117-1.445-.218-.795-.08-.413-.218-.891-.074-2.393-.41-.977-.072-1.438-.006-2.191-.09-1.404.05-.65.135-.752.085-1.269.075-.516-.008-.813.045-.933.109-.268.204-.306.446-1.072.77-1.04.513-.19.045-.608-.273-.508-.092-.594-.03-.422.088-.267.129.035.595-.056.053-.459-.707.035-.64.256-.365.31-.328-.128-.493.306-.653.007-.471-.134-.205-.247-.234-.678-.261-.3-.204-.918-.273-.911-.34-.154-.207.042-.143.16-.216.695-.633.753-.615.48-.248 2.557-.788.395-.276.1-.467.005-.339-.049-.603-.156-.858-.195-.592-.49-1.112-1.332-2.298-.8-2.384.521.14 1.223.053.972-.164.503-.023.449.05.668-.093.611-.038.317.213.57.19 1.124-.273.995-.336 1.033.037.147-.165.255-.846.307-.183 1.236.085.457-.153.476-.415.73-.26.608.001.634-.29.311.194.152.349-.21.279.091.11.439.137.753-.004.48-.115.112-.16-.001-.29-.118-.27-.32-.232-.599-.12-.416-.004-.071-.148.141-.317.37-.583.453-.528.277-.2.049-.182-.056-.32-.007-.572.409-.808.549-.602.736-.195.9-.106.575-.287.284-.33.108-.278.136-.24.287-.107 2.166.066.331-.518.186-.145.416-.153.29-.184-.11-.142-.552-.092-1.301-.08-.264-.172.083-.206.348-.533.332-.689.17-.533.02-.314.187-.085 1.062-.1.354-.107.914-.726.696-.123 1.797.186.826-.014.224.016.823.033.089-.073.37-.717.363-.21 1.415-.941.95-.4.6-.088z" style="opacity:1;fill:#1758ec;fill-opacity:1;fill-rule:evenodd;stroke:#505050;stroke-width:.5;stroke-linecap:round;stroke-linejoin:round;stroke-miterlimit:4;stroke-dasharray:none;stroke-opacity:1" transform="translate(-337.115 -18.212)" id="path2" />
  </g>
</svg>
