<?xml version="1.0" encoding="UTF-8" standalone="no"?>
<svg viewBox="-180.25 1.15 27.378 14.362" version="1.2" width="27.378" height="14.362" id="svg6" sodipodi:docname="belgium.svg" xmlns:inkscape="http://www.inkscape.org/namespaces/inkscape" xmlns:sodipodi="http://sodipodi.sourceforge.net/DTD/sodipodi-0.dtd" xmlns="http://www.w3.org/2000/svg" xmlns:svg="http://www.w3.org/2000/svg">
  <defs id="defs10" />
  <sodipodi:namedview id="namedview8" pagecolor="#ffffff" bordercolor="#666666" borderopacity="1.0" objecttolerance="10.0" gridtolerance="10.0" guidetolerance="10.0" inkscape:pageshadow="2" inkscape:pageopacity="0.0" inkscape:pagecheckerboard="0" />
  <g style="display:inline" id="g4">
    <path style="opacity:1;fill:#1e6ddf;fill-opacity:1;fill-rule:evenodd;stroke:#505050;stroke-width:.5;stroke-linecap:round;stroke-linejoin:round;stroke-miterlimit:4;stroke-dasharray:none;stroke-opacity:1" d="m28.603 52.605.035.145.19.062.672-.031.34-.264.269-.166.2.112.097.324.186.422.8.473.677.135.832-.093.33-.085.223.07.221.25.48.287 1.004.203.309.114.215.192-.063.275-.48.684-.063.202.063.067-.094.127-.623.459-.056.16.208.264.17.219.007-.044.955-.197.431.396.71.015.084.127.795.371.245.294.57.284-.472.36.071.16.17.163.644.095.322.237.02.36.146.589-1.325.584-.377.653-.035.129-.042-.02-.147-.215-.24.002-.55-.09-.765.59-.347.49-.205.361-.308.291-.063.308.042.13-.105.166-.005.176.441.346.11.187.537.611-.167.224-.132.241-.155.172-.18.109-.555-.006-.703.077-.474.12-.246.001-.509-.305-.568-.458-.361-.218-.162-.188-.446-.08-.637-.225-.441-.246-.38-.152-.534-.077-.44.008-.13-.412-.056-.472-.36-.316.493-1.234-.294-.12-.32.098-.464.294-.22.351-.133.311-.778.296-1.234.107-1.349-.107-.187-.08-.086-.09-.001-.108.094-.168.235-.202.056-.29-.241-.25-.158-.097.063-.242.179-.304.035-.173-.914-.524-.66-.102-.642-.018-.486-.059-.284.024-.204.153-.206.11-.155-.132-.284-.927-.22-.14-.829-.155-1.125-.055-.3-.17-.165-.417-.103-.502-.37-.482-.19-.12-.336-.214-.588.088-.706.279-.418.077-.158.03-.563-.273-.632-.425-.506-.452-.123-.25.156-.305-.187-.233-.272-.427-.078-.333 3.047-1.178 1.855-.604.875-.182.21.606.16.192.207.126.276.024.316-.15.442-.158.71.074.518.146.184.151.341.144.5.035.965-.276.928-.42.272-.292.103-.264.548.175.485.038.212-.077-.135-.424.394-.225.437-.105.197.183.4.187h.317l.851-.485.2.096.185.173z" class="polygon" transform="translate(-192.565 -50.797)" id="path2" />
  </g>
</svg>
