<?xml version="1.0" encoding="UTF-8" standalone="no"?>
<svg viewBox="-180.25 1.15 27.42 19.518" version="1.2" width="27.42" height="19.518" id="svg6" sodipodi:docname="bosnia_herzegovina.svg" xmlns:inkscape="http://www.inkscape.org/namespaces/inkscape" xmlns:sodipodi="http://sodipodi.sourceforge.net/DTD/sodipodi-0.dtd" xmlns="http://www.w3.org/2000/svg" xmlns:svg="http://www.w3.org/2000/svg">
  <defs id="defs10" />
  <sodipodi:namedview id="namedview8" pagecolor="#ffffff" bordercolor="#666666" borderopacity="1.0" objecttolerance="10.0" gridtolerance="10.0" guidetolerance="10.0" inkscape:pageshadow="2" inkscape:pageopacity="0.0" inkscape:pagecheckerboard="0" />
  <g style="display:inline" id="g4">
    <path style="opacity:1;fill:#e4c35b;fill-opacity:1;fill-rule:evenodd;stroke:#505050;stroke-width:.5;stroke-linecap:round;stroke-linejoin:round;stroke-miterlimit:4;stroke-dasharray:none;stroke-opacity:1" d="m113.314 95.699 1.447.733.597.11.336-.101.458.046 1.015.215.234.09.306-.015.75-.287.256.036.859.562.431.006.52-.242.333-.21.987.157.565-.095.47-.01.508.096.464.13.45.113 1.22.059.585.357.233.344.006.21.056.227.337.221.734.127.46-.028.246-.015.626-.198.736-.102.532.117.251.116.056.157-.157.545-.298.587-.48.61-.503.576-.133.305-.035.485-.063.382.07.208.164.194.558.154.751.383.64.5.818.566.256.21v.227l-.24.168-.7.063-.73-.05-.279-.057-.26.069-.161.129.085.152.748.69.869.988.049.425-.106.334-.2.232-.363-.039-.275-.18-.417.011-.324.052-.422.357-.21-.014-.36.053-.23.07-.362-.103-.379-.069-.164.11-.073.21.235.38.44.595-.07.455-.336.049-.308-.379-.274-.06-.312.013-.713.44-.525.368-.121.258-.189.282-.056.204.014.678-.946.109-.198.1-.114.206.078.87.077.468.54.722.021.228-.076.15-.385.287-.183.103-.123.033-.629-.189-.298-.089-1.26-.638-.556-.355-.88-.463-.543-.263-.275-.4-.432-.093-.51.128-.576-.288.408-.15.101-.142-.049-.186-.18-.253-1.558-1.093-.764-.747-.125-.268-.007-.713-.18-.171-1.145-.325-1.279-.927-1.318-.908-.18-.254-.681-.687-.83-.626-.661-.399-.542-.454-.6-.635-.311-.958-.277-.852-.187-.33-.381-.117-1.183-1.01-1.004-.587.007-.634.165-1.058.186-1.2.243-.167.458-.09.525.034.455.148.903.822.516.319.436.124.502-.346.62-.726.54-.383 1.821.139z" class="polygon" transform="translate(-285.046 -94.298)" id="path2" />
  </g>
</svg>
