<?xml version="1.0" encoding="UTF-8" standalone="no"?>
<svg viewBox="-180.25 1.15 44.194 21.461" version="1.2" width="44.194" height="21.461" id="svg6" sodipodi:docname="bulgaria.svg" xmlns:inkscape="http://www.inkscape.org/namespaces/inkscape" xmlns:sodipodi="http://sodipodi.sourceforge.net/DTD/sodipodi-0.dtd" xmlns="http://www.w3.org/2000/svg" xmlns:svg="http://www.w3.org/2000/svg">
  <defs id="defs10" />
  <sodipodi:namedview id="namedview8" pagecolor="#ffffff" bordercolor="#666666" borderopacity="1.0" objecttolerance="10.0" gridtolerance="10.0" guidetolerance="10.0" inkscape:pageshadow="2" inkscape:pageopacity="0.0" inkscape:pagecheckerboard="0" />
  <g style="display:inline" id="g4">
    <path class="polygon" d="m194.99 106.439-.164 1.686-.675.784-1.02-.262-1.302.218-.69.892-.39.264-.353.31-.227 1.159-.056 1.897-.494.231-.453.07-1.882 1.67 1.083.47.48.357.793.994 1.13 1.124.221.548-.947-.123-.33.037-.213.174-.44-.035h-.543l-.57.2-.315.084-.42-.182-.784-.547-.476-.382-.354-.096-.357.113-1.271.13-.301.222-.588.245-.591.117-.848.083-.448-.011-.249.118-.21.359-.143.35-.125.142-1.058.174-.231.201-.063.197.02.197-.841-.19-.653.126-.153.15-.137.217.077.232.24.223.226.607.081.607-.139.344-.483.245-1.001.272-.969-.13-.427.108-.717.034-.66.072-1.016.248-.916.146-.824-.506-.979-.344-1.027-.205-.357.15-.155.117-.859-.447-.385-.16-.187-.172-.358-.596-.213-.02-.708.223-.681-.01-.414-.041-1.22.025-.162.407-.15.063-.266.055-.648-.026-.83.3-.89.184-.695.005-.718-.089-.429.064-.925.033-.587.44-.913-.025-.767-.075.096-.139.152-1.746.38-.78-.014-.16-.081-.121-.337-.126-.244-.42-.506-1.11-.285-.224-.797-.234-.697-.32-.591-.421-1.08-1.043.546-.104.165-.212.545-.573.063-.281-.056-.16-.365-.275-.251-.6.19-.563.014-.29-.185-.285.192-.356.392-.195.247-.057 1.037-.039.656-.713.398-.227.409-.404.189-.148.18-.315.063-.321-.821-.45-.279-.34-.365-.374-.495-.258-.996-.444-.389-.45-.175-.584-.264-.443-.29-.288-.057-.234-.12-.289-.029-.565.235-.752.153-.265.337-.075.9-.4.041-.514.162-.318.286-.183.263-.123.491.298 1.192.475.581.346-.028.215-.273.212-.518.208-.302.275-.083.342.079.242.36.21 2.138-.275 2.17.142 2.914.468 1.931.162 1.427-.216 2.644.392 2.46.364 2.362.109 1.323-.287.93-.385.8-.726 1.978-.957 1.914-.537 2.51-.436 1.674-.148.236.149 2.133.879.95.003.768.156.279.232.195.058 1.02-.217.452.481.708.674 1.204.346 1.072.197.338.03z" style="opacity:1;fill:#46eb59;fill-opacity:1;fill-rule:evenodd;stroke:#505050;stroke-width:.5;stroke-linecap:round;stroke-linejoin:round;stroke-miterlimit:4;stroke-dasharray:none;stroke-opacity:1" transform="translate(-331.297 -101.568)" id="path2" />
  </g>
</svg>
