<?xml version="1.0" encoding="UTF-8" standalone="no"?>
<svg viewBox="-180.25 1.15 41.695 29.211" version="1.2" width="41.695" height="29.211" id="svg6" sodipodi:docname="croatia.svg" xmlns:inkscape="http://www.inkscape.org/namespaces/inkscape" xmlns:sodipodi="http://sodipodi.sourceforge.net/DTD/sodipodi-0.dtd" xmlns="http://www.w3.org/2000/svg" xmlns:svg="http://www.w3.org/2000/svg">
  <defs id="defs10" />
  <sodipodi:namedview id="namedview8" pagecolor="#ffffff" bordercolor="#666666" borderopacity="1.0" objecttolerance="10.0" gridtolerance="10.0" guidetolerance="10.0" inkscape:pageshadow="2" inkscape:pageopacity="0.0" inkscape:pagecheckerboard="0" />
  <g style="display:inline" id="g4">
    <path class="polygon" d="m118.149 113.251.955.481-2.801-.63.318-.058.297-.013zm-6.7-1.592 1.294.195.949-.09.858.12.533.222.13.11-.693.014-.783-.09-.888.226-.782-.12-.298-.148-.21-.183zm3.984-.206 3.526 1.227-.392-.325.509-.129.431.093.276.4.543.264.88.463.555.354 1.26.639.3.089.628.188.014.258.27.293.285.337-1.29-.665-1.207-.743-2.358-1.143-1.672-.279-2.287-.919-1.49-.325.568-.075zm-.18-.699-.49.073-3.115-.054-.905-.146-1.008-.374-.206-.115 1.015-.108.942.108.289.272 2.547.217zm-2.862-1.014-1.105.018-.96-.127-.47-.217.035-.183.145-.306 1.069.037 1.63.217.398.253-.124.117zm-9.897-4.922.46.52-.44-.107-.46-.322-.27-.35zm-.983-.62.11.247-.874-.464-.331-.311-.063-.139zm-.296.98.1.103-.007.07-.363-.099-.098.032-1.712-1.528-.184-.297.613.355zm-.002-2.894-.181.186-.453-.342-.416-.244-.297-.29-.583-.36-.197-.412-.87-.84-.13-.229.433.34.362.214.299.052.758.536.746.69.889.598-.185.018zm-2.5-2.962.177.309-.658-.279-.59-.106-.126-.21.085-.172.127-.166.446.023.07.164zm-2.403.692-.056.272-.425-.344-.215-.615-.536-.995-.07-.28.278-.277-.014-.28-.38-.873.319-.142.188-.017.076.605.173.348.515.427-.104.708.105 1.007.104.223zm2.256-2.219-.863.15-.411-.268-.107-.22-.709-.07-.43-.307-.087-.136.607-.337.326-.546.412.327.498.616.266.172zM112.13 87.72l.864.54.48.599.65.465.817.328.649.446.48.564.67.315.859.069.545.193.228.317.467.288.705.258 1.097.141 2.101.034.187.007.474.08.553-.1.674-.202.217-.12.71-.66.39.057.779-.08.47-.146h.036l-.028.168-.05.295-.38.209.388.48.369.78-.206.384.25.3.71.215.063.086-.217.09-.18.254-.02.464.618.438 1.258.413.402.07.154.158.21.103.125.127.007.164-.09.113-.596.04-.68-.003-.483-.2-.042.145-.007.167-.467.101.26 1.144-.104.33-.173.11-.16-.046-.197-.013-.098.108.08.244-.46.028-.734-.127-.336-.221-.056-.227-.005-.21-.233-.345-.584-.356-1.22-.06-.451-.112-.465-.13-.508-.096-.47.01-.565.095-.986-.157-.334.21-.52.242-.431-.006-.859-.562-.256-.036-.75.286-.306.016-.235-.09-1.015-.215-.458-.047-.336.102-.597-.11-1.448-.734-.894.558-1.822-.139-.54.383-.619.726-.502.346-.436-.124-.516-.32-.903-.82-.455-.15-.525-.033-.457.09-.244.167-.186 1.2-.165 1.058-.007.634 1.004.587 1.183 1.01.38.117.188.33.278.853.31.958.601.634.542.454.661.4.83.625.68.687.18.254 1.32.908 1.278.928 1.145.324.18.171.007.714.125.267.764.747 1.558 1.093.18.253.049.186-.101.142-.408.15-.335-.167-1.452-1.069-1.403-.673-1.584-1.27-2.12-.5-1.444-.556-.875.085-.965.174-.596.005-.424-.1-.3-.344.041-.266-.056-.347-.846-.556-1.155-.527-1.093-.683-2.195-1.843-.44-.592.431-.113.327.01.37-.121.598-.003.71.12-.629-.394-.78-.386-2.02-1.536-.602-.726-.07-.782.149-1.071-.364-.768-1.558-.993-.57-.524-1.151-.31-.514.03-.309.386-.225.86-1.02 1.135-.34.493-.534.64-.462.045-.273-.057-.828-1.079-.792-.817-.11-.386-.072-.476-.603-1.753.425-.246.261.281 1.844.34.399-.151.241-.23.001-.145.158-.043.65.222.53-.052.852-.01.608.036.402-.17.544-.626.202-.35.244-.084.161.042.118.288.286.27.589.441.416.212.378.076.37-.177.383-.05 1.09.343.922.066.682-.18-.09-.246-.247-.275-.056-.267.042-.23.467-.23-.02-.101-.566-.405.028-.104 1.239-.455 1.195-.255.19-.197.112-.296.056-.555-.063-.453-.485-.425-.028-.216.115-.223.188-.202.478-.087.561-.146.443-.167.6-.138.472-.194.46-.462.28-.076.847.065.181-.113-.116-.663.152-.169.3-.094.14-.093.744.071.62.172.376.104z" style="opacity:1;fill:#ab44db;fill-opacity:1;fill-rule:nonzero;stroke:#505050;stroke-width:.5;stroke-linecap:round;stroke-linejoin:round;stroke-miterlimit:4;stroke-dasharray:none;stroke-opacity:1" transform="translate(-269.51 -85.493)" id="path2" />
  </g>
</svg>
