<?xml version="1.0" encoding="UTF-8" standalone="no"?>
<svg viewBox="-180.25 1.15 12.745 4.792" version="1.2" width="12.745" height="4.792" id="svg6" sodipodi:docname="cyprus.svg" xmlns:inkscape="http://www.inkscape.org/namespaces/inkscape" xmlns:sodipodi="http://sodipodi.sourceforge.net/DTD/sodipodi-0.dtd" xmlns="http://www.w3.org/2000/svg" xmlns:svg="http://www.w3.org/2000/svg">
  <defs id="defs10" />
  <sodipodi:namedview id="namedview8" pagecolor="#ffffff" bordercolor="#666666" borderopacity="1.0" objecttolerance="10.0" gridtolerance="10.0" guidetolerance="10.0" inkscape:pageshadow="2" inkscape:pageopacity="0.0" inkscape:pagecheckerboard="0" />
  <g style="display:inline" id="g4">
    <path style="opacity:1;fill:#f150a3;fill-opacity:1;fill-rule:evenodd;stroke:#505050;stroke-width:.5;stroke-linecap:round;stroke-linejoin:round;stroke-miterlimit:4;stroke-dasharray:none;stroke-opacity:1" d="m223.883 166.437.049.18.447.207.597.185.35.01.466-.2.64-.208.795-.188.401.113.54.023.408-.063.283.152.222.277.056.675.083.032.35-.268.621.111.426.035.353-.137.218-.016.247-.06.278-.132.24-.185.259.057.437.201.271-.059.134.138.186.4-.795.118-.799.04-.444-.051-.418.023-1.294 1.144-.697.39-.828.231-.844.138-.424.018-.372.145-.262.265-.007.259-.112.212-.463-.044-.192-.417-.33-.18-.82.094-.4-.011-1.311-.399-.396-.162-.247-.34-.676-1.227-.113-.907.629.232.589-.282.567-.46.674-.188z" class="polygon" transform="translate(-400.996 -164.957)" id="path2" />
  </g>
</svg>
