<?xml version="1.0" encoding="UTF-8" standalone="no"?>
<svg viewBox="-180.25 1.15 47.693 17.731" version="1.2" width="47.693" height="17.731" id="svg6" sodipodi:docname="czechia.svg" xmlns:inkscape="http://www.inkscape.org/namespaces/inkscape" xmlns:sodipodi="http://sodipodi.sourceforge.net/DTD/sodipodi-0.dtd" xmlns="http://www.w3.org/2000/svg" xmlns:svg="http://www.w3.org/2000/svg">
  <defs id="defs10" />
  <sodipodi:namedview id="namedview8" pagecolor="#ffffff" bordercolor="#666666" borderopacity="1.0" objecttolerance="10.0" gridtolerance="10.0" guidetolerance="10.0" inkscape:pageshadow="2" inkscape:pageopacity="0.0" inkscape:pagecheckerboard="0" />
  <g style="display:inline" id="g4">
    <path class="polygon" d="m98.546 56.622.604-.017.61-.176.05-.285-.036-.533.063-.077.926.15.928.241.13.529.249.26.292.238.282.109.485.017 1.26.314.606.065.62.217.524.222.382.047.177.243.234.167.414-.128 1.51-.18.545.24.367.253.05.081-.193.224-.092.173-.157.115-.52.122-.292.199-.213.216.143.208.424.155.3.035.115.152.96.678.763.885.298.139.28.033.322-.13.374-.287.442-.208.374-.107.66-.245.029-.16-.55-.598-.32-.485.076-.088.705.077 1.199.264 1.843.865h.33l.645-.065.701-.141.333-.16.125.059.108.475-.184.26-.84.253.05.126.215.161.378.11.459.308.316.351.276.163.305.077.763-.187.216-.149.096-.105.149.024.267.172.08.102.743.196.427.241.273.114.302-.11 1.175.191.323.162.103.267-.056.163.18.42 1.487 1.009.157.515.02.205-.176.012-.4.106-.515.039-.558-.021-.434.187-.41.305-.42.212-.23.189-.127.193-1.428.552-.198.23-.159.314-.07.423-.1.38-.246.2-.771.171-.192.093-.144.193-.433.298-.507.283-.931.324-1 .099-1.3-.106-.759-.127-.37.14-.506.422-.546.727-.225.546-.174-.154-.312-.58-.353-.074-.481-.054-.363-.086-.782-.333-.402-.1-.459-.028-.442.196-.333.232-1.035-.003-1.135-.108-1.624-.767-.422-.007-.45.035-.71-.182-1.375-.497-.644-.116-.407.07-.372.11-.265.014-.154-.161-.51-.2-.514-.023-.149.12-.173 1.094-.174.394-.705-.018-.25.187-.556.528-.107.508-.962-.098-.456-.086-.404.065-.444.28-1.244-.016-.985-.167-.422-.63-.451-.249-.569-.223-.198-.05-.314-.343-.595-.425-.961-.58-.749.028-.276-.154-.123-.214-.312-.368-.352-.257-.426-.1-.611-.326-.818-.713-.75-.492-.722.008-.459-.258-.467-.338-.343-.327-.535-.796-.388-.454-.303-.28-.342-.234-.124-.185.418-.424.152-.21.18-.16.104-.17-.003-.13-.38-.417-.514-.302-.754-.306-.48-.386-.177-.354-.05-.194-.33-.264-.267-.386.001-.232.063-.064h.25l.279.158.394.304.324.444.198-.17.37-.472.658-.536.675-.305.606-.026.496-.085.413-.152.72.06.52.11.17-.068.211-.279.135-.24 1.154-.14.395-.465.223.002.255-.069.245-.176.235-.072.187.087.245.058.254-.11.378-.532.212-.083 1.012-.083 1.38-.313.7-.28.686-.15.737-.27 1.171-.262.056-.108-.543-.27-.183-.17-.122-.174.19-.194.256-.058.334.08.98.116.269.111.098.273.249.254.2.028-.072.414.312.16.456.126.302-.025.217-.168z" style="opacity:1;fill:#b2e635;fill-opacity:1;fill-rule:evenodd;stroke:#505050;stroke-width:.5;stroke-linecap:round;stroke-linejoin:round;stroke-miterlimit:4;stroke-dasharray:none;stroke-opacity:1" transform="translate(-259.517 -53.969)" id="path2" />
  </g>
</svg>
