<?xml version="1.0" encoding="UTF-8" standalone="no"?>
<svg viewBox="-180.25 1.15 49.603 22.255" version="1.2" width="49.603" height="22.255" id="svg6" sodipodi:docname="denmark.svg" xmlns:inkscape="http://www.inkscape.org/namespaces/inkscape" xmlns:sodipodi="http://sodipodi.sourceforge.net/DTD/sodipodi-0.dtd" xmlns="http://www.w3.org/2000/svg" xmlns:svg="http://www.w3.org/2000/svg">
  <defs id="defs10" />
  <sodipodi:namedview id="namedview8" pagecolor="#ffffff" bordercolor="#666666" borderopacity="1.0" objecttolerance="10.0" gridtolerance="10.0" guidetolerance="10.0" inkscape:pageshadow="2" inkscape:pageopacity="0.0" inkscape:pagecheckerboard="0" />
  <g style="display:inline" id="g4">
    <path class="polygon" d="m74.416 28.393 1.239.435.838-.025.57.18.136.278.049.618-.599.18-.66-.061-.9.235-2.953-1.01.042-.842.118-.33 1.4-.079zm-6.139.31-.47.072-.537-.153-.875-.574-.11-.152.46.097.57.3.467.064.639.254zm14.454-.828-.267.104-1.075-.077-1.211.486-.46-.154.174-.31.127-.113.407-.131.272-.193.107-.3.252.162.75.067.366.096.306.142zm-17.416.555-.729.098-.372-.17-.684-.065-.246-1.078.071-.063.344.075 1.179.503.412.55zm4.71.95-.31.04-.422-.567-.056-.178.496-.363.32-.41.83-.632.478-.74.183.012-.212.659-1.09 1.837zm30.475-1.898-.258.118-1.157-.196-1.41-.485.207-.95.362-.411 2.571 1.065.028.402zm-31.098-4.116.292.366.36.779.567.87-.237.366.16.467-.161.487-1.13.567-1.267.026-1.318-.274-1.86-.527-.15-.296-.261-.164-.498-.898.014-1.108.935-.139 2.043-.529.473.084.493.27.567.016.824-.383zm14.144.093-.658.298-.145-.015-.214-.409.347-.248.205-.211.145.006.2.228zm-14.408-1.305-.12.125-.443-.13-.05-.453.169-.407-.198-.364.218-.234.625.545.177.256-.24.306zm13.73-.014.014.7-.182.204-.268.135-.7.142-.605.2-.54.349-.199.5.422.365.769.2.195.697-.634.343-1.628.343-.17.828.055.652-.028.474-.13.656-1.316.299-.85-1-.006-.4-.254-.466-.049-.398-.3-.637-1.246-.172-.483-.022-.677.118-.167-.046-.81-.87.134-.958-.432-.484-.056-.22.014-.242-.355-.2-.43-.106-.21-.54.495-.13 1.224.062.357-.037.328-.112.99-.888-.028-.195.106-.254 1.07-.094.478.343-.096.549.063.703.65.192.252.028.27-.52.19-.252.257-.141.087-.475-.153-.29-.324-.216 1.212-.588 1.255-.465.73-.025.735.114.684.157.37.136.208.217-.458.518-.127.284zM72.25 11.867l-.284.164-.964-.232.425-.324 1.058-.15.622.05-.684.322zm-4.306.562-.689 1.057-.297.155-.063 1.233.07.295-.098 1.122.706.46.747.24 2.49-.008.258.203.304.347-.222.59-.266.444-.721.375-.926.279-.576.012-.784-.53-.372.172-.385.27-.645 1.453-.305.982-.165.08-.365-.145-.63-.011-.795.232.408.208.432.362-.173.181-.7.196-.62.396-.26.3-.783.355-.492.45.241.557.103.49.215.54-.194.432-.969.62-.358.536.83-.007.513.124.3.159.308.225-.19.278.242.72h-.104l-.447-.062-.317-.148-.82.105-1.097.24-.61-.013-.483-.256-1.98-.366-.32-.03-1.306-.015h-.003l-.063-.578-.162-.418-.457-.62.679-.15-.131-1.21-.247-.628-1.894-.645-1.492-.626.344-2.11.147-.568-.566-1.103.056-1.27.239-1.999.474-.078.348.01 1.342.359.559.035.383.32.448.133.325-.34.127-.583 1.063-.753.746-.278.508-.133.512.303.393.342.093-.747.316-1.424-1.01-.223-.824.193-.817.902-.729 1.134-1.182.104-.943.32-.852-.332-.549-.293-.014-.43.125-.259 1-.924 1.341-.888 1.35.008.986-.284.589-.034 1.837.063.943-.195.845-.407 1.826-1.722 1.03-.717 2.078-.253 1.92-.828.536-.01-.903.617-.145.239-.109.366.648.796-.137.484.05.953z" style="opacity:1;fill:#4edd61;fill-opacity:1;fill-rule:nonzero;stroke:#505050;stroke-width:.5;stroke-linecap:round;stroke-linejoin:round;stroke-miterlimit:4;stroke-dasharray:none;stroke-opacity:1" transform="translate(-231.74 -7.078)" id="path2" />
  </g>
</svg>
