<?xml version="1.0" encoding="UTF-8" standalone="no"?>
<svg viewBox="-180.25 1.15 44.58 15.295" version="1.2" width="44.58" height="15.295" id="svg6" sodipodi:docname="estonia.svg" xmlns:inkscape="http://www.inkscape.org/namespaces/inkscape" xmlns:sodipodi="http://sodipodi.sourceforge.net/DTD/sodipodi-0.dtd" xmlns="http://www.w3.org/2000/svg" xmlns:svg="http://www.w3.org/2000/svg">
  <defs id="defs10" />
  <sodipodi:namedview id="namedview8" pagecolor="#ffffff" bordercolor="#666666" borderopacity="1.0" objecttolerance="10.0" gridtolerance="10.0" guidetolerance="10.0" inkscape:pageshadow="2" inkscape:pageopacity="0.0" inkscape:pagecheckerboard="0" />
  <g style="display:inline" id="g4">
    <path class="polygon" d="m153.215 2.286.497.17.458-.054.464-.118 1.009.11 2.3.856.213.229-1.373.104-.311.262-.33.184-.39.058-.663.369-.897.352-.187.212-1.623-.04-.887.134-.717.395-.294.763-.524.595-.534.215-.555.033-.133-.224.05-.223 1.171-.841.244-.273-.583-.121-.49-.292-1.066-.343-.193-.275.255-.02.234-.08.284-.23.133-.265-.852-.774.434-.12.542.029.557.225.61-.264.26-.04.426.095.43-.51 1.025-.169.508-.157zm5.083.497-.582.072-1.378-.497.319-.337.395-.133 1.171.207.165.511zM155.359.847l-.574.346-.341-.138-.18-.166-.74.782-.835.134-.487-.154.042-.293-.475-.767-.725-.224-1.019-.021-.74-.316 2.845-.215.294-.365.578-.383.436-.041.37.088.07.297.092.119 1.29.167.503.5.19.6zm18.099-5.685.745.08 1.246-.05 4.67.566h1.15l1.588.575.859.148h2.528l3.897.255.765-.39.074-.1.373.217.47.35.127.201-.159.118-.469.1-.106.109-.208.182-.547.033-.284.136-.336.595-.644.984-.95.75-.761.41-.34.315-.213.379-.049.379.73 2.085-.007.376-.171.386-.125.394.102.341.48.583.512.869.205.555.34.204.328.15.07.093-.014.098-.17.11-1.474.291-.191.247-.16.275-.644.407-.197.38-.123.435-.014.155-.178.019-.976-.09-1.076-.283-.472-.213-.463.002-.56.14-2.01.405-.494-.095-1.148-.396-.581-.432-1.293-.86-.106-.204-.169-.164-1.381-.212-.51-.317-.425-.044-.622-.159-1.619-.676-.401-.063-.098.114.028.16-.101.092-.207-.003-.375-.249-.45-.219-1.397.412-.506.111-.443.025-2.219.541-.674.292-.28-.03.07-.275.923-1.373.165-1.09.338-.15.098-.15-.145-.348-.958-.223-.387.033-.348.374-.361.269-.846.164-.727-.284-1.704-.38-.43-.504-.102-.509-.9-.491-.375-.58.15-.403.817-.265.233-.231-1.03.036-.21-.055-.042-.208-.455-.708.403-.279.178-.27-.332-.232.087-.262.258-.265-.158-.617 1.022-.327.994-.23 2.106-.117-.208-.563.852-.025 1.435-.677 1.423.119 2.057-.465 3.964.006.54-.268-.094-.27z" style="opacity:1;fill:#f2a74b;fill-opacity:1;fill-rule:nonzero;stroke:#505050;stroke-width:.5;stroke-linecap:round;stroke-linejoin:round;stroke-miterlimit:4;stroke-dasharray:none;stroke-opacity:1" transform="translate(-327.87 6.238)" id="path2" />
  </g>
</svg>
