<?xml version="1.0" encoding="UTF-8" standalone="no"?>
<svg viewBox="-180.25 1.15 76.886 72.241" version="1.2" width="76.886" height="72.241" id="svg6" sodipodi:docname="finland.svg" xmlns:inkscape="http://www.inkscape.org/namespaces/inkscape" xmlns:sodipodi="http://sodipodi.sourceforge.net/DTD/sodipodi-0.dtd" xmlns="http://www.w3.org/2000/svg" xmlns:svg="http://www.w3.org/2000/svg">
  <defs id="defs10" />
  <sodipodi:namedview id="namedview8" pagecolor="#ffffff" bordercolor="#666666" borderopacity="1.0" objecttolerance="10.0" gridtolerance="10.0" guidetolerance="10.0" inkscape:pageshadow="2" inkscape:pageopacity="0.0" inkscape:pagecheckerboard="0" />
  <g style="display:inline" id="g4">
    <path class="polygon" d="m146.278-8.12-.614.07-.382-.203.145-.15.428-.168.463.023.099.197zm1.434-.229-.7.241-.267-.057.07-.406.417-.186.7-.02zm2.394-1.611.886.162.373-.058.424.368-.719.233-.049.29.284.18.1.261h-.716l-.342-.22-.15-.278-.332-.197-.444-.15.217-.2.124-.287zm-1.266.238-.51.031-.72-.347-.09-.135.281-.079-.187-.279.056-.123.558.22.304.257-.297.06.504.265zm-3.804-1.35-.098.326-.475-.037-.483.06-.39-.324-.209-.545.072-.118.304-.123.232.299zm-1.632-18.982.075.13.41-.035.553-.238.392.111-.042.34-.266-.013-.074-.056-.34.194-.064.117-.394.075-.73-.332-.457-.547h1.067l-.102.13zm25.414-12.248-1.046.233-.842-.146-.014-.45.522-.218.944-.087 1.292.218.189.116-.74.087zm22.393-34.864 1.553.701.998.341 2.72.639 2.389.42 1.343 1.39-.662.553-.33.19-1.168.552-1.25.777-.096.405.415.41.517.27-.468.086-1.447.34-.883.23-1.064.168.276.223 1.768.047.272.064.196.115.035.183-.18.297-1.909 1.637-.063.345.626.959.875 1.13 2.645.503 1.966.393 1.263.93 2.081 1.225 1.103.458.063.142-.328.846-1.334.847-1.248.715-1.292.86-1.01.734-1.095.88-.126.285-.021.269.188.298 1.401 1.076.546.549.652.594.56.647.325.58.561.565.349.289.58.405.699.602.232.476 1.056 1.655.107.422-.05.312-.463.077-1.025.05-1.11.205-.057.068.725.39-.64.668-.092.955-.684.502-.063.116.028.098.12.076 1.267.134.109.136.005.282-.113.26-.635.193-.684.285-.15.263.02.235.233.397.45.462.57.29 2.028.275.262.227.11.311-.041.305-.942.608.007.234.387.567.463.54 1.978.586.681.321.181.256.1.412-.014.447-.156.397-.62.512-1.435 1.009-1.443.392-.089.085.448.323 2.542 1.295 1.657.606 2.237.818 1.442.646.466.465.625.517.702.422.507.367.19.236-.013.253-.677.765-.385.591-.677.867-.692.605-1.757 1.104-2.591 1.373-.601.415-1.213.724-2.075 1.452-.538.32-1.701 1.16-.776.368-.609.344-1.685 1.095-1.81.832-1.778.772-.533.391-.663.299-.792.284-.334.159-1.788 1.057-2.48 1.468-.252.023-.646.237-1.01.058-.439.181-1.543-.516-.256-.034-.908.128-.871.376-1.608.115-.798.121-.51.174-.104-.411.22-.52.354-.348.035-.226-.26.023-.514.51-.276.595-.55.299-1.212.122-1.18-.478-.561.005.352.343.238.375-.028.211-.63-.037-.7.225-.615.33h-.298l-.413-.46-.757.215-.648.289-1.315.09-.784.38-1.388.256-.762-.006-1.738.309-.577.475-.507.175-.721-.147-2.222.232-2.124.305-.903-.018-.904-.126-.958.423-1.017.566-1.121.202-.402-.072.322-.297.741-.308.51-.416.07-.347-.35-.137-.479-.042-.602-.359-.577-.778-.312-.043-.159.205-.177.597-.18.171-.305.137-.367.138-.358.067-1.285-.008-.168-.301v-.127l.227-.396-.199-.07.19-.31.303.016.36-.046.18-.16-.015-.191-.499-.05-.028-.13.445-.544.063-.15-.172-.031-.279.059-1.838-.17-2.267-.696-.558-.036-.343-.621-.547.078-.797.364-.598-.276-.643-.182-.178-.284.007-.419-.056-.494-.176-.579-.128-.822.12-.642.512-.475.197-.304.241-.775.056-.907-.136-.31.035-.205h.409l-.089-.176-.18-.096-.199-.201.17-.106.49-.008.041-.068.056-.096-.379-.527-.042-.251-.525-.763-.6-.723-.902-.523.32-.86.365-.779-.073-.375-.14-.456-1.104-.5-.164-.706-.27-.757.101-.464.18-.355.364-.354 1.832-1.116.112-.583 1.242-.042-.576-.521-.135-.293-.028-.341 1.786-.234.668.192 1.572-.237 1.396-.464-.028-.247-.215-.22-.296-.426.21-.118.51.087-.234-.211.042-.223.555.092.907-.621.035-.475 1.568-.249 1.807-.97.834-.301.806-.218 1.717-.969.735-.045.378-.652 1.459-.869.444-.111.682-.783 1.793-.905 1.136-1.154.627-.41.194-.436.698-.037.63-.321 1.362-.224 1.344.062.56.152.517-.048-.049-.392-.368-.243.301-.233.711-.176-.072-.39-.155-.234-.59-.312.294-.7.07-.767.28-.885-.743-.47-2.817-.798-.526.028-.625-.1-.654-.605.292-.522.035-.193-.255.006-.413.255-.898.29-1.168-.223-.574.05-.745-1.292-.38-.493-.612-.616-1.09-.3-.214-.17-.145-.26-.05-.362-.137-.535.056-.439.133-.261.47-.176.681-.495.142-.36.056-.552.313-.482.348-.244-.087-.194-.24-.277-.508-.393-.772-.48-.572-.459-.25-.429-.13-.383.021-.349.215-.237.73-.299.098-.126-.29-.66-.51-.12-.865-.064-.483-.005-.093-.072-.02-.133.097-.27.274-.31.228-.198.028-.168-.288-.573-.087-.703.099-.55.917-.406.042-.148-1.152-.44-.832-.5-.258-.292-.952-.044-.593-.846-.857-.413-.85-.356-.501-.166-2.942-.51-1.17-.098-1.383-.299-1.03-.374-.884-.241-.756-.297-1.054-.278-.302-.238-1.138-.44-.535-.29-1.854-.546-.07-.216-.014-.208-.083-.086-1.91-.4.375-.228 1.494-.014 1.235.208.272-.089.163-.184-.526-.74.094-.194.543-.232.862-.185 1.36-.026.928.027.196.02 1.386.814 1.188.794.631.338 1.545.958.578.555.196.397.628-.002 2.173.175 1.824.146.51.223 1.257-.045.97-.2 1.711-.254.459-.312.57-.333 1.003.053 1.097.263 1.246.345 1.109.16 1.489.251.694.325.973.092 1.019-.324.6-.88.535-.392.756-.288.866-.127.66-.046.5-.224.712-.497.139-.602-.137-1.087.13-.358.582-.587.779-1.555.35-.448.426-.273.586-.162 1.064-.47 1.52-.932.413-.079 1.092-.047 1.358.034 1.221.164.132-.012.546-.086.997-.29 1.705-.574 1.094-.159.994.023z" style="opacity:1;fill:#b93edb;fill-opacity:1;fill-rule:nonzero;stroke:#505050;stroke-width:.5;stroke-linecap:round;stroke-linejoin:round;stroke-miterlimit:4;stroke-dasharray:none;stroke-opacity:1" transform="translate(-319.245 79.218)" id="path2" />
  </g>
</svg>
