<?xml version="1.0" encoding="UTF-8" standalone="no"?>
<svg viewBox="-180.25 1.15 100.736 68.49" version="1.2" width="100.736" height="68.49" id="svg6" sodipodi:docname="france.svg" xmlns:inkscape="http://www.inkscape.org/namespaces/inkscape" xmlns:sodipodi="http://sodipodi.sourceforge.net/DTD/sodipodi-0.dtd" xmlns="http://www.w3.org/2000/svg" xmlns:svg="http://www.w3.org/2000/svg">
  <defs id="defs10" />
  <sodipodi:namedview id="namedview8" pagecolor="#ffffff" bordercolor="#666666" borderopacity="1.0" objecttolerance="10.0" gridtolerance="10.0" guidetolerance="10.0" inkscape:pageshadow="2" inkscape:pageopacity="0.0" inkscape:pagecheckerboard="0" />
  <g style="display:inline" id="g4">
    <path class="polygon" d="m61.253 112.997-.184 1.027.133.302.253.21.118.23.212 2.742-.042.218-.856 1.102-.193.323-.042 1.365-.144.367-.303.362-.542 1.17-.471.525-1.282-.641-.756-.278-.37-.299-.243-.206.156-.275.345-.286.056-.225-.811-.255-.371-.17.005-.298.28-.465-.128-.383-.468.02-.362-.06-.05-.199.269-.255.344-.333-.014-.367-.416-.158-.377-.299-.151-.405.292-.278.473-.179-.347-.416-.235-.009-.187-.09.153-.194.368-.288.511-.863.712-.407 1.261-.262.34-.114.314-.303.346-.196.422.026.388.117.24.125.18-.13.175-.376-.108-.33.056-.908.226-.515.365-.029.336.283-.014.251.124.593zm-74.61-21.69-.247.612-.467-.564-.619-.494-.141-.457v-.122l.726.334zM14.205 57.38l.563.273.159-.03.417-.077.706-.279.588-.088.337.214.19.12.37.482.103.502.165.418.3.169 1.125.055.83.155.22.14.283.928.155.13.206-.109.205-.152.283-.025.487.059.64.018.662.102.913.524-.035.173-.179.304-.063.242.158.098.241.25-.056.289-.235.203-.094.167v.109l.087.09.187.079 1.349.107 1.234-.107.778-.295.133-.311.22-.352.464-.294.32-.098.294.12-.494 1.235.36.315.057.472.13.413.44-.008.535.076.379.153.441.245.637.226.446.08.162.188.361.218.568.457.509.305h.245l.474-.121.703-.077.555.006.236.233.545.107.193.085.214.16.364.065.439-.064.32-.214.428-.096.428.032.246.117.47.174.265-.038.53.107.534.338.224.339.056.186.23.201.895.912.286.045.31-.138.202-.197.292-.039.47.09.302.104.145.395.102.075.203-.085.362-.02.577.098.795-.111.635-.165.325.006.524.46.598.173 1.318.14 1.414.216.556.175.38.086.035.61-.115.092-1.408 1.224-.594.437-.302.625-.208.957-.417.91-.624.863-.226.647.17.432-.107.679-.383.924-.063.698.252.472.352.096-.845.318-.193.278-.331.367-.539.155-.541.05-.439-.048-.25-.147.014-.136-.232-.117-.578.003-.596.253-.476.413.148.231.438.061.116.092v.118l-.155.144-.186.244-.92.728-.927.734-.149.222-.294.156-1.18.392-.124.157-.07.655-.133.538-.875.507-.87.504-.217.308-.16.357-.273.402-.056.213.441.347-.049.286-.14.408-.419.29-.462.163.014.444.246.063.56-.033.79-.322.514-.415-.304-.393-.035-.077.074-.092.61-.428.75-.258 1.045-.047 1.259.15.126.065-.063.262.117.386.229.272-.313.77.235.241.366.29.275.263.395.242.351.408.12.232-.561.401-.955.377-.107.241.014.275.107.216.527.277.567.63.359.56.787.537.19.16-.048.134-.207.229-.27.763-.321.122-.359.049-.972.56-.434-.069-.616.007-.452.185.05.348.395.32.233.346.095.362.44.267.618.16.354.011.23.096.14.124.265.775-.159.194-.333.082-.199.319-.396.47-.226.377.25.332.106.245-.133.253.178.394.47.39 1.274.548 1.184.447.366.074 1.6-.287.264.024.195.342.085.23-.18.347-.433.477-.469.38-.284.324.056.294.021.39-.381.117-.014-.077-.158-.066-.136.04-.104.084-.014.15-.813.25-.561.259-2.217 1.545-1.037.454-.204.273-.212.51-.609.438-.533.209-1.321.214-1.326.464-.597-.2-1.548.022-.965-.56-1.855-.355-.604-.815-.845-.053-.554.025-.331-.124-.086-.278-.007-.267-.587.123h-.449l-.267.107-.211.124-.25-.079-.145.027.014.157-.538.04-.584-.097-1.533-.421-.235-.065-1.064-.162-.43-.168-.347-.416-.266-.132-.158-.078-.993.21-.344.327-.538.383-3.681 1.879-.672.787-.778 1.16-.063.54.335 1.73.749.907.095.21-.415.001-.697-.113-.578-.14-.55.078-.53.188-.464.113-.333.032-.223.108-.106.216-.021.152-.586-.037-1.355-.312-1.218-.214-.715.244-.459.228-.323-.035-.246-.24-.165-.235-.477-.216-1.076-.323.056-.156.184-.218-.005-.134-.207-.2-.992-.214-.467-.054-.298.147-.214.18-.552-.663-.394-.135-.595-.022-.68-.202-.708-.259-1.719-.413-.473-.05-.19.066-.127.247-.07.699-.072.077-.798.023-.983-.097-.451.048-.402.002-.378-.185-1.698.212-.282-.104-.41-.315-.457-.255-.355-.13-.303-.15-.275-.025-.42.145-.578.062-.481-.019-.256.021-1.077-.774-.157-.212-.536-.058-.662-.01-1.692-.5-.77-.27-.112-.16.007-.13-.132.028-.237.23-.125.186-.164.035-.243-.03-.225-.104-.137-.136.147-.237.258-.309.107-.336-.02-.3-.428-.194-.628-.08-.46-.024-.6-.171-.283-.124-.277-.335-.007-.244 1.139-.215 1.026-.88.972-3.195.703-3.777.523-.714.657-.196-.53-.52-.333.263-.14.28-.174.139.393-3.464.28-1.268.477-1.328.975.527.808.535.418.464.528 1.547.4.324.599.326-.237-.356-.412-.272-.644-2.06-.404-.584-.629-.492-2.025-1.034-.182-.2-.098-.395.67.017.577.192-.07-.22-.171-.232-.269-.838-.224-1.956.028-.335-.1-.41-.648-.093-.518-.017-.557-.162-2.759-1.153-.944-1.19-.966-.878-.231-.384.014-.388.5-.82-.442-.518-.43-.102-.375-.257.34-.427.281-.273.565-.074.741.09.703.247.552.066-1.63-.663-2.644.224-.57-.086-.48-.148-.189-.486.376-.22.34-.405-.384-.285-.5-.108-.783.006-.73.086-.186-.164.446-.452-.379-.166-.505.078-.733.093-.7-.141-.663-.514-.439.004-.302.063-.447-.197-.471-.05-.337.066-.447-.295-2.752-.59-1.188-.073-1.09.268-.6-.093-.441-.382-.37-.64-1.756-.495.347-.324.818-.076.942-.225.338-.288-.736-.336-.543-.082-.225-.12-.23-.302.326-.138.23.073.662.043 1.133-.074-.422-.304-.439-.068-.201-.076-.922-.033-.42.104-.942-.04-.204-.328-.098-.281.292-.628 1.327-.56 3.306-.613 1.422.09.986-.111 1.182-.386.521-.331 1.68-.195 1.598.35 1.473 1.328.703.45 1.723-.78 2.568.023.53.44.214-.371.472-.434.376.198.19.268 2.71-.076.428-.078-.728-.316-.595-.755-.123-2.778-.75-.776-.862-1.238-.396-.735-.035-.254.132-.367 1.06.02.818.093 1.557-.277.75.19-.042.573.229.723.26.35.395.4 1.256-.038 1.355.234 1.713.037 2.502.404 1.066-.234 1.031-.5 1.965-.327.157-.174-1.131.07-1.038-.317-.14-.343.12-.309.422-.71 3.006-1.12 2.156-.33 2.25-.616 1.131-.632.748-.816.241-.18.31-.15-.288-.292.195-3.117.21-.562.44-.459.667-.354 1.014-.385 3.733-.531.554-.214.078.333.271.427.187.233-.155.304.122.251.507.452z" style="opacity:1;fill:#dc8d4b;fill-opacity:1;fill-rule:nonzero;stroke:#505050;stroke-width:.5;stroke-linecap:round;stroke-linejoin:round;stroke-miterlimit:4;stroke-dasharray:none;stroke-opacity:1" transform="translate(-141.549 -53.55)" id="path2" />
  </g>
</svg>
