<?xml version="1.0" encoding="UTF-8" standalone="no"?>
<svg viewBox="-180.25 1.15 64.616 54.958" version="1.2" width="64.616" height="54.958" id="svg6" sodipodi:docname="germany.svg" xmlns:inkscape="http://www.inkscape.org/namespaces/inkscape" xmlns:sodipodi="http://sodipodi.sourceforge.net/DTD/sodipodi-0.dtd" xmlns="http://www.w3.org/2000/svg" xmlns:svg="http://www.w3.org/2000/svg">
  <defs id="defs10" />
  <sodipodi:namedview id="namedview8" pagecolor="#ffffff" bordercolor="#666666" borderopacity="1.0" objecttolerance="10.0" gridtolerance="10.0" guidetolerance="10.0" inkscape:pageshadow="2" inkscape:pageopacity="0.0" inkscape:pagecheckerboard="0" />
  <g style="display:inline" id="g4">
    <path class="polygon" d="m94.27 35.202.108.338-.29-.025-.867.079-.858-.112-.165-.42.136-.403-.344-.278-.317-.163-.05-.233.05-.24 1.477.648 1.208.59zm-20.408-3.493-1.074.014-.41-.28-.414-.07.222-.346.29-.125 1.041.224.327.44zm16.985.247.175.471-.189.24-.786-.4-.79.006-.473.615-.352.026-1.22-.559-.195-.272-.042-.227.174-.784-.035-.247.384-.27.056-.39.678-.41.601-.016.191.348.288.24 1.014.269.151.122.092.168-.472.331-.16.17.15.271zm-35.85-2.31-.272.172-.666-.02-.374-.162.121-.172.354-.131.292-.02.445.08zm4.67-.667.61.012 1.096-.24.82-.104.318.147.447.062h.102l.042.128 1.025.186.43.297.48.45.048.648-.612.467-.509.295 1.924-.111.19.267.292.289 1.036-.206 2.598.855 1.57-.416.403-.025.357.69-.391.696-1.385.742.307.458.442.101 1.306-.097 2.067.452.43-.14 1.677-1.042.67-.224 2.205-.16.4-.403.894-.405.576-.443 1.378-.842 1.426.151.832.162.914.081.832.898 2.104.993 1.934-.086.686.94.303 1.159.595.364.522.237 1.575.25.063.015.049.157.096.577.132.478.81 1.91-.013.468-.007.124-.297.654-.528.552-.696.31-.384.347-.071.382.875.67 1.823.959.737.82-.347.681-.106.5.135.319.292.255.45.194.178.298-.09.402.085.278.336.2-.028.076-.163.28-.223.51-.127.372-.512.507.156.431.402.508.305.256.097.242-.194.575.096.148 1.27.424.206.195.124.408.444.87-.369 1.104-.325.605-.722.96-.035.088-.083.116-.217.169-.303.025-.456-.126-.312-.16.072-.415-.2-.027-.25-.254-.097-.273-.269-.112-.98-.115-.333-.08-.256.058-.19.193.122.175.182.17.543.27-.056.107-1.17.263-.737.27-.687.15-.7.28-1.38.313-1.012.083-.211.083-.378.53-.255.112-.245-.058-.186-.087-.236.072-.245.176-.255.07-.223-.003-.395.464-1.153.14-.135.241-.213.28-.168.068-.521-.11-.72-.062-.413.153-.496.085-.606.025-.675.306-.658.536-.37.472-.198.17-.323-.444-.395-.304-.28-.158h-.249l-.063.064v.232l.266.386.33.263.05.195.177.354.48.386.754.306.514.302.38.418.004.128-.105.17-.18.162-.151.21-.418.423.124.185.341.234.303.28.389.454.534.795.344.328.466.338.459.258.723-.008.75.492.817.712.611.327.426.1.353.256.312.37.122.213.277.154.749-.029.961.581.595.425.314.343-.083.136-.042.428.007.453-.094.24-.43.315-.222.067-.12.068-1.32-.411-.103.07-.083.051-.354 1.193-.243.23-.363.21-.753.206-.524.083-.408.104-1.292.5-.583.3-.377.377-.002.217.628.638.726.66.005.58-.321.433-.075.168.214.063.402.024.336.074.144.306-.042.531-.115.498-.12.21-.324.017-.625-.216-.486-.25-.187-.154-.014-.184.105-.116-.173-.226-.6-.21-.64.092-.474.14-.306-.007-.33-.202-.508-.154-.664-.102-.414-.109-.086.064.049.437-.128.19-3.282.252-1 .237-.728.305-.538.133-.132.188-.534.248-.602.079-.145-.081-.386.114-.658.11-.428-.035-.2-.2-.408-.306-.163-.212.014-.136-.92-.028-.58-.161-1.232.038-.304-.069-.063.073-.185.869-.244.356-.394.369-.506.205-.403.037.02-.269.102-.323-.29-.076-.436-.037-.212-.097.056-.246-.1-.144-.18-.171-.438-.222-.927-.33-.632-.162-.236.173-.453.175-.711-.058-.174.069-1.217-.521-1.17-.503h-.387l-1.725.1-.049-.044-.3-.286-.267-.09-.16.046-.108.083-.185-.014-.773-.463-.317-.066-.44.06-.518.25-.226.304.07.176.27.076.703-.05.104.05.021.098-.077.097-.573.079-.165.116-.167.028-.107.018-.608-.122h-.907l-.732.216-1.167.086-1.603-.042-.577-.16-.351-.097-.252-.471.063-.698.383-.925.106-.678-.17-.432.227-.647.624-.863.416-.91.208-.958.302-.624.594-.438 1.409-1.223.114-.092-.035-.61-.38-.086-.555-.175-1.415-.217-1.317-.14-.599-.172-.524-.46-.325-.006-.636.164-.794.112-.577-.098-.362.02-.203.084-.103-.075-.144-.395-.303-.103-.47-.09-.291.039-.202.196-.31.139-.286-.045-.895-.912-.23-.202-.057-.185-.224-.34-.533-.337-.531-.107-.266.038.028-.42.21-.608.199-.318.265-.26.28-.18.064-.326-.042-.308-.325-.048-.814-.228-.48-.24-.359-.3-.467-.415-.199-.42-.007-.42.056-.187.035-.128.377-.653 1.325-.585-.145-.589-.021-.36-.322-.236-.643-.096-.17-.163-.073-.16.473-.36-.57-.284-.246-.293-.795-.371-.084-.128.382-1.08-.291-.316-.363-.161-.422-.08-.193-.15-.07-.17.076-.107.496.031.153-.11 1.183-.636.049-.122-.165-.069-.217-.037-.056-.133.007-.176.632-.915.187-.39.042-.276-.042-.273-.362-.428-.353-.342-.014-.272-.257-.143-.729-.729.001-.282.412-.22.576-.139.19-.115.346-.073.914.21.41.183.116-.038.37-.198.647.03 1.57-.398.234-.192.176-.203.014-.09-.607-.392-.021-.145.08-.163.172-.13.36-.087.382-.172.855-.488.297-.424.091-.458.021-.341-.233-.272-.236-.175-.322.026-.628-.014-.586-.152-.32-.246-.08-.217.146-.136.042-.168-.094-.168.035-.142.264-.113 1.853.004.139-.125.125-.654.463-.996.437-.554.073-.233-.007-1.314.056-.666-.316-.312-.691-.342.147-.713.23-.556.694-.682.552-.188 2.407-.112 2.661.046 1.105 1.031-.41.53.646.247.31-.09.237-.461.158-.511.226-.154.823.381.289.261.02.841.304-1.138-.226-.797.156-.773.33-.401.304-.256 1.952.275 2.154-.142.815.298 1.844 1.49.614.245.776.077-1.069-.32-2.234-1.812-.67-.224-1.027-.068-.64-.177-.404-.274-.119-.245.021-1.823-.385-.272-.499-.094-.31.125-.638.002-.133-.413.156-.306 1.281-.21.845-.28.035-.495-.534-.39-.639-.713-.751-.671-.084-.781h.003l1.305.016.32.029 1.98.366zm-6.63.147-.161.14.077-.99.766-1.052.324.024-.332.284-.096.2-.134.398.063.206 1.748.057-.203.185-1.773.124z" style="opacity:1;fill:#618cea;fill-opacity:1;fill-rule:nonzero;stroke:#505050;stroke-width:.5;stroke-linecap:round;stroke-linejoin:round;stroke-miterlimit:4;stroke-dasharray:none;stroke-opacity:1" transform="translate(-215.892 -25.823)" id="path2" />
  </g>
</svg>
