<?xml version="1.0" encoding="UTF-8" standalone="no"?>
<svg viewBox="-180.25 1.15 60.595 48.162" version="1.2" width="60.595" height="48.162" id="svg6" sodipodi:docname="greece.svg" xmlns:inkscape="http://www.inkscape.org/namespaces/inkscape" xmlns:sodipodi="http://sodipodi.sourceforge.net/DTD/sodipodi-0.dtd" xmlns="http://www.w3.org/2000/svg" xmlns:svg="http://www.w3.org/2000/svg">
  <defs id="defs10" />
  <sodipodi:namedview id="namedview8" pagecolor="#ffffff" bordercolor="#666666" borderopacity="1.0" objecttolerance="10.0" gridtolerance="10.0" guidetolerance="10.0" inkscape:pageshadow="2" inkscape:pageopacity="0.0" inkscape:pagecheckerboard="0" />
  <g style="display:inline" id="g4">
    <path class="polygon" d="m161.852 163.886.479.051.649-.009.147-.042.413-.409.51-.01.221.405-.516.186-.105.105.1.085.388.169.538-.064.014.319.12.26.266.155.288.03.636-.046.628-.103.647-.204.66-.104 1.973.105.708.44 1.347.053 1.253.232.657-.153 1.124-.143.18.155-.145.996.07.29.324.139.32-.068.394-.327.943-.252h.979l.823-.662.243-.038-.151.326-.125.766-.177.448-.078.353-.551.183-.833.03-1.519-.076-1.53.125-2.837.336-2.842.174-.382-.114-.007-.446-.063-.307-.184-.216-.878-.183-.838-.316-3.286-.43-.775-.17-1.258.088-.46-.011-.318-.155-.218-.265-.099-.843.156-.835.273-.22.125.251.323.115.3-.253-.004-.382.154-.356.237.15.158.545zm23.267.491-.268.394-.271-.332.117-.382-.316-.607.598-.9.014-.436.455-.223-.112.742-.349.595.362.494.173.562zm-28.856-5.071-.081.304-.72-.209-.2-.314-.035-.695.189-.339.125-.106.332.39.694.571zm33.523 1.823-.506.147-.174-.019-.211-.324.292-.783-.27-.503-.015-.213.407-.296.286-.442.694-.478 1.8-.567.421-.052-.014.444-.602 1.123-.535.561.141.45-.856.125zm-16.523-3.243-.325.368-.458-.132.187-.14.11-.182.014-.262-.125-.16.085-.06.409.271zm6.848-1.35-.553.168-.352.35-.43-.248v-.34l.47.104.33-.19-.099-.216.36.1zm9.796.221-.153.112-.351-.32-.014-.167.357-.192.18-.044.05.13-.006.28zm-23.27-1.469.014.411-.05.148-1.432.198.132-.471.087-.15.475.22.175-.112.071-.13zm5.921.628-.121.11-.53-.442-.201-.259.251-.215.777.503zm10.976-.371-.219.008.26-.338.74-.463 1.076-.408.355-.046.606.254-1.113.418-.296.221-.821.048zm-7.632-.444-.618.058-.196-.053.376-.12.263-.13.127-.154.627-.273.41-.356.447.242-.558.162zm-7.97-.917-.128.03-.183-.295-.042-.275.073-.161.243-.016.33.523zm16.092-.263-.698.097.124-.556-.343-.438.546.246.345.297.17.056-.043.18zm-12.185-.765-.557.54-.463-.059-.194-.247.287-.507.62-.288.281.075-.028.376zm1.869.705-.625.266-.425-.383-.238-.602 1.143-.882.274.079.164.228-.028.792zm-7.157-1.102-.259.105-.432-.153.115-.385.298-.163.317.125.05.173zm-.615-1.536-.397.213.131-.486-.196-.253.176-.215.255-.174.121.18.23.29zm3.55-1.043-.035.727-.184-.006-.108-.113-.006-.278.079-.438zm3.22.52-.67.044.042-.534.248-.14.804.267-.042.168zm4.385-.771-.328.026.1-.28.628-.485.876-.024.799-.243.18-.01-.381.384-.644.357zm-5.414-.492-.26.452-.436-.07-.731-.486-.25-.22-.138-.217.3-.027.367.229.935.121zm-6.299.16-.469.34-.08-.51.3-.537.411-.035.152.236zm17.28-1.643.86.231.24-.024.406.083.108.426-.539.061-.932.39-.396-.085-.475-.34-.753-.035-.223-.092.403-.4.733-.203zm-41.552.043.738.682-.594-.17-.634.472-.803-.55-.48-.558-.11-.223.505-.522.47.536.568.086zm28.722.32-.206.471-.547-.547-.6-.374-.223-.327-.366-.197-.099-.44.442-.18.19-.019.453.535.709.063-.056.33.224.425zm-10.085-1.163-.276.173-.313-.008-.22-.064-.111-.139.138-.065.161-.278.15-.075.223.035.135.111zm-20.57-3.203.086.809.494.151.655.73-.056.372-.136.128-1.086-.344-.26.154-.318-.063-.196-.403.02-.141-.177-.241-.148-.108-.428.32-.27.06-.002-.293.395-.805.185-.136.325.266.267-.099.201-.435.014-.435.09-.128zm1.024.378-.346.076-.44-.67-.159-.462.183-.026.176.054.185.174v.178l.073.191.192.23zm37.348.78-.669.395-.746-.572-.124-.185.548-.23.272-.357-.22-.437-.76-.647-.036-.46 1.165-.193.686.4.349.027-.134.381.056.124.05 1.16-.325.162-.056.318zm-37.852-2.735-.272.054-.234-.037-.213.031-.205.134.02-.555.243-.688.295-.402.417-.186.178.315-.035 1.126zm27.916-1.404-.74.171-.195-.027.164-.216.014-.09-.738-.394.087-.511.086-.13.548.266.12.444zm-8.815-1.046.396.76.37.256.78.303.365.039 1.328.547 1.546.109.2.157.19.422.315.33.079.258-.165.286.228.873.39.83.588.403.73.122.695-.017.175.165-.07.726-.294.283-.239.069-.208-.074-.188-.171-.205-.081-.4-.014-.291-.293-.74-.4-.136-.24-.028-.368-.315-.271-.289-.516-.275-.143-.152-.258-.014-.111-1.077-.076-.892-.003-.756-.293-.234-.766-.449-.206-.336-.217-.28-.3-.708-.554-.783-.464-.758-.305-.804-.2-.653.236-.381-.056-.077-.16.812-.317 1.116-.608.787-.2.381-.026zm2.55-1.09-.311.237-.483-.104-.506-.792zm.758-.307-.327.082.328-.559.58-.29-.218.47zm17.655-1.198-.121.415.967.688.33.436.123.425-.082.122-.366-.23-.3-.074.1.304.308.26-.549.15-.55-.008-1.605-.363-.37-.387.96-.581.196-.234-.68.023-.725.69-1.163-.303-.356-.278-.079-.15.458-.612.818.02.433-.138.536-.193.004-.291 1.276-.067zm-44.325-.723.152.392-.872-.243-.637-.351-.526-.866-1.12-.987-.014-.286.426-.217.918-.154.372.16.241.165.075.189-.522.378-.109.172.402.34-.007.137.17.658.195.249.507.198zm37.518-3.854-.265.236-.194.408-.105.582-.408.014-.247-.118-.082-.22-.014-.278-.179.01-.144.303-.127.136-.41.029-.45-.186.02-.402-.09-.466.042-.163 1.233-.04.362.344.436-.2.179-.215.528-.135zm1.736-3.103-.791.183-.872-.577.843-.231.39.167.28.197zm-6.38-1.32-.898.25-.913-.473.007-.282.482-.57.265-.17.67.047.382.392.089.185-.124.314zm12.335-5.096-1.44.73-.035.669.02.324.029.229.15.192v.278l-.16.298-.63.5-.435.396-.488.538-.277.066-.215.095-.198-.297-1.085-.525-2.512-.305-1.2-.388-.527.072-1.02-.433-.698.19-1.482.77-.8-.083-.855-.463-.557-.085-.653.245-1.046.886-1.064.435-.954-.17-1.283.004-.136.495.248.344.701.585-.329.44.244.44.457.09.69-.025 1.275.57.558.602.356.66-.777-.473-.515-.454-.719-.165-1-.386-.629-.065-.668.268-.05.304.721.568.66.35.348.284.234.63-.133.214-.243.2-.782-.398-1.196-1.41-1.668-.282-.279.294.328.746.237.29 1.45.806-.117.17-.211.074-1.622-.46-.472-.701-.113-.886-1.497-.615-1.412-.67-.316-.634.29-.236.206-.466-.775.086-.487.295-.787.286-.035.469.125.434-.26.631-.253 1.1.16.577 1.705 1.654.583 1.202.419.456.872.502.91.935.385.488.276.797-.766.494-.446.02-.247-.22.345-.543-.049-.331-1.182-.513-.5.173-.577.334.33.62.37.41.186.564.708-.05-.953.632-.895.323-.88.019-.561.059-.194.161.456.118.373.01.605.342 1.724.41.822.517.806.047.813.95 1.404.253.8.958 1.065.189.917.353.269.338.133.609.056 1.291.198.962.007.304-.049.454-.249.223-.336.007-.66-.707-1.012-.744-1.066-.885-.303-.156-.248-.015-.57.3-1.586.231-.744.324-.28.071-.077.17.349.177.427.404v.554l.352.672.456.174.594-.015.34.124.089.268.345.312.227.232-.007.165-1.657.44-.346.202-.29.103-.431-.21-.028-.537-.57-.289-.522-.247-.626-.106-.533-.37-.347.3.277 1.043.602.717 1.008 1.925.457 1.136.092.55-.227.913.495.678.339.697-.373-.027-.325-.245-.543-.29-1.054-1.111-.367-.694-.439-.055-.761.1-.835 1.481.003.849-.432-.202-.37-.265.041-.928-.035-.39-1.013-1.265-.465-.142-.217-.427-.373-.455-.481.087-.394.185-.108.688-.042.617-.293.464-1.08-.881-1.087-1.524-.028-.836.796-.763-.095-.545-.753-1.077-1.086-.692-.608-.206-.286-.736-.582-.38-.471-.178-.094-.262.143-.194 1.141-.757.67-1.184.332-.057.683.28.768-.073.63-.693.534-.378.9.048 2.033.928 2.185.528 1.09.464.616.46.328.096.517.065-.02-.344-.167-.305.43-.165 1.172.009.213-.162.217-.26-.242-.298-.388-.142-.414-.04-.273-.094-.44.095-.687-.23-.355-.188-.209-.195-1.193-.388-1.132-.655-.255.371-.457.201-.652.028-1.83-.417-1.125.318-.613.084-.47.007-.576.142-.666.086-.576-.605-.243-.469-.171-.087-.007.44-.186.353-.845.199-.485-.274-.374-.83-.473-1.055-.833-.852-.675-.223-.056-.468.063-.374.81-.093 1.268.392.262-.078.285-.18-.056-.4-.183-.356-.349-.016-.241.042-.78-.074-1.001.198-.464-.186-.155-.227-.837-.561-.724-.753-1.173-.503-.765-1.53-.644-.67-.687-.476.15-.01.26.082.499.262.53.057.29-.174.167-.16.108-.261.042-.306.086-.101.405.034.13-.076-.006-.274-.262-.342-.23-.421v-.2l.19-.082.317-.183.17-.226.336-.112.497-.02.554-.1.359-.243.056-.24.224-.663.146-.324.236-.296.13-.399.251-.374.53-.158.479-.185.363-.483.202-.413v-.254l-.302-.414-.224-.402.056-.523.95-.044.333-.049 1.233-.028.563-.28.39.025.812.243.363-.192 1.063-.378 1.05-1.1.448-.164 1.018-.067.32-.127.372.024 1.141.223.65.034.77-.152.849-.268.212-.94.201-.134.528-.038.397.008.767.075.913.025.587-.44.926-.033.429-.064.717.089.695-.005.89-.184.83-.3.649.025.264-.054.151-.063.162-.407 1.22-.025.414.04.681.01.708-.221.213.019.358.596.187.172.385.16.86.447.154-.118.357-.15 1.027.206.98.344.823.506.916-.146 1.016-.248.66-.072.718-.035.427-.107.968.13 1.002-.272.483-.245.138-.344-.081-.607-.226-.607-.24-.223-.076-.232.136-.216.153-.151.653-.127.842.19.628.142.363.231.228.211.346.182.258.042.198.624.106.773-.158.333z" style="opacity:1;fill:#edd132;fill-opacity:1;fill-rule:nonzero;stroke:#505050;stroke-width:.5;stroke-linecap:round;stroke-linejoin:round;stroke-miterlimit:4;stroke-dasharray:none;stroke-opacity:1" transform="translate(-312.415 -119.029)" id="path2" />
  </g>
</svg>
