<?xml version="1.0" encoding="UTF-8" standalone="no"?>
<svg viewBox="-180.25 1.15 47.992 20.103" version="1.2" width="47.992" height="20.103" id="svg6" sodipodi:docname="hungary.svg" xmlns:inkscape="http://www.inkscape.org/namespaces/inkscape" xmlns:sodipodi="http://sodipodi.sourceforge.net/DTD/sodipodi-0.dtd" xmlns="http://www.w3.org/2000/svg" xmlns:svg="http://www.w3.org/2000/svg">
  <defs id="defs10" />
  <sodipodi:namedview id="namedview8" pagecolor="#ffffff" bordercolor="#666666" borderopacity="1.0" objecttolerance="10.0" gridtolerance="10.0" guidetolerance="10.0" inkscape:pageshadow="2" inkscape:pageopacity="0.0" inkscape:pagecheckerboard="0" />
  <g style="display:inline" id="g4">
    <path class="polygon" d="m149.81 73.798.668-.057.028.009.158.033.11.326.021.02.161.215.151.285.235.214.515.089.674.266.436.499.657.207.05.005.129-.023.473-.019.092.101.378.245.147.215-.075.227.07.258.144.09-.174.174-1.225.865-.479.229-.319.046-.5-.09-.517.069-.462.185-.426.059-.322.22-.417.471-.512.4-.517.247-.268.221-.028.765-.287.22-.386.222-.21.196-.587 1.165-.445.374-.422.286-.07.261.007.3-.48.598-.629.62-.121.255.14.343-.602.395-.348.19-.288.09-.18.248-.296.603.077.27.007.248-.51.145-.15.272-.129.339-.212.153-.573.282-1.42-.123-.537.095-.16.2-.035.162-.177.152-.325.19-.332.085-.739-.234-1.59.237-.274.171-.222-.122-.34-.111-1.592-.137-.628.109-.84-.042-.776-.121-.58.098-.512.475-.253.16-.199.103-.438.149-.365.18-.488.128-.434-.018-.413-.204-.148.046-.13.188-.224.16-.615.2-.157-.003h-.035l-.472.146-.778.08-.39-.056-.71.66-.217.12-.674.201-.553.1-.474-.08-.187-.007-2.1-.033-1.098-.142-.705-.257-.467-.288-.229-.318-.544-.193-.86-.068-.67-.316-.48-.563-.648-.446-.818-.329-.65-.464-.48-.6-.863-.54-1.247-.48-.376-.104-.074-.155-.61-.596-.26-.22.02-.295-.121-.168-.222-.118-.119-.426-.07-.319-.174-.205-1.334-.042 1.116-.76.555-.212.645.036.207-.068.056-.11.11-.248.056-.234.056-.22-.07-.123-.311-.039-.15-.543.16-.205.16-.143-.198-.66.056-.224.504-.035.418-.141.34-.16.095-.204.28-.416-.258-.51-1.454-.332-.075-.127.338-.144.36-.206.21-.16.279-.022.396.08.7.37.269.053.26-.108.277-.023.775.014.652-.086-.147-.393.002-.285-.11-.228.07-.251.264-.196.08-.439.408-.296.19-.043.72.054.17.077.11.017 1.143.723 1.082.544.887.278 1.302.023 1.383.025 2.315-.095 1.736-.072.115-.135.261-.325-.208-.278.014-.328.293-.426.856-.353 2.457-.156 1.413-.263.213-.36.468-.356.427-.071.587.163.706.313.62.166.363-.107 1.248-.528 1.436-.515.988-1.396.105-.223 1.072-.16 1.564.03.802.181.603.096.903-.033 1.303-.3.483.008.373.213.41.183.275.224.21.317.112.119.182.162.328.222.319.06 2.41-.387z" style="opacity:1;fill:#4ce79f;fill-opacity:1;fill-rule:evenodd;stroke:#505050;stroke-width:.5;stroke-linecap:round;stroke-linejoin:round;stroke-miterlimit:4;stroke-dasharray:none;stroke-opacity:1" transform="translate(-287.54 -71.36)" id="path2" />
  </g>
</svg>
