<?xml version="1.0" encoding="UTF-8" standalone="no"?>
<svg viewBox="-180.25 1.15 76.932 22.335" version="1.2" width="76.932" height="22.335" id="svg6" sodipodi:docname="iceland.svg" xmlns:inkscape="http://www.inkscape.org/namespaces/inkscape" xmlns:sodipodi="http://sodipodi.sourceforge.net/DTD/sodipodi-0.dtd" xmlns="http://www.w3.org/2000/svg" xmlns:svg="http://www.w3.org/2000/svg">
  <defs id="defs10" />
  <sodipodi:namedview id="namedview8" pagecolor="#ffffff" bordercolor="#666666" borderopacity="1.0" objecttolerance="10.0" gridtolerance="10.0" guidetolerance="10.0" inkscape:pageshadow="2" inkscape:pageopacity="0.0" inkscape:pagecheckerboard="0" />
  <g style="display:inline" id="g4">
    <path class="polygon" d="m-113.916-50.964.803.026 1.313-.24.55-.159 1.346-.546.797-.152 1.228.037.594-.038.014.054-.754.221-.607.076-.867.33-.825.745-.612.366.007.162.743.288.814.164.748-.148.327.058.295.214.167.213.035.21-.134.44-.45.442-.608.37.085.117.487.06 2.32-.24.24.018.133.119.028.221.128.2.229.18-.072.184-1.015.58 1.198-.365.947-.104 1.62.184.664.21.388.371.56-.122.244.007.367.21.014.226-.269.321-.093.296-.281.122-.527.088-.15.1.232.226.342.22.486.01.086.102.014.123-.063.144-.16.098-.25.054-.332.159 1.218.346.156.129.014.189-.095.207-.208.225-.367.133-.878.022-.538.146.184.244-.014.308-.162.363-.69.55-.65.292-.635.19-1.133-.068-.617-.146.07.475-.63.292.119.244.22.124-.11.314-.3.31-.501.336-.569.21-1.129.253-.965.421-.66.167-1.64-.007-1.673.27-2.365.571-1.593.458-1.23.519-1.624.846-1.205.356-.696.096-1.354.076-1.134.23-3.768.43-1.276.235-.165.214-.529.322-.035.117.232.09.042.117-.466.38-.932.277-.44-.004-.533-.238-.232.008-.091.037-.005.074.307.285-.565.133-2.455.333-4.176-.248-1.655-.255-2.042-.407-1.215-.108-1.724-.027-1.416-.569-.655-.351-.049-.146.074-.167.147-.113.22-.062.468-.006.063-.05-.357-.281-.34.091-.912.398-.406-.015-.533-.199-.021-.193-1.042-.074-.905-.24-.9-.348-.134-.132.432-.193-.083-.038-.325-.033-.658.064-.989.438-.427.101-6.468.103-1.64.045-.317.067-.285-.286-.255-.636-.095-.42.063-.203.227-.243.351.04.336.195.303.274.348.133 2.258-.334.916-.225.39-.214.459-.363.486-.186.233-.176.456-.556.315-.258.377-.191.44-.123.998-.088-.657-.131h-.627l-2.132.588h-.715l.028-.092.302-.166.733-.286-.503-.022-.193-.13-.02-.273.374-.44 1.736-.579.6-.085.181-.115-.227-.093-.363-.056-1.746.596-1.271.206-.377-.04-.658-.232-.212-.103-.284-.265.035-.16.606-.467-.098-.09-.417-.046-1.12-.43-1.773.043-4.386-.25-.907.106-1.494.37-.904.121-.417-.08-.38-.195-.344-.264-.309-.33.134-.232.578-.131.424-.063 1.194.08 1.456-.231.928-.049.267-.036.546-.247.27-.062.42.086.204.168 1.466-.26.502-.13.056-.08.22-.094.73.14.59.004.736-.096 1.302-.043 2.914-.022.437-.212.205-.188.257-.474-.114-.098-1.82.437-.415-.007-2.107-.232-.761-.262.249-.21 1.116-.454 1.153-.363 1.696-.393.397-.153.042-.181-1.13-.323-2.14.09-.547-.383-1.777-.227-1.184.143-.628-.232-1.537.32-3.378.463-1.343.321-.724.107-.834-.263-1.435-.295-1.615-.092-.147-.174.943-.532.644-.096.65.049 1.24.37.856.117-1.073-.545.028-.21-.082-.313-.332-.134-.328-.347.135-.118.421-.04.864.116 2.052.602 1.007-.106.553-.222.754-.165-.215-.085-1.773-.01-.948-.123-.48-.176-.416-.3.147-.138.492-.11 1.515.032-.998-.52-.693-.299-.076-.144.049-.181.094-.122.14-.06 1.738.304.38.013-.35-.196-.763-.288-.035-.108.321-.09.16-.164.013-.135.528-.116.532-.005.536.106 1.662.562.238.158.079.208-.081.258.07.105.65-.089.517.109.258-.03.644-.388.445.091.268.182.083.165.042.225-.113.471.028.067.45-.266.77-.02.1-.134.02-.495-.063-.417-.085-.086-2.528-.578-.44-.137-.55-.284.11-.143.493-.128.743-.051 1.723.007.175-.06-.334-.15-.797-.097-.187-.086-.095-.167-.946.091-1.054.004-1.015-.102-.02-.13.4-.19.828-.315.386-.078 1.158.055 1.15-.088.933.107.74.312 1.052.549 1.422.35.13.11.757.288 1.505.774 1.529.448.07.115-.25.134-.588.158.134.087.768.114.553.304.035.132-.5.942-.265.2-.307.106-1.412-.177.336.3 1.01.319.227.178-.15.175.11.04.37-.094.153.1-.063.292-.158.243-.25.194.072.083.394-.026.37.05.579.266.469.815.233.263.168-.233.21-.595.199-.304.185-.013.16-.1.134-.187.273-.658.948-.498.453-.153.425-.034.206.063.71.523.43.088.222-.03.304-.354.384-.681.088-.761-.209-.84.122-.599.451-.357.592-.11.734.137.536.218 1.06.834.854.437.734.469.38.152.727.077.195-.03.13-.109.063-.186-.157-1.193.204-.372.309-.264 1.313-.155.715-.166.697-.271.576-.146.458-.02.48.106.498.232.78.45.979.748 1.246.559.653.887.14.15.152.017.164-.115.106-.163.028-.395-.35-.523-1.164-1.317-.021-.25.147-.2.821-.022 1.91.121.61.204 1.3.805.364.194.223.05.08-.098.504-.15.348-.18.581-.444 1.269-.798.263-.023.37.063.65.209.31.167.611.127.627-.044.866-.28.978-.17.336-.397.063-.18-.789-1.179.332-.24 1.708-.293 1.494-.022.353.08.942.572.638.288.322.232.077.51.388.188z" style="opacity:1;fill:#77e053;fill-opacity:1;fill-rule:evenodd;stroke:#505050;stroke-width:.5;stroke-linecap:round;stroke-linejoin:round;stroke-miterlimit:4;stroke-dasharray:none;stroke-opacity:1" transform="translate(-3.563 54.447)" id="path2" />
  </g>
</svg>
