<?xml version="1.0" encoding="UTF-8" standalone="no"?>
<svg viewBox="-180.25 1.15 31.038 27.745" version="1.2" width="31.038" height="27.745" id="svg6" sodipodi:docname="ireland.svg" xmlns:inkscape="http://www.inkscape.org/namespaces/inkscape" xmlns:sodipodi="http://sodipodi.sourceforge.net/DTD/sodipodi-0.dtd" xmlns="http://www.w3.org/2000/svg" xmlns:svg="http://www.w3.org/2000/svg">
  <defs id="defs10" />
  <sodipodi:namedview id="namedview8" pagecolor="#ffffff" bordercolor="#666666" borderopacity="1.0" objecttolerance="10.0" gridtolerance="10.0" guidetolerance="10.0" inkscape:pageshadow="2" inkscape:pageopacity="0.0" inkscape:pagecheckerboard="0" />
  <g style="display:inline" id="g4">
    <path class="polygon" d="m-74.758 35.243-.028.2-.518-.252-.252-.274-1.423-.126.593-.274.29.081 1.003.012.281.114zm17.828-7.631-.312.687-.035.196-.357.362-.337.402-.392.156-.585.124-.333.123-.418-.062-.53.01-.264.137.014.105.159.121.464.185.514.167-.056.146-.276.166-1.753.411-.522.249-.182.164.186.275 1.4.823.237.09.207.48 1.233.2.505.3.435.071.945-.026.38.113.214-.086.125-.158.796-.406.263-.178-.158-.248-.172-.188.484-.375.586-.37.294.011.502.227.412.316.056.245.076.178.39.38.253.132.68.076.158.149-.12.55.1.183.712.01.755-.044.264.021.272-.115.42-.124.6.043.296.246.132.254-.516.096-.54-.052-.262.167-.014.321.182.414.36.293.288.662.239.734.371.443.076.55-.056.27.07.487-.158.171.118.456.438.945.191.526.123 1.148-.308.43-.415.409-.27.484-.21.523-.126.842-.897.988-.382.245-.442.151.967.691-.79.308-.862.097-.954-.173-.594.021-.543.224-.213.135-.171-.065-.358-.567-.262.585-.55.187-.94-.04-1.573.156-.605.166-.252.261-.186.302-.245.178-.278.094-1.214.222-.24.089-.562.486-.737.282-.61.084-.542-.283-.223-.17-.251-.087-.833.013.263.088.17.2.082.383-.094.376-.411.19-.49.035-.773.39-1.024.106-.553.36-3.38.606-.193.007-.467-.155-.506-.068-.504.048-1.417.34-.686-.068.875-.843 1.175-.425.123-.116-.384-.058-2.235.296-.776.251-.776.073.36-.384 1-.526.537-.248.328-.098.374-.309 1.054-.35-3.397.723-.893-.088-.21-.202-.695.095-.264-.49 1.03-.74.6-.318.713-.172.686-.247.254-.302-.322-.096-2.056.077-.985-.064.056-.24.181-.265 1.02-.453.553-.073.492.044.48.116.39.152 1.157-.087-.483-.29-.086-.588-.37-.198.474-.272.541-.166.903-.564.32-.086 1.786-.137 1.926-.297 1.909-.41-.979-.228-.469-.302-.753.61-.543.234-1.532.125-.484-.069-.683-.19-.212.073-.198.146-1.014.3-1.065.071 1.239-.549 1.572-.93.35-.295.5-.511-.156-.228-.323-.13 1.14-1.052.4-.19.73-.031.536-.167h.236l.212-.063.469-.315-.724-.2-.747-.104-2.313.11-.305-.025-.287-.096-.186-.14-.14-.357-.17-.08h-.522l-.514.11-.36-.011-.352-.157.563-.366-.726-.086-.734.072-.612-.11-.02-.23.277-.229-.364-.217-.075-.274.388-.135.422.044.861-.203 1.104-.098-.947-.2-.377-.172-.021-.262.075-.225 1.096-.38 1.167-.168-.086-.25.082-.27-1.18-.079-1.166.191.124-.517.28-.467.056-.308-.056-.33-.546.142-.063-.465-.235-.318-.809.219.021-.42.233-.294.424-.128.42.056.78-.005.751-.221 1.084-.057 1.728.07 1.187.622.307-.111.474-.394.223-.043 1.79.171 1.11.227.298-.07-.16-.438-.383-.302.481-.397.584-.269.39-.134.901-.166.394-.157.262-.51.416-.425-2.262.22-2.151-.503.34-.355.455-.202.784-.155.074-.186.397-.154.656-.405-.24-.53.129-.387.472-.252.148-.363.21-.266.959-.096.921-.247.333.023 1.088-.057.368.1-.084-.438.668-.057.26.087.115.31.304.198.093.344-.203.266-.34.205.31.21-.482.378.52-.161.742-.37-.042-.304-.126-.381-.206-.344.095-.379.417-.237 1.096-.118-.45-.43.401-.04.435.09.64.335.665.263.69.208-.662.417-.815.289-.321.315-1.108.45z" style="opacity:1;fill:#75c228;fill-opacity:1;fill-rule:nonzero;stroke:#505050;stroke-width:.5;stroke-linecap:round;stroke-linejoin:round;stroke-miterlimit:4;stroke-dasharray:none;stroke-opacity:1" transform="translate(-102.159 -23.675)" id="path2" />
  </g>
</svg>
