<?xml version="1.0" encoding="UTF-8" standalone="no"?>
<svg viewBox="-180.25 1.15 83.515 73.26" version="1.2" width="83.515" height="73.26" id="svg6" sodipodi:docname="italy.svg" xmlns:inkscape="http://www.inkscape.org/namespaces/inkscape" xmlns:sodipodi="http://sodipodi.sourceforge.net/DTD/sodipodi-0.dtd" xmlns="http://www.w3.org/2000/svg" xmlns:svg="http://www.w3.org/2000/svg">
  <defs id="defs10" />
  <sodipodi:namedview id="namedview8" pagecolor="#ffffff" bordercolor="#666666" borderopacity="1.0" objecttolerance="10.0" gridtolerance="10.0" guidetolerance="10.0" inkscape:pageshadow="2" inkscape:pageopacity="0.0" inkscape:pagecheckerboard="0" />
  <g style="display:inline" id="g4">
    <path class="polygon" d="m79.26 155.335-.335.077-.439-.24-.028-.338.082-.101.533.155.167.312zm24.677-10.243-.473.796-.233.306-1.688 1.947-.194.45-.119.488-.175.429-.236.403-.22.513.041.582.08.285.202.187.334.177.257.27-.394.245.433.493.369.293.049.292-.007.294-.766.549-.3.302-.186.367-.08.378.084.341-.028.34-.771-.042-.79-.208-.796.092-1.13-.393-.413-.071-.375-.154-.942-1.219-.758-.515-.813-.4-.83-.025-.832.046-.734-.247-1.495-.828-1.583-.662-.672-.431-.306-.29-.359-.193-.907-.19-.813-.448-.37-.033-.798.054-.408-.03-.411-.158-.795-.527-.507-.73-.131-.321.359-.833.426-.8.378-.224.438-.16.266-.237.224-.29.815.836.364.202.37-.045.654-.3.056-.327.722-.416.918-.008.424.077.222.376.35.116.405.05 1.332.716.373.117.378.02 1.034-.301.794-.115 1.663.166.9-.18.628-.02.915-.277.704-.46.367-.114.394-.033.952.029.958.104.4-.107.336-.301.39-.136.427.092 1.106-.515.487-.035.464.198zm-49.683-5.93-.402.692-.423-.49-.014-.421.056-.12.516.177zm38.216-11.467-.313.06-.182-.082-.1-.107.125-.264.636.156-.007.15zm-39.566-2.34-.233.32-.33-.023.129-.236.304-.475.37-.16.164.142-.174.272zm9.422 1.105.35.448.786 1.833.076.397-.157.406-.2.289-.779.923.116.764.289.472.042.523-.145.649-.483 3.99-.234.706-.148.612-.533.186-.688-.196-.867-.345-.4.021-.404.118-.333-.1-.318-.195-.236 1.37-.392.558-.597.356-.561.022-.578-.12-.49.002-.372-.265-.295-.462-.47-.56-.476-.667-.049-.603-.081-1.329.136-.29.2-.278.097-.594-.07-.518.14-.185.277.185.208-.07-.014-.266.063-.487-.363-.408-.617-.138-.056-.427.063-.416.326-.28.11-.371.003-1.134-.435-.418-.167-.632-.224-.405-.404-.407-.457-.331-.282-.32-.063-.836.161-.697.143-.299.147.044.454.347.372.078.736.084.724-.11.89-.316.855-.383 1.24-1.123.763-.228.39-.295.134-.4.324-.104.382.388.475.04.73.32.316.308.27.368.258.162.277.093.042.087-.22.087-.251.422.142.122zm5.342-13.832.232.272.028.159-.156.179.063.404-.586-.335-.887.17-.544-.036-.15-.302.125-.176.844-.039.263-.086.512.04zM79.817 83.74l.163.347.797.695.435.533.407.4.637.211.836.13.708.045.74.151 2.542.373 1.28.103.97.016 1.47.247-.143.402-.298.1-.517.235-.593.32-.553.362-.15.392.15.257.15.088.202-.079.294.049.37.14.615.137.014.135-.13.172-.479.308-.43.347-.043.212.05.155.15.093.64-.042.093.127-.31.893.097.153.56.142.408.215.766.566.305.46-.21.153-.48.076-.394-.04.444-.277-1.084-1.006-.491.002-.652.426-1.811-.43-.347.173-.257.341-.628.423-.891.187-.993.465-1.046.33-.8.249-.457-.044.728-.54-.31-.01-.966.38-.557.322-.178.54-.162.892.424.237.744 1.175.916.503-.178.48-.241.38-.554.327-.458-.243-.28.006-.214.768.396 2.051.639 1.44.633.627 1.43.976 1.512.515 2.718 1.646 1.49.52.392.283.904 1.27.78 1.467.841 2.301.599 1.134 1.206 1.282 2.506 1.835 2.277 1.343 2.119.83 1.653.145 3.914-.184.682.08.722.223.172.575-.266.389-.823.404-.839.56-.093.76.785.538 3.774 1.423 3.861 1.19 1.203.606 1.393.944 3.365 1.298.568.632 2.045 1.358.927 1.049.176.813-.443.826-.204.583-.348.576-.87-.218-.99-.591-1.49-2.403-2.723-.243-.563-.177-.966-.412-.056-.272-.239-.34-.247-.114-1.041-.075-.721.388-.849.921-.961 1.325-.978 1.943-.056.784.531.76 1.586.425 1.225.677.807.707.056 1.708.362.97-.533.55-1.03-.142-1.371.35-.972.627-.404.598.107 1.548-.2.592-1.843 1.116-.968 1.143-.24.474-.37.537-2.327.02-.55-.667-.022-.988.4-.608.855-.285.577-1.263-.182-.913.336-.405.318-.286.653-.167.918-.16.093-1.273-.718-.579-.251-.81-.336-1.498-1.184-1.91-.635-1.705-.496-.841-.754-.439-1.36.005-.674-.125-2.406-1.183-.167-.18.014-.314.399-.475-.27-.643-.284-.607-.472-.518-.517-.269-1.081.166-.38.128-.684-.044-.536.23-.3.007.844-.909-.227-.214-.834-.374-1.132-.056-.314-.045-.185.232-.22-.128.02-.406-1.315-1.818-.885-.74-.446-.131-.804.156-1.35-.325-.806-.072-.444.078-.663.237-.334-.157-.117-.243-1.225-.754-1.529-.427-2.976-2.4-.913-.898-1.878-.988-1.188-1.439-.972-.528-1.415-.422-.326.053-.426.158-.334.023-.266-.187.27-.193.302-.087-.12-.55-1.61-1.425-.942-.459-.266-.283-.196-.387-.2-.254-.447-.146-.381.025-.528-.097.014-.684.105-.525-.08-.445-.513-1.172-.89-.993-.522-2.373-.404-.668-.983-.507-2.218-.569-3.09-1.526-.654-.027-1.86-.593-1.151-.102-1.497.533-1.817 1.467-1.475 1.523-.537.296-1.902.519-1.681.248-.021-.39-.056-.294.284-.323.47-.38.432-.478.18-.347-.085-.23-.195-.342-.264-.024-1.6.286-.366-.074-1.184-.446-1.275-.548-.47-.39-.177-.394.133-.253-.107-.246-.25-.332.226-.377.397-.47.198-.318.334-.083.16-.194-.267-.774-.138-.124-.231-.096-.354-.011-.618-.16-.44-.268-.095-.36-.233-.348-.396-.32-.049-.348.451-.184.617-.007.433.068.973-.56.359-.048.32-.122.27-.763.208-.23.049-.134-.192-.159-.786-.538-.36-.56-.566-.629-.527-.277-.107-.216-.014-.275.107-.241.954-.377.563-.402.242.154.513.164 1.392-.224.866-.224.609-.236.378.042 1.367.352.451-.18.986-.478.148-.252.776-.763.014-.187-.32-.479.1-.105.954-.491.466-.436.505-.292.363-.006.1.1.043.203-.028.84.139.258.75.603.533.343 1.238.235.056.113-.34.454.75.542.133.398.346.223.49-.11.16-.209-.193-.368-.14-.384.027-.223.135-.256.34-.357.927-.817.334-.473.063-.731.003-.588.31-.143.664.105.198-.012.091.36.283.575.334.298.356.07.42.001 1.038-.35.677-.153.383.042.227.24.485.626.277.071.334-.072.119-.106-.108-.242-.141-.524-.194-.405-.254-.19-.049-.247.161-.445.18-.372.354-.101.406-.047.538.394.635.124.474-.021.082-.23-.028-.252-.282-.323.056-.489.328-.91.186.068.703.01.766.051.493.372.484.127.689.04.461-.052.223-.14.269-.435.492-.54.774-.276 1.322-.052.66-.1.685.006.517.083.534-.01 1.357-.375 1.4-.297.193.05.028.098-.25.23zm1.863 21.352.206.283.413-.051.205-.361-.076-.257-.438.05z" style="opacity:1;fill:#2ed95b;fill-opacity:1;fill-rule:nonzero;stroke:#505050;stroke-width:.5;stroke-linecap:round;stroke-linejoin:round;stroke-miterlimit:4;stroke-dasharray:none;stroke-opacity:1" transform="translate(-221.283 -81.66)" id="path2" />
  </g>
</svg>
