<?xml version="1.0" encoding="UTF-8" standalone="no"?>
<svg viewBox="-180.25 1.15 50.81 17.272" version="1.2" width="50.81" height="17.272" id="svg6" sodipodi:docname="latvia.svg" xmlns:inkscape="http://www.inkscape.org/namespaces/inkscape" xmlns:sodipodi="http://sodipodi.sourceforge.net/DTD/sodipodi-0.dtd" xmlns="http://www.w3.org/2000/svg" xmlns:svg="http://www.w3.org/2000/svg">
  <defs id="defs10" />
  <sodipodi:namedview id="namedview8" pagecolor="#ffffff" bordercolor="#666666" borderopacity="1.0" objecttolerance="10.0" gridtolerance="10.0" guidetolerance="10.0" inkscape:pageshadow="2" inkscape:pageopacity="0.0" inkscape:pagecheckerboard="0" />
  <g style="display:inline" id="g4">
    <path class="polygon" d="m186.348 9.938.825.029.29.111.192.549.939.431.868.358.222.166.07.32-.056.372-.11.193-.362.222-.318.564-.042.536-.502.927.113.016 1.053-.167.298.096.23.205.074.581.345.262.352.409.111.318.67.379.055.245.409.867.157.499.073.386-.2.49-.178.332-.211-.02-.6.088-.95.4-1.415.942-.364.209-.37.717-.089.073-.823-.033-.224-.017-.826.015-1.796-.186-.697.123-.913.726-.355.107-1.061.1-.187.085-.355-.034-.993-.22-.838-.327-.502-.431-.868-.594-.57-.303-.895-.379-1.492-.773-.542-.178-2.652-.337-.959-.154-.882-.877-.286-.508-.434-.09-.475.106-.516.102-1.193.595-.388.086-.74.008-1.73.131-.788-.217-1.368-.238-.742-.038-.658.005-2.918-.233-.532.256-.539.046-.523-.395-.648-.112-.717.134-1.304.016-1.547-.125-1.97-.097-.291.042-2.187.524-.54.08-2.371.885-1.88.826-.218-1.322.116-2.643.278-1.31 1.303-.764.654-.594.38-.793.115-.734.264-.606 1.886-1.74 1.496-.188 2.024-.483 2.262-.402.436.512.222.39 2.724 1.423.693.478 1.053 1.639 2.523.83 1.984-.262.862-.403 1.589-.743.71-.545.143-.524-.281-2.242-.43-.972.147-.605.28.03.674-.292 2.219-.541.443-.025.506-.11 1.398-.413.45.22.374.248.207.003.1-.092-.027-.16.098-.114.401.063 1.62.677.621.158.425.044.51.317 1.382.212.168.164.106.205 1.293.86.58.431 1.15.396.493.095 2.01-.404.56-.14.463-.003.472.213 1.076.283.976.09z" style="opacity:1;fill:#e63d3d;fill-opacity:1;fill-rule:evenodd;stroke:#505050;stroke-width:.5;stroke-linecap:round;stroke-linejoin:round;stroke-miterlimit:4;stroke-dasharray:none;stroke-opacity:1" transform="translate(-321.994 -4.79)" id="path2" />
  </g>
</svg>
