<?xml version="1.0" encoding="UTF-8" standalone="no"?>
<svg viewBox="-180.25 1.15 41.629 18.128" version="1.2" width="41.629" height="18.128" id="svg6" sodipodi:docname="lithuania.svg" xmlns:inkscape="http://www.inkscape.org/namespaces/inkscape" xmlns:sodipodi="http://sodipodi.sourceforge.net/DTD/sodipodi-0.dtd" xmlns="http://www.w3.org/2000/svg" xmlns:svg="http://www.w3.org/2000/svg">
  <defs id="defs10" />
  <sodipodi:namedview id="namedview8" pagecolor="#ffffff" bordercolor="#666666" borderopacity="1.0" objecttolerance="10.0" gridtolerance="10.0" guidetolerance="10.0" inkscape:pageshadow="2" inkscape:pageopacity="0.0" inkscape:pagecheckerboard="0" />
  <g style="display:inline" id="g4">
    <path class="polygon" d="m142.111 25.182-.517.5-.406-.054.8-.807.305-.524.212-.744.188-.234.006.339-.082.563zm27.385-6.826.883.876.959.154 2.651.338.542.177 1.492.774.895.379.57.303.868.593.502.432.839.326.992.22.355.034-.02.315-.17.533-.332.688-.348.534-.083.206.264.17 1.301.082.553.092.108.141-.289.185-.416.153-.186.145-.331.518-2.166-.066-.287.106-.136.24-.108.279-.284.33-.576.286-.9.106-.735.195-.55.603-.408.807.014.573.056.32-.049.182-.278.2-.454.527-.368.584-.142.316.072.148.415.004.6.12.319.233.118.27.001.29-.112.16-.48.115-.753.004-.439-.138-.09-.11.21-.279-.153-.349-.311-.194-.634.29h-.608l-.73.26-.476.415-.457.153-1.236-.085-.307.183-.254.845-.148.165-1.032-.036-.996.336-1.123.272-.57-.189-.317-.213-.611.038-.668.093-.449-.05-.503.022-.972.164-1.223-.053-.52-.14-.05-.134.036-.329-.014-.511-.194-.451-.585-.4-.614-.278-.784-.288-.58-.126-.317-.033-.072-.166-.115-.143-.272-.126-.58-.17-.49-.037-.403.274-.293-.342-.311-.612.035-.49.176-.487.851-1.441-.042-.23-.617-.403-.764-.293-.421-.619-1.546-.036-1.46.035-.458-.03-1.39-.26-1.338-.417-.896-.245-.753-.274-.405-.287-.642.077-.432.002.004-.05-.248-.508.258-.778-.468-1.14-.764-1.37-.056-1.466-.056-.33 1.88-.826 2.372-.885.54-.08 2.186-.524.292-.042 1.97.097 1.546.125 1.305-.016.716-.134.649.113.523.394.538-.046.533-.255 2.917.233.658-.005.742.037 1.369.238.787.217 1.73-.13.74-.009.388-.085 1.194-.595.516-.103.474-.107.434.091z" style="opacity:1;fill:#f15ad8;fill-opacity:1;fill-rule:nonzero;stroke:#505050;stroke-width:.5;stroke-linecap:round;stroke-linejoin:round;stroke-miterlimit:4;stroke-dasharray:none;stroke-opacity:1" transform="translate(-321.188 -16.356)" id="path2" />
  </g>
</svg>
