<?xml version="1.0" encoding="UTF-8" standalone="no"?>
<svg viewBox="-180.25 1.15 5.88 5.552" version="1.2" width="5.88" height="5.552" id="svg6" sodipodi:docname="luxembourg.svg" xmlns:inkscape="http://www.inkscape.org/namespaces/inkscape" xmlns:sodipodi="http://sodipodi.sourceforge.net/DTD/sodipodi-0.dtd" xmlns="http://www.w3.org/2000/svg" xmlns:svg="http://www.w3.org/2000/svg">
  <defs id="defs10" />
  <sodipodi:namedview id="namedview8" pagecolor="#ffffff" bordercolor="#666666" borderopacity="1.0" objecttolerance="10.0" gridtolerance="10.0" guidetolerance="10.0" inkscape:pageshadow="2" inkscape:pageopacity="0.0" inkscape:pagecheckerboard="0" />
  <g style="display:inline" id="g4">
    <path class="polygon" d="m37.709 61.788-.056.187.007.42.199.42.467.414.358.3.48.24.814.229.325.047.042.309-.063.326-.28.18-.266.26-.199.317-.209.609-.028.42-.469-.174-.246-.118-.427-.032-.428.096-.32.214-.44.064-.364-.064-.214-.16-.192-.086-.546-.107-.235-.233.18-.108.155-.172.132-.242.167-.223-.537-.612-.11-.187-.441-.346.005-.175.105-.167-.042-.129.063-.308.308-.291.205-.36.347-.491.765-.59.55.09.24-.003.147.216z" style="opacity:1;fill:#3843d9;fill-opacity:1;fill-rule:evenodd;stroke:#505050;stroke-width:.5;stroke-linecap:round;stroke-linejoin:round;stroke-miterlimit:4;stroke-dasharray:none;stroke-opacity:1" transform="translate(-214.965 -60.064)" id="path2" />
  </g>
</svg>
