<?xml version="1.0" encoding="UTF-8" standalone="no"?>
<svg viewBox="-180.25 1.15 25.079 21.691" version="1.2" width="25.079" height="21.691" id="svg6" sodipodi:docname="moldova.svg" xmlns:inkscape="http://www.inkscape.org/namespaces/inkscape" xmlns:sodipodi="http://sodipodi.sourceforge.net/DTD/sodipodi-0.dtd" xmlns="http://www.w3.org/2000/svg" xmlns:svg="http://www.w3.org/2000/svg">
  <defs id="defs10" />
  <sodipodi:namedview id="namedview8" pagecolor="#ffffff" bordercolor="#666666" borderopacity="1.0" objecttolerance="10.0" gridtolerance="10.0" guidetolerance="10.0" inkscape:pageshadow="2" inkscape:pageopacity="0.0" inkscape:pagecheckerboard="0" />
  <g style="display:inline" id="g4">
    <path class="polygon" d="m192.382 94.482-.35-.444-.354-.387-.26-.209.109-.096.283-.11.203-.131-.028-.462-.15-.53-.135-.257-.014-.403-.098-.627.136-1.162.564-1.462.313-.726-.152-.398.117-.929-.243-.46-.383-.599-.548-1.304-.683-.454-.843-.499-.36-.376-.24-.415-.503-.412-.575-.379-.688-.946-.357-.427-.109-.115-.786-.607-.413-.547-.209-.45-.12-.417-.552-.822-.502-.619-.478-.44-.22-.312-.559-.392-.795-.313-.515-.054-.663.025.15-.24 1.447-.65.374.106.755.026 1.54-.023.76-.429.468.12.382-.192.635-.243.091.051.081.039.985.107.739.233.494.357.51.222.525.086.292.178.056.272.492.133.925-.004.393.179-.141.361.095.12.329-.125.249.107.132.267.148.127.472-.418.498.041 1.205.174.644.867.401.312.352.127.445-.135.393-.162.227.076.485.575.114.752-.003.304-.172.51-.247.545-.195.353.083.285.174.238.286.079.932.48.348.335.506.248.385.013.2.138.07.17-.048.428-.217.403.028.258.34.305.034.356.021.229.18.176.855.392 1.106.378.282.325.17.41-.055.692-.073.603 1.447.81-.165.151-.222.166-1.384.123-.28.068-.602-.61-.316-.077-.296.224-.347.125-.42-.062-.448-.188-.225-.134-.182-.015-.28.133-.373-.057-.243-.151-.352.518-.215.11-.135-.017-.028-.88-.101-.133-.28-.02-.674.21-.64.269-.218.24.021.433.093.517.437.784-.24.342-.17.543-.687.5-.775.29-.063.596-.432.407-.737.407-.495.49.126.335.028.318-.084.216-.021.167-.193.074-1.128.06-.318.103z" style="opacity:1;fill:#e526a0;fill-opacity:1;fill-rule:evenodd;stroke:#505050;stroke-width:.5;stroke-linecap:round;stroke-linejoin:round;stroke-miterlimit:4;stroke-dasharray:none;stroke-opacity:1" transform="translate(-361.222 -71.89)" id="path2" />
  </g>
</svg>
