<?xml version="1.0" encoding="UTF-8" standalone="no"?>
<svg viewBox="-180.25 1.15 13.873 12.213" version="1.2" width="13.873" height="12.213" id="svg6" sodipodi:docname="montenegro.svg" xmlns:inkscape="http://www.inkscape.org/namespaces/inkscape" xmlns:sodipodi="http://sodipodi.sourceforge.net/DTD/sodipodi-0.dtd" xmlns="http://www.w3.org/2000/svg" xmlns:svg="http://www.w3.org/2000/svg">
  <defs id="defs10" />
  <sodipodi:namedview id="namedview8" pagecolor="#ffffff" bordercolor="#666666" borderopacity="1.0" objecttolerance="10.0" gridtolerance="10.0" guidetolerance="10.0" inkscape:pageshadow="2" inkscape:pageopacity="0.0" inkscape:pagecheckerboard="0" />
  <g style="display:inline" id="g4">
    <path class="polygon" d="m129.243 107.902-.021.085.035.253.156.245.556.252.815.498.959.914.44.272.395.066.771.38.539.092.602.104 1.567.792.704.232.5.298.056.28-.02.174-.905.204-.159.31-.438-.036-.53-.002-.173.196.253.323.165.38-.133.521-.042.07-.128-.02-.747.303-.555.143-.5.071-.237-.145-.117-.198.021-.572-.09-.193-.171-.094-.342.135-.4.442-.37.515-.555.535-.459.515-.494.648-.338.537.351.303.214.422-.063.315.063.184-.109.552-.02.349-1.093-.557-.449-.783-1.596-1.323-1.83-.9-.097-.142.101-.174.088-.137-.38-.01-.267.11-.252-.031-.286-.338-.27-.293-.014-.257.123-.034.184-.103.384-.286.076-.15-.02-.228-.541-.722-.077-.468-.078-.87.114-.206.198-.1.946-.109-.014-.678.056-.204.189-.282.121-.258.525-.369.713-.44.312-.013.274.061.308.379.335-.05.07-.454-.44-.595-.235-.38.073-.21.164-.11.38.069.362.103.229-.07.36-.054z" style="opacity:1;fill:#2fec99;fill-opacity:1;fill-rule:evenodd;stroke:#505050;stroke-width:.5;stroke-linecap:round;stroke-linejoin:round;stroke-miterlimit:4;stroke-dasharray:none;stroke-opacity:1" transform="translate(-303.944 -106.438)" id="path2" />
  </g>
</svg>
