<?xml version="1.0" encoding="UTF-8" standalone="no"?>
<svg viewBox="-180.25 1.15 27.43 20.627" version="1.2" width="27.43" height="20.627" id="svg6" sodipodi:docname="netherlands.svg" xmlns:inkscape="http://www.inkscape.org/namespaces/inkscape" xmlns:sodipodi="http://sodipodi.sourceforge.net/DTD/sodipodi-0.dtd" xmlns="http://www.w3.org/2000/svg" xmlns:svg="http://www.w3.org/2000/svg">
  <defs id="defs10" />
  <sodipodi:namedview id="namedview8" pagecolor="#ffffff" bordercolor="#666666" borderopacity="1.0" objecttolerance="10.0" gridtolerance="10.0" guidetolerance="10.0" inkscape:pageshadow="2" inkscape:pageopacity="0.0" inkscape:pagecheckerboard="0" />
  <g style="display:inline" id="g4">
    <path class="polygon" d="m24.473 52.93-.102.264-.273.291-.927.42-.966.276-.5-.034-.341-.144-.184-.152-.517-.146-.71-.073-.443.158-.316.15-.276-.025-.208-.125-.159-.193-.21-.606.53-.11 1.146-.042.889.212 1.168.103.894-.29.703.247zm-1.939-2.471.684.381.146.122.056.131-.87.153-.923-.47-.61.111-.23-.222-.003-.138.634-.117zm6.56-9.319-.694.496-.422-.138-.123-.115.215-.387 1.026-.644zm1.556-1.661-1.294.514-.11-.082.834-.447zm-6.177 13.45-.61-.105-.927-.292-1.293.237-.898-.283-.746-.028-.465-.226-.501-.383.355-.25.343-.088 1.367-.048.994.153 1.787.829.452-.006.479-.105-.244-.226-.447-.107-.665-.223-.53-.313 1.245-.101-.173-.162-.163-.277-1.314-.963.224-.26.33-.56.412-.465.328-.125.54-.33 1.171-.964.746-.787.555-.933.814-2.57.24-.437.393-.484.492.09.343.14 1.212-.366 2.08-.95.614-.824.602-.382 2.39-.746 1.32-.223 2.038-.057 1.473-.133 1.768-.048.673.46.391.337.629.187.974.128-.056.665.007 1.314-.072.233-.437.555-.464.995-.125.654-.139.125-1.853-.004-.264.113-.035.142.094.168-.042.168-.146.136.08.217.32.246.587.153.627.014.323-.027.236.176.233.271-.014.341-.091.458-.297.424-.855.488-.383.172-.36.088-.171.13-.081.163.021.144.608.392-.014.09-.177.204-.234.191-1.57.399-.647-.03-.37.198-.115.038-.41-.183-.915-.21-.345.072-.19.116-.576.14-.413.218v.282l.729.73.256.143.014.272.354.342.361.428.042.272-.042.276-.186.39-.633.915-.007.176.056.133.217.037.165.07-.049.122-1.183.635-.152.11-.497-.03-.075.106.07.17.192.151.422.079.363.161.291.315-.381 1.082-1.376-.03-.352-.034-.374-.106h0l-.172-.219-.208-.263.056-.162.624-.458.094-.127-.063-.068.063-.202.48-.683.062-.275-.215-.192-.308-.115-1.005-.203-.479-.286-.221-.25-.223-.07-.33.085-.833.093-.677-.135-.8-.473-.185-.422-.098-.324-.2-.112-.268.166-.34.263-.672.032-.19-.062-.036-.145-.035-.14-.185-.172-.2-.096-.85.485h-.317l-.4-.187-.197-.183-.438.104-.393.226.134.423-.212.078-.484-.039zm7.698-13.994-.653.056-.297-.098 1.575-.278.996-.085.176.039zm4.224-.512-1.38.114-.467-.086-.077-.082.376-.048 1.177-.012.364.071zm2.829-.363-.981.237-.238-.05.056-.068.863-.149zm2.81-.503-.65.023.186-.185.602-.139h.324z" style="opacity:1;fill:#e918db;fill-opacity:1;fill-rule:nonzero;stroke:#505050;stroke-width:.5;stroke-linecap:round;stroke-linejoin:round;stroke-miterlimit:4;stroke-dasharray:none;stroke-opacity:1" transform="translate(-198.341 -35.856)" id="path2" />
  </g>
</svg>
