<?xml version="1.0" encoding="UTF-8" standalone="no"?>
<svg viewBox="-180.25 1.15 18.405 11.057" version="1.2" width="18.405" height="11.057" id="svg6" sodipodi:docname="north_macedonia.svg" xmlns:inkscape="http://www.inkscape.org/namespaces/inkscape" xmlns:sodipodi="http://sodipodi.sourceforge.net/DTD/sodipodi-0.dtd" xmlns="http://www.w3.org/2000/svg" xmlns:svg="http://www.w3.org/2000/svg">
  <defs id="defs10" />
  <sodipodi:namedview id="namedview8" pagecolor="#ffffff" bordercolor="#666666" borderopacity="1.0" objecttolerance="10.0" gridtolerance="10.0" guidetolerance="10.0" inkscape:pageshadow="2" inkscape:pageopacity="0.0" inkscape:pagecheckerboard="0" />
  <g style="display:inline" id="g4">
    <path class="polygon" d="m151.304 116.437 1.079 1.042.591.422.698.32.796.234.285.224.507 1.11.243.42.337.125.081.122.014.16-.38.78-.152 1.746-.096.139-.397-.008-.527.037-.202.135-.212.94-.848.268-.77.152-.65-.035-1.142-.222-.372-.025-.32.127-1.018.067-.447.165-1.05 1.1-1.064.378-.363.192-.812-.243-.39-.025-.562.28-1.234.028-.333.049-.95.044-.042-.151-.176-.221-.443-.104-.906.088-.22-.161-.373-.933-.29-.15-.327-.313-.552-1.014-.014-.444.035-.388-.306-.909.188-.23.284-.144.003-.366-.08-.556.336-1.091.092-.08.086.053.815.087.21-.138.134-.216.042-.798.194-.369 1.971-.702.58-.025.444.322.352.206.213-.006.076-.208.24-.4.404-.228 1.199-.195.014.001.39.038.847-.18.528-.247.269-.037.358-.096.514.014.521.108.662-.142.652-.232.261.058.282.197z" style="opacity:1;fill:#ab31e2;fill-opacity:1;fill-rule:evenodd;stroke:#505050;stroke-width:.5;stroke-linecap:round;stroke-linejoin:round;stroke-miterlimit:4;stroke-dasharray:none;stroke-opacity:1" transform="translate(-318.03 -114.727)" id="path2" />
  </g>
</svg>
