<?xml version="1.0" encoding="UTF-8" standalone="no"?>
<svg viewBox="-180.25 1.15 183.631 92.347" version="1.2" width="183.631" height="92.347" id="svg6" sodipodi:docname="norway.svg" xmlns:inkscape="http://www.inkscape.org/namespaces/inkscape" xmlns:sodipodi="http://sodipodi.sourceforge.net/DTD/sodipodi-0.dtd" xmlns="http://www.w3.org/2000/svg" xmlns:svg="http://www.w3.org/2000/svg">
  <defs id="defs10" />
  <sodipodi:namedview id="namedview8" pagecolor="#ffffff" bordercolor="#666666" borderopacity="1.0" objecttolerance="10.0" gridtolerance="10.0" guidetolerance="10.0" inkscape:pageshadow="2" inkscape:pageopacity="0.0" inkscape:pagecheckerboard="0" />
  <g style="display:inline" id="g4">
    <path class="polygon" d="m30.491-9.518.021.832-.645-.063-.29-.32-.083-.203.049-.481-.145-.496.19-.247.234-.033.417.441zm-.89-5.439-.62.089-.498-.076.178-.668.26-.11.377-.038.405.358zm22.008-15.77-.686.004-.815-.108-.511-.229-.08-.202.941-.251.946-.147.439.276.035.455zm2.577-2.308-.803.016-.483-.156 1.15-.313 1.803-.297.171-.19.219-.022.311.232.042.318-.198.158zm19.324-8.39-.367.194-.815-.156-1.61.12-.649-.19.515-.37 1.453-.389.781.018.795.478zm5.156-5.325-.463.215-.865-.061-.092-.185.246-.37.525-.155.68.03.216.155zm3.791-1.928-.56.02.004-.286.322-.26.51-.174.654-.046.733-.02.222.138-.421.195zm-.628-.99-.648.047.108-.31.524-.293.2-.2.105-.236.463-.179.654.229.014.388-.324.354zm3.863-12.815-1.034.37.377-.676.559-.684.772-.391.384.153-.176.328.003.323-.165.153zM92-65.222l.416.12 1.088-.035.217.045-.154.197-.473.217-.991.134-.446.332-.32.112-.855.001-.505.077-.622.295-.497-.217-.139.154-.09.276-.276.081-.859.1-.21-.643.396-.233.309-.28.475-.042.424.023.765-.6 1.048-.171.675-.019zm9.34-4.744.91.704.416.412-.337.779-.885.392-1.365.07-.957-.032-.604-.189-.075-.212-.348-.062-.92.272-.639.037-.813-.211-.218-.337.863-.424.399-.328.957.029.24.102.54.064.33-.396-.076-.274.24-.19 1.156.137.002-.744.45-.053.183.03.333.156zm3.872 2.673.084.049.954-.674 1.056-.21.063-.235.41-.227-.049-.37.209-.302.539-.08.336-.101.373-.056.674.243.381.27.474.605-.197.585-1.268.456-1.009.206-1.018.524-.512.428-.44.092-.277-.035-.247-.103h-.516l-.568.371-1.715.302-.673-.087-.028-.37-.401.03-.643.444-.628.149-.422.045-.776-.167-2.086.757-1.956.141-.644-.087-.002-.463 1.264-.593 1.037-.411 3.566-.288 2.221-1.22.537-1.327.525-.479-.246-.27-.598-.048-.035-.416.311-.454 1.166-.624.647-.265 1.055-.752.509-.17h.579l.57.198-.103.402-.855.727-1.266.619.154.444.505.366.124.625.028.602-.96.813zm12.199-7.245.841.4.379-.122.744-.046.554.14.453.255.537.012.337.332.171.432-.39.323-.553.147-.15.38.21.534-1.24.182-1.437.082-.562-.255-1.15.467-1.14.73-.548.085-.035-.23-.818-.16-1.048-.01.035-.17.19-.12.905-.18.18-.369-.164-.658.16-.32.035-.22.57-.259 1.944.121.236-.246-.148-.155-1.005-.272.155-.183.725-.163.687-.021.206-.277.035-.12zm87.171-1.404-1.33.205-.153-.169.292-.262.349-.535.546.021.553.205.436.244zm-64.238-2.05-.377.162-.58.066-.31-.1-.445-.067-.492.03-.415-.298.05-.25.567-.34 1.135-.192.918.08.233.098zm-10.669.163.62.38.55-.036.166-.144.375-.07.758.2-.109.343-1.049.433-.753.617-.964.143-.464-.075-.86.357-.691.37-.716.468-.042.24-.111.186-2.622.183-.953.121-1.01-.156-.478-.31.154-.168 1.008-.068.035-.287.254-.175.327-.096.24-.366.398-.096.743.09.501-.265.282-.045.348.22.168-.303-.168-.276.088-.186.96-.485.417-.353.597-.227.577.036.167-.335-.167-.342.063-.224.508-.543.56-.023.257.482zm3.587-1.052.356.082.352-.052.293.073.586.368.63.145.028.186-.577.18-.76.055-.816-.063-.24-.231-.25-.384-.682-.376-.101-.33.593-.052zm26.935-2.329.13.328.05.27-.654.39-1.504.513.086.137-.52.132-.781.097-.413-.094.056-.44-.124-.131-.593.174-.617-.223v-.225l.162-.195.57-.296.951-.204.628.077 2.09-.784.226.164zm2.815-.126-1.333.279-.773-.24-.326-.247-.049-.547.181-.333.625-.172.407.126.109.105.73.103.853.343zm-4.039-1.739-.137.22-.237.213-.573.226-1.66.893-.974.144-.309.14-.39.084-1.21-.123-.356.181-.335.121-.877.047-.515-.039-1.33-.331-.79-.359-.428-.306 1.228.006.438-.074.824.064.495-.314 1.048.037 2.012-.218.738.122 1.688-.732.528.019.808-.209zm31.203.965.705.096 1.518-.281.393.255-.483.637-.082.957-.175.559v.509l.188.273.61-1.084.209-.277.892-.408.332-.822.872-.986.983-.573.572-.157 1.896.022.813.216.718.479.536.191 1.69.204.58.255.109.152.413.03 1.14-.363.74-.06 1.209.566-.243.419.071.133 1.462-.027 1.217.164 2.313.858.24.4-.115.487-3.326.536-1.442.512-2.36.197-8.013-.342.162.37 5.58.81.318.232-.179.487-.003.391.105.267.41.249.683.117 1.388-.062.685.134.468-.199.174-.667.403-.147.779.194.338.712.217.074.392-.508.771.036.84-.043 1.087.086.38.922-.013.321-.18.313-.252.16-.504.068-1.214-.028-1.65-.365-1.065-.344-.332-.014-.142.042.256.345-.07.264-.16.288-.223.262-.312.22-.653.282-1.129.225-3.111.436-.246.192-1.002 1.215-.274.179-.366.151-1.069.196-.517-.27-.415-.41.096-.405 1.25-.777 1.168-.551.33-.191.661-.553-1.342-1.39-2.389-.42-2.72-.639-.998-.34-1.553-.702-1.102-.63-.994-.022-1.093.158-1.706.575-.997.29-.546.085-.132.013-1.22-.164-1.36-.035-1.09.047-.413.08-1.52.931-1.065.47-.586.163-.426.272-.35.448-.78 1.555-.58.587-.13.358.136 1.088-.139.602-.711.497-.5.223-.66.046-.867.127-.756.288-.534.392-.601.88-1.019.324-.973-.092-.694-.325-1.489-.25-1.11-.16-1.245-.346-1.097-.263-1.004-.052-.57.332-.458.312-1.712.254-.969.2-1.258.045-.509-.223-1.824-.146-2.173-.175-.628.002-.196-.397-.578-.554-1.545-.959-.631-.338-1.188-.794-1.386-.813-.196-.02-.927-.028-1.361.027-.862.185-.543.232-.094.192.526.74-.163.185-.272.09-1.235-.209-1.494.014-.375.229-.912.025-2.627.087 1.16.606.383.242.077.357-.2.663-.556.566-.649.46-1.25.458 1.898.451-1.288.61-.603.238-.699-.041-1.251-.211-3.026-.51-1.444-.192-1.29-.06-.69.009-2.738-.437-.53.05-.982.188-.109.425.063 1.056.145.814-.362.47-.362.32-1.096.86-2.464-.585-1.68-.387-1.08.515-2.708.946-1.386 1.867-.08.06-.819.476-1.05.218-.795.108-.463.555 1.08.797.553.42.515.678-.095.432-.12.27-1.161.549-2.475 1.453-2.29 1.517-.939.436.426 1.287-.762.378-1.551.427-.793.164-.855.097-2.623.17.467 1.38.177.61-.004.363-.272.353-.324.675-.489 2.415-.373.26-.517.654-1.661 1.573-1.332 1.045-1.922 1.507 1.563.476 1.428.347.296.534.197.892-.049.607-.545.546-.424.384-.296.187-2.029-.187-2.597-.239-.673-.002-1.511.172-1.364.356-.72.298-.192.119-.908.678L81-33.063l-.888.526.259.726-1.486 1.404.972 1.418.042.046.514.573-.54.37-.226.198.077.655.141.732-.126.43-.049.476 1.323 2.144-.014.503-.063.325-.408 1.334-.549 1.792.958.471 1.363.564.765.222 1.13.669.862.654-.12.434-.248.479-.363.335-.34.46-.152.339-.162.091-1.508.037-.797.128-.417.144.143.774.915 1.417.76 1.008.244.664-.251.674-.259.345-.007.465-.2.924-.588.467-.77.51-.86.38-.682.107-.585.044-.393.194-.357.568-.329.597-1.074.735.028.255.41.87.383.991-.324.927-.277.972-.486.648-.695.231-.51-.115-.577-.889-.014-.204-.143-.272-1.637-.27-.289.01-.643-.16-.377-.044-.774-.092-.644-.784-.683-.653-.098-.272.021-1.22-.209-.543-.063-.592-.43.481.25.761-.531.32-.67.154.064.446.275.085.056.462-.163.685L66.59-.8l-.266.164-.18.206-.675-.137-.864.424-.82.068-.296-.48-1.155-.635-.546.036.49.313.482.408-.275.27-.27.176-.47.09-1.689.534.601.358-.51.407-.59.06-.315.19-.109.258-1.748.735-2.85 1.885-1.463.533-1.023.554-.9-.014-1.134.471-2.867.414-1.903-.187-1.325.164-.71-.324-.092-.223.035-.13.119-.154-.247-.055-.519-.027-.222.156-.028.355-.247.093-.986-.203-.248-.183.355-.37.607-.334-.11-.069-.119-.203-.296-.025-.882.049-.717-.06-2.341-.75-.547-.4-1.888-.64-.846-.677-.48-.743.035-.673.232-1.068.396-.263 1.694.373 1.713.625.269-.03.538-.491 1.044-.394-.296-.108-1.551.451-.577-.25-.895-.51v-.262l.417-.262.139-.355-.219-.335.102-.456.691-.483 1.038-.49.747-.472.768-.291-.08-.097-.878.185-.84.314-.988.527-1.205.427-.89.165-.425.137-.653.133-.675.612-.737.262-1.324.027-.29-.448.373-1.59.4-.775.439-.547.69-.093.482-.401h.4l.35.185 1.348.18.666-.511.866-.075 1.579-.516-.035-.094-1.069.114-.648.016-.929.13-.493-.093-.231-.386.371-.348 1.49-.83.514-.365.294-.34-.05-.231.248-.479 1.457-.836 1.185-.382.39.329-.331 1.028.003.425.938-1.5.413-.356.47-.252 1.139-.169.322-.236-1.326.078-3.215.572-1.356.51-.361.393-.94.592-.442.384-.194.565-.53.306-.715.114-.992.715-.438.576-.987.458-.628.352-.205.126-.34.347-.28.024-.246-.203-.042-.447.1-.714.476-.514.227-.501-.316-.469.218-.296.419.01.777.136.827-.022 1.358-.37-.217-.217-.587-.03-1.095.03-.92-.36-.716-.72-.326-.96.218-.275 2.648-.978.713-.444-.413-.044-.994.539-1.423.334-.898-.465-.467-.5-.268-1.058.097-.543-.112-.714.607-.232.68.123.67.046 1.52-.063 3.35-.428 2.16.254.879-.023 1.343-.369 1.176-.038.879.282.48.324.057.432.406.289.275-.094-.218-.343-.042-.53 3.534-.603.417-.234-1.404-.08-.402-.55.742-.83-.07-.108-.78.438-.384.617.152.492-.154.229-.717.105-1.617.037-1.038-.208-.96-.114-.328-.158.109-.35-.182-.073-.398.315-.353.63-.764.145-2.107-.234-3.05.138-1.368.317-.887-.042-1.525-.555-.596-.44-.222-.89.09-.392 1.188-.165.6.012.563-.21-.497-.137-.7-.268-.478-.538-.719-.175-.482-.458-.123-.693.138-.48.385-.156.924.106 2.438-.081 2.296.489 1.557.277 3.157-.14 1.848-.436-.339-.12-2.005.252-1.853-.01-3.267-.494-1.34-.16-1.443.071-.751-.15-.442-.487.327-.933.684-.202.37.244.448.015.453-.39.433-.222.343-.502 1.294-.476.547-.04.784-.22.5.062.32.22.406.183.879-.023 2.597-.381.28-.112.506-.314-1.647.14-1.367.223-.88.061-.123-.278.324-.246.509-.263.247-.447.561-.191.606.01 1.252-.081.884-.116 1.515.078 2.259.17 1.456.417.548-.038.581-.11.263-.152-1.143-.173-.063-.246.142-.186 1.864-.342 2.036-.076-.35-.276-4.46.416-1.164-.284-.919.002-.601.162-1.715.197-.315-.14.326-.482 1.027-.792.086-.194.476-.19 2.664-.46 1.28-.533.577-.068.572.037.87-.063 1.681.153.774.668.696.21 2.188.835-.098-.24-1.894-1.131-.724-.28-.54-.556.185-.525.61-.35 2.16-.188.388-.202.042-.349-.331-.238-.795.014-.656-.148-.18-.375.262-.253 1.246-.463.682-.15 1.182-.163 2.054.366.156.192-.576.46.056.26.504.028 1.173-.777 1.38-.107.57-.168.662-.105.947.703.415.225.312.092.302.586.293.03.417-.293.756-.154 1.06-.102 1.757.155.795-.115.39.016-.374-.525-.232-.152.362-.469.377-.183 1.214-.33 1.157-.146.755-.313L74.48-34l-.16-.23-.282-.266-.656-.017-.268-.145.833-.345 1.141-.384-.199-.15-.857-.171-.652.128-.969.297-1.126.47.366.136.565.394-.787.525-4.17 1.395-1.989.408-.917-.064-.218-.38-.424-.283-.453-.58-.772.015-.438.128-.191-.19.332-.62.653-.491 1.095-.37.525-.448.494-.71 1.584-.676 2.305-1.67 1.879-.534.688-.582 1.107-.258.945-.455.741-.044 1.348-.41.763-.486-.498-.03-1.185.316-.67.128.05-.522.324-.536.976-.49 4.692-1.421.469.235.56.416 1.413-.094 1.61-.805 1.24-.874-.67.152-.732.358-1.425.497-.659.079-.376-.065-.21-.331-.493-.108-.447.074-.46-.235-.082-.583.589-.867.466-.573.504-.435 1.98-1.231.428-.673.896-.354 1.163.079.351-.103-.399-.44-1.268-.35-.078-.22 4.223-.576 2.012.02.597-.287 1.093-.185.828-.351-.427-.155-2.042.323-1.277.152-.578-.005-.45.11-1.633.043-.355-1.4.256-.76.608.015.138-.726.703-.427.97-.096.489-.183.706-.372 1.168.086 1.2-.083-.297-.175-1.49-.226-.368-.388.526-.217.572-.159.503-.028.995-.758.605-.323.677.056.944-.334.926.114.896-.218 1.224-.145 4.481-.056.133-.31-.942-.071-3.33-.08-1.7.006-.716.08-.263-.107.049-.186.618-.293.293-.324 1.236-.79 1.448-.527 1.11.134 1.18.503.842.063.392.163.613.694.29.023-.13-.668.81-.542-.211-.15-1.218.196-.934-.204-.737-.408-.21-.372.458-.368.431-.186-.293-.216-1.841.58-1.303.134-.513-.08.278-.526-.156-.416 1.747-1.025.6-.118.981.082.885.29.74-.047.804-.155-.11-.277-1.741-.11-.449-.23.162-.226 1.196-.238 1.188-.431 1.363-.125 1.096-.325.212.073.185.128.394 1.208.98.985.361.036-.376-.838.35-.241.445-.183.139-.209-.51-.071-.416-.3-.595-.956.203-.249 1.288-.51 1.617-.117 1.723.357.605.004.998-.096 1.695-.293.997-.112h.52l.128-.148-.481-.095-.156-.093-.378-.053-1.566.159-4.323-.05-.417-.17-.076-.294.458-.42.504-.232 1.63-.417 1.725-.057 1.818-.741.694-.556.395-.857 1.108-.692 2.778-.394.112-.174-.295-.36.021-.649.762-.755.506-.262.234-.032.599.247.727.525 1.14.3 1.495.053.398-.148-1.162-.3-.879-.392-.07-.393.418-.209.648.024.813-.045.758-.264.11-.186.028-.252.19-.257 1.112-.612 3.428-.398.248.161-.185 1.181-.394.764.014.559.667-.559.894-1.528.672-.717.759-.412.541-.093.537-.214.708-.126.217.163.224.38-.381 1.335.035.422-.427.566-1.634 1.261.075.161.369-.06.633-.208 2.023-1.198 1.77.152.02-.099-.567-.351-.693-.337-.209-.416.093-1.111.533-.44 1.528.046.915-.061.427.2.917-.015.634-.796 1.254-.07 1.101.526 1.326.354 1.065.51.301-.14-.575-1.187-.628-.433-1.365-.225-1.452-.534-.378-.236.07-.176 1.28-.17 1.691.194 1.507-.444.412.122 1.155-.233.718.313.44-.093.255-.419 1.843-.26 1.17.24.626.249.292.477.445.945.914.51.567.25.672.069.324-.255-.63-.307-.169-.288.302-.717.352-.282 1.973-1.066 1.651-.553.99-.046 1.729-1.24.49-.225.45-.051-.115-.304-.947-.191-.035-.376 1.248-.456 1.514-.767.747-.051.468.213 1.474.345.903.397.654.2.425-.042.352-.298.422-.14.937.08.56.19.435.026.394.116.093.254-.811.278-1.381.736-1.364.837-.45.44-.44 1.159-1.065.74-.08.52.427.245 1.176-.193 1.45-.693.361-.735 3.623-1.994 1.7-1.1 1.932-.912 1.08-.188.51.603-.41.788-.82.503.604.23-.115.598-.189.332-.12.347.007.307.568-.082 2.262-.628.573-.68.532-.509.255-.44.88-.416 1.66-.003.063-.164-2.007-.578-.236-.26.675-.347 1.858-.662.955.073.57.15 2.287.115 1.754.474-.07.74-.391.31-.385.191-2.247.563zm-16.182-3.25 1.87.268.64-.005.929.5.484-.043-.092.306-.938.145-1.459.088-.218.06-1.247-.048-.7-.412-1.17-.102.003-.132.757-.31z" style="opacity:1;fill:#2b96e2;fill-opacity:1;fill-rule:nonzero;stroke:#505050;stroke-width:.5;stroke-linecap:round;stroke-linejoin:round;stroke-miterlimit:4;stroke-dasharray:none;stroke-opacity:1" transform="translate(-208.483 86.76)" id="path2" />
  </g>
</svg>
