<?xml version="1.0" encoding="UTF-8" standalone="no"?>
<svg viewBox="-180.25 1.15 70.357 41.219" version="1.2" width="70.357" height="41.219" id="svg6" sodipodi:docname="poland.svg" xmlns:inkscape="http://www.inkscape.org/namespaces/inkscape" xmlns:sodipodi="http://sodipodi.sourceforge.net/DTD/sodipodi-0.dtd" xmlns="http://www.w3.org/2000/svg" xmlns:svg="http://www.w3.org/2000/svg">
  <defs id="defs10" />
  <sodipodi:namedview id="namedview8" pagecolor="#ffffff" bordercolor="#666666" borderopacity="1.0" objecttolerance="10.0" gridtolerance="10.0" guidetolerance="10.0" inkscape:pageshadow="2" inkscape:pageopacity="0.0" inkscape:pagecheckerboard="0" />
  <g style="display:inline" id="g4">
    <path class="polygon" d="m132.126 31.42.278.085 1.961.092 1.987.093 3.196.098 3.33.104 3.456.108 3.74.116 3.944.068.24-.046.403-.273.491.037.58.169.271.126.115.143.072.166.317.033.58.126.783.288.615.279.585.399.193.451.014.511-.035.33.05.133.8 2.384 1.332 2.298.489 1.112.195.592.156.859.05.603-.007.34-.1.466-.395.275-2.556.789-.48.247-.754.615-.694.634-.16.216-.042.143.154.207.91.34.92.272.3.204.677.261.247.235.133.204-.007.472-.305.652.128.494-.31.328-.256.365-.035.64.46.706.374.483.146.378-.155.297.05.297.334.315 1.059.972.522.936.334.365.77.474.07.194-.308.178-.25.024-.202.047-.13.167.202.178.273.261.338.74-.035.607-.26.154-.335.36-.226.329-1.826.229-.44.352-1 .68-.682.392-1.01.707-1.596 1.217-.589.508-.43.421-1.292 1.12-.397.47.078.388.415.91.088.41-.073.38-.137.337.02.15.382.245.608.385.035.13-.086.167-.21.127-.76-.135-.848-.26-.29.031-.458-.06-1.894-.504-1.277-.394-.126-.256-.241-.37-.543-.311-1.246-.27-.508-.21-2.024-.117-.878-.005-.622.086-.397-.008-.548.55-.377.159-.552.016-.482-.097-.493-.29-.79-.152-.571.074-.42-.063-.364-.015-.126.058-.292-.008-.424.138-.462.196-.51.148-.392.32-.35.626-.99-.28-.33.121-.468.082-.319-.085.075-.215.144-.244-.007-.34-.092-.375-.306-.122-.461-.045-.238-.074-.028-.124-.235-.16-.408-.403-.386-.501-.266-.15-.388.24-.588.27-.365.094-.705.78-1.268.027-.077-.364-.133-.35-.742-.088-.021-.205-.157-.515-1.486-1.009-.18-.42.055-.163-.103-.268-.323-.161-1.174-.192-.303.11-.273-.113-.427-.241-.742-.197-.08-.101-.268-.173-.148-.023-.096.105-.217.148-.763.188-.305-.077-.276-.163-.316-.352-.458-.308-.378-.109-.216-.162-.049-.125.84-.253.183-.26-.107-.476-.126-.059-.333.16-.7.142-.647.065h-.33l-1.842-.865-1.199-.264-.704-.077-.077.088.32.485.55.598-.028.16-.66.245-.375.106-.442.208-.373.287-.324.13-.279-.033-.297-.138-.764-.885-.96-.678-.114-.152-.3-.035-.424-.156-.143-.207.213-.217.292-.198.519-.122.157-.115.093-.173.192-.224-.05-.08-.367-.254-.544-.24-1.51.18-.415.128-.234-.167-.177-.244-.382-.046-.523-.222-.62-.218-.607-.064-1.26-.315-.485-.017-.281-.108-.293-.238-.25-.26-.129-.53-.928-.24-.926-.15-.063.077.035.533-.049.284-.61.177-.604.017.035-.089.722-.96.325-.604.37-1.104-.445-.87-.124-.408-.207-.196-1.269-.424-.096-.147.194-.576-.097-.241-.305-.256-.402-.508-.156-.431.512-.507.127-.372.223-.51.163-.28.028-.077-.336-.199-.086-.279.091-.402-.178-.297-.45-.194-.292-.255-.135-.319.106-.5.347-.682-.737-.82-1.823-.958-.875-.67.072-.382.383-.347.697-.31.528-.552.297-.654.007-.124.014-.468-.811-1.91-.132-.479-.096-.576-.05-.158 1.602.405.67.227-.082-.255-.136-.22.09-.324-.043-.488-1.452-.248-.96-.085-.109-.338.093-.219.265.13.944.05 2.321-.656 4.009-.85 4.28-.8 1-.086 1.005-.168.371-.299.37-.2.584-.526 1.289-.819 2.28-.298.85-.388 1.785-.544 4.067-.61 1.699-.134 1.665-.016 1.482.48 1.568.595.282.358-.849-.223-1.237-.534-.457-.022 1.056 1.623.578.574 1.167.429.98.145 3.015-.26 1.071-.34z" style="opacity:1;fill:#3fe130;fill-opacity:1;fill-rule:evenodd;stroke:#505050;stroke-width:.5;stroke-linecap:round;stroke-linejoin:round;stroke-miterlimit:4;stroke-dasharray:none;stroke-opacity:1" transform="translate(-273.79 -27.37)" id="path2" />
  </g>
</svg>
