<?xml version="1.0" encoding="UTF-8" standalone="no"?>
<svg viewBox="-180.25 1.15 23.372 36.424" version="1.2" width="23.372" height="36.424" id="svg6" sodipodi:docname="portugal.svg" xmlns:inkscape="http://www.inkscape.org/namespaces/inkscape" xmlns:sodipodi="http://sodipodi.sourceforge.net/DTD/sodipodi-0.dtd" xmlns="http://www.w3.org/2000/svg" xmlns:svg="http://www.w3.org/2000/svg">
  <defs id="defs10" />
  <sodipodi:namedview id="namedview8" pagecolor="#ffffff" bordercolor="#666666" borderopacity="1.0" objecttolerance="10.0" gridtolerance="10.0" guidetolerance="10.0" inkscape:pageshadow="2" inkscape:pageopacity="0.0" inkscape:pagecheckerboard="0" />
  <g style="display:inline" id="g4">
    <path class="polygon" d="m-62.325 119.895.148.056.407-.016.724-.263.49-.223.172.092 1.423-.125.34.101.224.112.7.154.763.016.945-.215.412-.216.08-.239.02-.18.122-.116.216-.066.336.118.48.095 1.155.038.226-.132.391.04.516.167.597-.054.3.205.125.272.035.592-.042.599.118.22.402.057.651-.007.585.163.455.282.15.29.062.199-.222.113-.315.426-.797.557-1.14.502-.869.625-.599.747-.75.317-.228.17-.09.203.495.916.153.706.122.864-.08.244-.042.952-.115.28.028.225.183.243.082.232-.341.297-.627.344-.464.303-.125.283.035.177.78.6.142.245-.106.593-.45.971-.428.591-.075.059-.492.167-2.355.007-.571.134.08.118.554.76.577.405.19.092.209.889.933 1.42.906.197.315.355-.056.498-.278.548-.556.56-.661.395-.431.392-.035.456-.137.578-.21.458-.048.308 1.656 1.935.921-.094.12.045-.164.462-.292.54-.347.103-.791.166-.748.7-.606.84-.455.407-.418.999.05.433.202.67.427 1.74-.612.077-2.384 1.138-.739.002-1.38-.5-2.432-.162-.793-.149-.99.327-.766-.008-.608.418-.438-.114.5-.937.786-1.853-.028-1.131.186-.983-.215-.973-.394-.608.537-1.576-.063-.811-.492-1.029 1.49.157-.46-.407-.454-.25-.44.057-.372-.015-1.268.399-.635.119-.186-.07.07-.635-.33-.825.509-.217.591-.063.503-.351.31-.392-.163-.701.437-.666 1.025-.56-.531.085-.608.35-.957 1.27-.313.643-.816.21-.73.104-.375-.067-.448-.164-.042-.475.035-.38.303-.752.12-1.062.43-.952-.027-.253-.123-.378.386-.37.477-.244.722-.816 1.01-1.946 1.163-2.065-.094-.253-.247-.194.098-.557.701-2.426.286-.317.329-.711.074-1.148.129-.791-.028-.398-.104-.477-.446-.911-.471-1.928-.035-.643.387-.325-.637-.048-.288-.416.063-.472.708-.763.659-.472.653-.31.361-.116 1.509-.32.395-.156.371.025.063.153.215.298.24.206.063.152-.583.638-.08.218.304.413z" style="opacity:1;fill:#912fd5;fill-opacity:1;fill-rule:nonzero;stroke:#505050;stroke-width:.5;stroke-linecap:round;stroke-linejoin:round;stroke-miterlimit:4;stroke-dasharray:none;stroke-opacity:1" transform="translate(-108.531 -116.272)" id="path2" />
  </g>
</svg>
