<?xml version="1.0" encoding="UTF-8" standalone="no"?>
<svg viewBox="-180.25 1.15 66.742 32.649" version="1.2" width="66.742" height="32.649" id="svg6" sodipodi:docname="romania.svg" xmlns:inkscape="http://www.inkscape.org/namespaces/inkscape" xmlns:sodipodi="http://sodipodi.sourceforge.net/DTD/sodipodi-0.dtd" xmlns="http://www.w3.org/2000/svg" xmlns:svg="http://www.w3.org/2000/svg">
  <defs id="defs10" />
  <sodipodi:namedview id="namedview8" pagecolor="#ffffff" bordercolor="#666666" borderopacity="1.0" objecttolerance="10.0" gridtolerance="10.0" guidetolerance="10.0" inkscape:pageshadow="2" inkscape:pageopacity="0.0" inkscape:pagecheckerboard="0" />
  <g style="display:inline" id="g4">
    <path class="polygon" d="m192.372 94.482.736.723.935.384 2.166.407.193-.048.02-.076-.15-.105-.021-.136.105-.165.299-.008.49.148.931-.214 1.373-.577 1.261-.117 1.148.342.59.398.377.378-.117.467-.073.29-.303 1.205-.21.45-.336.504-3.564.6.23-.288-.084-.507-.15-.381.333-.346-.802-.125-.351.19-.274.33.243.76-.39.42-.15.236-.014.556-.23.241-.043.262.569-.068-.255.48-1.068.924-.376.55.092 2.183-.475 1.305-.035.386-1.134.012-.337-.03-1.072-.196-1.204-.347-.708-.673-.453-.482-1.02.218-.194-.058-.279-.233-.769-.156-.95-.003-2.132-.88-.237-.148-1.674.148-2.51.436-1.913.537-1.977.957-.802.726-.93.385-1.323.287-2.361-.108-2.46-.365-2.644-.392-1.427.217-1.932-.163-2.913-.468-2.17-.142-2.139.276-.36-.211-.078-.241.083-.342.301-.276.518-.208.274-.212.028-.215-.582-.345-1.191-.476-.49-.298-.121-.073-.035-.268-.247-.21-.463-.153-.358-.277-.253-.402.056-.38.362-.355.462-.154.565.048.236-.1-.095-.25-.552-.318-1.01-.387-1.03.21-1.047.809-.756.131-.462-.546-.824-.323-1.183-.102-.73-.209-.273-.314-.517-.243-1.142-.256-.014-.246.186-.058.404-.023.544-.052.087-.14.006-.126-.428-.162-.434-.11-.226-.11-.145-.122-.028-.127.128-.087.173-.006.174-.075.097-.295.233-.244.168-.086-.014-.18-.174-.168-.238-.144-.348-.088-1.087-.254-.55-.353-.335-.012-.533-.196-.574-.307-.497-.435-.537-.283-.14-.115-.013-.11.099-.122-.003-.133-.142-.427.095-.452-.028-.423-.005-.191-.104-.058-.093.063-.133.081-.13.015-.396-.309-.5-.63-.34-.21-.663-.29-.555-.243-.4-.526-.418-.405.274-.171 1.59-.238.74.234.331-.085.325-.19.177-.151.035-.161.16-.202.538-.094 1.42.122.572-.281.213-.154.13-.338.149-.272.51-.145-.008-.248-.077-.27.297-.603.18-.248.287-.09.348-.19.602-.395-.14-.344.122-.254.628-.62.48-.598-.007-.3.07-.261.422-.287.446-.373.587-1.165.21-.196.385-.222.287-.22.028-.765.268-.221.518-.248.512-.4.417-.47.322-.22.426-.06.462-.184.517-.07.5.091.32-.047.478-.229 1.225-.864.174-.173.254-.12.993-.295.252-.298.34-.268.442.02 1.44.662 1.543-.042.282.025.091.014.188.054 2.05.328.319-.036.087-.027.826.271.729-.035.693-.188.722-.064.663.112.505.382 1.309.81.388.301.6-.044.663-.15.67-.543 2.063-.614 1.575-.151 1.536-.246 1.778-.175.514-.503.285-.342.201-.633.957-.184.91-.13.326-.08.664-.024.514.054.796.312.559.393.22.312.477.44.502.618.552.823.121.417.209.45.413.547.786.606.109.115.357.428.687.946.575.378.503.412.24.415.361.377.843.499.683.453.547 1.305.383.6.244.459-.118.929.152.397-.313.726-.563 1.463-.136 1.162.097.627.014.402.136.257.15.53.027.462-.202.132-.284.11-.109.095.26.21.355.387z" style="opacity:1;fill:#1b5dd4;fill-opacity:1;fill-rule:evenodd;stroke:#505050;stroke-width:.5;stroke-linecap:round;stroke-linejoin:round;stroke-miterlimit:4;stroke-dasharray:none;stroke-opacity:1" transform="translate(-316.583 -73.391)" id="path2" />
  </g>
</svg>
