<?xml version="1.0" encoding="UTF-8" standalone="no"?>
<svg viewBox="-180.25 1.15 209.324 201.778" version="1.2" width="209.324" height="201.778" id="svg6" sodipodi:docname="russia.svg" xmlns:inkscape="http://www.inkscape.org/namespaces/inkscape" xmlns:sodipodi="http://sodipodi.sourceforge.net/DTD/sodipodi-0.dtd" xmlns="http://www.w3.org/2000/svg" xmlns:svg="http://www.w3.org/2000/svg">
  <defs id="defs10" />
  <sodipodi:namedview id="namedview8" pagecolor="#ffffff" bordercolor="#666666" borderopacity="1.0" objecttolerance="10.0" gridtolerance="10.0" guidetolerance="10.0" inkscape:pageshadow="2" inkscape:pageopacity="0.0" inkscape:pagecheckerboard="0" />
  <g style="display:inline" id="g4">
    <path d="m218.807-77.036-.11.287.424.547-.218.177-.834-.164-.643.123-.847.657-.834.177-.67.042-2.817-.547-1.257-.11.383.93-.014.314-.178.315-.26.164-.506.069-1.203-.028-1.655-.369-1.066-.342-.328-.014-.15.042.259.341-.07.26-.164.301-.218.26-.314.219-.656.273-1.121.232-3.118.438-.246.191-.998 1.217-.274.178-.369.15-1.066.191-.465.082-1.45.342-.888.233-1.066.164.274.232 1.777.041.274.07.19.108.043.192-.191.287-1.9 1.64-.07.342.628.957.875 1.135 2.638.506 1.97.397 1.27.93 2.079 1.216 1.107.465.056.137-.328.847-1.326.848-1.258.71-1.285.862-1.012.738-1.094.875-.123.288-.028.273.191.3 1.395 1.067.546.547.656.602.561.642.328.588.561.56.342.288.588.41.697.602.232.478 1.053 1.654.11.424-.057.301-.465.082-1.025.055-1.108.205-.056.068.725.383-.642.67-.096.957-.684.506-.056.11.028.095.123.082 1.258.137.109.136.014.274-.123.26-.629.191-.684.287-.15.26.014.246.232.396.452.452.574.3 2.023.274.26.219.123.314-.042.3-.943.616v.232l.382.561.465.547 1.983.588.683.314.178.26.096.41-.014.451-.151.397-.615.506-1.436 1.011-1.449.397-.082.082.438.328 2.543 1.285 1.654.615 2.242.807 1.45.656.464.465.615.52.711.41.506.369.191.246-.014.246-.683.766-.383.587-.684.875-.684.602-1.764 1.107-2.584 1.368-.601.41-1.217.724-2.078 1.463-.533.315-1.696 1.162-.779.369-.615.342-1.682 1.093-1.805.834-1.777.766-.533.397-.67.3-.793.287-.328.15-1.791 1.067-2.475 1.463 2.666-.246 2.338-.738.451.164.506.3-.07.465-.123.37-.916-.342.219.396.847.752 1.176.315 1.805.97 2.105.11 1.395-.178 1.052.041 1.067.52.724.67.588.164.793.314-.109.37-.246.218-3.172-.574-3.65-.315-.48.274-.464.424-.218.328-.247.178-.56.123-.835.027-1.011-.069-.588-.232-.451.246-.218.574-.63.287-.847-.232-.574-.424-.506.027-.314.397.232.547.123.656-.355.479.369.218.465.356.136.205-.164.11-.465.109-.109.11-.205.177-.547.027-.287.137-.341.601-.643.985-.943.752-.766.41-.341.314-.205.37-.056.382.724 2.092v.37l-.178.382-.123.396.11.342.478.588.506.861.205.561.342.205.328.15.07.096-.014.096-.164.11-1.476.286-.191.246-.164.274-.643.41-.19.383-.124.437-.014.15.82.028.287.11.192.546.943.438.862.355.232.164.07.328-.056.37-.109.19-.369.22-.314.56-.042.547-.506.916.109.027 1.053-.177.3.095.233.206.07.587.356.26.341.41.123.315.656.383.07.246.397.861.163.506.07.383-.191.492-.178.328.943.615.232.014.534-.232.096-.014 1.107-.027.506.218.37.41.355.328.383.096 1.066-.424.588-.136.396.014 1.367.369.643.205.15.178.015.218-.178.328-.137.356.41.41.493.287 1.039-.465.368-.136h.425l.56-.178.397-.26.396-.082.738.055 1.34-.055 1.558.397.124.136.779.479.274.232.26.082.41.233.56.15.383-.055.191.082.164.178.014.314-.056.903-.274.26-.287.205-.07.164.028.205.438.383.574.601.136.342v.26l-.779.78-.26.177-.178.383-.095.383.056.15 1.298.615.957.328.219.164.028.11-.52.656-.042.178.766.26.424.437.383.697.725.67 1.572.588 1.148.396.233.178.082.205-.082.465-.301.56-.191.301.465.137 1.189-.041 1.463.11 1.75.628v.274l-.178.246.123.273.191.219 1.518.697.137.205.028.328-.042.246-.424.055-.465.11-.752.3-.3.41-1.231.588-.766.26-.601.014-1.436-.123-.506-.287-.218-.26-.547-.123h-.738l-1.026.041-.205.082-.163.315-.424.547-.314.314.26.191.396.383.629.506.656.451.205.274-.014.191-.301.232.042.452.629.615-.206.095-.07.739v.793l.178.191.342.164.274.287.478.67.042.178h.137l.642.205.698.164.464.014.574-.041.656-.219.465-.219.56-1.107.192-.164.314-.082.506-.014.957.205 1.135.191.656-.027 1.736-.588.971-.096 1.149.137 1.134.014.848-.082.588.205.724.451.656.657.684 1.244 1.996 1.394.028.274-.163.164-.971.178-.834.095-.042.233.218.26.383.382.056.479-.028.45.164.397.314.164.042.206-.355.246-.11.15.15.069 1.792.054.889.233.656.218.341.028.752-.15.861-.083.52-.014.19.164.165.41.3.424.274.123.507-.027.287.027.163.15-.177.247.042.26.218.314.26.738.246.22.15.286v.315l-.19.273-.137.219.136.506.534.56.396.137.328.492.574.164.862-.41.655-.232.82.123.766.082.507.287.382.396.438.22.437-.124.916.123.424.315.41.177.547-.26.437-.314 1.6-.342.998-.082.287-.068.574-.233.629-.164.546.055.561.492.56.342.165.533.697.738 1.722 1.026.67.3.465-.054.232-.082.11-.096.109-.506.218-.177.342-.014 1.353.628.711.07h.67l.902.491.985.41.765.042.616-.164.41-.096.26.164.245.355.397.274.464.082.656.027 1.149.533 1.08.547.67.042.574-.165.506-.04.341.136.11.232-.26.328v.451l.479.438.014.437-.137.383-.274.37-.655.492-.616.45-.902.192-.52.205.137.342.342.314.765.26.875.178.11.205-.137.11-.56.095-.78-.096-.26.178-.355.301-.247.533-.178.506.848.123.492.205.15.41.178.465.042.41-.273.192-.014.205.136.11.356.04.273.096.028.205-.533.493-.492.93-.274.491.028.547-.3.301-.547.027-1.873.042-1.627-.028-.698-.068-1.107-.055-.547.137-.724.861-.547.328-.902.315-.998.082-.574.355-.191.56-.028.493-.082.246-.219.219-.082.15.056.164.233.069.274.082v.123l-.11.15-.3.164-.151.26.028.287.07.301 1.887-.588.642-.437 1.299-.164-.178.177-.642.178-.643.424.807.054 1.818-.232.67-.67 1.203.027.342.479.341.656-.028.246-.123.192-1.012.136-2.283.82-1.19.233-1.34.424.342.56.082.48-1.093-.097-.793-.164-.493.082-1.34.506-.71-.11-.711-.013.3.724.739.875.451.164.698-.082 1.654 1.067 1.244 1.066-.642.069-.616-.11-.902.014-.356.643-.369.479-.07-.247.028-.328-.424-.218-.56.314-.656 1.422-1.19 1.012-.41.629-.014.464.178.082.26-.014.013.41-.19.37-2.68.464-.356.274-.765-.219-.875-.56-.794-.301-.506.11-.506.273.287.164.342.054.916.356-.479.26-1.777.464.056.247.164.164 2.05.41 1.832.683.547.465.479.82.41.37.588.273.547.178.93.068 1.025-.273 2.31 1.955.903.328 2.27.383.573.219 4.28 2.734 1.312 1.19 2.502 1.777.738.369.315-.451.423-.479.465-.11 1.34.179 1.23.218.902-.15 1.08.383.985.424.984.314 1.928.287.725.397.834.396 3.28.205.275-.068.232-.055 1.107-.15.971.027 1.04.492.655-.027.697-.082.903.26.71.287.07.3.63.424 1.804.643 1.476.37.452.259 1.12.424.11.136-.028.165-.314.328-.082.273.15.164.465.164.916.028.329-.206.697-.136.67-.26.916-.355 1.23-.315h.492l.479.096.328.177.561.643.56-.902.137-.069.506.178.903.26.615.136.341.178.944.834 1.531-.041.656.123.342.137.163.164-.273.82-.383.861.028.205.615.328.834.342.452.274.314.246.656.191.78.11.368.014.383.205 1.012.396.123.096.752.15.109.397.136.095.301-.054.52-.164.424.123.533.492.739.506.396.342.15.232.383.232.547.274.437.424.397.984.396.232 1.422.37.492.082 1.394.123.492-.096.711-.848.656-.875.602-.177 1.093-.424.643-.397.287-.424.615-.82.37-.451-.67-.424-.356-.137-.287-.205-.574-.888-.52-.698-1.039-1.216-1.805-1.819-.369-.219-.287-.246-.136-.916-.52-.642-.738-.451-.287-.233-.177-.246.355-1.285-.014-.356-.15-.779.136-.902.41-1.23.425-.835.123-.56-.588.355-.697 1.955-.233-1.572-.479-1.49-.383-.78-.533-.615-.752-.492-.697-.574-.752-.3-1.135-.233-.232-.219-.096-.37.07-.396.274-.67.6-.437.808-.451.19-.3.137-.343.246.26.314.15.219-.628.328-.438.424-.383.52-.875.382-.478.274-.547.164-.875.287-.096.232-.15.191-.246.096-.274-.028-.506-.424-.547.11-.054.204.096.452.273.423.355.11-.505.355-.206.45.137.452.027 1.559-.41.752-.11.683-.286 1.613-1.094.342-.055.369.055.342.191.368.123.274-.054.137-.164-.315-.397-.123-.369-.028-.396.41-.096h.48l1.886-.629.218-.273.096-.37.848-.068-.096-.314-.328-.082-1.586-.657-1.286-.465-1.148-.41-.178-.068-.314-.205-.22-.315-.055-.342.123-.246.274-.164.328-.054.287.054.328.15.588.178.752.042.465-.15.056-.343-.889-1.257-.82-1.012-.793-1.135-.341-.41-.971-.957-.97-.93-.753-.834-.41-.26-1.217-.095-2.351-.205-.82-.11-.67.26-.656.191-.63-.369-.506-.587-.26-.493.124-.506.056-.751-.383-.739-.424-.369-1.052-.273-1.354-.616-.356-1.134.656-1.614 1.053-1.148.766-.492.355-.41.124-.37-.096-.341-.452-.37-.697-.355-.356-.45.137-.944.465-1.367.724-1.094.957-.602.834-.424.329-.41.014-.574-.014-.533.218-.397.342-.314.369-.273.519-.315.684-.082.738.26 1.012.67 1.476 1.312.834.862.315.273.765.52.697.205 1.163-.328 1.107-.37.356-.246.232-.355-.178-.602-.232-.396-.247-.506-.341-.875-.233-1.38-.287-.438.205-.042.561.082.52.042.724-.301 1.026-.574 1.845-.875.396-.575.315-.656.042-.027V-62.941l-1.955.492-1.409.11-.792-.11-.602-.177-.41.15.465.328.806.67-.314.355-1.258-.109-2.625.314-2.83.465.056.492.178.424-.479.684-.492.56-.41 1.614-.383.492-1.107.314-5.647.739-.97.041-.41.137-.315-.137-1.053-.164h-1.504l-.683-.069-.697-.273-.93-.684-1.34-1.38-2.953-.684-1.394-.465-.274-.438.274-.45 3.035-1.477 1.08-.479 4.525-.424 1.778-.041 1.832-.178-.056-.847-1.777-1.04-1.887-1.216-1.873-1.313-2.612-.465-3.09-.232-6.316.26-.888-.055-4.034-.916-.41-.014-.56.069.177.26.315.191 5.359 1.969.246.506.15.697-.081.3.123.288-.042.533-1.326 2.27-1.258 1.613-.423.779-.096.52.506.464 1.545.15 1.517.466.78.67.177.464.056 1.012.37.848-1.204 1.34-.67.52-.875 1.202.342.862-.096.328-.191.396-.615-.287-.506-.342-.698-.3-.752-.124-.793.082-.574.164.056-.341.725-.547-.355-.287-.37-.206-2.214-.656-1.6-.041-1.394.069-1.422-.082-1.067-.424-.957-.22-.724-.04-.889.382-2.119 1.45-2.133.943-2.803.725-2.105.232-.574.164-1.258.834-1.299.656-3.582 1.067-.246.45-.218.602.341.684.683.67 1.723 1.34.97.451.67.725.48.82-.26.164-1.422-.205-1.026.096-1.462.56-.11.233-.519.56-1.34.041-3.596-.998-3.09-.506-.505-.04-.684-.247-.219-.205-1.285.041-.78-.027-.751-.164-3.363-1.613-2.721-.602-.629-.014-1.176.164-.67 1.299-.93.369-.833-.027-.042.642.356.383.314.287 1.012.465 1.9 1.367 1.012.56.738.22.984.027 2.174-.164.711.219.78.328.163.779.588.82.07.451-.725.534-2.324.396-1.353.56-.479-.027-2.79-.642-1.831-.246-2.434-.41-.451-.22-1.08-1.08-2.42-1.025-1.08-.3-1.504.218-1.04-.11-1.735-.546-1.163-.834-.082-1.025.329-.233.328-.123-.834-.3-.028-.794-.178-.506-.916-1.285-.957-.765-.902-.82.97-.424.493-.383.697-1.08.136-.356.301-.369.11-.342-.042-.328-.67-.615-2.037-1.23-2.01-.684-3.828-.67-1.053.041-.383-.095.807-.123.82-.26.438-.41-.971-.205-.78-.096-1.326-.328-.232-.287.287-.22-.314-.532-1.75-.164-.465-.123-.042-.178-1.19-.574-1.572-.616.274-.615-1.135-.437-.97-.328-1.532-.11-.615-.219 3.54.055 3.706.465-.314.178-.26.273 1.08.793 1.04.451 2.323.56h.287l.506-.136 1.149.232.943.315 1.764.014 2.133.369-.137.15-.246.11.601.45.889-.068 1.504-.355 3.773 1.271 1.053.233 6.015.656 2.776.055 1.504.15 2.173.328 2.338.67 1.9.232 3.487.219 1.791-.027 4.443-.438 5.702-1.176 2.925-1.025 4.676-2.666.601-.615.547-1.45.042-.615-.684-.054-.888-.342v-.834l-.52-.41-.656-1.887-1.394-.205-.78-.219-.902-.11-1.025-.3-1.217-.766-1.19-.505-.984-.698-.601-.26-.451-.081.314.355.233.37-1.778-.083-5.168-1.777-.875-.137-.341.164-1.586-.246-.52-.41-4.388-1.941-7.78-2.174-5.318-1.326-3.978-.588-.397.068-.41.247-1.162.068-1.012-.041-3.582-.533-.86-.069-3.815.027-.41.137-1.34 1.121-.711.219-1.34.205.383-.328.916-.246.601-.807.028-.342.328-.437-.07-.356-.478-.109-.903.11-1.941.423-.26-.11.547-.437-.137-.164-.82.069-1.723-.205-1.818.068-.328-.52-1.19-.3-.492-.246.601-.3 4.047.478 1.121.027.561-.164.123-.315-.028-.355-.465-.219-2.638-.369-1.217-.437zm120.668 3.09-1.915.013-.751.11-1.49.41-1.532.629-.656.533-.164.602-.109.615-.014.383.11.396.15.287.861.971 1.586.506 1.71-.069 1.886-.26 1.79-.314v-4.43zM292.717-54.93l-.547.069-.056.109.11.246 1.394.328.26-.096-.164-.232-.41-.342zm-47.728 11.183-.834.288-.164-.082-.396.123.205.396.437.246h.41l.698.574.437-.177-.096-.246.22-.288-.083-.45-.218-.274zm-103.81 69.371-.37.383-1.175.902-1.108.766-.86.3-2.024-.04-.944.246-.136.642-.07.56-.601.807-.698.63-1.08.6.274.083 1.969.096 1.982.095 3.2.096 3.322.096 3.459.11 3.746.122 3.937.069.247-.055-.301-.342-.301-.601.028-.492.177-.493.848-1.435-.042-.232-.615-.41-.766-.288-.423-.615-1.545-.041-1.45.041-.464-.041-1.395-.26-1.326-.41-.902-.246-.752-.274-.41-.287-.643.082h-.424l-.095 1.094-.233 1.203-1.353.232-.766-.054-.793-.26-.67-.055-.588-.191 1.86-1.408.683-.67zm189.34 67.484-.205.192.014.396.329.643.109-.123.028-.465z" style="opacity:1;fill:#37ec88;fill-opacity:1;fill-rule:nonzero;stroke:#505050;stroke-width:.5;stroke-linecap:round;stroke-linejoin:round;stroke-miterlimit:4;stroke-dasharray:none;stroke-opacity:1" transform="translate(-312.113 78.437)" id="path2" />
  </g>
</svg>
