<?xml version="1.0" encoding="UTF-8" standalone="no"?>
<svg viewBox="-180.25 1.15 29.466 30.707" version="1.2" width="29.466" height="30.707" id="svg10" sodipodi:docname="serbia.svg" xmlns:inkscape="http://www.inkscape.org/namespaces/inkscape" xmlns:sodipodi="http://sodipodi.sourceforge.net/DTD/sodipodi-0.dtd" xmlns="http://www.w3.org/2000/svg" xmlns:svg="http://www.w3.org/2000/svg">
  <defs id="defs14" />
  <sodipodi:namedview id="namedview12" pagecolor="#ffffff" bordercolor="#666666" borderopacity="1.0" objecttolerance="10.0" gridtolerance="10.0" guidetolerance="10.0" inkscape:pageshadow="2" inkscape:pageopacity="0.0" inkscape:pagecheckerboard="0" />
  <g style="display:inline" id="g8">
    <g style="opacity:1;fill:#eb5858;fill-opacity:1;stroke:#505050;stroke-width:.0714289;stroke-miterlimit:4;stroke-dasharray:none;stroke-opacity:1" id="g6">
      <path style="opacity:1;fill:#eb5858;fill-opacity:1;fill-rule:evenodd;stroke:#505050;stroke-width:.0714289;stroke-linecap:round;stroke-linejoin:round;stroke-miterlimit:4;stroke-dasharray:none;stroke-opacity:1" d="m19.724 38.848.12.006.09-.015.227.02.049.015.031.017.06.058.057.076.08.034.094.041.049.03.071.09.057.045.018-.002.02-.012.013-.009.015.008v.028l.004.06-.013.065.02.06v.02l-.014.017.002.016.02.016.077.04.071.063.082.044.076.028.048.001.079.05.155.037.05.013.034.02.024.024.002.026-.023.012-.034.035-.014.042-.024.01-.025.002-.018.012.004.018.02.018.032.015.062.016.062.023-.001.018-.013.02-.077.008-.058.003-.027.008.002.035.163.037.074.035.04.045.104.03.169.014.117.046.066.078.108-.019.15-.115.147-.03.144.055.08.046.013.035-.034.015-.08-.007-.067.022-.051.05-.008.055.036.057.05.04.067.022.035.03.005.038.017.01-.037.018-.041.026-.023.046-.006.073-.129.057-.048.01-.022.039-.033.107.004.08.017.042.008.033.042.042.037.063.025.083.056.065.142.063.07.037.053.053.04.049.117.064-.009.046-.026.045-.027.021-.058.058-.057.032-.094.102-.148.006-.035.008-.056.028-.028.05.027.041-.002.042-.027.08.036.086.052.04.008.022-.01.04-.077.082-.024.03-.078.015-.026-.008-.04-.028-.038-.008-.093.033-.095.02-.074-.015-.074-.002-.05.014-.039.005-.075.035-.121.026-.056-.005-.021-.034-.023-.047.011-.022.08-.037.01-.036.11-.172.022-.056.001-.019-.03-.012h-.06l-.272-.07.012-.08-.08-.043-.086-.038-.014-.043-.096-.087-.07-.049-.09-.024-.076-.036-.047-.021-.02-.04v-.025l-.023-.023-.038.003-.062.032-.078.028-.013.02.028.048.02.03-.01.03-.024.036-.149.081-.016.029.028.045-.018.021-.125.03.003-.025-.008-.04-.071-.042-.1-.033-.224-.113-.086-.015-.077-.014-.11-.054-.057-.01-.063-.038-.137-.13-.116-.072-.08-.036-.022-.035-.005-.036.003-.012.06-.051.046-.008.06-.001.04.026.051.005.029-.033.015-.048-.007-.06-.124-.142-.107-.098-.012-.022.023-.018.037-.01.04.008.104.007.1-.009.034-.024v-.032l-.036-.03-.117-.081-.091-.072-.108-.054-.08-.022-.023-.028-.01-.03.01-.054.004-.07.019-.043.072-.082.068-.088.043-.084.022-.077-.008-.023-.035-.016-.076-.017-.106.015-.089.028-.035.002-.012-.035.015-.015.028.002.023.006.024-.016.015-.047-.037-.163.067-.015v-.023l.007-.021.069.028h.097l.085-.005.013-.016-.001-.024-.018-.018-.03-.014-.022-.023-.057-.01-.18-.059-.089-.063.003-.066.026-.036.031-.013-.009-.012-.101-.031-.036-.043.03-.055-.053-.111-.056-.069.055-.03.007-.042.004-.024h.022l.088-.028.032-.023.018-.026.022-.007.059.03.062.002.07-.019.052-.025.062-.022.029-.014.036-.023.073-.068.083-.014z" class="polygon" transform="translate(-311.873 -270.415) scale(6.99997)" id="path2" />
      <path style="opacity:1;fill:#eb5858;fill-opacity:1;fill-rule:evenodd;stroke:#505050;stroke-width:.0714289;stroke-linecap:round;stroke-linejoin:round;stroke-miterlimit:4;stroke-dasharray:none;stroke-opacity:1" d="M21.563 42.752h-.002l-.172.028-.057.033-.035.057-.01.03h-.03l-.051-.029-.064-.046-.082.004-.282.1-.028.053-.006.114-.019.03-.03.02-.116-.012-.013-.008.016-.043-.006-.096-.053-.159-.037-.051-.077-.052-.06-.034-.108-.03-.055-.087-.082-.099-.04-.022.006-.01.019-.075-.023-.054-.037-.046.025-.028h.076l.062.005.023-.044.13-.029.124-.03.018-.021-.029-.046.017-.028.149-.081.024-.037.01-.029-.02-.03-.028-.048.013-.02.077-.028.063-.033.037-.002.024.023v.024l.02.04.047.022.076.036.09.024.07.049.095.087.015.043.086.038.08.043-.013.08.272.07h.061l.03.012-.001.018-.022.056-.111.173-.01.035-.08.038-.01.022.022.047z" class="polygon" transform="translate(-311.873 -270.415) scale(6.99997)" id="path4" />
    </g>
  </g>
</svg>
