<?xml version="1.0" encoding="UTF-8" standalone="no"?>
<svg viewBox="-180.25 1.15 22.465 10.544" version="1.2" width="22.465" height="10.544" id="svg6" sodipodi:docname="slovenia.svg" xmlns:inkscape="http://www.inkscape.org/namespaces/inkscape" xmlns:sodipodi="http://sodipodi.sourceforge.net/DTD/sodipodi-0.dtd" xmlns="http://www.w3.org/2000/svg" xmlns:svg="http://www.w3.org/2000/svg">
  <defs id="defs10" />
  <sodipodi:namedview id="namedview8" pagecolor="#ffffff" bordercolor="#666666" borderopacity="1.0" objecttolerance="10.0" gridtolerance="10.0" guidetolerance="10.0" inkscape:pageshadow="2" inkscape:pageopacity="0.0" inkscape:pagecheckerboard="0" />
  <g style="display:inline" id="g4">
    <path class="polygon" d="m110.504 87.135-.62-.171-.746-.072-.14.093-.3.094-.151.169.116.663-.181.114-.847-.066-.28.076-.46.462-.472.194-.6.139-.443.167-.56.145-.479.088-.188.201-.115.224.028.215.485.425.063.454-.056.555-.11.295-.192.197-1.195.255-1.24.455-.027.105.565.404.021.101-.467.23-.042.23.056.268.248.274.09.247-.683.18-.921-.066-1.091-.344-.382.05-.37.178-.379-.076-.416-.212-.589-.441-.286-.27-.118-.289-.16-.042-.245.084-.202.35-.544.627-.402.17-.608-.037-.853.01-.53.052-.65-.221-.157.043v.145l-.242.23-.399.15-1.844-.34-.261-.28.416-.133.577-.362.394.04.48-.077.21-.154-.305-.459-.766-.566-.407-.215-.561-.142-.097-.153.31-.893-.093-.126-.64.042-.15-.094-.05-.155.042-.212.432-.347.48-.308.128-.172-.014-.135-.615-.137-.37-.14-.294-.048-.202.078-.15-.088-.15-.257.15-.391.553-.362.593-.321.517-.235.298-.1.142-.402.308.042.612.022.683.091.635.113.56.141 1.174.149 1.068.09.322.082.264-.007.324.121.19-.092.14-.162.582-.192.536-.25.377-.318.21-.251.369-.178.393-.051.359-.09 1.514-.118 1.556.093.742-.175.612-.307.893-.086.049-.004 1.335.236.102-.137.056-.06-.028-.67.422-.303.392-.13 1.333.042.175.205.07.319.119.426.221.118.122.168-.02.295.26.22.61.596z" style="opacity:1;fill:#cce532;fill-opacity:1;fill-rule:evenodd;stroke:#505050;stroke-width:.5;stroke-linecap:round;stroke-linejoin:round;stroke-miterlimit:4;stroke-dasharray:none;stroke-opacity:1" transform="translate(-268.539 -83.191)" id="path2" />
  </g>
</svg>
