<?xml version="1.0" encoding="UTF-8" standalone="no"?>
<svg viewBox="-180.25 1.15 40.235 13.34" version="1.2" width="40.235" height="13.34" id="svg6" sodipodi:docname="slovakia.svg" xmlns:inkscape="http://www.inkscape.org/namespaces/inkscape" xmlns:sodipodi="http://sodipodi.sourceforge.net/DTD/sodipodi-0.dtd" xmlns="http://www.w3.org/2000/svg" xmlns:svg="http://www.w3.org/2000/svg">
  <defs id="defs10" />
  <sodipodi:namedview id="namedview8" pagecolor="#ffffff" bordercolor="#666666" borderopacity="1.0" objecttolerance="10.0" gridtolerance="10.0" guidetolerance="10.0" inkscape:pageshadow="2" inkscape:pageopacity="0.0" inkscape:pagecheckerboard="0" />
  <g style="display:inline" id="g4">
    <path class="polygon" d="m152.664 69.126-.102.289-.287.337-.358.348-.298.42-.398.9-.262.414-1.066.821-.077 1.143-.144.083-2.41.387-.318-.06-.329-.222-.182-.162-.112-.119-.21-.316-.276-.224-.41-.183-.372-.213-.483-.008-1.302.3-.904.033-.603-.096-.802-.182-1.564-.029-1.072.16-.105.222-.988 1.397-1.436.515-1.248.528-.362.106-.62-.165-.707-.314-.586-.163-.428.072-.468.355-.213.36-1.413.264-2.457.155-.856.354-.292.426-.014.327.207.279-.261.325-.115.135-1.736.071-2.314.095-1.384-.025-1.302-.023-.887-.278-1.082-.544-1.144-.723-.11-.017-.17-.077-.718-.054-.191.043-.43-.235-.127-.306-.666-.804-.75-1.321-.022-.382.293-.435.272-.332.042-.263.028-.072.225-.546.546-.727.507-.422.37-.14.758.127 1.3.106 1-.099.931-.324.507-.283.433-.298.144-.193.192-.093.77-.172.247-.2.1-.38.07-.422.16-.314.197-.23 1.428-.552.128-.193.229-.19.421-.21.41-.306.433-.187.558.02.514-.038.401-.106.177-.011.742.087.133.35.077.364 1.268-.026.705-.78.365-.094.588-.272.388-.238.266.15.386.5.408.404.235.16.028.123.238.075.46.044.307.122.092.376.007.34-.144.243-.075.216.32.084.466-.082.33-.121.991.28.35-.626.392-.32.51-.148.462-.195.424-.138.292.008.126-.058.363.014.42.063.571-.073.79.152.494.29.482.097.552-.017.377-.16.548-.548.396.008.623-.087.878.005 2.024.118.508.21 1.246.27.542.31.242.37.126.257 1.277.394 1.893.503z" style="opacity:1;fill:#f0e03b;fill-opacity:1;fill-rule:evenodd;stroke:#505050;stroke-width:.5;stroke-linecap:round;stroke-linejoin:round;stroke-miterlimit:4;stroke-dasharray:none;stroke-opacity:1" transform="translate(-292.928 -64.05)" id="path2" />
  </g>
</svg>
