<?xml version="1.0" encoding="UTF-8" standalone="no"?>
<svg viewBox="-180.25 1.15 95.406 54.672" version="1.2" width="95.406" height="54.672" id="svg6" sodipodi:docname="spain.svg" xmlns:inkscape="http://www.inkscape.org/namespaces/inkscape" xmlns:sodipodi="http://sodipodi.sourceforge.net/DTD/sodipodi-0.dtd" xmlns="http://www.w3.org/2000/svg" xmlns:svg="http://www.w3.org/2000/svg">
  <defs id="defs10" />
  <sodipodi:namedview id="namedview8" pagecolor="#ffffff" bordercolor="#666666" borderopacity="1.0" objecttolerance="10.0" gridtolerance="10.0" guidetolerance="10.0" inkscape:pageshadow="2" inkscape:pageopacity="0.0" inkscape:pagecheckerboard="0" />
  <g style="display:inline" id="g4">
    <path class="polygon" d="m6.047 141.93-.16.093-.463-.086H4.73l-.028-.283.106-.197.134-.2.424.394.67.073zm-1.041-1.726-.253.43-1.065-.153-.235-.173.23-.487.306-.058.02-.346.323-.348 1.511-.281.34.235.074.34-.903.744zm11.9-6.1.671.234.708-.21.376.065.37.113.091.444-.33.494-.462.5-.39.551-.338.633-.63.374-.572.223-1.21-.47-.702-.116-.21-.176-.166-.7-.318-.224-.466-.098-.407.179-.535.37-.285-.369-.45-.07-.17-.221.006-.287 2.896-1.692.839-.375 1.777-.435.273.066-.232.258.014.115.221.125-.056.2-.225.173zm8.039-.362-.129.08-2.153-.808-.704-.09-.171-.124.021-.42.056-.187 1.44-.084 1.166.299.626.806.049.138zm-83.942-27.46.725.261.637-.088.73.309.961.708 1.407.285 1.122-.222 1.984-.047.991.095 1.761-.175 1.008.062 1.634-.35 1.266.437 2.45.205 1.474.36 4.076.603 1.471.007 2.083-.339.881-.254.808.15 1.185-.29.567.058.74.416 2.607.56.685-.476.509-.104 1.876.292 1.89.593.982.043 1.438-.162 1.14-.39.241-.046.007.244.277.335.282.123.6.172.46.023.629.08.427.194.02.3-.106.337-.258.309-.148.237.137.135.225.105.243.03.165-.035.124-.187.237-.229.132-.028-.007.13.113.16.77.269 1.691.501.662.01.536.058.158.212 1.076.774.256-.021.48.019.58-.062.419-.145.275.025.303.15.355.13.457.255.41.315.282.103 1.697-.211.379.185.402-.002.45-.048.983.097.798-.023.072-.078.07-.698.126-.247.19-.066.473.05 1.72.413.707.258.68.203.595.022.394.135.552.664-.094.332.049.123.056.231-.014.256.145.167.261.02.335-.05.366-.1.645-.284.192-.047 1.076.324.478.215.164.235.245.24.324.035.459-.228.714-.244 1.218.215 1.355.311.586.037.021-.151.106-.217.223-.108.333-.031.464-.114.53-.188.55-.078.579.14.696.114.415-.001.199.443.337.169.131.383-.616.2-.366.028-.112.658.174.185.346.174.094.203.07.965-.708.583-.994.655-4.858 2.107-1.157 1.02-.44.233-3.613.643-2.525.686-1.21.249-1.513 1.193-.716.481.57.133.665.57-.223.253-.97.39-.424.12-.23-.062-.218.054-1.627 2.069-1.437 1.487-.808.648-.827.966-1.763 2.493-.014.72.868 2.48.498.652.698.548 1.323.466.327.459-.457.436-1.323.778-2.3 1.05-.977.829-.209.799-.673.359-.254 1.119-.408.74-.079.252-.433.562-.056.408.71.564-.352.244-.352.109-.811.065-2.726.072-2.194 1.219-1.097 1.079-.992 2.009-1.205 1.184-.534.218-.825-.52-1.03-.08-1 .173-.525.413-.819.23-.8-.2-1.73-.107-.77.019-1.205.335-1.033-.224-1.743-.113-3.774.266-.476.125-.471.497-1.203.86-1.829.03-1.653.548-.413.35-.694.966-.219.706-.144.006-.18-.174-.254.058-.132.538-.622.245-.52.09-1.28-.437-1.066-.654-.56-.047-.908-1.017-.39-.649-.278-.7.056-.269-.078-.223-.807-.282-.196-.643.587-.835.482-.355.298-.103-.729.036-.526.538-.673-.86-2.746-1.678.177-.385-.028-.208-.46.448-.317.115-1.402-.072-1.618.205-.427-1.74-.202-.669-.05-.433.418-1 .455-.406.607-.84.747-.7.79-.166.349-.103.292-.54.165-.462-.12-.045-.922.094-1.656-1.935.049-.308.209-.458.137-.578.035-.456.43-.392.662-.395.555-.56.28-.548.055-.498-.315-.355-.906-.197-.933-1.42-.208-.89-.191-.091-.577-.406-.554-.76-.08-.117.57-.134 2.356-.007.492-.167.075-.059.429-.59.45-.972.105-.593-.142-.245-.78-.6-.035-.177.125-.283.464-.303.627-.344.341-.297-.08-.232-.184-.243-.028-.226.115-.28.042-.95.08-.245-.122-.864-.153-.706-.496-.916.09-.202.23-.17.749-.318.599-.747.87-.625 1.139-.502.796-.557.315-.426.223-.113-.063-.2-.15-.289-.454-.282-.585-.163-.651.007-.403-.056-.117-.221.042-.599-.035-.592-.125-.272-.3-.205-.598.054-.516-.167-.391-.04-.226.132-1.155-.038-.48-.095-.336-.118-.216.066-.122.115-.02.181-.08.24-.412.215-.945.215-.763-.016-.7-.154-.225-.112-.339-.101-1.423.125-.172-.092-.49.223-.725.263-.406.016-.147-.056-.056-.12-.305-.411.08-.22.583-.636-.063-.153-.24-.206-.214-.297-.063-.153-.371-.026-.396.156-1.508.32-.361.117-.654.31-.659.471-.526.1-.182-.14-.063-1.11.803-.737.57-.444-.268-.09-.606.012.042-.344.284-.166.276-.375-.323-.162-.25-.246.013-.646.07-.263-.081-.283-1.234.382-.317-.057-.014-.48.685-.73.07-.223-.8-.108-.6-.359-.365-.32-.39-.461-.004-.413.403-.967.578-.281.497-.174 1.056-.668 1.456.125.9-.143.808-.342.463-.077.746-.298-.021-.403-.257-.298.225-.282.837-.344.928-.458 1.063-.088z" style="opacity:1;fill:#38dfbe;fill-opacity:1;fill-rule:nonzero;stroke:#505050;stroke-width:.5;stroke-linecap:round;stroke-linejoin:round;stroke-miterlimit:4;stroke-dasharray:none;stroke-opacity:1" transform="translate(-110.24 -104.882)" id="path2" />
  </g>
</svg>
