<?xml version="1.0" encoding="UTF-8" standalone="no"?>
<svg viewBox="-180.25 1.15 91.532 96.332" version="1.2" width="91.532" height="96.332" id="svg6" sodipodi:docname="sweden.svg" xmlns:inkscape="http://www.inkscape.org/namespaces/inkscape" xmlns:sodipodi="http://sodipodi.sourceforge.net/DTD/sodipodi-0.dtd" xmlns="http://www.w3.org/2000/svg" xmlns:svg="http://www.w3.org/2000/svg">
  <defs id="defs10" />
  <sodipodi:namedview id="namedview8" pagecolor="#ffffff" bordercolor="#666666" borderopacity="1.0" objecttolerance="10.0" gridtolerance="10.0" guidetolerance="10.0" inkscape:pageshadow="2" inkscape:pageopacity="0.0" inkscape:pagecheckerboard="0" />
  <g style="display:inline" id="g4">
    <path class="polygon" d="m110.56 18.601-.36.353-.32-.025-.212-.47-.049-1.21.127-.597 1.527-2.155.682-.176.958-1.321.258-.588.416-.529.246-.473.206-.19.447.089.199.087-.471.275.056.359-.035.149-1.19 1.56-.317 1.012-.422.247zm17.835-10.818-.58.167-.34.494-.468.083-.45.165-.16 1.561.818.594-.45.083-.412.178-.294.262-.3.566-1.13.32-.428.238-.63.528-.33.766-.639.326-.718.077.422-.627.551-.511-.53-.351-.32-.549-.412-.421.328-.47-.161-.771.056-.753.479-.38.548-.309.853-.712.926-.516 1.291-.232.583.214.252-.47.416-.106.391.108zm.559-.606-.126.436-.363-.033-.331-.322.669-.492 1.024.027.352.102zM123.773-.57l-.31.067-.154-.021.191-.325.142-.14.472-.132.144.023zm1.254-3.088-.175.231-.177-.284.071-.056.12-.28.34-.154.542.092-.003.07-.518.227zm29.811-62.279.85.356.856.412.593.847.953.044.258.292.831.5 1.153.44-.042.148-.918.406-.098.55.086.703.288.573-.028.168-.227.197-.274.31-.098.271.02.133.093.072.483.005.866.063.51.12.289.66-.098.127-.73.299-.214.237-.021.349.13.383.25.429.571.459.773.48.507.393.24.277.088.194-.348.244-.313.482-.056.552-.142.36-.68.495-.471.175-.134.262-.056.439.138.535.05.361.144.26.214.17 1.09.301.612.615.38.494.746 1.292-1.855.161-1.394-.324-.695.163-1.216.007-1.381.127-.465.254-.366.102-1.28-.358-1.21-.592-.884.451-.572.086-.514-.408-.45-.067-.242.136-.213.36-.338.284-.088.18-.056.724-.088.168-1.175-.094.07.19.256.096.104.12-.426.16-1.166-.015-.119.168.328.266-.255.232-.237.092-1.393.144-.806-.032-.23.15-.063.196.153.192.355.102.117.122-.02.265-.297.047-.84-.464-.256.024.192.241.48.263.277.269.243.323-.049.245-1.043.792-.918.5-.685.45-.404.478.468.24.52.348.365.668.436.595.88.568-.177.33-.205.255-1.465.563-1.66.848-1.791 2.171-.596.291-1.567.368-.576.356-1.167.423-2.037.363-.924.507-.418.523-.464.038-.46-.205-.614-.153-.08.342.029.251-.983-.372-.463.341-.363.57-1.413.767-1.524-.138-.17.136.404.098.063.123-.276.065-.42-.007-.646.151-.425-.012-.202.363-.329.44-.86.183-.445.038-.22.25 1.324.052-.105.212-.028.212-.137.227-1.505.328-.232.258-.314.16-.67-.01.029-.148.11-.169-.998.015-.311-.37-.19.095.112.298.261.311.29.456-.235.288-.264.143.192.132.532.1.216.18-.631.155-.788.53-.817.013-.5.35h-.53l-.432-.221-.69-.181-.223.319-.035.254.39.642.743.498.689.214-.496.145-.369.322-.445 1.006-.242.396-.262.698.165.59.133.29.337.393-.916-.05-.967-.23.134.477-.594.564.11.498.124.324-.184.537.28.168.152.32-.25.236.111.203.042.719.19 1.125-.07.238.532.977-.124.343-.07.437.761.42.68-.007.69-.006.263.105.264.297.212.35.568-.029.906-.285.59-.068.388.549 1.059.724.616.325 1.046.17 1.103.586-.155.704.46.236 1.3.278.46.375.221.32.343.266.4.801-.14.494-.524.17-1.238.529-.551.395-.433.246-1.23.528-.45.095-.43.274-.418.12-.373-.07-1.395.498.108.212 1.07.09.545-.107.42-.25.459-.057.418.047.444-.197.348-.078.36.094.401.472-.833.246-.59.011-.289.774-.358.333-.256.16-1.31.33-.865.417-1.02.336-.444-.073-.671.342-1.49.405-.764.545-1.714.487-.872.397-2.372.021-2.265-.087-.71.189.726.059.51.185.61-.078 1.435.093.738.1.948.65-.697.23-1.206.177.453.92.373.62-.489.375-.035 1.703-.686.032-.291.705.216.359-.014.834.143.514.337.474-.15.493-1.084 1.155.028.543.194.322.145.514-.493.99-.348.827-.414.695-.925.835-.461.625-1.078 1.947-.535.387-.655.297-.73-.275-.67-.15-.819.018-1.282.226-1.927-.15-1.884.072-.477.194.285.707-.694.093-.679-.201-.598.24-.499.263-.98.624-.328.385-.085.724.514.65.457.76-1.176.918-.656.03-1.915-.254-3.395.575-3.049-.455.384-.491-.014-.361.172-.556.102-.569-.028-.38-.223-.405-.752-.53-1.694-1.791-.501-.756-.349-.315.25-.016 1.396.405.326-.05.341-.152-.416-.58-.358-.263-.243-.394.817-.106.59.024.435-.442-.25-.715-.634-.22-.53-.096-1.014-1.123-1.058-.582-1.888-2.244-.69-1.54-.642.146-.311-.67-.224-.636-.042-.467-1.006-.268-.042-.327-.181-1.462-1.08-.196-.697-.82-.125-1.551-.71-.282-.573.078.028-.385.137-.36-.335-1.43L73.345.57l-.272-.394-.154-.462.138-.398.202-.229.697-.06.65.352.578.89.51.115.694-.232.486-.648.277-.972.324-.926-.384-.991-.41-.87-.027-.256 1.074-.734.33-.597.356-.569.393-.193.585-.044.682-.107.86-.38.77-.51.588-.468.2-.924.007-.465.259-.345.25-.673-.244-.665-.76-1.008-.914-1.417-.143-.774.417-.144.797-.128 1.508-.037.16-.091.153-.339.34-.46.363-.335.248-.479.12-.434-.863-.654-1.13-.67-.765-.221-1.363-.563-.957-.471.548-1.793.408-1.334.063-.325.014-.502-1.323-2.144.05-.477.125-.43-.14-.732-.078-.654.227-.199.54-.37-.515-.573-.042-.046-.971-1.418 1.485-1.403-.258-.726.887-.527 1.615-1.207.909-.678.192-.119.72-.298 1.364-.353 1.512-.172.673.002 2.597.239 2.03.186.294-.187.425-.383.545-.546.049-.608-.197-.892-.296-.534-1.429-.347-1.562-.476 1.921-1.506 1.333-1.046 1.66-1.573.517-.654.374-.26.489-2.414.324-.676.271-.352.004-.363-.176-.61-.467-1.38 2.623-.17.855-.097.793-.165 1.55-.427.763-.377-.426-1.287.939-.436 2.29-1.518 2.474-1.453 1.161-.55.12-.268.096-.432-.515-.679-.554-.42-1.079-.796.463-.556.795-.108 1.05-.218.819-.475.08-.06 1.386-1.867 2.708-.946 1.079-.516 1.681.388 2.464.584 1.095-.86.363-.32.362-.47-.145-.813-.063-1.057.109-.424.983-.19.529-.048 2.738.436.689-.008 1.29.059 1.445.192 3.026.51 1.251.211.699.042.603-.238 1.288-.61-1.898-.452 1.25-.457.648-.46.556-.567.2-.663-.076-.356-.384-.243-1.159-.606 2.627-.087.911-.025 1.91.4.084.086.014.208.07.216 1.854.547.535.29 1.138.439.302.237 1.054.278.756.297.883.241 1.031.375 1.384.298 1.169.098 2.942.511z" style="opacity:1;fill:#df4384;fill-opacity:1;fill-rule:nonzero;stroke:#505050;stroke-width:.5;stroke-linecap:round;stroke-linejoin:round;stroke-miterlimit:4;stroke-dasharray:none;stroke-opacity:1" transform="translate(-252.92 72.023)" id="path2" />
  </g>
</svg>
