<?xml version="1.0" encoding="UTF-8" standalone="no"?>
<svg viewBox="-180.25 1.15 31.897 14.119" version="1.2" width="31.897" height="14.119" id="svg6" sodipodi:docname="switzerland.svg" xmlns:inkscape="http://www.inkscape.org/namespaces/inkscape" xmlns:sodipodi="http://sodipodi.sourceforge.net/DTD/sodipodi-0.dtd" xmlns="http://www.w3.org/2000/svg" xmlns:svg="http://www.w3.org/2000/svg">
  <defs id="defs10" />
  <sodipodi:namedview id="namedview8" pagecolor="#ffffff" bordercolor="#666666" borderopacity="1.0" objecttolerance="10.0" gridtolerance="10.0" guidetolerance="10.0" inkscape:pageshadow="2" inkscape:pageopacity="0.0" inkscape:pagecheckerboard="0" />
  <g style="display:inline" id="g4">
    <path style="opacity:1;fill:#e25d90;fill-opacity:1;fill-rule:evenodd;stroke:#505050;stroke-width:.5;stroke-linecap:round;stroke-linejoin:round;stroke-miterlimit:4;stroke-dasharray:none;stroke-opacity:1" d="m61.566 79.965.213.092.5.308-.117.527-.57.847-.304.687-.035.526.056.247.103-.003.545.038h.277l.876.142.702.208.135.22.092.268.834.366.956.237.324-.076 1.187-.857.459.143.278.454-.014.242-.328.91-.056.489.282.323.028.252-.082.23-.473.02-.636-.123-.538-.394-.406.047-.353.1-.18.373-.161.445.049.247.254.19.194.405.141.524.107.241-.118.107-.334.072-.277-.07-.485-.628-.227-.239-.383-.042-.677.152-1.039.351h-.419l-.356-.071-.334-.298-.283-.575-.091-.36-.198.012-.664-.105-.31.143-.003.587-.063.732-.334.473-.927.817-.34.357-.135.256-.028.223.141.384.193.368-.161.21-.49.11-.346-.224-.134-.398-.75-.542.341-.454-.056-.113-1.238-.235-.534-.343-.749-.603-.14-.259.029-.84-.042-.203-.1-.099-.364.006-.505.292-.466.436-.954.49-.1.106.32.479-.013.186-.777.764-.147.252-.986.479-.451.18-1.367-.353-.378-.042-.61.236-.865.224-1.392.224-.512-.164-.243-.154-.12-.231-.352-.408-.395-.243-.275-.263-.366-.289-.235-.241.313-.77-.229-.272-.117-.387.063-.262-.126-.063-1.26-.151-1.045.047-.749.258-.61.427-.073.093.035.077.304.393-.515.414-.79.323-.56.032-.246-.062-.007-.444.463-.164.419-.29.14-.407.049-.287-.441-.347.056-.212.273-.403.16-.356.216-.309.871-.504.875-.506.132-.538.07-.655.124-.158 1.18-.392.294-.155.149-.222.928-.735.92-.728.185-.244.155-.143v-.118l-.116-.092-.438-.061-.148-.231.476-.413.596-.253.578-.003.233.116-.014.137.25.147.438.048.541-.05.539-.155.332-.368.192-.278.845-.317.577.16 1.603.042 1.167-.086.731-.216h.908l.608.122.107-.018.167-.028.166-.116.572-.08.077-.096-.02-.098-.104-.05-.704.05-.27-.076-.07-.176.227-.304.518-.25.44-.06.316.066.774.463.185.014.107-.083.161-.047.267.091.3.286.05.045 1.724-.1h.387l1.17.502z" class="polygon" transform="translate(-216.68 -76.805)" id="path2" />
  </g>
</svg>
