<?xml version="1.0" encoding="UTF-8" standalone="no"?>
<svg viewBox="-180.25 1.15 134.537 44.333" version="1.2" width="134.537" height="44.333" id="svg6" sodipodi:docname="turkey.svg" xmlns:inkscape="http://www.inkscape.org/namespaces/inkscape" xmlns:sodipodi="http://sodipodi.sourceforge.net/DTD/sodipodi-0.dtd" xmlns="http://www.w3.org/2000/svg" xmlns:svg="http://www.w3.org/2000/svg">
  <defs id="defs10" />
  <sodipodi:namedview id="namedview8" pagecolor="#ffffff" bordercolor="#666666" borderopacity="1.0" objecttolerance="10.0" gridtolerance="10.0" guidetolerance="10.0" inkscape:pageshadow="2" inkscape:pageopacity="0.0" inkscape:pagecheckerboard="0" />
  <g style="display:inline" id="g4">
    <path class="polygon" d="m176.68 131.68-1.609.216-.499-.213.504-.422.937-.262.305-.03.411.42zm64.008-12.744.056.46.61.678.62.461 1.821.661 2.533-.557.408.062.515.156.892 1.792.695.633.888.43.73.085.542-.449.42-.181.915-.077 1.5.617.52.637 2.552.492 2.343.246 1.011.54 3.297.541 1.231-.084 2.067-.568 4.02-.622 2.67.868.722.112.624-.074.898.238.957-.128 2.956-1.022.924-.58.98-.15.869-.347 2.315-1.137.67-.657.466.141.876.18.543.218.309.057.716-.443 1.063.012.934.051.482.082.59.147.715.1.29-.212.417-.625.16-.08.116-.056.529-.049.502.048.236.106.237.5.596.179 1.052.798.644.32.156.134-.212.162.082.198.368.261.517.098.558-.034.304.095.217.147.056.207-.014.132.111.297.435.419.52.256.28.275.453.944.183.522-.07.502-.315.516-.69.642.171.268.155.355-.049.257.488.821.222.51-.186.118-.12.163.878.393 1.052.33.444.063 1.209-.152.778-.032.773.312 1.126.757 1.213.988.242.301.105.132.237.24-.246-.004-.4-.215-.965-.608-.492.261-.425.452-.467 1.712-.377.183-.665-.005-.815-.06-.56.087-.145.108.073.185.166.282.118.356.035.291.295.264.397.25.014.258-.063.363-.092.276-.1.157.184.42.432.498.275.19-.103.948.161.42.124.58-.049.964.056.237.148.08.393.036.386.09.133.158-.002.115-.48.442-.057.314-.166.443-.137.26-.43.494-.273.501-.124.414.082.195.793.059.43.298 1.144.592.201.24-.312.365.005.153.148.194.07.339-.028.377.006.497.21.081.778.467.553.467.02.144-.269.369.056.425-.014.097-.24-.16-.43-.058-.444-.016-.28.124-.49.334-.657.364-.535.335-.306.229-.253-.038-.197-.2-.11-.279.048-1.056-.116-.33-.249-.232-.292-.132-.349-.075-.36-.008-.512.31-.725.32-1.125-.026-.754-.06-.365-.06-1.464-.491-.306-.014-.545-.198-.649-.158-1.09.298-.473-.07-.662-.26-.234.07-.74.79-1.257.843-.678.14-.323-.846-.31-.329-.147-.04-.314-.105-.244.06-.756.578-1.211.348-1.003.212-1.596.258-1.232.129-.525.01-1.137-.115-1.003-.163-1.003.007-.77.073-1.786.621-3.038 1.28-2.31.612-1.295.255-1.014.144-1.737.007-1.414-.098-.979.01-.544-.153-.776-.518-.94-.512-.418-.12-.547-.098-.799-.057-1.995.748-.621.204-.684.153-1.378.457-.61.245-.765-.023-.977-.065-.849.023-.566-.348-.305-.392-1.156-.24-.826-.07-.211.175-.22.534-.352 1.365-.063.343.727 1.357-.035.207-.52.07-.598.022-.389.121-.323.226-.194 1.174-.691.215-.329.247-.338.725-.184.017-1.118-.55-.524-.046.45-.57-.489-1.127-.533-1.056.503-.675 1.042-.815 1.098-.954-.002-.588-.056-.45-.315-.31-.603-.413-1.01.441-.722.487-.47.098-.512.278-.25.5-.617.391-1.01.153-1.519-.418-1.63-.636-.924-.515-.754-.122-.715.226-2.113 1.262-1.933 1.844-.48.319-1.82.792-1.204.266-.567-.061-2.396.349-1.19.05-.943.42-1.827-.454-1.092-.58-.658-.59-1.072-1.27-.76-.602-1.709-.543-2.977-1.318-.784-.144-2.032-.189-2.144-.119-.434.48-.164 1.899-.367.523-.158.985-.262.284-.412.186-.643-.311-.447-.137-1.039.405-2.057.57-.702.08-2.385-.716-.873-.46-.563-.509-.19-.86-.354-.49-.05-.336-.138-.387-.48-.153-.516.292-.553-.012-.694-.18-1.639-.72-1.259-.057-.757.88-.588.279-.645.083-.035-.25.488-.569-1.96.105-1.036.433-.808-.067-.606-.195.091-.24.615-.087.533-.195 2.125-.158.497-.16.543-.617.99-.533.126-.229-.761-.003-3.257.155-2.236-.085-.266.264-.336.037-.093-.718.354-.334.476.03 1.168-.29-.104-.597-.837-.403-.17-.238-.607-.056-.492-.283-.107-.716-.392-.785-.56-.38.07-.209 1.026-.264.213-1.098-.157-.675-.516-.057-1.504-.532-.456.057-.499-.585-.872-.42-.432.153-.27.19-.405-.09-.677-.365-.665-.197-.296-.243.37-.65.51.015.093-.51-.402-.848.042-.436.445-.12.506.082.511.508.167.49-.108.479.325.463.23.117.155-.488.217-.092.298.213.641.106 1.66-.3.32-.253-1.217.029-.445-.237-.483-.531-.298-.482-.056-.236-.168-.346.186-.186.833-.277.731-.778-.305-.225-.348-.107-.38.08-.358-.267-.05-.37.288-.3.028-.412-.94-1.016-.263-.22.203-.333.717-.555.684-.688-.082-.227-.505-.092-2.4.295-.934.256-1.664.117-.12-.374.036-.337.373-.613-.035-1.514.22-.82.924-.245 1.135-1.206 1.838-1.42 1.919.027.767-.392 1.14-.023.207.285.13.272 1 .392 1.767-.062.43-.154.414-.216-.817-.699.261-.197.74-.023.803.165.035.16-.214.219-.247.384.235.074 2.286-.232 2.388.186.76-.101 1.878.008.336-.241-.568-.303-.556-.105-.374-.147-.373-.214 1.19-.676.674-.13 3.174-.415 2.361-.208.028-.154h-.34l-3.05-.344-.736-.266-1.02-.634-.222-.18-.257-.308.153-.659.189-.529.376-.306 1.219-.047 4.18.538 2.979-.323 3.256.785 3.113-.16.643-.352.78-1.134 4.398-1.885 1.54-.982 1.65-.538 2.832-.597 2.366-.79.677-.091 5.68.377 3.904.048 1.791-.745 1.04.25-.098.266zm-54.258-.477.783.547.42.183.316-.085.568-.199h.544l.44.034.212-.173.33-.037.948.123-.19.799.44.88 1.033 1.223 1.04.617 4.203 1.525.773.13-.176.626-.253.555-.278.37-1.23.239-3.399-.681-.86-.065-.605.136-1.123.495-1.245-.159-1.735.281-.485.933-1.205 1.068-1.984.863-1.417.462-2.13 1.656-.965.967-.407.187-.483.149.162-.465.24-.424-.057-.32.007-.467.71-.528.646-.384 1.91-.694.503-.577-1.498.014-1.52.128-.958-.082-.83.047-.265-.504-.201-.304.215-.095.276-.065.488-.538.436-.397.629-.5.161-.297v-.278l-.15-.193-.028-.229-.021-.324.035-.668 1.44-.73.462-.078.158-.333-.106-.773-.199-.624-.257-.042-.347-.182-.227-.21-.364-.231-.628-.142-.021-.197.063-.197.231-.201 1.058-.174.125-.142.143-.35.21-.359.25-.118.447.01.848-.082.591-.117.588-.245.3-.222 1.272-.13.357-.113.354.096z" style="opacity:1;fill:#eba044;fill-opacity:1;fill-rule:nonzero;stroke:#505050;stroke-width:.5;stroke-linecap:round;stroke-linejoin:round;stroke-miterlimit:4;stroke-dasharray:none;stroke-opacity:1" transform="translate(-354.572 -116.582)" id="path2" />
  </g>
</svg>
