<?xml version="1.0" encoding="UTF-8" standalone="no"?>
<svg viewBox="-180.25 1.15 126.466 56.262" version="1.2" width="126.466" height="56.262" id="svg6" sodipodi:docname="ukraine.svg" xmlns:inkscape="http://www.inkscape.org/namespaces/inkscape" xmlns:sodipodi="http://sodipodi.sourceforge.net/DTD/sodipodi-0.dtd" xmlns="http://www.w3.org/2000/svg" xmlns:svg="http://www.w3.org/2000/svg">
  <defs id="defs10" />
  <sodipodi:namedview id="namedview8" pagecolor="#ffffff" bordercolor="#666666" borderopacity="1.0" objecttolerance="10.0" gridtolerance="10.0" guidetolerance="10.0" inkscape:pageshadow="2" inkscape:pageopacity="0.0" inkscape:pagecheckerboard="0" />
  <g style="display:inline" id="g4">
    <path class="polygon" d="m218.968 89.207.965.345-.985-.092-2.164-.324-.955-.306-.246-.341-.14-.466.533.49.376.214zm10.077-42.909 1.13.008.854-.085.585.204.723.45.653.668.684 1.234 1.993 1.395.035.272-.164.175-.98.17-.827.092-.042.239.22.259.378.379.056.488-.02.45.163.396.315.161.042.2-.366.244-.101.15.142.081 1.798.047.88.238.668.216.337.02.758-.139.851-.088.517-.012.2.16.16.418.299.42.279.119.498-.02.3.02.16.16-.18.239.042.259.22.32.26.737.239.22.16.278v.32l-.2.279-.14.219.14.498.538.559.399.14.32.498.577.16.858-.42.658-.219.823.122.76.078.51.285.378.393.439.219.44-.115.916.115.42.319.418.18.54-.26.438-.319 1.606-.334 1-.084.278-.065.586-.239.618-.159.558.044.55.495.567.342.16.539.693.74 1.723 1.015.676.309.46-.055.24-.08.11-.107.104-.496.218-.182.35-.006 1.347.618.706.066.67.012.903.48.991.418.766.044.61-.164.42-.1.259.16.24.359.398.28.458.079.66.018 1.147.541 1.078.551.674.03.57-.162.506-.042.35.14.1.239-.26.32v.458l.48.439.013.431-.136.39-.272.358-.655.494-.606.46-.912.193-.511.2.134.339.334.315.773.256.878.186.1.205-.133.103-.563.095-.779-.098-.259.18-.359.299-.24.538-.18.499.846.135.491.204.153.41.176.456.05.41-.28.2-.014.204.131.1.364.046.278.091.02.217-.531.487-.498.931-.267.496.02.539-.3.299-.54.025-1.873.052-1.628-.026-.705-.077-1.102-.046-.546.127-.724.86-.548.337-.907.305-.995.087-.57.355-.2.558-.015.494-.093.247-.216.216-.077.154.049.17.23.062.279.077v.123l-.108.155-.309.17-.138.262.028.277.063.31-.252.078-2.448-.11-1.997.15-1.425 1.103-.849-.003-1.197.288-.808.357-.96.776-.744-.348-.909.01-.887.21-1.068.518-.594.092-1.188-.15-1.385.298-2.988 1.7-1.005 1.243-.366.243-.504.303-.54.153-.285-.014 1.423-.883.436-.331.075-.244.007-.394-.43-.49-1.165 1.214-.662.176-.839.365-.042.814.095.604.345.76.814 1.245 1.66 1.778.797.653.585.261.704.038 1.35-.55.578-.085 1.256.21.45-.368.654-.202.839-.026.957.164 1.035.278-.425.629-.444.5-.157.553-.246.615-1.144.276-1.226-.033-1.292.178-.466-.24-.309-.219-.573-.218-.756-.121-.679.146-.803.84-1.421.575-.47.656-1.4-.147-1.196.115-1.728.598-1.318 1.283-1.45.802-1.152.254-1.08-.08-.699-.24-1.436-.842.084-.303.2-.152.272-.433.575-1.591-.077-.516-.322-.813-1.14-.632-.916.12-.522-.168-1.878-1.074-1.022-.076-1.13.217-.416-.156-.306-.374 2.24-1.325 2.2-1.093.964-.112 1.303-.51 1.39-.763-.196-.6-.299-.444-.667.121-.483.149-1.164-.477-.429-.35-1.823.364-1.014-.054-2.241.334-1.028-.326-2.06-.915-.773-.183-.657.039-.36-.301.44-.15.512-.018.531-.11.15-.16-.035-.299-1.07-.227-.994-.065-.63-.27-.48-.308 1.127-.005 1.134.233 1.774.086 1.61.241.403-.3.935-.519.178-.165-1.567.355-1.588-.227-.58-.316-.49-.465-.206-.529.133-.493-.171-.89-.524-.792-.186-.435-.553-.389.544.88.203.587.327.54-.077 1.432-.201.503-.653.126-.858-.075-.874-.156.218-.788-.466.272-.657.767-.578.115-1.285-.084-2.383.507-.164.553-.358.748-.346.435-.109.263-1.016 1.128-.13.106-1.918 1.564-.244.117-1.243.364-.735.32-.563.142-.953-.159-.396.226-.188.28-.003.577.484.415.396 1.382-.148.584-.377-.378-.59-.399-1.148-.342-1.261.118-1.373.576-.932.215-.49-.148-.298.008-.106.165.021.135.152.105-.021.077-.193.047-2.166-.406-.935-.384-.737-.724.367-.234.318-.103 1.127-.06.194-.074.02-.167.085-.216-.028-.318-.126-.335.495-.49.737-.407.432-.407.07-.596.775-.29.687-.5.17-.543.24-.342-.438-.784-.092-.517-.02-.433.216-.24.64-.27.675-.209.28.02.102.133.028.88.134.016.216-.11.352-.517.243.15.373.058.28-.133.181.015.226.134.448.188.42.062.347-.125.296-.224.316.077.601.61.28-.067 1.384-.124.223-.166.164-.15-1.447-.811.073-.603.056-.691-.17-.41-.282-.326-1.107-.378-.854-.392-.18-.176-.021-.23-.035-.355-.34-.305-.027-.258.216-.403.05-.429-.072-.169-.2-.138-.385-.013-.506-.248-.347-.334-.932-.481-.286-.079-.174-.238-.084-.285.196-.353.246-.544.173-.51.003-.305-.114-.752-.486-.575-.227-.076-.392.162-.446.135-.351-.127-.401-.312-.644-.867-1.205-.174-.499-.041-.472.418-.147-.127-.133-.267-.249-.107-.329.124-.095-.119.141-.361-.393-.179-.925.004-.493-.133-.056-.271-.29-.179-.526-.086-.51-.222-.494-.357-.739-.232-.985-.108-.08-.039-.091-.05-.636.242-.382.192-.468-.12-.759.43-1.54.022-.755-.026-.375-.107-1.446.651-.15.24-.326.08-.911.13-.957.183-.2.634-.286.342-.514.503-1.778.174-1.536.246-1.575.152-2.063.614-.67.542-.663.15-.6.045-.389-.302-1.308-.81-.505-.381-.663-.113-.722.064-.693.188-.73.036-.825-.271-.087.026-.319.037-2.05-.328-.188-.055-.091-.014-.282-.024-1.544.041-1.439-.662-.442-.02-.34.268-.252.298-.993.296-.254.12-.144-.092-.07-.258.075-.227-.147-.215-.378-.245-.092-.1-.473.018-.13.024-.049-.005-.657-.208-.436-.5-.674-.265-.515-.089-.235-.214-.151-.285-.161-.215-.021-.02-.11-.325-.158-.034-.028-.009-.667.057.077-1.143 1.066-.82.262-.415.398-.9.298-.42.358-.348.287-.337.102-.289.289-.031.849.26.76.135.21-.127.085-.167-.035-.13-.608-.385-.381-.244-.021-.151.137-.338.073-.38-.087-.41-.415-.909-.079-.387.397-.47 1.292-1.12.43-.422.59-.508 1.596-1.217 1.01-.707.682-.392 1-.68.44-.352 1.826-.23.226-.328.334-.36.261-.154.035-.606-.339-.74-.273-.262-.202-.178.13-.166.203-.048.25-.024.308-.178-.07-.194-.77-.474-.334-.365-.522-.936-1.06-.972-.334-.315-.049-.297.155-.297-.146-.378-.375-.482.056-.053-.035-.596.267-.128.421-.087.594.029.509.092.608.272.19-.044 1.04-.513 1.073-.77.305-.447.267-.203.933-.109.813-.045.517.008 1.268-.076.752-.084.65-.135 1.404-.05 2.192.09 1.438.006.977.072 2.392.41.891.074.414.217.794.08 1.446.219 1.256.117.849-.048.475.062.897.97.183.112.36.023.733-.083 1.043.031.619.205-.091.577.162.084.29-.033.333-.326.279-.338.208-.104 1.065.228.487-.037.45-.256.275-.044.755.182.93.128.753.008.469.139.34.602.298.124.287.038.434-.538.394-.21.546-.153.352-.067.247-.19.334-.186.289-.014.235.071.27.257.394.585.48.588.333.213.862-.18.585-.184 1.07-.035 1.42-.129 1.084-.168.679.03.412.186.625.361.171.519.813.358.665.065.227-.373.389-.26-.146-.356-.063-.454-.29-.422-.195-.454.357-.648.389-.568.194-.308.616-.567.633-.406.945-.652.69-.215.625.098.346.09.896-.387 1.594-.019 1.328.05.133.011.652.2.688.17.474.011.565-.04.662-.226.462-.217.561-1.107.198-.159.309-.087.507-.009.963.206 1.127.186.653-.026 1.741-.589.971-.092z" style="opacity:1;fill:#e1af22;fill-opacity:1;fill-rule:nonzero;stroke:#505050;stroke-width:.5;stroke-linecap:round;stroke-linejoin:round;stroke-miterlimit:4;stroke-dasharray:none;stroke-opacity:1" transform="translate(-329.814 -44.758)" id="path2" />
  </g>
</svg>
