<?xml version="1.0" encoding="UTF-8" standalone="no"?>
<svg viewBox="-180.25 1.15 69.741 76.176" version="1.2" width="69.741" height="76.176" id="svg6" sodipodi:docname="united_kingdom.svg" xmlns:inkscape="http://www.inkscape.org/namespaces/inkscape" xmlns:sodipodi="http://sodipodi.sourceforge.net/DTD/sodipodi-0.dtd" xmlns="http://www.w3.org/2000/svg" xmlns:svg="http://www.w3.org/2000/svg">
  <defs id="defs10" />
  <sodipodi:namedview id="namedview8" pagecolor="#ffffff" bordercolor="#666666" borderopacity="1.0" objecttolerance="10.0" gridtolerance="10.0" guidetolerance="10.0" inkscape:pageshadow="2" inkscape:pageopacity="0.0" inkscape:pagecheckerboard="0" />
  <g style="display:inline" id="g4">
    <path class="polygon" d="m-12.566 57.803-.587.242-.185.283-.142.112-.388.073-.384.002-1.463-.569-.337.026.335-.26.909-.212.51-.28 1.18.272zm-21.918-18.418.293.13.739-.02-.245.29-.813.324-.547.32-.66.267-.321-.307-.372.012-.57-.589-.101-.882.743-.23 1.026.015zm-15.25-13.443.988.175.735-.004.654.51.35.804.816.794 1.066.691.042.423-.38.227-.798.282.003.302.526-.153.454-.07 1.093.068.382.306.264.46.138.376-.094.41-.294-.13-.3-.366-.331-.17-.386-.09.175.502-.07.673.169.064.519.012-.343.69-.71.186-.826.07-.2.244-.15.315-.431.469-.57.264-.703-.053-.69-.209-.598-.043-.42.124-.273.115-.264-.02-.755.043-.711-.01-.101-.182.121-.551-.159-.15-.68-.075-.251-.132-.391-.38-.076-.177-.056-.246-.413-.316-.5-.227-.295-.011-.586.37-.484.375.171.188.159.248-.264.178-.795.407-.125.157-.215.086-.38-.113-.944.026-.435-.071-.505-.3-1.234-.2-.206-.48-.238-.09-1.399-.823-.186-.275.181-.164.523-.249 1.753-.411.276-.166.056-.146-.514-.167-.464-.185-.159-.12-.014-.106.264-.137.53-.01.419.062.332-.123.586-.124.392-.156.337-.402.356-.362.035-.196.312-.687.172-.17 1.108-.45.28.245.546.06.489-.226.585-.713.408-.045.448.058.882-.09 1.567-.333zm8.89-1.449-.883.005-.32-.06-.38-.17-.429-.961.154-.34.175-.167.193-.13.466-.054.463.182.175.17.388.65.072.557zm-7.165-3.372.252.899.247.557.014.19-.232.265-1.153.352-.364.002-.014-.085.26-.358-.223-.407.109-.309-.107-.056-.225.044-.826.49-.276.049-.028-.1.204-.402.028-.275.123-.168.225-.156.268-.117.215-.017.23.12.67-.336zm1.112.812-.146.075-.354-.02-.132-.113-.073-.174-.007-.318.215-.228.907-.343-.41-.122-.013-.086.235-.286.976-.445.261-.08.26.012-.505.79zm1.345-3.708-2.788.389-.96-.034-.088-.191.191-.128.796-.124.322-.936-1.203-.43-.063-.122.094-.205.14-.092.73-.217.306-.049.248.03.512.25.58.528.775.083.526.224zm-5.808-1.685-.398.04-.028-.1.69-.473.448-.078.156.046-.324.274zm-5.665-2.663-.615.096-.229-.056-.042-.089.14-.24.473-.086.341.13.056.12zm7.965.005-.208.09-.263-.017-.26-.116-.344-.33.772-.228.309.134.119.153.005.17zm-6.796-1.054-.295.039-.388-.038-.239-.109-.24-.43-.043-.26.108-.484-.028-.579.799-.018.204.083.137 1.718zm7.736-2.728-.007.31-.123.363.16.386.035.276.295.088.18.127 1.312.142 1.22-.04.235.114.028.18-.193.2-.694.363-.828.588-.248.122-.267.005-.192-.053-.137-1.044-.899.133-.723-.015-.396-.127-.278-.245-.56-.63-1.631-.248-.462-.347-.138-.21.056-.115.34-.258.424.092.263-.057.16-.115-.002-.095-.223-.224-.014-.07 1.668-.285.146-.444.362-.037.413.146.566.461zm-7.426-1.246.79.394-.629.654-.965-.003-1.36-.478-.006-.097.113-.143.204-.114.212-.027.337.078.469-.125.376.04zm7.048-4.762-.89 1.22-.348.031-.306.305-.947.337.826.007.232.112.007.242-.16.14-1.07.56-.737.212-.793.584-.4.007-.396.372-.326.164h-.184l-.21-.082-.493-.364.893-.358.082-.202.612-.209-.05-.065-.968-.294-.382-.198.035-.104.467-.227-.222-.03-.149-.123-.27-.047-.082-.114-.049-.3.073-.308.282-.136.116-.145.114-.045.438.077.443.246.517-.095.6.047.015-.057-.441-.604.079-.124.24-.14 1.386-.431 1.73-.725.417-.113.126.099.177.375zm21.623-1.065.063.572-.082.174-.168.214-.529.4-1.39.57-2.548 1.313-1.506.652-.207.313-.112.436.902.086.347.148-.215.222-1.333.769-.393.695 1.022-.025.842-.133 1.68-.434 1.578-.322.758-.013 1.474.257.335.008.625-.119.633-.02 4.285.08 1.19-.152.789.18.658.45.626.83-.021.139-.378.378-.699.475-.6.653-.177.352-.118.386-.19.356-1.195 1.675-1.165.928-.52.66-.642.524-.618.33-.66.22-1.905.236-.533.168-.637.29-.668.143.784-.018.776-.161 1.413-.06 1.627.556-.15.453-.653.36-1.486.056-1.389.798-.627.245-.661.122-.827-.036-1.503-.214-.658-.223.595.364.674.19 3.913.449.235-.046 1.248-.474 1.663-.007 3.166.87.911.665 1.306.954.71.372.515.337.316.506.613 1.67.7 1.632.916 1.768.415.49.546.345 2.765.792.616.262 1.073.762 1.034.811.962.624 1.04.504-.504.262-.345.413.258.56.423.535.832.857.733.935-.27-.141-.284-.078-.388.023-.38-.045-.701-.292-.674-.36-1.34.145-.743-.065-.646.01 1.224.208 1.34.015 2.954 1.568.999.93.593 1.228-.404.552-.629.358-.587.409-.549.462 1.637.678.353-.02.363-.095.347-.231.588-.561.303-.2 1.02-.073.856.044.852.124.75-.04 1.51.242.775.217 1.922.979.416.535.191.691.021.767-.323.7-.371.633-.229.817-.162.294-.227.23-1.019.645-.677.265-.285-.116-.305.016-.035.155.322.329.004.397-.602.294-.61.125-1.023-.156-1.42.547 1.02.282.206.3-.255.526-.642.234-.712.104-.729.025-.603.13-.579.247.727-.132.504.116.316.443.287.127 1.42.19.88-.002 1.694-.108.815.003.29.08.005.368-.127.901-.224.186-2.247.758-.46.529-.13.32-1.315-.056-.616.339-1.064.225-.823.24-.806.302-.662.09-2.863-.359-1.728.03-2.341.313-.603-.052-.904-.3-.926-.203-1.066-.089-.92-.277.575.533-1.276.513-.589.102-.61-.016-1.246.14-1.156-.071.174.365.31.318-.251.138-.266.035-2.2-.24-.311.045-.272.222-.8-.12-.778-.374-.826-.25-.868-.119-.69.04-2.836.59-.566.591-.283.839-.41.744-.667.573-.795.075-.748-.397-1.422-.438-.484-.296-.154-.017-.159.106-.558.133-.577.006-.89.118-1.55.356-.626.242-1.345.667-.273.184-.49.672-.747.119-.683-.431-.778-.15-.82.147-.497.229-.232-.186-.007-.382.6-.456 1.598-.344 1.404-.893.688-.545.273-.306.336-.195.44-.074.225-.338 1.949-1.36.16-.313.098-.558.16-.537 1.587-.348.758-1.13.209-.09 2.212-.207 1.641.017 1.63.22.835.02.838-.076.658-.305 1.126-1.1.633-.483.725-.437.678-.5 1.1-.925-.743.319-.898.505-.522.294-1.655.295-.713.302-1.248.681-.24.057-1.885-.164-1.403-.883-.896-.362-.37-.041-.383.108-.819.11-.835-.02.426-.407.58-.228-1.297-.158-.36-.124-.41-.286-1.017-.05-.485.074-.818.377-1.293.402-1.557-.557-.305-.244.007-.471-.233-.373-.432-.132.553-.486.667-.324 1.467-.322 2.222-.763 1.245-.325 1.158-.56.48-.343.346-.468.345-.574.491-.466-.476-.111-.214-.352.056-.357.22-.316-.198-.397-.35-.415.02-.323.094-.345-.894.018-.891.108-.808.245-.783.332-.695.062.014-.266.301-.329.789-.47.844-.389.3-.295.237-.344.42-.276 1.102-.52 2.112-.587.316-.034.828.068.814-.089.713-.21.711-.046 1.6.608-.476-.94.706-.226 1.024.85.38.09.803-.123-.31-.144-.361-.008-.474-.128-.399-.273-.662-.865.035-.514.447-.534.494-.492-.414-.098-.333-.188-.095-.491.13-.435.888-.383.263-.582.111-.64-.148-.294-.881.047-.428.12-.385.19-.394-.012-1.089-.708-.62-.536-1.115-1.134-.158-.677.892-1.461 1.377-.935 1.622-.325-.314-.062-2.47-.013-.815.115-.755.381-.427.118-.448.043-.408.19-.399.264-.415.169-.825-.044-.4.056-.288-.153-.24-.252-.316-.067-.352.077-.744.34-.753.202-.91-.215-1.194-.4-.235.146-.265.371-.151.58-.848-.503-.722-.673-.243-.423-.02-.476.391-.185.426.17.635-1.13 1.263-1.47.445-.43.311-.563-.056-.368-.278-.31-1.174-.707.014-.574.126-.65.319-.389.134-.074 1.56.01-.609-.2-1.212-.587.021-.208.285-.542-.131.055-.26.25-.496.607-.303.142-.857.144-.155.298-.138.078-.429.034-.131.278-.095.018-.122-.3-.014-.498.17-.458.326-.359 1.256-.814-.611.251-1.386.753-.708.495-.19.167-.055.14.004.163.317.87-.09.403-1.194 2.664-.226.267-.208.14-.197.032-.588-.05-.264-.2.002-.227.11-.34.497-1.263.214-.35.32-.327.703-.572-.014-.037-.468.112-.2-.037-.143-.113.093-1.695.38-.558.142-.81.33-.695.382-.506.29-.648.437-.287.117-.44.491-.477.38-.498-.205.049-2.426 1.297-.618.236-.842-.063-.645-.146-.503-.307-.225-.59-.621-.015-.532-.101.006-.08.686-.321 1.1-.11 1.029-.514-.916-.347.077-.11.799-.296 1.015-.992.206-.913-.486-.428-.175-.281-.97-.313-.162-.401.113-.224.316-.218.477-.17.748-.163-.68-.174-.253-.206-.191-.298-.021-.173.351-.77.204-.316.4-.405 1.815.023.209-.179.206-.007.928.163-.138-.175-1.518-.96-.136-.184.433-.517.035-.231-.063-.247.124-.188.48-.088 1.468.009.361-.088-.164-.25-.342-.327-.07-.276.08-.243.021-.49.07-.217.349-.324.287-.097.357-.056.806.108.306.13.352.31.26-.025 1.004-.336.301-.048.41.389 1.713-.31 2.304-.14 1.383-.204 1.458-.074 1.361-.232 1.443.106.049.135-.076.188zm1.262-1.583-.07.02-.255-.127-.42-.46.66-.092.313.057-.116.196zm-1.649-.368-.4.092-.397-.007-.619-.404-.235-.295.042-.194.261-.066.599.096.31.336.042.22.073.086.372.086zm.753-1.648-.093.172.532-.004.77.147.467.019.388.182-.214.342-.232.096-.263.019-.918-.342-1.202.142-.24-.043-.158-.095-.063-.117v-.239l-.064-.07-.435.226-.191-.027-.108-.108-.05-.225.05-.323.255-.461.433-.092.645.053.737.261.223.161-.006.129zm3.56-1.412-.792.008.408-.414.476-.104.9.046-.16.186zm-1.264.312-.6.174-.257-.144-.07-.45-.716-.194-.348-.12-.27-.226.07-.07.467-.093.797.411.326.333.591.098.075.051zm9.95-9.455.144.493.362-.128.546.473h.279l.458-.187-.092.44-.476 1.222-.134.208-.09.371-.095.073-.14.751-.322.247-.27.59-.11.059-.395-.227.395-.901.163-.524-.103-.272-.223-.244-.603-.008-.508.113-.108-.145-.014-.194-.122-.064-.675.013-.198-.054-.131-.178-.028-.142.61-.111.575.04.839-.282-.525-.95-.695-.089-.161-.092.134-.16.381-.087.587-.483.352-.076.436.014zm1.858.165-.177.081-.684-.711.506-.814.613.025.098.214-.063.196-.312.017-.028.06.097.379.006.439zm1.878-2.087v.08l-.364.59.005.227-.585-.022-.092-.072-.11-.339.073-.36.082-.093.17-.039.186.071.29-.182.152.004z" style="opacity:1;fill:#bb62e5;fill-opacity:1;fill-rule:nonzero;stroke:#505050;stroke-width:.5;stroke-linecap:round;stroke-linejoin:round;stroke-miterlimit:4;stroke-dasharray:none;stroke-opacity:1" transform="translate(-117.876 14.589)" id="path2" />
  </g>
</svg>
